<svg id="calendar-view-icon" xmlns="http://www.w3.org/2000/svg" width="42.009" height="42" viewBox="0 0 42.009 42">
  <path id="Path_16271" data-name="Path 16271" d="M-2063.54-4534.132q10.311,0,20.621-.006c.3,0,.374.093.374.388q-.009,12.281,0,24.561a2.553,2.553,0,0,1-2.658,2.724l-36.637,0a2.5,2.5,0,0,1-2.56-1.753,2.976,2.976,0,0,1-.137-.923q-.01-12.3-.01-24.594c0-.312.085-.4.393-.4Q-2073.849-4534.125-2063.54-4534.132Zm-.011,24.726h15.257c.157,0,.316,0,.472-.012a2.124,2.124,0,0,0,2.038-2.247c-.038-4.887-.019-9.774-.017-14.662,0-.267.064-.533.06-.8-.006-.493-.043-.985-.06-1.479-.009-.259.02-.521-.013-.777a.365.365,0,0,0-.227-.257,8.173,8.173,0,0,0-.889-.011h-20.277c-1.373,0-2.747.024-4.12-.008a33.01,33.01,0,0,1-3.486-.083,19.7,19.7,0,0,0-2.281.084c-1.255-.01-2.51-.079-3.765-.107-.494-.011-.548.053-.537.558.027,1.229.093,2.458.095,3.688.009,4.7,0,9.407,0,14.109a1.841,1.841,0,0,0,.74,1.506,2.56,2.56,0,0,0,1.66.5Q-2071.226-4509.409-2063.551-4509.406Z" transform="translate(2084.552 4548.465)" fill="#5e6850"/>
  <path id="Path_16272" data-name="Path 16272" d="M-2063.53-4566.845h-20.554c-.449,0-.449,0-.449-.466q0-2.708,0-5.417a2.544,2.544,0,0,1,2.636-2.74c1.282-.006,2.564.006,3.846-.007.3,0,.4.077.4.4a10.3,10.3,0,0,0,.108,1.965,2.964,2.964,0,0,0,3.018,2.335,3.025,3.025,0,0,0,2.822-2.7,12.514,12.514,0,0,0,.03-1.587c-.008-.312.095-.409.4-.408q5.138.012,10.277,0h5.107c.49,0,.485,0,.492.523a15.235,15.235,0,0,0,.052,1.585,3.023,3.023,0,0,0,2.825,2.585,2.975,2.975,0,0,0,2.99-2.293,11.294,11.294,0,0,0,.118-2c0-.3.078-.415.388-.411,1.293.015,2.585,0,3.878.009a2.536,2.536,0,0,1,2.611,2.7c.005,1.839-.006,3.677.009,5.515,0,.336-.1.417-.415.416Q-2053.237-4566.85-2063.53-4566.845Z" transform="translate(2084.538 4580.295)" fill="#5e6850"/>
  <path id="Path_16273" data-name="Path 16273" d="M-1965.339-4589.765c0-.712-.007-1.425,0-2.139a2.107,2.107,0,0,1,2.083-2.125,2.1,2.1,0,0,1,2.153,2.057q.047,2.219,0,4.438a2.1,2.1,0,0,1-2.152,2.058,2.1,2.1,0,0,1-2.086-2.119c-.012-.723,0-1.447,0-2.171Z" transform="translate(1995.316 4594.032)" fill="#5e6850"/>
  <path id="Path_16274" data-name="Path 16274" d="M-2049.363-4589.74c0,.7.005,1.4,0,2.106a2.11,2.11,0,0,1-2.12,2.15,2.121,2.121,0,0,1-2.126-2.154q-.011-2.123,0-4.245a2.116,2.116,0,0,1,1.87-2.136,2.113,2.113,0,0,1,2.291,1.5,2.122,2.122,0,0,1,.08.606C-2049.357-4591.187-2049.363-4590.464-2049.363-4589.74Z" transform="translate(2061.393 4594.04)" fill="#5e6850"/>
  <path id="Path_16275" data-name="Path 16275" d="M-2026.688-4500.736c-.594,0-1.188.006-1.782,0a1.14,1.14,0,0,1-1.2-1.2q-.015-1.783,0-3.564a1.057,1.057,0,0,1,1.07-1.117,3.976,3.976,0,0,1,1.134.016,9.272,9.272,0,0,0,1.3-.078c.578.006,1.155.064,1.731.114a.929.929,0,0,1,.68.745c.018,1.358.036,2.716.022,4.075a1.068,1.068,0,0,1-1.073,1.009c-.626.013-1.253,0-1.88,0Z" transform="translate(2043.455 4528.616)" fill="#5e6850"/>
  <path id="Path_16276" data-name="Path 16276" d="M-1959.276-4500.769c-.595,0-1.189.006-1.783,0a1.13,1.13,0,0,1-1.184-1.183q-.011-1.783,0-3.567a1.176,1.176,0,0,1,1.206-1.2c.834-.005,1.669-.011,2.5,0,.488.007.975.043,1.462.078a1,1,0,0,1,.734.818c.022,1.316.042,2.633.041,3.949a1.107,1.107,0,0,1-1.128,1.1C-1958.043-4500.759-1958.66-4500.769-1959.276-4500.769Z" transform="translate(1992.774 4528.648)" fill="#5e6850"/>
  <path id="Path_16277" data-name="Path 16277" d="M-2060.3-4467.636c-.584,0-1.168.005-1.752,0a1.11,1.11,0,0,1-1.2-1.191q-.009-1.784,0-3.568a1.111,1.111,0,0,1,1.127-1.173q1.848-.029,3.7,0a1.111,1.111,0,0,1,1.119,1.181q.008,1.784,0,3.568a1.115,1.115,0,0,1-1.178,1.182h-1.817Z" transform="translate(2068.783 4503.628)" fill="#5e6850"/>
  <path id="Path_16278" data-name="Path 16278" d="M-2023.721-4470.61c0,.605.007,1.211,0,1.816a1.087,1.087,0,0,1-1.16,1.158q-1.8.012-3.6,0a1.123,1.123,0,0,1-1.187-1.179q-.015-1.783,0-3.568a1.126,1.126,0,0,1,1.158-1.184q1.832-.027,3.665,0a1.1,1.1,0,0,1,1.121,1.139c.01.605,0,1.211,0,1.816Z" transform="translate(2043.454 4503.625)" fill="#5e6850"/>
  <path id="Path_16279" data-name="Path 16279" d="M-1992.844-4500.764c-.605,0-1.21.006-1.816,0a1.11,1.11,0,0,1-1.176-1.182c-.008-1.07-.007-2.14,0-3.21a3.655,3.655,0,0,1,.048-.762,1.148,1.148,0,0,1,1.2-.782c.4.037.8-.013,1.2-.013.843,0,1.688-.028,2.528.021a1.073,1.073,0,0,1,.965,1.092c.016,1.243.019,2.486,0,3.729a1.106,1.106,0,0,1-1.157,1.107C-1991.654-4500.757-1992.249-4500.764-1992.844-4500.764Z" transform="translate(2018.113 4528.643)" fill="#5e6850"/>
  <path id="Path_16280" data-name="Path 16280" d="M-2060.334-4500.74c-.594,0-1.188.005-1.782,0a1.122,1.122,0,0,1-1.184-1.178c-.008-1.113-.047-2.228.007-3.338.041-.836.41-1.352,1.383-1.338.63.009,1.261-.087,1.893-.093.4,0,.8.077,1.2.114a.637.637,0,0,0,.223-.016.9.9,0,0,1,1.1.523,1.545,1.545,0,0,1,.129.593c.012,1.177.01,2.355,0,3.533a1.136,1.136,0,0,1-1.2,1.2h-1.783Z" transform="translate(2068.832 4528.62)" fill="#5e6850"/>
  <path id="Path_16281" data-name="Path 16281" d="M-1992.879-4467.633c-.594,0-1.189.006-1.784,0a1.092,1.092,0,0,1-1.169-1.18q-.01-1.783,0-3.567a1.111,1.111,0,0,1,1.173-1.187q1.783-.017,3.567,0a1.127,1.127,0,0,1,1.2,1.208q.013,1.784,0,3.567a1.113,1.113,0,0,1-1.169,1.159c-.3.007-.605,0-.908,0h-.908Z" transform="translate(2018.109 4503.625)" fill="#5e6850"/>
</svg>
