<?xml version="1.0" encoding="utf-8"?>
<!-- Generator: Adobe Illustrator 24.1.0, SVG Export Plug-In . SVG Version: 6.00 Build 0)  -->
<svg version="1.1" id="Layer_1" xmlns="http://www.w3.org/2000/svg" xmlns:xlink="http://www.w3.org/1999/xlink" x="0px" y="0px"
	 viewBox="0 0 19.7 19.7" style="enable-background:new 0 0 19.7 19.7;" xml:space="preserve">
<style type="text/css">
	.st0{fill:#FFFFFF;stroke:#36474F;stroke-width:0.75;stroke-miterlimit:10;}
	.st1{fill:#36474F;}
</style>
<circle class="st0" cx="9.9" cy="9.9" r="9.5"/>
<g>
	<path class="st1" d="M9.3,9.6V8.9c0.3,0,0.3,0,0.3,0c0.9,0,1.6-0.5,1.6-1.4c0-0.8-0.6-1.4-1.4-1.4c-0.8,0-1.3,0.6-1.3,1.6H7.6
		c0-1.4,1-2.4,2.2-2.4c1.3,0,2.2,1,2.2,2.3c0,0.7-0.3,1.2-0.9,1.7c0.9,0.5,1.5,1.4,1.5,2.4c0,1.6-1.2,2.9-2.8,2.9
		c-1.4,0-2.8-0.9-2.9-2.9h0.9c0.1,1.4,1,2.1,2,2.1c1.1,0,1.9-0.9,1.9-2c0-1.1-0.9-2-2.2-2H9.3z"/>
</g>
</svg>
