<svg id="past-events-icon" xmlns="http://www.w3.org/2000/svg" width="42" height="42" viewBox="0 0 42 42">
  <path id="Path_16261" data-name="Path 16261" d="M-2543.164-4361.431l-3.606,3.563c-.028-.364-.055-.549-.055-.733,0-3.075,0-6.15-.008-9.225,0-.414.1-.606.569-.6,3.169.018,6.338.01,9.506.013.136,0,.272.028.516.055-.188.211-.3.357-.437.488-1.049,1.044-2.094,2.093-3.157,3.122a.547.547,0,0,0-.079.86,16.994,16.994,0,0,0,11.944,7,17.157,17.157,0,0,0,17.949-10.571,16.874,16.874,0,0,0,1.212-6.349,17.108,17.108,0,0,0-12.408-16.364,17.237,17.237,0,0,0-20.537,9.786,39.023,39.023,0,0,0-1.122,3.769,4.562,4.562,0,0,1-.359,1c-.647,1.11-1.124,1.107-2.307.876a1.64,1.64,0,0,1-1.175-2.007c.114-.754.258-1.506.434-2.248,1.649-6.957,6.069-11.564,12.57-14.27a19.869,19.869,0,0,1,12.958-.82,20.714,20.714,0,0,1,14.586,12.93,18.675,18.675,0,0,1,1.3,6.074,19.992,19.992,0,0,1-.122,3.7,20.516,20.516,0,0,1-12.213,16.659,20.289,20.289,0,0,1-13.007,1.456,20.831,20.831,0,0,1-12.55-7.806,2.554,2.554,0,0,0-.207-.245A.963.963,0,0,0-2543.164-4361.431Z" transform="translate(2546.834 4394.812)" fill="#fff"/>
  <path id="Path_16262" data-name="Path 16262" d="M-2456.424-4340.424c0,1.221.03,2.442-.013,3.661a1.358,1.358,0,0,0,.641,1.271c.635.375.693,1.008.839,1.569a1.053,1.053,0,0,0,.6.791c1.2.606,2.373,1.273,3.581,1.865s2.455,1.126,3.684,1.687a2.761,2.761,0,0,1,.37.2.8.8,0,0,1,.35,1.13.781.781,0,0,1-1.113.4c-1.753-.868-3.491-1.765-5.245-2.631-.946-.467-1.909-.9-2.876-1.322a.546.546,0,0,0-.441.141,2.5,2.5,0,0,1-3.043.029,2.482,2.482,0,0,1-.815-2.922,3.244,3.244,0,0,1,1.037-1.411,1.068,1.068,0,0,0,.233-.752c.017-2.341.01-4.682.011-7.023,0-.221-.007-.442.009-.66a1.052,1.052,0,0,1,1.1-1.1,1.053,1.053,0,0,1,1.077,1.122c.017.239.009.48.009.72q0,1.621,0,3.241Z" transform="translate(2477.853 4355.377)" fill="#fff"/>
  <path id="Path_16263" data-name="Path 16263" d="M-2498.956-4347.058a1.772,1.772,0,0,1,.506.214c.49.469.979.941,1.427,1.449a.559.559,0,0,1-.113.89.952.952,0,0,1-.844.047,9.254,9.254,0,0,1-1.445-1.424.927.927,0,0,1-.039-.767C-2499.4-4346.829-2499.124-4346.931-2498.956-4347.058Z" transform="translate(2509.64 4357.268)" fill="#fff"/>
  <path id="Path_16264" data-name="Path 16264" d="M-2407.671-4345.991a1.767,1.767,0,0,1-.211.507,13.432,13.432,0,0,1-1.457,1.413.952.952,0,0,1-.844-.058.558.558,0,0,1-.1-.889,13.416,13.416,0,0,1,1.438-1.433.935.935,0,0,1,.768-.045C-2407.9-4346.434-2407.8-4346.159-2407.671-4345.991Z" transform="translate(2439.608 4356.875)" fill="#fff"/>
  <path id="Path_16265" data-name="Path 16265" d="M-2497.682-4257.389c.559-.023,1.008.6.7.987a11.466,11.466,0,0,1-1.651,1.626.761.761,0,0,1-.736-.125.846.846,0,0,1-.123-.788,19.971,19.971,0,0,1,1.581-1.619C-2497.852-4257.369-2497.732-4257.373-2497.682-4257.389Z" transform="translate(2509.661 4286.773)" fill="#fff"/>
  <path id="Path_16266" data-name="Path 16266" d="M-2408.293-4254.51c-.033,0-.114.008-.148-.026-.615-.607-1.243-1.2-1.812-1.852-.075-.086.092-.531.259-.644a.817.817,0,0,1,.746-.065,10.635,10.635,0,0,1,1.53,1.506A.676.676,0,0,1-2408.293-4254.51Z" transform="translate(2439.468 4286.597)" fill="#fff"/>
  <path id="Path_16267" data-name="Path 16267" d="M-2450.992-4364.823c0,.319.017.64,0,.957a.649.649,0,0,1-.707.659.646.646,0,0,1-.69-.676c-.021-.618-.021-1.237,0-1.855a.641.641,0,0,1,.679-.684.658.658,0,0,1,.723.7c.019.3,0,.6,0,.9Z" transform="translate(2472.667 4373.622)" fill="#fff"/>
  <path id="Path_16268" data-name="Path 16268" d="M-2450.988-4238.285c0,.3.014.6,0,.9a.659.659,0,0,1-.717.708.641.641,0,0,1-.684-.678c-.023-.617-.021-1.236,0-1.853a.642.642,0,0,1,.684-.68.663.663,0,0,1,.719.709C-2450.978-4238.883-2450.988-4238.583-2450.988-4238.285Z" transform="translate(2472.667 4271.832)" fill="#fff"/>
  <path id="Path_16269" data-name="Path 16269" d="M-2516.681-4298.007h-1.866c-.477,0-.829-.166-.861-.7-.027-.456.3-.727.886-.726a10.374,10.374,0,0,1,1.834.087.833.833,0,0,1,.481.667C-2516.243-4298.4-2516.56-4298.163-2516.681-4298.007Z" transform="translate(2526.365 4319.895)" fill="#fff"/>
  <path id="Path_16270" data-name="Path 16270" d="M-2391.54-4298.027a6.322,6.322,0,0,1-.66,0,.657.657,0,0,1-.653-.772c.046-.442.313-.626.8-.59.531.039,1.069-.039,1.6-.052a.7.7,0,0,1,.813.619c.07.49-.27.617-.652.678-.413.065-.829.114-1.243.17Z" transform="translate(2424.617 4319.903)" fill="#fff"/>
</svg>
