<svg id="account" xmlns="http://www.w3.org/2000/svg" width="27.585" height="29.912" viewBox="0 0 27.585 29.912">
  <g id="Group_351" data-name="Group 351" transform="translate(-1758.18 -80.143)">
    <path id="Path_240" data-name="Path 240" d="M1765.394,86.584a5.8,5.8,0,0,1,1.837-4.2,7.473,7.473,0,0,1,10.668,0,5.776,5.776,0,0,1,.091,8.36,7.692,7.692,0,0,1-10.852,0,6.317,6.317,0,0,1-1.293-1.948A5.662,5.662,0,0,1,1765.394,86.584Zm2.786-.167a7.442,7.442,0,0,0,1.193,4.284,3.923,3.923,0,0,0,3.291,1.961,3.265,3.265,0,0,0,1.607-.436,4.157,4.157,0,0,0,1.347-1.22,6.642,6.642,0,0,0,.964-2.041,8.251,8.251,0,0,0,.367-2.374,7.811,7.811,0,0,0-.39-2.4,6.982,6.982,0,0,0-1.048-2.085,3.759,3.759,0,0,0-3.076-1.641,3.635,3.635,0,0,0-2.985,1.729A6.938,6.938,0,0,0,1768.18,86.417Z" fill="#282828"/>
  </g>
  <g id="Group_352" data-name="Group 352" transform="translate(-1758.18 -80.143)">
    <path id="Path_241" data-name="Path 241" d="M1785.765,110.055H1777.7v-.433q2.322-.119,2.322-1.711a13.641,13.641,0,0,0-.824-3.266l-2.514-7.337-3.535,8.872a4.668,4.668,0,0,0-.416,1.652q0,1.692,2.157,1.79v.433h-7.944v-.433a3.629,3.629,0,0,0,1.432-.413,1.447,1.447,0,0,0,.663-1.3,7.118,7.118,0,0,0-.392-1.948l-2.729-8.655-3.218,7.79a6.788,6.788,0,0,0-.619,2.3,1.9,1.9,0,0,0,.781,1.633,4.112,4.112,0,0,0,1.417.59v.433h-6.1v-.433a2.524,2.524,0,0,0,1.6-.551,3.37,3.37,0,0,0,.862-1.014,16.573,16.573,0,0,0,.964-2.036l.437-1,4.935-11.709h.726l4.531,13.162,5.465-13.162h.7l4.146,11.926.5,1.436a5.214,5.214,0,0,0,1.41,2.46,3.259,3.259,0,0,0,1.307.492Z" fill="#282828"/>
  </g>
</svg>
