<svg id="cart" xmlns="http://www.w3.org/2000/svg" width="28.547" height="31.392" viewBox="0 0 28.547 31.392">
  <g id="Group_346" data-name="Group 346" transform="translate(-1694.893 -78.579)">
    <path id="Path_237" data-name="Path 237" d="M1718.92,94.406l-.053.476q-.619-.026-1.884-.026-2.241,0-4.4.1l-.145-.413a6.11,6.11,0,0,0,1.654-.339,1.342,1.342,0,0,0,.627-.55q.395-.7.4-5.873,0-1.777-.053-3.13a13.378,13.378,0,0,0-.21-2.1,3.265,3.265,0,0,0-2.123-2.511,9.169,9.169,0,0,0-3.15-.619,10.693,10.693,0,0,0-1.99.225,7.267,7.267,0,0,0-2.2.813,2.936,2.936,0,0,0-1.4,1.6q-.726,2-.725,7.87a22.666,22.666,0,0,0,.112,2.634,3.262,3.262,0,0,0,.362,1.276,1.015,1.015,0,0,0,.633.481,6.015,6.015,0,0,0,1.213.088l.052.438a9.118,9.118,0,0,1-1.318.088q-2.834,0-3.809-.025v-.514a3.863,3.863,0,0,0,1.245-.188.688.688,0,0,0,.409-.538,12.743,12.743,0,0,0,.1-1.653q.04-2.366.119-4.2t.2-3.017a16.459,16.459,0,0,1,.336-2.11,6.046,6.046,0,0,1,.534-1.5,4.03,4.03,0,0,1,1.885-1.653,9.2,9.2,0,0,1,2.583-.77,17.525,17.525,0,0,1,2.373-.181,10.21,10.21,0,0,1,3.282.507,5.254,5.254,0,0,1,2.458,1.682,4.65,4.65,0,0,1,.956,3.028q0,.45-.034,2.465t-.032,3a18.843,18.843,0,0,0,.355,4.6.5.5,0,0,0,.31.356A10.319,10.319,0,0,0,1718.92,94.406Z" fill="#282828"/>
  </g>
  <g id="Group_349" data-name="Group 349" transform="translate(-1694.893 -78.579)">
    <g id="Group_347" data-name="Group 347">
      <path id="Path_238" data-name="Path 238" d="M1723.388,87.287v7.1h-.459a23.446,23.446,0,0,0-.529-4.318h-26.52a23.273,23.273,0,0,0-.528,4.318h-.459v-7.1Z" fill="#282828"/>
    </g>
    <g id="Group_348" data-name="Group 348">
      <path id="Path_239" data-name="Path 239" d="M1694.944,109.971v-7.1h.46a23.418,23.418,0,0,0,.528,4.317h26.52a23.087,23.087,0,0,0,.528-4.317h.46v7.1Z" fill="#282828"/>
    </g>
  </g>
</svg>
