<svg id="Layer_1" data-name="Layer 1" xmlns="http://www.w3.org/2000/svg" viewBox="0 0 25 25"><path d="M1.29,8.32H.5C.57,7.13.62,6.85.65,6.56.7,5.49.72,4.77.72,4.4c0-.12,0-.67-.07-1.64S.55,1.35.5.5h.87a3.6,3.6,0,0,0,.17,1.43,1.29,1.29,0,0,0,.7.75q1.15.52,8.88.52h6.74l3-.06A9.34,9.34,0,0,0,22.71,3a1.22,1.22,0,0,0,.8-.77A3.16,3.16,0,0,0,23.8.63l.7.06c0,.15,0,0,0,.41s0,.89,0,1.36,0,.82,0,1.07,0,.55,0,.87,0,.85,0,1.16,0,.72,0,1.24,0,.51,0,.93,0,.66,0,.75l-.7,0a3.49,3.49,0,0,0-.46-1.84,1.84,1.84,0,0,0-1.13-.82,16.57,16.57,0,0,0-3.77-.4c-1.85-.06-3.8-.09-5.86-.09-1.85,0-4.52.06-8,.16a8.5,8.5,0,0,0-2.06.24,1.48,1.48,0,0,0-.91.89A3.41,3.41,0,0,0,1.29,8.32Z"/><path d="M1.29,16.31H.5c.07-1.18.12-1.46.15-1.75,0-1.08.07-1.79.07-2.16,0-.13,0-.67-.07-1.64S.55,9.35.5,8.5h.87a3.5,3.5,0,0,0,.17,1.42,1.3,1.3,0,0,0,.7.76q1.15.52,8.88.52h6.74c.94,0,1.95,0,3,0A8.44,8.44,0,0,0,22.71,11a1.2,1.2,0,0,0,.8-.77,3.14,3.14,0,0,0,.29-1.57l.7.07c0,.14,0,0,0,.41s0,.88,0,1.35,0,.83,0,1.08,0,.54,0,.87,0,.85,0,1.16,0,.72,0,1.23,0,.52,0,.93,0,.67,0,.75l-.7,0a3.48,3.48,0,0,0-.46-1.83,1.8,1.8,0,0,0-1.13-.82,16,16,0,0,0-3.77-.4c-1.85-.06-3.8-.09-5.86-.09q-2.78,0-8,.16a8.5,8.5,0,0,0-2.06.24,1.46,1.46,0,0,0-.91.88A3.47,3.47,0,0,0,1.29,16.31Z"/><path d="M1.29,24.31H.5c.07-1.19.12-1.46.15-1.76,0-1.07.07-1.79.07-2.16,0-.12,0-.67-.07-1.63S.55,17.34.5,16.49h.87a3.56,3.56,0,0,0,.17,1.43,1.3,1.3,0,0,0,.7.76C3,19,6,19.2,11.12,19.2h6.74l3-.06A9.34,9.34,0,0,0,22.71,19a1.2,1.2,0,0,0,.8-.77,3.16,3.16,0,0,0,.29-1.57l.7.06c0,.15,0,0,0,.41s0,.89,0,1.36,0,.83,0,1.08,0,.54,0,.86,0,.85,0,1.16,0,.72,0,1.24,0,.52,0,.93,0,.66,0,.75l-.7,0a3.52,3.52,0,0,0-.46-1.84,1.84,1.84,0,0,0-1.13-.82,16.57,16.57,0,0,0-3.77-.4c-1.85-.06-3.8-.09-5.86-.09-1.85,0-4.52.06-8,.16a8.38,8.38,0,0,0-2.06.25,1.44,1.44,0,0,0-.91.88A3.44,3.44,0,0,0,1.29,24.31Z"/></svg>