<svg id="hamburger" xmlns="http://www.w3.org/2000/svg" width="21.336" height="25" viewBox="0 0 21.336 25">
  <g id="Group_21615" data-name="Group 21615">
    <path id="Path_15014" data-name="Path 15014" d="M1037.982,127.309h-.706c.066-1.484.11-1.832.132-2.2q.066-2.01.066-2.7,0-.237-.066-2.049c-.043-1.208-.088-1.766-.132-2.829h.772a5.843,5.843,0,0,0,.156,1.785,1.544,1.544,0,0,0,.616.946q1.035.65,7.9.65,4.731,0,5.987-.009t2.686-.069a5.751,5.751,0,0,0,1.626-.217,1.345,1.345,0,0,0,.715-.966,5.4,5.4,0,0,0,.255-1.963l.624.079c0,.184-.009-.031-.025.514s-.031,1.11-.041,1.695-.019,1.035-.025,1.35-.008.677-.008,1.084q0,.867.008,1.448t.025,1.546c.01.644.024.646.041,1.165s.025.831.025.936l-.624.039a5.619,5.619,0,0,0-.41-2.3,1.783,1.783,0,0,0-1-1.025,10.645,10.645,0,0,0-3.354-.5q-2.468-.108-5.206-.108-2.477,0-7.117.2a5.486,5.486,0,0,0-1.829.305,1.637,1.637,0,0,0-.812,1.1A5.782,5.782,0,0,0,1037.982,127.309Z" transform="translate(-1037.276 -117.532)" fill="#282828"/>
  </g>
  <g id="Group_21616" data-name="Group 21616" transform="translate(0 7.493)">
    <path id="Path_15015" data-name="Path 15015" d="M1037.982,146.309h-.706c.066-1.484.11-1.831.132-2.2q.066-2.01.066-2.7,0-.237-.066-2.049c-.043-1.208-.088-1.766-.132-2.829h.772a5.843,5.843,0,0,0,.156,1.785,1.544,1.544,0,0,0,.616.946q1.035.651,7.9.65,4.731,0,5.987-.009t2.686-.069a5.75,5.75,0,0,0,1.626-.217,1.345,1.345,0,0,0,.715-.966,5.4,5.4,0,0,0,.255-1.963l.624.079c0,.184-.009-.031-.025.514s-.031,1.11-.041,1.695-.019,1.035-.025,1.35-.008.677-.008,1.084q0,.867.008,1.448t.025,1.546c.01.644.024.646.041,1.165s.025.831.025.936l-.624.039a5.619,5.619,0,0,0-.41-2.3,1.783,1.783,0,0,0-1-1.025,10.645,10.645,0,0,0-3.354-.5q-2.468-.108-5.206-.108-2.477,0-7.117.2a5.486,5.486,0,0,0-1.829.305,1.637,1.637,0,0,0-.812,1.1A5.782,5.782,0,0,0,1037.982,146.309Z" transform="translate(-1037.276 -136.532)" fill="#282828"/>
  </g>
  <g id="Group_21617" data-name="Group 21617" transform="translate(0 14.987)">
    <path id="Path_15016" data-name="Path 15016" d="M1037.982,165.309h-.706c.066-1.484.11-1.831.132-2.2q.066-2.01.066-2.7,0-.237-.066-2.049c-.043-1.208-.088-1.766-.132-2.829h.772a5.843,5.843,0,0,0,.156,1.785,1.544,1.544,0,0,0,.616.946q1.035.651,7.9.65,4.731,0,5.987-.009t2.686-.069a5.751,5.751,0,0,0,1.626-.217,1.345,1.345,0,0,0,.715-.966,5.4,5.4,0,0,0,.255-1.963l.624.079c0,.184-.009-.031-.025.514s-.031,1.11-.041,1.695-.019,1.035-.025,1.35-.008.677-.008,1.084q0,.867.008,1.448t.025,1.546c.01.644.024.646.041,1.165s.025.831.025.936l-.624.039a5.619,5.619,0,0,0-.41-2.3,1.783,1.783,0,0,0-1-1.025,10.645,10.645,0,0,0-3.354-.5q-2.468-.108-5.206-.108-2.477,0-7.117.2a5.486,5.486,0,0,0-1.829.305,1.637,1.637,0,0,0-.812,1.1A5.782,5.782,0,0,0,1037.982,165.309Z" transform="translate(-1037.276 -155.532)" fill="#282828"/>
  </g>
</svg>
