<svg id="Layer_1" data-name="Layer 1" xmlns="http://www.w3.org/2000/svg" viewBox="0 0 25 25"><path d="M22.8,18.74a1.4,1.4,0,0,1-1.28.08A8.5,8.5,0,0,1,20,17.6q-1.24-1.17-2.31-2.22c-.54-.53-1.63-1.61-3.27-3.26q1.74-1.71,3.39-3.24A15.32,15.32,0,0,1,21,6.4a1.94,1.94,0,0,1,1.56-.12,4.7,4.7,0,0,1,2,1.27L25,7l-.68-.63c-.38-.35-.39-.34-.85-.79L22.36,4.51l-1-1-.76-.77-.92-1c-.41-.42-.79-.83-1.16-1.23s-.21-.25-.34-.38l-.58.47a4.44,4.44,0,0,1,1.16,1.6,1.4,1.4,0,0,1,.08,1.28A8.19,8.19,0,0,1,17.6,5q-1.17,1.25-2.22,2.31c-.48.5-1.45,1.47-2.87,2.89q-5.68-5.69-6.09-7A1.53,1.53,0,0,1,6.56,2,4.8,4.8,0,0,1,7.68.65L7,0C6.32.78,6,1.21,5.16,2.1S3.88,3.48,3.77,3.59c-.32.33-1,.94-1.95,1.84-.28.24-.56.45-1.65,1.44l.59.59A4.8,4.8,0,0,1,2.47,6.23a1.72,1.72,0,0,1,1.46-.09A7.86,7.86,0,0,1,5.68,7.47q3,2.79,4.92,4.66l-.26.26Q4.55,18.18,3.22,18.6A1.53,1.53,0,0,1,2,18.45,4.8,4.8,0,0,1,.65,17.33L0,18c.78.71,1.21,1.06,2.1,1.88l1.49,1.38c.33.32.94,1,1.84,2,.24.28.45.56,1.44,1.66l.59-.6a4.79,4.79,0,0,1-1.23-1.7,1.73,1.73,0,0,1-.09-1.46,7.63,7.63,0,0,1,1.33-1.76c2.06-2.21,3.73-4,5-5.31q1.92,2,3.63,3.78A15.17,15.17,0,0,1,18.61,21a2,2,0,0,1,.13,1.56,4.82,4.82,0,0,1-1.27,2L18,25l.64-.68c.35-.38.34-.39.78-.85l1.07-1.11c.26-.27.6-.62,1-1s.54-.54.77-.76l1-.92c.42-.41.83-.79,1.23-1.16s.25-.21.38-.34l-.47-.58A4.52,4.52,0,0,1,22.8,18.74Z"/></svg>