<svg xmlns="http://www.w3.org/2000/svg" width="29.975" height="30.024" viewBox="0 0 29.975 30.024">
  <g id="Group_356" data-name="Group 356" transform="translate(-195.813 -79.74)">
    <g id="pinterest" transform="translate(195.813 79.74)">
      <path id="Path_243" data-name="Path 243" d="M210.813,79.74a15,15,0,0,0-5.469,28.975,14.447,14.447,0,0,1,.049-4.309c.272-1.173,1.753-7.457,1.753-7.457a5.467,5.467,0,0,1-.444-2.222c0-2.086,1.21-3.642,2.716-3.642a1.885,1.885,0,0,1,1.9,2.111c0,1.284-.815,3.21-1.247,5a2.182,2.182,0,0,0,2.222,2.716c2.667,0,4.716-2.814,4.716-6.864a5.919,5.919,0,0,0-6.271-6.1,6.492,6.492,0,0,0-6.778,6.507,5.854,5.854,0,0,0,1.111,3.419.446.446,0,0,1,.1.432c-.111.47-.371,1.494-.42,1.7-.062.272-.222.334-.506.2-1.877-.877-3.049-3.605-3.049-5.815,0-4.728,3.432-9.074,9.913-9.074,5.2,0,9.247,3.7,9.247,8.666,0,5.173-3.259,9.334-7.778,9.334a3.986,3.986,0,0,1-3.432-1.729l-.938,3.568a16.338,16.338,0,0,1-1.864,3.939,15.013,15.013,0,1,0,4.469-29.358Z" transform="translate(-195.813 -79.74)" fill="#282828"/>
    </g>
  </g>
</svg>
