<svg id="search" xmlns="http://www.w3.org/2000/svg" width="30.507" height="29.099" viewBox="0 0 30.507 29.099">
  <path id="Path_236" data-name="Path 236" d="M1659.473,105.256a14.59,14.59,0,0,0-1.26,1.061,4.411,4.411,0,0,1-.928.663.965.965,0,0,1-.713-.05,15.723,15.723,0,0,1-2.3-1.889q-1.608-1.493-2.436-2.321c-.234-.234-.48-.487-.731-.748a11.653,11.653,0,0,0,1.048-1.59,11.97,11.97,0,0,0,1.474-5.809,10.952,10.952,0,0,0-.908-4.453,11.147,11.147,0,0,0-2.487-3.589,11.712,11.712,0,0,0-8.132-3.247,13.931,13.931,0,0,0-4.855.834,11.932,11.932,0,0,0-3.962,2.383,11.188,11.188,0,0,0-2.666,3.679,11.356,11.356,0,0,0-.968,4.751,10.7,10.7,0,0,0,1.921,6.568,11.149,11.149,0,0,0,4.736,3.738,14.3,14.3,0,0,0,5.466,1.162,11.635,11.635,0,0,0,6.211-1.654,12.32,12.32,0,0,0,1.139-.793l.194.194q.183.181,1.575,1.657t2.362,2.577a6.941,6.941,0,0,1,1.036,1.335q.181.548-1.094,2.088l.447.58,6.514-6.845Zm-13.594-1.345a6.607,6.607,0,0,1-3.783,1.147,6.43,6.43,0,0,1-4.364-1.757,11.762,11.762,0,0,1-3.083-4.5,14.659,14.659,0,0,1-1.1-5.511,10.3,10.3,0,0,1,.909-4.378,7.35,7.35,0,0,1,2.517-3.068,6.275,6.275,0,0,1,3.634-1.1,7.238,7.238,0,0,1,4.572,1.623,11.1,11.1,0,0,1,3.247,4.2,12.609,12.609,0,0,1,1.176,5.287,11.454,11.454,0,0,1-.616,3.828,9.747,9.747,0,0,1-.4.968,9.085,9.085,0,0,1-1.074,1.73A7.269,7.269,0,0,1,1645.879,103.911Z" transform="translate(-1629.645 -83.284)" fill="#282828"/>
</svg>
