<svg id="check-icon" xmlns="http://www.w3.org/2000/svg" width="42.285" height="31.588" viewBox="0 0 42.285 31.588">
  <path id="Path_9496" data-name="Path 9496" d="M312.441,5192.938a.69.69,0,0,0,.147-.023C312.531,5193.018,312.485,5193.052,312.441,5192.938Z" transform="translate(-271.581 -5191.707)" fill="#fff"/>
  <path id="Path_9497" data-name="Path 9497" d="M313.88,5192.008a2.266,2.266,0,0,1-1.278.815C312.787,5192.491,313.091,5191.4,313.88,5192.008Z" transform="translate(-271.595 -5191.614)" fill="#fff"/>
  <path id="Path_9498" data-name="Path 9498" d="M311.141,5191.75l.572-.156C311.69,5192,311.4,5191.627,311.141,5191.75Z" transform="translate(-271.47 -5191.594)" fill="#fff"/>
  <path id="Path_9499" data-name="Path 9499" d="M311.983,5192.332l.239.274-.444-.054Z" transform="translate(-271.525 -5191.657)" fill="#fff"/>
  <path id="Path_9500" data-name="Path 9500" d="M294.6,5215.5a1.218,1.218,0,0,1,.432.342Z" transform="translate(-270.055 -5193.639)" fill="#fff"/>
  <path id="Path_9501" data-name="Path 9501" d="M292.381,5215.159a.979.979,0,0,0-.243.1C292.17,5215.191,292.24,5215.174,292.381,5215.159Z" transform="translate(-269.845 -5193.609)" fill="#fff"/>
  <path id="Path_9502" data-name="Path 9502" d="M295.3,5214.545l-.113.187A.221.221,0,0,1,295.3,5214.545Z" transform="translate(-270.106 -5193.557)" fill="#fff"/>
  <path id="Path_9503" data-name="Path 9503" d="M304.395,5203.224c.325.044.626.081.84.1C305.165,5203.788,304.719,5203.393,304.395,5203.224Z" transform="translate(-270.893 -5192.589)" fill="#fff"/>
  <path id="Path_9504" data-name="Path 9504" d="M284.085,5215.335l.171.241C284.123,5215.524,284.014,5215.454,284.085,5215.335Z" transform="translate(-269.154 -5193.625)" fill="#fff"/>
  <path id="Path_9505" data-name="Path 9505" d="M288.413,5211.644a1.428,1.428,0,0,1,.252.29c-.032,0-.059,0-.092-.005Z" transform="translate(-269.526 -5193.309)" fill="#fff"/>
  <path id="Path_9506" data-name="Path 9506" d="M295.495,5213.436l-.015-.031.251.006C295.7,5213.516,295.627,5213.521,295.495,5213.436Z" transform="translate(-270.131 -5193.459)" fill="#fff"/>
  <path id="Path_9507" data-name="Path 9507" d="M282.436,5216.3a3.319,3.319,0,0,1-.6-.3A.765.765,0,0,1,282.436,5216.3Z" transform="translate(-268.964 -5193.681)" fill="#fff"/>
  <path id="Path_9508" data-name="Path 9508" d="M292.116,5215.294l-.011-.007.03-.015C292.131,5215.284,292.12,5215.284,292.116,5215.294Z" transform="translate(-269.842 -5193.619)" fill="#fff"/>
  <path id="Path_9509" data-name="Path 9509" d="M289.955,5210.55a3.084,3.084,0,0,1-.3.088C289.689,5210.509,289.818,5210.5,289.955,5210.55Z" transform="translate(-269.633 -5193.213)" fill="#fff"/>
  <path id="Path_9510" data-name="Path 9510" d="M304.369,5203.218l-.275-.037C304.154,5203.128,304.251,5203.157,304.369,5203.218Z" transform="translate(-270.867 -5192.583)" fill="#fff"/>
  <path id="Path_9511" data-name="Path 9511" d="M311.845,5194.508c-.113.121-.288,0-.46-.123A1.1,1.1,0,0,1,311.845,5194.508Z" transform="translate(-271.491 -5191.833)" fill="#fff"/>
  <path id="Path_9512" data-name="Path 9512" d="M271.325,5205.253l0-.067A.052.052,0,0,1,271.325,5205.253Z" transform="translate(-268.065 -5192.756)" fill="#fff"/>
  <path id="Path_9513" data-name="Path 9513" d="M271.657,5212.258a1.16,1.16,0,0,1-.215.123C271.358,5212.341,271.486,5212.288,271.657,5212.258Z" transform="translate(-268.073 -5193.361)" fill="#fff"/>
  <path id="Path_9514" data-name="Path 9514" d="M279.166,5214.4c-.209.033-.113-.06.046-.133a2.5,2.5,0,0,1,.251-.1c.078-.026.112-.19.111-.263l-.334.183.235-.411-.508.092c.134-.635-.522-1.28.251-1.639l-.8.211.536-.743-.488.457c-.294-.677.154-1.863.123-2.012l-.293.116c-.176-.089.009-.215.087-.353l-.439.173c-.061-1.088-1.139-1.2-.867-2.475-.166-.306-.117.205-.371.255-.392-.114-.12-.592.067-.717-.694.219-.39.683-1.027.4.3-.332-.626.3-.569-.2l.88-.346c-.2-.236-.722.072-.706-.363.314-.547,1.137.405,1.136-.388-.127-.376-2.253-.445-1.892-1.278-.588-.563-1.361.586-1.283-.348l-.5.676c-.284-.1-.724.07-.6-.351.331-.184.744-.5.753-.718-.545.956-1.166-.553-1.928.381l-.016-.3a.224.224,0,0,1-.187.06l-.13-.374c-.157.271-.144.852-.861.707l-.265-.53c-.479.238-.725.07-1.127.173l-.69,1.813c.294-.118.449-.389.773-.354.343.392-.487.454,0,.793l.37-.252c-.147.06-.186.126-.253.046-.285-.1.008-.216.262-.261.539.055.266.531-.068.716.159.522.942-.051,1.118.04-.811.425.176.887-.165,1.287l.519-.308c.744.288.254.748.1,1.021l.44-.172c.012.581,1.6.594.052,1.306l.294-.112c.182.208.583.5.14.806.191-.028.435-.03.508.054-.6.234-.089.394.083.715.123-.255.945-.323,1.1-.6.922.383-.819.64-.731,1.081.461.194.411-.316.7-.432-.321.76,2.116,1.08.572,1.793l-.567-.2c-.3.333-.274.479-.128.419-.068-.078.08-.133.226-.191.489.337.248.71-.057,1.1a4.063,4.063,0,0,0-.422.583.637.637,0,0,0,0,.65c.288-.147.358-.328.615-.366.391.383-1.469.857-.691,1.6l.312-.294c.253.208-.2.614-.3.619.667-.252.724.19.863.671s.371,1,1.2.619c-.6.838-.617,2.364-.15,2.3.76-.292.48-1.1,1.115-1.58.094.274-.36,1.078.045,1.272a2.346,2.346,0,0,1-.9.638.8.8,0,0,0-.365,1.055l.342-.24c-.1-.037-.279-.028-.3-.242.139-.641.428-.288.588-.416a4.629,4.629,0,0,0,.537,1.034c-.359.806-.754.15-.9.266a1.424,1.424,0,0,0,.647.261,4.4,4.4,0,0,0,.747.089,1.757,1.757,0,0,1,1.277.437l.018-.312c.4.448.656.082.834-.215s.3-.509.565.112c.426-.277.01-.844.567-1.05.154-.047.033.3-.008.415.671.083.338-.9.916-.367-.046-.3-.087-.543-.122-.9.157.138.328.231.508.379a4.11,4.11,0,0,0,.587.4c.409.227.861.282,1.126-.15-.232-.653-.58-.325-.824-.767.5.379,1.028.025,1.459-.4.437-.439.782-.923,1.321-1.005a1.308,1.308,0,0,0,.611.723.724.724,0,0,1,.349.882c-.656-.58-.566.137-.923.335.723.635,1.186-.128,1.47-.8.354-.731.341-1.137.984-.613l-.4-.557c.156-.016.735.125.736.425l.3-.925c-.578-.142-1.866-.509-1.491.147-.684-.329-.086-.587-.825-1.01,1.209.376-.085-.59.513-.847.5.881,1.363.506,1.679.858.011-.268.641-.262,1-.149.311-.184.315-1.307.949-1.467a2.07,2.07,0,0,1-1.313-.565c.444.054.65-.167.173-.713-1.625-.238.959,1.394-.27,1.418a1.6,1.6,0,0,0-1.545-.242c-.189-.48-.4-.56-.745-1.023,1.63.833,1.139-.909,2.263-.82.577.141,1.192,1.073,1.815.714l-.043.8c.12-.807.473.252.991,0l-.552-.245c.155-.314.311-.33.732-.172l-.818-.414c.048-.2.2-.517.572-.157a2.486,2.486,0,0,0-.334-.418.254.254,0,0,0,.38-.086c-.157.017-.18.119-.366-.061.708-.421-.54-.8-.133-1.09a.507.507,0,0,1-.23-.565c.968.977,1.786.407,2.509.759l-.016-.012.861-.085c-.175.018-.338-.351-.305-.591l-.017.026c0-.3-1.237-.871-.508-1.044l.523.047c-.077.008-.186-.18-.238-.276l.507.017c-.54-1.278,1.214-.2,1.2-1.08-.048.2-.309.328-.523-.049-.027-.2.208-.218.417-.142l-.131-.086,1.434-.242c-.4-.258-.886.187-1.051-.392-.322-.565.388-.338.571-.456.239.274.192.778.608.635-.093-.16-.1-.691-.4-.748a4.892,4.892,0,0,1,1.833-.091c-.032-.194-.266-.171-.344-.163l.053.093c-.314.032-.688-.628-.757-.024-.874-.809.251-.721.429-1.136l-1.046-.1c-.366-1.95,1.961-1.786,2.764-2.564.033.495-.411.441.277,1.067.806-.177.6-.257,1.217-.616l-.077.008c-.086-.59.91-.291.483-1.044-.473-.251-.016.7-.758-.024l.672-.563c-.629-.238-.672.563-1.01.7-.128.211.442-.242.842.315-.6.556-1.2.218-2.175-.181-.682-.332-.27-.768-.167-.881,1.127.387,2.014.2,2.238-.718l-.246-.869c.788.217,1.664,1.326,2.047.688l-.552-.244c-.046-.268-.026-.394.032-.444-.52-.079-1.1-.18-1.61-.293-.562-1.135,1.252-.421,1.848-.681-.131-.086-.312.031-.575-.141.433-.84,2.11-.508,2.733-.87-.165-.579-.653.166-1.106-.484.471-.049.277-.824.859-.385-.844-.611.539-.651-.639-.833.61-1.252,2.3-1.62,3.66-2.154a1.683,1.683,0,0,1-.558-.541,1.466,1.466,0,0,1-1.67.267c-.166-.582.994,0,.833-.283-.287-.071-.493.148-.864-.212-.14-.683.6-.259.857-.382l.082.288c1.095-.108,1.607.934,2.038.1-.216-.674-.368-.361-.924-.9.366.063.246-1.018.987-.595l-.337.433c.424-.116.676-.375,1.053-.374-.138-.1-.275-.2-.38-.192.391-.04.62-.36,1.1-.107l-.53-.646c.133.388-.2.818-.593.557-.48-.549.226-.619.353-.83-.906.588-1.834-.314-2.08.7l.288.072c.055.838-1.086.515-1.41.879a.7.7,0,0,0-.364-.5c-.3,1.222-1.393,1.631-1.978,2.78l-.841-.313.426.455c-.228.621-.714-.524-.944-.207.1-.106.156-.014.289.073-.994,0,.138.682-.277.822.6.338.7-.367,1.206.379-.992,0-1.476,1.042-2.614.059-.48,1.343-2.275,1.82-3.132,2.5.082.29.211.079.32.267-.919-.306-.584,1.451-1.139.909a2.623,2.623,0,0,0,.456.947,1.776,1.776,0,0,0-1.141.215l.332-.031.055.094-.47.044-.025-.043c-.772.463-1.347,1.311-2.495,1.288.68.032.583.739.952.8a1.676,1.676,0,0,0-2.316.729c.186.179.29.368.5.448l-.679-.035.262.175c-.41.737-2.007.4-1.97,1.19.337-.133.522.048.839.316a3.74,3.74,0,0,1-1.57.99.6.6,0,0,1,.225.137c-.048.2-.416.139-.65.164l.422.454c-.448.046-.538.588-1.181.533.37.594-1.152.266-1.284.806-.235.024.786.22.4.557-1.006-.9-.491.448-1.548-.543l.06.69-.583-.439c.7,1.225-.838-.014-.932.689.132.088.21.082.264.175-.236.023-.6.258-.632-.235-.207.22-1.167.713-.3.924-.317-.268.23-.32.465-.344.423.455-.069.6.332,1.159a2.432,2.432,0,0,0-.28-.112l.227.315c-.884-.079-.939.678-1.856.349.12.152.155.328-.013.434l-.558-.54-.1.11a.726.726,0,0,0-.059.064l-.014.027a10.783,10.783,0,0,0,.807.789c.005.155-.238.024-.461-.2a4.778,4.778,0,0,1-.5-.608c.311.607.207.539.12.423s-.147-.279-.021.392a2.487,2.487,0,0,0,.179.324c-.123-.053-.132.134-.171.312s-.1.329-.219.108a5.153,5.153,0,0,0,.112-.574,3.209,3.209,0,0,0-.1-1.056c.058.32-.041.15-.064-.042-.038-.184,0-.375-.055.143-.038.42-.012.67-.083,1.117.056-.894-.163.079.031-1.01a13.44,13.44,0,0,1-.406,1.543,5.43,5.43,0,0,1,.233-1.361l-.077.212c-.6,1.177-.654.488-.32-.048.293-.591.812-.952.459-.72l-.377.25a5,5,0,0,1,.555-.366,6.481,6.481,0,0,1-.821.433,2.62,2.62,0,0,1,.84-.444C279.8,5214.147,279,5214.4,279.166,5214.4Zm2.1.462.222-.144c.009-.065.04-.11.141-.093l-.141.093C281.473,5214.889,281.635,5215.188,281.27,5214.866Zm17.857-15.9c.343.166-.049.2-.073.3l.363-.234C299.31,5198.85,299.207,5198.96,299.127,5198.968Zm-14.282,19.418.269.469c-.136-.056-.287-.1-.435-.141C284.752,5218.588,284.792,5218.494,284.845,5218.386Zm-3.117,2.909a4.012,4.012,0,0,0,.424.06v.13c-.144-.011-.288-.039-.425-.063Zm-2.561-4.122-.015.147a.777.777,0,0,1,.015-.147c.08-.556-.45.708-.05-.566C279.6,5215.61,279.228,5216.693,279.166,5217.173Zm2.256-1.237c.094.049.144.068.138,0a3.049,3.049,0,0,1-.555-.684c.233.274.4.24.743.624C281.3,5215.534,282.08,5216.813,281.422,5215.936Zm5.884-5.453-.026.1.524.044Zm1.481-.744c.605.338.861-.085,1.2-.217-.346-.463-1.053-.69-1.285-.369C288.019,5209.122,289.206,5209.9,288.787,5209.74Zm-8.046,8.169.136.514-.038.1a2.534,2.534,0,0,0,.272.2c-.067.481-.244.421-.382.2s-.258-.6-.327-.69C280.488,5218.246,281.02,5219.35,280.741,5217.909Zm10.633-10.316c.524.047,1.3-.029,1.6.34-.61-.636-1.236-.573-1.34-.464C291.608,5207.569,291.528,5207.579,291.374,5207.593Zm1.164,1.179c-.626.062-.943-.2-1.786-.519.073-.6.97.1,1.262.47.524.049.074-.306.123-.509Zm-2.11-1.382-.054.226c.1.423.77,1.161-.169.691l.169-.691C290.35,5207.518,290.359,5207.436,290.428,5207.39Zm2.905-2.867-.356-.07c.16-.119.271-.042.356.07l.3.063C293.555,5205.118,293.494,5204.744,293.333,5204.523Zm-2.021,2.38-.467.345C291.163,5207.516,291.26,5207.109,291.312,5206.9Zm2.486-1.738c-.129.212-.487.745-.465.644C293.043,5205.439,293.51,5205.095,293.8,5205.165Zm9.775-8.132-.285.225-.321-.563Zm-2.649,3.344-.159-.282.181-.117Zm-2.721,2.809a1.351,1.351,0,0,0-.335-.3.455.455,0,0,1-.283-.089c.036-.04.155.005.283.089a.325.325,0,0,0,.259-.441c-.262-.172-.39.04-.6-.038-.269-.771,1.862.21.2-1.117.287.071,1.046.1,1.181.481a1.691,1.691,0,0,0-.7,1.413c.068.093.106.179.069.241A.6.6,0,0,1,298.2,5203.187Zm-3.385,4.065a.367.367,0,0,1-.3.041.892.892,0,0,1-.617-.349c.4-.04.431.27.617.349A.521.521,0,0,0,294.818,5207.252Zm-.565.751.625-.062-.5-.15,1.124.089C295.513,5208.475,294.7,5208.356,294.253,5208Zm.169.407-.428-.285.474.255-.046.029.1.064-.779.376Zm-6.58,5.2c1.024,1.445,1.387.36,2.1.839-.391-.436-.818-1.293-1.363-.714.067-.9,1.1.489.356-.83-.153.312-.755.274-.832.281l.229-.319C287.408,5212.265,288.287,5213.669,287.843,5213.613Zm-2.756,3.159-.388.334.442-.242Zm-9.838,2.6c-.268.386-1.125.224-.551-.517C274.888,5219.131,274.993,5219.535,275.249,5219.373Zm-1.041-5.646-.243.625c-.939.051-.05-.511-.256-.75C274.149,5213.432,273.884,5213.693,274.208,5213.728Zm-.634-3.681.117-.206-.88.348Zm-1.173.459c-.431-.042-.558.378-.488.46Zm-1.378-3.175.1.226.774-.354Zm1.016.21c-.572.157-1.362.27-.876.745a3.5,3.5,0,0,1,1.341-.154c.117-.206-.168-.306-.236-.387-.078.139.206.238-.195.342a.3.3,0,0,1-.034-.546,1.057,1.057,0,0,0,.462-.2A1.012,1.012,0,0,0,272.039,5207.541Zm.985,1.855a.608.608,0,0,0,.285.118l-.148.059c-.277-.027-.228-.1-.137-.177a1.921,1.921,0,0,1-.263-.227c-.526.029-.814.463-1.085.611.117-.2.6-.444.243-.624-.146.058-.256.045-.223.193l-.169-.3c.655-.5.938-.18,1.235.125a1.015,1.015,0,0,1,.382.04C273.227,5209.252,273.108,5209.325,273.024,5209.4Zm.7-2.8-.117.2a2.014,2.014,0,0,1-.548.162A.467.467,0,0,1,273.723,5206.592Zm1.992,10.382c-.166-.021-.674.615-.471.789-.232.121-.466.236-.7.348.442-.337.275-.853.31-.945C275.488,5216.685,275.251,5217.065,275.715,5216.975Zm7.728.639c.732.655.82-.271,1.1-.191C284.457,5217.818,284.018,5218.586,283.443,5217.614Zm.539-1.109c.142-.125.113-.229.45.132.21.08.128-.21.337-.132.05.564-.491,0-.787,0a.486.486,0,0,1-.153.094A.149.149,0,0,1,283.982,5216.5Zm-4.832,3.649c-.012-.321-.014-.644,0-.97-.093.041-.189.066-.286.1A4.84,4.84,0,0,0,279.15,5220.154Zm-1.513-3.014c-.326.437-.436.163-.279-.078-.451.506-.328.65-.313.864a.223.223,0,0,0-.014.177.512.512,0,0,0,.014-.177,3.616,3.616,0,0,1,.474-.614l.153-.1.054-.32Zm-.455-5.427c-.462-.191-.316-.249-.2-.453A.286.286,0,0,1,277.182,5211.713Zm1.451,5.827c-.348.2-.378,1.168-.668,1.411a1.033,1.033,0,0,0,.167.012c-.562.627.213-.925-.006-.8l.145-.069c.371-.632.1-.558.364-1.09C278.827,5216.787,278.756,5217.44,278.633,5217.541Zm-1.18-6.3c-.6-.349.488-.458.537-.742C278.52,5210.763,277.539,5210.881,277.453,5211.236Zm1.806,3.743.088-.085q.118-.166.243-.312l-.091.082C279.418,5214.763,279.337,5214.869,279.26,5214.979Z" transform="translate(-267.76 -5191.719)" fill="#fff"/>
  <path id="Path_9515" data-name="Path 9515" d="M272.38,5213.338a.2.2,0,0,1-.055-.238A.392.392,0,0,1,272.38,5213.338Z" transform="translate(-268.149 -5193.434)" fill="#fff"/>
  <path id="Path_9516" data-name="Path 9516" d="M289.206,5220.672a.357.357,0,0,1-.114-.255A.478.478,0,0,1,289.206,5220.672Z" transform="translate(-269.584 -5194.059)" fill="#fff"/>
  <path id="Path_9517" data-name="Path 9517" d="M290.153,5220.276c.011-.005.016-.017.026-.022l.054.015Z" transform="translate(-269.675 -5194.045)" fill="#fff"/>
  <path id="Path_9518" data-name="Path 9518" d="M312.2,5195.244c.605.336-.05.205-.155.313C312.147,5195.449,311.856,5195.078,312.2,5195.244Z" transform="translate(-271.546 -5191.903)" fill="#fff"/>
  <path id="Path_9519" data-name="Path 9519" d="M310.441,5195.315a.69.69,0,0,0,.538.009C310.924,5195.408,310.8,5195.435,310.441,5195.315Z" transform="translate(-271.41 -5191.913)" fill="#fff"/>
  <path id="Path_9520" data-name="Path 9520" d="M311.375,5194.785a.674.674,0,0,1-.346.494C311.114,5195.15,311.024,5194.88,311.375,5194.785Z" transform="translate(-271.461 -5191.867)" fill="#fff"/>
  <path id="Path_9521" data-name="Path 9521" d="M308.13,5197.915a.368.368,0,0,0,.52-.251c-.277.824.659.433.924.6C309.13,5198.511,308.762,5198.149,308.13,5197.915Z" transform="translate(-271.213 -5192.113)" fill="#fff"/>
  <path id="Path_9522" data-name="Path 9522" d="M307.173,5198.559a.3.3,0,0,0,.1-.209C307.289,5198.476,307.243,5198.532,307.173,5198.559Z" transform="translate(-271.131 -5192.172)" fill="#fff"/>
  <path id="Path_9523" data-name="Path 9523" d="M307.167,5199.061c-.259.125-.656-.135-1-.3-.007-.467.664-.095.916-.188C306.959,5198.716,306.792,5198.814,307.167,5199.061Z" transform="translate(-271.045 -5192.187)" fill="#fff"/>
  <path id="Path_9524" data-name="Path 9524" d="M302.585,5207.293c.08-.008.182-.118.369.061l-.31.331C302.409,5207.706,302.561,5207.4,302.585,5207.293Z" transform="translate(-270.732 -5192.933)" fill="#fff"/>
  <path id="Path_9525" data-name="Path 9525" d="M300.289,5207.624c-.284.229.323.564.086.588l-.61-.634Z" transform="translate(-270.497 -5192.961)" fill="#fff"/>
  <path id="Path_9526" data-name="Path 9526" d="M297.032,5204.043l.137-.014-.108.064Z" transform="translate(-270.263 -5192.658)" fill="#fff"/>
  <path id="Path_9527" data-name="Path 9527" d="M299.677,5209.653l.87.51A1.192,1.192,0,0,1,299.677,5209.653Z" transform="translate(-270.489 -5193.139)" fill="#fff"/>
  <path id="Path_9528" data-name="Path 9528" d="M299.1,5211.229l.364.063-.675.265Z" transform="translate(-270.414 -5193.273)" fill="#fff"/>
  <path id="Path_9529" data-name="Path 9529" d="M297.446,5212.155l.106.188-.5.149Z" transform="translate(-270.266 -5193.353)" fill="#fff"/>
  <path id="Path_9530" data-name="Path 9530" d="M281.2,5225.748c-.058-.828.693-.8.884-1.161C282.017,5225.768,281.5,5224.534,281.2,5225.748Z" transform="translate(-268.909 -5194.416)" fill="#fff"/>
  <path id="Path_9531" data-name="Path 9531" d="M272.889,5213.967l-.068.715C272.41,5214.208,272.793,5214.535,272.889,5213.967Z" transform="translate(-268.177 -5193.508)" fill="#fff"/>
</svg>
