<svg id="why-choose-icon" xmlns="http://www.w3.org/2000/svg" width="131.317" height="180.295" viewBox="0 0 131.317 180.295">
  <g id="Group_7839" data-name="Group 7839">
    <g id="Group_7838" data-name="Group 7838">
      <path id="Path_5008" data-name="Path 5008" d="M514.658,4873.783a26.793,26.793,0,0,0-.388,6.486c.02,1.6.041,3.25-.072,4.744-.279,3.738-.821,7.686-.824,7.726a.811.811,0,0,1-.029.086c.109.625.207,1.257.29,1.893l-.85.117a52.316,52.316,0,0,0-2.294-9.715l.81-.279a51.932,51.932,0,0,1,1.521,5.369c.17-1.453.376-3.386.517-5.264.106-1.455.089-3.085.069-4.665a42.472,42.472,0,0,1,.146-5.292c-.393-.069-1.737-.235-2.222.646a14.031,14.031,0,0,0-.695,4.9l-.855-.014c.037-1.847.21-4.233.795-5.3.755-1.375,2.55-1.183,3.115-1.083.041-.2.083-.4.132-.583a3.376,3.376,0,0,1,1.855-2.34,3.586,3.586,0,0,1,2.777-.025c.072.033.193.1.362.447l-.793.3a2.753,2.753,0,0,0-1.992.063A2.553,2.553,0,0,0,514.658,4873.783Z" transform="translate(-394.864 -4826.904)" fill="#5e6850"/>
      <path id="Path_5009" data-name="Path 5009" d="M499.147,4856.939a.434.434,0,0,1,.494-.358.426.426,0,0,1,.359.491,22.256,22.256,0,0,0-.244,4.378,4.954,4.954,0,0,0,1.8-3.259,7.313,7.313,0,0,0-1.748-4.835A7.329,7.329,0,0,0,497.6,4858a4.852,4.852,0,0,0,1.283,3.2A23.21,23.21,0,0,1,499.147,4856.939Zm7.457,21.967a52.789,52.789,0,0,0-9.2-15.754l.661-.551c.362.424.712.856,1.06,1.289-.063-.4-.124-.856-.17-1.375a6.048,6.048,0,0,1-2.222-4.519c.009-2.86,2.286-5.105,2.748-5.534a.535.535,0,0,1,.046-.063.4.4,0,0,1,.224-.1.257.257,0,0,1,.06-.011.164.164,0,0,1,.035,0,.433.433,0,0,1,.327.143.363.363,0,0,1,.058.1c.463.519,2.447,2.942,2.182,5.748a6.032,6.032,0,0,1-2.587,4.241,15.484,15.484,0,0,0,.474,2.765.4.4,0,0,1,.017.175,53.827,53.827,0,0,1,6.041,10.526c0-.109,0-.222.006-.336l.855.014c-.017.8-.009,1.605.017,2.357a.463.463,0,0,1-.011.106c.063.164.123.327.181.491.166.445.324.9.477,1.347l-.81.279C506.922,4879.788,506.767,4879.346,506.6,4878.907Z" transform="translate(-391.446 -4822.021)" fill="#5e6850"/>
      <path id="Path_5010" data-name="Path 5010" d="M487.653,4851.417a41.855,41.855,0,0,1-2.777-4.757l.784-.348a35.349,35.349,0,0,0,5.191,7.847.45.45,0,0,1,.089.144c.2.2.4.394.606.591a16.829,16.829,0,0,1-.457-4.476.45.45,0,0,1-.123-.158c-.006-.015-.009-.029-.014-.043a8.236,8.236,0,0,1-1.689-6.7c.835-3.755,4.467-6.069,5.251-6.532a.382.382,0,0,1,.1-.083.42.42,0,0,1,.35-.041.413.413,0,0,1,.281.209.4.4,0,0,1,.044.121c.445.795,2.409,4.628,1.237,8.289a8.1,8.1,0,0,1-4.55,4.8,14.443,14.443,0,0,0,.863,5.823.381.381,0,0,1,.035.138c.273.288.542.581.81.875q.642.707,1.258,1.438l-.661.551q-.607-.719-1.24-1.418a53.007,53.007,0,0,0-8.252-7.382l.5-.7C486.093,4850.188,486.88,4850.792,487.653,4851.417Zm7.029-13.526c-1.051.678-3.9,2.759-4.58,5.811a7.071,7.071,0,0,0,1.083,5.309,21.217,21.217,0,0,1,1.613-6.145.426.426,0,0,1,.562-.229.434.434,0,0,1,.23.566,20.174,20.174,0,0,0-1.557,6.081,7.08,7.08,0,0,0,3.667-4.069C496.656,4842.233,495.247,4839.005,494.681,4837.892Z" transform="translate(-388.315 -4817.975)" fill="#5e6850"/>
      <path id="Path_5011" data-name="Path 5011" d="M481.082,4841.479c-3.983-1.651-6.586-4.152-7.738-7.437-1.993-5.68.976-11.781,1.591-12.947a.457.457,0,0,1,.046-.161.428.428,0,0,1,.287-.22.423.423,0,0,1,.359.025.428.428,0,0,1,.129.112c1.157.634,6.995,4.085,8.465,9.919.835,3.316.083,6.773-2.231,10.282.164.35.33.694.5,1.027l-.784.348c-.138-.273-.273-.552-.408-.835a.428.428,0,0,1-.149-.06C481.122,4841.516,481.1,4841.5,481.082,4841.479Zm-6.926-7.715c1.005,2.856,3.222,5.084,6.6,6.629a41.79,41.79,0,0,1-2.9-9.638.43.43,0,1,1,.847-.146,41.033,41.033,0,0,0,2.865,9.51c1.941-3.138,2.555-6.208,1.818-9.134-1.289-5.113-6.337-8.384-7.81-9.242C474.819,4823.273,472.413,4828.794,474.156,4833.764Z" transform="translate(-385.141 -4813.744)" fill="#5e6850"/>
      <path id="Path_5012" data-name="Path 5012" d="M479.021,4949.019c.523-.193,1.834-2.068,2.481-2.986l.221-.316a11.032,11.032,0,0,0,1.582-5.1,19.838,19.838,0,0,0-1.424,1.539c-.427.489-.91,1.046-1.5,1.695a6.493,6.493,0,0,0-1.438,4.26v.034A2.306,2.306,0,0,0,479.021,4949.019Zm3.184-2.493c-1.444,2.062-2.424,3.371-3.242,3.371a.82.82,0,0,1-.233-.037c-.609-.2-.672-1.02-.655-1.717a7.248,7.248,0,0,1,1.665-4.875c.586-.641,1.065-1.191,1.49-1.677a12.216,12.216,0,0,1,1.915-1.952.573.573,0,0,1,.761.04c.7.7-.213,4.731-1.482,6.532Z" transform="translate(-386.557 -4844.87)" fill="#5e6850"/>
      <path id="Path_5013" data-name="Path 5013" d="M501.333,4911.882a42.383,42.383,0,0,0-2.78,6.879,12.008,12.008,0,0,0,3.629,1.617c.52-.333,2.34-3.229,3.776-5.8.043-.172.08-.336.106-.491A14.588,14.588,0,0,0,501.333,4911.882Zm-28.672-27.106c.721-.164,1.441.976,4.215,5.932,1.628,2.906,3.856,6.887,4.651,7.2a3.891,3.891,0,0,0,3.058-.959,6.134,6.134,0,0,0,2.716-5.211c-.12-2.294-1.858-3.667-3.391-4.875-1.289-1.019-2.4-1.9-2.191-3.132.034-.192.135-.781.629-.951.606-.209,1.223.356,2.159,1.209a8.2,8.2,0,0,0,3.322,2.185,5.076,5.076,0,0,0,3.07-.272c.66-.232,1.343-.474,1.895.187.178.212,4.341,5.283,3.822,11.175-.1,1.108-.293,2.417-.465,3.571s-.331,2.226-.351,2.8c-.049,1.563.755,2.84,1.508,3.006s1.257-.761,1.5-1.326a16.782,16.782,0,0,1,1.838-3.075,10.281,10.281,0,0,0,2.409-6.1c-.041-.35-.086-.7-.132-1.049l.849-.114c.049.336.092.672.132,1.01a.528.528,0,0,1,.015.123,54.508,54.508,0,0,1,.359,6.193q0,1.925-.138,3.845a15.738,15.738,0,0,0,1.906-5.469,57.244,57.244,0,0,0,.311-6.208,48.21,48.21,0,0,1,.318-5.99c.514-3.465,1.306-7.356,2.96-9-.451-3.241-1.109-6.761-1.473-7.287l.793-.3c.322.669.815,2.4,1.47,7.017a2.319,2.319,0,0,1,.784-.22,2,2,0,0,1,1.542.494,4.842,4.842,0,0,1,1.269,2.277c.024.071.044.143.063.214l-.824.2c-.024-.073-.044-.141-.063-.207a3.98,3.98,0,0,0-1.005-1.829,1.14,1.14,0,0,0-.9-.29c-2.455.232-3.44,6.876-3.761,9.058a47.087,47.087,0,0,0-.31,5.877,57.315,57.315,0,0,1-.319,6.306,17.084,17.084,0,0,1-2.926,7.241c-.063.609-.141,1.218-.224,1.821a5.171,5.171,0,0,1,1.427.542c2.406,1.352,2.449,3.325.178,8.117-1.419,2.995-2.535,5.866-3.615,8.646-.646,1.656-1.252,3.218-1.906,4.766-1.168,2.765-1.605,6.591-1.955,9.67-.175,1.524-.325,2.839-.534,3.839a.431.431,0,0,1-.844-.175c.2-.963.35-2.26.523-3.762.356-3.132.8-7.028,2.018-9.909.649-1.536,1.255-3.091,1.9-4.743.9-2.328,1.84-4.723,2.954-7.207-.735,1.037-1.267,1.574-1.591,1.6-.023,0-.047,0-.072,0a10.937,10.937,0,0,1-4.416-2.013c-.172-.221-.387-.5,1.172-4.247a30.607,30.607,0,0,1,1.829-3.83.343.343,0,0,1,.075-.048c.74-.359,3.735.987,5.245,1.975a2.279,2.279,0,0,0-1.378-1.932,4.3,4.3,0,0,0-2.119-.565c-.074,0-.149,0-.224.005l-.052-.841a2.527,2.527,0,0,1,.264-.012c.089,0,.181,0,.27.005a53.472,53.472,0,0,0,.523-7.437c0-1.016-.032-2.026-.089-3.032a14.82,14.82,0,0,1-1.978,3.468,15.975,15.975,0,0,0-1.748,2.917c-.841,1.96-2.013,1.932-2.478,1.829-1.264-.282-2.243-2.021-2.179-3.876.02-.628.175-1.682.359-2.9.17-1.143.362-2.437.457-3.523.488-5.539-3.457-10.345-3.626-10.545-.144-.173-.267-.164-.945.075a5.963,5.963,0,0,1-3.538.3,8.872,8.872,0,0,1-3.724-2.391,6.331,6.331,0,0,0-1.281-1.021,1.093,1.093,0,0,0-.075.271c-.126.729.8,1.461,1.875,2.312,1.594,1.258,3.574,2.823,3.715,5.5a6.986,6.986,0,0,1-3.069,5.958c-1.41,1.014-2.929,1.433-3.879,1.06-1.008-.393-2.593-3.127-5.085-7.58a55.428,55.428,0,0,0-3.15-5.246l-.833.092a1.591,1.591,0,0,1,.043-.773A.666.666,0,0,1,472.661,4884.776Z" transform="translate(-384.998 -4827.157)" fill="#5e6850"/>
      <path id="Path_5014" data-name="Path 5014" d="M499.085,4969.863c-1.355-.271-2.946-.572-3.822-.678.077.635.152,1.105.207,1.407C496.957,4970.319,498.178,4970.063,499.085,4969.863Zm-30.474,1.584c-1.229.393-2.3.8-3.1,1.137q1.7.078,3.348.112C468.786,4972.35,468.7,4971.927,468.611,4971.448Zm26.515.081a136.067,136.067,0,0,1-23.546,2.059q-1.021,0-2.058-.017c-.012,0-.021.008-.032.011a.493.493,0,0,1-.092.009.439.439,0,0,1-.146-.026c-1.665-.029-3.374-.092-5.113-.192v35.011l42.582,1.5-6.009-39.512c-.821.2-2.7.643-5.43,1.13a.3.3,0,0,1-.049.018A.468.468,0,0,1,495.125,4971.528Zm-26.667-.936c-.189-1.071-.387-2.352-.554-3.755,0-.006.841-.1.841-.1.244,2.038.589,4.065,1,5.974a135.017,135.017,0,0,0,24.879-1.967,32.937,32.937,0,0,1-.445-4.574c-.075-1.932,3.394-9.009,8.3-18.794,2.484-4.95,4.83-9.627,5.418-11.39a142.39,142.39,0,0,0,2.943-13.942c.675-3.687,1.309-7.173,1.821-9.271.858-3.512.4-7.724-.089-12.186-.213-1.964-.433-4-.551-6.035a48.174,48.174,0,0,0-1.076-9.208l.824-.2a47.791,47.791,0,0,1,1.114,9.357c.115,2.016.334,4.037.548,5.992.495,4.537.96,8.824.069,12.481-.506,2.076-1.14,5.547-1.812,9.222a139.34,139.34,0,0,1-2.974,14.06c-.606,1.821-2.857,6.308-5.464,11.5-3.69,7.359-8.283,16.516-8.212,18.379.032.827.083,1.55.141,2.171,1.6.166,5.785,1.063,5.992,1.108a.485.485,0,0,1,.1.04c.012.006.023.015.035.021a.411.411,0,0,1,.083.071l.017.026a.36.36,0,0,1,.063.106.535.535,0,0,1,.023.086l6.158,40.5a.429.429,0,0,1-.424.494h-.018l-43.515-1.531a.431.431,0,0,1-.416-.431v-35.881a.158.158,0,0,1,.005-.04.077.077,0,0,1,0-.026.4.4,0,0,1,.035-.115.161.161,0,0,1,.009-.02.426.426,0,0,1,.075-.1.449.449,0,0,1,.111-.081A37.284,37.284,0,0,1,468.458,4970.592Z" transform="translate(-382.682 -4830.629)" fill="#5e6850"/>
      <path id="Path_5015" data-name="Path 5015" d="M464.734,4815.216a.375.375,0,0,1,.066.109c.612.677,3.394,4.011,3.055,7.87a8.126,8.126,0,0,1-3.345,5.68,20.214,20.214,0,0,0,3.029,6.663c.669.605,1.3,1.166,1.87,1.671l-.58.632q-.849-.745-1.838-1.64a.374.374,0,0,1-.089-.083c-2.128-1.932-4.654-4.333-7.155-6.962l.626-.586c1.663,1.746,3.337,3.391,4.9,4.864a20.522,20.522,0,0,1-1.565-4.143.425.425,0,0,1-.244-.164c-.009-.011-.014-.026-.023-.037a8.318,8.318,0,0,1-3.147-6.216c-.011-3.907,3.1-7.008,3.727-7.6a.4.4,0,0,1,.063-.089.414.414,0,0,1,.334-.112A.42.42,0,0,1,464.734,4815.216Zm2.263,7.91c.278-3.143-1.829-6.015-2.63-6.983-.881.9-3.227,3.579-3.216,6.734a7.126,7.126,0,0,0,2.251,4.986,15.667,15.667,0,0,1,.233-6.609.432.432,0,0,1,.836.216,14.778,14.778,0,0,0-.164,6.457A7.14,7.14,0,0,0,467,4823.126Z" transform="translate(-381.757 -4812.274)" fill="#5e6850"/>
      <path id="Path_5016" data-name="Path 5016" d="M449.927,4838.041q-2.248-.4-4.563-.6l.072-.854.131.012a17.68,17.68,0,0,1-1.748-1.019.382.382,0,0,1-.14.025.571.571,0,0,1-.063,0c-.014,0-.026-.009-.04-.012-.276.018-.548.029-.813.029a7.922,7.922,0,0,1-5.777-2.133c-2.745-2.693-2.8-7-2.777-7.908a.449.449,0,0,1-.017-.126.413.413,0,0,1,.14-.31.43.43,0,0,1,.336-.138.469.469,0,0,1,.126.029c.9.043,5.2.394,7.692,3.325a8.094,8.094,0,0,1,1.68,6.4,14.38,14.38,0,0,0,5.4,2.337.414.414,0,0,1,.127.04c.129.023.258.044.385.069.216.037.43.077.643.12l-.155.838C450.354,4838.118,450.142,4838.078,449.927,4838.041Zm-6.572-3.868a7.09,7.09,0,0,0-1.522-5.263c-2.03-2.383-5.516-2.892-6.758-3,.02,1.249.284,4.77,2.518,6.957a7.069,7.069,0,0,0,5.079,1.88,21.261,21.261,0,0,1-4.367-4.613.43.43,0,1,1,.7-.494A20.232,20.232,0,0,0,443.354,4834.173Z" transform="translate(-375.063 -4814.873)" fill="#5e6850"/>
      <path id="Path_5017" data-name="Path 5017" d="M444.469,4822.9c-3.543-3.925-3.219-9.862-3.115-11.037a.4.4,0,0,1-.018-.155.417.417,0,0,1,.17-.307.435.435,0,0,1,.345-.118.422.422,0,0,1,.149.046c1.171.124,7.063.944,10.236,5.173,1.84,2.453,2.394,5.579,1.653,9.3q.823.9,1.651,1.776l-.626.586c-.577-.606-1.154-1.223-1.723-1.852C449.439,4826.307,446.508,4825.159,444.469,4822.9Zm8.694,2.087a10.149,10.149,0,0,0-1.613-7.964c-2.722-3.629-7.807-4.585-9.357-4.8-.089,1.562-.124,6.736,2.917,10.1a10.087,10.087,0,0,0,7.29,3.1,65.086,65.086,0,0,1-5.22-6.645.431.431,0,0,1,.715-.479A64.6,64.6,0,0,0,453.163,4824.986Z" transform="translate(-376.924 -4811.28)" fill="#5e6850"/>
      <path id="Path_5018" data-name="Path 5018" d="M441.148,4855.055c.646-.847.887-1.163,2.058-1.2.249-.008.557,0,.881.006.371.011.807.023,1.241.008.919-.029,1.823-.164,2.153-.643a3.651,3.651,0,0,0,.589-1.875,7.6,7.6,0,0,1,.2-1.177c.029-.1.058-.2.08-.285a2.169,2.169,0,0,0,.123-.554,2.922,2.922,0,0,0-.692-.356,2.381,2.381,0,0,1-1.289-1.674c-.1-.293-.19-.568-.322-.646a1.128,1.128,0,0,0-.3.621,1.47,1.47,0,0,0,.244,1.269,1.911,1.911,0,0,1,.7,1.553,1.23,1.23,0,0,1-.545.887,2.279,2.279,0,0,0,.1.551,1.62,1.62,0,0,1,.08.828,1.326,1.326,0,0,1-.729.8,1.018,1.018,0,0,1-.413.089.789.789,0,0,1-.365-.083c-.23-.115-.365-.365-.643-.916a4.052,4.052,0,0,0-.782-1.206l-.152.052c-.706.244-1.671.58-2.127-.227-.416-.735-.638-2.843,1.332-4.674a3.022,3.022,0,0,0,1.025-2.369c.02-.439.06-1.174.852-1.148a7.27,7.27,0,0,1,2.277.87,11.378,11.378,0,0,0,2.495,1.011c1.356.235,1.37.2,1.591-.382a2.686,2.686,0,0,0,.02-1.525c-.213-.043-.425-.086-.641-.126l.155-.838a52.977,52.977,0,0,1,12.372,3.957c-.3-.259-.62-.538-.959-.836l.58-.632c2.05,1.8,3.4,2.894,3.448,2.929a.387.387,0,0,1,.111.135,53.175,53.175,0,0,1,5.754,3.635l-.5.7a52.531,52.531,0,0,0-19.4-8.723,3.3,3.3,0,0,1-.138,1.631c-.463,1.232-1.114,1.174-2.541.928a11.815,11.815,0,0,1-2.728-1.085,9.057,9.057,0,0,0-1.866-.781c-.012.089-.018.222-.023.325a3.868,3.868,0,0,1-1.3,2.959c-1.734,1.611-1.355,3.292-1.168,3.618.1.181.652-.009,1.094-.161l.181-.062c.83-.285,1.373.784,1.806,1.643.092.178.21.416.284.525a.551.551,0,0,0,.27-.267c0-.041-.052-.238-.086-.367-.117-.454-.3-1.138.238-1.477a.362.362,0,0,0,.181-.275c.018-.133-.023-.419-.453-.85a2.481,2.481,0,0,1-.153-2.869.906.906,0,0,1,1.128-.43,1.686,1.686,0,0,1,.824,1.177c.161.485.31.942.8,1.148,1.232.517,1.39.807,1.065,1.943-.026.086-.052.175-.078.276a6.655,6.655,0,0,0-.181,1.048,4.452,4.452,0,0,1-.735,2.262c-.755,1.094-2.7,1.045-4.126,1.009-.31-.006-.6-.015-.83-.009-.764.026-.8.071-1.4.861-.155.2-.336.442-.565.727a7.424,7.424,0,0,1-2.523,1.714c-.652.324-1.464.726-1.5,1.011-.023.209.069.313.453.62a2.692,2.692,0,0,1,1.174,1.829,1.274,1.274,0,0,1-.292,1.092c-.606.651-1.912.559-2.96.487-.278-.02-.539-.041-.741-.041a.946.946,0,0,0-.692.187c-.144.161-.181.506-.121,1.086a4.05,4.05,0,0,1-.207,1.441c-.2.732-.368,1.366.109,1.936s1.171.419,2.26.111a8.121,8.121,0,0,1,1.358-.3c.508-.055,1.071-.873,1.665-1.739a7.938,7.938,0,0,1,2.728-2.834c1.375-.675,2.946.853,4.464,2.332,1,.976,2.259,2.194,2.71,1.832.069-.058.069-.092.072-.115.014-.462-1.106-1.481-1.924-2.226-1.183-1.076-2.2-2-2.142-2.836a.952.952,0,0,1,.454-.741,1.163,1.163,0,0,1,.887-.167c1.338.267,2.974,2.6,4.817,5.4a17.769,17.769,0,0,0,1.35,1.909c.216.207.348.149.448.072a1.829,1.829,0,0,0,.046-2.18c-.942-1.6-.307-3.078.155-4.16.089-.209.175-.411.238-.586a1.112,1.112,0,0,1,.655-.735c.559-.192,1.16.187,1.855.623.2.129.41.261.629.386a.538.538,0,0,0,.4.1c.247-.115.382-.844.456-1.235l.023-.125c.069-.356.124-.652.405-.821.339-.2.695-.087,1.748.249.221.072.474.153.764.241,1.837.571,2.865,2.783,2.535,3.871a.862.862,0,0,1-1.148.6,13.885,13.885,0,0,0-5.843.695,4.73,4.73,0,0,0,.626,2.932,1.025,1.025,0,0,0,.893.419,8.853,8.853,0,0,0,1.2-.156c1.3-.232,2.526-.453,3.489,2.223a2.086,2.086,0,0,1-.408,2.392c-1.3,1.243-4.229.974-5.435.48a2.921,2.921,0,0,0-2.57.088c-.341.126-.726.268-1.188.394-2.239.612-7.5-4.479-7.554-4.531a1.273,1.273,0,0,0-.592-.236,20.479,20.479,0,0,0-7.008.4l-.2-.817c.207-.052.422-.1.644-.147a19.323,19.323,0,0,1,6.721-.255,2.164,2.164,0,0,1,1.043.444c1.329,1.333,5.412,4.666,6.719,4.313.427-.118.778-.247,1.117-.37a3.7,3.7,0,0,1,3.193-.078c1.157.471,3.615.554,4.516-.307a1.282,1.282,0,0,0,.19-1.476c-.712-1.993-1.281-1.892-2.524-1.668a9.116,9.116,0,0,1-1.32.167,1.9,1.9,0,0,1-1.593-.735,5.473,5.473,0,0,1-.778-3.756.774.774,0,0,1,.413-.473,14.172,14.172,0,0,1,6.494-.764.18.18,0,0,0,.083.011,1.413,1.413,0,0,0-.063-.766,3.1,3.1,0,0,0-1.907-2.067c-.292-.092-.548-.173-.769-.245-.428-.135-.813-.258-1.005-.3-.011.058-.026.129-.037.193l-.026.138c-.124.658-.29,1.556-.939,1.857a1.258,1.258,0,0,1-1.189-.134c-.23-.129-.454-.271-.666-.405-.373-.239-.939-.594-1.112-.537-.02.006-.072.06-.123.209-.075.2-.164.411-.258.635-.434,1.013-.928,2.162-.2,3.385a2.611,2.611,0,0,1-.256,3.29,1.145,1.145,0,0,1-1.579-.123,16.141,16.141,0,0,1-1.47-2.059c-1.189-1.8-3.173-4.809-4.267-5.03a.278.278,0,0,0-.238.038c-.075.048-.075.074-.077.088-.029.413,1.109,1.451,1.864,2.136,1.2,1.088,2.231,2.03,2.2,2.892a.987.987,0,0,1-.393.758c-1.045.838-2.406-.485-3.847-1.886-1.183-1.152-2.658-2.582-3.483-2.177a7.306,7.306,0,0,0-2.4,2.547c-.7,1.014-1.3,1.9-2.116,2.081a.993.993,0,0,1-.167.029,7.923,7.923,0,0,0-1.217.276c-1.074.3-2.292.649-3.156-.388a2.747,2.747,0,0,1-.278-2.708,3.326,3.326,0,0,0,.181-1.132,2.234,2.234,0,0,1,.342-1.751,1.692,1.692,0,0,1,1.329-.471c.23,0,.509.021.8.041.772.055,1.94.138,2.268-.212.029-.035.109-.12.072-.379a1.845,1.845,0,0,0-.858-1.28,1.51,1.51,0,0,1-.773-1.393c.086-.75.959-1.183,1.967-1.686a6.833,6.833,0,0,0,2.24-1.484C440.823,4855.483,441,4855.25,441.148,4855.055Z" transform="translate(-374.699 -4819.246)" fill="#5e6850"/>
      <path id="Path_5019" data-name="Path 5019" d="M425.593,4889.759c-3.081,3.816-1.944,8.734-1.932,8.783a.073.073,0,0,0,0,.026.427.427,0,0,1,.235.322c.537,3.6,4.4,10.469,10.873,10.029,4.958-.333,7.468-.029,8.665,1.053a2.773,2.773,0,0,1,.869,2.079,17.924,17.924,0,0,0,1,4.732c.238.787.509,1.68.776,2.7a23.535,23.535,0,0,1-.083,6.058c-.39,4.792-.876,10.755,1.375,13.147a2.968,2.968,0,0,0,2.932.913c3.126-.606,6.8-4.84,7.6-6.9a19.752,19.752,0,0,0,.807-2.486,4,4,0,0,1,.718-1.64,3.912,3.912,0,0,1,1.6-1.12,3.6,3.6,0,0,0,2.078-1.818,10.382,10.382,0,0,0,.235-3.371c-.043-2.047-.089-4.37.884-5.929.311-.5.8-1.188,1.367-1.986,2.254-3.187,6.027-8.519,5.556-11.525-.147-.928-.316-1.025-.325-1.028a1.621,1.621,0,0,0-.531.175c-1.363.585-3.008.925-5.283-2.466-2.8-4.173-5.572-9.533-5.842-11.792,0-.006.833-.1.833-.1.19,1.459,2.286,6.289,5.725,11.411,2.067,3.081,3.316,2.544,4.227,2.153a1.435,1.435,0,0,1,1.292-.138c.385.215.606.691.755,1.647.526,3.351-3.224,8.651-5.705,12.157-.557.789-1.039,1.47-1.337,1.946-.838,1.341-.793,3.526-.753,5.456a10.519,10.519,0,0,1-.3,3.709,4.411,4.411,0,0,1-2.5,2.271,3.306,3.306,0,0,0-1.272.844,3.263,3.263,0,0,0-.586,1.354,19.811,19.811,0,0,1-.838,2.584c-.841,2.168-4.706,6.751-8.24,7.434a4.793,4.793,0,0,1-.9.091,3.758,3.758,0,0,1-2.822-1.257c-2.509-2.672-2.007-8.846-1.6-13.808a23.44,23.44,0,0,0,.106-5.774c-.261-1-.528-1.883-.763-2.664a18.586,18.586,0,0,1-1.034-4.956,1.918,1.918,0,0,0-.588-1.465c-.99-.9-3.391-1.145-8.028-.832-7.112.474-11.184-6.768-11.781-10.759a.422.422,0,0,1-.227-.274,11.81,11.81,0,0,1,2.1-9.527c1.349-1.674,2.538-3.417,3.585-4.956,1.54-2.257,2.754-4.04,3.946-4.9a6.591,6.591,0,0,1,2.156-.853l.2.818a5.688,5.688,0,0,0-1.853.735c-1.068.767-2.3,2.581-3.735,4.683C428.166,4886.3,426.966,4888.06,425.593,4889.759Z" transform="translate(-372.019 -4828.891)" fill="#5e6850"/>
      <path id="Path_5020" data-name="Path 5020" d="M407.534,4862.249a4.937,4.937,0,0,1-.686-.051c-.68-.1-1.1-.182-1.258-.526a.756.756,0,0,1,.173-.749,2.194,2.194,0,0,0,.278-.531c.411-1.209,2.191-1.223,2.266-1.223a.353.353,0,0,1,.123.02c.436.129,1.861.624,1.861,1.5a1.1,1.1,0,0,1-.448.841A3.659,3.659,0,0,1,407.534,4862.249Zm-.678-1.582a2.592,2.592,0,0,1-.3.608c.1.02.235.043.414.069a3.175,3.175,0,0,0,2.271-.442.491.491,0,0,0,.184-.218,2.53,2.53,0,0,0-1.183-.652C407.882,4860.046,407.024,4860.182,406.857,4860.667Z" transform="translate(-367.559 -4823.824)" fill="#5e6850"/>
      <path id="Path_5021" data-name="Path 5021" d="M375.316,4832.722c.385,1.513,1.9,6.435,5.791,8.723a10.061,10.061,0,0,0,7.953.738,36.711,36.711,0,0,1-7.25-4.737.431.431,0,0,1,.554-.661,35.739,35.739,0,0,0,7.167,4.672,10.052,10.052,0,0,0-3.9-6.971C381.965,4831.852,376.855,4832.461,375.316,4832.722Zm14.743,10.063a14.362,14.362,0,0,1-4.35.735,9.776,9.776,0,0,1-5.042-1.335c-4.536-2.67-6.006-8.4-6.262-9.555a.409.409,0,0,1-.063-.144.43.43,0,0,1,.075-.35.422.422,0,0,1,.29-.208.446.446,0,0,1,.155,0c1.154-.235,6.995-1.213,11.272,1.853,2.432,1.746,3.884,4.476,4.326,8.12a35.879,35.879,0,0,0,6.17,2.185l-.207.83a36.367,36.367,0,0,1-6.17-2.165.47.47,0,0,1-.132.037h-.043C390.073,4842.789,390.067,4842.786,390.059,4842.786Z" transform="translate(-359.383 -4816.601)" fill="#5e6850"/>
      <path id="Path_5022" data-name="Path 5022" d="M370.165,4854.444c.626-.83,3.839-4.787,8.355-5.251a9.594,9.594,0,0,1,7.417,2.736,62.86,62.86,0,0,1,8.441-.471.7.7,0,0,1,.112.021c.066-.043.132-.086.2-.126l.462.721q-1.8,1.171-3.5,2.486l-.528-.675q1.046-.814,2.139-1.573c-1.292.011-3.7.089-6.943.442a.334.334,0,0,1-.043.069c-.009.012-.023.014-.035.026-1.674,2.808-3.836,4.49-6.434,5a9.1,9.1,0,0,1-1.726.163,14.473,14.473,0,0,1-7.8-2.756.462.462,0,0,1-.129-.063.43.43,0,0,1-.178-.3.438.438,0,0,1,.08-.348A.425.425,0,0,1,370.165,4854.444Zm15.042-1.562c-2.6.316-5.673.806-9.1,1.559a.319.319,0,0,1-.092.012.432.432,0,0,1-.092-.853c3.3-.727,6.282-1.209,8.835-1.53a8.438,8.438,0,0,0-6.147-2.018c-3.784.384-6.684,3.586-7.571,4.674,1.165.786,4.872,3,8.6,2.273A8.641,8.641,0,0,0,385.207,4852.883Z" transform="translate(-358.241 -4821.199)" fill="#5e6850"/>
      <path id="Path_5023" data-name="Path 5023" d="M395.345,4832.4a7.859,7.859,0,0,0,6.058.247,51.719,51.719,0,0,1-5.64-3.336.431.431,0,0,1,.492-.709,51.228,51.228,0,0,0,5.682,3.353,7.939,7.939,0,0,0-3.433-5.219c-2.986-1.85-6.888-1.167-8.189-.862C390.737,4827.142,392.207,4830.834,395.345,4832.4Zm28.358,1.935a52.947,52.947,0,0,0-5.593.624c-.793.428-5.292,2.906-6.512,4.177-.393.408-.755.741-1.045,1.008-.658.6-.858.827-.847,1.022a19.223,19.223,0,0,0,2.96-1.752,14.041,14.041,0,0,1,3.552-1.979c.293-.052.675-.1,1.1-.164,1.4-.2,4-.565,4.554-1.079a7.908,7.908,0,0,1,1.051-.79c.33-.219.706-.465.74-.629A1.7,1.7,0,0,0,423.7,4834.337Zm-19.716-11.26c-.407.985-1.281,3.543-.4,5.788a5.5,5.5,0,0,0,2.822,2.877,12.452,12.452,0,0,1-1.613-4.767.431.431,0,0,1,.855-.1,11.687,11.687,0,0,0,1.654,4.689,5.56,5.56,0,0,0,.537-4.161A8.208,8.208,0,0,0,403.987,4823.077Zm-1.525,10.112a11.082,11.082,0,0,1-3.962.807,7.813,7.813,0,0,1-3.546-.827c-3.784-1.9-5.285-6.4-5.561-7.345a.467.467,0,0,1,.258-.695.463.463,0,0,1,.135-.012c.954-.258,5.573-1.34,9.17.888a9.036,9.036,0,0,1,3.963,6.449c2.208,1.1,4.41,2.061,6.336,2.851a17.317,17.317,0,0,1-2.03-2.292.434.434,0,0,1-.233-.068.105.105,0,0,1-.02-.017,6.7,6.7,0,0,1-4.186-3.753c-1.137-2.891.227-6.078.557-6.773a.389.389,0,0,1,.031-.111.468.468,0,0,1,.612-.21.476.476,0,0,1,.092.065c.683.348,3.718,2.03,4.591,5.016a6.552,6.552,0,0,1-.824,5.223,15.959,15.959,0,0,0,3.173,3.3l.04.041a52.75,52.75,0,0,1,6.771-1.6.406.406,0,0,1,.258-.043c.41-.069.821-.129,1.234-.187a36.284,36.284,0,0,1-2.466-3.307.368.368,0,0,1-.118-.038.34.34,0,0,1-.055-.034c-3.56-.913-6.064-2.71-7.436-5.346-2.363-4.545-.615-10.032-.229-11.117a.466.466,0,0,1,.023-.152.427.427,0,0,1,.247-.255.42.42,0,0,1,.357-.023.383.383,0,0,1,.129.081c1.079.4,6.4,2.613,8.344,7.35,1.1,2.7.892,5.7-.626,8.935a35.3,35.3,0,0,0,2.85,3.775,53.889,53.889,0,0,1,6.42-.388c1.6,0,3.181.075,4.743.212l-.072.854c-1.539-.132-3.095-.2-4.671-.2-.738,0-1.467.021-2.2.049a2.51,2.51,0,0,1-.058.657c-.1.512-.568.818-1.106,1.172a7.066,7.066,0,0,0-.942.7c-.695.646-2.684.97-5.019,1.3-.419.058-.792.112-1.079.161a15.128,15.128,0,0,0-3.219,1.849c-1.987,1.31-2.963,1.912-3.569,1.912a.724.724,0,0,1-.2-.026.6.6,0,0,1-.393-.315c-.442-.882.19-1.461.988-2.2.3-.273.632-.583,1.005-.971a25.937,25.937,0,0,1,4.476-3.07,52.347,52.347,0,0,0-9.6,3.1c.023.048.046.1.069.155.307.7-.339,1.171-.855,1.554-.365.264-.776.565-.873.892-.055.189-.02.228.129.385.488.522.419,1-.238,1.659a2.121,2.121,0,0,0-.614,1.174,2.353,2.353,0,0,1-1.077,1.614,6.937,6.937,0,0,1-2.03.81,5.1,5.1,0,0,0-2.489,1.217,1,1,0,0,0-.264,1.194,1.238,1.238,0,0,1-.506,1.6,2.5,2.5,0,0,0-.508.474c-.48.554-.976,1.128-5.527,2.779-4.381,1.59-7.074,8.083-8.226,10.856-.523,1.257-.618,1.484-.922,1.556a.359.359,0,0,1-.1.012.483.483,0,0,1-.3-.109,3.67,3.67,0,0,1-.508-2.4c0-.072.006-.146.011-.218l.85.04c0,.066-.006.132-.009.2a6.46,6.46,0,0,0,.038.939c.049-.112.1-.229.146-.348,1.194-2.877,3.988-9.615,8.728-11.335,4.338-1.573,4.78-2.085,5.171-2.532a3.227,3.227,0,0,1,.663-.615c.3-.216.287-.281.175-.651a1.829,1.829,0,0,1,.451-2.022,5.843,5.843,0,0,1,2.892-1.464,6.244,6.244,0,0,0,1.782-.694,1.509,1.509,0,0,0,.724-1.108,2.971,2.971,0,0,1,.841-1.576,1.371,1.371,0,0,0,.3-.371,1.091,1.091,0,0,0-.08-.089,1.153,1.153,0,0,1-.327-1.22,2.829,2.829,0,0,1,1.188-1.347c.207-.148.554-.4.58-.513-.029-.063-.052-.109-.072-.152a53.171,53.171,0,0,0-6.506,3.514c-.173.109-.345.221-.517.333l-.462-.721c.175-.114.351-.229.526-.339.6-.384,1.209-.752,1.826-1.11-.448-.083-1.042-.207-1.757-.389l.207-.829a21.832,21.832,0,0,0,2.579.508.432.432,0,0,1,.149.046,53.315,53.315,0,0,1,8.26-3.647C407.306,4835.445,404.886,4834.4,402.463,4833.189Zm11-11.594a34.814,34.814,0,0,0,3.48,7.531,9.762,9.762,0,0,0,.382-7.732c-1.66-4.051-6.167-6.185-7.583-6.767-.465,1.458-1.745,6.276.275,10.158a9.74,9.74,0,0,0,6.13,4.691,35.808,35.808,0,0,1-3.506-7.617.431.431,0,0,1,.821-.264Z" transform="translate(-361.132 -4811.888)" fill="#5e6850"/>
      <path id="Path_5024" data-name="Path 5024" d="M444.433,4967.982a42.292,42.292,0,0,1-.069-11.034,54.982,54.982,0,0,1-19.524,3.626,53.38,53.38,0,0,1-19.469-3.646,39.832,39.832,0,0,1,.077,9.708l-.841-.084c.666-6.931.058-13.729-3.351-16.242a57.651,57.651,0,0,1-5.295-4.5.235.235,0,0,1-.026-.026c-3.959-3.772-8.191-8.7-9.939-13.109a62.764,62.764,0,0,0-7.853-14.264,8.653,8.653,0,0,0-3.442-2.834,5.16,5.16,0,0,0-1.028-.3l.141-.83a8.5,8.5,0,0,1,5.01,3.442,63.785,63.785,0,0,1,7.973,14.471c1.533,3.87,5.254,8.39,8.984,12.067-.066-.551-.192-1.165-.327-1.8-.379-1.786-.767-3.629.023-5a3.563,3.563,0,0,1,1.3-1.338c.514-.336.8-.523.434-2.879-.086-.569-.178-1.1-.264-1.608-.52-3.087-.9-5.318.841-7.207.439-.477.278-1.585-.431-2.963-1.369-2.661-4.462-5.7-6.262-5.47-2.263.281-3.2.4-3.787-.091a1.746,1.746,0,0,1-.5-1.324,8.268,8.268,0,0,1,.166-1.63c.241-1.464.514-3.124-.626-4.025a10.307,10.307,0,0,0-1.332-.884c-1.033-.6-1.78-1.038-2.607-3.343-.238-.665-.965-2.687-1.306-2.793a.8.8,0,0,0-.25.175c-.962.864-1.533.262-2.136-.379-.117-.126-.247-.264-.4-.414l-.1-.1a3.559,3.559,0,0,0-.658-.583,1.9,1.9,0,0,0-.419.594,2.423,2.423,0,0,1-2.406,1.353,1.076,1.076,0,0,1-.726-1.2,15.07,15.07,0,0,1,.384-2.246,14.873,14.873,0,0,0,.39-2.253,1.118,1.118,0,0,0-.275-.956,1.03,1.03,0,0,1-.249-1.082c.043-.15.1-.5.16-.9a19.178,19.178,0,0,1,.54-2.622c.3-.964.72-1.659,1.395-1.817a1.467,1.467,0,0,1,1.195.066c.45.3.542.9.761,2.351.066.457.149,1,.258,1.643a5.645,5.645,0,0,0,.189.827l.735.433c-.261.477-.5.618-.769.618h-.018c-.614-.015-.836-.841-.988-1.734-.109-.649-.192-1.2-.261-1.657a5.725,5.725,0,0,0-.39-1.769c-.011-.009-.089-.041-.514.061-.732.172-1.12,2.667-1.283,3.732a8.713,8.713,0,0,1-.187,1.014c-.04.132-.04.132.086.284a1.926,1.926,0,0,1,.474,1.557,15.394,15.394,0,0,1-.408,2.391,14.893,14.893,0,0,0-.368,2.108c-.017.287.078.316.109.324.307.089,1.031-.27,1.413-.948.333-.594.626-.973,1.06-1.03.482-.066.838.293,1.378.833l.1.1c.155.155.293.3.413.431.6.634.6.634.933.33a1.161,1.161,0,0,1,1.04-.371c.611.155,1.019.874,1.9,3.339.723,2.007,1.289,2.34,2.23,2.888a11.061,11.061,0,0,1,1.433.954c1.539,1.217,1.194,3.311.942,4.84a7.613,7.613,0,0,0-.158,1.447c.02.391.08.614.189.707.3.249,1.427.109,3.13-.1,2.377-.3,5.757,3.255,7.135,5.932.907,1.766,1.013,3.164.3,3.942-1.452,1.576-1.142,3.42-.626,6.478.086.508.179,1.047.267,1.619.405,2.632.063,3.158-.816,3.732a2.732,2.732,0,0,0-1.024,1.048c-.624,1.082-.267,2.762.075,4.387a11.985,11.985,0,0,1,.382,2.849,55.3,55.3,0,0,0,5.09,4.329c1.827,1.344,2.874,3.641,3.425,6.317a52.521,52.521,0,0,0,19.648,3.779,54.119,54.119,0,0,0,19.7-3.756c.548-2.687,1.6-4.99,3.428-6.34,4.766-3.511,12.562-11.192,14.971-17.267a63.754,63.754,0,0,1,7.973-14.471c1.691-2.194,3.7-3.4,5.656-3.514l.052.842a4.886,4.886,0,0,0-1.582.367,8.606,8.606,0,0,0-3.445,2.832,62.764,62.764,0,0,0-7.853,14.264c-2.61,6.583-10.747,14.315-15.26,17.64-3.627,2.673-4.083,10.2-3.208,17.578Z" transform="translate(-359.211 -4831.78)" fill="#5e6850"/>
      <path id="Path_5025" data-name="Path 5025" d="M378.714,4862.456a5.322,5.322,0,0,0-3.867-.279,7.945,7.945,0,0,0-4.048,3.891,7.985,7.985,0,0,0,5.616.166,5.411,5.411,0,0,0,2.776-3.043,29.336,29.336,0,0,0-3.9,1.952.447.447,0,0,1-.23.066.43.43,0,0,1-.227-.794A29.412,29.412,0,0,1,378.714,4862.456Zm-1.958,4.568a6.721,6.721,0,0,1-2.7.531,10.535,10.535,0,0,1-3.908-.818.345.345,0,0,1-.109-.026.44.44,0,0,1-.241-.258.432.432,0,0,1,.008-.348.4.4,0,0,1,.06-.091c.313-.681,1.838-3.693,4.706-4.655a6.435,6.435,0,0,1,5.206.655c1.993-.8,3.729-1.373,4.2-1.522a53.608,53.608,0,0,1,5.544-4.927l.528.676a53.162,53.162,0,0,0-5.481,4.877.405.405,0,0,1-.089.092,53.175,53.175,0,0,0-8.068,10.693,1.373,1.373,0,0,1,1.082.3,1.093,1.093,0,0,1,.153,1.215,5.373,5.373,0,0,0-.264,1.392l-.85-.04a6.208,6.208,0,0,1,.3-1.634.574.574,0,0,0,.049-.327,1.7,1.7,0,0,0-1.013.065q-.991,1.823-1.841,3.728l1.453,1.1c1.8,1.372,3.046,2.495,2.607,4.458a16.838,16.838,0,0,1-1.166,3.89l-.735-.433a16.824,16.824,0,0,0,1.063-3.644c.275-1.238-.218-2.01-2.292-3.586l-1.283-.976a52.074,52.074,0,0,0-1.827,4.973q-.37,1.192-.686,2.406l-.83-.212a52.9,52.9,0,0,1,1.832-5.73c.1-2.719-.075-6.137-.678-7.239-.485-.882-1.832-.715-2.222-.646a42.3,42.3,0,0,1,.147,5.289c-.012.982-.026,1.984-.009,2.952l-.855.012c-.023-.976-.009-1.987,0-2.972a26.825,26.825,0,0,0-.388-6.486,2.552,2.552,0,0,0-1.375-1.78,2.754,2.754,0,0,0-1.993-.063,1.1,1.1,0,0,0-.114.238l-.827-.175c.247-.68.416-.766.511-.812a3.576,3.576,0,0,1,2.774.025,3.37,3.37,0,0,1,1.855,2.34c.052.187.094.381.132.583.568-.1,2.363-.293,3.118,1.083.609,1.111.77,3.638.8,5.51q.973-2.243,2.142-4.375l.017-.035a53.921,53.921,0,0,1,7.5-10.461c-.68.241-1.513.548-2.406.9-.008.017-.014.034-.023.051l-.017.023A6.532,6.532,0,0,1,376.756,4867.024Z" transform="translate(-356.637 -4822.88)" fill="#5e6850"/>
      <path id="Path_5026" data-name="Path 5026" d="M372.632,4918.891a42.692,42.692,0,0,0-2.779-6.88,14.584,14.584,0,0,0-4.732,2.2c.029.155.063.319.106.491,1.436,2.573,3.256,5.473,3.776,5.8A12.075,12.075,0,0,0,372.632,4918.891Zm-4.961-25.821c-.066-.479-.557-4.168-.818-7.674-.044-.568-.066-1.164-.075-1.767,0-.005.855-.017.855-.017.012.589.038,1.166.078,1.717.135,1.806.33,3.659.5,5.091.112-.483.227-.96.356-1.433l.83.211a52.646,52.646,0,0,0-1.68,13.23,53.477,53.477,0,0,0,.52,7.437,4.471,4.471,0,0,1,.537,0,5.439,5.439,0,0,1,.7.08l-.141.83a4.489,4.489,0,0,0-.615-.065,4.282,4.282,0,0,0-2.285.565,2.279,2.279,0,0,0-1.378,1.932c1.513-.987,4.507-2.334,5.245-1.975a.381.381,0,0,1,.075.048,30.734,30.734,0,0,1,1.829,3.83c1.56,3.747,1.344,4.025,1.171,4.247a10.932,10.932,0,0,1-4.416,2.012l-.072,0c-.325-.029-.855-.565-1.591-1.6,1.117,2.483,2.05,4.881,2.954,7.21.643,1.648,1.249,3.207,1.895,4.74,1.218,2.879,1.663,6.779,2.019,9.911.173,1.5.319,2.8.523,3.759a.431.431,0,0,1-.844.175c-.21-1-.359-2.314-.534-3.835-.351-3.079-.787-6.908-1.955-9.673-.652-1.548-1.261-3.11-1.9-4.763-1.082-2.78-2.2-5.654-3.617-8.649-2.271-4.792-2.228-6.764.178-8.116a5.282,5.282,0,0,1,1.37-.529q-.134-.959-.235-1.929a17.115,17.115,0,0,1-2.857-7.146,57.365,57.365,0,0,1-.319-6.308,47.343,47.343,0,0,0-.31-5.875c-.325-2.182-1.306-8.825-3.761-9.058a1.136,1.136,0,0,0-.9.291,3.986,3.986,0,0,0-1,1.829c-.02.066-.041.134-.063.207l-.824-.2c.02-.072.04-.144.063-.215a4.85,4.85,0,0,1,1.269-2.277,1.994,1.994,0,0,1,1.542-.493,2.313,2.313,0,0,1,.784.22,39.865,39.865,0,0,1,1.269-6.509c.018-.051.035-.1.052-.144l.827.175c-.024.063-.049.135-.075.216a54.661,54.661,0,0,0-1.283,6.833c1.653,1.643,2.446,5.533,2.96,9a48.146,48.146,0,0,1,.319,5.989,57.423,57.423,0,0,0,.31,6.208,15.56,15.56,0,0,0,1.841,5.349q-.13-1.857-.129-3.725A53.761,53.761,0,0,1,367.671,4893.07Z" transform="translate(-354.871 -4827.286)" fill="#5e6850"/>
      <path id="Path_5027" data-name="Path 5027" d="M399.219,4972.7q1.744-.039,3.54-.124a18.96,18.96,0,0,0-3.3-1.114C399.374,4971.936,399.29,4972.353,399.219,4972.7Zm-30.291-2.843c.913.2,2.157.465,3.678.741.055-.3.132-.787.21-1.436C372.043,4969.231,370.355,4969.559,368.928,4969.854Zm-8.745-33.868c.588,1.763,2.934,6.44,5.417,11.39,4.907,9.786,8.375,16.862,8.3,18.794a33.117,33.117,0,0,1-.445,4.577,135.092,135.092,0,0,0,24.878,1.967c.308-1.433.577-2.932.8-4.451.138-.95.252-1.906.345-2.863l.841.084c-.1,1.021-.218,2-.348,2.9-.115.809-.235,1.562-.354,2.228a16.469,16.469,0,0,1,4.976,1.958.434.434,0,0,1,.094.091.515.515,0,0,1,.052.094l.008.021a.5.5,0,0,1,.023.112v.026a.266.266,0,0,1,0,.049l-3.79,37.242a.433.433,0,0,1-.424.388l-42.712.333a.433.433,0,0,1-.422-.525l9.142-40.659a.2.2,0,0,1,.014-.043l.009-.023a.381.381,0,0,1,.06-.106c0-.005.009-.008.015-.014a.378.378,0,0,1,.1-.086.4.4,0,0,1,.115-.049c.005,0,.008,0,.014-.006.2-.042,4.66-1.039,6.015-1.123.058-.617.106-1.332.138-2.15.072-1.863-4.522-11.02-8.212-18.379-2.607-5.194-4.858-9.681-5.464-11.5a140.077,140.077,0,0,1-2.977-14.062c-.669-3.675-1.3-7.146-1.809-9.219-.89-3.658-.425-7.944.069-12.481.216-1.955.434-3.976.548-5.992a47.842,47.842,0,0,1,1.115-9.357l.824.2a48.225,48.225,0,0,0-1.077,9.208c-.117,2.039-.339,4.071-.551,6.035-.488,4.462-.947,8.674-.089,12.186.511,2.1,1.146,5.581,1.817,9.268A142.511,142.511,0,0,0,360.182,4935.986Zm12.613,35.519c-2.777-.5-4.683-.944-5.49-1.145l-8.924,39.7,41.779-.324,3.7-36.358q-2.571.146-5.036.19a.433.433,0,0,1-.147.026.461.461,0,0,1-.092-.009c-.012,0-.023-.009-.032-.011q-1.055.017-2.087.017a136.057,136.057,0,0,1-23.524-2.053.444.444,0,0,1-.1-.011A.361.361,0,0,1,372.795,4971.5Z" transform="translate(-354.078 -4830.629)" fill="#5e6850"/>
    </g>
  </g>
</svg>
