<svg id="cat-health-underline" xmlns="http://www.w3.org/2000/svg" width="195.726" height="21.202" viewBox="0 0 195.726 21.202">
  <path id="Path_11851" data-name="Path 11851" d="M1314.444,4077.534c-1.312.785-2.749-.67-3.918-.7l.421.615-1.194-.481.048.9c-1.957-.347-4.329.686-5.1-.725l.286,1.437-2.106-1.065,1.219.931c-2.3.39-5.858-.585-6.351-.552l.231.529c-.366.293-.679-.05-1.081-.207l.338.793c-3.491-.067-4.362,1.8-8.285,1.117-1.05.24.6.237.636.689-.55.665-1.937.113-2.248-.232.365,1.247,1.985.79.788,1.857-.911-.582.654,1.141-.91.962l-.682-1.59c-.851.322-.115,1.274-1.488,1.179-1.591-.631,1.825-1.925-.7-2.043-1.254.165-2.474,3.87-4.953,3.113-2.063.943,1.225,2.467-1.7,2.189l1.912.974c-.46.48-.118,1.276-1.4.992a3.285,3.285,0,0,0-1.929-1.424c2.782,1.1-2.3,1.954.311,3.426l-.948-.016a.255.255,0,0,1,.1.337l-1.25.171c.791.316,2.639.379,1.841,1.611l-1.8.382c.528.873-.12,1.278.021,1.994l5.426,1.482c-.235-.53-1.021-.844-.761-1.4,1.405-.541,1.211.919,2.516.112l-.625-.684c.119.266.311.343.023.449-.448.485-.679-.046-.7-.5.427-.932,1.808-.384,2.24.226,1.731-.2.282-1.652.651-1.947.969,1.481,2.9-.175,4.006.482l-.736-.955c1.267-1.258,2.495-.327,3.284-.011l-.336-.8c1.845.073,2.638-2.692,4.165.12l-.218-.531c.744-.285,1.863-.939,2.623-.114,0-.339.113-.766.414-.879.457,1.093,1.2.218,2.309-.03-.751-.257-.576-1.7-1.369-2.017,1.655-1.548,1.642,1.533,3.083,1.45.835-.773-.809-.768-1.039-1.3,2.259.682,4.442-3.5,5.965-.688l-.919.954c.91.586,1.389.561,1.271.3-.281.1-.388-.162-.5-.427,2.616-1.59,4.265,1.946,6.94,1.259-.221-.532-.613-.692-.647-1.144,1.222-.607,1.314,2.734,3.278,1.55l-.416-.613c.654-.4,1.182.488,1.1.672-.034-2.444,4.248-.024,5.54-3.257,1.03,1.309,3.877,2.259,4.714,1.493,1.189-1.506-1.143-1.575-.728-2.955.968-.044,1.518,1.282,2.945.773.063,1.354-2.762,2.834-.031,3.535l.357-.741c-.278.1-.655.391-1.053.225-.807-.782.442-.924.611-1.294l2.921.333c.253,1.441-1.494,1.148-1.664,1.518,2.289-.365,5-2.56,7.168-1.654l-.216-.536c2.758,1.157,1.529-2.689,3.756-.424,1.139-.4-.449-1.526,1.282-1.673.49-.017.215.535.132.721,2.139.472.908-1.391,2.9-.1l-.455-1.523c2.368,1.009,4.866,3.642,6.876,2.944-.139-1.177-1.389-1.043-1.9-1.93,2.775,2.066,6.58.167,9.127,1.287-.746,1.013,1.219,2.325-.391,3.176-.434-1.526-1.183-.513-2.051-.675,1.435,3.319,5.841-1.675,6.294,1.209l.362-1.184c.389.171,1.377,1.054.7,1.432l2.782-.782c-.98-.894-3.059-2.921-3.7-1.641-.8-1.249,1.138-.843.425-2.275,1.881,1.95,1.145-.846,3.085-.43-.868,1.708,1.934,2.319,1.847,3.145.632-.316,2.038.479,2.581,1.058,1.115.161,3.68-1.213,5.471-.619-.676-.536-1.747-1.245-1.665-2.331.878.62,1.844.606,2.018-.661-3.12-2.316-1.019,2.908-3.843,1.407a3.8,3.8,0,0,0-2.933-2.223c.665-.826.372-1.184.645-2.184,1.788,3.052,4.654.3,6.988,1.812.978.9.227,2.791,2.449,3.155l-1.918.911c2.106-.829.488.9,2.217,1.257l-.681-1a1.713,1.713,0,0,1,2.03.726l-.882-1.54c.573-.181,1.635-.361,1.639.541a2.5,2.5,0,0,0,.209-.927c.108.257.377.422,1.047.382-.39-.181-.674-.088-.678-.541,2.551.4.618-1.645,2.2-1.477-.247-.357.21-.791.782-.971-.072,2.405,3.061,2.762,3.864,4.1l-.009-.035,2.114,1.005c-.429-.208.051-.852.676-1.09l-.1.009c.686-.355-.752-2.632,1.27-1.885l1.054.738c-.189-.091,0-.454.108-.634l1.086.681c1.746-2.2,3.147,1.35,5.159.3-.578.175-1.444-.017-1.049-.737.392-.265.965.014,1.253.377l-.092-.271c1.245.527,2.487,1.051,3.726,1.6-.277-.826-2.388-.963-1.413-1.847.6-1.073,1.642.132,2.316.243-.11.629-1.378,1.141-.129,1.533.165-.306,1.39-.913.841-1.391,1.27.7,3.132,1.168,4.239,2.341.379-.262-.186-.549-.375-.643l-.1.177c-.763-.383-.052-1.632-1.609-1.036-.045-2.088,2.231-.487,3.584-.723l-2.082-1.5c1.866-1.351,3.993-1.211,6.092-.7,2.1.539,4.169,1.44,5.954,1.56-1.085.59-1.927-.076-1.89,1.554,2.173.907,1.9.533,4.091.986l-.185-.1c1.193-.768,2.653.924,3.494-.491-.438-.922-1.675.75-1.591-1.062.928.1,1.857.188,2.782.307-.806-1.141-2.783-.3-3.83-.622-.774.057,1.529.335,1.091,1.5-2.6-.2-3.123-1.4-4.312-3.172-.714-1.3,1.214-1.216,1.7-1.2a6.215,6.215,0,0,0,6.564,2.3l1.514-1.27c1.2,1.339.48,3.747,2.807,3.607l-.618-1.035a1.868,1.868,0,0,1,1.12-.428c-.939-.814-1.951-1.731-2.8-2.571,1.467-2,3.716,1.309,5.613,1.869-.08-.274-.75-.4-.911-.956a7.756,7.756,0,0,1,4.25,1.168,18.4,18.4,0,0,0,3.689,1.811c1.019-.829-1.793-.771-1.22-2.088,1.125.629,2.552-.442,2.754.843-.352-1.84,2.7.112.613-1.77a17.56,17.56,0,0,1,6.534.858c2.178.682,4.333,1.59,6.4,2.33a1.655,1.655,0,0,1,.12-1.353c-1.445-.135-3.509-.876-4.184-2.211,1.045-.813,2.119,1.47,2.448.958-.438-.5-1.4-.587-1.326-1.488,1.346-.876,1.89.629,2.742.894l-.522.4c2.582,1.515,1.154,3.291,4.082,3.108,1.165-.979.092-.9.228-2.249.616.607,2.978-.64,3.512.9-.584-.039-1.169-.071-1.754-.092a18.2,18.2,0,0,1,3.11,1.236c-.052-.3-.086-.607-.33-.755.913.558,2.167.606,2.549,1.565l.452-1.41c-.657.565-2.392.46-2.586-.381.319-1.242,1.971-.234,2.747-.237-3.321-.819-3.094-3.106-6.072-2.484l.431.5c-1.907.9-3.538-1.1-5.11-1.228a.789.789,0,0,0,.44-1.03c-3.585.76-6.9-.5-10.918-.141l-1.058-1.533-.173,1.078c-1.977.3-.28-1.565-1.538-1.571.475.038.373.21.446.49-2.138-1.434-1.338.9-2.567.441.5,1.216,2.39.635,1.692,2.125-2.127-1.429-5.661-1.07-5.78-3.7-4.25.754-9.294-1.276-12.8-1.734-.507.432.277.376.069.731-1.294-1.595-4.718.8-4.66-.559-.693.335-1.029,1.315-1.231,1.668a7.061,7.061,0,0,0-3.022-1.326l.808.42-.1.179-1.146-.595.048-.082c-2.8-.567-6.063-.339-8.561-1.905,1.436.945-.438,1.619.235,2.181-1.207-2.206-4.329-2.382-6.864-2.264,0,.454-.212.809.072,1.179l-1.435-.927.176.546c-2.631.331-5.425-2.147-7.186-1.173,1.066.284,1.06.737,1.149,1.463a21.3,21.3,0,0,1-5.829-.878.7.7,0,0,1,.188.45c-.578.182-1.259-.362-1.843-.631l-.1,1.083c-1.114-.516-2.571.022-3.893-.862-.537,1.186-3.219-1.147-4.768-.665-.587-.272,1.273,1.263-.379,1.177-.215-2.361-2.145-.084-2.257-2.612l-1.452.923-.313-1.265c-1.239,2.371-1.87-1.062-3.7-.314.1.273.293.361.2.542-.591-.264-1.955-.427-.9-1.075-.976.012-4.3-.579-2.806.761-.109-.725,1.256-.107,1.847.155-.078,1.087-1.543.656-1.9,1.838a3.469,3.469,0,0,0-.381-.486l-.207.672c-1.834-1.207-3.689-.322-5.031-1.854-.075.336-.394.6-1.023.529l-.037-1.359-1.948.047.928,1.968c-2.129.414-3.654-1.816-5.416-2.134-.421,2.267-3.439-.821-4.926,1.227l1.379.589c-2.933-.358-3.374,1.018-6.116.292,2.3-.8,2.32-.347,5.665-2.267-3.371,1.014-5.88-1.169-8.958.205.22.534,1.005.869.258,1.439-.63-1.157-2.92.1-2.492-1.276-.951.489-1.088,1.767-1.672,1.969l-3.27-1.585.106.267c-2.7,1.652-5.274,1.191-7.861.5-2.583-.67-5.182-1.564-7.911-.8l.131.721-1.415-1.02c1.1.672-.436.925-.5,1.562l-3.582-1.458C1313.329,4076.41,1313.589,4077.845,1314.444,4077.534Zm46.473-.472.837.091a.487.487,0,0,1,.531.055l-.531-.055C1361.325,4077.336,1361.014,4077.91,1360.917,4077.062Zm77.008,5.039c.353.657-.593.148-.88.22l1.346.261C1438.608,4082.233,1438.116,4082.205,1437.925,4082.1Zm-76.894,3.738-.457.916-.6-.709Zm-11.785.219,1.183.5-.1.185-1.17-.5Zm-13.278-7.051a1.368,1.368,0,0,1,.232.175.779.779,0,0,1-.232-.175c-.928-.63-1.248,1.009-2.031-.551C1334.812,4077.079,1335.433,4078.465,1335.968,4079.007Zm20.81-.4c.4.173.593.257.881.16-.211-.539-1.013-1.332-.433-1.528.411.625,1.768.771,1.8,1.676C1357.833,4077.948,1357.026,4080.5,1356.778,4078.607Zm27.912.631-.3.092,1.078.721Zm5.052.992c.58,1.17,2.131,1.017,3.2,1.3.3-.993-.762-2.18-2.027-2.106C1389.451,4078.5,1390.322,4080.957,1389.742,4080.23Zm-42.032.265.313.8-.28.1,1.177.5c-1.515,1.14-2.648-.908-3.44-1.245C1346.168,4080.727,1348.075,4082.658,1347.71,4080.5Zm52.812.584c1.058.735,2.972,1.668,2.765,2.487a2.253,2.253,0,0,0-1.9-2.3C1401.1,4081.355,1400.9,4081.264,1400.522,4081.079Zm-.147,2.9c-1.539-.744-1.625-1.467-2.779-2.933,1.568-.612,1.933,1.381,1.724,2.193,1.055.74.877-.262,1.458-.434Zm-1.495-4.365-.644.193c-.774.62-.977,2.361-1.988.589l1.988-.589A.789.789,0,0,1,1398.88,4079.611Zm13.177.561-.621-.555c.634.078.7.313.621.555l.516.471C1411.152,4081.142,1411.894,4080.638,1412.057,4080.172Zm-10.065.019-1.846-.2C1400.23,4080.715,1401.4,4080.366,1401.992,4080.191Zm9.592,1.332a17.975,17.975,0,0,1-2.537.112C1409.264,4080.827,1411.11,4081.057,1411.584,4081.523Zm40.542,4.971-1.151-.181.666-1.037Zm-13.665-.374.33-.523.668.13Zm-12.546-.805a1.3,1.3,0,0,0-.028-.787.813.813,0,0,1-.409-.486c.172.005.324.218.409.486a1.572,1.572,0,0,0,1.609-.132c-.168-.548-.951-.49-1.228-.865,1.235-1.231,3.562,2.818,3.07-.932.459.478,2.058,1.57,1.438,2.17a8.351,8.351,0,0,0-4.861.546.47.47,0,0,1-.417.358A1.138,1.138,0,0,1,1425.915,4085.315Zm-16.953-.06c-.47-.111-.672-.229-.761-.355a1.141,1.141,0,0,1-.551-1.218c.975.486.324.88.551,1.218A1.9,1.9,0,0,0,1408.962,4085.255Zm-3,.1,1.524.762-.75-.833,2.277,1.6A2.277,2.277,0,0,1,1405.964,4085.358Zm-.572.689-.288-.9.456.923-.168-.027.066.2-2.595-.613Zm-26.695-2.367c-1.005,3.039,2.294,2.2,2.788,3.675.12-1.02,1.131-2.594-1.426-2.592,2.22-1,1.361,1.993,2.705-.544a4.444,4.444,0,0,1-2.515-.722l1.249-.091C1380.811,4081.506,1379.567,4084.311,1378.7,4083.68Zm-13.448.433-1.642-.056,1.555.237Zm-40.493,1.625c.138.716-1.93,2.087-2.476.752C1323.337,4086.256,1324.5,4086.291,1324.756,4085.738Zm-17.4.421,1.866.534c-.292,1.647-1.648,0-2.5.316C1306.385,4086.212,1307.086,4086.719,1307.352,4086.159Zm-11.989.487-.6-.238.686,1.592Zm.9,2.122c-.338.745.935,1.034,1.227.927Zm-10.727,1.9.763-.137-.76-1.405Zm1.146-1.744c.228,1.025.215,2.418,1.95,1.647.025-1.09-.456-1.06.142-2.366-.594-.237-1.05.244-1.336.35.4.158.851-.321.992.4a1.41,1.41,0,0,1-1.748-.026,1.272,1.272,0,0,0-.432-.839A1.213,1.213,0,0,0,1286.682,4088.925Zm6.355-1.424a1.246,1.246,0,0,0,.508-.479l.118.269c-.219.479-.431.38-.626.21a6.976,6.976,0,0,1-.843.423c-.156.924,1.082,1.5,1.424,1.995-.588-.237-1.126-1.112-1.865-.525.113.265.025.454.506.421l-1.045.246c-1.264-1.224-.129-1.669.98-2.137a1.241,1.241,0,0,1,.305-.66C1292.674,4087.124,1292.85,4087.342,1293.037,4087.5Zm-8.572-1.663.59.236c.314.343.142.716.258.981C1284.631,4087.006,1283.719,4086.427,1284.465,4085.838Zm34.7-1.736c-.375.29.549,1.335,1.4,1.022l-.413,1.378c-.052-.9-1.781-.729-1.978-.812C1317.824,4084.44,1318.517,4084.951,1319.163,4084.1Zm40.358-.942c.33,1.714,2.531.661,3.023,1.106C1361.4,4084.654,1358.789,4085.078,1359.521,4083.16Zm3.831-.733c.6.016.777-.148.718.715.3.357.772-.108,1.069.248-1.174.767-1.106-.606-1.787-.963a2.83,2.83,0,0,1-.563-.068A.768.768,0,0,1,1363.352,4082.427Zm-23.613.232-.833-1.235-1.254.143Zm-13.567-1.883c.125.719-1.316.788-1.628.44.122.947,1.085.792,1.858.867a.8.8,0,0,0,.51.108,1.769,1.769,0,0,0-.51-.108c-.295-.213-.11-.706-.12-1.039l.374-.291-1.073-.222Zm-23.787-.155c-.831.772-.945.508-1.536.267C1301.02,4080.515,1301.788,4080.382,1302.385,4080.621Zm30.929-.868c-1.441.512.737,1.418-.2,1.911l.759-.12c-1.208,1.044-.91-1.053-1.772-.743l.576-.2c.436-.925-.908-.6-1.037-1.318C1332.3,4078.887,1333.887,4079.547,1333.314,4079.753Zm-32.319.311c-1.4.985-1.224-.928-2.1-1.058C1300,4078.124,1299.908,4079.853,1300.995,4080.064Zm23.07-2.813.085-.182-1.186-.489-.087.186Z" transform="translate(-1274.498 -4074.977)" fill="#c9dee8"/>
</svg>
