<svg id="cat-oil-underline" xmlns="http://www.w3.org/2000/svg" width="203.235" height="20.193" viewBox="0 0 203.235 20.193">
  <path id="Path_11659" data-name="Path 11659" d="M1039.278,4090.1a2.7,2.7,0,0,0,.363.2C1039.27,4090.307,1039.1,4090.27,1039.278,4090.1Z" transform="translate(-841.036 -4074.511)" fill="#f5f0cb"/>
  <path id="Path_11660" data-name="Path 11660" d="M1044.271,4091.483a12.388,12.388,0,0,1-4.63-1.183C1040.829,4090.271,1044.108,4089.72,1044.271,4091.483Z" transform="translate(-841.036 -4074.511)" fill="#f5f0cb"/>
  <path id="Path_11661" data-name="Path 11661" d="M1039.4,4087.289l1.576.723C1039.957,4088.352,1040.241,4087.567,1039.4,4087.289Z" transform="translate(-841.036 -4074.511)" fill="#f5f0cb"/>
  <path id="Path_11662" data-name="Path 11662" d="M1039.793,4088.97l-.167.619-.795-.727Z" transform="translate(-841.036 -4074.511)" fill="#f5f0cb"/>
  <path id="Path_11663" data-name="Path 11663" d="M955.433,4089.156a1.238,1.238,0,0,1,.174.962Z" transform="translate(-841.036 -4074.511)" fill="#f5f0cb"/>
  <path id="Path_11664" data-name="Path 11664" d="M951.684,4086.206a5.018,5.018,0,0,0-.783-.188A1.253,1.253,0,0,1,951.684,4086.206Z" transform="translate(-841.036 -4074.511)" fill="#f5f0cb"/>
  <path id="Path_11665" data-name="Path 11665" d="M958.894,4088.97l-.678.068A1.163,1.163,0,0,1,958.894,4088.97Z" transform="translate(-841.036 -4074.511)" fill="#f5f0cb"/>
  <path id="Path_11666" data-name="Path 11666" d="M1001.193,4088.652c.593.5,1.155.966,1.584,1.283C1001.519,4090.332,1001.494,4089.284,1001.193,4088.652Z" transform="translate(-841.036 -4074.511)" fill="#f5f0cb"/>
  <path id="Path_11667" data-name="Path 11667" d="M934.19,4076.744l-.167.507C933.844,4077.02,933.756,4076.8,934.19,4076.744Z" transform="translate(-841.036 -4074.511)" fill="#f5f0cb"/>
  <path id="Path_11668" data-name="Path 11668" d="M950.923,4077.7a1.433,1.433,0,0,1-.1.669c-.066-.044-.134-.075-.2-.126Z" transform="translate(-841.036 -4074.511)" fill="#f5f0cb"/>
  <path id="Path_11669" data-name="Path 11669" d="M961.6,4088.018c.01-.021.027-.034.039-.055l.541.335A.414.414,0,0,1,961.6,4088.018Z" transform="translate(-841.036 -4074.511)" fill="#f5f0cb"/>
  <path id="Path_11670" data-name="Path 11670" d="M928.8,4076.04a4.337,4.337,0,0,1-.672-1.115A1.041,1.041,0,0,1,928.8,4076.04Z" transform="translate(-841.036 -4074.511)" fill="#f5f0cb"/>
  <path id="Path_11671" data-name="Path 11671" d="M950.807,4086.02c-.008-.008,0-.016-.007-.024.028,0,.073.019.1.022C950.865,4086.025,950.841,4086.011,950.807,4086.02Z" transform="translate(-841.036 -4074.511)" fill="#f5f0cb"/>
  <path id="Path_11672" data-name="Path 11672" d="M956.463,4078.356c-.29-.092-.563-.159-.875-.277A.793.793,0,0,1,956.463,4078.356Z" transform="translate(-841.036 -4074.511)" fill="#f5f0cb"/>
  <path id="Path_11673" data-name="Path 11673" d="M1001.193,4088.652l-.5-.427A.642.642,0,0,1,1001.193,4088.652Z" transform="translate(-841.036 -4074.511)" fill="#f5f0cb"/>
  <path id="Path_11674" data-name="Path 11674" d="M1034.736,4090.674c-.53-.059-.611-.435-.666-.813A2.13,2.13,0,0,1,1034.736,4090.674Z" transform="translate(-841.036 -4074.511)" fill="#f5f0cb"/>
  <path id="Path_11675" data-name="Path 11675" d="M842.248,4088.633l-.214-.008A.269.269,0,0,1,842.248,4088.633Z" transform="translate(-841.036 -4074.511)" fill="#f5f0cb"/>
  <path id="Path_11676" data-name="Path 11676" d="M862.712,4089.488a1.655,1.655,0,0,1,.28.4C862.821,4090.025,862.717,4089.792,862.712,4089.488Z" transform="translate(-841.036 -4074.511)" fill="#f5f0cb"/>
  <path id="Path_11677" data-name="Path 11677" d="M881.257,4076.707c-1.32.773-2.733-.712-3.9-.763l.411.621-1.184-.5.033.9c-1.948-.379-4.334.613-5.077-.811l.261,1.442-2.084-1.1,1.2.952c-2.3.353-5.837-.686-6.33-.664l.221.533c-.371.285-.677-.063-1.075-.229l.323.8c-3.484-.135-4.39,1.712-8.294.956-1.053.22.593.249.621.7-.562.654-1.936.075-2.239-.276.338,1.254,1.966.829.748,1.873-.9-.6.631,1.153-.928.943l-.649-1.6c-.856.3-.141,1.271-1.51,1.146-1.577-.666,1.862-1.885-.654-2.059-1.256.138-2.554,3.815-5.015,3-2.083.9,1.169,2.493-1.751,2.152l1.889,1.015c-.47.47-.146,1.273-1.416.961a3.286,3.286,0,0,0-1.9-1.466c2.757,1.158-2.345,1.9.233,3.432l-.948-.037a.253.253,0,0,1,.093.34l-1.254.143c.784.333,2.632.437,1.805,1.651l-1.814.343c.508.884-.15,1.274-.026,1.994l5.4,1.6c-.223-.535-1-.866-.73-1.42,1.418-.509,1.192.946,2.516.168l-.61-.7c.113.269.3.35.013.45-.459.474-.679-.062-.694-.513.448-.922,1.819-.344,2.238.276,1.737-.16.317-1.646.694-1.933.937,1.5,2.9-.112,4,.569l-.716-.97c1.294-1.228,2.5-.276,3.287.056l-.32-.8c1.845.108,2.692-2.641,4.165.2l-.207-.535c.749-.271,1.882-.9,2.627-.064.008-.339.127-.763.43-.871.437,1.1,1.2.241,2.311.015-.746-.272-.545-1.713-1.332-2.044,1.683-1.515,1.614,1.566,3.057,1.51.849-.757-.795-.784-1.015-1.319,2.247.726,4.5-3.43,5.977-.586l-.936.938c.9.6,1.381.585,1.267.317-.283.1-.385-.168-.492-.434,2.642-1.546,4.234,2.016,6.922,1.374-.213-.535-.6-.7-.63-1.154,1.232-.589,1.272,2.76,3.256,1.6l-.407-.617c.661-.391,1.176.5,1.089.685,0-2.445,4.251.036,5.589-3.177,1.011,1.323,3.848,2.315,4.7,1.56,1.209-1.489-1.123-1.591-.689-2.965.968-.032,1.5,1.308,2.934.807.047,1.356-2.8,2.812-.075,3.535l.366-.738c-.279.1-.66.387-1.056.217-.8-.787.454-.92.628-1.289l2.917.367c.236,1.443-1.509,1.13-1.682,1.5,2.294-.338,5.034-2.5,7.19-1.567l-.211-.539c2.747,1.19,1.559-2.669,3.762-.379,1.143-.4-.433-1.529,1.3-1.668.49-.012.209.537.124.722,2.135.494.922-1.381,2.9-.068l-.44-1.527c2.357,1.032,4.831,3.691,6.848,3.013-.129-1.178-1.38-1.057-1.885-1.949,2.757,2.1,6.579.211,9.117,1.359-.754,1.007,1.2,2.335-.415,3.173-.423-1.53-1.18-.523-2.047-.692,1.41,3.33,5.856-1.627,6.288,1.261l.371-1.181c.388.175,1.371,1.066.692,1.438l2.788-.764c-.975-.892-3.04-2.944-3.69-1.667-.793-1.255,1.145-.833.442-2.27,1.868,1.963,1.151-.834,3.088-.409-.88,1.708,1.919,2.317,1.828,3.149.633-.312,2.035.493,2.575,1.076,1.114.168,3.688-1.188,5.476-.582-.673-.54-1.741-1.257-1.652-2.342.875.626,1.841.618,2.022-.647-3.107-2.338-1.036,2.9-3.851,1.38a3.81,3.81,0,0,0-2.92-2.243c.67-.821.379-1.181.658-2.179,1.769,3.064,4.651.333,6.976,1.86.974.9.212,2.8,2.433,3.157l-1.923.912c2.112-.824.483.9,2.212,1.258l-.676-1a1.71,1.71,0,0,1,2.027.735l-.875-1.544c.575-.179,1.637-.353,1.637.549a2.484,2.484,0,0,0,.213-.925c.107.257.375.424,1.046.387-.389-.183-.674-.091-.676-.544,2.55.408.626-1.642,2.209-1.466-.245-.357.214-.789.786-.967-.082,2.406,3.049,2.78,3.847,4.127l-.009-.035,2.111,1.006c-.428-.2.055-.856.681-1.089l-.1.009c.688-.352-.741-2.636,1.278-1.88l1.052.743c-.19-.092,0-.454.11-.634l1.083.687c1.754-2.193,3.142,1.363,5.158.322-.578.173-1.443-.023-1.046-.742.393-.263.965.019,1.252.383l-.091-.271,3.722,1.608c-.274-.832-2.387-.953-1.408-1.841.6-1.084,1.642.126,2.316.24-.112.629-1.382,1.136-.134,1.532.166-.305,1.393-.907.845-1.387,1.268.705,3.129,1.179,4.233,2.356.379-.261-.185-.55-.374-.645l-.1.177c-.762-.385-.048-1.632-1.606-1.042-.039-2.088,2.232-.478,3.586-.71l-2.078-1.51c1.869-1.347,3.995-1.193,6.093-.679,2.1.536,4.165,1.45,5.95,1.573-1.086.586-1.927-.082-1.893,1.549,2.17.912,1.9.537,4.089,1l-.185-.1c1.194-.764,2.651.931,3.494-.481-.436-.924-1.675.745-1.588-1.067l2.782.308c-.806-1.129-2.783-.306-3.83-.626-.774.056,1.529.34,1.088,1.5-2.6-.21-3.119-1.41-4.3-3.184-.711-1.3,1.217-1.213,1.7-1.194a6.194,6.194,0,0,0,6.559,2.307l1.516-1.267c1.194,1.341.473,3.749,2.8,3.613l-.616-1.036a1.859,1.859,0,0,1,1.121-.425c-.938-.817-1.948-1.736-2.794-2.578,1.47-1.994,3.714,1.317,5.61,1.882-.08-.274-.75-.406-.91-.959a7.82,7.82,0,0,1,4.249,1.174,18.435,18.435,0,0,0,3.685,1.816c1.021-.828-1.792-.773-1.217-2.089,1.124.63,2.553-.439,2.753.847-.35-1.841,2.7.116.615-1.769a17.554,17.554,0,0,1,6.532.869c2.178.679,4.331,1.593,6.4,2.334a1.661,1.661,0,0,1,.121-1.354c-1.444-.135-3.507-.878-4.181-2.214,1.046-.813,2.117,1.471,2.447.96-.438-.5-1.4-.588-1.324-1.489,1.345-.875,1.888.631,2.74.9l-.522.4c2.58,1.517,1.15,3.292,4.078,3.113,1.166-.978.093-.9.23-2.25.615.609,2.978-.637,3.51.9q-.875-.06-1.753-.093a18.188,18.188,0,0,1,3.109,1.238c-.052-.3-.086-.607-.33-.756.913.558,2.167.607,2.548,1.566l.453-1.41c-.657.564-2.392.46-2.585-.382.32-1.241,1.97-.233,2.746-.235-3.32-.821-3.091-3.107-6.069-2.488l.431.5c-1.908.9-3.537-1.107-5.108-1.234a.787.787,0,0,0,.44-1.029c-3.584.754-6.895-.5-10.915-.153l-1.055-1.535-.175,1.079c-1.977.3-.278-1.566-1.535-1.574.475.039.373.211.445.491-2.136-1.438-1.339.894-2.567.437.5,1.216,2.389.638,1.689,2.127-2.125-1.43-5.659-1.083-5.774-3.706-4.25.748-9.288-1.3-12.788-1.756-.508.431.275.378.067.732-1.291-1.6-4.718.784-4.657-.572-.693.333-1.031,1.312-1.234,1.665a7.085,7.085,0,0,0-3.018-1.335l.806.422-.1.179-1.144-.6.049-.082c-2.794-.571-6.061-.344-8.553-1.924,1.433.95-.443,1.617.229,2.182-1.2-2.206-4.32-2.408-6.855-2.277-.006.453-.214.809.069,1.178l-1.432-.932.175.547c-2.632.318-5.415-2.171-7.179-1.205,1.064.289,1.057.742,1.143,1.468a21.979,21.979,0,0,1-5.823-.893.7.7,0,0,1,.187.452c-.578.178-1.257-.369-1.839-.641l-.1,1.083c-1.11-.523-2.569.007-3.886-.885-.543,1.183-3.212-1.165-4.762-.691-.586-.275,1.266,1.27-.385,1.175-.2-2.357-2.142-.077-2.241-2.613l-1.456.913-.306-1.267c-1.251,2.363-1.861-1.075-3.7-.34.095.274.29.364.2.545-.589-.269-1.951-.441-.89-1.082-.975.006-4.291-.608-2.808.741-.1-.725,1.256-.1,1.844.169-.084,1.086-1.545.645-1.914,1.824a3.326,3.326,0,0,0-.377-.488l-.211.67c-1.824-1.208-3.683-.334-5.012-1.881-.078.336-.4.6-1.027.521l-.027-1.36-1.945.031.912,1.976c-2.13.4-3.637-1.846-5.393-2.179-.441,2.262-3.425-.832-4.929,1.192l1.372.6c-2.926-.387-3.379.984-6.111.231,2.3-.778,2.321-.324,5.678-2.21-3.376.98-5.86-1.229-8.946.114.213.536.994.879.243,1.441-.619-1.168-2.915.081-2.474-1.293-.955.478-1.106,1.753-1.691,1.949l-3.247-1.625.1.268c-5.432,3.228-10.266-1.952-15.741-.5l.121.722-1.4-1.04c1.093.688-.448.919-.52,1.555l-3.552-1.506C880.162,4075.57,880.4,4077.01,881.257,4076.707Zm46.412.037.836.1a.487.487,0,0,1,.53.059l-.53-.059C928.075,4077.021,927.76,4077.593,927.669,4076.744Zm76.949,5.322c.351.658-.594.147-.881.218l1.345.264C1005.3,4082.2,1004.808,4082.171,1004.618,4082.066Zm-76.9,3.456-.463.912-.594-.714Zm-11.788.125,1.179.516-.1.184-1.167-.516Zm-13.2-7.184a1.322,1.322,0,0,1,.23.177.767.767,0,0,1-.23-.177c-.92-.642-1.258.994-2.022-.575C901.6,4076.521,902.2,4077.914,902.731,4078.463Zm20.792-.209c.4.177.591.263.879.167-.206-.54-1-1.34-.422-1.531.407.628,1.762.786,1.782,1.691C924.582,4077.6,923.756,4080.151,923.523,4078.254Zm27.888.8-.3.09,1.074.728Zm5.044,1.019c.575,1.174,2.126,1.006,3.19,1.3.3-.99-.754-2.188-2.019-2.112C956.171,4078.353,957.032,4080.8,956.455,4080.074Zm-42.009-.006.307.806-.282.1,1.172.516c-1.524,1.124-2.638-.935-3.426-1.28C912.9,4080.285,914.792,4082.235,914.446,4080.068Zm52.782.892c1.055.744,2.965,1.677,2.756,2.49a2.252,2.252,0,0,0-1.9-2.295C967.8,4081.239,967.6,4081.147,967.228,4080.96Zm-.157,2.9c-1.536-.751-1.62-1.474-2.768-2.946,1.57-.6,1.927,1.39,1.716,2.2,1.052.744.877-.259,1.459-.428Zm-1.48-4.372-.645.191c-.775.616-.984,2.357-1.989.579l1.989-.579A.793.793,0,0,1,965.591,4079.484Zm13.17.6-.619-.557c.633.081.7.316.619.557l.515.473C977.854,4081.052,978.6,4080.55,978.761,4080.084Zm-10.061,0-1.845-.214C966.937,4080.594,968.1,4080.25,968.7,4080.079Zm9.585,1.355a18.191,18.191,0,0,1-2.537.1C975.968,4080.729,977.812,4080.966,978.285,4081.434Zm40.524,5.045-1.151-.183.667-1.036Zm-13.662-.392.331-.523.668.131Zm-12.543-.827a1.308,1.308,0,0,0-.026-.788.8.8,0,0,1-.408-.487c.172.006.323.219.408.487a1.569,1.569,0,0,0,1.608-.127c-.166-.549-.949-.492-1.226-.869,1.237-1.225,3.557,2.814,3.072-.931.458.479,2.054,1.575,1.433,2.173a8.319,8.319,0,0,0-4.861.542.471.471,0,0,1-.418.357A1.129,1.129,0,0,1,992.6,4085.26Zm-16.95-.1c-.471-.113-.672-.232-.76-.358a1.14,1.14,0,0,1-.548-1.22c.974.489.321.881.548,1.22A1.915,1.915,0,0,0,975.654,4085.157Zm-3,.092,1.522.768-.748-.837,2.273,1.609A2.279,2.279,0,0,1,972.655,4085.249Zm-.574.687-.285-.9.454.924-.169-.027.066.2-2.593-.615Zm-26.683-2.471c-1.019,3.034,2.284,2.206,2.77,3.689.125-1.019,1.143-2.587-1.413-2.6,2.225-.984,1.351,2,2.707-.528a4.449,4.449,0,0,1-2.511-.736l1.249-.085C947.522,4081.3,946.265,4084.1,945.4,4083.465Zm-13.448.364-1.641-.068,1.553.249Zm-40.506,1.23c.129.717-1.958,2.058-2.486.715C890.019,4085.555,891.182,4085.608,891.444,4085.059Zm-17.409.158,1.857.565c-.318,1.642-1.647-.03-2.505.274C873.068,4085.253,873.761,4085.772,874.035,4085.217Zm-11.995.273-.593-.25.656,1.6Zm.86,2.139c-.352.738.915,1.052,1.21.951Zm-10.769,1.688.766-.12-.731-1.421Zm1.182-1.718c.207,1.028.165,2.424,1.918,1.687.046-1.09-.435-1.069.19-2.363-.589-.249-1.055.224-1.344.324.4.166.859-.305.985.414a1.41,1.41,0,0,1-1.749-.062,1.268,1.268,0,0,0-.414-.848A1.216,1.216,0,0,0,853.313,4087.6Zm6.385-1.3a1.238,1.238,0,0,0,.517-.469l.113.271c-.229.475-.439.372-.63.2a7.108,7.108,0,0,1-.852.407c-.174.921,1.053,1.517,1.385,2.022-.583-.249-1.1-1.134-1.854-.561.107.267.016.454.5.43l-1.051.226c-1.239-1.247-.095-1.67,1.023-2.117a1.24,1.24,0,0,1,.319-.654C859.342,4085.916,859.514,4086.138,859.7,4086.3Zm-8.536-1.836.585.248c.306.351.126.72.236.988C851.3,4085.635,850.4,4085.037,851.162,4084.464Zm34.713-1.122c-.379.285.53,1.343,1.388,1.042l-.433,1.371c-.039-.9-1.77-.754-1.966-.839C884.532,4083.661,885.218,4084.181,885.875,4083.342Zm40.355-.512c.317,1.717,2.525.683,3.014,1.132C928.095,4084.339,925.484,4084.742,926.23,4082.83Zm3.835-.7c.6.022.777-.141.713.721.292.36.772-.1,1.067.256-1.179.76-1.1-.615-1.78-.977a2.783,2.783,0,0,1-.562-.073A.772.772,0,0,1,930.065,4082.129Zm-23.6.03-.82-1.244-1.255.128Zm-13.536-2.042c.116.721-1.326.77-1.633.416.11.949,1.074.808,1.846.9a.787.787,0,0,0,.508.114,1.779,1.779,0,0,0-.508-.114c-.293-.218-.1-.709-.107-1.042l.378-.285-1.069-.238Zm-23.759-.521c-.844.758-.952.492-1.538.243C867.8,4079.468,868.575,4079.346,869.166,4079.6Zm30.9-.419c-1.445.494.72,1.426-.226,1.908l.759-.111c-1.219,1.029-.9-1.064-1.761-.765l.578-.2c.446-.919-.9-.609-1.021-1.33C899.073,4078.3,900.647,4078.978,900.071,4079.177Zm-32.282-.16c-1.414.961-1.206-.951-2.08-1.1C866.833,4077.059,866.707,4078.788,867.789,4079.017Zm23.077-2.455.088-.18-1.178-.507-.089.185Z" transform="translate(-841.036 -4074.511)" fill="#f5f0cb"/>
  <path id="Path_11678" data-name="Path 11678" d="M866.233,4088.588a1.121,1.121,0,0,1-.78.044A2.243,2.243,0,0,1,866.233,4088.588Z" transform="translate(-841.036 -4074.511)" fill="#f5f0cb"/>
  <path id="Path_11679" data-name="Path 11679" d="M933.563,4088.606a.543.543,0,0,1,.326-.454A.693.693,0,0,1,933.563,4088.606Z" transform="translate(-841.036 -4074.511)" fill="#f5f0cb"/>
  <path id="Path_11680" data-name="Path 11680" d="M936.357,4089.222c.036.007.074,0,.107.006a1.164,1.164,0,0,0,.087.085Z" transform="translate(-841.036 -4074.511)" fill="#f5f0cb"/>
  <path id="Path_11681" data-name="Path 11681" d="M1033.751,4091.748c.454,1.235-.6.116-1.076.059C1033.154,4091.864,1033.438,4091.074,1033.751,4091.748Z" transform="translate(-841.036 -4074.511)" fill="#f5f0cb"/>
  <path id="Path_11682" data-name="Path 11682" d="M1030.209,4089.369a2.03,2.03,0,0,0,1.107.805C1031,4090.174,1030.676,4090.016,1030.209,4089.369Z" transform="translate(-841.036 -4074.511)" fill="#f5f0cb"/>
  <path id="Path_11683" data-name="Path 11683" d="M1033.231,4090.232a3.853,3.853,0,0,1-1.915-.058C1031.807,4090.171,1032.269,4089.791,1033.231,4090.232Z" transform="translate(-841.036 -4074.511)" fill="#f5f0cb"/>
  <path id="Path_11684" data-name="Path 11684" d="M1019.991,4088.58c.522.776,1.7.525,1.7.525-2.556.4.361,1.4.51,1.958C1020.685,4090.645,1020.768,4089.746,1019.991,4088.58Z" transform="translate(-841.036 -4074.511)" fill="#f5f0cb"/>
  <path id="Path_11685" data-name="Path 11685" d="M1016.726,4087.9a1.533,1.533,0,0,0,.705-.076A.777.777,0,0,1,1016.726,4087.9Z" transform="translate(-841.036 -4074.511)" fill="#f5f0cb"/>
  <path id="Path_11686" data-name="Path 11686" d="M1015.731,4088.51c-.846-.247-1.075-1.083-1.412-1.742,1.1-.485,1.648.862,2.407,1.132C1016.112,4087.86,1015.521,4087.719,1015.731,4088.51Z" transform="translate(-841.036 -4074.511)" fill="#f5f0cb"/>
  <path id="Path_11687" data-name="Path 11687" d="M988.879,4090.361c.193.1.669.121.655.572l-1.442-.063C987.53,4090.571,988.585,4090.439,988.879,4090.361Z" transform="translate(-841.036 -4074.511)" fill="#f5f0cb"/>
  <path id="Path_11688" data-name="Path 11688" d="M983.681,4087.863c-1.151-.141-.611,1.061-1.181.761l.145-1.532Z" transform="translate(-841.036 -4074.511)" fill="#f5f0cb"/>
  <path id="Path_11689" data-name="Path 11689" d="M984.743,4080.117l.336.174-.39-.079Z" transform="translate(-841.036 -4074.511)" fill="#f5f0cb"/>
  <path id="Path_11690" data-name="Path 11690" d="M978.046,4089.122l.717,1.744C977.817,4090.386,977.866,4089.025,978.046,4089.122Z" transform="translate(-841.036 -4074.511)" fill="#f5f0cb"/>
  <path id="Path_11691" data-name="Path 11691" d="M973.6,4090.078l.654.56-2.095-.605Z" transform="translate(-841.036 -4074.511)" fill="#f5f0cb"/>
  <path id="Path_11692" data-name="Path 11692" d="M968.329,4089.037l-.2.357-1.438-.477Z" transform="translate(-841.036 -4074.511)" fill="#f5f0cb"/>
  <path id="Path_11693" data-name="Path 11693" d="M910.469,4087.04c-.236-1.444,2.1-.862,2.768-1.243C912.791,4087.621,911.376,4085.209,910.469,4087.04Z" transform="translate(-841.036 -4074.511)" fill="#f5f0cb"/>
  <path id="Path_11694" data-name="Path 11694" d="M868.24,4087.877l2.23.281C868.762,4088.764,869.99,4088.172,868.24,4087.877Z" transform="translate(-841.036 -4074.511)" fill="#f5f0cb"/>
</svg>
