<svg id="cat-herb-underline" xmlns="http://www.w3.org/2000/svg" width="203.06" height="21.491" viewBox="0 0 203.06 21.491">
  <path id="Path_11746" data-name="Path 11746" d="M620.888,4090.1a2.737,2.737,0,0,0,.363.2C620.88,4090.3,620.705,4090.268,620.888,4090.1Z" transform="translate(-422.822 -4074.637)" fill="#99ac81"/>
  <path id="Path_11747" data-name="Path 11747" d="M625.882,4091.483a12.4,12.4,0,0,1-4.631-1.186C622.439,4090.27,625.719,4089.72,625.882,4091.483Z" transform="translate(-422.822 -4074.637)" fill="#99ac81"/>
  <path id="Path_11748" data-name="Path 11748" d="M621.015,4087.286l1.576.724C621.568,4088.35,621.852,4087.565,621.015,4087.286Z" transform="translate(-422.822 -4074.637)" fill="#99ac81"/>
  <path id="Path_11749" data-name="Path 11749" d="M621.4,4088.968l-.168.618-.795-.727Z" transform="translate(-422.822 -4074.637)" fill="#99ac81"/>
  <path id="Path_11750" data-name="Path 11750" d="M537.032,4089.045a1.233,1.233,0,0,1,.175.962Z" transform="translate(-422.822 -4074.637)" fill="#99ac81"/>
  <path id="Path_11751" data-name="Path 11751" d="M533.28,4086.1a4.889,4.889,0,0,0-.783-.186A1.244,1.244,0,0,1,533.28,4086.1Z" transform="translate(-422.822 -4074.637)" fill="#99ac81"/>
  <path id="Path_11752" data-name="Path 11752" d="M540.491,4088.861l-.677.068A1.162,1.162,0,0,1,540.491,4088.861Z" transform="translate(-422.822 -4074.637)" fill="#99ac81"/>
  <path id="Path_11753" data-name="Path 11753" d="M582.792,4088.593c.592.506,1.154.968,1.582,1.286C583.116,4090.274,583.092,4089.226,582.792,4088.593Z" transform="translate(-422.822 -4074.637)" fill="#99ac81"/>
  <path id="Path_11754" data-name="Path 11754" d="M515.744,4076.694l-.165.508C515.4,4076.972,515.31,4076.749,515.744,4076.694Z" transform="translate(-422.822 -4074.637)" fill="#99ac81"/>
  <path id="Path_11755" data-name="Path 11755" d="M532.505,4077.595a1.434,1.434,0,0,1-.1.669c-.066-.044-.134-.075-.2-.126Z" transform="translate(-422.822 -4074.637)" fill="#99ac81"/>
  <path id="Path_11756" data-name="Path 11756" d="M543.2,4087.907c.01-.021.027-.033.039-.055l.54.335A.413.413,0,0,1,543.2,4087.907Z" transform="translate(-422.822 -4074.637)" fill="#99ac81"/>
  <path id="Path_11757" data-name="Path 11757" d="M510.34,4076.017a4.288,4.288,0,0,1-.679-1.111A1.041,1.041,0,0,1,510.34,4076.017Z" transform="translate(-422.822 -4074.637)" fill="#99ac81"/>
  <path id="Path_11758" data-name="Path 11758" d="M532.4,4085.918c-.008-.007,0-.015-.007-.023.028,0,.073.018.1.022C532.461,4085.923,532.437,4085.91,532.4,4085.918Z" transform="translate(-422.822 -4074.637)" fill="#99ac81"/>
  <path id="Path_11759" data-name="Path 11759" d="M538.053,4078.243c-.291-.091-.565-.157-.876-.275A.8.8,0,0,1,538.053,4078.243Z" transform="translate(-422.822 -4074.637)" fill="#99ac81"/>
  <path id="Path_11760" data-name="Path 11760" d="M582.792,4088.593l-.5-.428A.641.641,0,0,1,582.792,4088.593Z" transform="translate(-422.822 -4074.637)" fill="#99ac81"/>
  <path id="Path_11761" data-name="Path 11761" d="M616.344,4090.669c-.53-.059-.61-.435-.665-.813A2.131,2.131,0,0,1,616.344,4090.669Z" transform="translate(-422.822 -4074.637)" fill="#99ac81"/>
  <path id="Path_11762" data-name="Path 11762" d="M423.966,4090.189l-.214,0A.27.27,0,0,1,423.966,4090.189Z" transform="translate(-422.822 -4074.637)" fill="#99ac81"/>
  <path id="Path_11763" data-name="Path 11763" d="M444.424,4090.455a1.635,1.635,0,0,1,.289.393C444.546,4090.989,444.436,4090.759,444.424,4090.455Z" transform="translate(-422.822 -4074.637)" fill="#99ac81"/>
  <path id="Path_11764" data-name="Path 11764" d="M462.694,4077.258c-1.308.8-2.754-.655-3.925-.681l.425.612-1.2-.475.052.9c-1.961-.337-4.331.707-5.108-.7l.294,1.436-2.114-1.055,1.225.925c-2.3.4-5.867-.549-6.361-.513l.234.527c-.365.295-.68-.045-1.084-.2l.344.791c-3.5-.044-4.355,1.826-8.286,1.172-1.05.247.6.233.641.685-.545.669-1.938.124-2.251-.216.374,1.242,1.992.777.8,1.851-.916-.576.663,1.134-.9.97l-.695-1.585c-.849.329-.105,1.275-1.479,1.193-1.6-.618,1.81-1.942-.715-2.038-1.255.176-2.444,3.891-4.93,3.157-2.057.96,1.247,2.456-1.685,2.2l1.921.957c-.455.484-.106,1.276-1.385,1a3.291,3.291,0,0,0-1.943-1.408c2.793,1.074-2.282,1.974.343,3.424l-.947-.008a.253.253,0,0,1,.1.336l-1.248.181c.794.31,2.642.357,1.856,1.6l-1.8.4c.536.868-.107,1.278.04,1.993l5.434,1.435c-.24-.528-1.028-.835-.772-1.4,1.4-.552,1.217.909,2.514.091l-.631-.679c.122.265.314.341.028.449-.444.489-.679-.04-.708-.491.418-.936,1.8-.4,2.239.207,1.727-.212.267-1.655.634-1.953.98,1.473,2.894-.2,4.006.447l-.743-.948c1.256-1.27,2.491-.348,3.282-.036l-.342-.794c1.844.06,2.618-2.71,4.164.092l-.222-.529c.742-.29,1.856-.951,2.622-.132,0-.338.107-.766.407-.881.464,1.089,1.206.21,2.308-.046-.752-.252-.586-1.7-1.382-2.008,1.646-1.559,1.653,1.523,3.092,1.43.83-.779-.813-.763-1.046-1.292,2.261.663,4.422-3.531,5.96-.722l-.914.958c.913.582,1.392.555,1.273.29-.281.106-.389-.16-.5-.424,2.608-1.6,4.274,1.926,6.944,1.226-.223-.53-.616-.689-.652-1.141,1.219-.614,1.325,2.731,3.284,1.532l-.419-.61c.653-.4,1.184.483,1.1.667-.043-2.444,4.246-.036,5.528-3.272,1.033,1.3,3.883,2.247,4.717,1.478,1.185-1.509-1.147-1.572-.735-2.953.968-.046,1.52,1.279,2.946.761.066,1.35-2.754,2.854-.022,3.535l.355-.741c-.278.1-.653.39-1.052.229-.809-.773.44-.931.608-1.3l2.92.33c.256,1.44-1.491,1.15-1.659,1.52,2.287-.368,5-2.567,7.162-1.663l-.217-.536c2.759,1.153,1.527-2.69,3.756-.429,1.138-.407-.451-1.53,1.28-1.679.49-.017.215.535.132.721,2.14.472.908-1.39,2.9-.1l-.456-1.523c2.369,1.009,4.867,3.643,6.877,2.945-.14-1.177-1.389-1.043-1.9-1.93,2.775,2.067,6.58.157,9.126,1.288-.746,1.012,1.218,2.327-.393,3.176-.433-1.527-1.182-.515-2.05-.678,1.432,3.32,5.841-1.667,6.291,1.218l.363-1.184c.389.172,1.376,1.057.7,1.433l2.781-.783c-.978-.885-3.054-2.922-3.7-1.641-.8-1.25,1.139-.841.428-2.274,1.879,1.951,1.146-.841,3.086-.429-.871,1.709,1.93,2.315,1.842,3.146.632-.315,2.037.484,2.578,1.064,1.114.165,3.682-1.2,5.471-.6-.674-.538-1.744-1.25-1.659-2.336.877.623,1.843.611,2.019-.655-3.115-2.325-1.025,2.905-3.846,1.4a3.8,3.8,0,0,0-2.928-2.231c.666-.824.374-1.183.649-2.182,1.782,3.057,4.654.314,6.985,1.83.977.9.22,2.794,2.441,3.155l-1.919.912c2.108-.833.485.894,2.213,1.257l-.678-1a1.714,1.714,0,0,1,2.028.732l-.879-1.542c.575-.18,1.636-.357,1.638.546a2.481,2.481,0,0,0,.211-.926c.108.256.376.423,1.047.385-.39-.182-.675-.09-.677-.543,2.55.4.623-1.643,2.206-1.47-.246-.357.212-.79.785-.968-.079,2.405,3.052,2.772,3.851,4.118l-.009-.035,2.11,1.006c-.427-.209.055-.851.681-1.087l-.1.009c.688-.353-.743-2.636,1.277-1.88l1.051.741c-.189-.091.005-.453.11-.633l1.084.686c1.753-2.194,3.142,1.363,5.157.321-.578.172-1.443-.024-1.046-.742.394-.263.966.018,1.252.382l-.091-.271c1.242.537,2.484,1.053,3.721,1.613-.274-.831-2.386-.964-1.407-1.847.6-1.082,1.642.136,2.316.247-.113.629-1.383,1.135-.135,1.533.166-.3,1.394-.907.846-1.388,1.267.706,3.128,1.183,4.231,2.36.379-.261-.185-.55-.374-.645l-.1.177c-.762-.386-.046-1.633-1.6-1.043-.037-2.089,2.233-.477,3.587-.708l-2.076-1.512c1.871-1.345,4-1.189,6.095-.673,2.1.548,4.164,1.459,5.949,1.586-1.087.585-1.927-.084-1.9,1.546,2.169.916,1.9.541,4.087,1l-.184-.1c1.2-.763,2.65.935,3.5-.476-.434-.924-1.677.742-1.585-1.069l2.781.315c-.8-1.137-2.783-.313-3.829-.635-.775.054,1.528.343,1.085,1.5-2.6-.214-3.117-1.414-4.3-3.191-.709-1.3,1.219-1.211,1.706-1.191a6.208,6.208,0,0,0,6.557,2.322l1.518-1.264c1.192,1.343.466,3.749,2.794,3.617l-.614-1.036a1.868,1.868,0,0,1,1.122-.424c-.936-.818-1.945-1.74-2.789-2.582,1.475-1.991,3.712,1.324,5.607,1.891-.079-.274-.748-.407-.907-.96a7.807,7.807,0,0,1,4.246,1.183,18.4,18.4,0,0,0,3.684,1.824c1.022-.826-1.792-.777-1.214-2.092,1.124.632,2.555-.434,2.753.852-.347-1.841,2.7.121.618-1.767a17.571,17.571,0,0,1,6.533.879c2.176.685,4.329,1.6,6.4,2.344a1.658,1.658,0,0,1,.122-1.353c-1.444-.137-3.506-.884-4.179-2.22,1.048-.812,2.116,1.474,2.446.963-.436-.5-1.4-.59-1.322-1.491,1.348-.873,1.888.634,2.74.9l-.523.4c2.579,1.52,1.147,3.293,4.075,3.117,1.168-.976.095-.9.233-2.249.615.609,2.98-.633,3.511.9q-.876-.06-1.754-.095a18.361,18.361,0,0,1,3.109,1.241c-.052-.3-.086-.608-.33-.757.913.559,2.167.609,2.548,1.568l.454-1.409c-.658.563-2.393.458-2.586-.384.321-1.241,1.971-.232,2.747-.234-3.32-.823-3.089-3.107-6.068-2.491l.431.5c-1.91.894-3.536-1.112-5.107-1.241a.788.788,0,0,0,.441-1.029c-3.585.75-6.894-.512-10.916-.169l-1.053-1.537-.177,1.079c-1.977.3-.275-1.567-1.532-1.577.475.04.373.211.444.492-2.133-1.442-1.34.892-2.568.432.494,1.218,2.388.643,1.685,2.13-2.122-1.435-5.658-1.091-5.767-3.718-4.253.738-9.288-1.317-12.789-1.783-.509.43.275.378.066.732-1.288-1.6-4.722.776-4.658-.579-.695.332-1.035,1.31-1.238,1.663a7.071,7.071,0,0,0-3.017-1.34l.806.423-.1.179-1.144-.6.049-.081c-2.795-.581-6.064-.357-8.556-1.938,1.433.951-.445,1.617.227,2.182-1.2-2.209-4.321-2.407-6.858-2.288-.005.454-.215.809.069,1.178l-1.433-.931.174.547c-2.633.319-5.419-2.169-7.185-1.2,1.066.288,1.058.741,1.145,1.467a21.742,21.742,0,0,1-5.829-.9.7.7,0,0,1,.187.452c-.579.179-1.258-.367-1.842-.638l-.1,1.083c-1.113-.52-2.572.013-3.892-.876-.542,1.184-3.218-1.158-4.769-.681-.587-.274,1.27,1.267-.382,1.175-.21-2.364-2.146-.076-2.252-2.611l-1.455.92-.311-1.266c-1.245,2.367-1.869-1.067-3.706-.324.1.273.292.362.2.543-.591-.266-1.956-.432-.9-1.077-.977.009-4.3-.591-2.81.753-.108-.725,1.258-.1,1.848.16-.079,1.087-1.545.652-1.908,1.832a3.408,3.408,0,0,0-.381-.486l-.208.671c-1.833-1.214-3.69-.314-5.031-1.856-.076.337-.395.6-1.025.528l-.036-1.359-1.95.044.928,1.969c-2.132.411-3.657-1.821-5.42-2.141-.423,2.262-3.441-.814-4.931,1.23l1.38.589c-2.935-.358-3.376,1.018-6.121.291,2.3-.8,2.322-.346,5.67-2.266-3.374,1.014-5.887-1.169-8.967.2.22.535,1.006.87.259,1.439-.633-1.162-2.922.1-2.5-1.269-.952.491-1.088,1.768-1.672,1.972l-3.275-1.582.106.267c-2.7,1.658-5.278,1.193-7.869.52s-5.193-1.548-7.923-.775l.134.721-1.421-1.016c1.109.668-.433.926-.493,1.564l-3.592-1.443C461.574,4076.143,461.841,4077.575,462.694,4077.258Zm46.518-.529.837.092a.489.489,0,0,1,.532.056l-.532-.056C509.62,4077,509.308,4077.577,509.212,4076.729Zm77.02,5.284c.35.659-.594.146-.881.217l1.344.267C586.913,4082.149,586.422,4082.119,586.232,4082.013Zm-76.916,3.493-.458.915-.6-.709Zm-11.785.213,1.183.5-.1.185-1.17-.5Zm-13.288-7.041a1.315,1.315,0,0,1,.233.174.778.778,0,0,1-.233-.174c-.93-.629-1.248,1.01-2.033-.549C483.083,4076.751,483.707,4078.136,484.243,4078.678Zm20.825-.411c.4.175.594.259.882.162-.211-.539-1.013-1.334-.433-1.529.411.625,1.769.774,1.8,1.679C506.124,4077.611,505.314,4080.163,505.068,4078.267Zm27.927.686-.3.09,1.076.725Zm5.051,1.008c.576,1.17,2.129,1.015,3.192,1.306.3-.992-.755-2.184-2.02-2.115C537.76,4078.238,538.624,4080.688,538.046,4079.961Zm-42.052.194.313.8-.28.1,1.177.5c-1.515,1.139-2.648-.909-3.441-1.246C494.452,4080.388,496.359,4082.318,495.994,4080.155Zm52.833.692c1.055.745,2.966,1.673,2.756,2.493a2.25,2.25,0,0,0-1.9-2.3C549.4,4081.125,549.2,4081.034,548.827,4080.847Zm-.158,2.9c-1.537-.75-1.62-1.473-2.769-2.944,1.571-.606,1.928,1.389,1.717,2.2,1.052.744.877-.259,1.46-.428Zm-1.48-4.371-.645.191c-.776.616-.985,2.357-1.99.58l1.99-.58A.791.791,0,0,1,547.189,4079.372Zm13.179.611-.619-.557c.633.081.7.316.619.557l.514.473C559.459,4080.95,560.2,4080.449,560.368,4079.983Zm-10.067-.018-1.847-.212C548.536,4080.481,549.7,4080.138,550.3,4079.965Zm9.588,1.368a17.832,17.832,0,0,1-2.538.1C557.572,4080.626,559.417,4080.864,559.889,4081.333Zm40.529,5.121-1.151-.185.669-1.035Zm-13.665-.419.332-.522.668.132Zm-12.545-.852a1.3,1.3,0,0,0-.025-.788.81.81,0,0,1-.407-.488c.172.006.323.22.407.488a1.572,1.572,0,0,0,1.61-.125c-.166-.549-.949-.494-1.225-.871,1.24-1.224,3.552,2.827,3.074-.922.458.48,2.052,1.579,1.43,2.175a8.337,8.337,0,0,0-4.864.531.471.471,0,0,1-.419.355A1.131,1.131,0,0,1,574.208,4085.183Zm-16.955-.129c-.471-.114-.672-.234-.76-.359a1.14,1.14,0,0,1-.546-1.221c.973.491.32.882.546,1.221A1.931,1.931,0,0,0,557.253,4085.054Zm-3,.089,1.521.769-.747-.837,2.271,1.61A2.278,2.278,0,0,1,554.254,4085.143Zm-.575.686-.284-.9.452.924-.168-.028.065.2-2.592-.623Zm-26.691-2.455c-1.012,3.035,2.289,2.2,2.779,3.684.122-1.019,1.137-2.59-1.42-2.6,2.224-.99,1.356,2,2.708-.535a4.444,4.444,0,0,1-2.514-.731l1.25-.087C529.108,4081.208,527.856,4084.008,526.988,4083.374Zm-13.451.41-1.642-.057,1.554.239Zm-40.5,1.648c.14.715-1.924,2.093-2.474.759C471.622,4085.954,472.787,4085.986,473.04,4085.432Zm-17.4.488,1.868.525c-.284,1.648-1.648,0-2.5.327C454.67,4085.976,455.374,4086.48,455.637,4085.92Zm-11.987.556-.6-.234.7,1.587Zm.914,2.116c-.333.747.941,1.028,1.233.919Zm-10.709,1.978.761-.144-.771-1.4Zm1.131-1.754c.236,1.024.234,2.416,1.963,1.631.016-1.091-.465-1.057.124-2.367-.6-.235-1.048.252-1.334.361.4.153.849-.33,1,.386a1.412,1.412,0,0,1-1.749-.011,1.267,1.267,0,0,0-.438-.835A1.206,1.206,0,0,0,434.986,4088.816Zm6.344-1.469a1.247,1.247,0,0,0,.505-.482l.12.267c-.216.481-.429.383-.625.215a6.983,6.983,0,0,1-.841.428c-.148.925,1.093,1.49,1.438,1.985-.589-.233-1.133-1.1-1.867-.512.114.264.028.454.508.417l-1.043.253c-1.272-1.215-.141-1.667.964-2.143a1.244,1.244,0,0,1,.3-.662C440.964,4086.972,441.142,4087.189,441.33,4087.347Zm-8.585-1.6.592.231c.316.341.147.715.265.979C432.921,4086.915,432,4086.344,432.745,4085.748Zm34.7-1.936c-.374.292.554,1.333,1.406,1.018l-.408,1.379c-.055-.9-1.784-.724-1.982-.806C466.1,4084.154,466.8,4084.663,467.441,4083.812Zm40.368-.988c.328,1.715,2.53.666,3.022,1.112C509.684,4084.321,507.075,4084.742,507.809,4082.824Zm3.832-.727c.606.018.778-.146.718.717.295.357.772-.106,1.069.248-1.175.768-1.106-.607-1.787-.965a2.749,2.749,0,0,1-.562-.069A.774.774,0,0,1,511.641,4082.1Zm-23.62.227-.835-1.234-1.254.145Zm-13.577-1.859c.127.719-1.315.793-1.628.445.125.947,1.088.789,1.861.862a.788.788,0,0,0,.511.106,1.77,1.77,0,0,0-.511-.106c-.3-.212-.111-.706-.123-1.039l.374-.292-1.074-.219Zm-23.806-.06c-.828.777-.943.511-1.536.276C449.271,4080.3,450.04,4080.169,450.638,4080.405Zm30.95-.978c-1.441.514.74,1.417-.2,1.911l.759-.121c-1.207,1.046-.913-1.052-1.775-.741l.576-.205c.434-.925-.909-.6-1.04-1.316C480.576,4078.562,482.162,4079.22,481.588,4079.427Zm-32.344.428c-1.394,1-1.231-.919-2.11-1.042C448.24,4077.923,448.155,4079.655,449.244,4079.855Zm23.081-2.908.086-.182-1.19-.486-.086.186Z" transform="translate(-422.822 -4074.637)" fill="#99ac81"/>
  <path id="Path_11765" data-name="Path 11765" d="M447.917,4089.465a1.111,1.111,0,0,1-.778.063A2.266,2.266,0,0,1,447.917,4089.465Z" transform="translate(-422.822 -4074.637)" fill="#99ac81"/>
  <path id="Path_11766" data-name="Path 11766" d="M515.172,4088.559a.543.543,0,0,1,.324-.455A.685.685,0,0,1,515.172,4088.559Z" transform="translate(-422.822 -4074.637)" fill="#99ac81"/>
  <path id="Path_11767" data-name="Path 11767" d="M517.968,4089.163c.036.007.074,0,.106,0a1,1,0,0,0,.088.085Z" transform="translate(-422.822 -4074.637)" fill="#99ac81"/>
  <path id="Path_11768" data-name="Path 11768" d="M615.358,4091.742c.453,1.235-.6.116-1.076.058C614.761,4091.858,615.045,4091.068,615.358,4091.742Z" transform="translate(-422.822 -4074.637)" fill="#99ac81"/>
  <path id="Path_11769" data-name="Path 11769" d="M611.817,4089.361a2.033,2.033,0,0,0,1.107.806C612.609,4090.167,612.283,4090.008,611.817,4089.361Z" transform="translate(-422.822 -4074.637)" fill="#99ac81"/>
  <path id="Path_11770" data-name="Path 11770" d="M614.839,4090.227a3.862,3.862,0,0,1-1.915-.06C613.415,4090.165,613.877,4089.784,614.839,4090.227Z" transform="translate(-422.822 -4074.637)" fill="#99ac81"/>
  <path id="Path_11771" data-name="Path 11771" d="M601.6,4088.558c.521.776,1.7.527,1.7.527-2.557.392.36,1.4.508,1.959C602.288,4090.624,602.372,4089.725,601.6,4088.558Z" transform="translate(-422.822 -4074.637)" fill="#99ac81"/>
  <path id="Path_11772" data-name="Path 11772" d="M598.332,4087.871a1.527,1.527,0,0,0,.705-.074A.777.777,0,0,1,598.332,4087.871Z" transform="translate(-422.822 -4074.637)" fill="#99ac81"/>
  <path id="Path_11773" data-name="Path 11773" d="M597.336,4088.479c-.847-.248-1.074-1.084-1.41-1.743,1.1-.484,1.647.864,2.406,1.135C597.718,4087.831,597.127,4087.688,597.336,4088.479Z" transform="translate(-422.822 -4074.637)" fill="#99ac81"/>
  <path id="Path_11774" data-name="Path 11774" d="M570.473,4090.277c.192.1.668.123.653.574l-1.442-.066C569.122,4090.486,570.178,4090.355,570.473,4090.277Z" transform="translate(-422.822 -4074.637)" fill="#99ac81"/>
  <path id="Path_11775" data-name="Path 11775" d="M565.278,4087.772c-1.151-.143-.613,1.06-1.183.759l.148-1.532Z" transform="translate(-422.822 -4074.637)" fill="#99ac81"/>
  <path id="Path_11776" data-name="Path 11776" d="M566.354,4080.027l.335.175-.39-.079Z" transform="translate(-422.822 -4074.637)" fill="#99ac81"/>
  <path id="Path_11777" data-name="Path 11777" d="M559.641,4089.02l.714,1.745C559.41,4090.284,559.461,4088.923,559.641,4089.02Z" transform="translate(-422.822 -4074.637)" fill="#99ac81"/>
  <path id="Path_11778" data-name="Path 11778" d="M555.192,4089.973l.653.56-2.094-.607Z" transform="translate(-422.822 -4074.637)" fill="#99ac81"/>
  <path id="Path_11779" data-name="Path 11779" d="M549.925,4088.923l-.2.357-1.438-.477Z" transform="translate(-422.822 -4074.637)" fill="#99ac81"/>
  <path id="Path_11780" data-name="Path 11780" d="M492.083,4087.167c-.251-1.442,2.086-.884,2.755-1.271C494.41,4087.724,492.972,4085.326,492.083,4087.167Z" transform="translate(-422.822 -4074.637)" fill="#99ac81"/>
  <path id="Path_11781" data-name="Path 11781" d="M449.9,4088.7l2.235.233C450.446,4089.579,451.659,4088.961,449.9,4088.7Z" transform="translate(-422.822 -4074.637)" fill="#99ac81"/>
</svg>
