<svg xmlns="http://www.w3.org/2000/svg" width="162.865" height="76.186" viewBox="0 0 162.865 76.186">
  <g id="Group_26159" data-name="Group 26159" transform="matrix(0.995, 0.105, -0.105, 0.995, 6.278, 0)">
    <path id="Path_14998" data-name="Path 14998" d="M.738,1.042A6.589,6.589,0,0,0,2.047,2.553a1.525,1.525,0,0,0,.224.117L.648.485C.475.331.311.168.157,0Q.075.023,0,.052C.261.376.511.707.738,1.042Z" transform="translate(2.075 1.317)" fill="#36474f"/>
    <path id="Path_14999" data-name="Path 14999" d="M156.646,32.67a7.82,7.82,0,0,0-2.623-3.281c-.587-.371-1.1-.857-1.7-1.206a27.514,27.514,0,0,0-5.559-2.173c-1.108-.356-2.259-.586-3.4-.831-1.823-.392-3.653-.753-5.482-1.117-.24-.048-.493-.027-.737-.057-.583-.072-1.165-.155-1.748-.234a.657.657,0,0,1,.322-.154c.716-.162,1.447-.279,2.146-.494,1-.307,1.978-.678,2.959-1.038a12.219,12.219,0,0,0,1.727-.7,22.707,22.707,0,0,0,2.9-1.534,2.319,2.319,0,0,0,1.155-1.638,1.316,1.316,0,0,1,.1-.361,1.03,1.03,0,0,0-.309-1.237,2.229,2.229,0,0,0-.918-.468c-.468-.036-.978-.259-1.416.291a7.514,7.514,0,0,1-1.5,1.285c-.52.38-1.084.7-1.638,1.033a10.134,10.134,0,0,1-1.037.559q-1.883.85-3.78,1.672a17.111,17.111,0,0,1-2.16.887c-1.5.419-3.017.751-4.531,1.106a3.49,3.49,0,0,1-.651.031l-.037-.126c.195-.1.389-.211.584-.314.593-.312,1.2-.6,1.777-.939.9-.527,1.779-1.077,2.653-1.638.637-.409,1.3-.769,1.939-1.18.205-.133.376-.32.569-.473.111-.088.236-.158.353-.238.6-.411,1.22-.8,1.793-1.243.474-.369.892-.81,1.335-1.219a8.664,8.664,0,0,0,1.436-1.444c.66-.968.923-2.1,1.487-3.1a.643.643,0,0,0,.05-.245c.04-.386.076-.772.113-1.158a3.472,3.472,0,0,0-.229-2.225,1.855,1.855,0,0,1-.562-.021.9.9,0,0,0-.968.258,4.63,4.63,0,0,0-.487.458,6.58,6.58,0,0,1-1.092,1.26c-.8.535-1.085,1.493-1.868,2.047a7.441,7.441,0,0,0-1.107,1.366,18.125,18.125,0,0,1-3.163,2.983,22.606,22.606,0,0,1-2.718,2.066c-1.094.565-2.089,1.3-3.21,1.828-1.006.47-2,.971-3,1.446-.456.216-.924.407-1.389.6-.623.26-1.245.537-1.872.772-1.13.423-2.31.714-3.474,1.042-.23.065-.489.024-.723.08-.718.17-1.423.4-2.146.535a14.288,14.288,0,0,1-1.893.175c-.348.017-.7-.061-1.051-.064-.55-.005-1.1.019-1.65.022-.038,0-.077-.072-.126-.122.959-.5,1.893-1,2.829-1.487,1.123-.589,2.257-1.159,3.368-1.769.575-.316,1.122-.687,1.666-1.057.479-.326.914-.722,1.411-1.014a7.419,7.419,0,0,0,.789-.643c.475-.37.722-.923,1.155-1.319.068-.767.643-1.442.423-2.331a1.657,1.657,0,0,0-.528.083c-.536.292-1.056.612-1.579.929-.911.551-1.818,1.109-2.729,1.66a5.507,5.507,0,0,1-1.215.682,2.736,2.736,0,0,0-1.105.632.59.59,0,0,1-.153.084l-2.846,1.3c-.286.131-.571.263-.834.384a20.947,20.947,0,0,0,1.266-1.985,2.162,2.162,0,0,0-.049-2.189.7.7,0,0,0-.445-.262c-.161-.026-.307.045-.393.269a1.971,1.971,0,0,1-.528.8c-.722.6-1.487,1.144-2.236,1.711-.239.181-.472.371-.718.541-.552.382-1.1.771-1.669,1.127-.5.315-1.031.6-1.555.881-.938.509-1.874,1.025-2.826,1.509-.751.382-1.523.723-2.289,1.075a.712.712,0,0,1-.242.02c.179-.246.325-.463.489-.666a6.145,6.145,0,0,1,.539-.611c.621-.591,1.15-1.267,1.784-1.852a16.668,16.668,0,0,0,1.478-1.764c.866-1.057,1.754-2.1,2.586-3.178.548-.712,1.031-1.477,1.511-2.239a2.462,2.462,0,0,0,.383-1.22,12.453,12.453,0,0,1,.322-1.321,3.156,3.156,0,0,0,.046-2.01,1.23,1.23,0,0,1-.034-.43,1.143,1.143,0,0,0-1.557.7,3.654,3.654,0,0,1-.376.7c-.748.873-1.541,1.712-2.226,2.634s-1.568,1.629-2.27,2.522c-.387.491-.912.871-1.338,1.335-.549.6-1.049,1.241-1.6,1.84-.429.469-.934.872-1.34,1.358a8.346,8.346,0,0,1-1.68,1.627,3.822,3.822,0,0,0-1.008.911,11.272,11.272,0,0,1-2.582,2.272c-.973.76-2.1,1.318-3.131,2.009a17.1,17.1,0,0,1-4.218,1.641,10.1,10.1,0,0,1,1.2-.925,11.852,11.852,0,0,0,1.621-1.113,11.332,11.332,0,0,1,1.7-1.3c.114-.075.225-.155.334-.237a2.149,2.149,0,0,0,.586-1.055c.246-.62.534-1.223.838-1.91a2.1,2.1,0,0,0-.538-.173c-.283-.007-.568.074-.851.067a2.281,2.281,0,0,0-1.5.338c-.37.268-.813.433-1.206.672-.208.127-.364.339-.571.47-.78.5-1.572.974-2.358,1.461a3.363,3.363,0,0,0-.655.43,8.335,8.335,0,0,1-2.31,1.411c-.294.151-.572.314-.853.486a7.228,7.228,0,0,1-3.4,1.248,10.384,10.384,0,0,0-1.208.192c-.849.144-1.692.333-2.547.424-.955.1-1.919.133-2.88.161-.631.018-1.264-.025-1.9-.04q0-.071-.008-.143c.229-.035.458-.082.689-.1.15-.011.309.052.454.027,1.047-.179,2.085-.436,3.139-.54a16.1,16.1,0,0,0,2.883-.769c.917-.265,1.794-.671,2.683-1.028a6.1,6.1,0,0,1,.755-.369,6.833,6.833,0,0,0,1.642-.926c.7-.385,1.318-.912,1.989-1.35a1.814,1.814,0,0,0,.747-.764c.107-.243.229-.479.339-.721a1.917,1.917,0,0,0,.154-1.39c-.088-.292-.144-.593-.216-.894-.436-.122-.431-.116-.785.168a2.094,2.094,0,0,1-.381.2c-.534.268-1.068.533-1.6.8-.424.215-.838.452-1.271.648-.617.28-1.263.5-1.867.8a34.126,34.126,0,0,1-3.951,1.878c-1.1.386-2.174.849-3.272,1.243-.188.068-.427.253-.72.029.166-.117.3-.211.429-.3.606-.412,1.23-.8,1.815-1.24.725-.546,1.408-1.145,2.125-1.7.614-.477,1.257-.918,1.876-1.389.385-.293.741-.623,1.125-.918.692-.532,1.393-1.053,2.092-1.574.844-.629,1.686-1.26,2.538-1.879.214-.155.464-.261.692-.4q1.706-1.015,3.41-2.034c.018-.011.039-.016.057-.026.87-.475,1.742-.948,2.61-1.427.2-.111.384-.254.585-.367,1.31-.734,2.622-1.463,3.932-2.2a2.52,2.52,0,0,0,.288-.235c-.184-.16-.318-.377-.483-.4a15.1,15.1,0,0,0-1.781-.173c-.343-.015-.688.073-1.033.082a6.787,6.787,0,0,0-1.469.02c-.432.112-.882.155-1.315.275-.566.157-1.137.312-1.692.507a13.814,13.814,0,0,0-2,.8,2.8,2.8,0,0,1-1.1.452.279.279,0,0,0-.117.03c-1.069.626-2.163,1.215-3.2,1.893-.953.624-1.849,1.338-2.759,2.028-.256.194-.463.452-.709.661-.386.328-.784.641-1.18.958-.416.333-.834.664-1.251,1a11.377,11.377,0,0,0,.888-3.962,8.019,8.019,0,0,0-.762-3.957,2.416,2.416,0,0,0-.392-.56c-.477-.567-1.221-.654-1.834-.974-.388-.2-.687.148-.564.61s.32.918.427,1.389a10.3,10.3,0,0,1-.371,5.242c-.1.356-.22.709-.346,1.058a12.7,12.7,0,0,1-.577,1.491,11.211,11.211,0,0,1-.942,1.491,15.1,15.1,0,0,1-1.209,1.463c-.3.313-.684.537-1,.83-.507.465-.961.991-1.493,1.423-.578.47-1.213.871-1.835,1.285s-1.212.818-1.85,1.17c-.677.374-1.427.624-2.083,1.029a4.138,4.138,0,0,1-2.772.572c-.9-.1-1.807-.085-2.708-.159-.867-.071-1.734-.164-2.592-.3-.6-.1-1.184-.286-1.777-.425-.819-.191-1.641-.373-2.461-.559l-.06-.124a4.1,4.1,0,0,0,1.912-2.038c.311.334.422.37.717.288.257-.071.517-.129.775-.2.633-.164,1.27-.311,1.9-.5.843-.255,1.668-.57,2.515-.812a17.422,17.422,0,0,0,3.47-1.309,29.668,29.668,0,0,0,3.646-2.242A3.1,3.1,0,0,0,63.22,16.5a9.365,9.365,0,0,0-1.4.366c-1.413.614-2.8,1.281-4.211,1.909-.38.17-.791.271-1.188.4a.492.492,0,0,1,.245-.3A6,6,0,0,0,58.9,16.665c.31-.481.567-1,.837-1.5a1.13,1.13,0,0,0-.471-1.448c-.27-.127-.539-.348-.855-.122a2.853,2.853,0,0,0-.466.4,8.428,8.428,0,0,1-3.234,2.1c-1.122.451-2.3.795-3.371,1.333-.956.479-1.97.765-2.951,1.174a.705.705,0,0,1,.225-.292c1.142-.857,2.292-1.7,3.429-2.569A7.894,7.894,0,0,0,52.86,15a12.506,12.506,0,0,1,1.42-1.443,14.007,14.007,0,0,0,1.78-1.847C56.74,11.006,57.275,10.15,58,9.5a31.189,31.189,0,0,0,2.1-2.735,3.62,3.62,0,0,0,.768-1.181c.424-1.242,1.475-2.008,2.18-3.032.037-.053.11-.081.212-.152l-.5-.521a10.374,10.374,0,0,0-3.185,1.4,25.7,25.7,0,0,0-2.627,2.3,17.417,17.417,0,0,0-2.088,2.153c-.393.44-.683.971-1.075,1.412-.815.916-1.659,1.806-2.506,2.693-.687.72-1.384,1.43-2.1,2.124-.413.4-.914.721-1.294,1.151a11.223,11.223,0,0,1-2.866,2.1,35.8,35.8,0,0,1-4.551,2.226,28.108,28.108,0,0,1-3.5,1,6.03,6.03,0,0,1-1.14.183c-.694.046-1.391.063-2.086.072a6.515,6.515,0,0,1-1.527-.046c-1.068-.247-2.118-.572-3.165-.9a10.489,10.489,0,0,1-1.142-.5,1.407,1.407,0,0,1,.455-.022q1.839-.077,3.678-.169a5.922,5.922,0,0,0,.916-.078c.475-.1.935-.27,1.411-.365a10.464,10.464,0,0,0,3.473-.933c.036-.021.078-.032.115-.052.508-.269,1.021-.527,1.519-.813.18-.1.309-.292.481-.412.266-.184.519-.389.519-.727a3.286,3.286,0,0,0-.182-.745,1.625,1.625,0,0,1-1.29.206,1.547,1.547,0,0,0-.658.094c-.339.073-.673.171-1.013.241q-.753.155-1.511.285a12.257,12.257,0,0,0-1.456.233,26.857,26.857,0,0,1-4.262.514,9.605,9.605,0,0,1-1.287.008c-.6,0-1.191.009-1.786-.01-.638-.02-1.277-.052-1.913-.108-.838-.074-1.673-.173-2.509-.27-.193-.022-.382-.075-.573-.114.793-.064,1.575,0,2.352-.036,1.187-.06,2.372-.171,3.553-.3.835-.092,1.664-.244,2.493-.382a15.17,15.17,0,0,0,2.093-.4c1.152-.366,2.264-.856,3.409-1.244a27.959,27.959,0,0,0,4.793-2.374,13.1,13.1,0,0,0,2.775-1.986,10.194,10.194,0,0,0,2.432-3.418A.578.578,0,0,0,45.675,5l.268-.357c-.163-.033-.356-.1-.374-.071-.229.4-.584.156-.905.178-.244.3-.488.6-.739.9a3.764,3.764,0,0,1-1.858,1.259,21.775,21.775,0,0,0-3.142,1.44,12.868,12.868,0,0,1-1.2.706,12.221,12.221,0,0,0-1.627.734c-.255.128-.489.3-.742.427a4.781,4.781,0,0,1-1.33.63c-.521.081-.977.309-1.472.42a9.975,9.975,0,0,1-2.623.626,3.761,3.761,0,0,0-1.379.266,8.663,8.663,0,0,1-1.731.435c-.2.028-.415-.034-.613,0A12.251,12.251,0,0,1,24,12.627c-.7,0-1.382.133-2.076.169a9.471,9.471,0,0,1-1.664-.219c-1.485-.176-2.969-.352-4.447-.582,0,.081.079.136.15.175,3.409,1.882,7.734,1.27,11.449,1.015.794-.055,1.591-.1,2.378-.215,1.023-.147,2.047-.315,3.052-.554a14.337,14.337,0,0,0,1.726-.658,4.912,4.912,0,0,1,.516-.144c.058-.015.151,0,.174-.032.372-.555,1.051-.574,1.558-.892a13.335,13.335,0,0,1,1.331-.65c.764-.368,1.525-.74,2.292-1.1.278-.131.583-.21.849-.36.9-.5,1.8-1,2.658-1.563A6.235,6.235,0,0,0,44.918,6c.056-.06.119-.115.236-.228a11.53,11.53,0,0,1-2.7,2.9c-1.057.744-2.131,1.464-3.223,2.211.513.3.912-.1,1.292-.309.642-.348,1.231-.795,1.843-1.2a.5.5,0,0,1,.344-.1,1.28,1.28,0,0,1-.258.335c-.982.631-1.957,1.277-2.967,1.861-.668.386-1.389.679-2.087,1.014l-.067-.111,1.6-.953c-.258-.053-.379-.116-.472-.089a2.952,2.952,0,0,0-.8.311A10.938,10.938,0,0,1,34.483,12.9c-.863.245-1.741.437-2.613.651-.854.21-1.707.424-2.564.622a5.539,5.539,0,0,1-.727.086,17.869,17.869,0,0,0-2.247.231,8.018,8.018,0,0,1-1.795.159c-.993,0-1.986-.069-2.979-.109a12.309,12.309,0,0,1-1.372-.065c-1.334-.206-2.659-.469-3.993-.668a9.484,9.484,0,0,0-2.82-.019c-.36.055-.677.391-.94.553a2.973,2.973,0,0,0-.9-.118c-.567.116-.9-.218-1.284-.465l.025-.13,1.139-.038.047-.154c-.311-.3-.618-.6-.934-.887-.238-.22-.492-.422-.729-.644A24.957,24.957,0,0,1,7.647,9.625c-.194-.234-.474-.394-.683-.617-.93-.992-1.842-2-2.778-2.987a1.53,1.53,0,0,0-.745-.4c.058.1.091.247.179.3A6.317,6.317,0,0,1,5.137,7.573c.2.248.489.427.7.669.167.19.111.335-.274.311l1.7,1.1-.057.134c-.272-.056-.551-.092-.815-.174A.9.9,0,0,1,6,9.363c-.688-.794-1.363-1.6-2.043-2.4-.6-.707-1.2-1.411-1.8-2.118C1.734,4.357,1.319,3.872.92,3.373c-.064-.08-.049-.225-.071-.339l.142-.068c.247.309.5.611.738.93.221.3.4.652.928.709C2.243,3.995,1.9,3.469,1.536,2.96c-.445-.622-.485-.85-.052-1.489A3.457,3.457,0,0,1,2.235.749.577.577,0,0,1,2.568.617a3.467,3.467,0,0,1,.35-.238C2.905.361,2.891.343,2.878.325A.8.8,0,0,1,2.55,0h-.03A1.194,1.194,0,0,0,1.467.4,6.664,6.664,0,0,0,.65,1.611C.469,2,.112,2.355.233,2.853c-.484.314-.081.534.023.85.109.335.377.4.548.6.316.375.645.739.971,1.106.066.075.2.146.2.215-.015.495.445.677.653,1.023.09.149.332.213.407.364A14.379,14.379,0,0,0,4.808,9.146c.371.49.8.932,1.216,1.391a10.846,10.846,0,0,0,1.317,1.407,5.1,5.1,0,0,1,.891.837,5.672,5.672,0,0,0,1.453,1.4c.295.182.472.566.773.725A8.668,8.668,0,0,1,12.2,16.436a7.039,7.039,0,0,1,1.313,1.658,23.084,23.084,0,0,0,1.574,2.117,7.843,7.843,0,0,1,1.461,3c.141.659.279,1.321.358,1.989.11.93.171,1.866.241,2.8.046.611.031,1.229.113,1.835.135,1,.351,1.99.484,2.99A15.475,15.475,0,0,0,19.98,38.1,29.087,29.087,0,0,0,22.1,40.759a1.323,1.323,0,0,0,1.334.229c.434-.189.246-.57.259-.869.007-.16-.147-.327-.231-.49a7.853,7.853,0,0,1-.473-.939,10.162,10.162,0,0,0-.847-1.905,5.319,5.319,0,0,1-.529-1.55c-.187-.818-.27-1.66-.472-2.474-.216-.872-.521-1.722-.78-2.584-.015-.049.03-.116.082-.292.244.326.458.569.624.842.624,1.028,1.214,2.075,1.851,3.094.45.72.943,1.415,1.439,2.1.449.625.978,1.2,1.382,1.851a18.536,18.536,0,0,0,1.752,2.3c.6.7,1.288,1.339,1.907,2.032a12.235,12.235,0,0,0,2.146,2.023c.371.255.712.554,1.086.8.355.238.748.419,1.1.659.51.347.986.744,1.5,1.084a17.629,17.629,0,0,0,3,1.523,4.2,4.2,0,0,0,1.809.479.445.445,0,0,0,.471-.49,1.739,1.739,0,0,0-.617-1.277c-.63-.5-1.265-1-1.92-1.468a19.685,19.685,0,0,1-2.5-1.994c-.625-.622-1.242-1.251-1.865-1.875-.731-.732-1.5-1.431-2.186-2.2-1.055-1.174-2.065-2.387-3.079-3.6-.723-.862-1.434-1.734-2.124-2.622-.49-.631-.96-1.281-1.395-1.952-.375-.579-.668-1.211-1.035-1.8a18.866,18.866,0,0,1-1.21-2.375c-.345-.772-.725-1.529-1.081-2.3-.085-.183-.138-.381-.206-.573.548.572,1,1.169,1.5,1.728s1.048,1.1,1.587,1.641c.5.5,1.019.975,1.527,1.464a2.251,2.251,0,0,1,.535.554c.214.456.688.632.973,1.016a5.9,5.9,0,0,0,1.014.866c.375.314.737.643,1.118.949q.81.652,1.641,1.278a13.613,13.613,0,0,0,1.493,1.058c.839.468,1.712.877,2.584,1.282a21.168,21.168,0,0,0,2.207.924,2.532,2.532,0,0,0,1.139.012c.19-.029.351-.247.564-.408a.784.784,0,0,0-.158-.272q-.594-.467-1.213-.9c-.823-.577-1.673-1.118-2.474-1.724-1.194-.9-2.358-1.848-3.529-2.781-.334-.266-.658-.546-.974-.833-.8-.731-1.632-1.436-2.388-2.212-1.044-1.073-2.029-2.2-3.043-3.307-.574-.624-1.158-1.238-1.738-1.857a3.074,3.074,0,0,1,.988.253c.162.062.385.075.477.192.346.44,1.008.513,1.234,1.082.012.029.07.04.107.058a8.692,8.692,0,0,1,2.7,2.61c.32.4.6.838.933,1.233a7.989,7.989,0,0,0,1.135,1.21,2.856,2.856,0,0,0,1.807.907,1.358,1.358,0,0,0,.061-1.918,1.654,1.654,0,0,1-.219-.378c-.2-.651-.387-1.306-.591-2a1.181,1.181,0,0,1,.224.047c1.048.463,2.1.923,3.141,1.4a16.116,16.116,0,0,1,1.587.8,19.237,19.237,0,0,1,1.6,1.1q.981.731,1.928,1.508c.379.313.722.67,1.083,1,.331.307.66.616,1,.915a5.59,5.59,0,0,0,.85.7A10.373,10.373,0,0,1,45.488,34.9c.718.665,1.4,1.369,2.112,2.042.518.49,1.066.948,1.583,1.439.46.438.872.929,1.349,1.346.23.2.32.391.2.64a3.559,3.559,0,0,1-.655,1.234,3.375,3.375,0,0,0-.84,1.768c.435.024.721.169.781.547a5.569,5.569,0,0,0,2.126-.726,1.909,1.909,0,0,0,1.069-1.073c.023-.069.11-.116.2-.2.14.136.272.257.394.386.325.341.619.717.975,1.022.495.425,1.044.787,1.553,1.2,1.074.865,2.136,1.744,3.205,2.614a16.723,16.723,0,0,0,2.24,1.388,13.579,13.579,0,0,0,2.7,1.019c.534.175,1.08.319,1.626.457.38.1.614-.1.74-.466.172-.5-.234-.783-.472-.962-.782-.589-1.658-1.051-2.476-1.594-.87-.578-1.744-1.157-2.565-1.8-.871-.683-1.688-1.437-2.517-2.172-.877-.776-1.75-1.558-2.609-2.354-.6-.56-1.143-1.2-1.787-1.706a2.221,2.221,0,0,1-.7-1.188,20.218,20.218,0,0,0-.767-2.2,7.887,7.887,0,0,0-1.817-2.4,1.532,1.532,0,0,1-.563-1.062,15.363,15.363,0,0,0,1.822,1.232,15.721,15.721,0,0,1,1.817,1.2,12.278,12.278,0,0,0,1.37.9c.212.1.424.151.551.373a.413.413,0,0,0,.193.14c.487.212.714.727,1.169.985.205.116.339.353.521.516.455.408.9.826,1.384,1.2a10.675,10.675,0,0,0,1.768,1.416,3.847,3.847,0,0,1,1.211,1.024,1.514,1.514,0,0,0,.884.691c.765-.423.821-.586.436-1.308a9.438,9.438,0,0,0-1.811-2.56c-.226-.211-.437-.438-.652-.662C60.609,36.6,60,35.929,59.356,35.3c-.438-.429-.927-.806-1.393-1.207a12.474,12.474,0,0,1,2.7,1.035c1.086.646,2.295,1.081,3.418,1.67,1.009.528,1.974,1.139,2.957,1.717.837.493,1.68.978,2.5,1.492.916.572,1.855,1.122,2.71,1.777.938.719,1.944,1.335,2.837,2.134.789.706,1.649,1.34,2.379,2.12.351.375.848.678,1.04,1.119a7.246,7.246,0,0,0,1.2,1.506,2.76,2.76,0,0,0,.582.624,1.577,1.577,0,0,1,.691.831,1.939,1.939,0,0,0,.386.555c.4.487.844.945,1.214,1.455.5.693.947,1.428,1.43,2.136.174.255.4.474.576.727a4.772,4.772,0,0,1,.82,1.311,2.239,2.239,0,0,0,.616.975,7.009,7.009,0,0,1,1.234,2.195c.308.569.318.645.949.561.329-.044.457-.206.362-.484A.988.988,0,0,1,88.7,58.8a2.432,2.432,0,0,0,.283-.932,7.979,7.979,0,0,0-.333-2.113A24.941,24.941,0,0,0,87.2,52.1a25.534,25.534,0,0,0-2.453-3.652c-.266-.337-.525-.68-.757-.981.459-.377.911-.177,1.361-.1a.8.8,0,0,1,.123.026c.291.1.465-.027.588-.324-.4-.509-.813-1.037-1.235-1.555a9.532,9.532,0,0,0-.988-1.14c-.932-.828-1.9-1.608-2.854-2.416-.609-.519-1.18-1.086-1.814-1.572s-1.348-.915-2.025-1.368c-.174-.116-.347-.234-.521-.352a7.123,7.123,0,0,1,1.434.486c.727.325,1.436.693,2.169,1,.565.239,1.155.416,1.734.623a.619.619,0,0,1,.222.1,5.187,5.187,0,0,0,1.343.87c.957.476,1.864,1.052,2.792,1.587.6.347,1.233.655,1.8,1.057a12.037,12.037,0,0,1,1.855,1.288,1.177,1.177,0,0,0,1.106.489,7.367,7.367,0,0,0-.05-.8,2.2,2.2,0,0,0-.551-1.334c-.7-.664-1.391-1.339-2.087-2.009a7.611,7.611,0,0,0-.764-.713,16.274,16.274,0,0,0-1.48-.963c-.824-.47-1.508-1.13-2.338-1.611s-1.668-.951-2.5-1.426a18.856,18.856,0,0,0-2.5-1.306c-.618-.239-1.192-.594-1.864-.937A28.15,28.15,0,0,1,86.691,37.4a3.543,3.543,0,0,0-.408-.977,8.131,8.131,0,0,0-1.76-1.3A22.732,22.732,0,0,0,80.489,33.1a9.1,9.1,0,0,1,2.1-.06c.841.17,1.684,0,2.513.191a7.4,7.4,0,0,0,1.235.1c.764.043,1.531.05,2.292.125a6.82,6.82,0,0,1,1.411.3c.624.2,1.224.478,1.842.7a19.074,19.074,0,0,1,3.205,1.4A16.431,16.431,0,0,1,97.4,37.633a8.645,8.645,0,0,0,1.747,1.539c.051.024.085.09.121.14.483.668.964,1.337,1.451,2,.07.1.175.166.252.258a8.616,8.616,0,0,1,.686.844c.372.577.708,1.178,1.058,1.769a1.384,1.384,0,0,1,.253.461,10.508,10.508,0,0,0,.489,1.371,7.839,7.839,0,0,0,1.018,1.946,6.707,6.707,0,0,0,.7.822c.24-.331.416-.6.623-.848.123-.146.378-.223.428-.379a4.307,4.307,0,0,0,.113-2.679,21.943,21.943,0,0,0-.943-2.432c-.362-.784-.813-1.527-1.226-2.29.412.256.852.509,1.27.792.875.593,1.733,1.212,2.612,1.8.372.249.786.436,1.169.669.588.357,1.147.766,1.754,1.086a14.554,14.554,0,0,0,2.031.9,9.438,9.438,0,0,0,2.3.585,12.837,12.837,0,0,0,3.023.3,8.2,8.2,0,0,1,1.145-.008,3.663,3.663,0,0,1-.315-.564c.432-.36-.006-.5-.181-.619a16.522,16.522,0,0,0-1.621-.956c-.929-.474-1.887-.891-2.812-1.371a8,8,0,0,1-1.268-.843c-.8-.636-1.571-1.311-2.364-1.957q-1.691-1.375-3.4-2.73c-.355-.283-.712-.567-1.086-.824-.575-.393-1.158-.778-1.753-1.14-1-.606-2-1.206-3.014-1.781-.588-.333-1.206-.614-1.81-.919a12.718,12.718,0,0,1,1.572.09,6.553,6.553,0,0,1,2.273.461,1.933,1.933,0,0,0,.552.081,1.7,1.7,0,0,1,.479.043,12.711,12.711,0,0,0,2.3.374c.477.115.956.225,1.434.335a2.962,2.962,0,0,0,.856.176,7.685,7.685,0,0,1,3.064.734,6.1,6.1,0,0,1,1.752.635c.05.035.158-.026.236-.016a3.318,3.318,0,0,1,.859.139,16.557,16.557,0,0,0,2,.861,14.946,14.946,0,0,1,1.9.857,20.579,20.579,0,0,0,4.01,1.019c.115.025.357-.059.37-.126.057-.294.261-.528.087-.915a4.954,4.954,0,0,0-1.186-1.422,9.547,9.547,0,0,0-3.2-2.027c-1.4-.579-2.852-1.034-4.286-1.53-.674-.233-1.356-.446-2.039-.653-1.011-.306-2.02-.628-3.044-.885-.559-.14-1.15-.146-1.722-.238-1.275-.206-2.544-.452-3.822-.637-.837-.121-1.686-.169-2.53-.239-.327-.027-.657-.037-.985-.034-.654.006-1.309.042-1.963.035a10.419,10.419,0,0,1-1.037-.11,2.554,2.554,0,0,1,.764-.2,27.755,27.755,0,0,1,3.025-.495c.632-.036,1.259-.063,1.886-.16a4.051,4.051,0,0,1,.857-.017c.85.051,1.7.186,2.548.162,1.373-.039,2.709.25,4.065.342.577.039,1.153.1,1.729.149a14.516,14.516,0,0,1,1.54.157c.774.156,1.536.37,2.3.57.632.165,1.267.325,1.889.522.944.3,1.872.65,2.821.933a6.754,6.754,0,0,1,2.094.873c.2.142.439.218.651.341a9.546,9.546,0,0,1,1.356.822,10.771,10.771,0,0,0,1.743,1.348.858.858,0,0,1,.206.187c.18.194.339.41.536.584.674.594,1.358,1.178,2.044,1.758.459.389.93.764,1.393,1.149a2.625,2.625,0,0,1,.3.3,17.914,17.914,0,0,0,1.39,1.681c.281.256.617.39.886.638.434.4.44.394.9.039-.085-.395-.2-.782-.248-1.177a5.306,5.306,0,0,0-.885-2.276c-.5-.742-1.05-1.448-1.539-2.2a6.176,6.176,0,0,0-.962-1.261c-.731-.664-1.454-1.337-2.185-2a7.082,7.082,0,0,0-.657-.547c-.567-.4-1.143-.794-1.721-1.183-1.171-.79-2.342-1.582-3.521-2.359a6.209,6.209,0,0,0-.721-.337c-.288-.14-.572-.289-.857-.434l.041-.129c1.149.067,2.3.126,3.447.2.536.036,1.068.118,1.6.165.965.084,1.944.086,2.895.253,1.208.212,2.4.522,3.585.851a11.156,11.156,0,0,1,2.007.771c1.246.626,2.592,1,3.831,1.653.949.5,2,.793,2.988,1.233a8.518,8.518,0,0,0,2.48.645c-.078-.26-.078-.5-.2-.62a17.64,17.64,0,0,0-3.159-2.579c-1.364-.861-2.806-1.6-4.164-2.469a12.825,12.825,0,0,0-3.965-1.5c-.081-.02-.165-.031-.246-.052s-.158-.046-.237-.07l.041-.134c.361.085.727.156,1.083.257,1.053.3,2.161.255,3.216.626a30.414,30.414,0,0,0,3.46.855,10.759,10.759,0,0,0,2.185.586c.09,0,.175.1.27.139.534.21,1.068.423,1.608.616a2.022,2.022,0,0,1,.788.376,1.357,1.357,0,0,0,.822.321,6.872,6.872,0,0,1,1.905.6c.9.289,1.7.9,2.6,1.2.709.238,1.319.634,1.992.917a3.519,3.519,0,0,1,.8.3,3.3,3.3,0,0,0,1.354.57c.478.11.926.34,1.4.478.517.15,1.028.536,1.615.116A6.507,6.507,0,0,1,156.646,32.67ZM6.589,10.043c1.18-.074,1.462.3,1.671.985C7.585,10.9,6.912,10.8,6.589,10.043Zm1.142,1.316c.245,0,.508-.018.77-.005a.685.685,0,0,1,.628.317,4.547,4.547,0,0,0,.492.586A2.01,2.01,0,0,1,7.731,11.359ZM9.18,12.751c.811-.345,1.282.192,1.778.571-.335-.011-.7-.019-1.059-.038C9.512,13.264,9.422,12.9,9.18,12.751ZM55.993,43.589c-.754-.687-1.513-1.369-2.254-2.069-.084-.08-.066-.267-.042-.423a11.178,11.178,0,0,1,2.434,2.387Zm2.353,1.9-1.811-1.413.1-.132,1.819,1.4Zm-4.32-6.452c.42.421.8.794,1.167,1.17s.71.747,1.083,1.1.783.7,1.172,1.048.744.695,1.126,1.031A9.622,9.622,0,0,0,59.8,44.4c.417.259.574.831,1.132.894.181.555.76.619,1.143.924.4.32.812.634,1.232.931s.885.584,1.322.885c.417.287.826.588,1.267.9-.736.292-1.291-.135-1.891-.3a3.992,3.992,0,0,1-.516-.2c-.149-.063-.357-.1-.428-.213-.345-.561-.977-.7-1.465-1.049-.382-.273-.8-.493-1.175-.779-.895-.69-1.742-1.444-2.66-2.1a21.684,21.684,0,0,1-2.663-2.631,7.641,7.641,0,0,0-.978-.827.744.744,0,0,1-.347-.82C53.833,39.718,53.925,39.418,54.026,39.036Zm91.47-21.22c.066-.117-.058-.342-.1-.532l.29-.119a2.057,2.057,0,0,1-1.08,2.238,15.22,15.22,0,0,1-4.026,2c-.795.263-1.546.657-2.339.929a5.961,5.961,0,0,1-2.571.567c.849-.317,1.591-.58,2.322-.871,1.35-.538,2.724-1,4.05-1.616a14.551,14.551,0,0,0,2.672-1.525A3.4,3.4,0,0,0,145.5,17.816Zm-.543-.122a5.051,5.051,0,0,1-1.933,1.73,30.994,30.994,0,0,1-4.67,2.042c-1.078.4-2.146.818-3.215,1.237a10.245,10.245,0,0,1-2.689.49c-.027,0-.059-.05-.112-.1A33.908,33.908,0,0,0,144.953,17.694ZM121.11,23.143c1.134-.48,2.28-.93,3.421-1.394a11.718,11.718,0,0,0,1.245-.524c.342-.188.62-.628.955-.661a2.445,2.445,0,0,0,1.153-.368c.311-.215.815-.182.944-.663.012-.046.155-.1.217-.082.366.107.583-.157.842-.315.728-.444,1.46-.882,2.178-1.343.314-.2.693-.349.808-.773a.3.3,0,0,1,.168-.17,5.22,5.22,0,0,0,1.975-1.494c.356-.372.831-.629,1.2-.994.547-.546,1.042-1.144,1.562-1.717.35-.386.717-.759,1.053-1.158.169-.2.265-.463.434-.663.223-.262.509-.472.729-.736.55-.661,1.077-1.34,1.613-2.012a.375.375,0,0,1,.186-.145,9.676,9.676,0,0,1-2.238,6.965l-.159-.038a1.1,1.1,0,0,1,.077-.351c.248-.4.526-.782.771-1.183a1.339,1.339,0,0,0,.091-.415.5.5,0,0,0-.588.312c-.316.544-.686,1.056-1.047,1.572a2.81,2.81,0,0,1-.417.445q-.36.329-.741.634a1.606,1.606,0,0,1-.5.332,5.251,5.251,0,0,0-1.712,1.02c-.413.319-.867.586-1.3.875q-1.3.859-2.59,1.719a1.068,1.068,0,0,0-.17.184l.088.108a7.661,7.661,0,0,1,1.075-.479,3.268,3.268,0,0,0,1.088-.661c.362-.277.711-.572,1.088-.826,1.065-.718,2.145-1.414,3.211-2.13.285-.191.541-.424.81-.639l.1.122a1.576,1.576,0,0,0-.31.269c-.553.819-1.484,1.171-2.2,1.79a3.943,3.943,0,0,1-1.118.841c-.457.161-.716.548-1.142.73a5.631,5.631,0,0,0-1.183.767,26.416,26.416,0,0,1-3.687,2.082,7.057,7.057,0,0,1-2.868.985c-.062,0-.147-.015-.182.018a6.1,6.1,0,0,1-2.229.953,30.216,30.216,0,0,1-4.313,1.212c-.6.14-1.207.232-1.812.337-.154.027-.313.024-.609.043.216-.164.3-.281.409-.3.619-.121,1.25-.19,1.863-.334.645-.151,1.275-.366,1.911-.553a15.82,15.82,0,0,0,1.651-.5,14.2,14.2,0,0,0,2.29-.827,7.453,7.453,0,0,1,1.431-.507c.367-.134.728-.287,1.085-.446.489-.218.974-.448,1.458-.677.288-.136.366-.264.429-.712A45.738,45.738,0,0,1,118.092,24.9l-.757-.672A16.624,16.624,0,0,0,121.11,23.143Zm-3.536,1.784a1.38,1.38,0,0,1-1.356.055,1.426,1.426,0,0,0-.464-.113c-.146-.026-.294-.038-.442-.056l-.006-.162C116.065,24.5,116.839,24.208,117.575,24.927Zm-1.618.356a3.508,3.508,0,0,1-2.548-.339C114.322,24.613,115.108,25.154,115.957,25.283Zm-15.54-1.562c.463-.207.941-.381,1.411-.573a7.7,7.7,0,0,0,.778-.335q1.9-1.034,3.782-2.088a14.371,14.371,0,0,0,1.285-.753c1.009-.708,2-1.445,3.044-2.205-.008.084.009.164-.022.19a14.178,14.178,0,0,1-2.352,2.135c-.51.27-.917.728-1.413,1.032a24.278,24.278,0,0,1-2.153,1.174q-1.411.681-2.864,1.273c-1.348.549-2.712,1.057-4.071,1.579a.421.421,0,0,1-.368-.04,1.585,1.585,0,0,1,.195-.127C98.585,24.559,99.5,24.132,100.417,23.721Zm7.252-2.354c-.156.239-.222.466-.363.532-.622.294-1.266.543-1.9.8a.192.192,0,0,1-.1-.012c.144-.447.636-.415.941-.643A8.12,8.12,0,0,1,107.669,21.367Zm-2.4,1.344c-.133.364-.527.3-.79.421a2.869,2.869,0,0,1-1.437.489.829.829,0,0,1,.215-.2c.479-.217.961-.431,1.452-.62A2.54,2.54,0,0,1,105.272,22.711Zm-2.3.936a3.752,3.752,0,0,1-.669.408c-.784.3-1.582.559-2.375.83-.049.017-.111,0-.2-.109.272-.1.545-.2.817-.308.651-.248,1.3-.5,1.954-.742A2.187,2.187,0,0,1,102.973,23.648Zm-2.454-2.554c-.6.666-1.141,1.383-1.761,2.028-.531.552-1.138,1.031-1.707,1.548a5.791,5.791,0,0,1-.663.635c-1.379.894-2.7,1.869-4.145,2.67a11.03,11.03,0,0,1-3.095.986,1.873,1.873,0,0,1,.267-.2c.771-.384,1.568-.721,2.312-1.15,1.111-.641,2.226-1.289,3.267-2.035a30.217,30.217,0,0,0,4.289-3.7c.683-.716,1.447-1.354,2.154-2.049.309-.3.527-.7,1.02-.818C101.811,19.7,101.152,20.388,100.519,21.094ZM96.223,27l.9.37-.011.135c-.586.051-1.153.351-1.8.117Zm-1.774.226c.645-.614.789-.662,1.2-.425A1.021,1.021,0,0,1,94.45,27.229Zm-.213.336c-.958.843-.958.843-1.513.856A2.214,2.214,0,0,1,94.237,27.565ZM92.1,28.9c-.455.148-.91.3-1.366.443a.984.984,0,0,0-.658.379.552.552,0,0,1-.84-.093c.511-.157.984-.3,1.452-.449.453-.148.9-.31,1.351-.466Zm14.271-15.956a2.851,2.851,0,0,0,.308-1.7,2.829,2.829,0,0,1,.286-1.18,3.3,3.3,0,0,1,.285-.537l.137-.018a1.6,1.6,0,0,1,.021.41c-.153.731-.336,1.455-.477,2.188a2.059,2.059,0,0,0,.063.6l-1.067,1.58-.089-.048C106.009,13.807,106.177,13.372,106.366,12.946Zm-2.56,4.436-.105-.063c.01-.08-.007-.181.035-.236.657-.866,1.322-1.727,2.024-2.56A17.529,17.529,0,0,1,103.807,17.383Zm2.5-6.641a3.116,3.116,0,0,1-.884,1.578,10.393,10.393,0,0,0-1.651,1.7c-.034.041-.1.051-.24,0Zm-19.043,17.1a1.437,1.437,0,0,1,1.026-.323c.11.02.254-.11.375-.183a19.932,19.932,0,0,1,2.194-1.307c.427-.189.656-.562,1.053-.76a7.288,7.288,0,0,0,1.109-.8c.331-.252.635-.544.983-.769a12.879,12.879,0,0,0,2.14-2.032c.257-.265.594-.452.854-.713.522-.523,1.009-1.081,1.523-1.612.539-.557,1.114-1.08,1.633-1.654.437-.484.8-1.035,1.228-1.528a7.417,7.417,0,0,1,1.144-1.057c-.95,1.446-2.171,2.69-3.1,4.218.583-.034.734-.487,1-.771.472-.508.879-1.077,1.312-1.621.1-.128.269-.254.281-.391.023-.271.23-.349.375-.5.33-.353.623-.739.954-1.091.477-.507.974-1,1.463-1.493.186-.19.371-.38.56-.568a3.885,3.885,0,0,1,.653-.554,8.711,8.711,0,0,1-.9,2.02c-.744.9-1.394,1.88-2.08,2.828-.07.1-.107.218-.177.315-.163.228-.33.454-.51.668-.1.124-.262.207-.353.338-.574.818-1.464,1.325-2.068,2.11-.766,1-1.881,1.64-2.638,2.657a6,6,0,0,1-1.183.922c-.578.455-1.116.967-1.728,1.369-.822.54-1.688,1.017-2.555,1.486-.906.49-1.833.943-2.755,1.4a8.034,8.034,0,0,1-.961.413,1.414,1.414,0,0,1-.464,0l-.033-.159c1.072-.577,2.173-1.105,3.206-1.743A33.287,33.287,0,0,0,93.908,24.8a21.558,21.558,0,0,0,2.7-2.42c.808-.894,1.854-1.546,2.579-2.514l-.092-.142a2.618,2.618,0,0,0-.59.314c-.972.9-1.888,1.85-2.8,2.805a13.909,13.909,0,0,1-2.392,1.964c-.82.541-1.556,1.209-2.374,1.752a14.839,14.839,0,0,1-2.3,1.292,24.068,24.068,0,0,1-4.574,1.581c-.232.048-.447.214-.7.009-.07-.056-.265.036-.4.068-.354.084-.706.173-1.059.26l-.039-.131c.32-.124.638-.253.96-.373.347-.129.624-.426,1.052-.381.113.012.234-.075.373.022a.337.337,0,0,0,.292-.015C85.393,28.407,86.416,28.354,87.267,27.845ZM70.34,29.421c-.488.574-.423.362-2.044.544A17.042,17.042,0,0,1,70.34,29.421Zm-.234.825a4.828,4.828,0,0,0,1.561-.252c.125-.048.307.052.4.07.394-.107.753-.2,1.111-.3.413-.113.823-.242,1.24-.338.256-.059.532-.04.785-.108a15.472,15.472,0,0,0,2.734-.8,26.883,26.883,0,0,0,4.636-2.239c1.139-.847,2.4-1.531,3.529-2.389a7.376,7.376,0,0,0,1.58-1.2,3.534,3.534,0,0,1,2.3-.909c-.229.628-.424,1.266-.693,1.87A1.893,1.893,0,0,1,88.16,24.8a.931.931,0,0,0-.406.286,6.92,6.92,0,0,1-2.327,1.849c-.716.35-1.366.834-2.059,1.234s-1.38.8-2.1,1.135c-.473.221-1.005.311-1.5.492-.771.283-1.521.631-2.3.88-.577.184-1.228.166-1.776.4a11.947,11.947,0,0,1-2.074.525,22.188,22.188,0,0,1-4.407.827,18.85,18.85,0,0,1-2.871.068c-1.477-.181-2.968-.249-4.432-.545-.406-.082-.818-.139-1.227-.207l.017-.166c.329.023.661.029.988.072a37.042,37.042,0,0,0,3.98.514,31.535,31.535,0,0,0,4.087-.331c1.237-.134,2.468-.327,3.7-.485a10.155,10.155,0,0,0,2.388-.535c.149-.058.32-.057.473-.107.776-.252,1.556-.494,2.321-.775.725-.266,1.442-.557,2.146-.875a9.221,9.221,0,0,1,1.274-.686,11.024,11.024,0,0,0,2.5-1.42c.041-.023.063-.083.09-.13a.769.769,0,0,0-.784.194,20.375,20.375,0,0,1-2.835,1.38c-.091.047-.193.073-.279.127a15.993,15.993,0,0,1-3.692,1.621A22.82,22.82,0,0,1,72.388,31.2c-1.243.125-2.471.391-3.714.509a21.978,21.978,0,0,1-3.1.078c-1.033-.049-2.061-.228-3.09-.355s-2.077-.241-3.107-.41a6.138,6.138,0,0,1-1.116-.408l.019-.141.865-.2a.844.844,0,0,0,.815.206,6.066,6.066,0,0,1,1.66.021c.513.064,1.023.074,1.533.107.842.055,1.683.05,2.522.048a16.688,16.688,0,0,0,1.869-.2.406.406,0,0,1,.124-.011A9.576,9.576,0,0,0,70.107,30.246Zm7.471,1.185c.071-.049.141-.1.209-.147s.126-.1.119-.1c.371.2.652.335.922.491.184.107.354.239.53.359l-.071.128Zm.314.624a2.049,2.049,0,0,1-1.619-.308c.375-.142.741-.358,1.072.113C77.423,31.974,77.66,31.979,77.891,32.055Zm.627-.891.031-.156c.469-.151.937-.376,1.422.061ZM73.09,32.756c.732-.322,1.143-.168,1.887.7A2.18,2.18,0,0,1,73.09,32.756Zm3.183,1.392a1.6,1.6,0,0,1-1.561-.3C75.335,33.609,75.793,33.933,76.273,34.148ZM73.1,33.439c-.575.005-1.086-.27-1.726-.3C72,32.918,72,32.918,73.1,33.439ZM61.174,30a4.309,4.309,0,0,1,2.473-.49A3.512,3.512,0,0,1,61.174,30Zm4.992-.455c-.206.27-.5.249-.761.3a2.955,2.955,0,0,0-1.032.279c-.226.131-.591.025-.894.025C64.324,29.778,65.129,29.154,66.166,29.541Zm4.677-3.593c1.266-.487,2.532-.974,3.789-1.482.7-.283,1.392-.592,2.076-.913.781-.367,1.547-.765,2.325-1.139a4.384,4.384,0,0,1,.578-.2,1.585,1.585,0,0,0,.287-.077c.96-.528,1.916-1.062,2.9-1.612.053.14.142.277.112.312a16.776,16.776,0,0,1-1.132,1.26,3,3,0,0,1-.744.446,6.065,6.065,0,0,0-.807.367,11.069,11.069,0,0,1-2.011.843c-.291.134-.559.323-.857.434-.629.234-1.274.423-1.9.654-.12.044-.2.194-.3.3l.024.12c-.387.007-.775.029-1.161.016-.275-.009-.539-.047-.693.26a.254.254,0,0,1-.159.093q-1.657.4-3.315.793l-.041-.135C70.157,26.174,70.506,26.078,70.843,25.948Zm.584.491c1.044-.225,2.088-.45,3.123-.709s2.071-.562,3.106-.845l.051.125a11.781,11.781,0,0,1-1.238.527c-1.158.35-2.323.673-3.492.982-.593.157-1.2.269-1.8.386-1.405.272-2.811.547-4.22.8-.593.105-1.2.15-1.8.222q.007-.089.014-.177c1.029-.219,2.057-.442,3.087-.657C69.315,26.87,70.373,26.666,71.426,26.439Zm-.185-2.928c-.214.167-.451.3-.676.454a4.083,4.083,0,0,0-1.178.976,2.106,2.106,0,0,1-.66.55c-.571.338-1.2.588-1.734.975a14.261,14.261,0,0,1-1.926.863,2.613,2.613,0,0,1-.605.155l-.052-.163c.21-.085.423-.162.628-.258a11.85,11.85,0,0,0,1.326-.65q1.263-.8,2.488-1.657A10.837,10.837,0,0,1,71,23.44a2.994,2.994,0,0,0,.694-.565l.109.116C71.62,23.166,71.443,23.354,71.242,23.511ZM91.9,10.143c-.8.415-1.5.782-2.2,1.141-.45.229-.907.446-1.363.666a1.8,1.8,0,0,1-.277.114,10.341,10.341,0,0,0-2.231,1.049c-.591.338-1.2.65-1.8.971-.236.126-.477.243-.71.374a30.6,30.6,0,0,0-3.733,2.628c-.781.607-1.6,1.169-2.4,1.748a.789.789,0,0,1-.4.161,12.215,12.215,0,0,1,.926-.918,5.391,5.391,0,0,1,1.549-1.071,2.464,2.464,0,0,0,.89-.778,6.811,6.811,0,0,1,1.8-1.357c.621-.367,1.255-.715,1.881-1.073.7-.4,1.382-.85,2.11-1.2.826-.4,1.7-.68,2.542-1.052.911-.4,1.809-.841,2.7-1.292A.737.737,0,0,1,91.9,10.143ZM80.351,13.951a3.252,3.252,0,0,0,.791-.859l-.479.212c.012-.079,0-.167.032-.185a19.609,19.609,0,0,1,2.585-1.465c.544-.218,1.061-.494,1.606-.7a17.23,17.23,0,0,1,1.673-.63,21.134,21.134,0,0,1,2.286-.465c.8-.124,1.616-.19,2.426-.272a1.818,1.818,0,0,1,.408.079c-.827.383-1.56.725-2.295,1.061-1.022.468-2.094.806-3.146,1.2a7.837,7.837,0,0,0-1.176.642c-1.311.762-2.65,1.482-3.917,2.311a6.059,6.059,0,0,0-2.027,1.954,3.589,3.589,0,0,0-.921.294c-.491.337-.938.741-1.4,1.123a34.549,34.549,0,0,1-2.918,2.43,18.916,18.916,0,0,0-1.7,1.394A6.527,6.527,0,0,1,70.509,23.2a6,6,0,0,0-.932.571c-.673.44-1.35.875-2.012,1.333a20.527,20.527,0,0,1-6.106,2.954,22.974,22.974,0,0,1-2.394.421v-.05c1.582-.676,3.19-1.3,4.739-2.044a20.5,20.5,0,0,0,3.449-2.035q1.328-1,2.669-1.977c.345-.251.711-.473,1.066-.711a5.95,5.95,0,0,0,1.41-1.191,6.725,6.725,0,0,1,1.135-.919,10.528,10.528,0,0,0,1.979-1.717,1.453,1.453,0,0,1,.355-.255,3.211,3.211,0,0,0,.817-.736,5.138,5.138,0,0,1,1.041-.916C78.595,15.259,79.482,14.617,80.351,13.951ZM71.938,9.534a1.56,1.56,0,0,1,.783.971c.17.646.386,1.28.537,1.93a4.283,4.283,0,0,1,.115,1.153,6.653,6.653,0,0,1-.218,1.593,1.735,1.735,0,0,0-.1.691,3.551,3.551,0,0,1-.546,1.853c-.191.437-.65.589-1.135.739a10.509,10.509,0,0,0,1.113-2.954c.021-.115.14-.211.166-.326a3.645,3.645,0,0,0,.16-1.341A32.138,32.138,0,0,0,71.938,9.534ZM70.887,19.652a1.68,1.68,0,0,1,1.161-1.095C72.021,19.116,71.979,19.157,70.887,19.652Zm-.16-1.716a9.429,9.429,0,0,0,.755-1.943c.233-.631.436-1.272.653-1.909l.153.05c-.168.568-.342,1.134-.5,1.7-.078.281-.109.576-.195.854a8.712,8.712,0,0,1-1.433,2.816,2.032,2.032,0,0,1-.421.312C70.075,19.167,70.353,18.521,70.727,17.936Zm-.808,2.208c-.269.695-.995.9-1.451,1.392A2.273,2.273,0,0,1,69.919,20.144ZM60.04,27.41c.6-.248,1.191-.509,1.79-.753.224-.091.462-.15.693-.226a1.444,1.444,0,0,0,.284-.107c1.006-.592,2.021-1.169,3.008-1.79A12.036,12.036,0,0,0,68.1,22.781,17.115,17.115,0,0,1,69.877,21.5c1.065-.839,2.227-1.547,3.217-2.489.573-.545,1.258-.972,1.867-1.483.827-.694,1.626-1.422,2.445-2.126a7.2,7.2,0,0,1,.615-.43l.07.107c-.273.236-.551.467-.817.711-.408.375-.813.754-1.207,1.143A7.366,7.366,0,0,1,74.642,18.2a12.234,12.234,0,0,0-1.419,1.167q-1.393,1.128-2.8,2.238-.622.49-1.273.945c-.444.311-.909.593-1.353.9-.321.226-.61.5-.935.717a30.97,30.97,0,0,1-7.427,3.741,1.552,1.552,0,0,1-.769.049C59.124,27.779,59.584,27.6,60.04,27.41Zm-1.913,1.621c.833-.074,1.668-.131,2.51-.166a9.5,9.5,0,0,1-2.782.87C57.682,29.189,57.73,29.066,58.127,29.031Zm-9.847-1.772a2.546,2.546,0,0,0,.841-.017,4.492,4.492,0,0,1,1.289.194,11.071,11.071,0,0,0,2.642.368,7.508,7.508,0,0,1,1.187.206,8.925,8.925,0,0,0,2.019.138,2.4,2.4,0,0,1,.717.134,5.04,5.04,0,0,1-2.5.105c-1.09-.12-2.175-.279-3.265-.4a16.976,16.976,0,0,1-4.058-.658,8.2,8.2,0,0,0-1.181-.25l.021-.1c.053-.023.111-.073.159-.065C46.863,27.022,47.572,27.139,48.279,27.259Zm.05-4.264a2.31,2.31,0,0,1-.962,1.233c-.365.264-.674.6-1.04.88a6.143,6.143,0,0,1-1.348.7,12.686,12.686,0,0,1-3.127.831,9.622,9.622,0,0,1-1.715-.016.612.612,0,0,1-.294-.1c-.406-.259-.8-.528-1.327-.874.418.034.715.056,1.011.081a7.346,7.346,0,0,0,2.79-.341c.233-.071.485-.085.714-.165A6.068,6.068,0,0,0,45.25,23.9a.547.547,0,0,1,.216-.122c.744-.218,1.112-.891,1.652-1.356.031-.027.078-.055.082-.088.088-.631.649-.94.961-1.418.118-.181.248-.354.372-.53l.139.068A6.081,6.081,0,0,1,48.329,22.994ZM36.2,24.308c.659.1,1.323.061,1.99.206a11.182,11.182,0,0,0,2.385.1c.609,0,1.219-.055,1.827-.1.116-.009.224-.109.342-.128.223-.036.45-.043.676-.062l.027.157c-.476.153-.95.314-1.429.456a10.958,10.958,0,0,1-3.816.32c-.884-.053-1.6-.55-2.437-.533C35.706,24.289,36.02,24.28,36.2,24.308Zm-.9-1.574-.029-.129c.08-.039.163-.119.239-.112a13.48,13.48,0,0,0,3.531-.369,3.75,3.75,0,0,1,.639-.022A13.667,13.667,0,0,1,35.3,22.734Zm10.137-1.745c.322-.093.626-.369.989-.087a3.431,3.431,0,0,1-1.894.357C44.83,21.168,45.131,21.076,45.433,20.989Zm-.36-1.21a2.992,2.992,0,0,1,1.576-.913.069.069,0,0,1-.012.037A2.779,2.779,0,0,1,45.073,19.779Zm1.3,2.126c-.383.428-.565,1.058-1.234,1.125-.564.057-1.127.115-1.692.156q-.95.07-1.9.111c-.561.024-1.123.03-1.687,0C41.9,22.233,44.148,22.182,46.376,21.9Zm-2.262-1.459a19.327,19.327,0,0,1-3.488,1.459,6.316,6.316,0,0,1-.876.171c.164-.458.645-.343.961-.441a24.26,24.26,0,0,0,2.456-1.068c.61-.264,1.231-.5,1.848-.746C44.826,20.183,44.424,20.268,44.114,20.446Zm-2.758,3.337-2,.109-.009-.17A4.645,4.645,0,0,1,41.355,23.783Zm7.922-2.443a2.556,2.556,0,0,0-.6-1.524c.419.085.746.219.726.728a3.821,3.821,0,0,0,.113.741Zm-.287,2.5c.127-.149.225-.327.278-.315.608.147,1.107-.242,1.666-.327a14.424,14.424,0,0,0,1.754-.5,1.1,1.1,0,0,1,.291,0l.017.141A28.157,28.157,0,0,1,48.99,23.837Zm3.253-1.314-.062-.187c.386-.1.775-.191,1.158-.3a16.786,16.786,0,0,1,1.807-.518,5.471,5.471,0,0,0,1.494-.487A1.362,1.362,0,0,1,57.2,20.9C55.693,21.9,53.913,22.033,52.243,22.523Zm7.088-2.366a6.874,6.874,0,0,1-.973.286l-.051-.1,1.721-.81.077.11A5.4,5.4,0,0,1,59.331,20.156Zm-2.854-.54a32.237,32.237,0,0,0,3.075-1.268c.6-.261,1.186-.565,1.783-.84a1.529,1.529,0,0,1,.374-.055,5.1,5.1,0,0,1-1.693,1.339c-.784.462-1.563.943-2.386,1.323a19.546,19.546,0,0,1-2.513.931c-1.137.345-2.295.623-3.444.927-.573.151-1.147.3-1.74.448a5.994,5.994,0,0,1,.191-.869.607.607,0,0,1,.356-.287c.622-.21,1.248-.414,1.882-.582C53.732,20.321,55.128,20.042,56.477,19.616Zm1.792-3.426c-.355,1.616-3.985,3.769-5.613,3.831a1.169,1.169,0,0,1,.224-.155,12.369,12.369,0,0,0,2.987-1.53,1.931,1.931,0,0,0,.308-.292c.026-.027.018-.1.044-.113C57.065,17.556,57.474,16.661,58.27,16.189ZM57,15.615l1.323-.978c-.021,1.035-.978,1.477-1.536,2.194-.1.129-.333.148-.487.246-.232.147-.448.32-.67.481a1.755,1.755,0,0,1-.182.129c-.9.487-1.778,1-2.694,1.449-.742.362-1.522.649-2.294.944-.118.045-.289-.049-.447-.142A23.636,23.636,0,0,0,57.358,15.8ZM48.462,19.1c2.376-.759,4.658-1.764,6.969-2.691.034-.014.1.054.191.106a1.553,1.553,0,0,1-.227.22,17.437,17.437,0,0,1-4.2,2.164,7.364,7.364,0,0,0-.987.4,3.1,3.1,0,0,1-1.728.037c-.032,0-.06-.05-.1-.085C48.407,19.2,48.422,19.108,48.462,19.1Zm-.144.321a1.049,1.049,0,0,0-.831.573c-.132.2-.6.19-.923.273C47.319,19.45,47.769,19.232,48.317,19.416ZM46.941,18.8a.584.584,0,0,1-.264.039c.051-.1.086-.225.168-.276q1-.635,2.029-1.236a.477.477,0,0,1,.252-.008C48.4,17.816,47.673,18.315,46.941,18.8ZM59.291,6.99c-.6.773-1.186,1.554-1.83,2.286-.982,1.117-2.006,2.2-3.015,3.29-.511.554-1.011,1.118-1.542,1.651a24.476,24.476,0,0,1-3.09,2.683c-.192.137-.4.25-.606.371a5.917,5.917,0,0,1,.487-.595c.292-.287.609-.549.923-.812s.629-.472.916-.738c.69-.641,1.367-1.3,2.039-1.957.289-.284.561-.588.825-.9.518-.6,1.008-1.231,1.541-1.821.507-.562,1.077-1.067,1.575-1.636.4-.456.725-.977,1.1-1.455.335-.426.694-.834,1.042-1.25l.117.08A7.7,7.7,0,0,1,59.291,6.99ZM31.445,21.417a17.779,17.779,0,0,0,3.8.408c-.006-.079-.014-.192-.028-.388.49-.041.989-.066,1.483-.128a8.232,8.232,0,0,0,1.491-.255c1.058-.339,2.1-.735,3.138-1.123a7.387,7.387,0,0,0,.7-.366,20.186,20.186,0,0,0,3.137-1.6c.734-.544,1.5-1.042,2.228-1.6.571-.436,1.073-.965,1.653-1.387a24.413,24.413,0,0,0,2.466-2.339c.636-.613,1.288-1.213,1.9-1.854a18.527,18.527,0,0,0,2.041-2.329c.556-.832,1.341-1.427,1.934-2.2.285-.373.618-.71.9-1.085a6.921,6.921,0,0,1,2.492-2.058c.457-.225.923-.434,1.425-.668.131.464-.2.452-.412.524-.086.028-.218-.025-.275.023a4.922,4.922,0,0,0-.9.826c-.535.748-.982,1.559-1.513,2.31-.412.582-.914,1.1-1.348,1.668a20.035,20.035,0,0,1-1.874,2.033,15.8,15.8,0,0,0-1.314,1.683,2.1,2.1,0,0,1-.132.2c-.6.613-1.194,1.226-1.8,1.831-.457.456-.911.917-1.393,1.345q-.9.8-1.851,1.548a18.071,18.071,0,0,1-1.546,1.1c-1.092.686-2.184,1.378-3.314,2-.845.464-1.755.81-2.627,1.227a11.754,11.754,0,0,1-4.137,1.16c-.57.047-1.14.094-1.71.146-.284.026-.566.077-.851.09-.387.018-.776.023-1.163.011a8.522,8.522,0,0,1-1.046-.086c-1.152-.181-2.3-.388-3.452-.566a2.5,2.5,0,0,1-1.792-1.146C29.044,20.688,30.189,21.227,31.445,21.417Zm-.734-3.259q1.432-.127,2.856-.341c.663-.1,1.309-.318,1.973-.4.81-.1,1.536-.49,2.343-.587a6.14,6.14,0,0,1-2.708,1.08c-.835.181-1.665.391-2.507.525-.819.13-1.65.191-2.478.263-.754.066-1.51.129-2.266.146a4.4,4.4,0,0,1-.985-.17c-.186-.04-.366-.109-.625-.189a1.872,1.872,0,0,1,.358-.107c.1-.007.207.048.309.042C28.224,18.339,29.469,18.268,30.711,18.158Zm-6.445-.709,4.936.246,0,.131c-.559.019-1.117.054-1.676.053a10.5,10.5,0,0,1-2.813-.164c-.164-.045-.32-.116-.48-.175ZM15.876,14.1a12.4,12.4,0,0,0,1.589.244c.456.073.907.186,1.365.245.9.116,1.808.219,2.714.3a22.278,22.278,0,0,0,2.528.166c.875-.019,1.748-.175,2.622-.269.805-.087,1.619-.128,2.414-.268,1.312-.232,2.623-.486,3.914-.809,1.171-.293,2.315-.692,3.473-1.04.189-.057.384-.1.576-.143l.05.148c-.7.284-1.393.592-2.1.845-1.022.363-2.047.735-3.095,1.008a24.51,24.51,0,0,1-2.535.42c-.647.1-1.295.193-1.945.263-1.1.116-2.193.27-3.293.3a26.531,26.531,0,0,1-3.319-.137,29.875,29.875,0,0,1-3.157-.513c-.709-.149-1.387-.438-2.092-.614a4.658,4.658,0,0,0-.9-.01.44.44,0,0,1-.276-.161A3.4,3.4,0,0,1,15.876,14.1Zm3.952,2.275c-.531.059-.762-.416-1.147-.516a2.078,2.078,0,0,1-1.157-.667l1.524.412C19.025,16.056,19.527,16.082,19.828,16.376Zm-8.462-1.683.808-.1c-.09.672.474.867.781,1.227.227.267.584.386.754.766a2.349,2.349,0,0,0,.708.694,3.931,3.931,0,0,1,.953,1.936A33.253,33.253,0,0,0,11.366,14.693ZM22.415,39.347l-.761-1.859A2.259,2.259,0,0,1,22.415,39.347Zm-.444.06-.1.076a3.785,3.785,0,0,1-.551-.529A11.714,11.714,0,0,1,19.6,35.682c-.216-.715-.543-1.4-.775-2.106A11.026,11.026,0,0,1,18.49,32.1c-.118-.661-.224-1.326-.3-1.993-.044-.407.015-.826-.027-1.233-.077-.753-.208-1.5-.289-2.253-.067-.63-.1-1.264-.139-1.9-.042-.655-.037-1.317-.128-1.965a6.267,6.267,0,0,0-.389-1.194,15.867,15.867,0,0,0-.67-1.782,9.5,9.5,0,0,0-1.424-2.632c.326-.083.437.129.573.281a3.7,3.7,0,0,1,.471.569c.087.15.486.221.184.527-.022.022.094.232.185.3.594.476.679,1.219.952,1.853a14.367,14.367,0,0,1,.491,1.762c.025.088.147.146.187.234.092.2.262.434.22.612a4.692,4.692,0,0,0,.13,1.406,29.463,29.463,0,0,1,.283,3.159,3.551,3.551,0,0,0,.4,1.859,2.11,2.11,0,0,1,.153,1.139,5.656,5.656,0,0,0,.381,1.743c.123.6.308,1.189.466,1.783.005.02.023.041.019.058-.24,1.067.515,1.87.774,2.8A14.687,14.687,0,0,0,21.971,39.407Zm-3.082-15.5c-.1-.177-.3-.357-.3-.529a10.569,10.569,0,0,0-.5-2.257c-.009-.054.036-.116.056-.175A7.1,7.1,0,0,1,18.889,23.906Zm-.069-3.093.164-.071,1.473,2.767a4.274,4.274,0,0,1-1.108-1.141C19.175,21.85,19,21.332,18.82,20.813Zm.62,6.543a6.809,6.809,0,0,1,.287,2.484C19.585,29.018,19.125,28.234,19.44,27.356Zm1.593,8.538a2.871,2.871,0,0,1-.383-1.107A9.4,9.4,0,0,0,20.3,33.05c-.135-.6-.283-1.2-.412-1.8a1.483,1.483,0,0,1,.081-.423A18.846,18.846,0,0,1,21.034,35.894Zm9.594,6.283c-.6-.626-1.222-1.239-1.807-1.883-.346-.381-.649-.8-.966-1.21a4.405,4.405,0,0,1,.361.311q1.072,1.085,2.132,2.182a5.826,5.826,0,0,1,.392.5ZM38.61,46.54c.433.475,1.139.665,1.394,1.454-.435-.119-.462-.529-.714-.713-.278-.2-.545-.422-.817-.633ZM22.526,29.05c.131.244.118.565.247.811a9.238,9.238,0,0,0,1.2,1.74c.448.524.763,1.16,1.187,1.708A23.52,23.52,0,0,0,27,35.833c.8.8,1.428,1.77,2.2,2.6a26.9,26.9,0,0,0,2.94,3.265c.511.4.866.991,1.344,1.439a10.7,10.7,0,0,0,1.787,1.66,15.463,15.463,0,0,1,1.519,1.235c.421.326.877.608,1.311.918a5.626,5.626,0,0,1,.868.737,17.4,17.4,0,0,1-5.041-2.744l.057-.486a.744.744,0,0,0-.072-.1c-.262-.26-.517-.528-.791-.775a10.212,10.212,0,0,0-1.026-.867,20.254,20.254,0,0,1-2.576-2.655c-.518-.515-1.069-1-1.678-1.558l-.065.483a1.608,1.608,0,0,1-.306-.25c-1.041-1.335-2.094-2.661-3.1-4.02a24.412,24.412,0,0,1-1.382-2.136c-.619-1.046-1.208-2.11-1.8-3.173-.228-.411-.421-.842-.676-1.358-.211-.055-.451-.159-.4-.635a6.374,6.374,0,0,0-.2-1.249c.543.559.781,1.321,1.339,1.855.056-.392-.231-.615-.382-.9-.335-.637-.654-1.282-.979-1.924a.792.792,0,0,1-.112-.221,8.231,8.231,0,0,1-.092-1.719c.263.643.516,1.29.792,1.926.214.492.434.984.691,1.454C21.6,27.449,22.089,28.236,22.526,29.05Zm-.905-2.671-.138.045a7.111,7.111,0,0,1-.572-1.579l.207-.044Zm8.811,5.7c-.813-.722-1.62-1.45-2.43-2.176-.683-.613-1.388-1.2-2.045-1.844A21.1,21.1,0,0,1,23.8,25.714c-.688-.908-1.473-1.743-2.232-2.6a8.772,8.772,0,0,1-1.928-2.852c.24.263.488.52.72.791.468.545.923,1.1,1.392,1.646.17.2.371.369.542.566a1.228,1.228,0,0,1,.161.315c.031.07.029.191.075.211.653.277.975.914,1.472,1.358a14.967,14.967,0,0,1,.982,1.143c.6.656,1.215,1.3,1.824,1.944s1.194,1.3,1.824,1.922c.682.669,1.4,1.3,2.054,2.032A.928.928,0,0,1,30.431,32.081Zm-6.568-8.606c.317.379.628.763.963,1.125.667.72,1.355,1.42,2.024,2.139A8.562,8.562,0,0,0,28.2,28.2c.691.452,1.019,1.2,1.65,1.68s1.132,1.074,1.738,1.562c.763.614,1.6,1.141,2.355,1.759a13.2,13.2,0,0,0,2.348,1.67c.047.024.066.1.173.28C35.285,34.526,34.2,34.03,33.2,33.4a15.334,15.334,0,0,1-2.162-1.717c-1.092-1-2.164-2.021-3.191-3.087-1.455-1.51-2.822-3.106-4.3-4.592-.8-.808-1.482-1.717-2.264-2.541-.752-.791-1.411-1.671-2.122-2.5-.225-.262-.489-.491-.735-.735l.1-.132c.39.234.794.447,1.165.709.262.185.595.3.638.735.02.2.291.375.458.552.323.343.651.681.979,1.019s.643.632.94.97C23.1,22.537,23.476,23.013,23.863,23.475ZM32.3,26.89c.1.221.1.22-.147.526a13.4,13.4,0,0,0-1.008-1.853A9.873,9.873,0,0,0,29.8,23.982l-.158.133c.263.344.537.681.787,1.035.264.374.526.753.752,1.15.334.586.63,1.193.954,1.785a.65.65,0,0,0,.26.264c.4.2.464.541.466,1.01a2.9,2.9,0,0,1-1.714-.928l.665.2a6.974,6.974,0,0,0-.4-.673c-.537-.686-1.067-1.38-1.638-2.036-.647-.744-1.327-1.459-2.008-2.172a18.723,18.723,0,0,0-2.722-2.277c-.949-.676-1.824-1.456-2.77-2.137-.744-.536-1.535-1.01-2.325-1.476-1.36-.8-2.735-1.576-4.106-2.359-.247-.141-.5-.269-.734-.393-.068.028-.118.033-.141.06-.4.49-.391.474.142.9a1.535,1.535,0,0,1,.428.7l-.559-.421c0,.193-.008.334-.012.494L13.089,14.9c.275-.194.489-.365.9-.177a2.127,2.127,0,0,0,1.023-.013c.443-.05.821-.08,1.123.387.159.246.528.361.811.52a10.266,10.266,0,0,1,1.969.985,3.3,3.3,0,0,0,.931.458,19.38,19.38,0,0,1,3.038,1.715c.583.373,1.224.655,1.827,1,.5.282.974.6,1.464.891a.4.4,0,0,0,.368-.01c-.087-.107-.152-.25-.264-.314A7.994,7.994,0,0,0,24.213,19.1c-.439-.1-.786-.562-1.2-.815-.749-.457-1.519-.88-2.269-1.4.109,0,.239-.03.325.017.659.36,1.312.733,1.964,1.106.462.264.94.506,1.377.808a35.038,35.038,0,0,1,3.252,2.144,20.876,20.876,0,0,1,2.8,2.915A14.829,14.829,0,0,1,32.3,26.89Zm2.592-.9c-.956-.454-1.9-.929-2.862-1.373-.32-.148-.753-.091-.919-.617a17.337,17.337,0,0,1,4.446,2.234C35.339,26.15,35.109,26.088,34.9,25.987Zm3.747,2.021c-.457-.289-.907-.59-1.373-.864s-.955-.528-1.411-.832a7.866,7.866,0,0,1,2.86,1.579Zm8.374,6.334c-.443-.363-.856-.748-1.269-1.139-.834-.789-1.663-1.587-2.53-2.339-.65-.564-1.35-1.071-2.04-1.587-.706-.528-1.442-1.017-2.138-1.556a12.616,12.616,0,0,0-2.219-1.3c-.916-.449-1.8-.963-2.695-1.459a8.637,8.637,0,0,0-3.248-1.269c-.208-.023-.412-.314-.571-.517-.273-.348-.509-.725-.8-1.142.064-.015.193-.088.246-.051a1.753,1.753,0,0,0,1.125.214,12.388,12.388,0,0,1,1.292.118c.613.055,1.23.085,1.84.165a2.506,2.506,0,0,1,.616.25,5.964,5.964,0,0,0-.039,1.23,1.975,1.975,0,0,0,1.09,1.394c.57.32,1.085.737,1.659,1.049a24.464,24.464,0,0,0,2.37,1.149c.38.156.615.5,1.024.613a4.438,4.438,0,0,1,1.091.555c.359.225.671.528,1.035.744.7.418,1.225,1.056,1.912,1.506a12.867,12.867,0,0,1,1.859,1.6c1.18,1.148,2.458,2.2,3.534,3.448a3.422,3.422,0,0,1,.587,1.818c-.56-.337-.56-.337-1.15-1.887l-.1.737a3.154,3.154,0,0,1-.312-.243C48.465,35.736,47.791,34.978,47.017,34.342Zm-1.326-3.579.1-.1c1.151.983,2.477,1.774,3.25,3.173ZM49.156,37.1a5.566,5.566,0,0,1,1.7,1.868A9.121,9.121,0,0,1,49.156,37.1ZM51,33.963A6.819,6.819,0,0,1,52.8,37.184a4.538,4.538,0,0,1,.106,3.177,11.458,11.458,0,0,1-.607,1.547.5.5,0,0,1-.195.234c-.642.36-1.291.708-1.938,1.06l-.108-.136a3.5,3.5,0,0,1,.381-.433,3.629,3.629,0,0,0,1.323-3.278c-.055-.728-.047-1.464-.142-2.186a3.282,3.282,0,0,0-.407-1.09,15.672,15.672,0,0,0-1.627-2.806,17.87,17.87,0,0,0-2.348-2.113,2.543,2.543,0,0,1-.6-.619c.437.224.863.474,1.314.667a4.53,4.53,0,0,1,1.7,1.414A15.033,15.033,0,0,0,51,33.963ZM58.081,35.2a18.6,18.6,0,0,1,2.642,2.538c.156.16.3.335.447.5l-.1.089c-.286-.286-.562-.58-.858-.855a30.673,30.673,0,0,0-3.035-2.4,37.243,37.243,0,0,0-3.613-2.314c-1.125-.624-2.24-1.265-3.381-1.859a9.219,9.219,0,0,0-1.287-.435,4.244,4.244,0,0,1-.859-.328,9.948,9.948,0,0,0-2.954-1.347,27.647,27.647,0,0,0-3-1.017,3.563,3.563,0,0,1-1.024-.541c.565.054,1.013.078,1.454.147a2.415,2.415,0,0,1,.562.234c.167.074.328.165.5.227,1.044.377,2.1.722,3.134,1.128q2.249.884,4.468,1.843a14.977,14.977,0,0,1,1.323.746q.777.433,1.562.852c.659.353,1.327.692,1.98,1.056a3.294,3.294,0,0,1,.516.421A18.258,18.258,0,0,0,58.081,35.2ZM59.46,33.56l-2.385-.943c.1-.078.161-.158.187-.147.754.311,1.5.631,2.256.949ZM87.851,57.909l-.092.068a4.465,4.465,0,0,1-.448-.508c-.444-.683-.846-1.395-1.31-2.064a29.33,29.33,0,0,0-2.372-3.195c-.642-.7-1.113-1.558-1.752-2.261a14.6,14.6,0,0,0-1.949-2.218,9.561,9.561,0,0,1-1.087-1.267c-.66-.705-1.327-1.406-2.029-2.069-.516-.487-1.084-.92-1.64-1.363-.48-.382-.991-.727-1.46-1.122a27.815,27.815,0,0,0-3.371-2.377c-.911-.559-1.787-1.175-2.691-1.747-.4-.251-.815-.466-1.234-.678-1.3-.655-2.6-1.3-3.893-1.951a.649.649,0,0,1-.313-.326,11.773,11.773,0,0,1,1.2.431c.792.379,1.561.8,2.345,1.2.383.193.8.331,1.165.548.472.278.9.626,1.367.915.711.443,1.447.846,2.155,1.294.859.543,1.73,1.074,2.542,1.682.864.647,1.662,1.382,2.494,2.071s1.7,1.343,2.507,2.062a19.991,19.991,0,0,1,2.591,2.51c.888,1.142,1.894,2.178,2.79,3.31a19.218,19.218,0,0,1,1.938,2.926A12.74,12.74,0,0,0,86.33,55.2a2.065,2.065,0,0,1,.307.472,10.087,10.087,0,0,0,1.136,2.03A1,1,0,0,1,87.851,57.909Zm-3.6-9.084c.239.355.478.709.708,1.07.22.345.572.582.689,1.022a5.191,5.191,0,0,0,.537,1.138c.265.478.558.94.839,1.409a1.077,1.077,0,0,1,.147.242c.134.5.256,1.005.4,1.6a1.313,1.313,0,0,1-.178-.189q-.623-1.141-1.24-2.285c-.472-.871-.922-1.755-1.422-2.61a5.828,5.828,0,0,0-1.643-2.051A8.376,8.376,0,0,1,81.4,46.316a16.223,16.223,0,0,0-1.229-1.268c-.032-.032-.118-.009-.319-.017.317.34.58.589.8.869.408.508.79,1.036,1.19,1.551.313.4.515.879,1.123,1.026a1.551,1.551,0,0,1,.775.754,4.177,4.177,0,0,1,.776,1.418,2.952,2.952,0,0,0,.484.926c.349.593.714,1.177,1.059,1.772.43.742.846,1.493,1.269,2.24l-.106.072a6.614,6.614,0,0,1-.531-.6c-.153-.216-.244-.475-.388-.7-.436-.677-.883-1.345-1.327-2.016-.254-.383-.507-.767-.764-1.148a.784.784,0,0,0-.2-.236,7.216,7.216,0,0,1-1.631-1.886c-.18-.225-.362-.45-.549-.669-.622-.727-1.22-1.477-1.879-2.169a16.819,16.819,0,0,0-1.4-1.186c-1.049-.883-2.093-1.772-3.146-2.65-.266-.222-.575-.394-.835-.622-.552-.483-1.075-1-1.633-1.475a3.647,3.647,0,0,0-.681-.362c-.091-.048-.177-.105-.265-.159q-1.906-1.159-3.812-2.32c-.069-.042-.163-.087-.185-.151-.251-.749-1.057-.764-1.553-1.185-.713.2-1.121-.4-1.668-.636-.582-.249-1.134-.579-1.728-.789a7.523,7.523,0,0,0-1.836-.628c-.09-.008-.175-.1-.259-.15a24.834,24.834,0,0,0-3.519-1.708.717.717,0,0,0-.794.06c-.364.261-.853.03-1.224-.19-.447-.265-.851-.6-1.273-.91l.037-.074a8.936,8.936,0,0,1,1.142.312c.11.044.132.308.224.546a1.972,1.972,0,0,1,1.232-.169,1.912,1.912,0,0,0-1.032-.586c-.757-.2-1.5-.463-2.248-.694a.815.815,0,0,0-.426-.078c-.367.12-.639-.079-.937-.21-1.253-.555-2.511-1.1-3.758-1.667-.565-.257-1.111-.558-1.665-.839l.047-.127c.171.035.342.075.515.1,1.429.239,2.856.485,4.287.71.459.072.926.087,1.3.121l.677,1.032a.958.958,0,0,0-.305-.953,1.436,1.436,0,0,1,1.577.86,2.554,2.554,0,0,0,.393.4l.1-.084-.562-.928.7-.137c.4.44.631,1.033,1.071,1.442l.157-.123-.836-1.183a1.277,1.277,0,0,1,1.251.69,7,7,0,0,1,.811,1.3c.192.5.656.653.97.988.445.474,1.157.4,1.679.743a4.036,4.036,0,0,0,.617.263c.075.033.145.124.214.12a3.416,3.416,0,0,1,2.157.959,11.951,11.951,0,0,0,1.081.569c.663.368,1.32.747,1.979,1.123.352.2.707.4,1.052.61.814.505,1.622,1.02,2.432,1.532.034.022.054.075.089.086.853.281,1.489.944,2.308,1.3a9.362,9.362,0,0,1,1.22.8c.292.185.622.315.9.517.775.562,1.517,1.17,2.3,1.717.463.323.992.551,1.475.847a4.937,4.937,0,0,1,.581.492,13.724,13.724,0,0,0,1.833,1.683,5.642,5.642,0,0,1,.879.849c.563.532,1.139,1.05,1.7,1.586a3.666,3.666,0,0,1,.4.512C83.929,48.36,84.089,48.592,84.246,48.826ZM67.619,35.361a23.86,23.86,0,0,1,5.8,3.111,1.283,1.283,0,0,1-1.032-.346c-1.04-.857-2.333-1.275-3.43-2.03A14.613,14.613,0,0,0,67.619,35.361Zm9.741,4.675c.967.685,1.947,1.355,2.884,2.079.565.436,1.06.962,1.586,1.449a1.848,1.848,0,0,0,.173.176,9.24,9.24,0,0,1,1.881,1.753,14.64,14.64,0,0,0,1.227,1.192l-1.88.072a17.852,17.852,0,0,0-3.54-3.629c-1.281-1.149-2.749-2.043-4.025-3.217.239.142.487.27.714.428,1.177.818,2.374,1.61,3.514,2.477.9.681,1.726,1.449,2.569,2.2a10.081,10.081,0,0,1,.867.921,1.085,1.085,0,0,0,.837.469,3.384,3.384,0,0,0-1.009-1.374c-.741-.73-1.558-1.385-2.36-2.051a12.068,12.068,0,0,0-2.569-1.8.848.848,0,0,1-.164-.085c-.908-.7-1.814-1.4-2.708-2.125A7.869,7.869,0,0,1,77.36,40.035Zm10.386,2.93c.519.455,1.046.9,1.57,1.348l-.086.107c-.816-.5-1.612-1.036-2.451-1.493-1.862-1.016-3.729-2.025-5.626-2.974-1.444-.723-2.91-1.417-4.414-2-1.169-.452-2.277-1.027-3.42-1.527-1.645-.72-3.239-1.556-4.879-2.355.307-.215.618-.022.9.058.552.157,1.085.378,1.629.566.631.218,1.317.333,1.9.6.558.255,1.133.367,1.688.573s1.053.54,1.6.775c.846.366,1.717.674,2.56,1.046.881.389,1.749.807,2.607,1.244q1.248.635,2.46,1.338c.532.307,1.029.674,1.55,1,.586.366,1.193.7,1.769,1.081A6.745,6.745,0,0,1,87.746,42.965Zm-10.585-7c.283.108.536.291.815.412.431.188.887.322,1.3.535.381.195.718.476,1.087.7a8.486,8.486,0,0,0,1.521.881,10.067,10.067,0,0,1,1.529.859,1.976,1.976,0,0,0,.342.133c.1.033.242.026.293.092a5.7,5.7,0,0,0,1.905,1.283c.183.106.292.339.435.514l-.058.057c-.568-.346-1.133-.7-1.7-1.037-.527-.315-1.059-.62-1.59-.929-.976-.568-1.934-1.173-2.935-1.691-.688-.356-1.438-.593-2.161-.883-.438-.176-.88-.341-1.312-.53-1.22-.533-2.425-1.1-3.658-1.605-.744-.3-1.528-.507-2.3-.753a1.411,1.411,0,0,1-.3-.08,4.108,4.108,0,0,0-2.187-.56,2.3,2.3,0,0,1-.432-.116,2.421,2.421,0,0,1,1.3-.079c.587.085,1.167.219,1.746.351a2.734,2.734,0,0,1,.505.215,1.631,1.631,0,0,0,.5.228,3.189,3.189,0,0,1,1.468.616,4.488,4.488,0,0,0,1.392.5,5.14,5.14,0,0,1,.517.194C75.843,35.5,76.507,35.714,77.161,35.962Zm4.97-.76a4.852,4.852,0,0,0-.543-.139c-.942-.17-1.887-.324-2.826-.512-.148-.03-.266-.207-.5-.4A17.6,17.6,0,0,1,83.3,35.568C82.907,35.445,82.519,35.32,82.13,35.2Zm-1.344-1.385a13.436,13.436,0,0,1,2.52,1.1c.064.027.1.116.151.176l-.069.111c-.408-.136-.811-.286-1.224-.4-.656-.189-1.314-.374-1.979-.528-.76-.176-1.551-.246-2.284-.494a8.489,8.489,0,0,1-1.53-.882c-.162-.1-.317-.2-.481-.309-.3.447.117.454.257.588.166.158.382.263.549.433a3.2,3.2,0,0,1-2.207-1.138,4.1,4.1,0,0,1,1.594.013,3.986,3.986,0,0,1,.59.068c.384.082.766.172,1.144.277.556.154,1.109.321,1.661.489a3.235,3.235,0,0,1,.606.219A2.419,2.419,0,0,0,80.786,33.817ZM79.349,31.4c.542-.032,1.006-.063,1.471-.085.082,0,.19.066.243.033.655-.41.96.162,1.408.5C80.933,32.09,79.889,31.929,79.349,31.4ZM91.915,33.36c-.031.02-.073.051-.1.044a43.784,43.784,0,0,0-9.068-.954,21.3,21.3,0,0,1,9.222.787C91.931,33.325,91.929,33.351,91.915,33.36Zm5.574,2.153c-.576-.265-1.149-.538-1.737-.775-.608-.245-1.232-.452-1.85-.675a14.033,14.033,0,0,1-1.822-.755,1.147,1.147,0,0,1,.367-.006c.959.312,1.916.63,2.869.962.5.176,1.005.366,1.5.576.882.377,1.77.746,2.627,1.173.561.28,1.074.656,1.608.989l-.089.155a15.2,15.2,0,0,1-1.695-.818C98.66,36.1,98.082,35.786,97.489,35.513Zm4.785,3.672a5.381,5.381,0,0,1-2.4-1.677A3.994,3.994,0,0,1,102.274,39.185Zm-3.291-1.195a2.015,2.015,0,0,1,1.627,1.142C99.9,39.035,99.674,38.878,98.983,37.991Zm1.476,1.649c.566-.017.914.22,1.223.86C100.986,40.554,100.759,40.067,100.459,39.64Zm1.528,1.741.129-.094a5.429,5.429,0,0,1,1.546,2.852Zm2.64,1.349c.112.328.3.629.419.956.228.64.452,1.283.636,1.936a3.083,3.083,0,0,1-.182,1.711c-.052.179-.309.3-.5.471l-.124-.478c.468.107.551.065.468-.335a20.211,20.211,0,0,0-.6-2.427,17.727,17.727,0,0,0-1.028-2.342,13.129,13.129,0,0,0-.893-1.308c-.159-.235-.275-.5-.454-.72-.252-.3-.545-.573-.794-.9.436.22.97.132,1.329.6A10.282,10.282,0,0,1,104.627,42.73Zm3.4-.71-2.784-1.908.079-.118a18.461,18.461,0,0,1,2.781,1.913Zm2.432-8.3a6.232,6.232,0,0,1,2.964.785Zm7.916,1.862c-.736-.257-1.464-.538-2.2-.8-.659-.235-1.321-.458-1.983-.685-.564-.193-1.136-.365-1.69-.583a11.64,11.64,0,0,0-1.8-.366c-1.341-.3-2.668-.665-4.016-.923-.71-.136-1.406-.336-2.122-.435-.548-.075-1.1-.118-1.645-.23a15.492,15.492,0,0,1,4.065.29c.637.152,1.281.271,1.918.423.99.236,1.978.484,2.965.735.683.173,1.364.353,2.042.545a2.122,2.122,0,0,1,.738.293,5.783,5.783,0,0,0,1.377.53,7.5,7.5,0,0,0,1.44.555,7.784,7.784,0,0,1,1.307.533c.411.18.816.371,1.224.556l.015.085C119.467,35.936,118.917,35.775,118.376,35.586Zm.964,1.051a5.193,5.193,0,0,1,2.586,1.007Zm-19.165-6.39c.447,0,.894-.014,1.341-.024a1.13,1.13,0,0,1,.3-.021,11.645,11.645,0,0,0,1.84.334,4.4,4.4,0,0,0,1.437.026,1.047,1.047,0,0,1,.731.221.855.855,0,0,0,.76.119c.119-.023.289-.086.353-.032.474.4,1.089.219,1.614.421a4.585,4.585,0,0,0,.976.1,2.2,2.2,0,0,1,.595.166,4.424,4.424,0,0,0,1.707.443,8.037,8.037,0,0,1,1.063.315,13.487,13.487,0,0,1,1.894.671,6.887,6.887,0,0,0,.844.266,21.109,21.109,0,0,1,3.25,1.187,8.269,8.269,0,0,0,1.3.545c.286.058.524.353.783.541l-.064.11c-.3-.154-.6-.332-.917-.457-.974-.384-1.948-.772-2.937-1.113-1.111-.384-2.248-.7-3.358-1.082a25.094,25.094,0,0,0-3.165-.9c-.546-.113-1.071-.326-1.616-.441-.454-.1-.907-.207-1.363-.277-1.126-.174-2.259-.3-3.388-.448-.29-.039-.573-.137-.863-.164-.757-.071-1.517-.112-2.275-.176-.737-.062-1.473-.136-2.209-.2l.023-.128C99.284,30.249,99.729,30.251,100.175,30.247ZM98.5,32.74c1.011.445,2.045.839,3.069,1.254.038.016.1.01.117.036.368.633,1.158.659,1.639,1.141a3.624,3.624,0,0,0,.777.493,4.392,4.392,0,0,1,.939.662,8.585,8.585,0,0,0,1.209.7c.5.347.931.808,1.45,1.123.758.46,1.284,1.186,2.021,1.655a8.9,8.9,0,0,0,1.352.967,6.32,6.32,0,0,1,1.14.917c.684.509,1.364,1.031,2.09,1.475.643.393,1.347.685,2.024,1.023.166.082.33.168.494.252l-.06.122c-.778-.352-1.571-.674-2.33-1.062a21.83,21.83,0,0,1-2.672-1.621c-1.336-.944-2.569-2.009-3.869-2.993-.736-.556-1.489-1.091-2.252-1.609-.849-.576-1.7-1.157-2.584-1.672-1.009-.586-2.043-1.135-3.1-1.634-.757-.358-1.563-.613-2.351-.9-1-.37-1.991-.787-3.016-1.078-1.418-.4-2.862-.715-4.3-1.048-.512-.118-1.034-.191-1.554-.27a1.158,1.158,0,0,0-.349.064c.057.093.082.186.121.192.9.14,1.693.7,2.654.6.238-.025.492.2.75.248a21.866,21.866,0,0,1,2.686.764c.5.17,1.036.3,1.541.491q1.614.61,3.217,1.251c.682.271,1.365.543,2.03.852.347.161.651.41.983.606.545.321,1.106.613,1.641.95.5.314.965.681,1.459,1,.58.379,1.2.707,1.757,1.111s1.037.864,1.564,1.285a27.819,27.819,0,0,0,2.583,1.995,15.394,15.394,0,0,0,2.177,1.467c1.227.506,2.4,1.143,3.608,1.694a13.635,13.635,0,0,0,1.436.463,2.145,2.145,0,0,1-.536.11q-1.112-.141-2.22-.318c-.413-.066-.823-.16-1.232-.249-.311-.068-.656-.051-.782-.477-.038-.129-.286-.218-.454-.283a21.3,21.3,0,0,1-4.72-2.5c-1.294-.92-2.608-1.814-3.907-2.727-1.388-.976-2.74-2.007-4.163-2.929a13.023,13.023,0,0,0-3.342-1.679c-.471-.14-.917-.362-1.377-.54-.479-.184-.956-.375-1.442-.535a48.9,48.9,0,0,0-6.616-1.6c-.665-.12-1.354-.112-2.03-.171-.437-.038-.872-.094-1.309-.132a1.463,1.463,0,0,0-.43.02,1.615,1.615,0,0,1-1.2-.18,3.914,3.914,0,0,0-.6-.228l.024-.133,3.92-.007a1.189,1.189,0,0,0-1.159-.283,2.583,2.583,0,0,1-.979-.022,25.575,25.575,0,0,0-2.67.155,2.433,2.433,0,0,1-1.5-.515,2.627,2.627,0,0,1,.925-.257,6.119,6.119,0,0,0,1.688-.25c.652-.077,1.307-.145,1.949-.274a6.181,6.181,0,0,0,2.038-.665,2.734,2.734,0,0,1,.7-.184,2.413,2.413,0,0,1,.072.436.978.978,0,0,0,.871,1.075c.6.082,1.2.168,1.805.238.819.1,1.641.163,2.458.275.5.068.989.188,1.478.3.445.107.878.264,1.324.359A17.212,17.212,0,0,1,98.5,32.74Zm-2.224-4.259c-1.33.315-2.664.613-4,.911-.072.016-.157-.028-.261-.155.5-.161.987-.335,1.488-.479.785-.226,1.572-.448,2.365-.644a20.179,20.179,0,0,1,2.156-.457c.492-.066.863-.385,1.335-.482a11.056,11.056,0,0,0,1.473-.443c1-.357,2-.732,3-1.106.918-.344,1.844-.67,2.745-1.057.685-.294,1.324-.694,2-1,.782-.355,1.585-.663,2.381-.988a2.249,2.249,0,0,0,.233-.058,6.882,6.882,0,0,1,1.2-.658,5.966,5.966,0,0,0,1.614-.847c.375-.256.8-.434,1.178-.692a9.409,9.409,0,0,0,.852-.744l-.087-.129c-.558.281-1.131.535-1.669.851s-1.03.69-1.544,1.038a2.138,2.138,0,0,1-.244.15,18.685,18.685,0,0,1-2.364,1.066c-.813.271-1.559.739-2.353,1.076-1.409.6-2.83,1.165-4.248,1.741-.455.185-.92.345-1.373.534-1.474.614-3.022,1-4.54,1.477a2,2,0,0,0-.262.134c-.111-.568-.515-.789-1.08-.9a1.458,1.458,0,0,1,1.6-.069,1.042,1.042,0,0,0,.995.228l-.9-.611.926-.349c.354.181.671.364,1.006.5a.53.53,0,0,0,.414-.033,5.1,5.1,0,0,1,2.047-.606.982.982,0,0,0,.24-.106,1.978,1.978,0,0,0-1.285-.007c-.4.1-.8.216-1.2.3a3.507,3.507,0,0,1-.579.027l-.051-.165a3.128,3.128,0,0,1,.554-.255,9.692,9.692,0,0,0,2.034-.7,25.627,25.627,0,0,1,2.481-.951,4.069,4.069,0,0,0,.738-.273,12.578,12.578,0,0,1,2.212-.941c.749-.287,1.483-.618,2.214-.951.514-.234,1.01-.508,1.517-.759.433-.214.867-.425,1.305-.626.71-.325,1.434-.62,2.133-.967.565-.28,1.092-.633,1.652-.925a17.756,17.756,0,0,0,2.035-1.2c.7-.5,1.447-.936,2.174-1.4l.126.089c-.242.551-.215,1.243-.892,1.566a15.018,15.018,0,0,1-4.017,3.033,37.024,37.024,0,0,1-4.331,2.329c-1.185.556-2.384,1.073-3.588,1.585-1.162.494-2.288,1.075-3.45,1.57-.81.345-1.65.624-2.486.906-1,.336-2,.663-3.016.957C98.022,28.065,97.15,28.275,96.278,28.481Zm27.086,3.4c-1.924-.85-3.972-1.324-6.024-2.011a3.911,3.911,0,0,1,2.411.474c.435.17.92.208,1.36.368.547.2,1.071.461,1.6.7.234.1.464.216.7.325Zm.089.139c.267-.07.437-.165.49-.121.418.349.987.5,1.306.978Zm4.121,2.815-2.255-1.915a1.612,1.612,0,0,1,.833.407c.443.385.932.718,1.386,1.091.085.07.1.223.15.338ZM121.6,28.448a6.229,6.229,0,0,1,.854.474c1.124.761,2.231,1.547,3.358,2.3.611.409,1.25.775,1.877,1.161a.425.425,0,0,1,.1.071c.595.69,1.435,1.112,1.99,1.853.216.288.569.47.8.747a23.279,23.279,0,0,1,1.74,2.189,14.114,14.114,0,0,1,1.445,3c.023.065-.027.157-.065.344a16.543,16.543,0,0,0-1.736-2.369c-.9-.858-1.424-2.04-2.534-2.711-.458-.277-.75-.814-1.169-1.172-.888-.757-1.791-1.5-2.723-2.2a21.309,21.309,0,0,0-3.988-2.013,7.809,7.809,0,0,0-1.484-.443c-1.535-.367-3.068-.745-4.613-1.062-1.325-.272-2.662-.492-4-.682a17.664,17.664,0,0,0-1.842-.064,15.43,15.43,0,0,1-1.969-.1,17.06,17.06,0,0,0-2.83,0,20.607,20.607,0,0,0-2.809.2c-.911.124-1.808.354-2.712.532a1.448,1.448,0,0,1-.336-.065,3.677,3.677,0,0,1,.559-.248,3.852,3.852,0,0,0,1.98-.678.582.582,0,0,1,.287-.1,14.535,14.535,0,0,1,3.3-.149c.429.023.861-.009,1.288.025.915.073,1.826.2,2.742.253a9.163,9.163,0,0,0,2.746.059,3.984,3.984,0,0,0-1.556-.425c-1.68-.122-3.364-.181-5.047-.262a9.386,9.386,0,0,1-1.31-.12c.305-.125.608-.258.917-.372a8.4,8.4,0,0,0,.951-.332.464.464,0,0,1,.581.064c.115-.186-.08-.477.362-.4a12.9,12.9,0,0,0,2.074.084,4.764,4.764,0,0,0,.714-.107,8.04,8.04,0,0,1,2.082.216c.465.05.921.179,1.493.3-.175-.4-.36-.514-.663-.527a4.891,4.891,0,0,1-1.171-.151,6.585,6.585,0,0,0-2.113-.184.454.454,0,0,1-.311-.114c.233-.041.465-.1.7-.119a3.176,3.176,0,0,1,.741-.016c.946.133,1.892.272,2.832.447a7.275,7.275,0,0,0,1.248.348,2.355,2.355,0,0,1,1.566.588,1.311,1.311,0,0,0,.611.166,8.825,8.825,0,0,1,2.985.825C120.191,27.876,120.912,28.127,121.6,28.448Zm-.225-1.88a1.373,1.373,0,0,1,1.619.078A3.984,3.984,0,0,1,121.371,26.568Zm21.559,5.583-.062.154c-.616-.226-1.243-.426-1.846-.684-1.185-.506-2.374-1.011-3.53-1.579-1-.489-2.018-.9-3.045-1.312a22.119,22.119,0,0,0-5.033-1.371,26.362,26.362,0,0,0-3.983-.466,14.57,14.57,0,0,1-1.941-.239l.025-.182c.36.006.721,0,1.079.022.912.06,1.831.077,2.731.216,1.343.208,2.685.454,4,.78,1.2.3,2.377.7,3.546,1.1.637.221,1.235.553,1.854.828.788.351,1.579.7,2.368,1.043l2.923,1.283C142.323,31.88,142.626,32.016,142.93,32.151Zm-9.857-5.511c.607.109,1.157.346,1.738.507a3.482,3.482,0,0,1,1.327.6,8.6,8.6,0,0,0,1.784.936,27.246,27.246,0,0,1,3.608,2.178.45.45,0,0,1,.177.286c-.537-.231-1.08-.45-1.611-.7-1.17-.54-2.305-1.174-3.513-1.608a10.353,10.353,0,0,0-1.757-.686,14.962,14.962,0,0,1-1.86-.607,26.449,26.449,0,0,0-3.3-.972,14.841,14.841,0,0,0-3.51-.433,9.778,9.778,0,0,1-1.908-.126,4.012,4.012,0,0,1-.995-.331c-.386-.163-.757-.362-1.159-.558a1.13,1.13,0,0,0,.248-.044,1.54,1.54,0,0,1,1.65.094c.166.119.478.047.722.045a27.725,27.725,0,0,1,2.874.224,28.289,28.289,0,0,1,3.284.537C131.618,26.145,132.324,26.505,133.072,26.64Zm-4.13-1.95q.007-.065.014-.131a27.727,27.727,0,0,1,5.547.712Zm7.129.294c-.857-.162-1.733-.227-2.6-.335-.74-.092-1.479-.208-2.221-.264a27.193,27.193,0,0,0-3.141-.3,12.738,12.738,0,0,1-2.034-.235l-.01-.136c.388-.053.775-.114,1.165-.156.546-.059,1.09.174,1.647,0,.166-.053.386.086.585.113a18,18,0,0,0,2.592.314c1.3-.015,2.544.428,3.848.369a8.616,8.616,0,0,1,1.619.269c.408.062.821.083,1.23.136.142.018.278.08.418.112.254.058.509.114.764.161.122.023.251.01.371.04.728.183,1.449.4,2.181.555.555.121,1.126.162,1.685.269.405.078.8.216,1.2.309.325.076.657.127.986.183.058.01.166-.031.174-.013.211.464.683.283,1.024.416.364.141.762.2,1.113.37a12.141,12.141,0,0,1,2.069.783,5.59,5.59,0,0,0,1.063.483,5.15,5.15,0,0,1,1.838,1.184c.089.1.27.1.381.182a9.325,9.325,0,0,1,1.863,2.161l-.1.092a25.9,25.9,0,0,1-2.8-1.481,22.231,22.231,0,0,0-3.777-1.881c-1-.436-2.036-.768-3.056-1.148-.731-.272-1.452-.571-2.193-.814a19.291,19.291,0,0,0-2-.545C139.994,25.761,138.036,25.354,136.072,24.983Zm19.966,7.9a9.238,9.238,0,0,1-3.7-1.5c-.772-.515-1.607-.934-2.405-1.412a20.719,20.719,0,0,0-4.069-1.853c-1.326-.445-2.656-.879-3.981-1.328a7.632,7.632,0,0,1-.72-.327l.03-.088c.3.1.6.231.916.306.68.164,1.382.253,2.047.462.755.238,1.476.579,2.217.863.441.169.9.3,1.336.475.662.257,1.327.51,1.971.807.887.41,1.761.849,2.63,1.3a7.43,7.43,0,0,1,.745.521,2.959,2.959,0,0,0,.369.215c.952.465,1.905.926,2.856,1.393.023.011.021.071.046.166A1.842,1.842,0,0,1,156.038,32.882Z" transform="translate(0 0)" fill="#36474f"/>
    <path id="Path_15000" data-name="Path 15000" d="M7.082,6.413c-.611-.342-1.055-.9-1.625-1.291A8.836,8.836,0,0,1,4.319,4.2c-.99-.964-1.953-1.951-2.928-2.927C.964.849.533.425.1,0L0,.035C.007.1-.012.174.025.212Q1.081,1.292,2.15,2.363c.445.444.939.856,1.349,1.319A9.063,9.063,0,0,0,5.072,5.1a4.447,4.447,0,0,1,.918.7A6.09,6.09,0,0,0,7.272,6.823a1.337,1.337,0,0,0,.349.109c-.1-.106-.169-.206-.237-.288Q7.233,6.53,7.082,6.413Z" transform="translate(4.748 4.469)" fill="#36474f"/>
    <path id="Path_15001" data-name="Path 15001" d="M2.832,1.955C1.559,1.791.886.741,0,0A16.31,16.31,0,0,1,2.832,1.955Z" transform="translate(9.881 11.271)" fill="#36474f"/>
    <path id="Path_15002" data-name="Path 15002" d="M2.341,1.418A10.888,10.888,0,0,1,0,.1C.188-.109.41.054.6.163q.755.43,1.5.883a2.321,2.321,0,0,1,.317.284Z" transform="translate(12.799 11.732)" fill="#36474f"/>
    <path id="Path_15003" data-name="Path 15003" d="M1.1,0A2.91,2.91,0,0,1,0,2.4a1.208,1.208,0,0,1,.058-.35C.237,1.693.445,1.346.623.985A.531.531,0,0,0,.672.626C.538.218.82.135,1.1,0Z" transform="translate(140.321 10.263)" fill="#36474f"/>
    <path id="Path_15004" data-name="Path 15004" d="M0,.014A10.731,10.731,0,0,1,4,.6,9.819,9.819,0,0,1,0,.014Z" transform="translate(112.653 27.63)" fill="#36474f"/>
    <path id="Path_15005" data-name="Path 15005" d="M.147,0,1.3.492A1.14,1.14,0,0,1,.147.465C.063.435.047.213,0,.08Z" transform="translate(117.805 28.344)" fill="#36474f"/>
    <path id="Path_15006" data-name="Path 15006" d="M.013,4.644A3.161,3.161,0,0,1,1.2,3.6a8.46,8.46,0,0,0,1.757-1.44A.6.6,0,0,1,3.14,2,1.288,1.288,0,0,0,3.878.868,1.249,1.249,0,0,1,4.613,0a1.907,1.907,0,0,1-.019.4,6.813,6.813,0,0,0-.3.934,1.1,1.1,0,0,1-.465.7c-.675.56-1.37,1.1-2.066,1.629-.24.184-.508.331-.762.5a4.6,4.6,0,0,1-.5.319,3.159,3.159,0,0,1-.5.149Z" transform="translate(84.654 22.189)" fill="#36474f"/>
    <path id="Path_15007" data-name="Path 15007" d="M1.791,0C1.568,1.02.76,1.32,0,1.7c.047-.083.075-.193.145-.246.383-.285.88-.424,1.032-.986C1.224.3,1.521.2,1.791,0Z" transform="translate(117.413 17.007)" fill="#36474f"/>
    <path id="Path_15008" data-name="Path 15008" d="M2.865,2.424c-.138-.021-.289,0-.358-.062C1.686,1.6.877.83,0,0A5.551,5.551,0,0,1,2.865,2.424Z" transform="translate(26.632 21.114)" fill="#36474f"/>
    <path id="Path_15009" data-name="Path 15009" d="M.03,0A9.479,9.479,0,0,1,1.943,2.941a3.668,3.668,0,0,0,.449.736c.645.98,1.36,1.92,1.921,2.946A24.722,24.722,0,0,0,6.085,9.158a.389.389,0,0,1,.021.355,2.944,2.944,0,0,1-.323-.327C5.307,8.527,4.841,7.861,4.369,7.2c-.154-.215-.328-.417-.476-.636A18.019,18.019,0,0,1,2.536,4.487a11.964,11.964,0,0,1-1.29-2.321,2.865,2.865,0,0,0-.5-.785C.5,1.018.247.662.017.291-.025.223.023.1.03,0Z" transform="translate(21.364 28.657)" fill="#36474f"/>
    <g id="Group_21599" data-name="Group 21599" transform="translate(1.887 0.121)">
      <path id="Path_15010" data-name="Path 15010" d="M.038.795C.183.743.278.58.4.538c.586-.2.912.838,1.1,1.169a12.99,12.99,0,0,0,1.77,2.268c.589.643,1.226,1.238,1.842,1.854.713.713,1.349,1.5,2.06,2.211a17.622,17.622,0,0,0,4.1,3.116,19.966,19.966,0,0,0,2.373,1.066,5.913,5.913,0,0,0,2.878.641c.141-.024.18-.3.067-.377a11.718,11.718,0,0,0-2.827-.922,14.9,14.9,0,0,1-2.87-1.268A18.573,18.573,0,0,1,6.466,6.655C5.144,5.205,3.658,3.9,2.443,2.359a10.081,10.081,0,0,1-.853-1.28A3.388,3.388,0,0,0,1.036.163C.473-.31.394.367.031.651,0,.673-.024.817.038.795Z" transform="translate(0 0)" fill="#36474f"/>
    </g>
  </g>
</svg>
