<svg id="botanic-image-shopa-bottom" xmlns="http://www.w3.org/2000/svg" width="341.762" height="159.871" viewBox="0 0 341.762 159.871">
  <g id="Group_21600" data-name="Group 21600" transform="matrix(0.995, 0.105, -0.105, 0.995, -122.382, -107.948)">
    <path id="Path_14998" data-name="Path 14998" d="M159.153,102.676a13.827,13.827,0,0,0,2.747,3.17,3.2,3.2,0,0,0,.469.246l-3.406-4.586c-.363-.324-.705-.665-1.03-1.018q-.171.048-.329.11C158.153,101.278,158.676,101.972,159.153,102.676Z" transform="translate(-7.154 -4.539)" fill="#282828"/>
    <path id="Path_14999" data-name="Path 14999" d="M474.808,161.742c-1.381-2.67-2.865-5.215-5.5-6.885-1.232-.78-2.317-1.8-3.573-2.53-3.644-2.123-7.688-3.281-11.666-4.559-2.325-.748-4.741-1.23-7.135-1.744-3.826-.822-7.666-1.579-11.5-2.343-.5-.1-1.034-.056-1.547-.12-1.224-.151-2.445-.326-3.668-.492a1.38,1.38,0,0,1,.676-.324c1.5-.341,3.036-.585,4.5-1.037,2.1-.644,4.15-1.422,6.21-2.177a25.638,25.638,0,0,0,3.624-1.476c2.01-1.113,4.235-1.811,6.092-3.219,1.183-.9,2.287-1.811,2.424-3.436a2.766,2.766,0,0,1,.2-.758,2.16,2.16,0,0,0-.649-2.6,4.678,4.678,0,0,0-1.926-.982c-.983-.076-2.053-.543-2.97.61a15.767,15.767,0,0,1-3.139,2.7c-1.091.8-2.276,1.47-3.438,2.167a21.255,21.255,0,0,1-2.176,1.173q-3.952,1.785-7.931,3.509a35.905,35.905,0,0,1-4.533,1.861c-3.14.879-6.331,1.576-9.508,2.32a7.324,7.324,0,0,1-1.365.065l-.077-.264c.409-.22.815-.443,1.226-.659,1.244-.655,2.518-1.259,3.728-1.971,1.88-1.105,3.732-2.259,5.567-3.438,1.337-.859,2.736-1.614,4.068-2.477.431-.28.788-.671,1.193-.993.232-.185.5-.331.741-.5,1.259-.863,2.56-1.673,3.762-2.609.994-.775,1.871-1.7,2.8-2.559a18.182,18.182,0,0,0,3.013-3.03c1.385-2.032,1.937-4.411,3.12-6.507a1.349,1.349,0,0,0,.1-.515c.083-.809.159-1.62.236-2.43.152-1.592.4-3.195-.481-4.669a3.891,3.891,0,0,1-1.18-.044,1.887,1.887,0,0,0-2.031.542,9.718,9.718,0,0,0-1.022.961,13.807,13.807,0,0,1-2.292,2.645c-1.686,1.123-2.276,3.133-3.92,4.3-.966.683-1.523,1.926-2.323,2.867a38.033,38.033,0,0,1-6.637,6.26c-1.937,1.4-3.542,3.22-5.7,4.336-2.295,1.186-4.384,2.737-6.735,3.835-2.11.985-4.189,2.037-6.294,3.035-.957.453-1.939.854-2.916,1.262-1.308.546-2.612,1.127-3.929,1.62-2.371.888-4.848,1.5-7.291,2.188-.482.136-1.025.051-1.516.167-1.506.356-2.985.842-4.5,1.122a29.981,29.981,0,0,1-3.972.368c-.731.035-1.469-.128-2.2-.135-1.154-.011-2.309.04-3.463.047-.08,0-.161-.151-.264-.255,2.013-1.058,3.973-2.091,5.936-3.12,2.357-1.235,4.736-2.432,7.068-3.713,1.207-.663,2.354-1.442,3.495-2.219,1.005-.684,1.917-1.516,2.96-2.129a15.567,15.567,0,0,0,1.655-1.35c1-.776,1.515-1.937,2.423-2.768.143-1.61,1.35-3.026.887-4.892a3.477,3.477,0,0,0-1.108.174c-1.125.612-2.217,1.285-3.313,1.948-1.912,1.156-3.814,2.327-5.727,3.483a11.555,11.555,0,0,1-2.549,1.43,5.742,5.742,0,0,0-2.32,1.326,1.238,1.238,0,0,1-.32.176l-5.973,2.728c-.6.274-1.2.552-1.75.806a43.962,43.962,0,0,0,2.656-4.165,4.537,4.537,0,0,0-.1-4.593,1.473,1.473,0,0,0-.934-.55c-.337-.054-.644.094-.825.565a4.136,4.136,0,0,1-1.109,1.68c-1.516,1.254-3.121,2.4-4.691,3.59-.5.38-.99.778-1.507,1.136-1.158.8-2.309,1.619-3.5,2.365-1.059.662-2.165,1.251-3.263,1.848-1.969,1.069-3.932,2.152-5.929,3.167-1.576.8-3.2,1.517-4.8,2.256a1.493,1.493,0,0,1-.507.042c.376-.516.683-.971,1.025-1.4a12.893,12.893,0,0,1,1.13-1.283c1.3-1.241,2.413-2.659,3.744-3.885a34.972,34.972,0,0,0,3.1-3.7c1.816-2.217,3.68-4.4,5.427-6.67,1.15-1.5,2.164-3.1,3.17-4.7a5.167,5.167,0,0,0,.8-2.561,26.14,26.14,0,0,1,.676-2.771c.228-1.391.787-2.787.1-4.217a2.581,2.581,0,0,1-.072-.9c-1.693-.411-2.462-.069-3.267,1.467a7.668,7.668,0,0,1-.788,1.474c-1.57,1.832-3.234,3.592-4.672,5.527-1.426,1.919-3.291,3.419-4.763,5.291-.811,1.031-1.913,1.828-2.808,2.8-1.153,1.254-2.2,2.6-3.349,3.862-.9.985-1.959,1.829-2.812,2.849a17.513,17.513,0,0,1-3.525,3.413,8.02,8.02,0,0,0-2.115,1.912c-1.422,2.048-3.534,3.3-5.418,4.767-2.042,1.595-4.41,2.765-6.571,4.217-2.691,1.807-5.836,2.412-8.851,3.443a21.2,21.2,0,0,1,2.529-1.942,24.871,24.871,0,0,0,3.4-2.336,23.78,23.78,0,0,1,3.574-2.721c.24-.157.472-.324.7-.5a4.51,4.51,0,0,0,1.229-2.214c.517-1.3,1.12-2.566,1.758-4.008a4.406,4.406,0,0,0-1.128-.362c-.594-.015-1.192.155-1.786.141a4.786,4.786,0,0,0-3.143.708c-.777.562-1.706.908-2.532,1.41-.437.266-.765.711-1.2.986-1.637,1.041-3.3,2.045-4.948,3.067a7.057,7.057,0,0,0-1.374.9,17.491,17.491,0,0,1-4.847,2.96c-.618.316-1.2.66-1.79,1.019a15.168,15.168,0,0,1-7.144,2.619,21.79,21.79,0,0,0-2.536.4c-1.781.3-3.551.7-5.344.89-2,.213-4.027.279-6.044.337-1.324.038-2.652-.051-3.977-.084q-.009-.15-.017-.3c.481-.073.961-.171,1.445-.209.314-.024.647.109.952.057,2.2-.375,4.375-.915,6.586-1.134a33.778,33.778,0,0,0,6.05-1.614c1.924-.556,3.764-1.408,5.631-2.157a12.8,12.8,0,0,1,1.584-.775c1.343-.324,2.294-1.309,3.445-1.944,1.466-.808,2.765-1.913,4.173-2.832a3.806,3.806,0,0,0,1.568-1.6c.225-.509.481-1.005.711-1.512a4.023,4.023,0,0,0,.324-2.917c-.185-.612-.3-1.243-.453-1.876-.915-.256-.9-.243-1.647.352a4.391,4.391,0,0,1-.8.417c-1.12.562-2.242,1.118-3.36,1.684-.89.451-1.759.949-2.667,1.361-1.294.587-2.651,1.042-3.918,1.678a71.614,71.614,0,0,1-8.29,3.94c-2.31.809-4.562,1.782-6.866,2.609-.395.142-.9.532-1.511.061.349-.246.622-.443.9-.633,1.272-.865,2.582-1.679,3.808-2.6,1.52-1.145,2.955-2.4,4.46-3.571,1.289-1,2.637-1.926,3.936-2.914.807-.615,1.556-1.307,2.361-1.926,1.452-1.117,2.922-2.209,4.391-3.3,1.771-1.321,3.538-2.645,5.325-3.943.449-.326.973-.548,1.453-.833q3.58-2.13,7.155-4.268c.037-.022.081-.034.12-.055,1.827-1,3.655-1.989,5.476-3,.422-.233.806-.534,1.227-.77,2.748-1.54,5.5-3.069,8.251-4.609a5.287,5.287,0,0,0,.6-.493c-.385-.336-.667-.792-1.014-.848a31.7,31.7,0,0,0-3.738-.364c-.719-.031-1.444.153-2.168.171a14.241,14.241,0,0,0-3.082.041c-.907.235-1.85.325-2.76.577-1.189.33-2.386.655-3.551,1.064a28.987,28.987,0,0,0-4.188,1.681,5.865,5.865,0,0,1-2.308.948.586.586,0,0,0-.246.064c-2.244,1.313-4.539,2.549-6.711,3.972-2,1.31-3.88,2.809-5.789,4.256-.537.407-.971.948-1.487,1.387-.809.689-1.646,1.346-2.476,2.011-.873.7-1.75,1.394-2.625,2.09a23.874,23.874,0,0,0,1.863-8.314,16.827,16.827,0,0,0-1.6-8.3,5.069,5.069,0,0,0-.822-1.174c-1-1.19-2.563-1.372-3.848-2.044-.814-.425-1.442.311-1.183,1.281s.671,1.927.9,2.915a21.613,21.613,0,0,1-.779,11c-.217.747-.462,1.488-.727,2.219a26.649,26.649,0,0,1-1.211,3.129,23.526,23.526,0,0,1-1.976,3.13,31.683,31.683,0,0,1-2.538,3.07c-.621.657-1.435,1.126-2.105,1.741-1.064.975-2.017,2.079-3.134,2.986-1.214.985-2.546,1.828-3.851,2.7-1.275.848-2.544,1.717-3.882,2.455-1.422.784-2.994,1.31-4.371,2.159a8.683,8.683,0,0,1-5.816,1.2c-1.882-.216-3.792-.179-5.683-.334-1.819-.149-3.638-.343-5.439-.63-1.258-.2-2.483-.6-3.728-.891-1.719-.4-3.443-.783-5.165-1.172l-.126-.26a8.611,8.611,0,0,0,4.013-4.276c.652.7.885.776,1.505.6.538-.148,1.085-.27,1.626-.41,1.327-.345,2.666-.654,3.978-1.051,1.768-.536,3.5-1.2,5.277-1.7a36.557,36.557,0,0,0,7.281-2.748,62.255,62.255,0,0,0,7.651-4.706,6.5,6.5,0,0,0,2.858-5.579,19.65,19.65,0,0,0-2.939.769c-2.966,1.288-5.882,2.689-8.836,4.006-.8.356-1.66.569-2.493.847a1.031,1.031,0,0,1,.514-.633,12.594,12.594,0,0,0,4.689-4.646c.651-1.01,1.19-2.093,1.757-3.155a2.371,2.371,0,0,0-.989-3.038c-.566-.266-1.13-.73-1.793-.256a5.985,5.985,0,0,0-.977.844,17.685,17.685,0,0,1-6.786,4.415c-2.355.946-4.816,1.667-7.075,2.8-2.006,1-4.133,1.6-6.193,2.464a1.48,1.48,0,0,1,.473-.612c2.4-1.8,4.809-3.577,7.195-5.391a16.562,16.562,0,0,0,1.712-1.561A26.242,26.242,0,0,1,260,121.637a29.394,29.394,0,0,0,3.736-3.875c1.426-1.481,2.549-3.276,4.068-4.64,1.849-1.661,2.789-3.94,4.407-5.738a7.6,7.6,0,0,0,1.612-2.479c.89-2.606,3.095-4.214,4.574-6.363.077-.111.232-.169.445-.319L277.8,97.131a21.77,21.77,0,0,0-6.683,2.932c-2.158,1.281-3.59,3.308-5.513,4.824a36.552,36.552,0,0,0-4.381,4.517c-.824.923-1.433,2.038-2.256,2.963-1.71,1.922-3.482,3.79-5.258,5.652-1.441,1.51-2.9,3-4.4,4.457-.868.844-1.918,1.514-2.715,2.415a23.551,23.551,0,0,1-6.013,4.4,75.122,75.122,0,0,1-9.549,4.671,58.979,58.979,0,0,1-7.334,2.094,12.653,12.653,0,0,1-2.392.384c-1.456.1-2.918.132-4.378.152a13.672,13.672,0,0,1-3.2-.1c-2.24-.517-4.444-1.2-6.643-1.882a22.011,22.011,0,0,1-2.4-1.053,2.953,2.953,0,0,1,.955-.047q3.86-.161,7.718-.355a12.428,12.428,0,0,0,1.922-.165c1-.209,1.962-.566,2.96-.766,2.473-.5,5.042-.62,7.289-1.958.075-.045.163-.067.24-.108,1.065-.564,2.143-1.106,3.187-1.707.377-.217.647-.613,1.01-.864.558-.385,1.088-.815,1.089-1.526a6.9,6.9,0,0,0-.381-1.563,3.409,3.409,0,0,1-2.708.432,3.247,3.247,0,0,0-1.38.2c-.712.154-1.413.358-2.126.5q-1.58.325-3.17.6a25.718,25.718,0,0,0-3.055.489c-2.926.876-5.969.68-8.944,1.078a20.156,20.156,0,0,1-2.7.016c-1.249,0-2.5.019-3.747-.021-1.34-.042-2.68-.109-4.015-.227-1.758-.155-3.511-.364-5.264-.566-.4-.047-.8-.158-1.2-.24,1.664-.134,3.305.005,4.936-.076,2.49-.125,4.977-.358,7.456-.631,1.752-.193,3.492-.512,5.232-.8a31.834,31.834,0,0,0,4.391-.831c2.417-.767,4.75-1.8,7.154-2.611a58.669,58.669,0,0,0,10.059-4.981,27.484,27.484,0,0,0,5.823-4.167,21.391,21.391,0,0,0,5.1-7.172,1.213,1.213,0,0,0-.569-1.81l.562-.75c-.342-.07-.747-.215-.784-.15-.481.842-1.226.328-1.9.373-.512.623-1.025,1.259-1.55,1.883a7.9,7.9,0,0,1-3.9,2.642c-2.352.672-4.4,2-6.593,3.022a27,27,0,0,1-2.527,1.482,25.647,25.647,0,0,0-3.415,1.54c-.534.269-1.027.621-1.558.9a10.033,10.033,0,0,1-2.791,1.321c-1.093.17-2.05.649-3.089.881-1.838.411-3.52,1.394-5.5,1.313A7.892,7.892,0,0,0,206,118.7a18.179,18.179,0,0,1-3.632.913c-.421.059-.871-.071-1.286.005a25.708,25.708,0,0,1-4.629.071c-1.461.01-2.9.28-4.356.355a19.875,19.875,0,0,1-3.492-.459c-3.117-.37-6.229-.739-9.332-1.222,0,.17.166.285.314.367,7.155,3.948,16.229,2.665,24.025,2.129,1.667-.115,3.339-.215,4.99-.452,2.147-.309,4.3-.662,6.405-1.162a30.085,30.085,0,0,0,3.622-1.381,10.308,10.308,0,0,1,1.083-.3c.121-.032.317,0,.364-.066.78-1.165,2.2-1.2,3.27-1.873a27.981,27.981,0,0,1,2.792-1.364c1.6-.772,3.2-1.554,4.81-2.313.583-.275,1.223-.44,1.782-.755,1.88-1.058,3.782-2.09,5.578-3.279a13.083,13.083,0,0,0,2.041-2.137c.118-.127.25-.241.5-.478-.229.963-3.857,4.8-5.672,6.076-2.218,1.561-4.472,3.071-6.763,4.639,1.077.62,1.914-.216,2.711-.648,1.347-.731,2.583-1.667,3.867-2.515a1.049,1.049,0,0,1,.722-.2,2.685,2.685,0,0,1-.54.7c-2.06,1.325-4.106,2.679-6.225,3.905-1.4.811-2.915,1.425-4.379,2.127l-.14-.233,3.365-2c-.542-.111-.795-.244-.99-.186a6.2,6.2,0,0,0-1.679.652,22.952,22.952,0,0,1-6.669,2.655c-1.811.514-3.653.917-5.482,1.366-1.792.44-3.582.889-5.38,1.3a11.621,11.621,0,0,1-1.526.181,37.5,37.5,0,0,0-4.715.484,16.825,16.825,0,0,1-3.766.333c-2.084,0-4.167-.145-6.251-.229a25.829,25.829,0,0,1-2.88-.136c-2.8-.431-5.579-.984-8.379-1.4a19.9,19.9,0,0,0-5.918-.039c-.755.115-1.421.82-1.972,1.161a6.238,6.238,0,0,0-1.883-.249c-1.191.244-1.881-.458-2.693-.976l.053-.272,2.39-.079.1-.323c-.652-.621-1.3-1.25-1.959-1.861-.5-.461-1.033-.886-1.529-1.351a52.369,52.369,0,0,1-4.524-4.792c-.406-.49-.994-.826-1.433-1.295-1.952-2.081-3.865-4.2-5.829-6.268a3.211,3.211,0,0,0-1.563-.831c.122.214.191.518.375.628,1.414.839,2.186,2.248,3.183,3.461.427.52,1.025.9,1.471,1.4.35.4.233.7-.575.653l3.571,2.318-.12.282c-.571-.117-1.155-.193-1.71-.364a1.89,1.89,0,0,1-.834-.537c-1.444-1.666-2.86-3.358-4.288-5.038-1.26-1.483-2.528-2.96-3.787-4.444-.867-1.022-1.739-2.04-2.576-3.086-.135-.168-.1-.471-.148-.711l.3-.142c.518.649,1.058,1.282,1.548,1.951.465.635.833,1.368,1.947,1.488-.87-1.282-1.587-2.384-2.352-3.453-.934-1.306-1.018-1.783-.108-3.125a7.254,7.254,0,0,1,1.575-1.514,1.212,1.212,0,0,1,.7-.277,7.275,7.275,0,0,1,.735-.5c-.027-.038-.057-.075-.084-.114a1.688,1.688,0,0,1-.689-.676l-.062,0a2.505,2.505,0,0,0-2.21.844,13.984,13.984,0,0,0-1.716,2.533c-.378.818-1.128,1.561-.874,2.605-1.015.659-.169,1.12.047,1.783.229.7.791.834,1.151,1.262.663.787,1.354,1.551,2.037,2.322.139.157.422.306.418.451-.032,1.038.934,1.422,1.37,2.146.189.313.7.446.854.763.887,1.794,2.552,2.928,3.725,4.479.778,1.028,1.689,1.957,2.552,2.92a22.759,22.759,0,0,0,2.763,2.953,10.705,10.705,0,0,1,1.869,1.756,11.9,11.9,0,0,0,3.048,2.941c.619.382.99,1.188,1.621,1.521a18.19,18.19,0,0,1,3.66,3.206,14.771,14.771,0,0,1,2.756,3.48,48.439,48.439,0,0,0,3.3,4.443,16.459,16.459,0,0,1,3.066,6.305c.3,1.382.585,2.773.752,4.174.232,1.951.358,3.916.505,5.877.1,1.282.065,2.58.237,3.851.283,2.1.736,4.175,1.016,6.274a32.474,32.474,0,0,0,4.687,11.047c1.242,2.078,3.006,3.7,4.454,5.588a2.776,2.776,0,0,0,2.8.481c.91-.4.516-1.2.543-1.823.015-.335-.309-.686-.484-1.028a16.478,16.478,0,0,1-.993-1.971,21.324,21.324,0,0,0-1.778-4,11.161,11.161,0,0,1-1.109-3.252c-.393-1.716-.567-3.484-.991-5.191-.454-1.83-1.093-3.614-1.637-5.422-.031-.1.063-.243.171-.613.512.685.961,1.2,1.309,1.768,1.309,2.156,2.548,4.355,3.884,6.493.945,1.511,1.979,2.968,3.019,4.416.943,1.312,2.053,2.515,2.9,3.883a38.9,38.9,0,0,0,3.675,4.818c1.268,1.478,2.7,2.809,4,4.263a25.675,25.675,0,0,0,4.5,4.245c.779.535,1.5,1.163,2.28,1.689.745.5,1.57.88,2.311,1.384,1.07.727,2.068,1.562,3.148,2.274a36.992,36.992,0,0,0,6.305,3.2,8.811,8.811,0,0,0,3.8,1.006.933.933,0,0,0,.989-1.029,3.648,3.648,0,0,0-1.295-2.679c-1.322-1.053-2.655-2.1-4.029-3.08a41.308,41.308,0,0,1-5.244-4.185c-1.311-1.305-2.607-2.625-3.913-3.934-1.533-1.536-3.14-3-4.588-4.615-2.213-2.463-4.333-5.01-6.461-7.548-1.516-1.809-3.009-3.639-4.457-5.5-1.029-1.324-2.014-2.689-2.927-4.1-.788-1.214-1.4-2.541-2.171-3.768a39.59,39.59,0,0,1-2.539-4.984c-.723-1.621-1.521-3.209-2.269-4.819-.179-.384-.29-.8-.432-1.2,1.15,1.2,2.107,2.453,3.155,3.627,1.063,1.19,2.2,2.317,3.331,3.443,1.049,1.043,2.138,2.046,3.2,3.072a4.722,4.722,0,0,1,1.123,1.163c.448.958,1.443,1.326,2.042,2.133a12.378,12.378,0,0,0,2.128,1.817c.786.66,1.547,1.349,2.347,1.992q1.7,1.367,3.444,2.681a28.568,28.568,0,0,0,3.133,2.22c1.761.981,3.592,1.841,5.421,2.691a44.419,44.419,0,0,0,4.632,1.939,5.313,5.313,0,0,0,2.39.026c.4-.061.737-.518,1.183-.857a1.647,1.647,0,0,0-.332-.572q-1.246-.979-2.546-1.889c-1.726-1.212-3.51-2.346-5.191-3.617-2.506-1.9-4.948-3.877-7.406-5.835-.7-.558-1.381-1.145-2.044-1.748-1.684-1.533-3.425-3.012-5.011-4.642-2.192-2.252-4.257-4.627-6.386-6.94-1.2-1.309-2.431-2.6-3.647-3.9a6.45,6.45,0,0,1,2.074.531c.341.131.809.158,1,.4.726.924,2.115,1.076,2.589,2.27.024.061.146.083.224.123,2.445,1.253,4.032,3.4,5.676,5.478.671.848,1.264,1.759,1.958,2.587a16.765,16.765,0,0,0,2.382,2.539c1.108.865,2.168,1.938,3.791,1.9,1.152-1.473,1.191-2.379.129-4.024a3.471,3.471,0,0,1-.459-.793c-.423-1.366-.813-2.742-1.239-4.2a2.478,2.478,0,0,1,.469.1c2.2.973,4.4,1.936,6.59,2.936a33.816,33.816,0,0,1,3.331,1.673,40.363,40.363,0,0,1,3.354,2.309q2.059,1.534,4.046,3.165c.8.656,1.514,1.406,2.272,2.109.694.644,1.385,1.292,2.093,1.92a11.73,11.73,0,0,0,1.784,1.477,21.768,21.768,0,0,1,3.721,3.206c1.508,1.4,2.94,2.872,4.433,4.285,1.086,1.029,2.238,1.989,3.321,3.02.965.92,1.83,1.949,2.832,2.824.483.422.671.82.423,1.343a7.468,7.468,0,0,1-1.375,2.59,7.082,7.082,0,0,0-1.762,3.71c.913.05,1.514.355,1.638,1.147a11.686,11.686,0,0,0,4.462-1.523,4.005,4.005,0,0,0,2.243-2.251c.049-.145.231-.244.41-.423.294.286.57.539.828.809.682.716,1.3,1.5,2.045,2.145,1.039.892,2.191,1.651,3.258,2.511,2.254,1.814,4.482,3.66,6.726,5.486a35.093,35.093,0,0,0,4.7,2.913,28.494,28.494,0,0,0,5.675,2.138c1.121.368,2.266.669,3.411.96.8.2,1.289-.212,1.553-.977.361-1.047-.492-1.643-.99-2.019-1.64-1.236-3.478-2.2-5.2-3.344-1.827-1.212-3.66-2.428-5.383-3.779-1.828-1.434-3.541-3.016-5.283-4.557-1.841-1.629-3.672-3.269-5.476-4.94-1.268-1.175-2.4-2.517-3.751-3.579a4.661,4.661,0,0,1-1.478-2.493,42.427,42.427,0,0,0-1.609-4.611,16.551,16.551,0,0,0-3.813-5.031,3.215,3.215,0,0,1-1.182-2.228,32.236,32.236,0,0,0,3.823,2.585,32.987,32.987,0,0,1,3.814,2.516,25.764,25.764,0,0,0,2.876,1.9c.445.22.89.316,1.156.782a.868.868,0,0,0,.405.295c1.021.444,1.5,1.526,2.453,2.068.431.244.711.74,1.094,1.084.955.857,1.9,1.734,2.9,2.524,1.245.975,2.228,2.238,3.711,2.971a8.073,8.073,0,0,1,2.542,2.148,3.178,3.178,0,0,0,1.856,1.45c1.605-.888,1.723-1.229.915-2.744a19.8,19.8,0,0,0-3.8-5.372c-.475-.443-.918-.92-1.368-1.389-1.313-1.37-2.589-2.778-3.944-4.106-.919-.9-1.945-1.692-2.924-2.533a26.177,26.177,0,0,1,5.673,2.171c2.278,1.356,4.815,2.269,7.172,3.5,2.116,1.109,4.143,2.39,6.2,3.6,1.757,1.035,3.525,2.051,5.254,3.131,1.923,1.2,3.892,2.354,5.686,3.73,1.968,1.509,4.079,2.8,5.954,4.477,1.656,1.481,3.461,2.811,4.993,4.449.736.786,1.78,1.424,2.183,2.347.58,1.327,1.687,2.1,2.51,3.159a5.792,5.792,0,0,0,1.222,1.309,3.309,3.309,0,0,1,1.451,1.744,4.069,4.069,0,0,0,.811,1.165c.844,1.022,1.771,1.982,2.547,3.052,1.055,1.454,1.988,3,3,4.483.364.535.839.995,1.209,1.526a10.012,10.012,0,0,1,1.72,2.751,4.7,4.7,0,0,0,1.293,2.046c1.406,1.256,1.756,3.064,2.59,4.606.646,1.193.667,1.353,1.991,1.177.69-.092.958-.433.759-1.016a2.074,2.074,0,0,1,.271-1.557,5.1,5.1,0,0,0,.595-1.956,16.744,16.744,0,0,0-.7-4.434,52.338,52.338,0,0,0-3.032-7.666,53.584,53.584,0,0,0-5.147-7.664c-.558-.708-1.1-1.427-1.588-2.059.963-.791,1.911-.372,2.855-.2a1.687,1.687,0,0,1,.258.054c.611.213.976-.056,1.235-.68-.847-1.069-1.706-2.177-2.591-3.262a20.007,20.007,0,0,0-2.073-2.392c-1.955-1.737-4-3.374-5.989-5.07-1.279-1.089-2.477-2.28-3.807-3.3-1.355-1.038-2.829-1.92-4.25-2.871-.366-.244-.729-.492-1.093-.738a14.949,14.949,0,0,1,3.009,1.019c1.525.683,3.013,1.454,4.551,2.1,1.185.5,2.424.873,3.638,1.306a1.3,1.3,0,0,1,.466.216,10.885,10.885,0,0,0,2.819,1.825c2.008,1,3.912,2.208,5.858,3.331,1.263.729,2.587,1.374,3.77,2.217a25.258,25.258,0,0,1,3.893,2.7,2.47,2.47,0,0,0,2.322,1.026,15.466,15.466,0,0,0-.106-1.688,4.61,4.61,0,0,0-1.156-2.8c-1.47-1.394-2.919-2.81-4.379-4.215a15.972,15.972,0,0,0-1.6-1.5,34.152,34.152,0,0,0-3.106-2.021c-1.73-.987-3.165-2.37-4.907-3.381s-3.5-2-5.25-2.992a39.567,39.567,0,0,0-5.242-2.741c-1.3-.5-2.5-1.246-3.912-1.965,7.119.616,13.888,1.807,20.453,4.876a7.434,7.434,0,0,0-.856-2.051,17.06,17.06,0,0,0-3.693-2.738A47.7,47.7,0,0,0,315,162.64a19.09,19.09,0,0,1,4.408-.126c1.764.356,3.534,0,5.274.4a15.524,15.524,0,0,0,2.591.215c1.6.09,3.213.1,4.809.261a14.311,14.311,0,0,1,2.96.63c1.31.422,2.568,1,3.865,1.472a40.026,40.026,0,0,1,6.726,2.939,34.482,34.482,0,0,1,4.862,3.725c1.24,1.057,2.135,2.5,3.665,3.23.107.051.178.188.254.293,1.014,1.4,2.023,2.807,3.044,4.2.147.2.367.348.53.54a18.08,18.08,0,0,1,1.439,1.772c.781,1.211,1.486,2.471,2.221,3.712a2.9,2.9,0,0,1,.531.966,22.056,22.056,0,0,0,1.027,2.877,16.452,16.452,0,0,0,2.136,4.083,14.078,14.078,0,0,0,1.463,1.725c.5-.694.874-1.263,1.308-1.779.257-.305.794-.469.9-.794a9.037,9.037,0,0,0,.236-5.621,46.039,46.039,0,0,0-1.978-5.1c-.759-1.645-1.706-3.2-2.572-4.806.865.537,1.787,1.067,2.665,1.662,1.837,1.244,3.636,2.543,5.48,3.775.781.522,1.649.914,2.454,1.4,1.234.749,2.408,1.607,3.681,2.278a30.536,30.536,0,0,0,4.261,1.892,19.805,19.805,0,0,0,4.83,1.228c2.12.161,4.172.966,6.343.625a17.2,17.2,0,0,1,2.4-.016,7.687,7.687,0,0,1-.66-1.184c.907-.756-.012-1.054-.381-1.3a34.666,34.666,0,0,0-3.4-2.006c-1.949-.994-3.96-1.869-5.9-2.877a16.784,16.784,0,0,1-2.66-1.768c-1.681-1.334-3.3-2.751-4.962-4.106q-3.549-2.886-7.133-5.729c-.745-.595-1.494-1.191-2.28-1.729-1.207-.826-2.429-1.632-3.678-2.392-2.092-1.273-4.195-2.531-6.325-3.738-1.234-.7-2.53-1.289-3.8-1.928a26.686,26.686,0,0,1,3.3.189,13.752,13.752,0,0,1,4.77.967,4.056,4.056,0,0,0,1.158.17,3.575,3.575,0,0,1,1.006.091c1.544.677,3.232.4,4.817.784,1,.241,2.005.473,3.009.7a6.215,6.215,0,0,0,1.8.37c2.334-.2,4.321.859,6.43,1.541a12.8,12.8,0,0,1,3.675,1.333c.1.073.332-.054.5-.034a6.962,6.962,0,0,1,1.8.292,34.745,34.745,0,0,0,4.188,1.807,31.362,31.362,0,0,1,3.989,1.8c2.712,1.183,5.587,1.527,8.415,2.138.241.052.75-.124.777-.263.12-.617.547-1.109.183-1.921a10.4,10.4,0,0,0-2.488-2.984,20.034,20.034,0,0,0-6.72-4.253c-2.938-1.215-5.985-2.17-8.994-3.212-1.415-.49-2.845-.937-4.278-1.371-2.122-.643-4.238-1.318-6.387-1.858-1.172-.294-2.413-.306-3.613-.5-2.675-.433-5.338-.948-8.02-1.336-1.757-.254-3.537-.354-5.309-.5-.687-.057-1.379-.077-2.068-.07-1.373.012-2.746.087-4.119.073a21.861,21.861,0,0,1-2.176-.23,5.36,5.36,0,0,1,1.6-.409,58.243,58.243,0,0,1,6.347-1.038c1.327-.076,2.643-.131,3.959-.336a8.5,8.5,0,0,1,1.8-.036c1.784.106,3.57.39,5.348.339,2.881-.082,5.684.524,8.529.717,1.211.083,2.42.2,3.629.313a30.461,30.461,0,0,1,3.232.33c1.624.327,3.224.777,4.828,1.2,1.327.346,2.658.683,3.965,1.1,1.982.626,3.929,1.363,5.919,1.959a14.172,14.172,0,0,1,4.394,1.831c.413.3.921.458,1.367.715a20.028,20.028,0,0,1,2.846,1.724,22.6,22.6,0,0,0,3.658,2.828,1.8,1.8,0,0,1,.433.393c.377.407.711.861,1.124,1.225,1.415,1.247,2.85,2.471,4.29,3.689.964.815,1.953,1.6,2.923,2.41a5.512,5.512,0,0,1,.638.626,37.589,37.589,0,0,0,2.916,3.528c.59.537,1.3.817,1.859,1.338.91.841.923.826,1.891.082-.179-.829-.411-1.642-.521-2.471a11.133,11.133,0,0,0-1.857-4.775c-1.044-1.558-2.2-3.038-3.229-4.607a12.96,12.96,0,0,0-2.02-2.645c-1.534-1.394-3.051-2.806-4.584-4.2a14.864,14.864,0,0,0-1.379-1.148c-1.19-.845-2.4-1.665-3.61-2.482-2.457-1.658-4.914-3.319-7.389-4.95a13.028,13.028,0,0,0-1.514-.707c-.6-.294-1.2-.606-1.8-.91l.087-.272c2.411.141,4.824.265,7.233.429,1.124.076,2.241.248,3.364.346,2.026.176,4.08.18,6.074.531,2.535.445,5.04,1.1,7.522,1.786a23.411,23.411,0,0,1,4.212,1.619c2.614,1.313,5.439,2.1,8.038,3.47,1.992,1.047,4.206,1.664,6.269,2.586a17.876,17.876,0,0,0,5.2,1.353c-.164-.545-.164-1.047-.415-1.3a37.016,37.016,0,0,0-6.63-5.412c-2.863-1.807-5.887-3.358-8.739-5.182a26.913,26.913,0,0,0-8.319-3.157c-.171-.042-.346-.065-.516-.108s-.332-.1-.5-.146l.085-.281c.758.178,1.525.327,2.273.54,2.209.627,4.534.535,6.748,1.314a63.829,63.829,0,0,0,7.26,1.794c1.546.346,2.95,1.2,4.584,1.229.19,0,.368.214.566.292,1.122.44,2.241.887,3.375,1.293a4.243,4.243,0,0,1,1.652.79,2.848,2.848,0,0,0,1.726.673c1.464.041,2.682.828,4,1.249,1.892.606,3.563,1.889,5.449,2.524,1.487.5,2.768,1.33,4.179,1.925a7.385,7.385,0,0,1,1.68.634,6.913,6.913,0,0,0,2.841,1.2c1,.232,1.943.714,2.935,1,1.085.316,2.156,1.124,3.388.244A13.657,13.657,0,0,1,474.808,161.742ZM159.923,114.261c2.475-.156,3.069.633,3.507,2.066C162.013,116.068,160.6,115.858,159.923,114.261Zm2.4,2.761c.514-.006,1.066-.038,1.616-.011a1.437,1.437,0,0,1,1.318.665,9.542,9.542,0,0,0,1.032,1.231A4.217,4.217,0,0,1,162.32,117.022Zm3.041,2.922c1.7-.725,2.69.4,3.731,1.2-.7-.024-1.463-.039-2.223-.079C166.056,121.021,165.867,120.261,165.36,119.944Zm98.234,64.712c-1.582-1.442-3.175-2.872-4.73-4.343-.176-.167-.139-.56-.088-.888,2.134,1.315,3.548,3.231,5.109,5.008Zm4.939,3.984-3.8-2.966.211-.276,3.818,2.944ZM259.467,175.1c.881.882,1.669,1.665,2.45,2.455.759.769,1.49,1.567,2.272,2.312s1.643,1.461,2.459,2.2c.792.716,1.561,1.458,2.362,2.163a20.189,20.189,0,0,0,2.564,2.126c.876.543,1.2,1.744,2.375,1.875.38,1.164,1.594,1.3,2.4,1.939.846.671,1.7,1.33,2.585,1.954.908.643,1.858,1.226,2.775,1.857.876.6,1.733,1.234,2.658,1.895-1.545.613-2.709-.283-3.968-.622a8.375,8.375,0,0,1-1.083-.417c-.312-.132-.75-.2-.9-.446-.725-1.177-2.051-1.472-3.073-2.2-.8-.573-1.687-1.035-2.466-1.635-1.877-1.447-3.655-3.029-5.583-4.4-2.174-1.549-3.744-3.663-5.588-5.522a16.036,16.036,0,0,0-2.052-1.735,1.561,1.561,0,0,1-.728-1.721C259.061,176.533,259.255,175.9,259.467,175.1Zm191.944-44.528c.139-.245-.122-.717-.207-1.116l.608-.25c.5,2.236-.723,3.605-2.266,4.7a31.938,31.938,0,0,1-8.449,4.206c-1.668.552-3.244,1.379-4.908,1.949s-3.294,1.367-5.394,1.191c1.782-.666,3.339-1.217,4.872-1.827,2.832-1.128,5.716-2.1,8.5-3.392a30.534,30.534,0,0,0,5.608-3.2A7.124,7.124,0,0,0,451.411,130.573Zm-1.14-.257a10.6,10.6,0,0,1-4.057,3.629,65.039,65.039,0,0,1-9.8,4.286c-2.262.83-4.5,1.716-6.746,2.6a21.5,21.5,0,0,1-5.642,1.028c-.056.006-.124-.106-.235-.205C433.282,139.382,442.345,136.187,450.271,130.317ZM400.239,141.75c2.379-1.008,4.785-1.951,7.178-2.924a24.59,24.59,0,0,0,2.612-1.1c.718-.395,1.3-1.318,2-1.387a5.13,5.13,0,0,0,2.42-.771c.652-.452,1.71-.381,1.98-1.391.026-.1.325-.21.455-.172.767.224,1.223-.33,1.767-.662,1.528-.932,3.065-1.85,4.57-2.817.659-.423,1.455-.733,1.695-1.622a.622.622,0,0,1,.352-.356,10.953,10.953,0,0,0,4.144-3.135c.747-.781,1.744-1.319,2.51-2.085,1.147-1.147,2.187-2.4,3.278-3.6.735-.811,1.5-1.593,2.21-2.429.355-.42.555-.972.912-1.391.469-.551,1.069-.99,1.531-1.545,1.153-1.387,2.26-2.812,3.386-4.222a.787.787,0,0,1,.391-.3,20.306,20.306,0,0,1-4.7,14.615l-.334-.08a2.3,2.3,0,0,1,.162-.737c.521-.839,1.1-1.64,1.618-2.483a2.812,2.812,0,0,0,.192-.871,1.05,1.05,0,0,0-1.234.655c-.662,1.141-1.439,2.217-2.2,3.3a5.9,5.9,0,0,1-.874.934q-.755.69-1.555,1.331a3.37,3.37,0,0,1-1.042.7,11.018,11.018,0,0,0-3.593,2.141c-.867.669-1.819,1.229-2.735,1.836q-2.719,1.8-5.435,3.607a2.242,2.242,0,0,0-.357.385l.185.226a16.076,16.076,0,0,1,2.256-1.006A6.857,6.857,0,0,0,426.276,133c.759-.581,1.492-1.2,2.283-1.733,2.235-1.506,4.5-2.966,6.738-4.469.6-.4,1.135-.891,1.7-1.34l.21.256a3.306,3.306,0,0,0-.65.565c-1.161,1.719-3.113,2.458-4.613,3.756A8.276,8.276,0,0,1,429.6,131.8c-.96.338-1.5,1.15-2.4,1.532a11.817,11.817,0,0,0-2.482,1.61c-2.369,1.833-5.138,2.952-7.737,4.368a14.808,14.808,0,0,1-6.019,2.066c-.13.009-.308-.031-.381.038-1.314,1.253-3.1,1.374-4.678,2a63.406,63.406,0,0,1-9.05,2.544c-1.254.293-2.533.486-3.8.708-.323.056-.657.05-1.279.091.454-.344.637-.59.859-.634,1.3-.254,2.622-.4,3.909-.7,1.353-.316,2.675-.767,4.01-1.16a33.2,33.2,0,0,0,3.465-1.046c1.573-.657,3.309-.794,4.806-1.735a15.638,15.638,0,0,1,3-1.064c.77-.281,1.527-.6,2.276-.935,1.027-.457,2.043-.94,3.061-1.42.6-.285.768-.554.9-1.495a95.98,95.98,0,0,1-24.159,8.877l-1.589-1.41A34.884,34.884,0,0,0,400.239,141.75Zm-7.42,3.744a2.9,2.9,0,0,1-2.846.115,2.992,2.992,0,0,0-.974-.238c-.306-.055-.618-.079-.927-.117l-.014-.341C389.651,144.608,391.275,143.986,392.819,145.494Zm-3.395.747a7.361,7.361,0,0,1-5.346-.711C385.993,144.836,387.643,145.97,389.424,146.242Zm-32.61-3.278c.972-.434,1.975-.8,2.962-1.2a16.152,16.152,0,0,0,1.633-.7q3.98-2.169,7.937-4.382a30.16,30.16,0,0,0,2.7-1.581c2.118-1.485,4.193-3.032,6.387-4.628-.017.176.018.345-.045.4-1.693,1.435-2.887,3.4-4.935,4.479-1.071.566-1.925,1.527-2.965,2.166a50.941,50.941,0,0,1-4.518,2.464q-2.961,1.428-6.009,2.672c-2.829,1.151-5.691,2.219-8.542,3.313a.883.883,0,0,1-.772-.084,3.32,3.32,0,0,1,.409-.267C352.97,144.723,354.884,143.825,356.814,142.963Zm15.218-4.939c-.328.5-.465.977-.761,1.117-1.306.617-2.656,1.14-3.993,1.688a.4.4,0,0,1-.216-.025c.3-.938,1.334-.87,1.974-1.35A17.038,17.038,0,0,1,372.032,138.024Zm-5.03,2.82c-.28.764-1.106.638-1.658.884-.96.43-1.864,1.136-3.015,1.026a1.739,1.739,0,0,1,.452-.417c1.006-.456,2.016-.905,3.046-1.3A5.331,5.331,0,0,1,367,140.845Zm-4.825,1.965a7.872,7.872,0,0,1-1.4.856c-1.646.623-3.319,1.173-4.985,1.742-.1.035-.233-.01-.415-.229.571-.215,1.144-.428,1.714-.646,1.366-.521,2.726-1.06,4.1-1.558A4.589,4.589,0,0,1,362.178,142.81Zm-5.149-5.359c-1.255,1.4-2.4,2.9-3.7,4.256-1.114,1.159-2.389,2.163-3.581,3.248a12.152,12.152,0,0,1-1.391,1.333c-2.894,1.875-5.67,3.923-8.7,5.6a23.145,23.145,0,0,1-6.494,2.068,3.932,3.932,0,0,1,.561-.412c1.618-.806,3.29-1.513,4.852-2.413,2.332-1.344,4.671-2.706,6.856-4.271a63.408,63.408,0,0,0,9-7.767c1.433-1.5,3.036-2.842,4.519-4.3.649-.638,1.106-1.478,2.14-1.716C359.741,134.535,358.358,135.969,357.029,137.45Zm-9.014,12.4,1.887.776-.023.284c-1.229.108-2.42.738-3.777.246Zm-3.722.474c1.353-1.289,1.656-1.39,2.508-.892A2.142,2.142,0,0,1,344.292,150.325Zm-.446.705c-2.011,1.769-2.011,1.769-3.176,1.8A4.646,4.646,0,0,1,343.846,151.03Zm-4.495,2.806c-.955.31-1.909.624-2.866.929a2.066,2.066,0,0,0-1.382.795,1.158,1.158,0,0,1-1.763-.2c1.072-.33,2.064-.622,3.047-.943.95-.31,1.89-.65,2.835-.977ZM369.3,120.354a5.984,5.984,0,0,0,.647-3.574,5.937,5.937,0,0,1,.6-2.475,6.917,6.917,0,0,1,.6-1.127l.288-.037a3.352,3.352,0,0,1,.044.86c-.322,1.533-.7,3.054-1,4.592a4.319,4.319,0,0,0,.131,1.257l-2.239,3.316-.187-.1C368.55,122.16,368.9,121.247,369.3,120.354Zm-5.371,9.31-.221-.132c.022-.167-.015-.379.074-.5,1.379-1.818,2.775-3.624,4.246-5.373C367.048,125.941,365.3,127.665,363.928,129.663Zm5.253-13.936a6.539,6.539,0,0,1-1.855,3.312,21.809,21.809,0,0,0-3.464,3.577c-.071.085-.217.107-.5.007Zm-39.96,35.891a3.016,3.016,0,0,1,2.153-.678c.231.043.533-.23.786-.384a41.826,41.826,0,0,1,4.6-2.742c.9-.4,1.377-1.18,2.211-1.594a15.3,15.3,0,0,0,2.327-1.678c.694-.53,1.333-1.142,2.063-1.614a27.026,27.026,0,0,0,4.49-4.264c.54-.555,1.246-.948,1.793-1.5,1.094-1.1,2.117-2.267,3.2-3.382,1.131-1.169,2.337-2.266,3.427-3.471.918-1.016,1.68-2.171,2.577-3.207a15.565,15.565,0,0,1,2.4-2.217c-1.994,3.034-4.555,5.645-6.508,8.852,1.224-.072,1.541-1.022,2.094-1.618.991-1.066,1.845-2.259,2.754-3.4.213-.268.564-.532.589-.821.049-.569.482-.732.787-1.058.692-.74,1.307-1.551,2-2.289,1-1.065,2.044-2.091,3.07-3.133.391-.4.779-.8,1.174-1.192a8.152,8.152,0,0,1,1.37-1.163c-.678,1.4-.838,2.968-1.887,4.239-1.562,1.891-2.925,3.945-4.365,5.935-.147.2-.225.457-.372.662-.343.478-.692.953-1.07,1.4-.219.261-.549.435-.742.71-1.2,1.717-3.073,2.779-4.34,4.428-1.607,2.09-3.946,3.442-5.536,5.575a12.584,12.584,0,0,1-2.483,1.934c-1.212.954-2.342,2.029-3.626,2.872-1.726,1.133-3.543,2.135-5.361,3.119-1.9,1.029-3.846,1.979-5.781,2.943a16.857,16.857,0,0,1-2.017.867,2.967,2.967,0,0,1-.974-.006l-.07-.333c2.249-1.21,4.559-2.319,6.728-3.658a69.851,69.851,0,0,0,6.476-4.519,45.239,45.239,0,0,0,5.667-5.079c1.7-1.875,3.89-3.245,5.411-5.276l-.194-.3a5.494,5.494,0,0,0-1.239.66c-2.04,1.882-3.961,3.881-5.882,5.886a29.187,29.187,0,0,1-5.02,4.122c-1.72,1.135-3.264,2.537-4.983,3.676a31.139,31.139,0,0,1-4.827,2.712,50.506,50.506,0,0,1-9.6,3.318c-.487.1-.938.45-1.474.019-.148-.118-.556.075-.841.143-.742.177-1.481.363-2.222.546l-.082-.275c.671-.261,1.339-.531,2.014-.782.728-.27,1.309-.895,2.208-.8.238.025.491-.157.783.047a.707.707,0,0,0,.613-.032C325.288,152.8,327.434,152.687,329.22,151.618Zm-35.52,3.308c-1.024,1.205-.887.76-4.289,1.142A35.764,35.764,0,0,1,293.7,154.926Zm-.49,1.731a10.131,10.131,0,0,0,3.275-.529c.263-.1.644.108.832.146.826-.224,1.579-.426,2.331-.633.867-.238,1.727-.508,2.6-.71.538-.124,1.117-.083,1.648-.226a32.466,32.466,0,0,0,5.738-1.688c3.238-1.566,6.771-2.5,9.727-4.7,2.39-1.777,5.035-3.213,7.406-5.013,1.094-.831,2.407-1.35,3.314-2.508.864-1.1,3.48-1.959,4.831-1.908-.481,1.318-.889,2.656-1.455,3.925a3.972,3.972,0,0,1-2.365,2.42,1.954,1.954,0,0,0-.852.6,14.521,14.521,0,0,1-4.883,3.879c-1.5.734-2.867,1.75-4.321,2.59s-2.9,1.676-4.4,2.381c-.993.464-2.109.653-3.146,1.033-1.618.594-3.191,1.323-4.831,1.847-1.211.387-2.577.348-3.728.842a25.071,25.071,0,0,1-4.352,1.1c-3.053.713-6.088,1.65-9.247,1.736a39.556,39.556,0,0,1-6.024.143c-3.1-.379-6.228-.522-9.3-1.143-.853-.173-1.717-.291-2.575-.435.012-.116.024-.233.036-.349.691.048,1.388.06,2.073.151a77.73,77.73,0,0,0,8.351,1.078,66.171,66.171,0,0,0,8.576-.7c2.6-.282,5.18-.686,7.771-1.018a21.31,21.31,0,0,0,5.011-1.123c.313-.121.671-.12.992-.224,1.628-.529,3.264-1.036,4.87-1.625,1.521-.559,3.027-1.168,4.5-1.836a19.352,19.352,0,0,1,2.673-1.439c2.037-.539,3.495-2,5.245-2.979.087-.049.131-.174.19-.274a1.615,1.615,0,0,0-1.646.408c-1.82,1.312-3.985,1.894-5.949,2.9-.191.1-.406.154-.586.268a33.562,33.562,0,0,1-7.748,3.4,47.887,47.887,0,0,1-9.8,2.2c-2.608.261-5.186.821-7.794,1.068a46.122,46.122,0,0,1-6.495.165c-2.169-.1-4.325-.478-6.485-.746-2.176-.27-4.358-.506-6.52-.861a12.88,12.88,0,0,1-2.342-.857l.039-.3,1.815-.417a1.77,1.77,0,0,0,1.71.433,12.73,12.73,0,0,1,3.483.044c1.076.134,2.146.155,3.217.224,1.767.115,3.532.1,5.293.1a35.022,35.022,0,0,0,3.922-.426.851.851,0,0,1,.259-.023C289.846,157.43,291.505,156.729,293.21,156.657Zm15.677,2.488c.148-.1.3-.2.439-.308s.265-.214.249-.2c.778.412,1.367.7,1.934,1.031.386.224.742.5,1.111.753l-.15.269Zm.658,1.309a4.3,4.3,0,0,1-3.4-.647c.787-.3,1.554-.752,2.248.238C308.564,160.283,309.061,160.292,309.545,160.453Zm1.316-1.87.064-.327c.985-.317,1.966-.789,2.984.128Zm-11.39,3.339c1.536-.675,2.4-.352,3.96,1.474C301.79,163.727,300.659,162.9,299.47,161.923Zm6.68,2.922c-1.838.315-2.159.121-3.277-.619C304.182,163.713,305.144,164.393,306.151,164.844Zm-6.661-1.487c-1.208.011-2.279-.567-3.621-.637C297.189,162.263,297.189,162.263,299.49,163.357Zm-25.023-7.226a9.043,9.043,0,0,1,5.189-1.028C278.075,155.856,276.5,156.625,274.467,156.132Zm10.475-.955c-.433.567-1.054.523-1.6.625a6.2,6.2,0,0,0-2.166.585c-.475.276-1.24.052-1.875.051C281.076,155.673,282.765,154.364,284.941,155.177Zm9.814-7.54c2.656-1.022,5.313-2.045,7.952-3.11,1.471-.593,2.921-1.242,4.357-1.917,1.639-.77,3.247-1.605,4.879-2.39a9.2,9.2,0,0,1,1.212-.414,3.327,3.327,0,0,0,.6-.162c2.014-1.108,4.021-2.23,6.095-3.383.111.294.3.58.235.655a35.2,35.2,0,0,1-2.376,2.645,6.29,6.29,0,0,1-1.562.936,12.724,12.724,0,0,0-1.693.77c-1.281.919-2.835,1.133-4.22,1.769-.611.28-1.173.678-1.8.911-1.319.491-2.673.889-3.994,1.372-.252.093-.423.408-.632.62.017.084.033.168.05.252-.813.015-1.626.061-2.437.034-.578-.019-1.131-.1-1.454.545a.534.534,0,0,1-.333.2q-3.477.839-6.957,1.665l-.087-.283C293.317,148.112,294.049,147.909,294.755,147.637Zm1.225,1.03c2.19-.471,4.381-.945,6.554-1.488s4.346-1.179,6.517-1.774l.108.262a24.72,24.72,0,0,1-2.6,1.106c-2.429.734-4.875,1.412-7.328,2.06-1.245.329-2.516.564-3.781.809-2.949.572-5.9,1.149-8.855,1.673-1.245.221-2.511.314-3.768.466q.015-.186.03-.372c2.159-.46,4.317-.927,6.478-1.378C291.55,149.572,293.77,149.143,295.98,148.667Zm-.388-6.144c-.448.35-.947.635-1.419.953a8.568,8.568,0,0,0-2.473,2.049,4.42,4.42,0,0,1-1.385,1.154c-1.2.709-2.52,1.235-3.638,2.046-1.242.9-2.736,1.121-4.042,1.811a5.484,5.484,0,0,1-1.27.325l-.11-.342c.44-.179.889-.34,1.318-.541a24.869,24.869,0,0,0,2.783-1.364q2.651-1.672,5.221-3.477a22.74,22.74,0,0,1,4.518-2.764,6.283,6.283,0,0,0,1.457-1.186l.23.244C296.386,141.8,296.014,142.193,295.592,142.523Zm43.345-28.051c-1.676.87-3.142,1.642-4.618,2.393-.945.481-1.9.936-2.859,1.4a3.785,3.785,0,0,1-.582.238,21.7,21.7,0,0,0-4.681,2.2c-1.241.709-2.513,1.363-3.773,2.038-.495.265-1,.51-1.49.785a64.2,64.2,0,0,0-7.835,5.514c-1.639,1.274-3.352,2.453-5.036,3.668a1.656,1.656,0,0,1-.846.338,25.639,25.639,0,0,1,1.943-1.927,11.313,11.313,0,0,1,3.251-2.248,5.172,5.172,0,0,0,1.867-1.634,14.293,14.293,0,0,1,3.783-2.847c1.3-.771,2.633-1.5,3.948-2.252,1.474-.843,2.9-1.783,4.427-2.514,1.733-.829,3.576-1.428,5.334-2.208,1.912-.848,3.8-1.765,5.663-2.711A1.546,1.546,0,0,1,338.937,114.472Zm-24.23,7.99a6.825,6.825,0,0,0,1.659-1.8l-1.006.446c.026-.167,0-.351.068-.389a41.146,41.146,0,0,1,5.425-3.074c1.142-.457,2.226-1.037,3.37-1.477a36.152,36.152,0,0,1,3.51-1.323,44.349,44.349,0,0,1,4.8-.975c1.687-.259,3.392-.4,5.091-.57a3.815,3.815,0,0,1,.855.166c-1.736.8-3.273,1.521-4.815,2.226-2.146.981-4.394,1.692-6.6,2.508a16.445,16.445,0,0,0-2.467,1.347c-2.751,1.6-5.56,3.109-8.219,4.849a12.714,12.714,0,0,0-4.254,4.1,7.53,7.53,0,0,0-1.933.616c-1.031.707-1.968,1.554-2.933,2.356a72.5,72.5,0,0,1-6.124,5.1,39.693,39.693,0,0,0-3.571,2.925,13.7,13.7,0,0,1-3.5,2.376,12.589,12.589,0,0,0-1.956,1.2c-1.413.924-2.834,1.837-4.222,2.8a43.076,43.076,0,0,1-12.813,6.2,48.214,48.214,0,0,1-5.023.883l0-.105c3.321-1.418,6.694-2.726,9.945-4.29a43.013,43.013,0,0,0,7.237-4.27q2.787-2.093,5.6-4.149c.724-.527,1.492-.992,2.236-1.492a12.486,12.486,0,0,0,2.958-2.5,14.112,14.112,0,0,1,2.382-1.929,22.092,22.092,0,0,0,4.153-3.6,3.049,3.049,0,0,1,.746-.534,6.739,6.739,0,0,0,1.713-1.544A10.782,10.782,0,0,1,309.2,126.6C311.022,125.206,312.885,123.861,314.707,122.462Zm-17.653-9.268a3.274,3.274,0,0,1,1.643,2.037c.356,1.355.809,2.686,1.127,4.049a8.99,8.99,0,0,1,.24,2.42,13.962,13.962,0,0,1-.457,3.342,3.642,3.642,0,0,0-.215,1.45c.173,1.471-.608,2.655-1.145,3.889-.4.918-1.364,1.236-2.382,1.55a22.052,22.052,0,0,0,2.335-6.2c.044-.241.294-.442.349-.684a7.65,7.65,0,0,0,.336-2.815A67.445,67.445,0,0,0,297.054,113.194Zm-2.206,21.231a3.526,3.526,0,0,1,2.437-2.3C297.228,133.3,297.139,133.387,294.847,134.425Zm-.335-3.6a19.786,19.786,0,0,0,1.584-4.078c.488-1.324.916-2.67,1.37-4.006l.321.1c-.353,1.192-.718,2.38-1.052,3.577-.165.59-.229,1.209-.409,1.793a18.281,18.281,0,0,1-3.006,5.909,4.265,4.265,0,0,1-.884.654C293.144,133.407,293.727,132.051,294.513,130.824Zm-1.7,4.632c-.565,1.458-2.087,1.885-3.046,2.922C290.191,136.8,291.477,136.1,292.816,135.457ZM272.086,150.7c1.255-.52,2.5-1.067,3.757-1.579.471-.192.97-.315,1.454-.474a3.028,3.028,0,0,0,.6-.224c2.11-1.242,4.241-2.452,6.313-3.755a25.255,25.255,0,0,0,4.788-3.679,35.914,35.914,0,0,1,3.733-2.68c2.235-1.76,4.672-3.247,6.75-5.223,1.2-1.144,2.64-2.039,3.917-3.111,1.736-1.457,3.412-2.984,5.131-4.461a15.119,15.119,0,0,1,1.291-.9l.147.225c-.572.5-1.157.979-1.714,1.492-.856.787-1.706,1.582-2.534,2.4a15.458,15.458,0,0,1-2.987,2.649,25.672,25.672,0,0,0-2.978,2.449q-2.923,2.367-5.877,4.7-1.306,1.029-2.67,1.984c-.932.654-1.908,1.245-2.84,1.9-.674.473-1.281,1.043-1.962,1.5a64.99,64.99,0,0,1-15.585,7.85,3.256,3.256,0,0,1-1.615.1C270.163,151.478,271.129,151.1,272.086,150.7Zm-4.015,3.4c1.749-.155,3.5-.274,5.267-.347a19.932,19.932,0,0,1-5.838,1.825C267.138,154.439,267.238,154.18,268.071,154.106Zm-20.664-3.719a5.342,5.342,0,0,0,1.766-.036,9.426,9.426,0,0,1,2.7.408c1.841.289,3.619.926,5.544.771a15.754,15.754,0,0,1,2.491.432,18.729,18.729,0,0,0,4.237.29,5.03,5.03,0,0,1,1.5.282,10.575,10.575,0,0,1-5.24.221c-2.286-.252-4.564-.585-6.85-.838-2.862-.316-5.758-.374-8.515-1.381a17.2,17.2,0,0,0-2.477-.524l.043-.219c.112-.048.232-.152.333-.137C244.436,149.891,245.922,150.137,247.407,150.387Zm.1-8.948a4.848,4.848,0,0,1-2.018,2.587c-.766.554-1.415,1.264-2.182,1.846a12.89,12.89,0,0,1-2.829,1.471,26.62,26.62,0,0,1-6.562,1.743,20.191,20.191,0,0,1-3.6-.033,1.284,1.284,0,0,1-.618-.2c-.851-.543-1.688-1.108-2.784-1.834.876.07,1.5.117,2.122.171a15.416,15.416,0,0,0,5.855-.716c.489-.149,1.017-.178,1.5-.346a12.734,12.734,0,0,0,4.654-2.79,1.148,1.148,0,0,1,.453-.256c1.561-.458,2.334-1.869,3.466-2.846.064-.056.163-.116.173-.185.184-1.324,1.362-1.972,2.017-2.975.248-.379.52-.742.781-1.113l.292.143A12.76,12.76,0,0,1,247.512,141.439Zm-25.459,2.756c1.382.218,2.776.128,4.175.432a23.463,23.463,0,0,0,5,.2c1.278,0,2.557-.115,3.834-.209.244-.018.47-.229.717-.269.468-.075.945-.09,1.418-.13l.056.329c-1,.32-1.993.66-3,.956a23,23,0,0,1-8.008.671c-1.855-.111-3.352-1.154-5.113-1.118C221.023,144.155,221.681,144.136,222.054,144.195Zm-1.891-3.3-.061-.271c.168-.082.343-.249.5-.235a28.287,28.287,0,0,0,7.41-.774,7.869,7.869,0,0,1,1.341-.046C226.394,140.829,223.249,140.629,220.163,140.892Zm21.272-3.661c.676-.2,1.314-.774,2.075-.182a7.2,7.2,0,0,1-3.974.748C240.169,137.607,240.8,137.414,241.435,137.23Zm-.756-2.54a6.278,6.278,0,0,1,3.306-1.916.145.145,0,0,1-.026.078A5.831,5.831,0,0,1,240.679,134.691Zm2.733,4.461c-.8.9-1.186,2.22-2.589,2.361-1.183.119-2.365.241-3.55.328q-1.994.147-3.992.232c-1.177.051-2.356.062-3.54,0C234.019,139.841,238.738,139.735,243.412,139.152Zm-4.747-3.062a40.556,40.556,0,0,1-7.32,3.062,13.253,13.253,0,0,1-1.837.36c.345-.96,1.353-.72,2.016-.925a50.911,50.911,0,0,0,5.154-2.242c1.279-.553,2.583-1.047,3.877-1.565C240.16,135.541,239.317,135.718,238.666,136.091Zm-5.788,7-4.187.228-.018-.357A9.746,9.746,0,0,1,232.877,143.094Zm16.623-5.127a5.363,5.363,0,0,0-1.269-3.2c.879.177,1.566.459,1.524,1.528a8.018,8.018,0,0,0,.236,1.555Zm-.6,5.24c.267-.312.473-.686.582-.66,1.275.308,2.322-.507,3.5-.685a30.268,30.268,0,0,0,3.682-1.051,2.309,2.309,0,0,1,.61-.009l.036.3A59.087,59.087,0,0,1,248.9,143.206Zm6.826-2.757-.129-.393c.81-.209,1.625-.4,2.43-.631a35.229,35.229,0,0,1,3.792-1.086,11.481,11.481,0,0,0,3.135-1.022,2.857,2.857,0,0,1,1.18-.279C262.964,139.133,259.228,139.423,255.725,140.449Zm14.873-4.966a14.423,14.423,0,0,1-2.043.6l-.107-.213,3.612-1.7.162.232A11.337,11.337,0,0,1,270.6,135.483Zm-5.988-1.134a67.658,67.658,0,0,0,6.452-2.661c1.264-.549,2.49-1.186,3.742-1.762a3.209,3.209,0,0,1,.785-.116,10.71,10.71,0,0,1-3.552,2.81c-1.645.969-3.28,1.978-5.008,2.776a41.016,41.016,0,0,1-5.274,1.953c-2.386.725-4.815,1.308-7.228,1.945-1.2.317-2.407.621-3.652.941a12.58,12.58,0,0,1,.4-1.824,1.274,1.274,0,0,1,.747-.6c1.306-.44,2.618-.87,3.949-1.221C258.849,135.829,261.778,135.244,264.61,134.349Zm3.761-7.19c-.745,3.391-8.362,7.909-11.778,8.039a2.454,2.454,0,0,1,.471-.326,25.956,25.956,0,0,0,6.267-3.21,4.054,4.054,0,0,0,.646-.614c.055-.058.037-.213.092-.237C265.843,130.026,266.7,128.149,268.371,127.159Zm-2.655-1.205,2.776-2.053c-.045,2.172-2.052,3.1-3.223,4.6-.212.272-.7.311-1.022.517-.486.309-.94.671-1.407,1.009a3.68,3.68,0,0,1-.381.272c-1.88,1.022-3.731,2.1-5.653,3.04-1.558.759-3.193,1.363-4.815,1.981-.247.094-.606-.1-.939-.3a49.6,49.6,0,0,0,15.407-8.678Zm-17.926,7.3c4.987-1.593,9.773-3.7,14.623-5.647.071-.029.211.114.4.223a3.258,3.258,0,0,1-.477.461c-2.82,1.738-5.573,3.6-8.809,4.542a15.453,15.453,0,0,0-2.071.843c-1.2.55-2.414.214-3.625.077-.068-.008-.126-.1-.211-.178C247.675,133.47,247.707,133.283,247.79,133.257Zm-.3.674a2.2,2.2,0,0,0-1.744,1.2c-.278.429-1.266.4-1.937.573C245.391,134,246.337,133.543,247.487,133.931Zm-2.889-1.288a1.226,1.226,0,0,1-.553.082c.108-.208.181-.472.352-.58q2.106-1.333,4.258-2.594a1,1,0,0,1,.53-.017C247.658,130.573,246.136,131.619,244.6,132.642Zm25.916-24.788c-1.252,1.621-2.489,3.261-3.84,4.8-2.06,2.343-4.209,4.609-6.326,6.9-1.071,1.162-2.121,2.345-3.237,3.464a51.361,51.361,0,0,1-6.485,5.631c-.4.288-.844.525-1.273.779a12.417,12.417,0,0,1,1.022-1.248c.613-.6,1.277-1.152,1.937-1.7.631-.528,1.321-.991,1.922-1.55,1.447-1.346,2.869-2.72,4.278-4.106.607-.6,1.176-1.234,1.731-1.881,1.086-1.267,2.116-2.583,3.234-3.822,1.064-1.178,2.259-2.24,3.305-3.433.839-.957,1.52-2.05,2.309-3.054.7-.895,1.455-1.75,2.186-2.622l.245.168A16.162,16.162,0,0,1,270.514,107.854Zm-58.433,30.275a37.308,37.308,0,0,0,7.97.856c-.012-.167-.029-.4-.059-.815,1.028-.086,2.075-.139,3.113-.269a17.274,17.274,0,0,0,3.129-.535c2.219-.711,4.4-1.543,6.585-2.357a15.5,15.5,0,0,0,1.461-.767c2.2-1.1,4.573-1.861,6.582-3.352,1.54-1.142,3.153-2.186,4.676-3.35,1.2-.916,2.252-2.024,3.469-2.91a51.229,51.229,0,0,0,5.175-4.908c1.335-1.287,2.7-2.546,3.977-3.891a38.879,38.879,0,0,0,4.282-4.886c1.167-1.746,2.813-2.994,4.059-4.626.6-.784,1.3-1.491,1.892-2.276a14.523,14.523,0,0,1,5.23-4.319c.96-.472,1.937-.91,2.991-1.4.275.974-.412.949-.864,1.1-.18.059-.457-.052-.578.049a10.33,10.33,0,0,0-1.894,1.734c-1.123,1.57-2.06,3.272-3.176,4.848-.865,1.222-1.919,2.308-2.828,3.5a42.044,42.044,0,0,1-3.933,4.266,33.155,33.155,0,0,0-2.757,3.532,4.4,4.4,0,0,1-.277.426c-1.254,1.286-2.506,2.573-3.776,3.843-.958.957-1.911,1.924-2.923,2.823q-1.892,1.681-3.885,3.249A37.921,37.921,0,0,1,246.482,130c-2.292,1.44-4.583,2.892-6.954,4.195-1.774.974-3.682,1.7-5.512,2.576a24.666,24.666,0,0,1-8.681,2.434c-1.2.1-2.393.2-3.588.305-.6.054-1.189.162-1.785.19-.812.038-1.628.049-2.44.023a17.881,17.881,0,0,1-2.2-.18c-2.417-.379-4.826-.814-7.244-1.189-2.1-.325-2.56-1.078-3.761-2.4C207.042,136.6,209.446,137.731,212.081,138.129Zm-1.54-6.839q3-.266,5.993-.716c1.391-.21,2.747-.666,4.141-.836,1.7-.207,3.224-1.027,4.916-1.232a12.885,12.885,0,0,1-5.682,2.266c-1.752.379-3.493.821-5.261,1.1-1.719.274-3.463.4-5.2.552-1.583.138-3.168.272-4.755.306a9.23,9.23,0,0,1-2.068-.357c-.391-.084-.768-.23-1.312-.4a3.929,3.929,0,0,1,.75-.225c.213-.016.435.1.649.087C205.323,131.669,207.936,131.521,210.541,131.29ZM197.016,129.8l10.358.517,0,.275c-1.172.039-2.345.114-3.517.11a22.033,22.033,0,0,1-5.9-.345c-.344-.095-.672-.244-1.007-.367Zm-17.606-7.024a26.015,26.015,0,0,0,3.334.512c.958.153,1.9.391,2.864.513,1.895.243,3.794.459,5.7.635a46.75,46.75,0,0,0,5.3.348c1.837-.04,3.668-.366,5.5-.564,1.69-.183,3.4-.268,5.066-.563,2.753-.487,5.5-1.02,8.214-1.7,2.457-.615,4.859-1.452,7.287-2.183.4-.12.805-.2,1.208-.3l.1.311c-1.47.6-2.922,1.243-4.416,1.773-2.146.761-4.295,1.542-6.494,2.115a51.433,51.433,0,0,1-5.32.881c-1.357.2-2.717.406-4.082.551-2.3.244-4.6.566-6.91.625a55.672,55.672,0,0,1-6.964-.287,62.688,62.688,0,0,1-6.625-1.077c-1.488-.312-2.911-.919-4.39-1.288a9.773,9.773,0,0,0-1.894-.022.923.923,0,0,1-.579-.339A7.125,7.125,0,0,1,179.41,122.777Zm8.293,4.774c-1.114.124-1.6-.873-2.407-1.083a4.36,4.36,0,0,1-2.427-1.4l3.2.865C186.019,126.879,187.072,126.934,187.7,127.552Zm-17.756-3.532,1.7-.206c-.189,1.409,1,1.82,1.638,2.575.476.56,1.226.809,1.583,1.607a4.928,4.928,0,0,0,1.485,1.457c1.285,1.061,1.474,2.631,2,4.063C176.12,129.921,172.878,127.247,169.947,124.019Zm23.185,51.735-1.6-3.9A4.741,4.741,0,0,1,193.132,175.754Zm-.931.127-.2.159a7.944,7.944,0,0,1-1.155-1.11,24.582,24.582,0,0,1-3.615-6.868c-.453-1.5-1.14-2.928-1.626-4.42a23.138,23.138,0,0,1-.706-3.092c-.247-1.387-.47-2.782-.622-4.182-.093-.855.031-1.732-.056-2.588-.161-1.58-.437-3.149-.605-4.728-.142-1.321-.206-2.652-.291-3.979-.088-1.376-.078-2.764-.269-4.124a13.15,13.15,0,0,0-.816-2.506,33.293,33.293,0,0,0-1.406-3.74c-.924-1.84-1.431-3.9-2.989-5.524.685-.175.918.27,1.2.589a7.755,7.755,0,0,1,.989,1.194c.184.316,1.019.463.386,1.107-.046.047.2.486.389.64,1.246,1,1.425,2.558,2,3.887a30.147,30.147,0,0,1,1.03,3.7c.053.185.308.306.393.492.193.42.549.91.462,1.284-.244,1.042.223,1.968.274,2.951.114,2.213.715,4.365.594,6.629a7.451,7.451,0,0,0,.831,3.9,4.427,4.427,0,0,1,.321,2.39c-.131,1.334.55,2.437.8,3.657.258,1.261.647,2.5.979,3.741.011.041.048.085.04.121-.5,2.239,1.081,3.924,1.624,5.882A30.819,30.819,0,0,0,192.2,175.881Zm-6.467-32.529c-.219-.37-.64-.75-.623-1.109.076-1.688-.78-3.144-1.047-4.737-.019-.113.075-.244.117-.367A14.89,14.89,0,0,1,185.734,143.352Zm-.145-6.49.344-.149,3.09,5.807a8.969,8.969,0,0,1-2.325-2.393C186.333,139.037,185.959,137.95,185.589,136.862Zm1.3,13.73a14.287,14.287,0,0,1,.6,5.212C187.193,154.079,186.23,152.435,186.891,150.592Zm3.343,17.916a6.025,6.025,0,0,1-.8-2.324,19.726,19.726,0,0,0-.732-3.645c-.283-1.257-.594-2.508-.864-3.768a3.112,3.112,0,0,1,.169-.887C189.552,163.131,190.5,167.534,190.234,168.509Zm20.132,13.185c-1.268-1.313-2.565-2.6-3.792-3.951-.727-.8-1.361-1.684-2.028-2.539a9.249,9.249,0,0,1,.757.652q2.249,2.277,4.474,4.578a12.224,12.224,0,0,1,.822,1.057Zm16.752,9.155c.909,1,2.389,1.4,2.925,3.051-.913-.25-.97-1.111-1.5-1.5-.584-.426-1.144-.885-1.714-1.329Zm-33.752-36.7c.275.512.248,1.185.518,1.7a19.385,19.385,0,0,0,2.511,3.65c.941,1.1,1.6,2.434,2.49,3.584,1.336,1.728,2.273,3.716,3.862,5.3,1.683,1.675,3,3.715,4.614,5.464,2.085,2.255,3.7,4.92,6.168,6.851,1.072.838,1.817,2.08,2.821,3.02,1.243,1.162,2.217,2.585,3.751,3.484a32.45,32.45,0,0,1,3.187,2.591c.884.685,1.84,1.275,2.751,1.926a11.805,11.805,0,0,1,1.821,1.546,36.521,36.521,0,0,1-10.578-5.759l.119-1.02a1.563,1.563,0,0,0-.15-.21c-.55-.546-1.086-1.107-1.66-1.626a21.429,21.429,0,0,0-2.153-1.82c-2.18-1.5-3.571-3.747-5.405-5.571-1.086-1.08-2.244-2.089-3.521-3.27L204.374,175a3.375,3.375,0,0,1-.642-.524c-2.185-2.8-4.394-5.584-6.513-8.435a51.225,51.225,0,0,1-2.9-4.483c-1.3-2.194-2.535-4.428-3.77-6.659-.478-.863-.884-1.767-1.419-2.849-.442-.115-.946-.335-.84-1.334a13.377,13.377,0,0,0-.426-2.621c1.139,1.173,1.639,2.771,2.81,3.893.117-.823-.485-1.29-.8-1.892-.7-1.336-1.372-2.691-2.055-4.038a1.662,1.662,0,0,1-.235-.463,17.272,17.272,0,0,1-.193-3.606c.552,1.348,1.083,2.706,1.663,4.042.448,1.033.911,2.064,1.449,3.051C191.428,150.787,192.448,152.439,193.365,154.146Zm-1.9-5.6-.29.095a14.922,14.922,0,0,1-1.2-3.314l.435-.093Zm18.489,11.966c-1.706-1.515-3.4-3.043-5.1-4.567-1.433-1.287-2.912-2.528-4.292-3.87a44.284,44.284,0,0,1-4.517-4.923c-1.444-1.9-3.092-3.657-4.683-5.446a18.407,18.407,0,0,1-4.047-5.985c.5.552,1.024,1.092,1.51,1.66.981,1.144,1.937,2.311,2.92,3.454.357.415.779.774,1.137,1.188a2.576,2.576,0,0,1,.339.662c.065.146.06.4.157.442,1.371.58,2.045,1.917,3.09,2.849a31.406,31.406,0,0,1,2.061,2.4c1.257,1.377,2.549,2.722,3.828,4.079s2.506,2.736,3.828,4.033c1.432,1.4,2.946,2.723,4.311,4.265A1.947,1.947,0,0,1,209.954,160.507Zm-13.784-18.059c.665.794,1.318,1.6,2.021,2.361,1.4,1.51,2.844,2.98,4.248,4.488a17.968,17.968,0,0,0,2.836,3.06c1.45.948,2.139,2.508,3.462,3.526,1.291.994,2.375,2.254,3.646,3.278,1.6,1.288,3.349,2.394,4.942,3.691a27.7,27.7,0,0,0,4.927,3.5c.1.05.139.216.363.588-2.478-1.307-4.746-2.347-6.845-3.66a32.178,32.178,0,0,1-4.537-3.6c-2.291-2.1-4.542-4.242-6.7-6.478-3.052-3.17-5.921-6.518-9.024-9.635-1.688-1.7-3.11-3.6-4.751-5.332-1.578-1.661-2.96-3.507-4.453-5.25-.471-.55-1.026-1.03-1.542-1.542l.205-.277c.818.491,1.667.939,2.444,1.488.549.388,1.248.632,1.338,1.543.041.415.612.786.962,1.159.677.72,1.367,1.428,2.055,2.138.658.678,1.349,1.327,1.973,2.036C194.58,140.48,195.359,141.478,196.171,142.448Zm17.714,7.165c.21.463.214.461-.309,1.1a28.122,28.122,0,0,0-2.115-3.888,20.719,20.719,0,0,0-2.84-3.318l-.332.279c.552.722,1.128,1.429,1.652,2.172.554.785,1.1,1.579,1.578,2.413.7,1.23,1.323,2.5,2,3.746a1.364,1.364,0,0,0,.546.554c.847.412.974,1.135.978,2.12a6.085,6.085,0,0,1-3.6-1.947l1.4.429a14.631,14.631,0,0,0-.846-1.412c-1.128-1.439-2.239-2.895-3.438-4.273-1.357-1.561-2.784-3.062-4.213-4.558a39.288,39.288,0,0,0-5.711-4.777c-1.992-1.419-3.828-3.056-5.813-4.485-1.561-1.124-3.22-2.119-4.88-3.1-2.854-1.681-5.74-3.307-8.616-4.95-.518-.3-1.052-.565-1.539-.826-.143.059-.248.068-.3.126-.85,1.029-.82.995.3,1.891a3.221,3.221,0,0,1,.9,1.473l-1.173-.884c-.01.405-.017.7-.025,1.037l-3.928-4.079c.577-.408,1.025-.766,1.891-.372a4.464,4.464,0,0,0,2.146-.027c.929-.1,1.723-.168,2.357.812.333.516,1.108.758,1.7,1.091,1.342.752,2.916,1.008,4.131,2.067a6.924,6.924,0,0,0,1.954.96,40.668,40.668,0,0,1,6.375,3.6c1.224.782,2.568,1.374,3.833,2.094,1.041.593,2.043,1.255,3.072,1.87a.839.839,0,0,0,.771-.022c-.182-.224-.319-.526-.553-.658-1.463-.831-2.558-2.2-4.337-2.618-.922-.219-1.648-1.179-2.52-1.711-1.572-.959-3.188-1.847-4.762-2.932.229.008.5-.062.682.036,1.384.755,2.753,1.538,4.121,2.321.969.554,1.973,1.063,2.889,1.7,2.241,1.549,4.738,2.69,6.823,4.5a43.807,43.807,0,0,1,5.886,6.118A31.116,31.116,0,0,1,213.885,149.613Zm5.439-1.894c-2.006-.952-3.99-1.95-6.005-2.88-.671-.31-1.581-.192-1.93-1.3a36.379,36.379,0,0,1,9.33,4.687C220.253,148.062,219.77,147.93,219.324,147.719Zm7.862,4.24c-.959-.607-1.9-1.238-2.881-1.814s-2-1.109-2.96-1.747c2.342.5,4.131,1.978,6,3.313Zm17.571,13.292c-.929-.762-1.8-1.569-2.664-2.39-1.751-1.656-3.489-3.329-5.308-4.908-1.364-1.183-2.833-2.247-4.281-3.329-1.481-1.107-3.025-2.133-4.486-3.266a26.473,26.473,0,0,0-4.657-2.734c-1.923-.943-3.781-2.021-5.655-3.062a18.125,18.125,0,0,0-6.816-2.663c-.437-.047-.864-.658-1.2-1.085-.572-.731-1.067-1.522-1.67-2.4.134-.031.406-.185.516-.107a3.679,3.679,0,0,0,2.362.448,26,26,0,0,1,2.711.249c1.287.116,2.581.179,3.862.347a5.258,5.258,0,0,1,1.293.524,12.515,12.515,0,0,0-.082,2.58,4.144,4.144,0,0,0,2.288,2.925c1.2.671,2.278,1.546,3.481,2.2A51.339,51.339,0,0,0,229.426,151c.8.328,1.291,1.041,2.149,1.285a9.313,9.313,0,0,1,2.29,1.165c.754.472,1.408,1.108,2.172,1.562,1.477.877,2.57,2.217,4.012,3.159a27,27,0,0,1,3.9,3.356c2.476,2.408,5.158,4.607,7.416,7.235.922,1.073,1.01,2.435,1.231,3.815-1.175-.707-1.175-.707-2.413-3.96l-.22,1.547a6.619,6.619,0,0,1-.655-.509C247.8,168.177,246.383,166.586,244.758,165.251Zm-2.783-7.51.215-.2c2.415,2.063,5.2,3.722,6.821,6.659Zm7.272,13.308c1.324,1.208,2.871,2.184,3.575,3.92C251.264,173.993,250.427,172.341,249.247,171.049Zm3.863-6.593a14.308,14.308,0,0,1,3.793,6.759c.965,3.421.879,4.08.223,6.666a24.044,24.044,0,0,1-1.274,3.246,1.053,1.053,0,0,1-.408.492c-1.348.755-2.709,1.486-4.066,2.224l-.227-.285a7.336,7.336,0,0,1,.8-.909,7.614,7.614,0,0,0,2.777-6.879c-.116-1.528-.1-3.071-.3-4.587a6.888,6.888,0,0,0-.853-2.288,32.887,32.887,0,0,0-3.415-5.887,37.5,37.5,0,0,0-4.926-4.434,5.337,5.337,0,0,1-1.264-1.3c.918.471,1.812,1,2.758,1.4a9.505,9.505,0,0,1,3.574,2.967A31.546,31.546,0,0,0,253.11,164.457Zm14.866,2.591a39.031,39.031,0,0,1,5.544,5.327c.328.337.626.7.938,1.055l-.215.186c-.6-.6-1.18-1.218-1.8-1.794a64.367,64.367,0,0,0-6.368-5.045,78.154,78.154,0,0,0-7.581-4.856c-2.361-1.309-4.7-2.655-7.095-3.9a19.346,19.346,0,0,0-2.7-.913,8.906,8.906,0,0,1-1.8-.689,20.876,20.876,0,0,0-6.2-2.826c-2.186-.5-4.033-1.879-6.3-2.133a7.477,7.477,0,0,1-2.148-1.134c1.185.113,2.126.163,3.052.308a5.067,5.067,0,0,1,1.179.492c.351.156.689.347,1.049.477,2.191.792,4.409,1.515,6.576,2.367q4.719,1.854,9.376,3.867a31.431,31.431,0,0,1,2.776,1.566q1.63.908,3.277,1.788c1.383.741,2.784,1.452,4.155,2.216a6.912,6.912,0,0,1,1.082.883A38.316,38.316,0,0,0,267.976,167.048Zm2.893-3.438-5-1.979c.2-.163.337-.332.393-.309,1.582.652,3.157,1.324,4.733,1.992Zm59.576,51.1-.193.143a9.37,9.37,0,0,1-.94-1.066c-.932-1.433-1.774-2.927-2.748-4.331a61.547,61.547,0,0,0-4.977-6.7c-1.347-1.47-2.335-3.269-3.676-4.745-1.387-1.526-2.37-3.384-4.09-4.655a20.061,20.061,0,0,1-2.281-2.658c-1.384-1.48-2.785-2.95-4.257-4.342-1.082-1.023-2.276-1.93-3.442-2.86-1.007-.8-2.079-1.527-3.064-2.354a58.365,58.365,0,0,0-7.074-4.988c-1.912-1.173-3.751-2.466-5.647-3.666-.831-.526-1.71-.979-2.589-1.423-2.718-1.374-5.448-2.725-8.169-4.094a1.363,1.363,0,0,1-.658-.684,24.705,24.705,0,0,1,2.528.9c1.661.8,3.276,1.689,4.922,2.518.8.405,1.672.695,2.444,1.15.99.583,1.892,1.313,2.869,1.92,1.493.929,3.037,1.776,4.523,2.715,1.8,1.139,3.631,2.254,5.335,3.53,1.813,1.357,3.487,2.9,5.234,4.346s3.565,2.819,5.26,4.327a41.951,41.951,0,0,1,5.438,5.267c1.864,2.4,3.974,4.57,5.855,6.946a40.323,40.323,0,0,1,4.066,6.139,26.738,26.738,0,0,0,2.14,2.975,4.331,4.331,0,0,1,.645.991,21.168,21.168,0,0,0,2.384,4.259A2.1,2.1,0,0,1,330.445,214.705Zm-7.564-19.061c.5.744,1,1.489,1.485,2.245.462.723,1.2,1.22,1.445,2.144a10.894,10.894,0,0,0,1.128,2.387c.555,1,1.17,1.973,1.761,2.956a2.261,2.261,0,0,1,.309.508c.281,1.051.537,2.109.85,3.356a2.755,2.755,0,0,1-.374-.4q-1.308-2.394-2.6-4.795c-.99-1.828-1.936-3.682-2.983-5.477a12.231,12.231,0,0,0-3.448-4.3,17.576,17.576,0,0,1-3.539-3.889,34.039,34.039,0,0,0-2.578-2.661c-.067-.067-.249-.019-.669-.036.666.713,1.217,1.237,1.688,1.823.856,1.065,1.659,2.174,2.5,3.254.656.845,1.08,1.845,2.356,2.153a3.254,3.254,0,0,1,1.626,1.583c.554.974,1.439,1.75,1.628,2.977a6.194,6.194,0,0,0,1.015,1.943c.731,1.245,1.5,2.469,2.223,3.719.9,1.558,1.776,3.133,2.662,4.7l-.223.151a13.884,13.884,0,0,1-1.115-1.251c-.32-.454-.512-1-.814-1.466-.914-1.42-1.854-2.823-2.785-4.231-.532-.8-1.064-1.609-1.6-2.408a1.645,1.645,0,0,0-.417-.5c-1.551-.968-2.334-2.6-3.423-3.958-.378-.473-.759-.945-1.152-1.4-1.3-1.527-2.561-3.1-3.943-4.552a35.3,35.3,0,0,0-2.935-2.489c-2.2-1.854-4.392-3.719-6.6-5.561-.559-.466-1.206-.827-1.753-1.3-1.159-1.013-2.255-2.1-3.427-3.1a7.654,7.654,0,0,0-1.429-.76c-.191-.1-.372-.221-.557-.333q-4-2.433-8-4.869c-.144-.088-.343-.183-.388-.318-.527-1.572-2.217-1.6-3.26-2.487-1.5.427-2.352-.844-3.5-1.335-1.222-.523-2.379-1.216-3.627-1.655a15.786,15.786,0,0,0-3.852-1.318c-.189-.016-.366-.2-.545-.316a52.11,52.11,0,0,0-7.384-3.584,1.5,1.5,0,0,0-1.666.126c-.764.548-1.79.062-2.568-.4-.938-.555-1.785-1.265-2.672-1.909l.078-.156a18.753,18.753,0,0,1,2.4.655c.232.093.278.646.469,1.145a4.138,4.138,0,0,1,2.585-.354,4.012,4.012,0,0,0-2.165-1.229c-1.588-.427-3.144-.971-4.717-1.456a1.711,1.711,0,0,0-.895-.164c-.77.252-1.342-.165-1.965-.441-2.63-1.164-5.269-2.308-7.887-3.5-1.186-.54-2.331-1.171-3.495-1.76l.1-.267c.36.073.718.157,1.08.218,3,.5,5.994,1.018,9,1.491.962.151,1.944.184,2.722.253l1.42,2.166a2.011,2.011,0,0,0-.64-2c1.866,0,2.341.281,3.308,1.805a5.362,5.362,0,0,0,.826.832l.2-.177-1.179-1.947,1.478-.288c.84.924,1.324,2.167,2.248,3.026l.328-.258-1.755-2.482a2.68,2.68,0,0,1,2.625,1.448,14.691,14.691,0,0,1,1.7,2.728c.4,1.05,1.377,1.371,2.035,2.073.933.994,2.428.837,3.523,1.559a8.468,8.468,0,0,0,1.294.552c.158.069.3.259.449.251,1.863-.107,3.141,1.043,4.527,2.012a25.086,25.086,0,0,0,2.269,1.2c1.392.772,2.771,1.568,4.153,2.357.739.422,1.484.831,2.207,1.28,1.708,1.06,3.4,2.14,5.1,3.214.072.046.113.157.187.181,1.789.589,3.124,1.981,4.843,2.72a19.647,19.647,0,0,1,2.561,1.685c.613.389,1.305.661,1.89,1.084,1.627,1.179,3.184,2.455,4.832,3.6.973.677,2.081,1.155,3.1,1.777a10.359,10.359,0,0,1,1.219,1.032c1.322,1.129,2.294,2.62,3.846,3.531a11.841,11.841,0,0,1,1.845,1.782c1.181,1.116,2.389,2.2,3.562,3.328a7.691,7.691,0,0,1,.84,1.074C322.215,194.667,322.551,195.154,322.881,195.644ZM287.99,167.389c4.424,1.4,8.23,3.944,12.161,6.528a2.693,2.693,0,0,1-2.165-.725c-2.181-1.8-4.9-2.675-7.2-4.26A30.661,30.661,0,0,0,287.99,167.389Zm20.441,9.81c2.029,1.438,4.085,2.844,6.052,4.363,1.185.915,2.225,2.019,3.328,3.04a3.877,3.877,0,0,0,.362.369,19.391,19.391,0,0,1,3.947,3.679,30.72,30.72,0,0,0,2.574,2.5l-3.944.151c-1.809-2.955-4.714-5.18-7.429-7.615-2.687-2.41-5.768-4.288-8.445-6.751.5.3,1.021.566,1.5.9,2.47,1.716,4.982,3.379,7.375,5.2,1.879,1.429,3.622,3.041,5.392,4.61a21.155,21.155,0,0,1,1.819,1.933,2.277,2.277,0,0,0,1.757.985,7.1,7.1,0,0,0-2.118-2.884c-1.555-1.532-3.269-2.906-4.953-4.3a25.324,25.324,0,0,0-5.391-3.782,1.78,1.78,0,0,1-.345-.178c-1.9-1.468-3.806-2.941-5.682-4.46A16.513,16.513,0,0,1,308.431,177.2Zm21.794,6.148c1.088.954,2.2,1.886,3.3,2.828l-.18.225c-1.712-1.05-3.383-2.173-5.144-3.134-3.907-2.131-7.826-4.248-11.8-6.241-3.03-1.517-6.106-2.974-9.263-4.195-2.454-.949-4.777-2.155-7.176-3.205-3.452-1.511-6.8-3.266-10.237-4.941.644-.452,1.3-.046,1.886.122,1.158.33,2.278.794,3.418,1.187,1.323.458,2.763.7,3.989,1.26,1.17.536,2.378.77,3.543,1.2s2.211,1.134,3.349,1.626c1.775.768,3.6,1.415,5.371,2.2,1.848.815,3.671,1.693,5.471,2.609q2.618,1.333,5.163,2.808c1.116.644,2.159,1.414,3.254,2.1,1.23.768,2.5,1.468,3.713,2.268A14.151,14.151,0,0,1,330.225,183.347Zm-22.213-14.7c.594.226,1.126.61,1.711.865.9.394,1.862.677,2.737,1.124.8.409,1.506,1,2.282,1.463a17.807,17.807,0,0,0,3.191,1.848,21.123,21.123,0,0,1,3.209,1.8,4.148,4.148,0,0,0,.719.278c.207.07.509.054.615.193,1.036,1.352,2.6,1.886,4,2.692.384.222.613.711.913,1.078l-.122.12c-1.192-.726-2.378-1.46-3.576-2.175-1.105-.66-2.223-1.3-3.336-1.949-2.048-1.193-4.057-2.461-6.159-3.549-1.444-.747-3.018-1.244-4.534-1.852-.919-.369-1.847-.715-2.754-1.111-2.561-1.119-5.089-2.315-7.676-3.369-1.561-.636-3.207-1.064-4.816-1.581a2.96,2.96,0,0,1-.633-.169,8.62,8.62,0,0,0-4.589-1.175,4.827,4.827,0,0,1-.906-.243,5.081,5.081,0,0,1,2.719-.167c1.231.177,2.449.46,3.663.737a5.738,5.738,0,0,1,1.061.451,3.422,3.422,0,0,0,1.049.479,6.692,6.692,0,0,1,3.079,1.293,9.417,9.417,0,0,0,2.922,1.039,10.788,10.788,0,0,1,1.085.408C305.247,167.672,306.642,168.13,308.013,168.651Zm10.428-1.6a10.18,10.18,0,0,0-1.139-.292c-1.976-.358-3.96-.68-5.93-1.074-.31-.062-.558-.434-1.047-.84a36.932,36.932,0,0,1,10.561,2.974C320.071,167.567,319.258,167.3,318.441,167.056Zm-2.82-2.906c1.906.385,3.517,1.542,5.287,2.3.134.057.212.243.316.37l-.144.233c-.856-.285-1.7-.6-2.569-.848-1.377-.4-2.758-.785-4.153-1.108-1.594-.369-3.255-.517-4.793-1.037a17.811,17.811,0,0,1-3.212-1.85c-.339-.2-.666-.427-1.01-.649-.626.937.246.953.54,1.233.348.331.8.552,1.151.908-1.914-.012-3.252-1.075-4.632-2.388a8.614,8.614,0,0,1,3.345.026,8.366,8.366,0,0,1,1.238.143c.8.171,1.607.361,2.4.581,1.167.324,2.327.674,3.486,1.025a6.787,6.787,0,0,1,1.271.459A5.076,5.076,0,0,0,315.621,164.15Zm-3.017-5.074c1.136-.068,2.112-.132,3.088-.179.171-.008.4.139.511.069,1.375-.861,2.015.339,2.954,1.046C315.928,160.525,313.739,160.188,312.6,159.076Zm26.37,4.115c-.065.042-.153.107-.213.092-6.244-1.6-12.644-1.73-19.029-2,6.586-1.047,12.987-.141,19.352,1.651C339.008,163.117,339,163.172,338.974,163.191Zm11.7,4.517c-1.208-.556-2.412-1.128-3.645-1.625-1.277-.515-2.586-.949-3.882-1.416a29.448,29.448,0,0,1-3.824-1.584,2.406,2.406,0,0,1,.771-.012c2.012.655,4.021,1.323,6.02,2.018,1.059.369,2.11.768,3.14,1.209,1.851.792,3.713,1.565,5.513,2.462,1.177.587,2.253,1.377,3.374,2.076l-.186.324a31.893,31.893,0,0,1-3.556-1.717C353.128,168.931,351.915,168.281,350.671,167.709Zm10.041,7.706a11.291,11.291,0,0,1-5.034-3.518A8.381,8.381,0,0,1,360.712,175.415Zm-6.906-2.507a4.228,4.228,0,0,1,3.414,2.4C355.725,175.1,355.255,174.77,353.806,172.908Zm3.1,3.461c1.189-.035,1.918.462,2.566,1.805C358.009,178.286,357.531,177.264,356.9,176.369Zm3.207,3.653.27-.2c1.938,1.488,2.5,3.789,3.243,5.985Zm5.54,2.832c.236.688.634,1.32.879,2.006.479,1.343.949,2.692,1.335,4.063a6.469,6.469,0,0,1-.382,3.591c-.11.376-.649.626-1.053.988l-.261-1c.982.226,1.156.137.983-.7A42.406,42.406,0,0,0,365.9,186.7a37.2,37.2,0,0,0-2.158-4.914,27.546,27.546,0,0,0-1.874-2.744c-.334-.493-.577-1.057-.954-1.511-.528-.637-1.143-1.2-1.666-1.9.915.461,2.036.277,2.789,1.268A21.575,21.575,0,0,1,365.649,182.854Zm7.139-1.49-5.842-4,.167-.247a38.738,38.738,0,0,1,5.835,4.015Zm5.1-17.409a13.078,13.078,0,0,1,6.219,1.648Zm16.61,3.907c-1.545-.538-3.071-1.13-4.612-1.679-1.382-.492-2.773-.96-4.161-1.437-1.183-.406-2.383-.767-3.546-1.224a24.426,24.426,0,0,0-3.78-.767c-2.813-.628-5.6-1.4-8.426-1.937-1.489-.285-2.951-.706-4.453-.912-1.15-.158-2.31-.249-3.452-.482a32.508,32.508,0,0,1,8.531.608c1.337.318,2.689.569,4.025.888,2.078.5,4.151,1.016,6.222,1.542,1.433.364,2.862.741,4.285,1.144a4.452,4.452,0,0,1,1.55.615c.868.687,1.957.685,2.889,1.113a15.742,15.742,0,0,0,3.021,1.165,16.334,16.334,0,0,1,2.742,1.119c.862.377,1.713.778,2.568,1.168.011.059.021.118.031.178C396.79,168.6,395.636,168.257,394.5,167.862Zm2.023,2.2c.981-.213,4.657,1.274,5.427,2.112Zm-40.217-13.409c.938-.009,1.877-.029,2.815-.05a2.372,2.372,0,0,1,.638-.045,24.436,24.436,0,0,0,3.862.7,9.24,9.24,0,0,0,3.016.055,2.2,2.2,0,0,1,1.534.465,1.8,1.8,0,0,0,1.595.251c.249-.048.606-.18.741-.067.994.832,2.286.46,3.386.884a9.621,9.621,0,0,0,2.049.214,4.622,4.622,0,0,1,1.248.349,9.284,9.284,0,0,0,3.581.93,16.865,16.865,0,0,1,2.231.662,28.3,28.3,0,0,1,3.975,1.409,14.452,14.452,0,0,0,1.771.557,44.3,44.3,0,0,1,6.82,2.49,17.355,17.355,0,0,0,2.731,1.144c.6.122,1.1.74,1.644,1.135l-.134.231c-.64-.323-1.26-.7-1.923-.959-2.043-.806-4.087-1.62-6.163-2.336-2.332-.805-4.716-1.46-7.047-2.27a52.661,52.661,0,0,0-6.641-1.886c-1.145-.237-2.247-.683-3.391-.924-.952-.2-1.9-.434-2.861-.581-2.362-.364-4.74-.622-7.109-.941-.608-.082-1.2-.288-1.811-.345-1.589-.149-3.184-.236-4.774-.369-1.546-.129-3.091-.286-4.636-.43q.023-.135.047-.269C354.436,156.661,355.372,156.667,356.307,156.658ZM352.8,161.89c2.122.934,4.292,1.76,6.441,2.631.081.033.215.021.246.075.773,1.329,2.431,1.382,3.44,2.395a7.6,7.6,0,0,0,1.63,1.034,9.216,9.216,0,0,1,1.97,1.39,18.016,18.016,0,0,0,2.538,1.461c1.054.728,1.953,1.695,3.042,2.357,1.59.966,2.695,2.489,4.242,3.473a18.676,18.676,0,0,0,2.838,2.029,13.262,13.262,0,0,1,2.392,1.924c1.435,1.069,2.862,2.164,4.386,3.094,1.35.824,2.827,1.438,4.248,2.147.347.173.692.352,1.037.528l-.125.255c-1.632-.738-3.3-1.414-4.889-2.229a45.813,45.813,0,0,1-5.607-3.4c-2.8-1.98-5.39-4.217-8.118-6.28-1.544-1.167-3.124-2.289-4.725-3.375-1.781-1.209-3.562-2.428-5.422-3.508-2.118-1.229-4.288-2.382-6.5-3.43-1.588-.752-3.28-1.286-4.934-1.9-2.1-.776-4.178-1.652-6.328-2.263-2.976-.845-6.006-1.5-9.022-2.2-1.074-.249-2.17-.4-3.261-.566a2.429,2.429,0,0,0-.731.135c.119.2.172.389.253.4,1.88.293,3.552,1.467,5.569,1.253.5-.053,1.033.412,1.574.521a45.885,45.885,0,0,1,5.637,1.6c1.053.357,2.174.63,3.234,1.03q3.387,1.281,6.75,2.624c1.431.569,2.863,1.139,4.259,1.787.727.338,1.366.861,2.062,1.271,1.143.674,2.322,1.287,3.444,1.993,1.048.659,2.025,1.43,3.062,2.107,1.217.8,2.51,1.483,3.688,2.331,1.147.826,2.175,1.813,3.282,2.7a58.375,58.375,0,0,0,5.421,4.186c1.562.971,2.809,2.353,4.568,3.079,2.574,1.061,5.034,2.4,7.571,3.554a28.614,28.614,0,0,0,3.013.972,4.5,4.5,0,0,1-1.126.23q-2.334-.3-4.659-.667c-.867-.139-1.726-.335-2.585-.522-.652-.142-1.376-.106-1.64-1-.079-.27-.6-.457-.953-.593a44.7,44.7,0,0,1-9.9-5.25c-2.716-1.93-5.472-3.806-8.2-5.723-2.913-2.049-5.751-4.212-8.737-6.146a27.329,27.329,0,0,0-7.013-3.523c-.988-.293-1.924-.76-2.89-1.132-1-.387-2.005-.787-3.027-1.123a102.62,102.62,0,0,0-13.883-3.349c-1.4-.252-2.84-.236-4.261-.358-.917-.079-1.83-.2-2.748-.277a3.071,3.071,0,0,0-.9.041,3.389,3.389,0,0,1-2.516-.377,8.214,8.214,0,0,0-1.258-.479l.05-.278,8.226-.014a2.5,2.5,0,0,0-2.432-.594,5.42,5.42,0,0,1-2.055-.046c-1.9-.338-3.717.467-5.6.324a5.1,5.1,0,0,1-3.147-1.08,5.512,5.512,0,0,1,1.941-.54c1.264.186,2.361-.384,3.542-.524,1.368-.162,2.742-.3,4.09-.576a12.97,12.97,0,0,0,4.277-1.4,5.738,5.738,0,0,1,1.475-.387,5.062,5.062,0,0,1,.15.915,2.053,2.053,0,0,0,1.827,2.256c1.262.171,2.524.352,3.789.5,1.718.2,3.444.341,5.158.577,1.044.143,2.075.394,3.1.64.933.224,1.842.553,2.779.753A36.118,36.118,0,0,1,352.8,161.89Zm-4.667-8.936c-2.791.661-5.591,1.286-8.39,1.912-.151.034-.33-.059-.547-.325,1.04-.337,2.072-.7,3.123-1.005,1.648-.475,3.3-.939,4.964-1.351a42.341,42.341,0,0,1,4.523-.959c1.033-.138,1.811-.808,2.8-1.011a23.2,23.2,0,0,0,3.092-.929c2.107-.749,4.2-1.536,6.295-2.322,1.926-.723,3.87-1.407,5.76-2.217,1.437-.617,2.778-1.456,4.2-2.1,1.64-.745,3.326-1.391,5-2.074a4.721,4.721,0,0,0,.488-.121,14.439,14.439,0,0,1,2.52-1.382,12.518,12.518,0,0,0,3.386-1.777c.787-.537,1.687-.91,2.471-1.452a19.745,19.745,0,0,0,1.787-1.561l-.183-.271c-1.17.59-2.374,1.123-3.5,1.786s-2.162,1.448-3.239,2.178a4.485,4.485,0,0,1-.512.315,39.211,39.211,0,0,1-4.96,2.237c-1.707.569-3.271,1.551-4.938,2.259-2.956,1.255-5.939,2.445-8.915,3.652-.955.387-1.931.724-2.882,1.12-3.094,1.288-6.342,2.1-9.528,3.1a4.208,4.208,0,0,0-.549.281c-.232-1.192-1.081-1.657-2.266-1.891a3.059,3.059,0,0,1,3.358-.146,2.187,2.187,0,0,0,2.087.479l-1.893-1.283,1.942-.732c.742.38,1.407.765,2.111,1.057a1.112,1.112,0,0,0,.868-.07,10.691,10.691,0,0,1,4.3-1.271,2.06,2.06,0,0,0,.5-.222,4.151,4.151,0,0,0-2.7-.015c-.841.207-1.673.453-2.519.631a7.359,7.359,0,0,1-1.215.058l-.107-.347a6.566,6.566,0,0,1,1.162-.536,20.338,20.338,0,0,0,4.268-1.465,53.78,53.78,0,0,1,5.206-1.995,8.538,8.538,0,0,0,1.549-.574,26.391,26.391,0,0,1,4.641-1.975c1.573-.6,3.112-1.3,4.645-2,1.079-.492,2.12-1.067,3.184-1.592.908-.448,1.819-.892,2.739-1.313,1.49-.682,3.01-1.3,4.477-2.029,1.185-.587,2.292-1.328,3.466-1.941a37.258,37.258,0,0,0,4.271-2.527c1.477-1.041,3.037-1.965,4.561-2.939l.265.186c-.508,1.156-.451,2.608-1.872,3.287-2.25,2.858-5.474,4.461-8.429,6.364a77.694,77.694,0,0,1-9.089,4.888c-2.487,1.167-5,2.251-7.53,3.325-2.439,1.037-4.8,2.256-7.239,3.3-1.7.724-3.462,1.31-5.216,1.9-2.1.706-4.2,1.391-6.328,2.009C351.789,152.08,349.958,152.52,348.128,152.953Zm56.838,7.13c-4.036-1.783-8.336-2.779-12.641-4.22,1.957-.436,3.477.375,5.06.995.913.357,1.931.437,2.855.773,1.148.418,2.247.968,3.364,1.467.49.219.973.454,1.46.682Zm.186.293c.56-.147.917-.347,1.029-.254.878.733,2.071,1.053,2.74,2.052Zm8.647,5.908-4.731-4.019a3.382,3.382,0,0,1,1.749.854c.93.809,1.955,1.508,2.909,2.29.179.147.214.468.316.71Zm-12.543-13.4a13.07,13.07,0,0,1,1.792.995c2.358,1.6,4.681,3.246,7.047,4.831,1.282.859,2.624,1.626,3.938,2.436a.892.892,0,0,1,.213.149c1.248,1.447,3.011,2.333,4.176,3.888.453.6,1.194.986,1.686,1.568a48.845,48.845,0,0,1,3.652,4.593,29.616,29.616,0,0,1,3.032,6.288c.049.137-.057.329-.137.721a34.713,34.713,0,0,0-3.644-4.972c-1.88-1.8-2.988-4.282-5.318-5.688-.962-.58-1.573-1.709-2.454-2.459-1.863-1.588-3.758-3.146-5.714-4.616-2.528-1.9-5.535-2.905-8.368-4.223a16.387,16.387,0,0,0-3.114-.93c-3.221-.769-6.438-1.563-9.68-2.228-2.781-.57-5.586-1.032-8.4-1.432a37.065,37.065,0,0,0-3.865-.134,32.379,32.379,0,0,1-4.132-.214,35.8,35.8,0,0,0-5.938.009,43.243,43.243,0,0,0-5.895.42c-1.912.259-3.794.742-5.691,1.116a3.039,3.039,0,0,1-.706-.137,7.716,7.716,0,0,1,1.173-.52c1.437-.325,2.975-.33,4.155-1.424a1.222,1.222,0,0,1,.6-.212,30.5,30.5,0,0,1,6.921-.313c.9.049,1.807-.019,2.7.052,1.92.153,3.833.418,5.754.531,1.808.106,3.615.589,5.762.124a8.361,8.361,0,0,0-3.265-.891c-3.525-.255-7.06-.38-10.59-.549a19.694,19.694,0,0,1-2.748-.252c.641-.262,1.275-.541,1.924-.781a17.635,17.635,0,0,0,1.995-.7.973.973,0,0,1,1.219.134c.241-.391-.169-1,.76-.842a27.071,27.071,0,0,0,4.351.176,10,10,0,0,0,1.5-.224c1.494-.223,2.914.3,4.37.454.975.106,1.933.376,3.134.62-.368-.848-.755-1.08-1.391-1.106a10.264,10.264,0,0,1-2.456-.316,13.818,13.818,0,0,0-4.433-.386.952.952,0,0,1-.652-.24c.489-.086.975-.2,1.467-.249a6.665,6.665,0,0,1,1.554-.034c1.986.28,3.971.572,5.942.938a15.265,15.265,0,0,0,2.619.731,4.943,4.943,0,0,1,3.286,1.234,2.751,2.751,0,0,0,1.282.348,18.518,18.518,0,0,1,6.263,1.731C398.309,151.682,399.822,152.21,401.256,152.883Zm-.471-3.945a2.881,2.881,0,0,1,3.4.163A8.361,8.361,0,0,1,400.785,148.938Zm45.24,11.716-.129.323c-1.293-.475-2.609-.895-3.874-1.435-2.488-1.062-4.981-2.121-7.408-3.313-2.089-1.027-4.234-1.887-6.39-2.753a46.416,46.416,0,0,0-10.561-2.877,55.322,55.322,0,0,0-8.359-.978,30.574,30.574,0,0,1-4.074-.5l.052-.382c.755.014,1.512,0,2.265.047,1.913.126,3.842.162,5.731.454,2.818.436,5.634.952,8.4,1.636,2.518.623,4.987,1.461,7.441,2.313,1.337.464,2.592,1.16,3.891,1.738,1.654.736,3.313,1.461,4.97,2.189q3.066,1.347,6.134,2.692C444.752,160.085,445.388,160.371,446.025,160.654ZM425.34,149.089c1.274.229,2.429.726,3.647,1.065a7.307,7.307,0,0,1,2.784,1.256,18.038,18.038,0,0,0,3.744,1.964,57.176,57.176,0,0,1,7.57,4.57.944.944,0,0,1,.372.6c-1.127-.484-2.266-.945-3.38-1.459-2.455-1.134-4.838-2.463-7.371-3.375a21.727,21.727,0,0,0-3.687-1.439,31.4,31.4,0,0,1-3.9-1.274,55.5,55.5,0,0,0-6.93-2.039,31.143,31.143,0,0,0-7.365-.908,20.52,20.52,0,0,1-4-.264,8.419,8.419,0,0,1-2.087-.7c-.81-.343-1.589-.761-2.432-1.171a2.371,2.371,0,0,0,.521-.093,3.232,3.232,0,0,1,3.462.2c.348.251,1,.1,1.515.094a58.174,58.174,0,0,1,6.031.469,59.363,59.363,0,0,1,6.892,1.127C422.287,148.051,423.769,148.807,425.34,149.089ZM416.674,145q.014-.137.029-.274a58.184,58.184,0,0,1,11.641,1.5Zm14.96.617c-1.8-.339-3.637-.477-5.458-.7-1.553-.192-3.1-.436-4.662-.554a57.064,57.064,0,0,0-6.592-.621,26.731,26.731,0,0,1-4.268-.493c-.007-.095-.014-.19-.021-.285.815-.111,1.627-.24,2.444-.327,1.147-.123,2.286.366,3.457-.007.348-.111.811.18,1.227.237a37.762,37.762,0,0,0,5.44.659c2.731-.032,5.338.9,8.075.773a18.08,18.08,0,0,1,3.4.565c.855.13,1.723.175,2.581.285.3.038.583.167.878.235.533.122,1.067.238,1.6.339.256.048.527.021.778.084,1.527.384,3.04.83,4.577,1.165,1.164.254,2.364.34,3.535.565.85.163,1.675.453,2.52.649.683.159,1.378.266,2.07.384.121.021.349-.064.366-.027.442.974,1.433.595,2.149.873.764.3,1.6.428,2.336.777,1.4.665,3.023.708,4.341,1.643a11.731,11.731,0,0,0,2.231,1.013,10.806,10.806,0,0,1,3.858,2.485c.186.2.566.209.8.382a19.567,19.567,0,0,1,3.909,4.535l-.215.193a54.349,54.349,0,0,1-5.882-3.109,46.651,46.651,0,0,0-7.925-3.948c-2.088-.916-4.273-1.612-6.413-2.41-1.533-.571-3.047-1.2-4.6-1.708a40.484,40.484,0,0,0-4.2-1.144C439.864,147.244,435.756,146.39,431.634,145.613Zm41.9,16.575a19.385,19.385,0,0,1-7.773-3.143c-1.62-1.081-3.373-1.961-5.047-2.962a43.479,43.479,0,0,0-8.538-3.889c-2.783-.933-5.573-1.844-8.353-2.787a16.021,16.021,0,0,1-1.51-.686l.063-.184c.64.218,1.267.485,1.922.643,1.428.344,2.9.53,4.3.969,1.584.5,3.1,1.215,4.651,1.812.926.355,1.88.636,2.8,1,1.388.54,2.784,1.069,4.136,1.693,1.862.859,3.7,1.782,5.519,2.722a15.59,15.59,0,0,1,1.564,1.094,6.209,6.209,0,0,0,.773.451c2,.976,4,1.944,5.994,2.922.047.023.044.149.1.348A3.866,3.866,0,0,1,473.532,162.188Z" fill="#282828"/>
    <path id="Path_15000" data-name="Path 15000" d="M187.285,131.426c-1.282-.717-2.214-1.883-3.409-2.708a18.543,18.543,0,0,1-2.388-1.927c-2.077-2.024-4.1-4.094-6.144-6.143-.9-.9-1.8-1.786-2.7-2.678l-.216.074c.015.125-.025.29.053.37q2.216,2.268,4.46,4.515c.934.931,1.97,1.8,2.83,2.767a19.018,19.018,0,0,0,3.3,2.973,9.333,9.333,0,0,1,1.926,1.463,12.78,12.78,0,0,0,2.691,2.155,2.806,2.806,0,0,0,.733.23c-.2-.222-.355-.432-.5-.6Q187.6,131.672,187.285,131.426Z" transform="translate(-16.365 -15.404)" fill="#282828"/>
    <path id="Path_15001" data-name="Path 15001" d="M206.837,159.794c-2.673-.343-4.083-2.548-5.944-4.1C203.148,156.643,204.855,158.413,206.837,159.794Z" transform="translate(-34.061 -38.853)" fill="#282828"/>
    <path id="Path_15002" data-name="Path 15002" d="M221.985,161.22a22.848,22.848,0,0,1-4.912-2.756c.394-.448.86-.106,1.262.123q1.585.9,3.154,1.852a4.87,4.87,0,0,1,.665.6Z" transform="translate(-44.119 -40.44)" fill="#282828"/>
    <path id="Path_15003" data-name="Path 15003" d="M926.538,150.1c-.23,2-.489,3.854-2.3,5.044a2.533,2.533,0,0,1,.121-.735c.375-.757.812-1.484,1.186-2.242a1.114,1.114,0,0,0,.1-.754C925.367,150.56,925.96,150.386,926.538,150.1Z" transform="translate(-483.687 -35.378)" fill="#282828"/>
    <path id="Path_15004" data-name="Path 15004" d="M770.8,246.434c2.608-.193,7.448.613,8.386,1.239A20.6,20.6,0,0,1,770.8,246.434Z" transform="translate(-388.314 -95.239)" fill="#282828"/>
    <path id="Path_15005" data-name="Path 15005" d="M799.687,250.365,802.1,251.4a2.393,2.393,0,0,1-2.414-.058c-.177-.064-.209-.528-.308-.808Z" transform="translate(-406.075 -97.701)" fill="#282828"/>
    <path id="Path_15006" data-name="Path 15006" d="M615.568,225.983a6.633,6.633,0,0,1,2.5-2.181,17.754,17.754,0,0,0,3.687-3.021,1.266,1.266,0,0,1,.374-.35,2.7,2.7,0,0,0,1.549-2.372,2.621,2.621,0,0,1,1.543-1.822,4,4,0,0,1-.039.839,14.3,14.3,0,0,0-.623,1.96,2.3,2.3,0,0,1-.976,1.46c-1.415,1.176-2.874,2.3-4.335,3.419-.5.386-1.065.7-1.6,1.041a9.654,9.654,0,0,1-1.052.67,6.631,6.631,0,0,1-1.055.313Z" transform="translate(-291.803 -76.487)" fill="#282828"/>
    <path id="Path_15007" data-name="Path 15007" d="M800.962,187.5c-.468,2.141-2.163,2.77-3.759,3.557.1-.175.157-.406.3-.516.8-.6,1.846-.89,2.166-2.068C799.77,188.119,800.394,187.909,800.962,187.5Z" transform="translate(-404.723 -58.624)" fill="#282828"/>
    <path id="Path_15008" data-name="Path 15008" d="M299.793,215.36c-.29-.045-.606,0-.752-.131-1.723-1.592-3.419-3.213-5.26-4.955C295.465,210.471,298.7,213.284,299.793,215.36Z" transform="translate(-91.8 -72.781)" fill="#282828"/>
    <path id="Path_15009" data-name="Path 15009" d="M264.632,252.1a19.891,19.891,0,0,1,4.014,6.171,7.7,7.7,0,0,0,.941,1.544c1.354,2.056,2.855,4.029,4.031,6.181a51.874,51.874,0,0,0,3.72,5.322.816.816,0,0,1,.043.745,6.178,6.178,0,0,1-.678-.687c-1-1.382-1.976-2.78-2.967-4.167-.323-.452-.688-.876-1-1.335a37.809,37.809,0,0,1-2.847-4.357c-.819-1.673-2.244-2.988-2.706-4.87A6.012,6.012,0,0,0,266.128,255c-.511-.761-1.041-1.509-1.524-2.288C264.516,252.567,264.618,252.307,264.632,252.1Z" transform="translate(-73.642 -98.779)" fill="#282828"/>
    <g id="Group_21599" data-name="Group 21599" transform="translate(150.057 93.44)">
      <path id="Path_15010" data-name="Path 15010" d="M156.642,95.525c.3-.109.5-.45.764-.54,1.23-.42,1.914,1.758,2.31,2.452a27.259,27.259,0,0,0,3.714,4.759c1.236,1.348,2.573,2.6,3.865,3.89,1.5,1.5,2.831,3.139,4.322,4.64a36.978,36.978,0,0,0,8.6,6.538A41.9,41.9,0,0,0,185.2,119.5c1.838.7,4.049,1.679,6.038,1.346.3-.05.378-.637.141-.792-1.689-1.1-4.023-1.321-5.933-1.936a31.27,31.27,0,0,1-6.023-2.662,38.974,38.974,0,0,1-9.292-7.637c-2.774-3.041-5.894-5.771-8.442-9.015a21.154,21.154,0,0,1-1.79-2.686,7.109,7.109,0,0,0-1.164-1.922c-1.182-.993-1.347.428-2.109,1.023-.06.047-.116.35.015.3Z" transform="translate(-156.562 -93.856)" fill="#282828"/>
    </g>
  </g>
</svg>
