<svg id="instagram-white" xmlns="http://www.w3.org/2000/svg" width="30" height="30" viewBox="0 0 30 30">
  <path id="Path_242" data-name="Path 242" d="M157.235,84.918a1.833,1.833,0,1,0,1.833,1.834,1.85,1.85,0,0,0-1.833-1.834m-8,14.834a5,5,0,1,1,5-5,4.911,4.911,0,0,1-5,5m0-12.667a7.544,7.544,0,0,0-7.667,7.667,7.667,7.667,0,1,0,7.667-7.667m0-7.333a49.154,49.154,0,0,0-6.167.167,10.3,10.3,0,0,0-3.666.666,7,7,0,0,0-4.334,4.333,7.6,7.6,0,0,0-.666,3.667,49.156,49.156,0,0,0-.167,6.167,49.166,49.166,0,0,0,.167,6.167,10.308,10.308,0,0,0,.666,3.667,7,7,0,0,0,4.334,4.333,10.3,10.3,0,0,0,3.666.666,49.154,49.154,0,0,0,6.167.167,49.154,49.154,0,0,0,6.167-.167,10.3,10.3,0,0,0,3.666-.666,7,7,0,0,0,4.334-4.333,10.308,10.308,0,0,0,.666-3.667c0-1.667.167-2.167.167-6.167a49.152,49.152,0,0,0-.167-6.167,10.308,10.308,0,0,0-.666-3.667,7,7,0,0,0-4.334-4.333,10.3,10.3,0,0,0-3.666-.666,49.154,49.154,0,0,0-6.167-.167m0,2.667a46.177,46.177,0,0,1,6,.166,7.743,7.743,0,0,1,2.833.5,5.856,5.856,0,0,1,2.834,2.834,7.743,7.743,0,0,1,.5,2.833c0,1.5.166,2,.166,6a46.177,46.177,0,0,1-.166,6,7.743,7.743,0,0,1-.5,2.833,5.848,5.848,0,0,1-2.834,2.833,7.721,7.721,0,0,1-2.833.5c-1.5,0-2,.167-6,.167a45.9,45.9,0,0,1-6-.167,7.721,7.721,0,0,1-2.833-.5,5.849,5.849,0,0,1-2.834-2.833,7.743,7.743,0,0,1-.5-2.833c0-1.5-.166-2-.166-6a46.177,46.177,0,0,1,.166-6,7.743,7.743,0,0,1,.5-2.833,5.983,5.983,0,0,1,1.167-1.667,2.818,2.818,0,0,1,1.667-1.167,7.743,7.743,0,0,1,2.833-.5,46.177,46.177,0,0,1,6-.166" transform="translate(-134.235 -79.752)" fill="#fff" fill-rule="evenodd"/>
</svg>
