<svg id="Layer_1" data-name="Layer 1" xmlns="http://www.w3.org/2000/svg" viewBox="0 0 402.3 9.15"><defs><style>.cls-1{fill:#0024f5;}</style></defs><polygon class="cls-1" points="402.3 2.44 401.91 1.8 399.88 2.61 402.3 2.44"/><path class="cls-1" d="M381.42,1.76c-1.87.69-5.44,1.13-5.5,2.46L379.3,3c.47,1,2.7.94,4.66.61l-2.23.06c.58-.13.21-.77.79-.9,3.41.51,4.28-.87,7.43.23l-.18.1,2.49-.65c.78.15.47.62.22.8a23.25,23.25,0,0,1,6.9-1c-2.33-1.82-6.6,1.41-8.91-.41l.17-.1C387.74,2.44,384.37,1.26,381.42,1.76Z"/><path class="cls-1" d="M392.48,3.29l-.2,0C392.3,3.39,392.38,3.36,392.48,3.29Z"/><path class="cls-1" d="M272.15.66,272,1C272.21.84,272.38.74,272.15.66Z"/><path class="cls-1" d="M308.93,4.32l-.18,0C308.51,4.69,308.64,4.59,308.93,4.32Z"/><path class="cls-1" d="M72.33,1.1,71.61.68A.61.61,0,0,0,72.33,1.1Z"/><path class="cls-1" d="M23,.77l-.08,0Z"/><path class="cls-1" d="M45.45,6.41l.1.37C45.64,6.57,45.59,6.47,45.45,6.41Z"/><path class="cls-1" d="M29.51,7.15A7.57,7.57,0,0,0,28.18,7,2.07,2.07,0,0,0,29.51,7.15Z"/><path class="cls-1" d="M23.45.62A3.82,3.82,0,0,1,23,.77,1.81,1.81,0,0,0,23.45.62Z"/><path class="cls-1" d="M69.43,7.09l.62,1C70,7.74,69.73,7.41,69.43,7.09Z"/><path class="cls-1" d="M25.57,7.92a1.87,1.87,0,0,0-.83-.34A1.06,1.06,0,0,0,25.57,7.92Z"/><path class="cls-1" d="M378.18,1.82a9.86,9.86,0,0,0,1.58-.14A3.87,3.87,0,0,0,378.18,1.82Z"/><path class="cls-1" d="M159.32,8a1.1,1.1,0,0,0-.28.37C159.39,8.25,159.41,8.11,159.32,8Z"/><path class="cls-1" d="M106.67,7.81l-.18,0a1.26,1.26,0,0,0,.22.16Z"/><path class="cls-1" d="M122,7.66a1.34,1.34,0,0,0-.21.2C122,7.77,122,7.71,122,7.66Z"/><path class="cls-1" d="M95.05,8.82a2,2,0,0,0-.54.33Z"/><path class="cls-1" d="M83.93,7.82c.5.35,0,.67-.56,1,2.78.46,3.7-.73,6.58.1L88.6,8.44c1.86-.7,5.3-.85,7,.07l-.52.31c1.77-.77,4.57.66,5.32,0-.73-.41,0-.66-1.1-1.05L103.79,7l.33,1.3,2.37-.44c-.58-.52,3.18.41,3.24-.81,1.35.47-.56,1-1,1.48,1.34-.37,1.48.18,2.72-.56l1.32,1.13,3.48-.82c-.18.11,0,.19-.13.3,1.59-1,4,.56,6.06-1.09-.1.06-.07.11-.1.19,1.11-.9,3.84-.25,4.84-.06,1.8-.22.75-1.09.82-1.57,5.2.29,3.54.22,7.91-1.13,2.61,1.42-3.09,2.3.23,3.29.45-.69,2.75-1.24,5.35-1.51,2.38.49,6.37.86,8.67,1.83l-.23-.92L153,7.07l-1.9,1.35c.53-.31,2.21-.91,3.33-1.36,3.48-.82,2,2,4.67.61a2.05,2.05,0,0,1,.25.29c.87-.71,3.15-.45,5.78-.72l-.92,1.2-1.7-.26c.92,1.16,2.82-.2,4.47-.13,1.74-.41.87-1.38,1.8-1.73.63,0,1.56-.3,2.06,0,1.52.37.16,1.4-.32,1.91,1.32-1.22,1.77-1.07,4.71-1.56.16.58-.06.83-.45.94a2.23,2.23,0,0,0,1.48-.92l1,.68c3.34,1,3.31-2.21,7.31-1.84-1.07.64,3.44-.15,4.66.61-1.38.2.67,1.75-.17,2.47,3.19.43,1.27-1.41,3.86-1.69l-1,1.49c2.49-.65.61-.8,3.15-1.26-.7.43,1.13.39-.38.87,3.32.15,2.46,0,5.38.19l.23-1.43a1.64,1.64,0,0,1,1.63.73c-.41,0-1,0-1,.16,1.14,1.24,1.87-.7,3.19.44-.33-.45-.7-1.09.51-1.17-.39.88,1.85.81,1.94,1.18-.76-.6,2.59-.28,2.76-1.23,1.4.65-.44.69-.52,1.17,1.15-1.12,4.88-.16,5.94-.8,0,.09.08.15.08.21,1.48-.69,3.93-.85,6.87-1.84l-1,.83c3,.35,1.8-1.74,4.26-1.72-.52,1.17,4.07-.1,3,1.2,1.47-.67,3-1,4-2,1.4.65-2.65,1.6-.72,1.94l2.09-.62.37.63c.09-.48,1.92-.51,1.82-.89.33.76,1.17,1.3,1.08,1.87,1.32-.23,3.18.5,4.28-.17l.1.37c1.27-1.41,4-.28,4.66-1.74l.82.78c2-.14,1.63-1.62,2.56-2a12.17,12.17,0,0,1,2.64-.09c-2.63.94,1.32,1.13,1.86,1.66,1,0,4.08-.1,4.91-.82-1.24.74-.47,1.35-2.7,1.42,1.2,1.42,3.39-.34,5.9-.14l0,.66c3.56-.44,3.68-1.58,5.22-2.73.42.82.07,1-1,1.86,2.38.49,6.14-.06,8.82,0,.85.59.29.93-.6,1.18,2.77-.63,6.2.14,7.94-1.32-.68.58,1.11.38,2.14.66,0-.3.19-.69.32-.65,1.69-.59,5.44-1.14,7.42-.62l-.72.43c4.58.24,6.59-2.26,11.58-1.2.9.31-.92,1.2.91,1.16.89-.54.6-1.65,2.93-1.34l-.16,1,1.59-1c-.82-.79-3.41-.51-1.6-1.4,2.09.89,1.82-.88,4.35.17a4.49,4.49,0,0,0-1.76,1.21c5.3,1.13,7.42-.93,12.8.27,2.67-.76,6.12-.91,8-1.61-.15,1-.13,1.8-1.37,2.55,2.28.12,3.36-2,4.95-.63,1.1-1.31,6.34-.83,6.89-2.66.09.37,2.46,0,.06,1,3.12-.6,4.11,1.59,5.54,1.59.8-.06-.92-1.17.91-1.2.23.08.28.26.51.34l.7-.43c.73.42-.79.91-.86,1.39,2.56.38,4.22-1.06,7.26-1.18l-.52.32,3.08.06-.17.11,2.49-.65-.08.48c.58-.14.71-.43,1.51-.49l-.25.59c.79-.91,3.73-1.4,5.16-1.41l.27.26,3.38-1.18c1.8.63-2.3,1.39,1.28.95L369.52,4c2.54-.47,2.92.17,4.65-.24-.78-.6-2-.52-1.09-1,2,1.37,3.18-.35,5.1-.91a2.77,2.77,0,0,0-2.3.71c-1,0-.37-.64-1-.69l-1.45.67L373,1.69l-2.5.65c.16-.95-2.29-.12-1.31-1.13-1.75.41-2.75-.28-4.34.69-1.17-.58,1.87-.7.62-.8A137.79,137.79,0,0,1,344,1.39l.71-.43c-.71.43-1.64.78-2.17,1.11-1.23-.77-6-1.75-7.66-.31-.23-.08.13-.29.31-.4-2.42.17-6.78-.84-10.22-.69-1.45,1.52-5.17-.95-6.47,1.12l.71-.42c1.17.57-1.67,1.43-2.15,1.94-1-1.35-.07-1-1.22-2.27l1.37.47L317,.4c-4.37,2.86-8.14-1.31-10.86.77.17-.11.13-.29.3-.4-1.8-.63-3.07.79-4.4,1.16-.16-.55.79-.9,1.49-1.33-3.18-.43-8.53,1.08-12,.19-1.24.76.47,1-.82,1.58-1.08-.21-1.85-.82-.52-1.2-3-1.38-10,.91-14.64-.37-2.44.83-.92,1.2-4.66,1.75.87-.54-.89-1.83,1.34-1.89l.26-.59c-3.72-.11-8.68-.32-10.72,1.33-.11-1.22-.67-.23-2.08-.89-.57.14.06.19.29.27-1.37,1-2.07,0-3,.12l.35-.22-2.67.76c-.45-.16-1.12-.39-1.21-.76v.85c-1.44,0-.69-1.09-2.48-.86l.37.63c-1.13-.39-2.95.49-3.19-.43,0-.19.18-.11.58-.14-1.77-1.29-4.6.42-6.8-.18l.56,1.38c-2.14.43-1.3-.28-1.22-.76-1.44,0-1.75-.44-3.64-.59-.93.35-.49.5-.79.9l-1.92-.33L236,.4c-3,2-7.44-.23-9.42,1.61-1.12-.39,1-.83.34-1.06-3.52-.88-7.85,1.31-10.78.3-4.77-1-10.25,0-15.54-.69l.09.37L197,.63c-1,.83-3.58.44-5.17,1.41.13-.3-.2-.75.16-1-1.61.12-3.35.52-4.29,0l.53-.32c-3.54-.22-8.47-.24-10.33.46-1.21.08-1.18-.58-1.5-1a12.88,12.88,0,0,0-5.08.93,5.7,5.7,0,0,1-1.41-.66l-.78.91c-.86-.13-.2-.75-.87-1-3.2,1.08-6.93.12-9.18.18l.32.45c-.92.35-2.73-.28-1.62-.73-4.44-.54-6.59,1.41-12.59,1.18-.84-1.64-5.41.47-6.3-1.35-2.53.47-4.16-.27-5.93.8-.06-.18-.28-.26.13-.29-1-.68-4.35-.16-6.89.3L126,.4c-.92,1.19-5.31.84-6.23,2-.28-.26.49-.51.84-.72-1.33-1.13-2.32.54-4,.29.13-.3-.38-.64,0-.85-5.67-1.3-13.91.89-21.31,0-2.06,0,.75,1.26-1.94,1.17-.78-.6,1.32-1.22-.39-1.48-1.24.75-1.69.59-3.35.52.31-.4,0-.66,1.2-.93-1-.5-4.06,1-6,0,.09.37-.25.58-.61.8C81.44,2.25,77.82.14,77.56.73c0,0-1,.16-.13.29-1,0-2.51-.2-2.25-.78a3.93,3.93,0,0,1-1.82.88L73.8.43c-.47.15-1,.58-1.47.67l.73.42C71.88,1,69.57,2.33,69.64,1L70,1l-2.2-.6a4.55,4.55,0,0,1-3.24.89C64-.1,60.83,1,59,.83L59,.35C57.56,1,53.79.72,54.47,1,53,1,51.11.63,51.82.2c-1.16.27-3.63.26-4.24,1.06L45.24.1c-1.4,1.71-4.67-.61-4.81,1.19-1.31-.28-1-.68-1.91-1-1.81.88-3.69.73-5.58.59l0-.19c-1.88-.15-4.1.76-6.74.85L25.59.18c-1.38.19-1.72,1.26-3,1-.31-.21,0-.28.33-.36a8.72,8.72,0,0,1-4-.41c-2,1-3.52.62-5.28,1.69-1.55-1.21,2.31-.54,1-1.67C11.75-.25,8.85.43,5.74,1,5.47.76,5.82.55,6,.26,6,.26-.38,3.56.8,4.87c-.79.91-1.67,1.44,1,2.19.88-.53,3.38-1.18,3.85-.17l.15-1c3.57-.44.31,2,4.61,1.94l-.91-.32c.81,0,1.46-.66,2.37-.35.28.26-.31.39-.66.61l3.56-1.29c.14.55,0,.85-.7,1.27,3.26,0-.66-1.74,3.33-1.36.72.42-.26.58-.78.9,1.84.81,3.09.07,5-.45,0,.85-1.23.75.34,1.3-.31-.45-.51-1.19.7-1.28-.58.86.92.46,2.1.68a.52.52,0,0,1,.31-.85c.58-.14,1.08.21,1.88.15L25.49,6c2-.81,3.18.43,4.72.8a1.2,1.2,0,0,1-.7.31c1.63.35,3.3,1,5.36.3l-.18.1C38.57,6.71,33.5,6.13,38,5.34c1.49.17-.7,2.78,2.72,1.78C39.1,6.39,42.93,5.36,44.88,5l-2,1.65c.79,0,2.16-.44,2.59-.28L45.35,6c-.15-1.4,2.52.2,3.94-.66-1.76,1.92-1.86,1.55-2.18,3.46A7.44,7.44,0,0,1,52.58,7L50.51,8.51c3.36.32,7.3-1.84,10.05-3.08-.74,1.09.39,1.48-.81,2.42L63,7.62l-.91,1.19c1.31-1.22,2.76-.38,2.54-2-.35.21-.3.4-.93.35.08-.48.64-1.46,2.31-1.39,1.12.39-.67.61-.35,1.06,1.07-.64,1.13.39,2.24-.07l-1-.68c.78-.91,1.84,0,2.94-.49-1.32.39-.89.92-.4,1.47L69.36,7c.8,0,1.86-.69,2.42-.17l-.69,1.28,1.19-.94c.45.16.77.61,0,.85,3.68.78-.1-2.73,4.72-1.56-.09.48-.61.8-1.92.52-.21.76.11,1.21,1.42,1.5,0,.06,0,.09,0,.14C79,8.61,82.29,8.68,83.93,7.82Z"/><path class="cls-1" d="M76.52,8.59a12.81,12.81,0,0,0-3,.17C73.77,9,76.58,9.39,76.52,8.59Z"/><path class="cls-1" d="M274,7.23l-.49.13Z"/><path class="cls-1" d="M284.63,6.85a1.06,1.06,0,0,0-.56-.28C284.07,6.82,284.21,7,284.63,6.85Z"/><path class="cls-1" d="M174.71,7.66h0Z"/><path class="cls-1" d="M235.16,8c.93-.41,1.28-.75,1.33-1.08A1.61,1.61,0,0,0,235.16,8Z"/><path class="cls-1" d="M214.77,7.51a2.25,2.25,0,0,0-.38.19C214.69,7.62,214.77,7.57,214.77,7.51Z"/><path class="cls-1" d="M171.52,8.29a19.37,19.37,0,0,1,3.19-.63C173.83,7.89,172.14,7.48,171.52,8.29Z"/><polygon class="cls-1" points="297.58 5.46 296.52 6.1 297.64 5.64 297.58 5.46"/><path class="cls-1" d="M287.65,5.88c-.44-.16-2.19.25-1.68.59A5.7,5.7,0,0,1,287.65,5.88Z"/><polygon class="cls-1" points="249.6 5.28 249.17 5.97 250.05 5.44 249.6 5.28"/></svg>