<?xml version="1.0" encoding="utf-8"?>
<!-- Generator: Adobe Illustrator 24.1.0, SVG Export Plug-In . SVG Version: 6.00 Build 0)  -->
<svg version="1.1" id="Layer_1" xmlns="http://www.w3.org/2000/svg" xmlns:xlink="http://www.w3.org/1999/xlink" x="0px" y="0px"
	 viewBox="0 0 413.8 414.4" style="enable-background:new 0 0 413.8 414.4;" xml:space="preserve">
<style type="text/css">
	.st0{fill:#FFFFFF;}
</style>
<g>
	<path class="st0" d="M228.5,401.1c0.7,0.2,1.3,0.5,1.9,0.9C229.7,401.3,235.6,401,228.5,401.1z"/>
	<path class="st0" d="M402.8,358.8l-0.2-0.1c0,0.7,0.1,1.3,0.3,2C402.9,360.1,402.9,359.5,402.8,358.8c0.2,0.2,0.3,0.2,0.4-0.1
		c-0.3-0.3-0.4-0.8-0.4-1.2C402.8,358,402.8,358.4,402.8,358.8z"/>
	<path class="st0" d="M214.5,14.1l-6.4-0.1C209.9,14.1,212.2,14.1,214.5,14.1z"/>
	<path class="st0" d="M14,313.9c0,0.4,0.1,0.9,0.2,1.5C14.1,314.9,14.1,314.4,14,313.9z"/>
	<path class="st0" d="M159.9,14.1c-0.4,0-0.7,0.1-1,0.1C159.2,14.2,159.6,14.2,159.9,14.1z"/>
	<polygon class="st0" points="14.1,349 14.1,347.9 13.9,347.9 	"/>
	<path class="st0" d="M403.5,233.7c0.1-0.3,0.2-0.6,0.2-0.9C403.6,233.1,403.5,233.4,403.5,233.7z"/>
	<path class="st0" d="M403.2,265.3c0.2-1.7,0.3-3,0.3-4L403.2,265.3z"/>
	<path class="st0" d="M403.4,283.7l-0.4-0.4C403.1,283.4,403.2,283.6,403.4,283.7z"/>
	<path class="st0" d="M331,13c-0.3,0-0.6,0-0.8,0C328.2,13.2,329.6,13.1,331,13z"/>
	<path class="st0" d="M404.1,38.4c-0.2-1.1-0.3-2.2-0.5-3.3C403.6,37,403.6,38.4,404.1,38.4z"/>
	<path class="st0" d="M403.7,30.3c-0.2,1.6-0.2,3.2,0,4.8C403.8,33.5,403.8,31.9,403.7,30.3z"/>
	<path class="st0" d="M402.6,378.3v1.1c0.1,0,0.1,0,0.2,0.1L402.6,378.3z"/>
	<path class="st0" d="M402.8,380.6c0-0.4,0-0.8-0.1-1.2L402.8,380.6z"/>
	<path class="st0" d="M402.8,380.6c-0.1,0.8,0,1.7,0.2,2.5L402.8,380.6z"/>
	<path class="st0" d="M402.7,348.9c0,0.2,0.2,0.3,0.3,0.3L402.7,348.9z"/>
	<path class="st0" d="M402.9,340.4c-0.1,2.1-0.8,5.3-0.5,8.2l0.3,0.3C402.2,347.5,403.5,342.4,402.9,340.4z"/>
	<polygon class="st0" points="403.3,83.5 402.7,86.5 403.5,87.9 	"/>
	<path class="st0" d="M490.1-23.1h-53v-53.3H-62.1v53.3h-11V476h11v12.6h499.1V476h53V-23.1z M206.6,8.2c0.1,0.1,0.3,0.1,0.6,0.2
		c-0.3-0.1-0.7-0.2-1.1-0.2H206.6z M151.1,8.2c-1.1,0.2-2.5,0.2-4.9,0c-0.1,0-0.1,0-0.1,0H151.1z M95,8.2h0.2
		C95.1,8.2,95.1,8.2,95,8.2C95,8.2,95,8.2,95,8.2z M94.5,8.2c-0.5,0.2-1.4,0.3-2.9,0.3c-0.5-0.1-1.1-0.2-1.7-0.3H94.5z M60.5,8.2
		c-0.5,0-0.8,0-1.2,0H60.5z M33.7,8.2h0.4C34,8.2,33.8,8.2,33.7,8.2C33.7,8.2,33.7,8.2,33.7,8.2z M7.9,59.1C8,62,8,63.2,7.9,63.5
		V59.1z M118,402.6L118,402.6c1.4,0,3.2,0,5.1,0c0.4,0.3,0,0.7-1.2,0.7C122.6,403.1,119.7,402.9,118,402.6z M403.1,401.7l-0.1-0.1
		L403.1,401.7c-1-0.2-2.3-0.5-4-0.7l-6.5,1l-2.1-0.8l5.5,0c-3.1-0.7-5.1-0.1-7.3,0.4c-0.8-0.5-1.8-0.8-2.7-0.9l-6.4,1.5
		c-0.8-0.6,2.9-1.2-1.4-1.6c-3,0.7,2.9,1.4-2.1,1.9c-3.1-0.7-2.2-1.3-5.9-0.7c-0.5-0.4,0.3-0.7,1.7-0.9c-3.2,0.5-8.6,0.2-10.3,1.1
		c-3.2-0.9-10.9,0.2-10.6-1.3c0.3-0.1,0.3-0.1,0-0.2c0,0.1,0,0.1,0,0.1c-2.8,0.7-5.7,1.1-8.7,1.2c5.5-1.8-11.2-0.1-9.7-2
		c-4,1.6-14.6,0.7-21.7,1.6c0.6-0.2,1.2-0.3,1.8-0.3c-2.6-0.1-5.2-0.4-7.8-0.9c-0.5,1.3-6.8,1.6-10.2,2.5c-4.9-1.3,3-1.6,1.4-2.8
		c0.2,1.1-8.6,1.1-6.9,2c-3.8-0.8-3.2-0.4-5.2-1.5c-0.7,1.7-3.5,0.3-6.6,1.3c-5.5-0.8-1.4-1.6-7.4-1.1c-2.9-0.5,2.5-1.1,2.5-1.1
		c-6.1,0-2.9,1.2-4.2,2c-7.3,0.4-3.4-0.9-5.9-1.6c-4.5,0.3-8,1.5-11.4,1.5c-0.2-0.2-0.9-0.3-0.1-0.5c-4.8,1-14.3,0-19.9,1.3
		c-0.3-0.1-0.5-0.2-0.7-0.3c0.9,0.6,1,1.3,0.9,1.7c-2.7,0-5.1,0.8-6.1,0c0.9,0.1,1.8-0.1,2.6-0.6l-2.9,0.4c-2.6-1.2,3.9-0.4,3.9-1.3
		c-5.6,0.4-12.1,1.4-16.4,1c-0.9-1.2,10-0.4,4.3-1.4l6.6,0.4c-5.1-1.8,4,0.1-0.6-1.8c-8.7-0.3-9.8,0.6-18.5,0.2
		c-2,0.6,0.6,1-1.3,1.6c-12.4,1.2-9.7-2.9-18.8-1.4c-2.3,0.8-3.3,2.2-9.7,1.5l2.2-1.4c-8.5-0.1-4.8,1.9-13.7,1
		c1.6-0.5,6.6-0.4,5.4-0.6c-5.7-1-4,0.7-8.5,0.7l-0.9-1.2c-9,0.2-18.9,1-28.9,1.2c0.5-0.3,2.3-0.7-0.1-1.1
		c-12.6,0.6-26.8-0.1-38.9-0.8l-4.6,1c-1.1,0-2-0.5-0.8-0.7c-4.7-0.4-0.2,0.6-2.5,1c-2.7,0.1-3.6-0.6-1.8-0.9
		c-8.3,0.9-23.7,1.8-32.5,0.8l1.7-0.3c-6.8-0.4-7.7,2.1-14.1,1.1l1.2-0.2c-4.6-0.1-9.3-0.1-14-0.1h-7h-2.2h-1.5c0-0.6,0-1.3,0.1-1.8
		v-0.4v-0.2v-0.4c0-0.6,0.1-1.3,0.1-1.9c0.1-2.5,0.3-4.8,0.6-7c-1.4-2.1,0.7-14.7-1.4-15.6c1-8.5,1.4-6,2-18
		c0.2-3.1-1.2-4.6-1.4-8.6l1.1-0.1l-1.1-5.3l1.2-2.8l-0.3-3.7c0-0.5,0-1-0.1-1.4l0.1,1.5c-0.1,1.5-0.5,3.1-0.8,2.9
		c-0.5-5.8,0.7-14.1,1.3-14.2L13.3,311c0.3,0.2,0.5,1.5,0.6,2.9c-0.5-4.9,1.2-0.4,0.3-6.5c-0.2,0.9-0.6-0.5-0.9-0.6
		c0.6-3.3,0.7-10.9,0.4-16.5l0.7,1.1c0.2-10.1-0.4-21.4-0.3-32.7c-0.3,4.1-1.6,3.1-1.7-0.2l1.1-1.3c-0.7-2.2-0.4,3.5-1.3-0.9
		c0.1-4.2,1.3-2.9,1.6-0.4l-0.4-5.2c0.3-0.3,0.5,0.9,0.9,1.2c-0.7-2.1,1.1-8.9-0.1-12l0.3-0.3c0-11.4-0.4-16.5-0.4-25.8
		c-1-0.2-0.8-3.8-1.5-6.6c0.3-6.8,1.1-14.4,1-22.6c-0.5-5.8-0.8-1.7-1.4-4.3c0.9-0.4,0.8-8.6,1.4-4.4c-0.2-9.8-0.2-12.6-0.9-25
		c-0.4,1.4-0.5,2.9-0.8,2.1c-0.1-2.3,0.4-5.1,0.8-4.8l0.1,0.6c-1.3-14,2.6-32.2,0.7-43.4l0.1,0.6l-1-11.5c0.1-5.3,0.7,3.2,1.2-0.8
		c-1.5-12.4,0.2-19.7-0.8-29.9c2.6-7.9-0.2-28.2,1.5-38.9l-0.6,0.6c-0.6-2.8,0.3-3.3,0.5-5.4c-0.5,0.3-0.5,3-0.9,1.3
		c-0.1-2-0.1-4-0.1-6.1c0-0.8,0-1.5,0-2.3l3.5,0l7.5,0.1c5,0.1,10,0.3,15.1,0.5c10.1,0.3,20.2,0.8,30.1,1c8.8,0.2,5-3.2,16.1-1.7
		l-3.1,1.1c17.7-1.4,36.3,0,53.6-1.1c-0.9,0.4-1.8,0.6-2.8,0.6c3.7,0.8,13.6,0,13.6-0.6c2.7,0.1,0.6,0.6,2.3,1
		c3.7,0.5,9.2-1,11.2-0.2c0.2,0.1-0.2,0.2-0.8,0.2c3.2-0.2,10,0.1,7.9-0.8c6.5,0.4,12.3-0.4,17.5,0.1c-0.2,0.1-0.4,0.1-0.6,0.2
		l4.4,0.4c-1.1-0.3-2.3-0.5-3.5-0.6c3.5-1,11,0.5,12.1-1c-0.5,1.5,11.4,1.2,15.5,0.5c-1.4,0.5,3.6,0.5,2,1.1c4.7,0,9-0.3,8.2-1.1
		c8.7,1.9,17.4-1.5,22.3,0.9c14-0.8,26.9-1.4,39.5-1.8c-0.5,1.6-13.9,0.2-13.4,1.8c11.9-0.6,18.8-2,30.6-1.6
		c3.1,0.2-1.7,0.7-2.8,0.9c11.9-0.6,23,0.1,33.6-0.7c-0.7,0.3-1.5,0.4-2.2,0.4c2.1,0,4.8,0.2,4.6-0.5l-2,0.2c-3.2-1,7.3-2,8.6-2.6
		c-3,1.9,10.5,0.5,5,3c1.4-0.1,3.1-0.5,2.8-0.9c2,0.1,2.7,0.4,0.6,1c7.5-0.4,4.8-1.1,11.6-1.1c0,0.3-1.4,0.5-2.1,0.9
		c4.1-0.9,8.4-1.2,12.6-1c-0.3,0.2,0.3,0.5-1.4,0.5c9.8-0.1,16.8-1.8,27.6-1.1c-1.6,0.7-0.7,0.9,0.7,1h0.5h0.3
		c0.2,0,0.3,0.1,0.5,0.1c0.2,0,0.4,0.3,0.3,0.5c0,0,0,0.1,0,0.1l1-0.2c0.1,0.3,0.1,0.7,0.2,1.1c0.2-0.5,0.4-1,0.6-1.5
		c0,0.6,0,1.3,0.1,1.9l0.1,0.5l0.1,0.9c0,0.6,0.1,1.2,0.1,1.8c0.2,2.2,0.3,4.5,0.1,6.7l-0.5-3.8l0.2,9.5l0.5-5.4
		c0.3,2.5,0.7,2.4,1,2.5v8.3c-0.1,1.2-0.3,2.4-0.5,3.2c0.2,1.2,0.4,2.4,0.5,3.6v5.3c-0.4,0.9-1.4-0.8-1.7-0.2
		c1.1,2.5,0.3,11.9,1.4,15.1c-0.3-1.1-0.9-1.1-1.1-0.8l0.9,2.1c-0.3,2.4-0.4,2.7-1,2.3c-0.2,7.1,1.6-2.2,0.9,6.2
		c-0.2-0.6-0.3-1.1-0.3-1.7c-0.4,8.4,0.6,16.3,0.1,24.1c-1.3,2.3-0.3-6.8-1.4-4.1c0.2,11.2,1.5,23.2,1.2,34l0.1-2
		c1.8,1.5-0.9,8.1,0,13.5c-0.1-1.3-1-1.8-0.8-1.4c-0.3,7.4,0.5,15.2,1,26.4l-0.5-1.4c-0.4,4.4-0.2,11.5-0.5,16.2
		c0.5,1.4,0.4,4.1,1.1,2.5c-2.7,14.5,1.4,27.8-0.8,40.7c0-1.5-0.4-3.7-0.4-2.5l0.4,11c0.8-0.9,0.5-1.4,1.1-3.8c0,0,0,0,0,0v5.4
		c-0.3,0.8-0.7,2.8-0.9,4c0.2-0.4,0.5,0.4,0.8,0.2c-0.7,2.8-0.3,3.1,0.1,3.6v11.6c-0.1-0.7-0.2-1.3-0.5-1.3c0,1.5,0.2,3,0.5,4.4v3.2
		c0-0.5-0.1-1-0.1-1.4c-1.1,4.4-0.8,4.9-1,8.1v-0.3l-0.5,7.5l0.3-1.9c1.7,3.9,1.2,7.9,1.3,12.5v3.4c-0.6-2.2-0.4,1.6-1.2,1.2
		c-0.3,1.9-0.6,4.8-0.9,4c0.8,3.5-0.7,5.9,0.6,10.9c-0.3,0.2,0,3.8-0.9,3c0.3,4.6,0.6-1.1,1-0.7c1.1,7.1-1.4,16.7,0.2,26.9
		c0.3,4.6,0.8,7.2,1.2,9.9v7.4c-0.1-0.5-0.1-0.9-0.1-0.9c-0.4,4-0.4,8,0,12c-0.3-0.8-0.5,0-0.9,1.3c0.1,3.4,1.2,2.2,0.7,6.7
		c-0.6-1.1-1-2.2-1.3-3.4c0.3,4,0.9,7.9,1.2,12c-0.6,1.1-0.9-2.5-1.3-3.9c0.3,4.6,0.5,12,1.5,13.4l0.2-2.3v6.7
		c-0.5-1.5-1.1-2.3-1.8-1.2c1,2.6,0.7,3.3,1.8,5.9v2.8c-0.2,0.9-0.4,1.3-0.7,1.1c0.3,0.8-0.2,3.6,0.5,4.8c0.1-0.3,0.1-0.6,0.2-0.9
		v2.8C404.3,402,403.8,401.9,403.1,401.7z M25.1,8.2h0.8C25.6,8.2,25.4,8.2,25.1,8.2z M404.7,354.9L404.7,354.9
		C404.7,354.8,404.7,354.8,404.7,354.9L404.7,354.9z M404.7,389.6C404.7,389.6,404.7,389.5,404.7,389.6
		C404.7,389.5,404.7,389.5,404.7,389.6L404.7,389.6z M404.7,380.1c-0.2,0.6-0.8-0.1-0.9-1.1c-0.7-4,0.3-5.7,0.7-5.9l0.2,2.9
		c0,0,0-0.1,0.1-0.1V380.1z M404.7,363.1c-0.2-1.6-0.3-3.3-0.3-4.7l0.3,0.4V363.1z"/>
</g>
</svg>
