<svg id="Layer_1" data-name="Layer 1" xmlns="http://www.w3.org/2000/svg" viewBox="0 0 413.79 414.36"><defs><style>.cls-1{fill:#0024f5;}</style></defs><path class="cls-1" d="M403.31,405.15c.29.83,1,.36.83-1.94L403,401.58Z"/><path class="cls-1" d="M405.41,389.69c-.55-2.7-1.52-5.81-2.56-4.06,1.09,2.67.64,3.32,1.93,6.2.14,2.3-.36,4-.78,3.62.29.82-.25,3.57.47,4.81a24,24,0,0,0,.18-10.74C404.9,388.68,405.2,389.5,405.41,389.69Z"/><path class="cls-1" d="M407.18,165.13l-.13,1.44A10.8,10.8,0,0,0,407.18,165.13Z"/><path class="cls-1" d="M407.8,26c0,1.06.14,1.5.25,1.55C408,26.56,407.9,25.75,407.8,26Z"/><path class="cls-1" d="M398.56,5.8l1.4.07A3.63,3.63,0,0,0,398.56,5.8Z"/><path class="cls-1" d="M407.18,165.13l.36-3.72C407.17,161.15,407.26,163.31,407.18,165.13Z"/><path class="cls-1" d="M402.67,358.73a13,13,0,0,0,.3,2c-.05-.63-.09-1.25-.12-1.89Z"/><path class="cls-1" d="M408.1,226.46v1.13a6.31,6.31,0,0,0,.46.94Z"/><path class="cls-1" d="M408.27,273.53c.05-1.06-.92-1.43-1.34-1.84a4.81,4.81,0,0,1,.66,2.32C407.78,274,408,273.89,408.27,273.53Z"/><path class="cls-1" d="M406.58,348.18l.13,1.32C406.68,349.16,406.62,348.58,406.58,348.18Z"/><path class="cls-1" d="M408.31,192.77a.88.88,0,0,0,.34-.43C408.53,192.34,408.42,192.51,408.31,192.77Z"/><path class="cls-1" d="M351,400.62c0,.07,0,.11,0,.17C351.3,400.7,351.39,400.63,351,400.62Z"/><path class="cls-1" d="M405.59,405.4l-.76.05a1.39,1.39,0,0,0-.16.54Z"/><path class="cls-1" d="M355.08,4.56l.2,0C356.42,4.47,355.77,4.49,355.08,4.56Z"/><path class="cls-1" d="M5.72,63c.86-4.52,1.1,7.36,2.06.55C7.4,64.18,6.28,57.36,5.72,63Z"/><path class="cls-1" d="M402.8,357.51c0-.64,0-1.29,0-1.93A16.76,16.76,0,0,0,402.8,357.51Z"/><path class="cls-1" d="M7.78,63.55h0l.09-.7C7.84,63.14,7.81,63.3,7.78,63.55Z"/><path class="cls-1" d="M254.91,5.14a3.1,3.1,0,0,0,1,.42C255.9,5.46,255.67,5.34,254.91,5.14Z"/><path class="cls-1" d="M329.54,6.51l-1.85-.13A17.49,17.49,0,0,0,329.54,6.51Z"/><path class="cls-1" d="M216.16,6.5a11.54,11.54,0,0,0-2.71-.08,2,2,0,0,0,.41.12A5.86,5.86,0,0,1,216.16,6.5Z"/><path class="cls-1" d="M175.83,6.51c.22.07.5.13.75.19l1.27,0Z"/><path class="cls-1" d="M228.46,401.08a6.92,6.92,0,0,1,1.86.87C229.7,401.27,235.62,401,228.46,401.08Z"/><path class="cls-1" d="M403.21,358.71a1.8,1.8,0,0,1-.41-1.2c0,.46,0,.9.05,1.34C403,359,403.13,359,403.21,358.71Z"/><path class="cls-1" d="M214.52,14.11,208.11,14C209.91,14.06,212.23,14.11,214.52,14.11Z"/><path class="cls-1" d="M13.63,334.57l.11,1.47A4.7,4.7,0,0,0,13.63,334.57Z"/><path class="cls-1" d="M189.1,14.11a19.87,19.87,0,0,0-3.61-.67,3.55,3.55,0,0,0-.74.25Z"/><path class="cls-1" d="M230.33,402h0Z"/><path class="cls-1" d="M272.54,399.67c-6.11,0-2.87,1.24-4.16,2-7.29.36-3.38-.93-5.86-1.58-4.55.33-8,1.5-11.43,1.45-.25-.21-.91-.29-.14-.55-4.81,1-14.28.05-19.88,1.32a1.94,1.94,0,0,1-.74-.32c.91.64,1,1.28.86,1.74-2.73,0-5.07.8-6.11,0a4.87,4.87,0,0,0,2.61-.57l-2.87.36c-2.58-1.19,3.91-.41,3.91-1.29-5.59.39-12.11,1.37-16.39,1-.9-1.17,10-.39,4.3-1.43l6.63.44c-5.06-1.83,4,.13-.62-1.83-8.73-.34-9.76.59-18.47.25-2,.65.65,1-1.31,1.61-12.37,1.16-9.74-2.93-18.84-1.38-2.35.77-3.26,2.25-9.74,1.47L176.5,401c-8.45-.13-4.82,1.89-13.67,1,1.57-.52,6.64-.44,5.36-.59-5.73-1-4.05.74-8.46.74l-.91-1.16c-9,.18-18.91,1-28.87,1.23.55-.34,2.26-.71-.07-1.06-12.56.58-26.82-.15-38.94-.84l-4.63,1c-1.08,0-2-.46-.83-.65-4.72-.38-.25.64-2.52,1-2.68.07-3.55-.58-1.84-.88-8.34.86-23.74,1.84-32.52.76l1.71-.3c-6.84-.4-7.72,2.07-14.06,1.13l1.21-.18c-4.59-.13-9.33-.14-14-.13l-7,0H14.24l-1.51,0c0-.64,0-1.26.09-1.84l0-.43,0-.21,0-.43c0-.63.06-1.26.1-1.88.13-2.48.33-4.83.62-7-1.45-2.15.65-14.69-1.37-15.64,1-8.47,1.36-6.05,2-18C14.37,353.53,13,352,12.8,348l1.06-.1-1.11-5.35L14,339.73,13.74,336c-.06,1.47-.47,3.13-.78,2.9-.47-5.77.74-14.07,1.28-14.21l-.89-13.66c.42.3.57,2.59.84,4.4-1.08-7.29,1.11-1.33.13-8-.24.9-.63-.48-.85-.63.64-3.34.65-10.92.38-16.53l.73,1.08c.18-10.13-.35-21.36-.34-32.73-.34,4.08-1.6,3.14-1.72-.19l1.11-1.34c-.69-2.15-.42,3.49-1.26-.93.13-4.25,1.27-2.86,1.63-.42l-.39-5.16c.34-.31.51.9.94,1.22-.7-2.12,1.12-8.91-.09-12l.34-.29c0-11.37-.38-16.52-.43-25.78-1-.18-.76-3.8-1.54-6.56.31-6.81,1.07-14.36,1-22.56-.48-5.76-.82-1.68-1.39-4.27.88-.43.8-8.61,1.43-4.37-.15-9.84-.18-12.57-.89-25-.36,1.35-.52,2.87-.82,2.08-.14-2.26.37-5.14.79-4.81l.09.59c-1.31-14,2.56-32.24.73-43.36l.09.62L12.9,94.61c.15-5.31.66,3.18,1.2-.75-1.46-12.44.22-19.66-.76-29.9,2.59-7.93-.18-28.15,1.47-38.85l-.61.61c-.6-2.76.35-3.34.49-5.38-.47.29-.55,3-.88,1.28q-.09-3-.14-6.13c0-.77,0-1.53-.05-2.31l3.51.05,7.47.13q7.51.18,15.07.46c10.07.35,20.15.76,30.09,1,8.79.16,5-3.16,16.06-1.7l-3.14,1.13c17.74-1.36,36.27,0,53.63-1.1a6.48,6.48,0,0,1-2.76.59c3.67.83,13.57,0,13.63-.63,2.7.08.62.61,2.29,1,3.68.49,9.23-1.05,11.19-.23.33.13-1,.27-1.71.33,2.4-.4,11.17.1,8.88-.85,6.51.45,12.46-.42,17.66.14,3.39-1.06,11.16.51,12.23-1-.46,1.55,11.43,1.25,15.55.52-1.38.47,3.58.49,2,1.14,4.7,0,9-.31,8.19-1.11,8.66,1.86,17.41-1.49,22.29.89,14-.84,26.9-1.4,39.46-1.77-.45,1.55-13.89.16-13.35,1.78,11.92-.64,18.8-2,30.62-1.59,3.06.21-1.74.67-2.77.94,11.91-.64,23,.14,33.62-.71a6.73,6.73,0,0,1-2.25.42c2.09-.05,4.85.23,4.62-.47l-2,.19c-3.33-1,8.3-2.13,8.67-2.67-3.54,2,10.47.5,4.84,3.05,1.37-.13,3.1-.47,2.78-.94,2,.14,2.69.42.62,1,7.48-.38,4.82-1.13,11.6-1.11,0,.34-1.39.47-2.09.87a46,46,0,0,1,12.6-1c-.34.2.32.47-1.39.47,9.84-.11,16.77-1.77,27.56-1.13-1.59.74-.67.86.71,1l.53,0,.26,0a2.09,2.09,0,0,1,.48.13.41.41,0,0,1,.28.61l1-.17c.07.34.14.72.22,1.14a15.13,15.13,0,0,0,.62-1.48,15.39,15.39,0,0,0,.12,1.93l.07.5.06.88c.05.59.1,1.17.14,1.75a38.62,38.62,0,0,1,.1,6.7l-.53-3.77.24,9.52.49-5.39c.66,5.14,1.62-.55,1.26,6.21-.13-1.37,0,5.09-.77,7.74v0a32.58,32.58,0,0,1,.52,8.86c-.41,1-1.42-.78-1.69-.15,1.07,2.48.3,11.91,1.44,15.05-.27-1.05-.94-1.11-1.08-.76l.87,2.08c-.28,2.36-.41,2.7-.95,2.32-.16,7.08,1.63-2.25.93,6.15a13.18,13.18,0,0,1-.34-1.71c-.36,8.44.56,16.31.13,24.06-1.29,2.29-.32-6.77-1.41-4.15.24,11.18,1.55,23.16,1.25,34l.14-2c1.82,1.5-.9,8.07,0,13.54-.14-1.34-1-1.76-.81-1.4-.29,7.42.45,15.16,1,26.39l-.47-1.39c-.42,4.37-.24,11.5-.45,16.22.47,1.4.39,4.1,1.07,2.46-2.66,14.55,1.43,27.76-.79,40.67,0-1.55-.41-3.68-.41-2.45l.43,11c.79-.87.48-1.44,1.1-3.75a28.08,28.08,0,0,1,.83,7.22c-.53-5-1.27,0-1.72,2.18.25-.36.52.37.76.19-1.41,5.75,1.6,1,.65,8.81l-.42-.42c.21,2.94.76,5.64.64,8.81-.91,1.31-.42-3.13-1.18-3.33.06,4.45,1.74,8.77.83,12.8-.26-1.89-.26-4.61-.52-6.5-1.07,4.39-.8,4.89-1,8.15l0-.32-.48,7.53.29-1.92c2.39,5.56.43,11.33,2,18.82-1.48-7.28-.86-1.2-1.9-1.76-.28,1.91-.61,4.82-.9,4,.84,3.55-.66,5.92.56,10.92-.33.22,0,3.79-.87,3,.27,4.6.58-1.09,1-.7,1.15,7.09-1.38,16.68.19,26.89.64,8.81,1.77,10.43,2.33,18.6-.53,2.76-1.22-2.25-1.22-2.25a55.16,55.16,0,0,0,0,12c-.29-.84-.54,0-.91,1.31.09,3.36,1.22,2.25.72,6.68a13.22,13.22,0,0,1-1.34-3.36c.31,4,.93,7.88,1.23,12-.58,1.09-.88-2.48-1.26-3.92.26,4.61.53,11.95,1.45,13.37l.33-3c0,1.68-.79.87-1-.37-.72-4,.32-5.7.65-5.93l.22,2.92c2-3-.32-11.74-.2-17.62l1.42,2.45-1.18-6c.37-1.28,1.17-2.16,1.38.74.71-4.22-.51-3.73.28-7.36.12-.4.19-.21.25.16l-.43-4.13c.3.81,1-.68.8,1.85.83-7.4-1.07-11.93,0-14.71l.08.61c-.48-10.26-1-1-2.27-8.69l2.58-5.18-1.05-1c0-1.06.12-3.15.54-2.76-.72-3.94-.46.67-1.13-1.62.95-5.1-.45-14.05,1.22-15.2-.8-1.83-.62,4.87-1.17-.57,1.8-1.55-.31-6.29.52-10.94.92,1.43.43,5.84,1.26,1.18-1.57-2.81.34-9.07,0-13-1.24-.18-.52-8.54-.93-15.13.42.42.68-12.4,1.13-18.53l.21.18c-1.26-1.18-1-7.51-1.28-12.11.75.18,1,1,1.39,3.5v-4.33a17,17,0,0,1-.76-5.18l.94,1.09c0-5.76-1.11-11.6-.48-19-.88-.42-2.44,5.89-3-2,.48-.29,1.29-.58,1.48,1.47a15.72,15.72,0,0,1-.19-3.75l.8,3.14c.35-3.38-.67-1.77-.59-4.47.67,0,.48-2,1-1.61a18.9,18.9,0,0,0,0,3.39c.12-3,.53-6.72,1-7.94-.39.27-.91,0-1-2.23-.05-5.76.81-2,1.16-5.33-.47-1.4,0-5.07-1-5.17a4.43,4.43,0,0,1,.75-2.65c-.45-3-.13-13.92-1.21-10.56l-.07.76c0-.14,0-.31,0-.49v0c-1-9.77.57-20.3.14-30l.34,0c-.39-5.79-.23-12.88-1-17,0-1.71.62-4,1-3.31-.25-4.42-.63-4.92-.07-11.31.59,4.45.52-1.53.43,4.56.29-5.75.83-7.05-.09-13.23.87,2.11,1.09-4.32.83-7.06l-.62,4c-.13-3.07-.05-5.76,0-8.49l1.14,1.48c1.39-11.77-2.36-21.22,0-30.18-.8-3.11-.57,6.39-1.5,3.61.16-5.41,1.79-11.05,1.8-12.75.63-7.41-1.67-6.91-1.24-14.67-.4,1-1.49,1.93-1.88-3.87.16-5.42,1.71-6.66,2-3.24,0,1.3-.1,1.93-.23,1.87.14,1.75.32,4.05.76,1.9l-.41-.7c.42-2.69.37-10.14,1-8.39-.39-4.09-.67-1.75-.88,1.28.21-2.44.27-4.51.29-6.48,0-3.05,0-6,0-9.12-2.64,0-5.56,0-8.86-.16a11.47,11.47,0,0,1,2.07.44c.36.15.29.26-.55.26l-3.69-.11c-.86,0-1.52,0-2,0a5.76,5.76,0,0,0-1.88.31c-.73.28-1,.64-4.59.73-4-.62,1.44-1.48-5.71-1-4.37-.42-.92-1.08.81-1.41-6.52.78-12.17-.52-15.9-.66l3.44-.33a52.72,52.72,0,0,1-5.45.19l2,.81c-2-.14-3.72-.14-3.68-.48-2.08.53,1.59,1.35-2.54,2.08-2.68-.41-8.18.45-9.11-.63,8.45.36-.93-1.09,6.22-1.26a31.92,31.92,0,0,1-5.08,0c-.31-.12.28-.23.83-.29-8.08-1-3.71,1.22-12.09,1.2,1.06-.61-1.95-1.16-3.31-1,3.37,0,1.61,1-1.49,1.49-5.37-.48-5.84.35-8.65.29l3.21.23c-1.09.6-3.78.52-7.52.72-.32-.48,3.4-.33,2.06-.54-4.16,1.07-9.4-1.11-15.2-.39-2.68-.41-.26-1.14-2.62-1.42-6.5.79-7-.83-13.87-.18,2,.82,2.31.62-2.5,1.41l11.24-.57L297.13,7c3.39,0,7.15-.52,9.18-.38-3.43.67-3.08.47-1.46,1.15-4.64-1.23-9.19.71-14.56-.12l.17-2c-8.06-.91-14.32,1-24.79.53l3.36.35c-1.4.8-6.46.11-9.85.44.32-.68-1.8-.93-3.25-1.35.18.51-7.66,0-8.61,1.31L242.65,6c-8.46-.37-9.65,1.93-17.77,1.7,2.44-.74-1.25-1.22,4.19-1.75-2.71,0-5.15-.13-5.19.34-1.59-.42-7.52.91-10,.27-1.14.3-1.51,1-4.56,1-.33-.14,0-.33,0-.33,0,.33-4.77.45-2.1,1.2-8.36-2.11-23.36.16-30.63-1.66-5.92.23-13.06.45-18.43.5.34-.21,0-.34,1-.27-7.41-.63-4.55,1.94-13,1.24-4.31-1.1,4.48-.59,1.79-1-1.17-2.23-10.18.31-15.86-1L133.5,6c-4.34-.76-10.59.84-17.68.68,0,0,.35-.2,0-.34C111,7.52,101.83,7.9,95,8.21c2.13-.87,3.1-.46,1.81-1.35-3.06.13.89,1.43-5.21,1.67-2-.47-6.39-.89-7-1.83l5.76-.06c-3-1.22-7.46.05-10.49-.17l.39-.53c-8.82.17-9,1.52-18.43,1.42l1,.41C57.67,9.1,58.51,7,53.34,8L51.78,6.66C48.36,7,39.8,8,33.67,8.22c3.47-1,10.65-1.52,15.09-2.11-3.39,0-11.52.1-13.29.76a19.55,19.55,0,0,1,4.44-.25A67.21,67.21,0,0,1,23.53,8.18c.39-.85-1.36-1.22-4.06-1.4-.67,0-1.41-.08-2.18-.1l-2.62-.06L7,6.52c0,2.66-.13,5.23-.29,7.54l-.06.82c0,.18-.05.35-.07.53,0,.34-.11.66-.17,1a8.75,8.75,0,0,1-.44,1.56c1,12-.42,23.7-.26,37.62,2-4.94.06,4.06,2.15,3.21.14,3.24.1,4.48,0,4.77L6.53,73.36c-.61,2.33-.46-3.08-.93-2.78-.16,7.09-.89,3-1.44,7.67.75-1,1.07,2.47.78,6.52l1-5.7C7,89,4.15,87.64,5.26,97.64L4.6,94.48c.39,5.13,0,18.93,1.67,24-.24.91-.82,2.11-1-.15-.25,12.27,1.79,27.3.76,36.83l-.52-.93c.15,2.29,1,4,.45,6.85-.21-.15-.51-.93-.54.13a46.3,46.3,0,0,1,.6,9.11l-.58-2.59c-.67,12,1.41,18.36,1.76,28.39-1.51,0-2,9.38-2.25,14.08L4.77,210C4.58,223.91,6,233.64,6.61,246.54c-1.64,8-.68,27.12-1.6,40,.27-2,1.17.32,1.33,2.6-.31,3,1,8.35-.34,7.87l0-1.07c-1.36,2.27-1,8.48-1,13.32l1.81.8c-2.63,12.67,1,33.21-1.39,40.12.45,3.06.45,6.85.9,9.88l-1-.16c-.25,8.47-.37,12.7-.14,23.18l-.69-2.14c-.07,5.91,2.8,7.46,2.85,12.91l-1.45,1.64v2.41l-.05,2.91q-.09,4.18-.17,8.38l9.21.19,2.82.07,2.67,0a83,83,0,0,0,10.58-.6c-.16.21-.47.63-2.14.69,4.86,0,18.77,1,17-1,.12,1.3,10.63.13,16.2-.44l-.87.95c4.7-1.22,4.85-1.55,11.41-1.89,1.56.13,1.37.77-.7.52,5.18.5,4-.9,10.32-.39l-2.34.61c5.33.07,4.91-.26,7.84-1,3.35-.38,10.11.24,10.9,1.11.72-.53,3.64-1.24,6.78-1,.42.33-.72.53-1.3.63,8.92.65,13.26-1.11,19.39-.17.13.32.53.47,1,.57-7.08,0-12.78-.08-12.25-.15,0,.89,5.72,1,1.17,2.26,4.6-.67,12.45-2.11,18-1.7a2.94,2.94,0,0,1,.74.31l-.58.1a17.51,17.51,0,0,0,3.53-.14c1.78.14,2.91.25,4.61.26.66.73,6.56.39,9.42.43-.24-1,3.49-.81,0-1.61.45.07-.54.12-2.44.16a12,12,0,0,0-1.22.1l.2-.09-7.09.07a19,19,0,0,1,7.76-.37c1.46-.62,3.07-1.25,4-1.55,3.91,1.34,11.43,2.07,12.48,2.9,8.7-.54,20.51-.36,26-2.17,2.47-.23,2.84.52,3.77.8a33.65,33.65,0,0,0-3.9.42c4.95-.47,14.66-.18,15.85-1.45,6.24.57-3.51,1.17,5.06,1l-1.15.39c16.86,2,27.42-3.23,46.12-.64a6.07,6.07,0,0,1-2.21-.44c21.32,1.14,43.94-1.08,65,.74,6,.36,6.63-.44,10.28-1.06l1.3,1,6.24-1.2c8.85-.87,15.32,2.54,26.52.89l-1.44-.7c4,.13,12.74-.41,12.07.39a4.34,4.34,0,0,1,2.89-.36l.12.54,9.89-.93c7.66.4-1.2,2.16,10,2.26,4.16-.21,11.83-1.58,10.27-1.94-1.67,0-4.28-.34-4.41-.88l3.8-.28c.69-1.6,3.62-3.23-5.71-4.35l-6.51,1-2.09-.78,5.47-.05c-3.1-.73-5.07-.08-7.27.36a5.67,5.67,0,0,0-2.73-.85l-6.38,1.52c-.78-.62,2.86-1.24-1.42-1.58-3,.71,2.86,1.4-2.09,1.87-3.11-.73-2.2-1.32-5.85-.7-.51-.41.26-.67,1.71-.86-3.25.5-8.6.21-10.28,1.06-3.24-.89-11,.23-10.65-1.28a43.79,43.79,0,0,1-8.71,1.25c5.45-1.81-11.17-.1-9.73-2-4,1.62-14.58.72-21.73,1.62a4.64,4.64,0,0,1,1.82-.31,57.32,57.32,0,0,1-7.78-.93c-.52,1.34-6.78,1.65-10.16,2.48-4.93-1.3,3-1.58,1.44-2.82.25,1.09-8.56,1.08-6.89,2-3.77-.8-3.25-.39-5.19-1.5-.66,1.68-3.51.28-6.64,1.31-5.46-.82-1.41-1.57-7.4-1.06C267.21,400.27,272.54,399.67,272.54,399.67Zm-142.61,2.91v0l2.95-.06Zm-12,0c1.46,0,3.28.05,5.2,0,.42.33,0,.68-1.24.66C122.56,403.07,119.74,402.87,118,402.59Zm25.35,6.68c-1.9.14-2.53,0-2.79-.25.89,0,1.94,0,3.31-.11l.23-.12A1.8,1.8,0,0,1,143.3,409.27Z"/><path class="cls-1" d="M146.71,408c.27,0,.42-.06.78-.07-.39-.09-.75-.16-1.13-.22l-.67.3Z"/><path class="cls-1" d="M407,166.83l0-.26a2.35,2.35,0,0,1-.14.53A1.6,1.6,0,0,1,407,166.83Z"/><polygon class="cls-1" points="14.1 347.91 13.86 347.93 14.07 348.98 14.1 347.91"/><path class="cls-1" d="M403.71,232.83a2.25,2.25,0,0,0-.24.87A3,3,0,0,0,403.71,232.83Z"/><path class="cls-1" d="M403.5,261.34l-.34,4C403.35,263.63,403.44,262.36,403.5,261.34Z"/><path class="cls-1" d="M403,283.26a1.11,1.11,0,0,0,.41.43v0Z"/><path class="cls-1" d="M331.05,13c-.3,0-.59,0-.85,0C328.22,13.19,329.57,13.12,331.05,13Z"/><path class="cls-1" d="M404.14,38.44c-.18-1.1-.35-2.18-.46-3.33C403.61,37,403.59,38.39,404.14,38.44Z"/><path class="cls-1" d="M215.22,14.12h0Z"/><path class="cls-1" d="M403.7,30.28a24.39,24.39,0,0,0,0,4.83A35.38,35.38,0,0,0,403.7,30.28Z"/><path class="cls-1" d="M402.58,378.27l0,1.06c.07,0,.12,0,.16.12Z"/><path class="cls-1" d="M402.7,379.45l.11,1.18A3.34,3.34,0,0,0,402.7,379.45Z"/><path class="cls-1" d="M403.05,383.09l-.24-2.46A6.85,6.85,0,0,0,403.05,383.09Z"/><path class="cls-1" d="M403,349.25l-.35-.33A.47.47,0,0,0,403,349.25Z"/><path class="cls-1" d="M402.93,340.43c-.08,2.11-.75,5.28-.53,8.22l.28.27C402.16,347.54,403.52,342.43,402.93,340.43Z"/><path class="cls-1" d="M407.25,303.63,407,311c.37-1.29.87-3,1,.37C409,302.07,407.1,313.31,407.25,303.63Z"/><path class="cls-1" d="M407.79,280.71c.17,4,.54,0,.75.17C408.2,278.36,408.11,277.75,407.79,280.71Z"/><path class="cls-1" d="M407.79,115.13l.88.4C408.54,112.47,408.33,115.5,407.79,115.13Z"/><polygon class="cls-1" points="403.26 83.47 402.71 86.45 403.52 87.87 403.26 83.47"/><polygon class="cls-1" points="409.51 64.78 409.63 66.11 409.31 61.01 409.51 64.78"/><path class="cls-1" d="M183,5.66l.92,1.08C186,6.54,186.43,5.33,183,5.66Z"/><path class="cls-1" d="M63,6.76a13.94,13.94,0,0,0-6.77-.36C58.88,6.47,61.57,6.89,63,6.76Z"/><polygon class="cls-1" points="5.44 316.07 5.08 313.66 5.38 318.21 5.44 316.07"/><rect class="cls-1" x="-0.34" y="0.2" width="414" height="8"/><rect class="cls-1" x="-0.34" y="0.2" width="8" height="414"/><rect class="cls-1" x="404.66" y="0.2" width="9" height="414"/><rect class="cls-1" x="-0.34" y="405.2" width="414" height="9"/></svg>