<svg id="botanic-border-main" xmlns="http://www.w3.org/2000/svg" width="348.279" height="34.404" viewBox="0 0 348.279 34.404">
  <path id="Path_2169" data-name="Path 2169" d="M1132.218,1382.773a4.729,4.729,0,0,1-1.179-1.083c-.178-.262-.295-.539-.5-.789-.647-.807-.083-2.067-.833-2.966-.511-.612-1.88-1.814-2.783-1.563-1.1.3.527,2.662.79,3.122a3.035,3.035,0,0,0,1.171,1.4,5.235,5.235,0,0,1,2,1.417,3.536,3.536,0,0,0,1.757,1.161c.323.137.652.058.969.262-.069.226-.513.41-.7.564a6.734,6.734,0,0,1-.657.486q-.636.426-1.274.847a1.847,1.847,0,0,1-.939.441,3.749,3.749,0,0,1-1.089-.04,9.164,9.164,0,0,1-1.561-.539c-1.136-.51-2.251-1.055-3.431-1.46a5.856,5.856,0,0,0-2.057-.473c-.618.033-2.032.554-1.992,1.329.082,1.609,3.326,1.016,4.227.884.529-.077,1.033-.356,1.553-.4.664-.058,1.058.372,1.618.614a9.437,9.437,0,0,0,1.188.425c.225.063.91.117.52.472-.152.138-.4.14-.581.224a2.37,2.37,0,0,0-.55.444,4.579,4.579,0,0,1-.861.521c-.663.368-1.336.717-2.024,1.037a9.219,9.219,0,0,1-1.713.714,2.784,2.784,0,0,1-1.368-.091,13.387,13.387,0,0,1-1.45-.555c-1.136-.494-2.283-1.032-3.384-1.589-.688-.348-2.065-1.153-2.864-.794-.933.42-.345,1.331.231,1.772,1.024.783,1.98.414,3.149.351a6.9,6.9,0,0,1,2.7.645c.286.118,1.278.887,1.563.753a3.421,3.421,0,0,1-.682.162c-.231.056-.461.117-.694.172-.307.074-.618.135-.924.216a14.7,14.7,0,0,1-1.708.356,22.233,22.233,0,0,1-3.875.38c-1.256-.053-2.414-.882-3.663-.855-.7.014-2.484.49-2.586,1.36-.091.8,1.53,1.036,2.111,1.154a5.775,5.775,0,0,0,2.845-.289,22.673,22.673,0,0,1,2.179-.815c1.259-.281,2.538-.383,3.807-.6.213-.036.418-.154.631-.172.595-.05.745-.244.571.444a3.437,3.437,0,0,1-1.043,1.5c-.731.648-1.646.871-2.272,1.671-.425.544-1.141,1.892-.27,2.36.539.29,1.466-.119,1.915-.426,2.164-1.483.834-4.448,2.913-5.862a2.991,2.991,0,0,1,.86-.276,3.584,3.584,0,0,0,.927-.33,1.268,1.268,0,0,1,.606-.156,3.015,3.015,0,0,0,.836-.381c.323-.155.646-.311.972-.463.461-.216.881-.519,1.337-.747a1.739,1.739,0,0,1,.725-.28c.363.031.18.345.083.64s-.177.584-.25.878c-.156.624-.162,1.286-.361,1.9-.415,1.284-1.918,2.038-1.683,3.555l.009.056c.127.764.235,3.62,1.586,2.769a5.027,5.027,0,0,0,1.307-2.014,3.072,3.072,0,0,0-.174-2.575c-.425-.909.013-1.611-.165-2.508a4.057,4.057,0,0,1,1.217-3.559,3.076,3.076,0,0,1,1.169-.68,5.589,5.589,0,0,0,.668-.478,3.321,3.321,0,0,0,.445-.317c.35-.327.794-.5,1.158-.792.2-.164.478-.269.681-.444a3.735,3.735,0,0,1,.507-.388c.137-.086.272-.174.408-.263v-1A2.755,2.755,0,0,1,1132.218,1382.773Z" transform="translate(-785.721 -1373.26)" fill="#5e6850"/>
  <path id="Path_2170" data-name="Path 2170" d="M1133.611,1373.335c-.725.148-1.331.106-.884,1.015a3.162,3.162,0,0,0,1.273,1.131v-2.2A3.809,3.809,0,0,0,1133.611,1373.335Z" transform="translate(-785.721 -1373.26)" fill="#5e6850"/>
  <path id="Path_2171" data-name="Path 2171" d="M1119.7,1402.1a3.846,3.846,0,0,1-.74-.093c-.15-.012-.294.025-.442.019a11.97,11.97,0,0,1-1.495-.164c-.524-.09-1.068-.079-1.6-.14a9.672,9.672,0,0,1-2.239-.423c-.638-.231-1.325-.3-1.962-.54-.734-.281-1.483-.53-2.2-.858-.4-.184-.808-.35-1.213-.535-.3-.138-.57-.339-.872-.476a4.223,4.223,0,0,1-1.328-.876,3.93,3.93,0,0,1-.527-.859,13.109,13.109,0,0,1-.763-1.8,7.167,7.167,0,0,1-.6-2.075c-.017-.621.414-1.1.408-1.728-.013-1.172-.556-5.739-2.5-5.351-.777.156-.768,2.335-.826,2.943-.165,1.71,1.877,2.815,2.462,4.307.422,1.081.6,2.244,1.087,3.3.1.22.316.516.26.787-.107.517-.583.076-.8-.155-.324-.352-.755-.393-1.155-.637-.465-.282-.925-.572-1.383-.865-.531-.339-1.047-.7-1.58-1.037a3.754,3.754,0,0,1-.509-.388c-.2-.175-.479-.28-.68-.444-.365-.3-.808-.465-1.157-.792a3.265,3.265,0,0,0-.446-.317,5.658,5.658,0,0,0-.667-.478,3.075,3.075,0,0,1-1.171-.68c-.252-.276-.572-.453-.72-.811-.1-.232-.185-.47-.266-.709a13.27,13.27,0,0,1-.362-1.317,9.259,9.259,0,0,1-.342-3.084,14.326,14.326,0,0,0,.423-2.283c0-.745.106-3.913-1.3-3.6-1.058.233-1.13,1.7-1.079,2.558a3.683,3.683,0,0,0,.351,1.274,17.831,17.831,0,0,1,1.049,2.255c.305,1.06.242,2.251.514,3.345.073.294.156.588.25.878s.281.608-.082.64a1.755,1.755,0,0,1-.726-.28c-.456-.228-.876-.531-1.337-.747-.325-.152-.648-.308-.972-.463a3,3,0,0,0-.836-.381,1.288,1.288,0,0,1-.607-.156,3.551,3.551,0,0,0-.926-.33,3.009,3.009,0,0,1-.861-.276,2.553,2.553,0,0,1-.768-.8c-.26-.444-.571-.861-.851-1.294-.109-.168-.25-.309-.36-.481-.653-1.026-.7-2.23-1.368-3.305-.369-.6-3-3.43-3.382-1.774-.323,1.39,1.668,3.448,2.767,3.971a4.624,4.624,0,0,1,1.023.481,4.854,4.854,0,0,1,.786,1c.219.3.454.6.651.916a2.2,2.2,0,0,1,.26.527,1.415,1.415,0,0,0,.083.235c.041.081.121.187.035.271-.129.126-.534-.046-.689-.059-.213-.018-.418-.137-.63-.171-.525-.089-1.052-.16-1.58-.216-.866-.092-1.738-.1-2.607-.133a14.98,14.98,0,0,1-2.14-.015,4.634,4.634,0,0,1-.662-.068c-.794-.324-1.38-.9-2.254-.9a12.267,12.267,0,0,0-1.825.168c-.566.086-2.57.646-2.434,1.5.058.358.687.617.975.711a3.987,3.987,0,0,0,2.505-.044c.737-.2,1.509-.071,2.261-.262a14.743,14.743,0,0,1,2.51-.656,22.239,22.239,0,0,1,4.432.257,14.84,14.84,0,0,1,1.707.357c.306.081.617.142.925.216.233.055.463.115.7.172a2.649,2.649,0,0,1,.671.142c.061.032-.357.23-.4.25-.2.086-.382.2-.579.289-.383.171-.8.258-1.176.439a9.165,9.165,0,0,1-2.8.953c-1.788.27-3.334.674-4.139,2.4-.353.759-.676,1.9.578,1.81a4.2,4.2,0,0,0,1.7-.839,15.271,15.271,0,0,0,1.8-1.2,10.95,10.95,0,0,0,1.175-1.463,6.423,6.423,0,0,1,2.448-1.482,13.207,13.207,0,0,1,1.45-.554,2.765,2.765,0,0,1,1.369-.092,9.1,9.1,0,0,1,1.712.714c.688.32,1.361.669,2.024,1.037a4.552,4.552,0,0,1,.862.521,2.339,2.339,0,0,0,.549.444c.177.084.43.086.58.223.391.356-.294.41-.519.473a9.679,9.679,0,0,0-1.189.424,6.69,6.69,0,0,1-.988.537c-.68.166-1.26-.077-1.9.115-1.3.388-2.336.352-3.294,1.36-.518.544-1.675,1.7-1.654,2.514.033,1.361,2.457-.245,3.021-.547a5.819,5.819,0,0,0,2.079-1.3,6.827,6.827,0,0,1,1.407-1.617,10.1,10.1,0,0,1,2.977-1.112,3.7,3.7,0,0,1,1.087-.04,1.832,1.832,0,0,1,.939.441q.641.42,1.274.847a6.516,6.516,0,0,1,.658.486c.182.154.625.338.695.564-.316.2-.646.125-.969.262a4.012,4.012,0,0,0-1.76,1.164c-.471.6-.746,1.388-1.467,1.714-.989.447-1.836.429-2.354,1.54a8.539,8.539,0,0,0-.709,3.4c.1,1.739,1.7.161,2.216-.452a15.229,15.229,0,0,0,1.6-2.449c.451-.849-.226-1.6.375-2.343.2-.251.317-.528.495-.791a4.746,4.746,0,0,1,1.179-1.082,2.8,2.8,0,0,1,2.1-.408,3.331,3.331,0,0,1,1.679.881,4.875,4.875,0,0,0,1.442.966,13.832,13.832,0,0,0,1.578.729,5.252,5.252,0,0,1,1.157.57c.352.21,1.345.311,1.256.855-.068.42-1.672,1.475-2.074,1.693-.654.353-1.422.436-2.091.775-1.041.528-1.464,1.414-2.162,2.274-.51.63-1.75,1.665-1.456,2.611.223.716,2.58-1.123,2.775-1.266a4.517,4.517,0,0,0,2.175-2.627c.059-.306.471-.611.659-.862.256-.341.577-.624.862-.938a3.706,3.706,0,0,1,2.069-1.266,4.377,4.377,0,0,1,2.272.535,40.034,40.034,0,0,0,5.451,1.483c.924.187,1.855.341,2.788.469.281.038.956.256,1.2.07a1.145,1.145,0,0,0,.3-.776C1120.2,1402.039,1119.941,1402.075,1119.7,1402.1Z" transform="translate(-785.721 -1373.26)" fill="#5e6850"/>
  <path id="Path_2172" data-name="Path 2172" d="M1073.258,1379.426c.715-.328,1.465-.577,2.2-.859.637-.243,1.325-.308,1.963-.539a9.663,9.663,0,0,1,2.239-.423c.528-.062,1.072-.05,1.6-.14a11.97,11.97,0,0,1,1.495-.164c.149-.006.292.031.442.019a3.77,3.77,0,0,1,.74-.093c.238.024.5.06.608-.222a1.145,1.145,0,0,0-.3-.776c-.241-.186-.916.032-1.2.07-.934.128-1.865.282-2.789.468a40.218,40.218,0,0,0-5.451,1.484,4.407,4.407,0,0,1-2.272.536,3.707,3.707,0,0,1-2.068-1.267c-.286-.314-.606-.6-.862-.938-.7-.933-.891-1.615-1.976-2.221-1.252-.7-2.244-1.32-3.674-1.026-.726.148-1.33.106-.885,1.015a3.2,3.2,0,0,0,1.293,1.142,7.551,7.551,0,0,0,2.558,1.277c.684.089,1.4-.29,2.086-.061.576.193,1.013.93,1.434,1.334a6.679,6.679,0,0,0,.975.788c1.081.713-.386.9-.893,1.205a5.256,5.256,0,0,1-1.158.57,13.755,13.755,0,0,0-1.578.729,4.876,4.876,0,0,0-1.443.966,3.32,3.32,0,0,1-1.678.881,2.8,2.8,0,0,1-2.1-.408,4.726,4.726,0,0,1-1.179-1.083c-.178-.262-.3-.539-.5-.789-.647-.807-.083-2.067-.833-2.966-.511-.612-1.88-1.814-2.784-1.563-1.095.3.528,2.662.791,3.122a3.035,3.035,0,0,0,1.171,1.4,5.217,5.217,0,0,1,2,1.417,3.551,3.551,0,0,0,1.758,1.161c.323.137.653.058.969.262-.07.226-.513.41-.7.564a6.734,6.734,0,0,1-.657.486q-.636.426-1.274.847a1.843,1.843,0,0,1-.94.441,3.738,3.738,0,0,1-1.087-.04,9.171,9.171,0,0,1-1.562-.539c-1.135-.51-2.25-1.055-3.431-1.46a5.851,5.851,0,0,0-2.056-.473c-.619.033-2.033.554-1.993,1.329.083,1.609,3.326,1.016,4.227.884.53-.077,1.032-.356,1.553-.4.665-.058,1.058.372,1.618.614a9.382,9.382,0,0,0,1.188.425c.226.063.91.117.519.472-.15.138-.4.14-.58.224a2.345,2.345,0,0,0-.549.444,4.65,4.65,0,0,1-.862.521c-.663.368-1.336.717-2.024,1.037a9.219,9.219,0,0,1-1.713.714,2.785,2.785,0,0,1-1.368-.091,13.465,13.465,0,0,1-1.45-.555c-1.136-.494-2.283-1.032-3.384-1.589-.689-.348-2.065-1.153-2.864-.794-.933.42-.344,1.331.231,1.772,1.024.783,1.98.414,3.149.351a6.9,6.9,0,0,1,2.7.645c.286.118,1.278.887,1.564.753a3.474,3.474,0,0,1-.682.162c-.232.056-.462.117-.7.172-.308.074-.619.135-.925.216a14.578,14.578,0,0,1-1.708.356,22.223,22.223,0,0,1-3.874.38c-1.256-.053-2.415-.882-3.663-.855-.7.014-2.484.49-2.585,1.36-.093.8,1.529,1.036,2.109,1.154a5.772,5.772,0,0,0,2.845-.289,22.785,22.785,0,0,1,2.179-.815c1.26-.281,2.539-.383,3.809-.6.212-.036.417-.154.63-.172.595-.05.745-.244.571.444a3.439,3.439,0,0,1-1.044,1.5c-.73.648-1.645.871-2.271,1.671-.425.544-1.141,1.892-.269,2.36.539.29,1.465-.119,1.913-.426,2.165-1.483.835-4.448,2.913-5.862a3.017,3.017,0,0,1,.861-.276,3.552,3.552,0,0,0,.926-.33,1.275,1.275,0,0,1,.607-.156,3.028,3.028,0,0,0,.836-.381c.324-.155.647-.311.972-.463.461-.216.881-.519,1.337-.747a1.738,1.738,0,0,1,.726-.28c.363.031.179.345.083.64s-.178.584-.251.878c-.156.624-.162,1.286-.36,1.9-.417,1.284-1.92,2.038-1.683,3.555,0,.018.006.037.008.056.128.764.235,3.62,1.586,2.769a5.026,5.026,0,0,0,1.307-2.014,3.073,3.073,0,0,0-.175-2.575c-.423-.909.014-1.611-.164-2.508a4.062,4.062,0,0,1,1.216-3.559,3.08,3.08,0,0,1,1.17-.68,5.589,5.589,0,0,0,.668-.478,3.331,3.331,0,0,0,.446-.317c.348-.327.792-.5,1.157-.792.2-.164.478-.269.68-.444a3.754,3.754,0,0,1,.509-.388c.533-.336,1.049-.7,1.58-1.036.458-.294.919-.584,1.383-.866.4-.244.831-.285,1.156-.637.213-.232.688-.672.795-.155.057.271-.157.567-.258.787a14.4,14.4,0,0,0-.573,1.46,16.018,16.018,0,0,1-.49,1.782,4.6,4.6,0,0,1-1.022,1.159,3.985,3.985,0,0,0-.819,2.788c0,.437-.1,2.327.4,2.474,1.17.344,2.7-3.289,2.6-4.063s-.712-1.234-.728-2.016a6.515,6.515,0,0,1,.6-2.187,12.9,12.9,0,0,1,.763-1.8,3.924,3.924,0,0,1,.526-.859,4.223,4.223,0,0,1,1.328-.876c.3-.137.572-.338.873-.476C1072.448,1379.776,1072.855,1379.61,1073.258,1379.426Z" transform="translate(-785.721 -1373.26)" fill="#5e6850"/>
  <path id="Path_2173" data-name="Path 2173" d="M1050.047,1402.1a3.826,3.826,0,0,1-.739-.093c-.151-.012-.294.025-.443.019a11.914,11.914,0,0,1-1.494-.164c-.525-.09-1.069-.079-1.6-.14a9.65,9.65,0,0,1-2.239-.423c-.639-.231-1.326-.3-1.963-.54-.734-.281-1.483-.53-2.2-.858-.4-.184-.81-.35-1.214-.535-.3-.138-.571-.339-.872-.476a4.223,4.223,0,0,1-1.328-.876,3.889,3.889,0,0,1-.526-.859,12.974,12.974,0,0,1-.763-1.8,7.1,7.1,0,0,1-.6-2.075c-.017-.621.414-1.1.408-1.728-.012-1.172-.555-5.739-2.5-5.351-.777.156-.768,2.335-.826,2.943-.166,1.71,1.877,2.815,2.461,4.307.424,1.081.6,2.244,1.088,3.3.1.22.316.516.26.787-.108.517-.583.076-.8-.155-.324-.352-.756-.393-1.156-.637-.464-.282-.926-.572-1.383-.865-.531-.339-1.048-.7-1.581-1.037a3.735,3.735,0,0,1-.507-.388c-.2-.175-.479-.28-.681-.444-.364-.3-.808-.465-1.158-.792a3.247,3.247,0,0,0-.445-.317,5.589,5.589,0,0,0-.668-.478,3.086,3.086,0,0,1-1.17-.68c-.252-.276-.573-.453-.72-.811-.1-.232-.185-.47-.265-.709a13.014,13.014,0,0,1-.363-1.317,9.283,9.283,0,0,1-.342-3.084,14.332,14.332,0,0,0,.423-2.283c0-.745.106-3.913-1.3-3.6-1.058.233-1.131,1.7-1.079,2.558a3.619,3.619,0,0,0,.351,1.274,18.118,18.118,0,0,1,1.048,2.255c.305,1.06.242,2.251.514,3.345.073.294.156.588.25.878s.28.608-.083.64a1.762,1.762,0,0,1-.725-.28c-.456-.228-.876-.531-1.337-.747-.325-.152-.649-.308-.972-.463a2.994,2.994,0,0,0-.837-.381,1.277,1.277,0,0,1-.6-.156,3.573,3.573,0,0,0-.927-.33,2.982,2.982,0,0,1-.86-.276,2.545,2.545,0,0,1-.769-.8c-.26-.444-.571-.861-.851-1.294-.109-.168-.25-.309-.36-.481-.654-1.026-.7-2.23-1.368-3.305-.369-.6-3-3.43-3.383-1.774-.321,1.39,1.669,3.448,2.768,3.971a4.644,4.644,0,0,1,1.023.481,4.843,4.843,0,0,1,.785,1c.22.3.455.6.653.916a2.266,2.266,0,0,1,.259.527,1.258,1.258,0,0,0,.083.235c.042.081.121.187.035.271-.129.126-.534-.046-.688-.059-.214-.018-.418-.137-.632-.171-.523-.089-1.05-.16-1.579-.216-.867-.092-1.739-.1-2.607-.133a15,15,0,0,1-2.141-.015,4.617,4.617,0,0,1-.661-.068c-.8-.324-1.379-.9-2.254-.9a12.251,12.251,0,0,0-1.824.168c-.567.086-2.572.646-2.434,1.5.057.358.687.617.975.711a3.987,3.987,0,0,0,2.505-.044c.736-.2,1.508-.071,2.26-.262a14.717,14.717,0,0,1,2.51-.656,22.234,22.234,0,0,1,4.432.257,14.877,14.877,0,0,1,1.707.357c.306.081.618.142.925.216.233.055.463.115.694.172a2.637,2.637,0,0,1,.672.142c.062.032-.357.23-.4.25-.2.086-.382.2-.579.289-.382.171-.8.258-1.176.439a9.154,9.154,0,0,1-2.8.953c-1.789.27-3.333.674-4.138,2.4-.354.759-.677,1.9.578,1.81a4.213,4.213,0,0,0,1.7-.839,15.191,15.191,0,0,0,1.8-1.2,10.945,10.945,0,0,0,1.175-1.463,6.423,6.423,0,0,1,2.448-1.482,13.128,13.128,0,0,1,1.45-.554,2.764,2.764,0,0,1,1.369-.092,9.1,9.1,0,0,1,1.712.714c.688.32,1.361.669,2.025,1.037a4.571,4.571,0,0,1,.86.521,2.344,2.344,0,0,0,.55.444c.177.084.43.086.581.223.39.356-.3.41-.52.473a9.607,9.607,0,0,0-1.188.424,6.786,6.786,0,0,1-.988.537c-.682.166-1.262-.077-1.9.115-1.3.388-2.336.352-3.295,1.36-.516.544-1.674,1.7-1.654,2.514.034,1.361,2.458-.245,3.022-.547a5.806,5.806,0,0,0,2.078-1.3,6.877,6.877,0,0,1,1.408-1.617,10.117,10.117,0,0,1,2.976-1.112,3.713,3.713,0,0,1,1.089-.04,1.839,1.839,0,0,1,.939.441q.639.42,1.274.847a6.732,6.732,0,0,1,.657.486c.182.154.626.338.694.564-.315.2-.645.125-.969.262a4.02,4.02,0,0,0-1.759,1.164c-.47.6-.747,1.388-1.468,1.714-.988.447-1.836.429-2.353,1.54a8.555,8.555,0,0,0-.709,3.4c.1,1.739,1.705.161,2.217-.452a15.29,15.29,0,0,0,1.6-2.449c.45-.849-.225-1.6.374-2.343.2-.251.318-.528.5-.791a4.729,4.729,0,0,1,1.179-1.082,2.8,2.8,0,0,1,2.1-.408,3.331,3.331,0,0,1,1.679.881,4.848,4.848,0,0,0,1.442.966,13.832,13.832,0,0,0,1.578.729,5.276,5.276,0,0,1,1.157.57c.353.21,1.344.311,1.255.855-.068.42-1.67,1.475-2.073,1.693-.653.353-1.423.436-2.091.775-1.04.528-1.464,1.414-2.161,2.274-.511.63-1.751,1.665-1.456,2.611.222.716,2.579-1.123,2.774-1.266a4.517,4.517,0,0,0,2.175-2.627c.059-.306.47-.611.659-.862.256-.341.577-.624.861-.938a3.712,3.712,0,0,1,2.07-1.266,4.379,4.379,0,0,1,2.272.535,40.009,40.009,0,0,0,5.452,1.483c.923.187,1.854.341,2.787.469.281.038.956.256,1.2.07a1.137,1.137,0,0,0,.3-.776C1050.547,1402.039,1050.286,1402.075,1050.047,1402.1Z" transform="translate(-785.721 -1373.26)" fill="#5e6850"/>
  <path id="Path_2174" data-name="Path 2174" d="M1003.6,1379.426c.716-.328,1.465-.577,2.2-.859.637-.243,1.324-.308,1.963-.539a9.664,9.664,0,0,1,2.239-.423c.528-.062,1.072-.05,1.6-.14a11.935,11.935,0,0,1,1.494-.164c.149-.006.292.031.442.019a3.762,3.762,0,0,1,.74-.093c.238.024.5.06.608-.222a1.135,1.135,0,0,0-.3-.776c-.241-.186-.915.032-1.2.07-.933.128-1.863.282-2.787.468a40.138,40.138,0,0,0-5.451,1.484,4.412,4.412,0,0,1-2.273.536,3.717,3.717,0,0,1-2.069-1.267c-.285-.314-.606-.6-.861-.938-.7-.933-.892-1.615-1.976-2.221-1.251-.7-2.244-1.32-3.674-1.026-.725.148-1.33.106-.885,1.015a3.218,3.218,0,0,0,1.293,1.142,7.552,7.552,0,0,0,2.558,1.277c.684.089,1.4-.29,2.087-.061.575.193,1.012.93,1.432,1.334a6.69,6.69,0,0,0,.976.788c1.081.713-.386.9-.893,1.205a5.3,5.3,0,0,1-1.157.57,13.669,13.669,0,0,0-1.578.729,4.862,4.862,0,0,0-1.443.966,3.327,3.327,0,0,1-1.679.881,2.8,2.8,0,0,1-2.1-.408,4.734,4.734,0,0,1-1.18-1.083c-.177-.262-.294-.539-.5-.789-.647-.807-.083-2.067-.833-2.966-.51-.612-1.88-1.814-2.783-1.563-1.095.3.528,2.662.79,3.122a3.037,3.037,0,0,0,1.172,1.4,5.239,5.239,0,0,1,2,1.417,3.544,3.544,0,0,0,1.757,1.161c.323.137.653.058.969.262-.068.226-.513.41-.7.564a6.756,6.756,0,0,1-.657.486q-.635.426-1.274.847a1.84,1.84,0,0,1-.939.441,3.744,3.744,0,0,1-1.088-.04,9.133,9.133,0,0,1-1.561-.539c-1.136-.51-2.251-1.055-3.432-1.46a5.851,5.851,0,0,0-2.056-.473c-.619.033-2.033.554-1.993,1.329.083,1.609,3.326,1.016,4.227.884.53-.077,1.033-.356,1.554-.4.664-.058,1.057.372,1.617.614a9.457,9.457,0,0,0,1.189.425c.225.063.909.117.519.472-.151.138-.4.14-.581.224a2.344,2.344,0,0,0-.549.444,4.579,4.579,0,0,1-.861.521c-.664.368-1.337.717-2.025,1.037a9.238,9.238,0,0,1-1.712.714,2.789,2.789,0,0,1-1.369-.091,13.461,13.461,0,0,1-1.45-.555c-1.136-.494-2.283-1.032-3.383-1.589-.689-.348-2.065-1.153-2.865-.794-.933.42-.344,1.331.232,1.772,1.023.783,1.979.414,3.149.351a6.9,6.9,0,0,1,2.7.645c.286.118,1.279.887,1.564.753a3.472,3.472,0,0,1-.682.162c-.231.056-.462.117-.695.172-.306.074-.619.135-.925.216a14.6,14.6,0,0,1-1.707.356,22.234,22.234,0,0,1-3.875.38c-1.256-.053-2.415-.882-3.663-.855-.7.014-2.484.49-2.585,1.36-.092.8,1.53,1.036,2.11,1.154a5.774,5.774,0,0,0,2.845-.289,22.7,22.7,0,0,1,2.18-.815c1.259-.281,2.537-.383,3.807-.6.213-.036.417-.154.631-.172.595-.05.744-.244.57.444a3.444,3.444,0,0,1-1.042,1.5c-.731.648-1.646.871-2.273,1.671-.425.544-1.14,1.892-.269,2.36.539.29,1.465-.119,1.914-.426,2.164-1.483.834-4.448,2.913-5.862a3.006,3.006,0,0,1,.861-.276,3.56,3.56,0,0,0,.925-.33,1.275,1.275,0,0,1,.607-.156,3,3,0,0,0,.836-.381c.324-.155.647-.311.972-.463.461-.216.881-.519,1.337-.747a1.744,1.744,0,0,1,.726-.28c.363.031.18.345.083.64s-.178.584-.251.878c-.156.624-.161,1.286-.36,1.9-.416,1.284-1.919,2.038-1.683,3.555l.009.056c.127.764.234,3.62,1.586,2.769a5.012,5.012,0,0,0,1.306-2.014,3.068,3.068,0,0,0-.174-2.575c-.424-.909.013-1.611-.164-2.508a4.056,4.056,0,0,1,1.216-3.559,3.073,3.073,0,0,1,1.17-.68,5.573,5.573,0,0,0,.667-.478,3.257,3.257,0,0,0,.445-.317c.35-.327.794-.5,1.158-.792.2-.164.478-.269.681-.444a3.68,3.68,0,0,1,.508-.388c.533-.336,1.05-.7,1.58-1.036.458-.294.919-.584,1.383-.866.4-.244.831-.285,1.157-.637.212-.232.687-.672.795-.155.056.271-.158.567-.26.787a14.4,14.4,0,0,0-.571,1.46,16.439,16.439,0,0,1-.49,1.782,4.6,4.6,0,0,1-1.023,1.159,3.989,3.989,0,0,0-.818,2.788c0,.437-.1,2.327.4,2.474,1.17.344,2.7-3.289,2.6-4.063s-.713-1.234-.729-2.016a6.493,6.493,0,0,1,.6-2.187,13.028,13.028,0,0,1,.763-1.8,3.889,3.889,0,0,1,.526-.859,4.222,4.222,0,0,1,1.328-.876c.3-.137.572-.338.872-.476C1002.793,1379.776,1003.2,1379.61,1003.6,1379.426Z" transform="translate(-785.721 -1373.26)" fill="#5e6850"/>
  <path id="Path_2175" data-name="Path 2175" d="M980.392,1402.1a3.837,3.837,0,0,1-.74-.093c-.151-.012-.294.025-.442.019a11.928,11.928,0,0,1-1.495-.164c-.524-.09-1.068-.079-1.6-.14a9.651,9.651,0,0,1-2.239-.423c-.638-.231-1.326-.3-1.963-.54-.734-.281-1.484-.53-2.2-.858-.4-.184-.809-.35-1.214-.535-.3-.138-.57-.339-.872-.476a4.207,4.207,0,0,1-1.327-.876,3.893,3.893,0,0,1-.527-.859,12.989,12.989,0,0,1-.763-1.8,7.1,7.1,0,0,1-.6-2.075c-.018-.621.414-1.1.408-1.728-.013-1.172-.556-5.739-2.5-5.351-.776.156-.768,2.335-.826,2.943-.165,1.71,1.877,2.815,2.461,4.307.424,1.081.6,2.244,1.089,3.3.1.22.315.516.259.787-.107.517-.582.076-.8-.155-.324-.352-.756-.393-1.155-.637-.465-.282-.926-.572-1.384-.865-.531-.339-1.048-.7-1.579-1.037a3.754,3.754,0,0,1-.509-.388c-.2-.175-.479-.28-.681-.444-.364-.3-.808-.465-1.157-.792a3.254,3.254,0,0,0-.446-.317,5.573,5.573,0,0,0-.667-.478,3.07,3.07,0,0,1-1.17-.68c-.253-.276-.573-.453-.721-.811-.1-.232-.184-.47-.265-.709a13.274,13.274,0,0,1-.363-1.317,9.281,9.281,0,0,1-.342-3.084,14.217,14.217,0,0,0,.423-2.283c0-.745.106-3.913-1.3-3.6-1.058.233-1.13,1.7-1.079,2.558a3.662,3.662,0,0,0,.351,1.274,17.986,17.986,0,0,1,1.049,2.255c.3,1.06.241,2.251.513,3.345.073.294.157.588.251.878s.28.608-.083.64a1.76,1.76,0,0,1-.726-.28c-.456-.228-.876-.531-1.336-.747-.326-.152-.649-.308-.972-.463a3.007,3.007,0,0,0-.837-.381,1.29,1.29,0,0,1-.607-.156,3.559,3.559,0,0,0-.925-.33,3,3,0,0,1-.861-.276,2.556,2.556,0,0,1-.769-.8c-.26-.444-.57-.861-.85-1.294-.11-.168-.251-.309-.361-.481-.653-1.026-.7-2.23-1.367-3.305-.37-.6-3-3.43-3.383-1.774-.322,1.39,1.668,3.448,2.768,3.971a4.617,4.617,0,0,1,1.022.481,4.817,4.817,0,0,1,.786,1c.22.3.454.6.652.916a2.228,2.228,0,0,1,.259.527,1.335,1.335,0,0,0,.084.235c.041.081.12.187.035.271-.129.126-.534-.046-.689-.059-.213-.018-.418-.137-.631-.171-.524-.089-1.051-.16-1.58-.216-.866-.092-1.737-.1-2.607-.133a14.982,14.982,0,0,1-2.14-.015,4.618,4.618,0,0,1-.661-.068c-.795-.324-1.38-.9-2.254-.9a12.265,12.265,0,0,0-1.825.168c-.567.086-2.571.646-2.434,1.5.058.358.687.617.975.711a3.984,3.984,0,0,0,2.5-.044c.738-.2,1.51-.071,2.262-.262a14.705,14.705,0,0,1,2.509-.656,22.234,22.234,0,0,1,4.432.257,14.85,14.85,0,0,1,1.708.357c.306.081.617.142.925.216.232.055.463.115.694.172a2.639,2.639,0,0,1,.671.142c.062.032-.357.23-.4.25-.2.086-.383.2-.58.289-.382.171-.8.258-1.175.439a9.161,9.161,0,0,1-2.8.953c-1.788.27-3.333.674-4.138,2.4-.354.759-.676,1.9.578,1.81a4.2,4.2,0,0,0,1.7-.839,15.112,15.112,0,0,0,1.8-1.2,10.945,10.945,0,0,0,1.175-1.463,6.423,6.423,0,0,1,2.448-1.482,13.2,13.2,0,0,1,1.45-.554,2.765,2.765,0,0,1,1.369-.092,9.106,9.106,0,0,1,1.713.714c.687.32,1.361.669,2.024,1.037a4.579,4.579,0,0,1,.861.521,2.339,2.339,0,0,0,.549.444c.178.084.43.086.581.223.39.356-.294.41-.519.473a9.626,9.626,0,0,0-1.189.424,6.686,6.686,0,0,1-.988.537c-.681.166-1.261-.077-1.9.115-1.3.388-2.336.352-3.295,1.36-.517.544-1.675,1.7-1.654,2.514.033,1.361,2.458-.245,3.022-.547a5.815,5.815,0,0,0,2.078-1.3,6.851,6.851,0,0,1,1.407-1.617,10.112,10.112,0,0,1,2.977-1.112,3.706,3.706,0,0,1,1.088-.04,1.832,1.832,0,0,1,.939.441q.641.42,1.274.847a6.614,6.614,0,0,1,.657.486c.182.154.626.338.7.564-.316.2-.647.125-.97.262a4.014,4.014,0,0,0-1.759,1.164c-.471.6-.747,1.388-1.468,1.714-.988.447-1.836.429-2.354,1.54a8.574,8.574,0,0,0-.709,3.4c.1,1.739,1.7.161,2.217-.452a15.281,15.281,0,0,0,1.6-2.449c.451-.849-.225-1.6.375-2.343.2-.251.317-.528.5-.791a4.743,4.743,0,0,1,1.178-1.082,2.8,2.8,0,0,1,2.1-.408,3.335,3.335,0,0,1,1.679.881,4.856,4.856,0,0,0,1.441.966,13.832,13.832,0,0,0,1.578.729,5.261,5.261,0,0,1,1.158.57c.352.21,1.344.311,1.256.855-.068.42-1.672,1.475-2.074,1.693-.654.353-1.423.436-2.091.775-1.041.528-1.465,1.414-2.162,2.274-.511.63-1.751,1.665-1.456,2.611.223.716,2.58-1.123,2.774-1.266a4.514,4.514,0,0,0,2.175-2.627c.06-.306.471-.611.66-.862.256-.341.576-.624.861-.938a3.71,3.71,0,0,1,2.069-1.266,4.381,4.381,0,0,1,2.273.535,39.99,39.99,0,0,0,5.451,1.483c.924.187,1.854.341,2.787.469.282.038.956.256,1.2.07a1.141,1.141,0,0,0,.3-.776C980.891,1402.039,980.63,1402.075,980.392,1402.1Z" transform="translate(-785.721 -1373.26)" fill="#5e6850"/>
  <path id="Path_2176" data-name="Path 2176" d="M933.946,1379.426c.716-.328,1.465-.577,2.2-.859.637-.243,1.324-.308,1.962-.539a9.674,9.674,0,0,1,2.239-.423c.529-.062,1.073-.05,1.6-.14a11.955,11.955,0,0,1,1.494-.164c.149-.006.293.031.443.019a3.752,3.752,0,0,1,.74-.093c.238.024.5.06.608-.222a1.141,1.141,0,0,0-.3-.776c-.241-.186-.915.032-1.2.07-.933.128-1.864.282-2.788.468a40.179,40.179,0,0,0-5.451,1.484,4.409,4.409,0,0,1-2.272.536,3.71,3.71,0,0,1-2.069-1.267c-.285-.314-.606-.6-.862-.938-.7-.933-.891-1.615-1.976-2.221-1.251-.7-2.244-1.32-3.673-1.026-.726.148-1.331.106-.885,1.015a3.2,3.2,0,0,0,1.293,1.142,7.547,7.547,0,0,0,2.557,1.277c.685.089,1.4-.29,2.087-.061.575.193,1.013.93,1.433,1.334a6.682,6.682,0,0,0,.975.788c1.081.713-.386.9-.893,1.205a5.253,5.253,0,0,1-1.157.57,13.669,13.669,0,0,0-1.578.729,4.863,4.863,0,0,0-1.443.966,3.324,3.324,0,0,1-1.678.881,2.8,2.8,0,0,1-2.1-.408,4.712,4.712,0,0,1-1.179-1.083c-.178-.262-.3-.539-.5-.789-.647-.807-.083-2.067-.833-2.966-.511-.612-1.88-1.814-2.784-1.563-1.095.3.528,2.662.791,3.122a3.024,3.024,0,0,0,1.171,1.4,5.225,5.225,0,0,1,2,1.417,3.542,3.542,0,0,0,1.758,1.161c.322.137.653.058.969.262-.069.226-.513.41-.695.564a6.653,6.653,0,0,1-.658.486q-.635.426-1.273.847a1.847,1.847,0,0,1-.94.441,3.745,3.745,0,0,1-1.088-.04,9.164,9.164,0,0,1-1.561-.539c-1.136-.51-2.251-1.055-3.431-1.46a5.855,5.855,0,0,0-2.056-.473c-.62.033-2.033.554-1.993,1.329.082,1.609,3.326,1.016,4.227.884.529-.077,1.032-.356,1.553-.4.664-.058,1.057.372,1.617.614a9.455,9.455,0,0,0,1.189.425c.225.063.909.117.52.472-.152.138-.4.14-.582.224a2.366,2.366,0,0,0-.549.444,4.579,4.579,0,0,1-.861.521c-.663.368-1.337.717-2.024,1.037a9.217,9.217,0,0,1-1.713.714,2.784,2.784,0,0,1-1.368-.091,13.388,13.388,0,0,1-1.45-.555c-1.136-.494-2.284-1.032-3.384-1.589-.688-.348-2.065-1.153-2.864-.794-.934.42-.344,1.331.231,1.772,1.024.783,1.98.414,3.149.351a6.9,6.9,0,0,1,2.7.645c.286.118,1.278.887,1.564.753a3.472,3.472,0,0,1-.682.162c-.232.056-.463.117-.7.172-.308.074-.619.135-.925.216a14.573,14.573,0,0,1-1.708.356,22.222,22.222,0,0,1-3.874.38c-1.256-.053-2.415-.882-3.663-.855-.7.014-2.485.49-2.585,1.36-.093.8,1.529,1.036,2.109,1.154a5.773,5.773,0,0,0,2.845-.289,22.7,22.7,0,0,1,2.18-.815c1.259-.281,2.538-.383,3.807-.6.213-.036.418-.154.631-.172.595-.05.745-.244.57.444a3.429,3.429,0,0,1-1.043,1.5c-.73.648-1.645.871-2.271,1.671-.425.544-1.142,1.892-.27,2.36.539.29,1.465-.119,1.914-.426,2.165-1.483.834-4.448,2.913-5.862a3.006,3.006,0,0,1,.861-.276,3.566,3.566,0,0,0,.926-.33,1.274,1.274,0,0,1,.606-.156,3.021,3.021,0,0,0,.837-.381c.324-.155.647-.311.972-.463.46-.216.88-.519,1.336-.747a1.748,1.748,0,0,1,.726-.28c.363.031.18.345.083.64s-.177.584-.25.878c-.156.624-.162,1.286-.361,1.9-.416,1.284-1.919,2.038-1.683,3.555l.009.056c.127.764.234,3.62,1.586,2.769a5.012,5.012,0,0,0,1.306-2.014,3.072,3.072,0,0,0-.173-2.575c-.425-.909.012-1.611-.165-2.508a4.056,4.056,0,0,1,1.216-3.559,3.08,3.08,0,0,1,1.17-.68,5.491,5.491,0,0,0,.667-.478,3.267,3.267,0,0,0,.446-.317c.349-.327.793-.5,1.158-.792.2-.164.478-.269.68-.444a3.805,3.805,0,0,1,.508-.388c.533-.336,1.05-.7,1.58-1.036.458-.294.919-.584,1.384-.866.4-.244.831-.285,1.156-.637.213-.232.688-.672.795-.155.056.271-.158.567-.259.787a14.625,14.625,0,0,0-.572,1.46,16.206,16.206,0,0,1-.49,1.782,4.613,4.613,0,0,1-1.022,1.159,3.99,3.99,0,0,0-.819,2.788c0,.437-.1,2.327.4,2.474,1.171.344,2.7-3.289,2.6-4.063s-.711-1.234-.728-2.016a6.516,6.516,0,0,1,.6-2.187,13.148,13.148,0,0,1,.763-1.8,3.928,3.928,0,0,1,.527-.859,4.218,4.218,0,0,1,1.327-.876c.3-.137.573-.338.873-.476C933.137,1379.776,933.543,1379.61,933.946,1379.426Z" transform="translate(-785.721 -1373.26)" fill="#5e6850"/>
  <path id="Path_2177" data-name="Path 2177" d="M910.736,1402.1a3.837,3.837,0,0,1-.74-.093c-.15-.012-.294.025-.442.019a11.948,11.948,0,0,1-1.495-.164c-.524-.09-1.068-.079-1.6-.14a9.66,9.66,0,0,1-2.239-.423c-.638-.231-1.325-.3-1.962-.54-.735-.281-1.484-.53-2.2-.858-.4-.184-.809-.35-1.213-.535-.3-.138-.571-.339-.873-.476a4.218,4.218,0,0,1-1.327-.876,3.93,3.93,0,0,1-.527-.859,13.109,13.109,0,0,1-.763-1.8,7.133,7.133,0,0,1-.6-2.075c-.017-.621.414-1.1.408-1.728-.012-1.172-.556-5.739-2.5-5.351-.777.156-.768,2.335-.827,2.943-.165,1.71,1.877,2.815,2.462,4.307.423,1.081.6,2.244,1.088,3.3.1.22.315.516.259.787-.107.517-.582.076-.8-.155-.324-.352-.757-.393-1.155-.637-.465-.282-.927-.572-1.385-.865-.53-.339-1.047-.7-1.58-1.037a3.81,3.81,0,0,1-.508-.388c-.2-.175-.479-.28-.68-.444-.365-.3-.809-.465-1.158-.792a3.191,3.191,0,0,0-.446-.317,5.491,5.491,0,0,0-.667-.478,3.078,3.078,0,0,1-1.17-.68c-.253-.276-.573-.453-.72-.811-.1-.232-.185-.47-.266-.709a13.563,13.563,0,0,1-.363-1.317,9.253,9.253,0,0,1-.341-3.084,14.109,14.109,0,0,0,.422-2.283c0-.745.107-3.913-1.3-3.6-1.058.233-1.131,1.7-1.079,2.558a3.66,3.66,0,0,0,.35,1.274,18.133,18.133,0,0,1,1.05,2.255c.3,1.06.241,2.251.513,3.345.073.294.156.588.25.878s.28.608-.083.64a1.76,1.76,0,0,1-.726-.28c-.456-.228-.875-.531-1.336-.747-.326-.152-.648-.308-.972-.463a3,3,0,0,0-.836-.381,1.288,1.288,0,0,1-.607-.156,3.566,3.566,0,0,0-.926-.33,3,3,0,0,1-.861-.276,2.554,2.554,0,0,1-.768-.8c-.261-.444-.571-.861-.851-1.294-.109-.168-.251-.309-.361-.481-.653-1.026-.7-2.23-1.366-3.305-.371-.6-3-3.43-3.384-1.774-.322,1.39,1.669,3.448,2.768,3.971a4.615,4.615,0,0,1,1.022.481,4.781,4.781,0,0,1,.786,1c.22.3.455.6.652.916a2.269,2.269,0,0,1,.26.527,1.258,1.258,0,0,0,.083.235c.041.081.12.187.035.271-.129.126-.534-.046-.689-.059-.213-.018-.418-.137-.63-.171-.525-.089-1.052-.16-1.581-.216-.866-.092-1.737-.1-2.606-.133a14.98,14.98,0,0,1-2.14-.015,4.618,4.618,0,0,1-.662-.068c-.794-.324-1.38-.9-2.254-.9a12.265,12.265,0,0,0-1.825.168c-.567.086-2.571.646-2.434,1.5.058.358.687.617.975.711a3.987,3.987,0,0,0,2.505-.044c.737-.2,1.509-.071,2.261-.262a14.754,14.754,0,0,1,2.509-.656,22.229,22.229,0,0,1,4.432.257,14.85,14.85,0,0,1,1.708.357c.306.081.618.142.925.216.232.055.463.115.7.172a2.648,2.648,0,0,1,.671.142c.061.032-.357.23-.4.25-.2.086-.382.2-.58.289-.382.171-.8.258-1.175.439a9.164,9.164,0,0,1-2.8.953c-1.789.27-3.333.674-4.138,2.4-.355.759-.677,1.9.577,1.81a4.21,4.21,0,0,0,1.7-.839,15.276,15.276,0,0,0,1.8-1.2,10.937,10.937,0,0,0,1.174-1.463,6.427,6.427,0,0,1,2.449-1.482,13.133,13.133,0,0,1,1.45-.554,2.761,2.761,0,0,1,1.368-.092,9.077,9.077,0,0,1,1.713.714c.687.32,1.361.669,2.024,1.037a4.58,4.58,0,0,1,.861.521,2.38,2.38,0,0,0,.549.444c.178.084.431.086.582.223.39.356-.295.41-.52.473a9.626,9.626,0,0,0-1.189.424,6.686,6.686,0,0,1-.988.537c-.681.166-1.261-.077-1.9.115-1.3.388-2.336.352-3.294,1.36-.518.544-1.675,1.7-1.655,2.514.033,1.361,2.458-.245,3.022-.547a5.819,5.819,0,0,0,2.079-1.3,6.847,6.847,0,0,1,1.406-1.617,10.122,10.122,0,0,1,2.977-1.112,3.706,3.706,0,0,1,1.088-.04,1.838,1.838,0,0,1,.94.441q.639.42,1.274.847a6.731,6.731,0,0,1,.657.486c.182.154.626.338.694.564-.316.2-.646.125-.969.262a4.02,4.02,0,0,0-1.759,1.164c-.47.6-.747,1.388-1.468,1.714-.988.447-1.836.429-2.354,1.54a8.573,8.573,0,0,0-.708,3.4c.1,1.739,1.7.161,2.216-.452a15.221,15.221,0,0,0,1.6-2.449c.45-.849-.226-1.6.374-2.343.2-.251.318-.528.5-.791a4.747,4.747,0,0,1,1.179-1.082,2.8,2.8,0,0,1,2.1-.408,3.33,3.33,0,0,1,1.68.881,4.848,4.848,0,0,0,1.442.966,13.669,13.669,0,0,0,1.578.729,5.254,5.254,0,0,1,1.157.57c.352.21,1.344.311,1.256.855-.068.42-1.672,1.475-2.074,1.693-.654.353-1.423.436-2.091.775-1.04.528-1.464,1.414-2.162,2.274-.51.63-1.75,1.665-1.456,2.611.223.716,2.58-1.123,2.775-1.266a4.521,4.521,0,0,0,2.175-2.627c.059-.306.47-.611.659-.862.255-.341.577-.624.861-.938a3.709,3.709,0,0,1,2.07-1.266,4.379,4.379,0,0,1,2.272.535,40.031,40.031,0,0,0,5.451,1.483c.924.187,1.855.341,2.788.469.281.038.956.256,1.2.07a1.145,1.145,0,0,0,.3-.776C911.236,1402.039,910.974,1402.075,910.736,1402.1Z" transform="translate(-785.721 -1373.26)" fill="#5e6850"/>
  <path id="Path_2178" data-name="Path 2178" d="M864.29,1379.426c.716-.328,1.466-.577,2.2-.859.637-.243,1.324-.308,1.962-.539a9.683,9.683,0,0,1,2.239-.423c.529-.062,1.073-.05,1.6-.14a11.913,11.913,0,0,1,1.494-.164c.148-.006.292.031.442.019a3.762,3.762,0,0,1,.74-.093c.238.024.5.06.608-.222a1.14,1.14,0,0,0-.3-.776c-.241-.186-.916.032-1.2.07-.933.128-1.863.282-2.788.468a40.163,40.163,0,0,0-5.45,1.484,4.413,4.413,0,0,1-2.273.536,3.713,3.713,0,0,1-2.069-1.267c-.285-.314-.606-.6-.862-.938-.7-.933-.891-1.615-1.976-2.221-1.251-.7-2.244-1.32-3.673-1.026-.725.148-1.33.106-.885,1.015a3.2,3.2,0,0,0,1.293,1.142,7.552,7.552,0,0,0,2.558,1.277c.684.089,1.4-.29,2.087-.061.575.193,1.012.93,1.432,1.334a6.641,6.641,0,0,0,.976.788c1.08.713-.386.9-.893,1.205a5.284,5.284,0,0,1-1.158.57,13.75,13.75,0,0,0-1.578.729,4.859,4.859,0,0,0-1.442.966,3.331,3.331,0,0,1-1.679.881,2.8,2.8,0,0,1-2.1-.408,4.728,4.728,0,0,1-1.179-1.083c-.178-.262-.3-.539-.5-.789-.647-.807-.083-2.067-.833-2.966-.511-.612-1.88-1.814-2.784-1.563-1.094.3.528,2.662.791,3.122a3.029,3.029,0,0,0,1.171,1.4,5.225,5.225,0,0,1,2,1.417,3.547,3.547,0,0,0,1.758,1.161c.322.137.653.058.969.262-.069.226-.513.41-.7.564a6.75,6.75,0,0,1-.657.486q-.636.426-1.274.847a1.846,1.846,0,0,1-.94.441,3.745,3.745,0,0,1-1.088-.04,9.164,9.164,0,0,1-1.561-.539c-1.135-.51-2.25-1.055-3.431-1.46a5.85,5.85,0,0,0-2.056-.473c-.62.033-2.033.554-1.993,1.329.082,1.609,3.326,1.016,4.227.884.529-.077,1.032-.356,1.553-.4.664-.058,1.058.372,1.618.614a9.5,9.5,0,0,0,1.188.425c.225.063.91.117.52.472-.151.138-.4.14-.581.224a2.326,2.326,0,0,0-.549.444,4.618,4.618,0,0,1-.862.521c-.663.368-1.336.717-2.024,1.037a9.217,9.217,0,0,1-1.713.714,2.785,2.785,0,0,1-1.368-.091,13.471,13.471,0,0,1-1.45-.555c-1.136-.494-2.283-1.032-3.383-1.589-.689-.348-2.066-1.153-2.865-.794-.933.42-.344,1.331.231,1.772,1.024.783,1.98.414,3.149.351a6.9,6.9,0,0,1,2.7.645c.286.118,1.278.887,1.564.753a3.456,3.456,0,0,1-.682.162c-.232.056-.462.117-.7.172-.307.074-.618.135-.925.216a14.6,14.6,0,0,1-1.707.356,22.243,22.243,0,0,1-3.875.38c-1.256-.053-2.414-.882-3.663-.855-.7.014-2.484.49-2.585,1.36-.092.8,1.53,1.036,2.11,1.154a5.775,5.775,0,0,0,2.845-.289,22.784,22.784,0,0,1,2.179-.815c1.26-.281,2.538-.383,3.808-.6.212-.036.417-.154.63-.172.595-.05.745-.244.571.444a3.446,3.446,0,0,1-1.043,1.5c-.731.648-1.646.871-2.272,1.671-.425.544-1.141,1.892-.27,2.36.54.29,1.466-.119,1.914-.426,2.165-1.483.835-4.448,2.914-5.862a3,3,0,0,1,.86-.276,3.552,3.552,0,0,0,.926-.33,1.275,1.275,0,0,1,.607-.156,3.029,3.029,0,0,0,.836-.381c.324-.155.647-.311.972-.463.461-.216.881-.519,1.337-.747a1.744,1.744,0,0,1,.725-.28c.363.031.18.345.084.64s-.178.584-.251.878c-.156.624-.162,1.286-.36,1.9-.417,1.284-1.919,2.038-1.683,3.555l.008.056c.128.764.235,3.62,1.586,2.769a5,5,0,0,0,1.306-2.014,3.068,3.068,0,0,0-.173-2.575c-.424-.909.013-1.611-.164-2.508a4.055,4.055,0,0,1,1.215-3.559,3.088,3.088,0,0,1,1.17-.68,5.579,5.579,0,0,0,.668-.478,3.318,3.318,0,0,0,.445-.317c.35-.327.793-.5,1.158-.792.2-.164.478-.269.681-.444a3.684,3.684,0,0,1,.508-.388c.532-.336,1.049-.7,1.579-1.036.459-.294.92-.584,1.385-.866.4-.244.831-.285,1.155-.637.213-.232.688-.672.795-.155.057.271-.157.567-.259.787a14.625,14.625,0,0,0-.572,1.46,15.979,15.979,0,0,1-.49,1.782,4.613,4.613,0,0,1-1.022,1.159,3.994,3.994,0,0,0-.819,2.788c0,.437-.1,2.327.4,2.474,1.171.344,2.7-3.289,2.6-4.063s-.712-1.234-.728-2.016a6.514,6.514,0,0,1,.6-2.187,13.148,13.148,0,0,1,.763-1.8,3.928,3.928,0,0,1,.527-.859,4.229,4.229,0,0,1,1.327-.876c.3-.137.573-.338.873-.476C863.482,1379.776,863.888,1379.61,864.29,1379.426Z" transform="translate(-785.721 -1373.26)" fill="#5e6850"/>
  <path id="Path_2179" data-name="Path 2179" d="M841.08,1402.1a3.856,3.856,0,0,1-.74-.093c-.15-.012-.293.025-.442.019a11.914,11.914,0,0,1-1.494-.164c-.524-.09-1.069-.079-1.6-.14a9.653,9.653,0,0,1-2.238-.423c-.639-.231-1.326-.3-1.963-.54-.734-.281-1.484-.53-2.2-.858-.4-.184-.808-.35-1.213-.535-.3-.138-.57-.339-.872-.476a4.222,4.222,0,0,1-1.328-.876,3.928,3.928,0,0,1-.527-.859,13.1,13.1,0,0,1-.763-1.8,7.131,7.131,0,0,1-.6-2.075c-.018-.621.414-1.1.407-1.728-.012-1.172-.556-5.739-2.5-5.351-.777.156-.768,2.335-.826,2.943-.165,1.71,1.877,2.815,2.461,4.307.424,1.081.6,2.244,1.088,3.3.1.22.316.516.259.787-.107.517-.582.076-.8-.155-.324-.352-.756-.393-1.155-.637-.465-.282-.926-.572-1.385-.865-.53-.339-1.046-.7-1.579-1.037a3.754,3.754,0,0,1-.509-.388c-.2-.175-.479-.28-.68-.444-.365-.3-.808-.465-1.158-.792a3.243,3.243,0,0,0-.445-.317,5.507,5.507,0,0,0-.668-.478,3.078,3.078,0,0,1-1.17-.68c-.252-.276-.572-.453-.72-.811-.1-.232-.185-.47-.265-.709a13.3,13.3,0,0,1-.364-1.317,9.306,9.306,0,0,1-.341-3.084,14.217,14.217,0,0,0,.423-2.283c0-.745.106-3.913-1.3-3.6-1.058.233-1.131,1.7-1.079,2.558a3.639,3.639,0,0,0,.351,1.274,17.986,17.986,0,0,1,1.049,2.255c.3,1.06.241,2.251.513,3.345.073.294.156.588.251.878s.279.608-.083.64a1.755,1.755,0,0,1-.726-.28c-.456-.228-.876-.531-1.337-.747-.325-.152-.648-.308-.972-.463a3,3,0,0,0-.836-.381,1.288,1.288,0,0,1-.607-.156,3.552,3.552,0,0,0-.926-.33,2.992,2.992,0,0,1-.86-.276,2.546,2.546,0,0,1-.769-.8c-.26-.444-.571-.861-.851-1.294-.109-.168-.25-.309-.36-.481-.654-1.026-.7-2.23-1.367-3.305-.37-.6-3-3.43-3.384-1.774-.321,1.39,1.669,3.448,2.768,3.971a4.623,4.623,0,0,1,1.023.481,4.811,4.811,0,0,1,.785,1c.221.3.455.6.652.916a2.229,2.229,0,0,1,.26.527,1.258,1.258,0,0,0,.083.235c.041.081.121.187.035.271-.128.126-.534-.046-.689-.059-.213-.018-.418-.137-.63-.171-.524-.089-1.052-.16-1.58-.216-.866-.092-1.738-.1-2.607-.133a14.979,14.979,0,0,1-2.14-.015,4.618,4.618,0,0,1-.662-.068c-.794-.324-1.379-.9-2.254-.9a12.277,12.277,0,0,0-1.825.168c-.566.086-2.57.646-2.434,1.5.058.358.687.617.975.711a3.987,3.987,0,0,0,2.505-.044c.737-.2,1.509-.071,2.262-.262a14.706,14.706,0,0,1,2.509-.656,22.234,22.234,0,0,1,4.432.257,14.9,14.9,0,0,1,1.708.357c.305.081.617.142.924.216.233.055.463.115.7.172a2.648,2.648,0,0,1,.671.142c.062.032-.357.23-.4.25-.2.086-.382.2-.58.289-.382.171-.8.258-1.175.439a9.154,9.154,0,0,1-2.8.953c-1.788.27-3.333.674-4.138,2.4-.354.759-.677,1.9.578,1.81a4.2,4.2,0,0,0,1.7-.839,15.191,15.191,0,0,0,1.8-1.2,10.945,10.945,0,0,0,1.175-1.463,6.423,6.423,0,0,1,2.448-1.482,13.213,13.213,0,0,1,1.45-.554,2.762,2.762,0,0,1,1.368-.092,9.078,9.078,0,0,1,1.713.714c.688.32,1.361.669,2.024,1.037a4.62,4.62,0,0,1,.862.521,2.338,2.338,0,0,0,.549.444c.178.084.43.086.581.223.39.356-.3.41-.52.473a9.665,9.665,0,0,0-1.188.424,6.746,6.746,0,0,1-.989.537c-.681.166-1.26-.077-1.9.115-1.3.388-2.336.352-3.294,1.36-.518.544-1.675,1.7-1.655,2.514.033,1.361,2.458-.245,3.022-.547a5.818,5.818,0,0,0,2.079-1.3,6.87,6.87,0,0,1,1.406-1.617,10.132,10.132,0,0,1,2.977-1.112,3.708,3.708,0,0,1,1.088-.04,1.838,1.838,0,0,1,.94.441c.427.28.85.563,1.274.847a6.737,6.737,0,0,1,.657.486c.182.154.626.338.7.564-.316.2-.647.125-.969.262a4.014,4.014,0,0,0-1.759,1.164c-.471.6-.747,1.388-1.468,1.714-.988.447-1.837.429-2.354,1.54a8.556,8.556,0,0,0-.709,3.4c.1,1.739,1.705.161,2.217-.452a15.285,15.285,0,0,0,1.6-2.449c.451-.849-.225-1.6.374-2.343.2-.251.318-.528.5-.791a4.748,4.748,0,0,1,1.179-1.082,2.8,2.8,0,0,1,2.1-.408,3.327,3.327,0,0,1,1.679.881,4.853,4.853,0,0,0,1.443.966,13.66,13.66,0,0,0,1.577.729,5.283,5.283,0,0,1,1.158.57c.352.21,1.343.311,1.255.855-.068.42-1.671,1.475-2.074,1.693-.654.353-1.423.436-2.09.775-1.041.528-1.465,1.414-2.162,2.274-.511.63-1.751,1.665-1.456,2.611.222.716,2.579-1.123,2.774-1.266a4.517,4.517,0,0,0,2.175-2.627c.059-.306.471-.611.659-.862.256-.341.577-.624.862-.938a3.706,3.706,0,0,1,2.069-1.266,4.377,4.377,0,0,1,2.272.535,40.046,40.046,0,0,0,5.452,1.483c.923.187,1.854.341,2.787.469.281.038.956.256,1.2.07a1.145,1.145,0,0,0,.3-.776C841.58,1402.039,841.318,1402.075,841.08,1402.1Z" transform="translate(-785.721 -1373.26)" fill="#5e6850"/>
  <path id="Path_2180" data-name="Path 2180" d="M794.635,1379.426c.716-.328,1.465-.577,2.2-.859.637-.243,1.325-.308,1.963-.539a9.664,9.664,0,0,1,2.239-.423c.528-.062,1.072-.05,1.6-.14a11.933,11.933,0,0,1,1.494-.164c.149-.006.293.031.442.019a3.772,3.772,0,0,1,.74-.093c.238.024.5.06.608-.222a1.14,1.14,0,0,0-.3-.776c-.241-.186-.915.032-1.2.07-.934.128-1.864.282-2.788.468a40.179,40.179,0,0,0-5.451,1.484,4.41,4.41,0,0,1-2.273.536,3.717,3.717,0,0,1-2.069-1.267c-.285-.314-.606-.6-.861-.938-.7-.933-.892-1.615-1.976-2.221a5.51,5.51,0,0,0-3.285-1.084v2.2l.02.011a7.547,7.547,0,0,0,2.557,1.277c.684.089,1.4-.29,2.087-.061.575.193,1.012.93,1.432,1.334a6.746,6.746,0,0,0,.976.788c1.081.713-.386.9-.893,1.205a5.284,5.284,0,0,1-1.158.57,13.736,13.736,0,0,0-1.577.729,4.863,4.863,0,0,0-1.443.966,3.327,3.327,0,0,1-1.679.881,2.689,2.689,0,0,1-.322.042v1c.391-.256.778-.521,1.173-.773.458-.294.919-.584,1.384-.866.4-.244.831-.285,1.156-.637.212-.232.687-.672.795-.155.056.271-.158.567-.26.787a14.881,14.881,0,0,0-.572,1.46,16.2,16.2,0,0,1-.489,1.782,4.617,4.617,0,0,1-1.023,1.159,4,4,0,0,0-.819,2.788c0,.437-.1,2.327.4,2.474,1.171.344,2.7-3.289,2.6-4.063s-.711-1.234-.728-2.016a6.537,6.537,0,0,1,.6-2.187,13.018,13.018,0,0,1,.764-1.8,3.885,3.885,0,0,1,.526-.859,4.222,4.222,0,0,1,1.328-.876c.3-.137.572-.338.873-.476C793.826,1379.776,794.232,1379.61,794.635,1379.426Z" transform="translate(-785.721 -1373.26)" fill="#5e6850"/>
</svg>
