<svg id="botanic-border-shop" xmlns="http://www.w3.org/2000/svg" width="348.28" height="34.149" viewBox="0 0 348.28 34.149">
  <g id="Group_21580" data-name="Group 21580">
    <path id="Path_14687" data-name="Path 14687" d="M-2896.7-1922.88a5.159,5.159,0,0,1-.768-.079c-.464-.189-.621-.726-1.152-.845a1.278,1.278,0,0,0-1.364.875,1.256,1.256,0,0,0,.853,1.792,1.378,1.378,0,0,0,1.41-.6,1.4,1.4,0,0,1,.963-.471c.321-.026.6-.108.918-.133.387-.032.781-.045,1.178-.05v-.476A9.786,9.786,0,0,1-2896.7-1922.88Z" transform="translate(3242.939 1936.444)" fill="#5e6850"/>
    <path id="Path_14688" data-name="Path 14688" d="M-2985.422-1960.037a5.1,5.1,0,0,1-2.635.621,4.293,4.293,0,0,1-2.4-1.469c-.33-.364-.7-.693-1-1.087-.219-.291-.7-.646-.765-1a2.228,2.228,0,0,0-.218-.916,1.834,1.834,0,0,0-1.835-.833,1.9,1.9,0,0,0-.991.858,1.413,1.413,0,0,0-.17.445c-.159.968.934,1.745,1.8,1.631a4.325,4.325,0,0,0,.69-.16c.45-.138.493-.133.857.2.536.487,1.076.969,1.6,1.472a7.706,7.706,0,0,0,1.13.914c1.253.828-.447,1.047-1.036,1.4a6.108,6.108,0,0,1-1.343.662,15.768,15.768,0,0,0-1.831.846,5.642,5.642,0,0,0-1.673,1.121,3.864,3.864,0,0,1-1.948,1.021,3.241,3.241,0,0,1-2.44-.474,5.479,5.479,0,0,1-1.367-1.255c-.207-.3-.343-.626-.575-.917a1.184,1.184,0,0,1-.385-.89c.067-.428.377-.567.186-1.058a1.527,1.527,0,0,0-2.209-.744,1.576,1.576,0,0,0-.371,1.86,1.649,1.649,0,0,0,.841.5c.235.059.44-.064.668-.017a.966.966,0,0,1,.45.273,8.907,8.907,0,0,1,.665.884c.21.256.365.553.555.828a4.111,4.111,0,0,0,2.039,1.347c.374.159.758.068,1.125.3-.081.263-.6.476-.806.655a8.038,8.038,0,0,1-.763.564q-.737.493-1.478.983a2.144,2.144,0,0,1-1.09.512,4.3,4.3,0,0,1-1.261-.047,10.494,10.494,0,0,1-1.812-.625c-.491-.22-.98-.45-1.463-.683a4.363,4.363,0,0,0-.695-.184,1.141,1.141,0,0,1-.667-.68,1.429,1.429,0,0,0-1.32-.622,1.225,1.225,0,0,0-.585.162,1.4,1.4,0,0,0-.191,1.894,1.38,1.38,0,0,0,1.8.134,2.376,2.376,0,0,1,1.881-.072,7.863,7.863,0,0,1,1.146.622,10.919,10.919,0,0,0,1.379.493c.261.073,1.055.135.6.548-.175.16-.468.161-.674.259a2.71,2.71,0,0,0-.637.515,5.375,5.375,0,0,1-1,.605c-.769.427-1.551.831-2.348,1.2a10.511,10.511,0,0,1-1.988.827,3.218,3.218,0,0,1-1.588-.1,15.4,15.4,0,0,1-1.681-.644,7.478,7.478,0,0,1-2.841-1.719c-.285-.321-.37-.735-.632-1.049-.765-.914-2.635-.086-2.4,1.1a1.7,1.7,0,0,0,1.17,1.258c.639.1,1.213-.408,1.863-.282a7.92,7.92,0,0,1,1.949.9c.438.21.92.311,1.364.51.229.1.441.235.672.336.051.022.536.252.465.289a3.045,3.045,0,0,1-.779.164c-.269.067-.536.136-.805.2-.356.085-.719.157-1.073.25a17.036,17.036,0,0,1-1.982.415,26.466,26.466,0,0,1-5.528.272c-.316-.025-.6-.107-.918-.133a1.4,1.4,0,0,1-.964-.471,1.379,1.379,0,0,0-1.41-.6,1.257,1.257,0,0,0-.853,1.792,1.279,1.279,0,0,0,1.364.875c.531-.118.689-.656,1.154-.845a5.026,5.026,0,0,1,.766-.078,17.224,17.224,0,0,1,2.483-.019c1.008-.039,2.019-.047,3.023-.154q.92-.1,1.833-.25c.247-.041.484-.179.731-.2.18-.016.649-.214.8-.068.1.1.006.22-.041.314a1.554,1.554,0,0,0-.1.272,2.568,2.568,0,0,1-.3.611c-.229.371-.5.711-.756,1.063a5.606,5.606,0,0,1-.912,1.16,5.367,5.367,0,0,1-1.185.557c-.818.39-1.306,1.821-.333,2.391.826.483,2.132-.612,2.177-1.424.02-.354-.147-.673-.111-1.032a1.276,1.276,0,0,1,.14-.507c.126-.247.278-.48.426-.712.128-.2.292-.362.418-.559.325-.5.685-.985.987-1.5a2.944,2.944,0,0,1,.891-.929,3.451,3.451,0,0,1,1-.321,4.062,4.062,0,0,0,1.073-.382,1.491,1.491,0,0,1,.7-.181,3.442,3.442,0,0,0,.97-.442c.375-.18.751-.361,1.128-.538.534-.25,1.021-.6,1.55-.866a2.036,2.036,0,0,1,.842-.325c.421.037.209.4.1.743s-.206.677-.291,1.018c-.18.719-.324,1.478-.444,2.209-.082.495.1,1.071-.313,1.5-.138.142-.3.117-.476.168a.878.878,0,0,0-.479.333,1.119,1.119,0,0,0-.388.708,1.6,1.6,0,0,0,1.268,1.662,1.872,1.872,0,0,0,2.029-1.452c.182-.584-.323-.886-.7-1.222a1.047,1.047,0,0,1-.426-.652c-.013-.293.134-.606.135-.92a8.088,8.088,0,0,1,.239-1.8,15.4,15.4,0,0,1,.421-1.527c.094-.278.195-.553.307-.823.173-.415.544-.619.836-.94a3.578,3.578,0,0,1,1.357-.79,6.193,6.193,0,0,0,.774-.554,3.656,3.656,0,0,0,.518-.367c.4-.379.92-.576,1.344-.919.233-.19.554-.311.788-.515a4.458,4.458,0,0,1,.59-.45c.618-.389,1.218-.809,1.833-1.2q.8-.51,1.605-1c.462-.283.965-.33,1.341-.739.247-.268.8-.78.922-.181.065.316-.182.658-.3.915a17.075,17.075,0,0,0-.665,1.694c-.177.53-.293,1.077-.448,1.611-.137.465-.292,1.232-.789,1.423-.256.1-.518.026-.769.175a1.611,1.611,0,0,0-.554.694,1.971,1.971,0,0,0,.025,1.953,1.46,1.46,0,0,0,1.139.659,2.088,2.088,0,0,0,2.144-1.757,1.748,1.748,0,0,0-.515-1.238c-.729-.988.031-2.567.39-3.594a15.154,15.154,0,0,1,.885-2.09,4.52,4.52,0,0,1,.61-1,4.892,4.892,0,0,1,1.541-1.016c.35-.16.664-.394,1.011-.553.47-.214.941-.408,1.408-.621.831-.38,1.7-.669,2.551-1,.74-.282,1.537-.357,2.277-.626a5.938,5.938,0,0,1,.594-.179v-.662Q-2983.632-1960.662-2985.422-1960.037Z" transform="translate(3330.078 1964.762)" fill="#5e6850"/>
    <path id="Path_14689" data-name="Path 14689" d="M-3100.8-1916.724a4.412,4.412,0,0,1-.858-.107c-.174-.013-.341.028-.514.022a14.184,14.184,0,0,1-1.734-.189c-.607-.106-1.239-.092-1.852-.164a11.2,11.2,0,0,1-2.6-.49c-.741-.269-1.538-.344-2.278-.626-.851-.327-1.721-.615-2.551-1-.467-.213-.938-.407-1.408-.621-.348-.16-.662-.394-1.012-.553a4.882,4.882,0,0,1-1.539-1.015,4.538,4.538,0,0,1-.61-1,15.142,15.142,0,0,1-.886-2.089c-.358-1.027-1.118-2.606-.391-3.594a1.738,1.738,0,0,0,.515-1.239,2.086,2.086,0,0,0-2.142-1.757,1.462,1.462,0,0,0-1.139.659,1.972,1.972,0,0,0-.024,1.953,1.6,1.6,0,0,0,.553.694c.251.149.513.076.769.176.5.191.654.958.789,1.422.156.534.272,1.082.45,1.612a16.776,16.776,0,0,0,.664,1.694c.118.256.366.6.3.914-.125.6-.676.088-.923-.18-.376-.409-.878-.456-1.34-.739q-.808-.493-1.606-1c-.615-.394-1.214-.814-1.833-1.2a4.441,4.441,0,0,1-.589-.449c-.234-.2-.556-.325-.789-.515-.423-.343-.937-.541-1.343-.919a3.719,3.719,0,0,0-.517-.367,6.247,6.247,0,0,0-.775-.554,3.588,3.588,0,0,1-1.357-.79c-.292-.32-.664-.525-.836-.941-.114-.27-.213-.545-.308-.823a15.516,15.516,0,0,1-.421-1.527,8.052,8.052,0,0,1-.24-1.8c0-.314-.148-.627-.136-.921a1.056,1.056,0,0,1,.426-.652c.373-.336.878-.638.7-1.221a1.872,1.872,0,0,0-2.029-1.453,1.6,1.6,0,0,0-1.268,1.662,1.125,1.125,0,0,0,.388.708.885.885,0,0,0,.479.332c.171.052.337.026.475.168.417.43.232,1.007.314,1.5.12.731.265,1.491.444,2.209.085.341.182.683.291,1.018s.325.706-.1.744a2.042,2.042,0,0,1-.841-.325c-.529-.264-1.016-.616-1.551-.866-.377-.177-.752-.358-1.127-.538a3.46,3.46,0,0,0-.97-.441,1.494,1.494,0,0,1-.7-.182,4.107,4.107,0,0,0-1.074-.382,3.465,3.465,0,0,1-1-.321,2.93,2.93,0,0,1-.892-.93c-.3-.514-.662-1-.987-1.5-.127-.2-.291-.359-.418-.559-.148-.233-.3-.465-.426-.712a1.272,1.272,0,0,1-.14-.507c-.036-.358.131-.679.112-1.032-.045-.812-1.352-1.908-2.177-1.425-.974.57-.486,2,.332,2.391a5.4,5.4,0,0,1,1.187.558,5.571,5.571,0,0,1,.91,1.16c.256.352.529.691.757,1.063a2.548,2.548,0,0,1,.3.612,1.513,1.513,0,0,0,.1.272c.047.095.14.218.04.315-.149.145-.619-.053-.8-.068-.248-.02-.486-.158-.731-.2q-.912-.153-1.834-.249c-1-.107-2.015-.116-3.024-.154a17.317,17.317,0,0,1-2.482-.019,5.138,5.138,0,0,1-.767-.078c-.464-.19-.622-.727-1.153-.845a1.279,1.279,0,0,0-1.364.875,1.256,1.256,0,0,0,.853,1.792,1.378,1.378,0,0,0,1.41-.6,1.4,1.4,0,0,1,.964-.471c.32-.026.6-.108.918-.133a26.465,26.465,0,0,1,5.528.272,16.785,16.785,0,0,1,1.981.414c.355.093.717.165,1.074.25.269.064.536.134.805.2a3.039,3.039,0,0,1,.779.165c.071.037-.415.267-.465.289-.231.1-.443.234-.672.336-.443.2-.925.3-1.363.509a7.912,7.912,0,0,1-1.949.9c-.65.126-1.223-.386-1.863-.282a1.7,1.7,0,0,0-1.171,1.257c-.236,1.189,1.634,2.017,2.4,1.1.263-.314.349-.727.633-1.049a7.458,7.458,0,0,1,2.841-1.719,15.528,15.528,0,0,1,1.681-.645,3.219,3.219,0,0,1,1.588-.1,10.574,10.574,0,0,1,1.987.828c.8.372,1.579.776,2.348,1.2a5.359,5.359,0,0,1,1,.606,2.767,2.767,0,0,0,.636.515c.206.1.5.1.674.259.453.413-.341.475-.6.547a10.783,10.783,0,0,0-1.378.494,7.988,7.988,0,0,1-1.147.621,2.37,2.37,0,0,1-1.879-.071,1.381,1.381,0,0,0-1.8.134,1.4,1.4,0,0,0,.191,1.895,1.219,1.219,0,0,0,.586.162,1.43,1.43,0,0,0,1.32-.622,1.136,1.136,0,0,1,.666-.68,4.5,4.5,0,0,0,.694-.184c.483-.234.973-.464,1.463-.684a10.483,10.483,0,0,1,1.812-.625,4.281,4.281,0,0,1,1.262-.047,2.13,2.13,0,0,1,1.09.512c.495.325.986.653,1.479.982a8.144,8.144,0,0,1,.762.564c.21.179.726.392.806.655-.367.236-.75.145-1.124.3a4.11,4.11,0,0,0-2.039,1.347c-.191.275-.345.572-.554.828a8.853,8.853,0,0,1-.666.883.954.954,0,0,1-.448.272c-.229.048-.435-.076-.668-.016a1.65,1.65,0,0,0-.841.5,1.576,1.576,0,0,0,.372,1.86,1.526,1.526,0,0,0,2.209-.743c.19-.491-.119-.63-.186-1.058a1.182,1.182,0,0,1,.383-.889c.234-.292.37-.612.576-.917a5.457,5.457,0,0,1,1.367-1.255,3.242,3.242,0,0,1,2.441-.474,3.865,3.865,0,0,1,1.947,1.021,5.642,5.642,0,0,0,1.674,1.121,15.878,15.878,0,0,0,1.83.845,6.119,6.119,0,0,1,1.342.662c.589.35,2.29.57,1.037,1.4a7.69,7.69,0,0,0-1.13.914c-.522.5-1.062.985-1.6,1.472-.364.329-.406.334-.858.2a4.336,4.336,0,0,0-.689-.159c-.869-.114-1.963.663-1.8,1.631a1.359,1.359,0,0,0,.169.444,1.891,1.891,0,0,0,.992.859,1.834,1.834,0,0,0,1.834-.833,2.21,2.21,0,0,0,.217-.916c.069-.355.546-.709.765-1,.3-.395.669-.723,1-1.087a4.291,4.291,0,0,1,2.4-1.469,5.1,5.1,0,0,1,2.636.621,46.6,46.6,0,0,0,6.323,1.721c1.073.216,2.151.4,3.234.544.327.044,1.107.3,1.388.08a1.324,1.324,0,0,0,.345-.9C-3100.22-1916.793-3100.523-1916.752-3100.8-1916.724Z" transform="translate(3417.217 1947.334)" fill="#5e6850"/>
    <path id="Path_14690" data-name="Path 14690" d="M-3236.592-1959.67c.739-.282,1.537-.357,2.277-.626a11.239,11.239,0,0,1,2.6-.49c.613-.072,1.245-.058,1.853-.163a14.151,14.151,0,0,1,1.733-.189c.173-.007.34.035.513.021a4.426,4.426,0,0,1,.858-.107c.276.028.581.07.706-.257a1.321,1.321,0,0,0-.345-.9c-.28-.216-1.062.036-1.388.08q-1.623.222-3.234.543a46.57,46.57,0,0,0-6.323,1.721,5.1,5.1,0,0,1-2.637.621,4.3,4.3,0,0,1-2.4-1.469c-.33-.364-.7-.693-1-1.087-.219-.291-.7-.646-.765-1a2.223,2.223,0,0,0-.217-.916,1.834,1.834,0,0,0-1.834-.833,1.894,1.894,0,0,0-.992.858,1.348,1.348,0,0,0-.169.445c-.161.968.933,1.745,1.8,1.631a4.285,4.285,0,0,0,.689-.16c.451-.138.494-.133.857.2.538.487,1.077.969,1.6,1.472a7.8,7.8,0,0,0,1.131.914c1.254.828-.448,1.047-1.035,1.4a6.081,6.081,0,0,1-1.343.662,15.8,15.8,0,0,0-1.83.846,5.625,5.625,0,0,0-1.674,1.121,3.866,3.866,0,0,1-1.947,1.021,3.243,3.243,0,0,1-2.441-.474,5.514,5.514,0,0,1-1.367-1.255c-.206-.3-.342-.626-.575-.917a1.18,1.18,0,0,1-.385-.89c.067-.428.376-.567.186-1.058a1.527,1.527,0,0,0-2.209-.744,1.576,1.576,0,0,0-.371,1.86,1.651,1.651,0,0,0,.842.5c.233.059.44-.064.667-.017a.96.96,0,0,1,.448.273,8.881,8.881,0,0,1,.666.884c.209.256.364.553.554.828a4.112,4.112,0,0,0,2.039,1.347c.375.159.757.068,1.124.3-.08.263-.6.476-.806.655a8.056,8.056,0,0,1-.762.564q-.737.493-1.479.983a2.141,2.141,0,0,1-1.09.512,4.3,4.3,0,0,1-1.262-.047,10.5,10.5,0,0,1-1.812-.625c-.49-.22-.979-.45-1.463-.683a4.378,4.378,0,0,0-.694-.184,1.139,1.139,0,0,1-.666-.68,1.429,1.429,0,0,0-1.32-.622,1.232,1.232,0,0,0-.587.162,1.4,1.4,0,0,0-.19,1.894,1.381,1.381,0,0,0,1.8.134,2.371,2.371,0,0,1,1.879-.072,7.9,7.9,0,0,1,1.147.622,10.909,10.909,0,0,0,1.379.493c.261.073,1.055.135.6.548-.175.16-.468.161-.673.259a2.733,2.733,0,0,0-.636.515,5.347,5.347,0,0,1-1,.605c-.768.427-1.55.831-2.348,1.2a10.526,10.526,0,0,1-1.987.827,3.213,3.213,0,0,1-1.587-.1,15.316,15.316,0,0,1-1.682-.644,7.467,7.467,0,0,1-2.84-1.719c-.286-.321-.371-.735-.632-1.049-.764-.914-2.635-.086-2.4,1.1a1.7,1.7,0,0,0,1.171,1.258c.639.1,1.213-.408,1.863-.282a7.909,7.909,0,0,1,1.949.9c.438.21.92.311,1.363.51.229.1.441.235.672.336.052.022.536.252.465.289a3.048,3.048,0,0,1-.778.164c-.27.067-.537.136-.806.2-.357.085-.719.157-1.073.25a17.069,17.069,0,0,1-1.982.415,26.456,26.456,0,0,1-5.526.272c-.317-.025-.6-.107-.919-.133a1.4,1.4,0,0,1-.963-.471,1.379,1.379,0,0,0-1.411-.6,1.256,1.256,0,0,0-.852,1.792,1.277,1.277,0,0,0,1.363.875c.53-.118.688-.656,1.153-.845a5.039,5.039,0,0,1,.767-.078,17.2,17.2,0,0,1,2.482-.019c1.009-.039,2.021-.047,3.025-.154q.919-.1,1.833-.25c.246-.041.484-.179.731-.2.179-.016.65-.214.8-.068.1.1.007.22-.04.314a1.381,1.381,0,0,0-.1.272,2.55,2.55,0,0,1-.3.611c-.228.371-.5.711-.755,1.063a5.622,5.622,0,0,1-.912,1.16,5.376,5.376,0,0,1-1.187.557c-.818.39-1.306,1.821-.331,2.391.825.483,2.131-.612,2.176-1.424.02-.354-.147-.673-.111-1.032a1.293,1.293,0,0,1,.14-.507c.127-.247.277-.48.426-.712.127-.2.291-.362.418-.559.324-.5.686-.985.987-1.5a2.936,2.936,0,0,1,.891-.929,3.464,3.464,0,0,1,1-.321,4.074,4.074,0,0,0,1.074-.382,1.489,1.489,0,0,1,.7-.181,3.459,3.459,0,0,0,.97-.442c.375-.18.75-.361,1.127-.538.534-.25,1.021-.6,1.551-.866a2.032,2.032,0,0,1,.842-.325c.421.037.208.4.1.743s-.206.677-.291,1.018c-.179.719-.324,1.478-.445,2.209-.081.495.1,1.071-.314,1.5-.136.142-.3.117-.475.168a.882.882,0,0,0-.479.333,1.124,1.124,0,0,0-.388.708,1.6,1.6,0,0,0,1.268,1.662,1.873,1.873,0,0,0,2.029-1.452c.181-.584-.324-.886-.7-1.222a1.05,1.05,0,0,1-.426-.652c-.013-.293.135-.606.135-.92a8.074,8.074,0,0,1,.24-1.8,15.14,15.14,0,0,1,.421-1.527c.094-.278.2-.553.307-.823.172-.415.544-.619.836-.94a3.583,3.583,0,0,1,1.357-.79,6.242,6.242,0,0,0,.775-.554,3.687,3.687,0,0,0,.516-.367c.4-.379.92-.576,1.343-.919.234-.19.555-.311.79-.515a4.368,4.368,0,0,1,.589-.45c.618-.389,1.219-.809,1.833-1.2q.8-.51,1.605-1c.462-.283.965-.33,1.341-.739.246-.268.8-.78.922-.181.065.316-.182.658-.3.915a17.012,17.012,0,0,0-.664,1.694c-.179.53-.294,1.077-.45,1.611-.135.465-.292,1.232-.789,1.423-.257.1-.518.026-.769.175a1.6,1.6,0,0,0-.553.694,1.97,1.97,0,0,0,.024,1.953,1.459,1.459,0,0,0,1.139.659,2.086,2.086,0,0,0,2.143-1.757,1.737,1.737,0,0,0-.515-1.238c-.728-.988.032-2.567.39-3.594a15.037,15.037,0,0,1,.886-2.09,4.465,4.465,0,0,1,.61-1,4.89,4.89,0,0,1,1.541-1.016c.349-.16.664-.394,1.011-.553.469-.214.941-.408,1.407-.621C-3238.313-1959.054-3237.444-1959.344-3236.592-1959.67Z" transform="translate(3512.667 1964.762)" fill="#5e6850"/>
    <path id="Path_14691" data-name="Path 14691" d="M-3352.722-1916.724a4.424,4.424,0,0,1-.858-.107c-.174-.013-.34.028-.513.022a14.14,14.14,0,0,1-1.733-.189c-.607-.106-1.24-.092-1.853-.164a11.208,11.208,0,0,1-2.6-.49c-.74-.269-1.537-.344-2.277-.626-.851-.327-1.72-.615-2.551-1-.468-.213-.938-.407-1.408-.621-.347-.16-.662-.394-1.012-.553a4.889,4.889,0,0,1-1.54-1.015,4.588,4.588,0,0,1-.611-1,15.1,15.1,0,0,1-.885-2.089c-.357-1.027-1.119-2.606-.391-3.594a1.741,1.741,0,0,0,.516-1.239,2.087,2.087,0,0,0-2.143-1.757,1.46,1.46,0,0,0-1.138.659,1.966,1.966,0,0,0-.024,1.953,1.594,1.594,0,0,0,.553.694c.251.149.513.076.77.176.5.191.653.958.788,1.422.157.534.272,1.082.451,1.612a16.773,16.773,0,0,0,.663,1.694c.117.256.366.6.3.914-.125.6-.675.088-.922-.18-.378-.409-.879-.456-1.341-.739q-.809-.493-1.606-1c-.615-.394-1.215-.814-1.833-1.2a4.325,4.325,0,0,1-.589-.449c-.236-.2-.556-.325-.791-.515-.423-.343-.937-.541-1.342-.919a3.778,3.778,0,0,0-.517-.367,6.284,6.284,0,0,0-.775-.554,3.591,3.591,0,0,1-1.357-.79c-.292-.32-.663-.525-.835-.941-.114-.27-.214-.545-.308-.823a15.252,15.252,0,0,1-.421-1.527,8.108,8.108,0,0,1-.239-1.8c0-.314-.148-.627-.136-.921a1.058,1.058,0,0,1,.426-.652c.373-.336.879-.638.7-1.221a1.872,1.872,0,0,0-2.029-1.453,1.6,1.6,0,0,0-1.268,1.662,1.123,1.123,0,0,0,.387.708.884.884,0,0,0,.48.332c.171.052.338.026.475.168.416.43.233,1.007.314,1.5.12.731.264,1.491.445,2.209.084.341.18.683.291,1.018s.324.706-.1.744a2.048,2.048,0,0,1-.842-.325c-.529-.264-1.016-.616-1.55-.866-.377-.177-.752-.358-1.128-.538a3.465,3.465,0,0,0-.97-.441,1.487,1.487,0,0,1-.7-.182,4.132,4.132,0,0,0-1.075-.382,3.466,3.466,0,0,1-1-.321,2.943,2.943,0,0,1-.892-.93c-.3-.514-.662-1-.987-1.5-.126-.2-.291-.359-.418-.559-.148-.233-.3-.465-.426-.712a1.3,1.3,0,0,1-.141-.507c-.036-.358.131-.679.111-1.032-.045-.812-1.351-1.908-2.176-1.425-.974.57-.486,2,.332,2.391a5.4,5.4,0,0,1,1.186.558,5.64,5.64,0,0,1,.911,1.16c.256.352.527.691.756,1.063a2.548,2.548,0,0,1,.3.612,1.53,1.53,0,0,0,.1.272c.047.095.14.218.041.315-.149.145-.619-.053-.8-.068-.247-.02-.485-.158-.731-.2q-.912-.153-1.833-.249c-1-.107-2.016-.116-3.024-.154a17.323,17.323,0,0,1-2.483-.019,5.158,5.158,0,0,1-.767-.078c-.464-.19-.622-.727-1.153-.845a1.276,1.276,0,0,0-1.362.875,1.255,1.255,0,0,0,.851,1.792,1.378,1.378,0,0,0,1.411-.6,1.4,1.4,0,0,1,.963-.471c.321-.026.6-.108.919-.133a26.462,26.462,0,0,1,5.527.272,16.879,16.879,0,0,1,1.982.414c.355.093.716.165,1.073.25.269.064.537.134.806.2a3.025,3.025,0,0,1,.778.165c.072.037-.414.267-.465.289-.231.1-.443.234-.672.336-.444.2-.926.3-1.364.509a7.917,7.917,0,0,1-1.949.9c-.65.126-1.223-.386-1.863-.282a1.7,1.7,0,0,0-1.17,1.257c-.237,1.189,1.634,2.017,2.4,1.1.262-.314.348-.727.632-1.049a7.463,7.463,0,0,1,2.841-1.719,15.773,15.773,0,0,1,1.682-.645,3.221,3.221,0,0,1,1.589-.1,10.624,10.624,0,0,1,1.987.828c.8.372,1.578.776,2.348,1.2a5.339,5.339,0,0,1,1,.606,2.75,2.75,0,0,0,.637.515c.206.1.5.1.674.259.453.413-.341.475-.6.547a10.727,10.727,0,0,0-1.378.494,8.012,8.012,0,0,1-1.147.621,2.374,2.374,0,0,1-1.88-.071,1.38,1.38,0,0,0-1.8.134,1.4,1.4,0,0,0,.191,1.895,1.223,1.223,0,0,0,.587.162,1.429,1.429,0,0,0,1.319-.622,1.138,1.138,0,0,1,.666-.68,4.484,4.484,0,0,0,.695-.184c.483-.234.974-.464,1.463-.684a10.513,10.513,0,0,1,1.81-.625,4.287,4.287,0,0,1,1.262-.047,2.137,2.137,0,0,1,1.09.512q.742.488,1.478.982a8.112,8.112,0,0,1,.762.564c.21.179.726.392.807.655-.367.236-.751.145-1.125.3a4.11,4.11,0,0,0-2.039,1.347c-.19.275-.345.572-.554.828a8.921,8.921,0,0,1-.665.883.957.957,0,0,1-.449.272c-.228.048-.434-.076-.667-.016a1.654,1.654,0,0,0-.842.5,1.575,1.575,0,0,0,.371,1.86,1.526,1.526,0,0,0,2.209-.743c.19-.491-.119-.63-.186-1.058a1.186,1.186,0,0,1,.385-.889c.233-.292.369-.612.576-.917a5.465,5.465,0,0,1,1.367-1.255,3.24,3.24,0,0,1,2.44-.474,3.867,3.867,0,0,1,1.948,1.021,5.631,5.631,0,0,0,1.673,1.121,15.888,15.888,0,0,0,1.831.845,6.146,6.146,0,0,1,1.342.662c.589.35,2.29.57,1.037,1.4a7.705,7.705,0,0,0-1.131.914c-.523.5-1.063.985-1.6,1.472-.364.329-.4.334-.857.2a4.333,4.333,0,0,0-.689-.159c-.87-.114-1.963.663-1.8,1.631a1.344,1.344,0,0,0,.17.444,1.89,1.89,0,0,0,.992.859,1.832,1.832,0,0,0,1.833-.833,2.223,2.223,0,0,0,.218-.916c.068-.355.546-.709.764-1,.3-.395.669-.723,1-1.087a4.292,4.292,0,0,1,2.4-1.469,5.093,5.093,0,0,1,2.636.621,46.641,46.641,0,0,0,6.324,1.721c1.072.216,2.151.4,3.233.544.326.044,1.109.3,1.388.08a1.32,1.32,0,0,0,.345-.9C-3352.141-1916.793-3352.446-1916.752-3352.722-1916.724Z" transform="translate(3604.418 1947.334)" fill="#5e6850"/>
    <path id="Path_14692" data-name="Path 14692" d="M-3488.516-1959.67c.739-.282,1.537-.357,2.277-.626a11.237,11.237,0,0,1,2.6-.49c.613-.072,1.245-.058,1.853-.163a14.128,14.128,0,0,1,1.732-.189c.173-.007.339.035.514.021a4.426,4.426,0,0,1,.858-.107c.276.028.58.07.7-.257a1.322,1.322,0,0,0-.344-.9c-.279-.216-1.062.036-1.388.08q-1.624.222-3.233.543a46.612,46.612,0,0,0-6.323,1.721,5.1,5.1,0,0,1-2.637.621,4.3,4.3,0,0,1-2.4-1.469c-.33-.364-.7-.693-1-1.087-.219-.291-.7-.646-.765-1a2.213,2.213,0,0,0-.218-.916,1.833,1.833,0,0,0-1.834-.833,1.893,1.893,0,0,0-.992.858,1.354,1.354,0,0,0-.169.445c-.161.968.932,1.745,1.8,1.631a4.279,4.279,0,0,0,.689-.16c.452-.138.493-.133.857.2.537.487,1.077.969,1.6,1.472a7.751,7.751,0,0,0,1.131.914c1.253.828-.448,1.047-1.036,1.4a6.1,6.1,0,0,1-1.343.662,15.7,15.7,0,0,0-1.83.846,5.627,5.627,0,0,0-1.674,1.121,3.863,3.863,0,0,1-1.948,1.021,3.243,3.243,0,0,1-2.441-.474,5.512,5.512,0,0,1-1.367-1.255c-.206-.3-.342-.626-.575-.917a1.183,1.183,0,0,1-.385-.89c.067-.428.376-.567.186-1.058a1.526,1.526,0,0,0-2.208-.744,1.576,1.576,0,0,0-.372,1.86,1.651,1.651,0,0,0,.842.5c.234.059.439-.064.668-.017a.96.96,0,0,1,.449.273,8.836,8.836,0,0,1,.665.884c.21.256.364.553.554.828a4.115,4.115,0,0,0,2.039,1.347c.375.159.758.068,1.125.3-.08.263-.595.476-.805.655a8.035,8.035,0,0,1-.763.564q-.737.493-1.479.983a2.135,2.135,0,0,1-1.089.512,4.307,4.307,0,0,1-1.262-.047,10.506,10.506,0,0,1-1.811-.625c-.489-.22-.979-.45-1.463-.683a4.353,4.353,0,0,0-.694-.184,1.14,1.14,0,0,1-.666-.68,1.427,1.427,0,0,0-1.32-.622,1.228,1.228,0,0,0-.586.162,1.4,1.4,0,0,0-.191,1.894,1.38,1.38,0,0,0,1.8.134,2.372,2.372,0,0,1,1.879-.072,7.835,7.835,0,0,1,1.147.622,10.906,10.906,0,0,0,1.379.493c.261.073,1.055.135.6.548-.177.16-.469.161-.675.259a2.727,2.727,0,0,0-.636.515,5.359,5.359,0,0,1-1,.605c-.768.427-1.55.831-2.348,1.2a10.493,10.493,0,0,1-1.986.827,3.215,3.215,0,0,1-1.587-.1,15.446,15.446,0,0,1-1.682-.644,7.465,7.465,0,0,1-2.84-1.719c-.285-.321-.371-.735-.633-1.049-.765-.914-2.635-.086-2.4,1.1a1.7,1.7,0,0,0,1.171,1.258c.64.1,1.212-.408,1.863-.282a7.914,7.914,0,0,1,1.948.9c.438.21.92.311,1.364.51.229.1.441.235.672.336.051.022.538.252.466.289a3.058,3.058,0,0,1-.779.164c-.269.067-.537.136-.806.2-.357.085-.718.157-1.072.25a17.074,17.074,0,0,1-1.981.415,26.471,26.471,0,0,1-5.528.272c-.316-.025-.6-.107-.919-.133a1.4,1.4,0,0,1-.964-.471,1.378,1.378,0,0,0-1.41-.6,1.256,1.256,0,0,0-.852,1.792,1.278,1.278,0,0,0,1.363.875c.53-.118.689-.656,1.153-.845a5.032,5.032,0,0,1,.766-.078,17.231,17.231,0,0,1,2.484-.019c1.008-.039,2.019-.047,3.023-.154.613-.065,1.225-.148,1.833-.25.246-.041.484-.179.731-.2.18-.016.65-.214.8-.068.1.1.008.22-.04.314a1.48,1.48,0,0,0-.1.272,2.576,2.576,0,0,1-.3.611c-.229.371-.5.711-.756,1.063a5.629,5.629,0,0,1-.911,1.16,5.383,5.383,0,0,1-1.186.557c-.817.39-1.306,1.821-.332,2.391.825.483,2.131-.612,2.177-1.424.019-.354-.148-.673-.112-1.032a1.3,1.3,0,0,1,.14-.507c.127-.247.278-.48.426-.712.127-.2.292-.362.418-.559.325-.5.685-.985.987-1.5a2.927,2.927,0,0,1,.892-.929,3.456,3.456,0,0,1,1-.321,4.076,4.076,0,0,0,1.074-.382,1.49,1.49,0,0,1,.7-.181,3.454,3.454,0,0,0,.971-.442c.375-.18.75-.361,1.127-.538.534-.25,1.021-.6,1.551-.866a2.033,2.033,0,0,1,.842-.325c.421.037.208.4.1.743s-.206.677-.291,1.018c-.179.719-.324,1.478-.444,2.209-.081.495.1,1.071-.314,1.5-.136.142-.3.117-.475.168a.886.886,0,0,0-.479.333,1.116,1.116,0,0,0-.386.708,1.6,1.6,0,0,0,1.267,1.662,1.874,1.874,0,0,0,2.03-1.452c.181-.584-.325-.886-.7-1.222a1.053,1.053,0,0,1-.426-.652c-.012-.293.136-.606.136-.92a8.031,8.031,0,0,1,.24-1.8,15.2,15.2,0,0,1,.421-1.527c.094-.278.195-.553.308-.823.172-.415.543-.619.836-.94a3.584,3.584,0,0,1,1.356-.79,6.185,6.185,0,0,0,.775-.554,3.675,3.675,0,0,0,.517-.367c.406-.379.92-.576,1.344-.919.233-.19.554-.311.789-.515a4.292,4.292,0,0,1,.59-.45c.618-.389,1.217-.809,1.832-1.2q.8-.51,1.605-1c.462-.283.964-.33,1.341-.739.247-.268.8-.78.922-.181.065.316-.183.658-.3.915a17.13,17.13,0,0,0-.664,1.694c-.177.53-.294,1.077-.449,1.611-.136.465-.293,1.232-.789,1.423-.257.1-.519.026-.77.175a1.6,1.6,0,0,0-.553.694,1.97,1.97,0,0,0,.023,1.953,1.46,1.46,0,0,0,1.139.659,2.088,2.088,0,0,0,2.144-1.757,1.743,1.743,0,0,0-.516-1.238c-.728-.988.033-2.567.39-3.594a15.126,15.126,0,0,1,.886-2.09,4.5,4.5,0,0,1,.61-1,4.89,4.89,0,0,1,1.54-1.016c.351-.16.664-.394,1.013-.553.469-.214.94-.408,1.407-.621C-3490.237-1959.054-3489.367-1959.344-3488.516-1959.67Z" transform="translate(3696.17 1964.762)" fill="#5e6850"/>
    <path id="Path_14693" data-name="Path 14693" d="M-3604.646-1916.724a4.436,4.436,0,0,1-.858-.107c-.174-.013-.34.028-.513.022a14.136,14.136,0,0,1-1.734-.189c-.608-.106-1.24-.092-1.852-.164a11.21,11.21,0,0,1-2.6-.49c-.741-.269-1.538-.344-2.277-.626-.852-.327-1.721-.615-2.551-1-.467-.213-.938-.407-1.407-.621-.348-.16-.662-.394-1.012-.553a4.885,4.885,0,0,1-1.539-1.015,4.532,4.532,0,0,1-.611-1,15.169,15.169,0,0,1-.886-2.089c-.358-1.027-1.119-2.606-.391-3.594a1.743,1.743,0,0,0,.516-1.239,2.088,2.088,0,0,0-2.144-1.757,1.461,1.461,0,0,0-1.139.659,1.97,1.97,0,0,0-.024,1.953,1.6,1.6,0,0,0,.552.694c.252.149.513.076.769.176.5.191.653.958.79,1.422.156.534.272,1.082.45,1.612a17.011,17.011,0,0,0,.664,1.694c.118.256.366.6.3.914-.125.6-.676.088-.923-.18-.376-.409-.877-.456-1.34-.739q-.809-.493-1.605-1c-.615-.394-1.215-.814-1.833-1.2a4.43,4.43,0,0,1-.59-.449c-.235-.2-.555-.325-.789-.515-.423-.343-.938-.541-1.343-.919a3.707,3.707,0,0,0-.517-.367,6.274,6.274,0,0,0-.774-.554,3.579,3.579,0,0,1-1.357-.79c-.293-.32-.665-.525-.836-.941-.113-.27-.214-.545-.307-.823a15.32,15.32,0,0,1-.421-1.527,8.052,8.052,0,0,1-.24-1.8c0-.314-.148-.627-.135-.921a1.05,1.05,0,0,1,.426-.652c.372-.336.878-.638.7-1.221a1.871,1.871,0,0,0-2.029-1.453,1.6,1.6,0,0,0-1.267,1.662,1.115,1.115,0,0,0,.388.708.881.881,0,0,0,.479.332c.172.052.338.026.475.168.416.43.232,1.007.314,1.5.12.731.265,1.491.444,2.209.085.341.182.683.291,1.018s.325.706-.1.744a2.046,2.046,0,0,1-.842-.325c-.529-.264-1.016-.616-1.55-.866-.377-.177-.752-.358-1.127-.538a3.468,3.468,0,0,0-.97-.441,1.49,1.49,0,0,1-.7-.182,4.116,4.116,0,0,0-1.074-.382,3.481,3.481,0,0,1-1-.321,2.935,2.935,0,0,1-.892-.93c-.3-.514-.662-1-.987-1.5-.126-.2-.291-.359-.418-.559-.148-.233-.3-.465-.426-.712a1.285,1.285,0,0,1-.141-.507c-.036-.358.131-.679.112-1.032-.045-.812-1.351-1.908-2.176-1.425-.974.57-.486,2,.332,2.391a5.4,5.4,0,0,1,1.187.558,5.616,5.616,0,0,1,.911,1.16c.255.352.527.691.756,1.063a2.563,2.563,0,0,1,.3.612,1.477,1.477,0,0,0,.1.272c.047.095.14.218.04.315-.149.145-.619-.053-.8-.068-.247-.02-.485-.158-.732-.2q-.912-.153-1.833-.249c-1-.107-2.015-.116-3.023-.154a17.33,17.33,0,0,1-2.483-.019,5.158,5.158,0,0,1-.767-.078c-.463-.19-.622-.727-1.152-.845a1.278,1.278,0,0,0-1.364.875,1.256,1.256,0,0,0,.852,1.792,1.377,1.377,0,0,0,1.41-.6,1.4,1.4,0,0,1,.963-.471c.321-.026.6-.108.919-.133a26.469,26.469,0,0,1,5.528.272,16.892,16.892,0,0,1,1.981.414c.354.093.716.165,1.073.25.269.064.537.134.806.2a3.035,3.035,0,0,1,.779.165c.072.037-.414.267-.465.289-.231.1-.443.234-.673.336-.443.2-.925.3-1.363.509a7.906,7.906,0,0,1-1.948.9c-.65.126-1.223-.386-1.863-.282a1.7,1.7,0,0,0-1.17,1.257c-.236,1.189,1.634,2.017,2.4,1.1.262-.314.347-.727.632-1.049a7.455,7.455,0,0,1,2.84-1.719,15.7,15.7,0,0,1,1.682-.645,3.218,3.218,0,0,1,1.588-.1,10.561,10.561,0,0,1,1.986.828c.8.372,1.58.776,2.348,1.2a5.315,5.315,0,0,1,1,.606,2.76,2.76,0,0,0,.637.515c.207.1.5.1.674.259.453.413-.342.475-.6.547a10.76,10.76,0,0,0-1.379.494,8,8,0,0,1-1.146.621,2.373,2.373,0,0,1-1.88-.071,1.381,1.381,0,0,0-1.8.134,1.4,1.4,0,0,0,.191,1.895,1.223,1.223,0,0,0,.586.162,1.431,1.431,0,0,0,1.32-.622,1.135,1.135,0,0,1,.666-.68,4.455,4.455,0,0,0,.695-.184c.483-.234.973-.464,1.463-.684a10.5,10.5,0,0,1,1.811-.625,4.285,4.285,0,0,1,1.262-.047,2.136,2.136,0,0,1,1.09.512q.742.488,1.478.982a8.087,8.087,0,0,1,.763.564c.211.179.726.392.806.655-.367.236-.75.145-1.124.3a4.108,4.108,0,0,0-2.039,1.347c-.19.275-.345.572-.555.828a8.993,8.993,0,0,1-.665.883.96.96,0,0,1-.449.272c-.229.048-.434-.076-.668-.016a1.649,1.649,0,0,0-.841.5,1.575,1.575,0,0,0,.371,1.86,1.526,1.526,0,0,0,2.208-.743c.19-.491-.119-.63-.186-1.058a1.183,1.183,0,0,1,.385-.889c.233-.292.368-.612.575-.917a5.472,5.472,0,0,1,1.368-1.255,3.239,3.239,0,0,1,2.44-.474,3.863,3.863,0,0,1,1.948,1.021,5.645,5.645,0,0,0,1.674,1.121,15.862,15.862,0,0,0,1.83.845,6.158,6.158,0,0,1,1.343.662c.588.35,2.29.57,1.036,1.4a7.733,7.733,0,0,0-1.131.914c-.522.5-1.062.985-1.6,1.472-.365.329-.406.334-.857.2a4.391,4.391,0,0,0-.69-.159c-.869-.114-1.963.663-1.8,1.631a1.375,1.375,0,0,0,.169.444,1.892,1.892,0,0,0,.992.859,1.833,1.833,0,0,0,1.834-.833,2.223,2.223,0,0,0,.218-.916c.069-.355.546-.709.765-1,.3-.395.669-.723,1-1.087a4.294,4.294,0,0,1,2.4-1.469,5.1,5.1,0,0,1,2.636.621,46.621,46.621,0,0,0,6.323,1.721c1.071.216,2.151.4,3.234.544.326.044,1.108.3,1.387.08a1.321,1.321,0,0,0,.345-.9C-3604.066-1916.793-3604.37-1916.752-3604.646-1916.724Z" transform="translate(3787.921 1947.334)" fill="#5e6850"/>
    <path id="Path_14694" data-name="Path 14694" d="M-3740.439-1959.67c.739-.282,1.536-.357,2.277-.626a11.24,11.24,0,0,1,2.6-.49c.613-.072,1.245-.058,1.852-.163a14.138,14.138,0,0,1,1.734-.189c.173-.007.339.035.513.021a4.427,4.427,0,0,1,.859-.107c.276.028.58.07.705-.257a1.321,1.321,0,0,0-.345-.9c-.279-.216-1.062.036-1.387.08q-1.624.222-3.235.543a46.635,46.635,0,0,0-6.323,1.721,5.1,5.1,0,0,1-2.636.621,4.3,4.3,0,0,1-2.4-1.469c-.33-.364-.7-.693-1-1.087-.219-.291-.7-.646-.765-1a2.225,2.225,0,0,0-.219-.916,1.832,1.832,0,0,0-1.833-.833,1.9,1.9,0,0,0-.993.858,1.381,1.381,0,0,0-.169.445c-.161.968.933,1.745,1.8,1.631a4.292,4.292,0,0,0,.689-.16c.452-.138.493-.133.857.2.537.487,1.077.969,1.6,1.472a7.751,7.751,0,0,0,1.131.914c1.253.828-.448,1.047-1.036,1.4a6.1,6.1,0,0,1-1.342.662,15.746,15.746,0,0,0-1.83.846,5.644,5.644,0,0,0-1.674,1.121,3.863,3.863,0,0,1-1.948,1.021,3.241,3.241,0,0,1-2.44-.474,5.476,5.476,0,0,1-1.367-1.255c-.207-.3-.342-.626-.575-.917a1.184,1.184,0,0,1-.385-.89c.067-.428.376-.567.186-1.058a1.526,1.526,0,0,0-2.208-.744,1.576,1.576,0,0,0-.371,1.86,1.651,1.651,0,0,0,.841.5c.234.059.439-.064.668-.017a.959.959,0,0,1,.449.273,8.916,8.916,0,0,1,.666.884c.209.256.364.553.554.828a4.112,4.112,0,0,0,2.038,1.347c.375.159.758.068,1.125.3-.08.263-.6.476-.806.655a7.936,7.936,0,0,1-.762.564q-.738.493-1.478.983a2.141,2.141,0,0,1-1.09.512,4.3,4.3,0,0,1-1.262-.047,10.513,10.513,0,0,1-1.811-.625c-.49-.22-.98-.45-1.463-.683a4.349,4.349,0,0,0-.695-.184,1.14,1.14,0,0,1-.666-.68,1.43,1.43,0,0,0-1.32-.622,1.23,1.23,0,0,0-.586.162,1.4,1.4,0,0,0-.191,1.894,1.38,1.38,0,0,0,1.8.134,2.374,2.374,0,0,1,1.88-.072,7.921,7.921,0,0,1,1.147.622,10.861,10.861,0,0,0,1.379.493c.261.073,1.055.135.6.548-.175.16-.468.161-.674.259a2.719,2.719,0,0,0-.637.515,5.355,5.355,0,0,1-1,.605c-.769.427-1.55.831-2.348,1.2a10.507,10.507,0,0,1-1.986.827,3.217,3.217,0,0,1-1.588-.1,15.457,15.457,0,0,1-1.683-.644,7.467,7.467,0,0,1-2.839-1.719c-.285-.321-.371-.735-.633-1.049-.765-.914-2.635-.086-2.4,1.1a1.7,1.7,0,0,0,1.17,1.258c.64.1,1.213-.408,1.863-.282a7.925,7.925,0,0,1,1.949.9c.438.21.92.311,1.363.51.229.1.441.235.672.336.051.022.536.252.465.289a3.056,3.056,0,0,1-.779.164c-.269.067-.537.136-.806.2-.357.085-.718.157-1.073.25a17.067,17.067,0,0,1-1.982.415,26.463,26.463,0,0,1-5.527.272c-.316-.025-.6-.107-.919-.133a1.4,1.4,0,0,1-.964-.471,1.378,1.378,0,0,0-1.41-.6,1.256,1.256,0,0,0-.852,1.792,1.278,1.278,0,0,0,1.363.875c.531-.118.689-.656,1.152-.845a5.035,5.035,0,0,1,.767-.078,17.224,17.224,0,0,1,2.483-.019c1.009-.039,2.019-.047,3.023-.154q.92-.1,1.833-.25c.247-.041.484-.179.731-.2.18-.016.649-.214.8-.068.1.1.007.22-.04.314a1.5,1.5,0,0,0-.1.272,2.557,2.557,0,0,1-.3.611c-.229.371-.5.711-.756,1.063a5.62,5.62,0,0,1-.911,1.16,5.382,5.382,0,0,1-1.187.557c-.818.39-1.306,1.821-.332,2.391.825.483,2.131-.612,2.176-1.424.02-.354-.147-.673-.111-1.032a1.29,1.29,0,0,1,.141-.507c.126-.247.277-.48.426-.712.128-.2.292-.362.418-.559.325-.5.685-.985.987-1.5a2.942,2.942,0,0,1,.892-.929,3.455,3.455,0,0,1,1-.321,4.074,4.074,0,0,0,1.074-.382,1.486,1.486,0,0,1,.7-.181,3.454,3.454,0,0,0,.97-.442c.375-.18.75-.361,1.127-.538.534-.25,1.021-.6,1.551-.866a2.032,2.032,0,0,1,.842-.325c.421.037.208.4.1.743s-.206.677-.291,1.018c-.179.719-.324,1.478-.444,2.209-.082.495.1,1.071-.313,1.5-.138.142-.3.117-.475.168a.882.882,0,0,0-.479.333,1.121,1.121,0,0,0-.388.708,1.6,1.6,0,0,0,1.267,1.662,1.873,1.873,0,0,0,2.03-1.452c.181-.584-.324-.886-.7-1.222a1.048,1.048,0,0,1-.426-.652c-.012-.293.135-.606.135-.92a8.074,8.074,0,0,1,.24-1.8,15.469,15.469,0,0,1,.421-1.527c.094-.278.195-.553.308-.823.171-.415.543-.619.836-.94a3.58,3.58,0,0,1,1.357-.79,6.253,6.253,0,0,0,.774-.554,3.633,3.633,0,0,0,.517-.367c.405-.379.92-.576,1.344-.919.233-.19.554-.311.789-.515a4.406,4.406,0,0,1,.589-.45c.618-.389,1.218-.809,1.833-1.2q.8-.51,1.605-1c.463-.283.964-.33,1.341-.739.247-.268.8-.78.922-.181.065.316-.183.658-.3.915a16.891,16.891,0,0,0-.664,1.694c-.178.53-.294,1.077-.45,1.611-.136.465-.292,1.232-.789,1.423-.256.1-.518.026-.77.175a1.6,1.6,0,0,0-.552.694,1.971,1.971,0,0,0,.023,1.953,1.461,1.461,0,0,0,1.139.659,2.087,2.087,0,0,0,2.143-1.757,1.742,1.742,0,0,0-.516-1.238c-.728-.988.032-2.567.391-3.594a15.154,15.154,0,0,1,.885-2.09,4.494,4.494,0,0,1,.611-1,4.883,4.883,0,0,1,1.54-1.016c.35-.16.664-.394,1.012-.553.469-.214.94-.408,1.407-.621C-3742.16-1959.054-3741.291-1959.344-3740.439-1959.67Z" transform="translate(3879.672 1964.762)" fill="#5e6850"/>
    <path id="Path_14695" data-name="Path 14695" d="M-3856.57-1916.724a4.426,4.426,0,0,1-.858-.107c-.174-.013-.341.028-.513.022a14.152,14.152,0,0,1-1.734-.189c-.608-.106-1.239-.092-1.852-.164a11.21,11.21,0,0,1-2.6-.49c-.74-.269-1.537-.344-2.277-.626-.851-.327-1.721-.615-2.551-1-.467-.213-.938-.407-1.408-.621-.348-.16-.661-.394-1.012-.553a4.884,4.884,0,0,1-1.54-1.015,4.54,4.54,0,0,1-.611-1,15.138,15.138,0,0,1-.885-2.089c-.358-1.027-1.119-2.606-.391-3.594a1.743,1.743,0,0,0,.516-1.239,2.088,2.088,0,0,0-2.143-1.757,1.462,1.462,0,0,0-1.139.659,1.97,1.97,0,0,0-.024,1.953,1.6,1.6,0,0,0,.553.694c.251.149.513.076.769.176.5.191.654.958.79,1.422.156.534.272,1.082.45,1.612a17.07,17.07,0,0,0,.664,1.694c.118.256.366.6.3.914-.125.6-.676.088-.922-.18-.377-.409-.878-.456-1.341-.739q-.809-.493-1.605-1c-.615-.394-1.214-.814-1.833-1.2a4.425,4.425,0,0,1-.589-.449c-.235-.2-.556-.325-.79-.515-.423-.343-.938-.541-1.343-.919a3.678,3.678,0,0,0-.517-.367,6.235,6.235,0,0,0-.774-.554,3.583,3.583,0,0,1-1.357-.79c-.293-.32-.664-.525-.836-.941-.113-.27-.213-.545-.308-.823a15.315,15.315,0,0,1-.42-1.527,8.038,8.038,0,0,1-.24-1.8c0-.314-.148-.627-.136-.921a1.052,1.052,0,0,1,.426-.652c.373-.336.878-.638.7-1.221a1.872,1.872,0,0,0-2.029-1.453,1.6,1.6,0,0,0-1.267,1.662,1.123,1.123,0,0,0,.388.708.883.883,0,0,0,.479.332c.172.052.338.026.475.168.416.43.232,1.007.314,1.5.12.731.265,1.491.444,2.209.085.341.181.683.291,1.018s.324.706-.1.744a2.045,2.045,0,0,1-.842-.325c-.529-.264-1.016-.616-1.55-.866-.377-.177-.752-.358-1.127-.538a3.468,3.468,0,0,0-.97-.441,1.492,1.492,0,0,1-.7-.182,4.107,4.107,0,0,0-1.074-.382,3.482,3.482,0,0,1-1-.321,2.945,2.945,0,0,1-.892-.93c-.3-.514-.662-1-.986-1.5-.127-.2-.292-.359-.419-.559-.148-.233-.3-.465-.426-.712a1.288,1.288,0,0,1-.141-.507c-.036-.358.131-.679.112-1.032-.045-.812-1.351-1.908-2.177-1.425-.974.57-.486,2,.332,2.391a5.387,5.387,0,0,1,1.186.558,5.608,5.608,0,0,1,.911,1.16c.255.352.528.691.756,1.063a2.583,2.583,0,0,1,.3.612,1.441,1.441,0,0,0,.1.272c.047.095.14.218.04.315-.149.145-.619-.053-.8-.068-.247-.02-.485-.158-.732-.2q-.912-.153-1.833-.249c-1-.107-2.015-.116-3.024-.154a17.323,17.323,0,0,1-2.483-.019,5.165,5.165,0,0,1-.767-.078c-.463-.19-.622-.727-1.152-.845a1.278,1.278,0,0,0-1.363.875,1.256,1.256,0,0,0,.852,1.792,1.377,1.377,0,0,0,1.41-.6,1.4,1.4,0,0,1,.963-.471c.321-.026.6-.108.919-.133a26.465,26.465,0,0,1,5.527.272,16.851,16.851,0,0,1,1.981.414c.354.093.716.165,1.073.25.269.064.537.134.806.2a3.043,3.043,0,0,1,.779.165c.071.037-.414.267-.465.289-.231.1-.443.234-.672.336-.443.2-.926.3-1.363.509a7.9,7.9,0,0,1-1.949.9c-.65.126-1.223-.386-1.863-.282a1.7,1.7,0,0,0-1.17,1.257c-.236,1.189,1.634,2.017,2.4,1.1.262-.314.348-.727.632-1.049a7.459,7.459,0,0,1,2.84-1.719,15.681,15.681,0,0,1,1.682-.645,3.217,3.217,0,0,1,1.587-.1,10.566,10.566,0,0,1,1.987.828c.8.372,1.579.776,2.348,1.2a5.308,5.308,0,0,1,1,.606,2.767,2.767,0,0,0,.637.515c.207.1.5.1.674.259.453.413-.342.475-.6.547a10.78,10.78,0,0,0-1.378.494,7.986,7.986,0,0,1-1.147.621,2.372,2.372,0,0,1-1.88-.071,1.38,1.38,0,0,0-1.8.134,1.4,1.4,0,0,0,.191,1.895,1.223,1.223,0,0,0,.586.162,1.43,1.43,0,0,0,1.32-.622,1.137,1.137,0,0,1,.666-.68,4.455,4.455,0,0,0,.695-.184c.483-.234.973-.464,1.463-.684a10.516,10.516,0,0,1,1.811-.625,4.284,4.284,0,0,1,1.262-.047,2.135,2.135,0,0,1,1.09.512q.742.488,1.478.982a8.186,8.186,0,0,1,.763.564c.21.179.726.392.805.655-.366.236-.75.145-1.124.3a4.108,4.108,0,0,0-2.038,1.347c-.191.275-.345.572-.555.828a8.964,8.964,0,0,1-.666.883.954.954,0,0,1-.449.272c-.228.048-.434-.076-.668-.016a1.65,1.65,0,0,0-.841.5,1.575,1.575,0,0,0,.372,1.86,1.526,1.526,0,0,0,2.208-.743c.19-.491-.119-.63-.186-1.058a1.183,1.183,0,0,1,.384-.889c.234-.292.369-.612.575-.917a5.473,5.473,0,0,1,1.368-1.255,3.239,3.239,0,0,1,2.44-.474,3.861,3.861,0,0,1,1.948,1.021,5.639,5.639,0,0,0,1.674,1.121,15.862,15.862,0,0,0,1.83.845,6.157,6.157,0,0,1,1.343.662c.589.35,2.29.57,1.036,1.4a7.75,7.75,0,0,0-1.131.914c-.522.5-1.062.985-1.6,1.472-.364.329-.406.334-.857.2a4.37,4.37,0,0,0-.689-.159c-.87-.114-1.963.663-1.8,1.631a1.379,1.379,0,0,0,.169.444,1.894,1.894,0,0,0,.993.859,1.833,1.833,0,0,0,1.834-.833,2.226,2.226,0,0,0,.218-.916c.069-.355.546-.709.765-1,.3-.395.669-.723,1-1.087a4.3,4.3,0,0,1,2.4-1.469,5.1,5.1,0,0,1,2.636.621,46.631,46.631,0,0,0,6.323,1.721c1.072.216,2.152.4,3.234.544.326.044,1.108.3,1.388.08a1.325,1.325,0,0,0,.345-.9C-3855.99-1916.793-3856.293-1916.752-3856.57-1916.724Z" transform="translate(3971.424 1947.334)" fill="#5e6850"/>
    <path id="Path_14696" data-name="Path 14696" d="M-3992.362-1959.67c.739-.282,1.537-.357,2.277-.626a11.244,11.244,0,0,1,2.6-.49c.613-.072,1.245-.058,1.852-.163a14.144,14.144,0,0,1,1.733-.189c.173-.007.34.035.513.021a4.429,4.429,0,0,1,.858-.107c.276.028.58.07.706-.257a1.325,1.325,0,0,0-.345-.9c-.28-.216-1.062.036-1.388.08q-1.624.222-3.234.543a46.6,46.6,0,0,0-6.323,1.721,5.1,5.1,0,0,1-2.637.621,4.3,4.3,0,0,1-2.4-1.469c-.33-.364-.7-.693-1-1.087-.219-.291-.7-.646-.765-1a2.214,2.214,0,0,0-.219-.916,1.832,1.832,0,0,0-1.833-.833,1.894,1.894,0,0,0-.992.858,1.359,1.359,0,0,0-.169.445c-.161.968.932,1.745,1.8,1.631a4.316,4.316,0,0,0,.689-.16c.451-.138.493-.133.857.2.537.487,1.077.969,1.6,1.472a7.788,7.788,0,0,0,1.131.914c1.254.828-.448,1.047-1.036,1.4a6.09,6.09,0,0,1-1.342.662,15.78,15.78,0,0,0-1.83.846,5.636,5.636,0,0,0-1.674,1.121,3.861,3.861,0,0,1-1.947,1.021,3.242,3.242,0,0,1-2.441-.474,5.479,5.479,0,0,1-1.367-1.255c-.207-.3-.342-.626-.576-.917a1.184,1.184,0,0,1-.384-.89c.067-.428.376-.567.186-1.058a1.526,1.526,0,0,0-2.208-.744,1.574,1.574,0,0,0-.371,1.86,1.648,1.648,0,0,0,.841.5c.234.059.439-.064.668-.017a.958.958,0,0,1,.449.273,8.878,8.878,0,0,1,.666.884c.209.256.364.553.555.828a4.11,4.11,0,0,0,2.038,1.347c.375.159.758.068,1.125.3-.08.263-.6.476-.805.655a7.977,7.977,0,0,1-.763.564q-.737.493-1.478.983a2.144,2.144,0,0,1-1.09.512,4.3,4.3,0,0,1-1.262-.047,10.52,10.52,0,0,1-1.811-.625c-.49-.22-.979-.45-1.463-.683a4.349,4.349,0,0,0-.695-.184,1.138,1.138,0,0,1-.665-.68,1.43,1.43,0,0,0-1.32-.622,1.23,1.23,0,0,0-.586.162,1.4,1.4,0,0,0-.191,1.894,1.38,1.38,0,0,0,1.8.134,2.373,2.373,0,0,1,1.88-.072,7.883,7.883,0,0,1,1.147.622,10.888,10.888,0,0,0,1.379.493c.261.073,1.055.135.6.548-.175.16-.467.161-.674.259a2.744,2.744,0,0,0-.637.515,5.33,5.33,0,0,1-1,.605c-.769.427-1.55.831-2.348,1.2a10.5,10.5,0,0,1-1.986.827,3.216,3.216,0,0,1-1.588-.1,15.457,15.457,0,0,1-1.683-.644,7.467,7.467,0,0,1-2.839-1.719c-.285-.321-.371-.735-.633-1.049-.765-.914-2.635-.086-2.4,1.1a1.7,1.7,0,0,0,1.17,1.258c.64.1,1.213-.408,1.863-.282a7.921,7.921,0,0,1,1.949.9c.438.21.92.311,1.363.51.229.1.441.235.672.336.051.022.537.252.465.289a3.048,3.048,0,0,1-.778.164c-.27.067-.537.136-.806.2-.356.085-.718.157-1.072.25a17.089,17.089,0,0,1-1.982.415,26.465,26.465,0,0,1-5.527.272c-.316-.025-.6-.107-.919-.133a1.4,1.4,0,0,1-.963-.471,1.379,1.379,0,0,0-1.41-.6,1.256,1.256,0,0,0-.852,1.792,1.279,1.279,0,0,0,1.364.875c.53-.118.688-.656,1.152-.845a5.032,5.032,0,0,1,.767-.078,17.217,17.217,0,0,1,2.483-.019c1.009-.039,2.019-.047,3.024-.154q.92-.1,1.833-.25c.247-.041.484-.179.732-.2.18-.016.649-.214.8-.068.1.1.007.22-.04.314a1.411,1.411,0,0,0-.1.272,2.578,2.578,0,0,1-.3.611c-.229.371-.5.711-.756,1.063a5.619,5.619,0,0,1-.911,1.16,5.38,5.38,0,0,1-1.186.557c-.818.39-1.306,1.821-.332,2.391.825.483,2.131-.612,2.177-1.424.019-.354-.148-.673-.112-1.032a1.286,1.286,0,0,1,.141-.507c.126-.247.277-.48.426-.712.127-.2.291-.362.418-.559.324-.5.685-.985.987-1.5a2.938,2.938,0,0,1,.891-.929,3.464,3.464,0,0,1,1-.321,4.07,4.07,0,0,0,1.074-.382,1.489,1.489,0,0,1,.7-.181,3.457,3.457,0,0,0,.97-.442c.375-.18.75-.361,1.128-.538.534-.25,1.021-.6,1.55-.866a2.031,2.031,0,0,1,.843-.325c.42.037.208.4.1.743s-.206.677-.291,1.018c-.18.719-.324,1.478-.445,2.209-.081.495.1,1.071-.314,1.5-.138.142-.3.117-.475.168a.881.881,0,0,0-.479.333,1.121,1.121,0,0,0-.388.708,1.6,1.6,0,0,0,1.268,1.662,1.873,1.873,0,0,0,2.029-1.452c.181-.584-.324-.886-.7-1.222a1.052,1.052,0,0,1-.426-.652c-.012-.293.136-.606.136-.92a8.06,8.06,0,0,1,.24-1.8,15.335,15.335,0,0,1,.421-1.527c.094-.278.194-.553.307-.823.172-.415.543-.619.836-.94a3.577,3.577,0,0,1,1.357-.79,6.214,6.214,0,0,0,.774-.554,3.619,3.619,0,0,0,.517-.367c.405-.379.92-.576,1.344-.919.233-.19.554-.311.789-.515a4.422,4.422,0,0,1,.589-.45c.618-.389,1.218-.809,1.833-1.2q.8-.51,1.605-1c.463-.283.964-.33,1.34-.739.247-.268.8-.78.922-.181.065.316-.183.658-.3.915a16.891,16.891,0,0,0-.664,1.694c-.178.53-.294,1.077-.45,1.611-.136.465-.292,1.232-.79,1.423-.256.1-.518.026-.769.175a1.6,1.6,0,0,0-.552.694,1.968,1.968,0,0,0,.024,1.953,1.459,1.459,0,0,0,1.139.659,2.086,2.086,0,0,0,2.143-1.757,1.74,1.74,0,0,0-.516-1.238c-.728-.988.033-2.567.391-3.594a15.091,15.091,0,0,1,.885-2.09,4.514,4.514,0,0,1,.611-1,4.885,4.885,0,0,1,1.54-1.016c.35-.16.665-.394,1.012-.553.469-.214.94-.408,1.407-.621C-3994.083-1959.054-3993.214-1959.344-3992.362-1959.67Z" transform="translate(4067.141 1964.762)" fill="#5e6850"/>
    <path id="Path_14697" data-name="Path 14697" d="M-4096.275-1916.724a4.424,4.424,0,0,1-.858-.107c-.174-.013-.341.028-.513.022a14.128,14.128,0,0,1-1.733-.189c-.608-.106-1.239-.092-1.853-.164a11.217,11.217,0,0,1-2.6-.49c-.74-.269-1.537-.344-2.277-.626-.851-.327-1.721-.615-2.551-1-.468-.213-.938-.407-1.408-.621-.348-.16-.662-.394-1.012-.553a4.891,4.891,0,0,1-1.54-1.015,4.559,4.559,0,0,1-.611-1,15.167,15.167,0,0,1-.885-2.089c-.358-1.027-1.12-2.606-.391-3.594a1.742,1.742,0,0,0,.516-1.239,2.088,2.088,0,0,0-2.143-1.757,1.46,1.46,0,0,0-1.139.659,1.969,1.969,0,0,0-.024,1.953,1.6,1.6,0,0,0,.553.694c.251.149.514.076.77.176.5.191.653.958.789,1.422.156.534.272,1.082.45,1.612a16.953,16.953,0,0,0,.664,1.694c.118.256.366.6.3.914-.125.6-.675.088-.922-.18-.376-.409-.878-.456-1.341-.739q-.809-.493-1.605-1c-.615-.394-1.214-.814-1.832-1.2a4.4,4.4,0,0,1-.59-.449c-.235-.2-.556-.325-.79-.515-.423-.343-.938-.541-1.343-.919a3.7,3.7,0,0,0-.517-.367,6.274,6.274,0,0,0-.774-.554,3.581,3.581,0,0,1-1.357-.79c-.293-.32-.664-.525-.836-.941-.113-.27-.213-.545-.307-.823a15.317,15.317,0,0,1-.421-1.527,8.08,8.08,0,0,1-.24-1.8c0-.314-.148-.627-.136-.921a1.052,1.052,0,0,1,.427-.652c.373-.336.878-.638.7-1.221a1.872,1.872,0,0,0-2.03-1.453,1.6,1.6,0,0,0-1.267,1.662,1.118,1.118,0,0,0,.387.708.885.885,0,0,0,.479.332c.171.052.337.026.475.168.415.43.232,1.007.313,1.5.12.731.265,1.491.444,2.209.085.341.182.683.291,1.018s.324.706-.1.744a2.045,2.045,0,0,1-.842-.325c-.529-.264-1.016-.616-1.551-.866-.377-.177-.752-.358-1.127-.538a3.47,3.47,0,0,0-.97-.441,1.491,1.491,0,0,1-.7-.182,4.113,4.113,0,0,0-1.074-.382,3.477,3.477,0,0,1-1-.321,2.945,2.945,0,0,1-.892-.93c-.3-.514-.663-1-.987-1.5-.127-.2-.291-.359-.419-.559-.147-.233-.3-.465-.425-.712a1.288,1.288,0,0,1-.141-.507c-.036-.358.131-.679.112-1.032-.045-.812-1.351-1.908-2.177-1.425-.974.57-.486,2,.332,2.391a5.377,5.377,0,0,1,1.186.558,5.6,5.6,0,0,1,.911,1.16c.255.352.528.691.756,1.063a2.585,2.585,0,0,1,.3.612,1.422,1.422,0,0,0,.1.272c.047.095.14.218.041.315-.149.145-.619-.053-.8-.068-.248-.02-.485-.158-.732-.2q-.912-.153-1.833-.249c-1-.107-2.016-.116-3.024-.154-.145-.006-.294,0-.444,0v.475a30.734,30.734,0,0,1,4.351.322,16.864,16.864,0,0,1,1.981.414c.355.093.716.165,1.073.25.27.064.538.134.807.2a3.027,3.027,0,0,1,.778.165c.072.037-.414.267-.465.289-.231.1-.443.234-.672.336-.444.2-.926.3-1.363.509a7.927,7.927,0,0,1-1.949.9c-.65.126-1.223-.386-1.863-.282a1.7,1.7,0,0,0-1.17,1.257c-.236,1.189,1.634,2.017,2.4,1.1.262-.314.348-.727.633-1.049a7.453,7.453,0,0,1,2.84-1.719,15.681,15.681,0,0,1,1.682-.645,3.217,3.217,0,0,1,1.587-.1,10.566,10.566,0,0,1,1.987.828c.8.372,1.579.776,2.348,1.2a5.315,5.315,0,0,1,1,.606,2.758,2.758,0,0,0,.636.515c.207.1.5.1.675.259.452.413-.342.475-.6.547a10.787,10.787,0,0,0-1.379.494,7.978,7.978,0,0,1-1.146.621,2.374,2.374,0,0,1-1.88-.071,1.381,1.381,0,0,0-1.8.134,1.394,1.394,0,0,0,.191,1.895,1.221,1.221,0,0,0,.586.162,1.43,1.43,0,0,0,1.32-.622,1.135,1.135,0,0,1,.666-.68,4.451,4.451,0,0,0,.695-.184c.483-.234.973-.464,1.463-.684a10.5,10.5,0,0,1,1.811-.625,4.282,4.282,0,0,1,1.262-.047,2.136,2.136,0,0,1,1.09.512q.743.488,1.478.982a8.094,8.094,0,0,1,.763.564c.21.179.725.392.806.655-.367.236-.75.145-1.125.3a4.112,4.112,0,0,0-2.039,1.347c-.19.275-.345.572-.554.828a8.926,8.926,0,0,1-.666.883.955.955,0,0,1-.449.272c-.229.048-.434-.076-.668-.016a1.65,1.65,0,0,0-.841.5,1.576,1.576,0,0,0,.372,1.86,1.526,1.526,0,0,0,2.208-.743c.19-.491-.119-.63-.186-1.058a1.185,1.185,0,0,1,.385-.889c.233-.292.369-.612.576-.917a5.468,5.468,0,0,1,1.368-1.255,3.24,3.24,0,0,1,2.44-.474,3.864,3.864,0,0,1,1.947,1.021,5.634,5.634,0,0,0,1.674,1.121,15.84,15.84,0,0,0,1.83.845,6.16,6.16,0,0,1,1.342.662c.588.35,2.29.57,1.036,1.4a7.724,7.724,0,0,0-1.131.914c-.522.5-1.062.985-1.6,1.472-.364.329-.406.334-.857.2a4.376,4.376,0,0,0-.689-.159c-.87-.114-1.964.663-1.8,1.631a1.363,1.363,0,0,0,.169.444,1.9,1.9,0,0,0,.992.859,1.833,1.833,0,0,0,1.834-.833,2.2,2.2,0,0,0,.218-.916c.069-.355.546-.709.765-1,.3-.395.669-.723,1-1.087a4.294,4.294,0,0,1,2.4-1.469,5.1,5.1,0,0,1,2.636.621,46.631,46.631,0,0,0,6.323,1.721c1.072.216,2.151.4,3.234.544.326.044,1.108.3,1.388.08a1.325,1.325,0,0,0,.345-.9C-4095.695-1916.793-4096-1916.752-4096.275-1916.724Z" transform="translate(4142.061 1947.334)" fill="#5e6850"/>
    <path id="Path_14698" data-name="Path 14698" d="M-4138.2-1955.8a14.152,14.152,0,0,1,1.733-.189c.173-.007.339.035.514.021a4.438,4.438,0,0,1,.857-.107c.276.028.581.07.706-.257a1.325,1.325,0,0,0-.345-.9c-.279-.216-1.062.036-1.388.08q-1.625.222-3.234.543-1.359.271-2.7.62v.662a15.446,15.446,0,0,1,2-.311C-4139.443-1955.708-4138.812-1955.695-4138.2-1955.8Z" transform="translate(4142.061 1959.613)" fill="#5e6850"/>
  </g>
</svg>
