<?xml version="1.0" encoding="utf-8"?>
<!-- Generator: Adobe Illustrator 24.1.0, SVG Export Plug-In . SVG Version: 6.00 Build 0)  -->
<svg version="1.1" id="botanic-border-main" xmlns="http://www.w3.org/2000/svg" xmlns:xlink="http://www.w3.org/1999/xlink"
	 x="0px" y="0px" viewBox="0 0 278.5 34.4" style="enable-background:new 0 0 278.5 34.4;" xml:space="preserve">
<style type="text/css">
	.st0{fill:#5E6850;}
</style>
<g>
	<path id="Path_2169" class="st0" d="M277.1,11c-0.4-0.2-0.7-0.5-0.9-0.9c-0.1-0.2-0.2-0.4-0.4-0.6c-0.5-0.6-0.1-1.7-0.7-2.4
		c-0.4-0.5-1.5-1.5-2.2-1.3c-0.9,0.2,0.4,2.1,0.6,2.5c0.2,0.5,0.5,0.9,0.9,1.1c0.6,0.2,1.2,0.6,1.6,1.1c0.4,0.4,0.9,0.8,1.4,0.9
		c0.3,0.1,0.5,0,0.8,0.2c-0.1,0.2-0.4,0.3-0.6,0.5c-0.2,0.1-0.3,0.3-0.5,0.4c-0.3,0.2-0.7,0.5-1,0.7c-0.2,0.2-0.5,0.3-0.8,0.4
		c-0.3,0-0.6,0-0.9,0c-0.4-0.1-0.8-0.3-1.2-0.4c-0.9-0.4-1.8-0.8-2.7-1.2c-0.5-0.2-1.1-0.4-1.6-0.4c-0.5,0-1.6,0.4-1.6,1.1
		c0.1,1.3,2.7,0.8,3.4,0.7c0.4-0.1,0.8-0.3,1.2-0.3c0.5,0,0.8,0.3,1.3,0.5c0.3,0.1,0.6,0.2,1,0.3c0.2,0.1,0.7,0.1,0.4,0.4
		c-0.1,0.1-0.3,0.1-0.5,0.2c-0.2,0.1-0.3,0.2-0.4,0.4c-0.2,0.2-0.4,0.3-0.7,0.4c-0.5,0.3-1.1,0.6-1.6,0.8c-0.4,0.2-0.9,0.4-1.4,0.6
		c-0.4,0.1-0.7,0-1.1-0.1c-0.4-0.1-0.8-0.3-1.2-0.4c-0.9-0.4-1.8-0.8-2.7-1.3c-0.6-0.3-1.7-0.9-2.3-0.6c-0.7,0.3-0.3,1.1,0.2,1.4
		c0.8,0.6,1.6,0.3,2.5,0.3c0.7,0,1.5,0.2,2.2,0.5c0.2,0.1,1,0.7,1.3,0.6c-0.2,0.1-0.4,0.1-0.5,0.1c-0.2,0-0.4,0.1-0.6,0.1
		c-0.2,0.1-0.5,0.1-0.7,0.2c-0.4,0.1-0.9,0.2-1.4,0.3c-1,0.2-2.1,0.3-3.1,0.3c-1,0-1.9-0.7-2.9-0.7c-0.6,0-2,0.4-2.1,1.1
		c-0.1,0.6,1.2,0.8,1.7,0.9c0.8,0.1,1.5,0,2.3-0.2c0.6-0.2,1.2-0.5,1.7-0.7c1-0.2,2-0.3,3-0.5c0.2,0,0.3-0.1,0.5-0.1
		c0.5,0,0.6-0.2,0.5,0.4c-0.2,0.5-0.5,0.9-0.8,1.2c-0.6,0.5-1.3,0.7-1.8,1.3c-0.3,0.4-0.9,1.5-0.2,1.9c0.4,0.2,1.2-0.1,1.5-0.3
		c1.7-1.2,0.7-3.6,2.3-4.7c0.2-0.1,0.4-0.2,0.7-0.2c0.3-0.1,0.5-0.1,0.7-0.3c0.1-0.1,0.3-0.1,0.5-0.1c0.2-0.1,0.5-0.2,0.7-0.3
		c0.3-0.1,0.5-0.2,0.8-0.4c0.4-0.2,0.7-0.4,1.1-0.6c0.2-0.1,0.4-0.2,0.6-0.2c0.3,0,0.1,0.3,0.1,0.5c-0.1,0.2-0.1,0.5-0.2,0.7
		c-0.1,0.5-0.1,1-0.3,1.5c-0.3,1-1.5,1.6-1.3,2.8l0,0c0.1,0.6,0.2,2.9,1.3,2.2c0.5-0.4,0.8-1,1-1.6c0.3-0.7,0.2-1.4-0.1-2.1
		c-0.3-0.7,0-1.3-0.1-2c-0.2-1.1,0.2-2.1,1-2.8c0.3-0.2,0.6-0.4,0.9-0.5c0.2-0.1,0.4-0.2,0.5-0.4c0.1-0.1,0.2-0.2,0.4-0.3
		c0.3-0.3,0.6-0.4,0.9-0.6c0.2-0.1,0.4-0.2,0.5-0.4c0.1-0.1,0.3-0.2,0.4-0.3c0.1-0.1,0.2-0.1,0.3-0.2v-0.8
		C278,11.5,277.6,11.3,277.1,11z"/>
	<path id="Path_2170" class="st0" d="M278.2,3.5c-0.6,0.1-1.1,0.1-0.7,0.8c0.3,0.4,0.6,0.7,1,0.9V3.5C278.5,3.5,278.3,3.5,278.2,3.5
		z"/>
	<path id="Path_2171" class="st0" d="M267.1,26.5c-0.2,0-0.4,0-0.6-0.1c-0.1,0-0.2,0-0.4,0c-0.4,0-0.8-0.1-1.2-0.1
		c-0.4-0.1-0.9-0.1-1.3-0.1c-0.6,0-1.2-0.2-1.8-0.3c-0.5-0.2-1.1-0.2-1.6-0.4c-0.6-0.2-1.2-0.4-1.8-0.7c-0.3-0.1-0.6-0.3-1-0.4
		c-0.2-0.1-0.5-0.3-0.7-0.4c-0.4-0.2-0.8-0.4-1.1-0.7c-0.2-0.2-0.3-0.4-0.4-0.7c-0.2-0.5-0.4-0.9-0.6-1.4c-0.2-0.5-0.4-1.1-0.5-1.7
		c0-0.5,0.3-0.9,0.3-1.4c0-0.9-0.4-4.6-2-4.3c-0.6,0.1-0.6,1.9-0.7,2.4c-0.1,1.4,1.5,2.3,2,3.4c0.3,0.9,0.5,1.8,0.9,2.6
		c0.1,0.2,0.3,0.4,0.2,0.6c-0.1,0.4-0.5,0.1-0.6-0.1c-0.3-0.3-0.6-0.3-0.9-0.5c-0.4-0.2-0.7-0.5-1.1-0.7c-0.4-0.3-0.8-0.6-1.3-0.8
		c-0.1-0.1-0.3-0.2-0.4-0.3c-0.2-0.1-0.4-0.2-0.5-0.4c-0.3-0.2-0.6-0.4-0.9-0.6c-0.1-0.1-0.2-0.2-0.4-0.3c-0.2-0.1-0.3-0.3-0.5-0.4
		c-0.3-0.1-0.7-0.3-0.9-0.5c-0.2-0.2-0.5-0.4-0.6-0.6c-0.1-0.2-0.1-0.4-0.2-0.6c-0.1-0.3-0.2-0.7-0.3-1.1c-0.2-0.8-0.3-1.6-0.3-2.5
		c0.2-0.6,0.3-1.2,0.3-1.8c0-0.6,0.1-3.1-1-2.9c-0.8,0.2-0.9,1.4-0.9,2c0,0.4,0.1,0.7,0.3,1c0.3,0.6,0.6,1.2,0.8,1.8
		c0.2,0.8,0.2,1.8,0.4,2.7c0.1,0.2,0.1,0.5,0.2,0.7s0.2,0.5-0.1,0.5c-0.2,0-0.4-0.1-0.6-0.2c-0.4-0.2-0.7-0.4-1.1-0.6
		c-0.3-0.1-0.5-0.2-0.8-0.4c-0.2-0.1-0.4-0.2-0.7-0.3c-0.2,0-0.3,0-0.5-0.1c-0.2-0.1-0.5-0.2-0.7-0.3c-0.2,0-0.5-0.1-0.7-0.2
		c-0.2-0.2-0.5-0.4-0.6-0.6c-0.2-0.4-0.5-0.7-0.7-1c-0.1-0.1-0.2-0.2-0.3-0.4c-0.5-0.8-0.6-1.8-1.1-2.6c-0.3-0.5-2.4-2.7-2.7-1.4
		c-0.3,1.1,1.3,2.8,2.2,3.2c0.3,0.1,0.6,0.2,0.8,0.4c0.2,0.2,0.5,0.5,0.6,0.8c0.2,0.2,0.4,0.5,0.5,0.7c0.1,0.1,0.2,0.3,0.2,0.4
		c0,0.1,0,0.1,0.1,0.2c0,0.1,0.1,0.1,0,0.2c-0.1,0.1-0.4,0-0.6,0c-0.2,0-0.3-0.1-0.5-0.1c-0.4-0.1-0.8-0.1-1.3-0.2
		c-0.7-0.1-1.4-0.1-2.1-0.1c-0.6,0-1.1,0-1.7,0c-0.2,0-0.4,0-0.5-0.1c-0.6-0.3-1.1-0.7-1.8-0.7c-0.5,0-1,0.1-1.5,0.1
		c-0.5,0.1-2.1,0.5-1.9,1.2c0,0.3,0.5,0.5,0.8,0.6c0.7,0.2,1.4,0.2,2,0c0.6-0.2,1.2-0.1,1.8-0.2c0.7-0.2,1.3-0.4,2-0.5
		c1.2,0,2.4,0,3.5,0.2c0.5,0.1,0.9,0.2,1.4,0.3c0.2,0.1,0.5,0.1,0.7,0.2c0.2,0,0.4,0.1,0.6,0.1c0.2,0,0.4,0.1,0.5,0.1
		c0,0-0.3,0.2-0.3,0.2c-0.2,0.1-0.3,0.2-0.5,0.2c-0.3,0.1-0.6,0.2-0.9,0.4c-0.7,0.4-1.5,0.6-2.2,0.8c-1.4,0.2-2.7,0.5-3.3,1.9
		c-0.3,0.6-0.5,1.5,0.5,1.4c0.5-0.1,1-0.3,1.4-0.7c0.5-0.3,1-0.6,1.4-1c0.3-0.4,0.7-0.8,0.9-1.2c0.6-0.5,1.2-0.9,2-1.2
		c0.4-0.2,0.8-0.3,1.2-0.4c0.4-0.1,0.7-0.1,1.1-0.1c0.5,0.1,0.9,0.3,1.4,0.6c0.6,0.3,1.1,0.5,1.6,0.8c0.2,0.1,0.5,0.3,0.7,0.4
		c0.1,0.1,0.3,0.3,0.4,0.4c0.1,0.1,0.3,0.1,0.5,0.2c0.3,0.3-0.2,0.3-0.4,0.4c-0.3,0.1-0.6,0.2-1,0.3c-0.3,0.2-0.5,0.3-0.8,0.4
		c-0.5,0.1-1-0.1-1.5,0.1c-1,0.3-1.9,0.3-2.6,1.1c-0.4,0.4-1.3,1.4-1.3,2c0,1.1,2-0.2,2.4-0.4c0.6-0.2,1.2-0.6,1.7-1
		c0.3-0.5,0.7-0.9,1.1-1.3c0.7-0.4,1.5-0.7,2.4-0.9c0.3-0.1,0.6-0.1,0.9,0c0.3,0,0.5,0.2,0.8,0.4c0.3,0.2,0.7,0.4,1,0.7
		c0.2,0.1,0.4,0.2,0.5,0.4c0.1,0.1,0.5,0.3,0.6,0.5c-0.3,0.2-0.5,0.1-0.8,0.2c-0.5,0.2-1,0.5-1.4,0.9c-0.4,0.5-0.6,1.1-1.2,1.4
		c-0.8,0.4-1.5,0.3-1.9,1.2c-0.4,0.9-0.6,1.8-0.6,2.7c0.1,1.4,1.4,0.1,1.8-0.4c0.5-0.6,0.9-1.3,1.3-2c0.4-0.7-0.2-1.3,0.3-1.9
		c0.2-0.2,0.3-0.4,0.4-0.6c0.3-0.3,0.6-0.6,0.9-0.9c0.5-0.3,1.1-0.4,1.7-0.3c0.5,0.1,1,0.3,1.3,0.7c0.3,0.3,0.7,0.6,1.2,0.8
		c0.4,0.2,0.8,0.4,1.3,0.6c0.3,0.1,0.6,0.3,0.9,0.5c0.3,0.2,1.1,0.2,1,0.7c-0.1,0.3-1.3,1.2-1.7,1.4c-0.5,0.3-1.1,0.3-1.7,0.6
		c-0.8,0.4-1.2,1.1-1.7,1.8c-0.4,0.5-1.4,1.3-1.2,2.1c0.2,0.6,2.1-0.9,2.2-1c0.8-0.4,1.5-1.2,1.7-2.1c0-0.2,0.4-0.5,0.5-0.7
		c0.2-0.3,0.5-0.5,0.7-0.8c0.4-0.5,1-0.9,1.7-1c0.6,0,1.3,0.1,1.8,0.4c1.4,0.5,2.9,0.9,4.4,1.2c0.7,0.1,1.5,0.3,2.2,0.4
		c0.2,0,0.8,0.2,1,0.1c0.2-0.2,0.2-0.4,0.2-0.6C267.5,26.5,267.3,26.5,267.1,26.5z"/>
	<path id="Path_2172" class="st0" d="M230,8.4c0.6-0.3,1.2-0.5,1.8-0.7c0.5-0.2,1.1-0.2,1.6-0.4c0.6-0.2,1.2-0.3,1.8-0.3
		c0.4,0,0.9,0,1.3-0.1c0.4-0.1,0.8-0.1,1.2-0.1c0.1,0,0.2,0,0.4,0c0.2,0,0.4-0.1,0.6-0.1c0.2,0,0.4,0,0.5-0.2c0-0.2-0.1-0.5-0.2-0.6
		c-0.2-0.1-0.7,0-1,0.1c-0.7,0.1-1.5,0.2-2.2,0.4c-1.5,0.3-2.9,0.7-4.4,1.2c-0.6,0.3-1.2,0.5-1.8,0.4c-0.6-0.1-1.2-0.5-1.7-1
		c-0.2-0.3-0.5-0.5-0.7-0.8c-0.6-0.7-0.7-1.3-1.6-1.8c-1-0.6-1.8-1.1-2.9-0.8c-0.6,0.1-1.1,0.1-0.7,0.8c0.3,0.4,0.6,0.7,1,0.9
		c0.6,0.5,1.3,0.8,2,1c0.5,0.1,1.1-0.2,1.7,0c0.5,0.2,0.8,0.7,1.1,1.1c0.2,0.2,0.5,0.4,0.8,0.6c0.9,0.6-0.3,0.7-0.7,1
		c-0.3,0.2-0.6,0.3-0.9,0.5c-0.4,0.2-0.9,0.4-1.3,0.6c-0.4,0.2-0.8,0.4-1.2,0.8c-0.4,0.4-0.8,0.6-1.3,0.7c-0.6,0.1-1.2,0-1.7-0.3
		c-0.4-0.2-0.7-0.5-0.9-0.9c-0.1-0.2-0.2-0.4-0.4-0.6c-0.5-0.6-0.1-1.7-0.7-2.4c-0.4-0.5-1.5-1.5-2.2-1.3c-0.9,0.2,0.4,2.1,0.6,2.5
		c0.2,0.5,0.5,0.9,0.9,1.1c0.6,0.2,1.2,0.6,1.6,1.1c0.4,0.4,0.9,0.8,1.4,0.9c0.3,0.1,0.5,0,0.8,0.2c-0.1,0.2-0.4,0.3-0.6,0.5
		c-0.2,0.1-0.3,0.3-0.5,0.4c-0.3,0.2-0.7,0.5-1,0.7c-0.2,0.2-0.5,0.3-0.8,0.4c-0.3,0-0.6,0-0.9,0c-0.4-0.1-0.8-0.3-1.2-0.4
		c-0.9-0.4-1.8-0.8-2.7-1.2c-0.5-0.2-1.1-0.4-1.6-0.4c-0.5,0-1.6,0.4-1.6,1.1c0.1,1.3,2.7,0.8,3.4,0.7c0.4-0.1,0.8-0.3,1.2-0.3
		c0.5,0,0.8,0.3,1.3,0.5c0.3,0.1,0.6,0.2,1,0.3c0.2,0.1,0.7,0.1,0.4,0.4c-0.1,0.1-0.3,0.1-0.5,0.2c-0.2,0.1-0.3,0.2-0.4,0.4
		c-0.2,0.2-0.4,0.3-0.7,0.4c-0.5,0.3-1.1,0.6-1.6,0.8c-0.4,0.2-0.9,0.4-1.4,0.6c-0.4,0.1-0.7,0-1.1-0.1c-0.4-0.1-0.8-0.3-1.2-0.4
		c-0.9-0.4-1.8-0.8-2.7-1.3c-0.6-0.3-1.7-0.9-2.3-0.6c-0.7,0.3-0.3,1.1,0.2,1.4c0.8,0.6,1.6,0.3,2.5,0.3c0.7,0,1.5,0.2,2.2,0.5
		c0.2,0.1,1,0.7,1.3,0.6c-0.2,0.1-0.4,0.1-0.5,0.1c-0.2,0-0.4,0.1-0.6,0.1c-0.2,0.1-0.5,0.1-0.7,0.2c-0.4,0.1-0.9,0.2-1.4,0.3
		c-1,0.2-2.1,0.3-3.1,0.3c-1,0-1.9-0.7-2.9-0.7c-0.6,0-2,0.4-2.1,1.1c-0.1,0.6,1.2,0.8,1.7,0.9c0.8,0.1,1.5,0,2.3-0.2
		c0.6-0.2,1.2-0.5,1.7-0.7c1-0.2,2-0.3,3-0.5c0.2,0,0.3-0.1,0.5-0.1c0.5,0,0.6-0.2,0.5,0.4c-0.2,0.5-0.5,0.9-0.8,1.2
		c-0.6,0.5-1.3,0.7-1.8,1.3c-0.3,0.4-0.9,1.5-0.2,1.9c0.4,0.2,1.2-0.1,1.5-0.3c1.7-1.2,0.7-3.6,2.3-4.7c0.2-0.1,0.4-0.2,0.7-0.2
		c0.3-0.1,0.5-0.1,0.7-0.3c0.1-0.1,0.3-0.1,0.5-0.1c0.2-0.1,0.5-0.2,0.7-0.3c0.3-0.1,0.5-0.2,0.8-0.4c0.4-0.2,0.7-0.4,1.1-0.6
		c0.2-0.1,0.4-0.2,0.6-0.2c0.3,0,0.1,0.3,0.1,0.5c-0.1,0.2-0.1,0.5-0.2,0.7c-0.1,0.5-0.1,1-0.3,1.5c-0.3,1-1.5,1.6-1.3,2.8
		c0,0,0,0,0,0c0.1,0.6,0.2,2.9,1.3,2.2c0.5-0.4,0.8-1,1-1.6c0.3-0.7,0.2-1.4-0.1-2.1c-0.3-0.7,0-1.3-0.1-2c-0.2-1.1,0.2-2.1,1-2.8
		c0.3-0.2,0.6-0.4,0.9-0.5c0.2-0.1,0.4-0.2,0.5-0.4c0.1-0.1,0.2-0.2,0.4-0.3c0.3-0.3,0.6-0.4,0.9-0.6c0.2-0.1,0.4-0.2,0.5-0.4
		c0.1-0.1,0.3-0.2,0.4-0.3c0.4-0.3,0.8-0.6,1.3-0.8c0.4-0.2,0.7-0.5,1.1-0.7c0.3-0.2,0.7-0.2,0.9-0.5c0.2-0.2,0.6-0.5,0.6-0.1
		c0,0.2-0.1,0.5-0.2,0.6c-0.2,0.4-0.3,0.8-0.5,1.2c-0.1,0.5-0.2,1-0.4,1.4c-0.2,0.4-0.5,0.7-0.8,0.9c-0.5,0.6-0.7,1.4-0.7,2.2
		c0,0.3-0.1,1.9,0.3,2c0.9,0.3,2.2-2.6,2.1-3.2c-0.1-0.6-0.6-1-0.6-1.6c0.1-0.6,0.2-1.2,0.5-1.7c0.2-0.5,0.4-1,0.6-1.4
		c0.1-0.2,0.3-0.5,0.4-0.7c0.3-0.3,0.7-0.5,1.1-0.7c0.2-0.1,0.5-0.3,0.7-0.4C229.3,8.7,229.7,8.5,230,8.4z"/>
	<path id="Path_2173" class="st0" d="M211.4,26.5c-0.2,0-0.4,0-0.6-0.1c-0.1,0-0.2,0-0.4,0c-0.4,0-0.8-0.1-1.2-0.1
		c-0.4-0.1-0.9-0.1-1.3-0.1c-0.6,0-1.2-0.2-1.8-0.3c-0.5-0.2-1.1-0.2-1.6-0.4c-0.6-0.2-1.2-0.4-1.8-0.7c-0.3-0.1-0.6-0.3-1-0.4
		c-0.2-0.1-0.5-0.3-0.7-0.4c-0.4-0.2-0.8-0.4-1.1-0.7c-0.2-0.2-0.3-0.4-0.4-0.7c-0.2-0.5-0.4-0.9-0.6-1.4c-0.2-0.5-0.4-1.1-0.5-1.7
		c0-0.5,0.3-0.9,0.3-1.4c0-0.9-0.4-4.6-2-4.3c-0.6,0.1-0.6,1.9-0.7,2.4c-0.1,1.4,1.5,2.3,2,3.4c0.3,0.9,0.5,1.8,0.9,2.6
		c0.1,0.2,0.3,0.4,0.2,0.6c-0.1,0.4-0.5,0.1-0.6-0.1c-0.3-0.3-0.6-0.3-0.9-0.5c-0.4-0.2-0.7-0.5-1.1-0.7c-0.4-0.3-0.8-0.6-1.3-0.8
		c-0.1-0.1-0.3-0.2-0.4-0.3c-0.2-0.1-0.4-0.2-0.5-0.4c-0.3-0.2-0.6-0.4-0.9-0.6c-0.1-0.1-0.2-0.2-0.4-0.3c-0.2-0.1-0.3-0.3-0.5-0.4
		c-0.3-0.1-0.7-0.3-0.9-0.5c-0.2-0.2-0.5-0.4-0.6-0.6c-0.1-0.2-0.1-0.4-0.2-0.6c-0.1-0.3-0.2-0.7-0.3-1.1c-0.2-0.8-0.3-1.6-0.3-2.5
		c0.2-0.6,0.3-1.2,0.3-1.8c0-0.6,0.1-3.1-1-2.9c-0.8,0.2-0.9,1.4-0.9,2c0,0.4,0.1,0.7,0.3,1c0.3,0.6,0.6,1.2,0.8,1.8
		c0.2,0.8,0.2,1.8,0.4,2.7c0.1,0.2,0.1,0.5,0.2,0.7c0.1,0.2,0.2,0.5-0.1,0.5c-0.2,0-0.4-0.1-0.6-0.2c-0.4-0.2-0.7-0.4-1.1-0.6
		c-0.3-0.1-0.5-0.2-0.8-0.4c-0.2-0.1-0.4-0.2-0.7-0.3c-0.2,0-0.3,0-0.5-0.1c-0.2-0.1-0.5-0.2-0.7-0.3c-0.2,0-0.5-0.1-0.7-0.2
		c-0.2-0.2-0.5-0.4-0.6-0.6c-0.2-0.4-0.5-0.7-0.7-1c-0.1-0.1-0.2-0.2-0.3-0.4c-0.5-0.8-0.6-1.8-1.1-2.6c-0.3-0.5-2.4-2.7-2.7-1.4
		c-0.3,1.1,1.3,2.8,2.2,3.2c0.3,0.1,0.6,0.2,0.8,0.4c0.2,0.2,0.5,0.5,0.6,0.8c0.2,0.2,0.4,0.5,0.5,0.7c0.1,0.1,0.2,0.3,0.2,0.4
		c0,0.1,0,0.1,0.1,0.2c0,0.1,0.1,0.1,0,0.2c-0.1,0.1-0.4,0-0.6,0c-0.2,0-0.3-0.1-0.5-0.1c-0.4-0.1-0.8-0.1-1.3-0.2
		c-0.7-0.1-1.4-0.1-2.1-0.1c-0.6,0-1.1,0-1.7,0c-0.2,0-0.4,0-0.5-0.1c-0.6-0.3-1.1-0.7-1.8-0.7c-0.5,0-1,0.1-1.5,0.1
		c-0.5,0.1-2.1,0.5-1.9,1.2c0,0.3,0.5,0.5,0.8,0.6c0.7,0.2,1.4,0.2,2,0c0.6-0.2,1.2-0.1,1.8-0.2c0.7-0.2,1.3-0.4,2-0.5
		c1.2,0,2.4,0,3.5,0.2c0.5,0.1,0.9,0.2,1.4,0.3c0.2,0.1,0.5,0.1,0.7,0.2c0.2,0,0.4,0.1,0.6,0.1c0.2,0,0.4,0.1,0.5,0.1
		c0,0-0.3,0.2-0.3,0.2c-0.2,0.1-0.3,0.2-0.5,0.2c-0.3,0.1-0.6,0.2-0.9,0.4c-0.7,0.4-1.5,0.6-2.2,0.8c-1.4,0.2-2.7,0.5-3.3,1.9
		c-0.3,0.6-0.5,1.5,0.5,1.4c0.5-0.1,1-0.3,1.4-0.7c0.5-0.3,1-0.6,1.4-1c0.3-0.4,0.7-0.8,0.9-1.2c0.6-0.5,1.2-0.9,2-1.2
		c0.4-0.2,0.8-0.3,1.2-0.4c0.4-0.1,0.7-0.1,1.1-0.1c0.5,0.1,0.9,0.3,1.4,0.6c0.6,0.3,1.1,0.5,1.6,0.8c0.2,0.1,0.5,0.3,0.7,0.4
		c0.1,0.1,0.3,0.3,0.4,0.4c0.1,0.1,0.3,0.1,0.5,0.2c0.3,0.3-0.2,0.3-0.4,0.4c-0.3,0.1-0.6,0.2-1,0.3c-0.3,0.2-0.5,0.3-0.8,0.4
		c-0.5,0.1-1-0.1-1.5,0.1c-1,0.3-1.9,0.3-2.6,1.1c-0.4,0.4-1.3,1.4-1.3,2c0,1.1,2-0.2,2.4-0.4c0.6-0.2,1.2-0.6,1.7-1
		c0.3-0.5,0.7-0.9,1.1-1.3c0.7-0.4,1.5-0.7,2.4-0.9c0.3-0.1,0.6-0.1,0.9,0c0.3,0,0.5,0.2,0.8,0.4c0.3,0.2,0.7,0.4,1,0.7
		c0.2,0.1,0.4,0.2,0.5,0.4c0.1,0.1,0.5,0.3,0.6,0.5c-0.3,0.2-0.5,0.1-0.8,0.2c-0.5,0.2-1,0.5-1.4,0.9c-0.4,0.5-0.6,1.1-1.2,1.4
		c-0.8,0.4-1.5,0.3-1.9,1.2c-0.4,0.9-0.6,1.8-0.6,2.7c0.1,1.4,1.4,0.1,1.8-0.4c0.5-0.6,0.9-1.3,1.3-2c0.4-0.7-0.2-1.3,0.3-1.9
		c0.2-0.2,0.3-0.4,0.4-0.6c0.3-0.3,0.6-0.6,0.9-0.9c0.5-0.3,1.1-0.4,1.7-0.3c0.5,0.1,1,0.3,1.3,0.7c0.3,0.3,0.7,0.6,1.2,0.8
		c0.4,0.2,0.8,0.4,1.3,0.6c0.3,0.1,0.6,0.3,0.9,0.5c0.3,0.2,1.1,0.2,1,0.7c-0.1,0.3-1.3,1.2-1.7,1.4c-0.5,0.3-1.1,0.3-1.7,0.6
		c-0.8,0.4-1.2,1.1-1.7,1.8c-0.4,0.5-1.4,1.3-1.2,2.1c0.2,0.6,2.1-0.9,2.2-1c0.8-0.4,1.5-1.2,1.7-2.1c0-0.2,0.4-0.5,0.5-0.7
		c0.2-0.3,0.5-0.5,0.7-0.8c0.4-0.5,1-0.9,1.7-1c0.6,0,1.3,0.1,1.8,0.4c1.4,0.5,2.9,0.9,4.4,1.2c0.7,0.1,1.5,0.3,2.2,0.4
		c0.2,0,0.8,0.2,1,0.1c0.2-0.2,0.2-0.4,0.2-0.6C211.8,26.5,211.6,26.5,211.4,26.5z"/>
	<path id="Path_2174" class="st0" d="M174.3,8.4c0.6-0.3,1.2-0.5,1.8-0.7c0.5-0.2,1.1-0.2,1.6-0.4c0.6-0.2,1.2-0.3,1.8-0.3
		c0.4,0,0.9,0,1.3-0.1c0.4-0.1,0.8-0.1,1.2-0.1c0.1,0,0.2,0,0.4,0c0.2,0,0.4-0.1,0.6-0.1c0.2,0,0.4,0,0.5-0.2c0-0.2-0.1-0.5-0.2-0.6
		c-0.2-0.1-0.7,0-1,0.1c-0.7,0.1-1.5,0.2-2.2,0.4c-1.5,0.3-2.9,0.7-4.4,1.2c-0.6,0.3-1.2,0.5-1.8,0.4c-0.6-0.1-1.2-0.5-1.7-1
		c-0.2-0.3-0.5-0.5-0.7-0.8c-0.6-0.7-0.7-1.3-1.6-1.8c-1-0.6-1.8-1.1-2.9-0.8c-0.6,0.1-1.1,0.1-0.7,0.8c0.3,0.4,0.6,0.7,1,0.9
		c0.6,0.5,1.3,0.8,2,1c0.5,0.1,1.1-0.2,1.7,0c0.5,0.2,0.8,0.7,1.1,1.1c0.2,0.2,0.5,0.4,0.8,0.6c0.9,0.6-0.3,0.7-0.7,1
		c-0.3,0.2-0.6,0.3-0.9,0.5c-0.4,0.2-0.9,0.4-1.3,0.6c-0.4,0.2-0.8,0.4-1.2,0.8c-0.4,0.4-0.8,0.6-1.3,0.7c-0.6,0.1-1.2,0-1.7-0.3
		c-0.4-0.2-0.7-0.5-0.9-0.9c-0.1-0.2-0.2-0.4-0.4-0.6c-0.5-0.6-0.1-1.7-0.7-2.4c-0.4-0.5-1.5-1.5-2.2-1.3c-0.9,0.2,0.4,2.1,0.6,2.5
		c0.2,0.5,0.5,0.9,0.9,1.1c0.6,0.2,1.2,0.6,1.6,1.1c0.4,0.4,0.9,0.8,1.4,0.9c0.3,0.1,0.5,0,0.8,0.2c-0.1,0.2-0.4,0.3-0.6,0.5
		c-0.2,0.1-0.3,0.3-0.5,0.4c-0.3,0.2-0.7,0.5-1,0.7c-0.2,0.2-0.5,0.3-0.8,0.4c-0.3,0-0.6,0-0.9,0c-0.4-0.1-0.8-0.2-1.2-0.4
		c-0.9-0.4-1.8-0.8-2.7-1.2c-0.5-0.2-1.1-0.4-1.6-0.4c-0.5,0-1.6,0.4-1.6,1.1c0.1,1.3,2.7,0.8,3.4,0.7c0.4-0.1,0.8-0.3,1.2-0.3
		c0.5,0,0.8,0.3,1.3,0.5c0.3,0.1,0.6,0.2,1,0.3c0.2,0.1,0.7,0.1,0.4,0.4c-0.1,0.1-0.3,0.1-0.5,0.2c-0.2,0.1-0.3,0.2-0.4,0.4
		c-0.2,0.2-0.4,0.3-0.7,0.4c-0.5,0.3-1.1,0.6-1.6,0.8c-0.4,0.2-0.9,0.4-1.4,0.6c-0.4,0.1-0.7,0-1.1-0.1c-0.4-0.1-0.8-0.3-1.2-0.4
		c-0.9-0.4-1.8-0.8-2.7-1.3c-0.6-0.3-1.7-0.9-2.3-0.6c-0.7,0.3-0.3,1.1,0.2,1.4c0.8,0.6,1.6,0.3,2.5,0.3c0.7,0,1.5,0.2,2.2,0.5
		c0.2,0.1,1,0.7,1.3,0.6c-0.2,0.1-0.4,0.1-0.5,0.1c-0.2,0-0.4,0.1-0.6,0.1c-0.2,0.1-0.5,0.1-0.7,0.2c-0.4,0.1-0.9,0.2-1.4,0.3
		c-1,0.2-2.1,0.3-3.1,0.3c-1,0-1.9-0.7-2.9-0.7c-0.6,0-2,0.4-2.1,1.1c-0.1,0.6,1.2,0.8,1.7,0.9c0.8,0.1,1.5,0,2.3-0.2
		c0.6-0.2,1.2-0.5,1.7-0.7c1-0.2,2-0.3,3-0.5c0.2,0,0.3-0.1,0.5-0.1c0.5,0,0.6-0.2,0.5,0.4c-0.2,0.5-0.5,0.9-0.8,1.2
		c-0.6,0.5-1.3,0.7-1.8,1.3c-0.3,0.4-0.9,1.5-0.2,1.9c0.4,0.2,1.2-0.1,1.5-0.3c1.7-1.2,0.7-3.6,2.3-4.7c0.2-0.1,0.4-0.2,0.7-0.2
		c0.3-0.1,0.5-0.1,0.7-0.3c0.1-0.1,0.3-0.1,0.5-0.1c0.2-0.1,0.5-0.2,0.7-0.3c0.3-0.1,0.5-0.2,0.8-0.4c0.4-0.2,0.7-0.4,1.1-0.6
		c0.2-0.1,0.4-0.2,0.6-0.2c0.3,0,0.1,0.3,0.1,0.5c-0.1,0.2-0.1,0.5-0.2,0.7c-0.1,0.5-0.1,1-0.3,1.5c-0.3,1-1.5,1.6-1.3,2.8l0,0
		c0.1,0.6,0.2,2.9,1.3,2.2c0.5-0.4,0.8-1,1-1.6c0.3-0.7,0.2-1.4-0.1-2.1c-0.3-0.7,0-1.3-0.1-2c-0.2-1.1,0.2-2.1,1-2.8
		c0.3-0.2,0.6-0.4,0.9-0.5c0.2-0.1,0.4-0.2,0.5-0.4c0.1-0.1,0.2-0.2,0.4-0.3c0.3-0.3,0.6-0.4,0.9-0.6c0.2-0.1,0.4-0.2,0.5-0.4
		c0.1-0.1,0.3-0.2,0.4-0.3c0.4-0.3,0.8-0.6,1.3-0.8c0.4-0.2,0.7-0.5,1.1-0.7c0.3-0.2,0.7-0.2,0.9-0.5c0.2-0.2,0.5-0.5,0.6-0.1
		c0,0.2-0.1,0.5-0.2,0.6c-0.2,0.4-0.3,0.8-0.5,1.2c-0.1,0.5-0.2,1-0.4,1.4c-0.2,0.4-0.5,0.7-0.8,0.9c-0.5,0.6-0.7,1.4-0.7,2.2
		c0,0.3-0.1,1.9,0.3,2c0.9,0.3,2.2-2.6,2.1-3.2s-0.6-1-0.6-1.6c0.1-0.6,0.2-1.2,0.5-1.7c0.2-0.5,0.4-1,0.6-1.4
		c0.1-0.2,0.3-0.5,0.4-0.7c0.3-0.3,0.7-0.5,1.1-0.7c0.2-0.1,0.5-0.3,0.7-0.4C173.6,8.7,173.9,8.5,174.3,8.4z"/>
	<path id="Path_2175" class="st0" d="M155.7,26.5c-0.2,0-0.4,0-0.6-0.1c-0.1,0-0.2,0-0.4,0c-0.4,0-0.8-0.1-1.2-0.1
		c-0.4-0.1-0.9-0.1-1.3-0.1c-0.6,0-1.2-0.2-1.8-0.3c-0.5-0.2-1.1-0.2-1.6-0.4c-0.6-0.2-1.2-0.4-1.8-0.7c-0.3-0.1-0.6-0.3-1-0.4
		c-0.2-0.1-0.5-0.3-0.7-0.4c-0.4-0.2-0.8-0.4-1.1-0.7c-0.2-0.2-0.3-0.4-0.4-0.7c-0.2-0.5-0.4-0.9-0.6-1.4c-0.2-0.5-0.4-1.1-0.5-1.7
		c0-0.5,0.3-0.9,0.3-1.4c0-0.9-0.4-4.6-2-4.3c-0.6,0.1-0.6,1.9-0.7,2.4c-0.1,1.4,1.5,2.3,2,3.4c0.3,0.9,0.5,1.8,0.9,2.6
		c0.1,0.2,0.3,0.4,0.2,0.6c-0.1,0.4-0.5,0.1-0.6-0.1c-0.3-0.3-0.6-0.3-0.9-0.5c-0.4-0.2-0.7-0.5-1.1-0.7c-0.4-0.3-0.8-0.6-1.3-0.8
		c-0.1-0.1-0.3-0.2-0.4-0.3c-0.2-0.1-0.4-0.2-0.5-0.4c-0.3-0.2-0.6-0.4-0.9-0.6c-0.1-0.1-0.2-0.2-0.4-0.3c-0.2-0.1-0.3-0.3-0.5-0.4
		c-0.3-0.1-0.7-0.3-0.9-0.5c-0.2-0.2-0.5-0.4-0.6-0.6c-0.1-0.2-0.1-0.4-0.2-0.6c-0.1-0.3-0.2-0.7-0.3-1.1c-0.2-0.8-0.3-1.6-0.3-2.5
		c0.2-0.6,0.3-1.2,0.3-1.8c0-0.6,0.1-3.1-1-2.9c-0.8,0.2-0.9,1.4-0.9,2c0,0.4,0.1,0.7,0.3,1c0.3,0.6,0.6,1.2,0.8,1.8
		c0.2,0.8,0.2,1.8,0.4,2.7c0.1,0.2,0.1,0.5,0.2,0.7s0.2,0.5-0.1,0.5c-0.2,0-0.4-0.1-0.6-0.2c-0.4-0.2-0.7-0.4-1.1-0.6
		c-0.3-0.1-0.5-0.2-0.8-0.4c-0.2-0.1-0.4-0.2-0.7-0.3c-0.2,0-0.3,0-0.5-0.1c-0.2-0.1-0.5-0.2-0.7-0.3c-0.2,0-0.5-0.1-0.7-0.2
		c-0.2-0.2-0.5-0.4-0.6-0.6c-0.2-0.4-0.5-0.7-0.7-1c-0.1-0.1-0.2-0.2-0.3-0.4c-0.5-0.8-0.6-1.8-1.1-2.6c-0.3-0.5-2.4-2.7-2.7-1.4
		c-0.3,1.1,1.3,2.8,2.2,3.2c0.3,0.1,0.6,0.2,0.8,0.4c0.2,0.2,0.5,0.5,0.6,0.8c0.2,0.2,0.4,0.5,0.5,0.7c0.1,0.1,0.2,0.3,0.2,0.4
		c0,0.1,0,0.1,0.1,0.2c0,0.1,0.1,0.1,0,0.2c-0.1,0.1-0.4,0-0.6,0c-0.2,0-0.3-0.1-0.5-0.1c-0.4-0.1-0.8-0.1-1.3-0.2
		c-0.7-0.1-1.4-0.1-2.1-0.1c-0.6,0-1.1,0-1.7,0c-0.2,0-0.4,0-0.5-0.1c-0.6-0.3-1.1-0.7-1.8-0.7c-0.5,0-1,0.1-1.5,0.1
		c-0.5,0.1-2.1,0.5-1.9,1.2c0,0.3,0.5,0.5,0.8,0.6c0.7,0.2,1.4,0.2,2,0c0.6-0.2,1.2-0.1,1.8-0.2c0.7-0.2,1.3-0.4,2-0.5
		c1.2,0,2.4,0,3.5,0.2c0.5,0.1,0.9,0.2,1.4,0.3c0.2,0.1,0.5,0.1,0.7,0.2c0.2,0,0.4,0.1,0.6,0.1c0.2,0,0.4,0.1,0.5,0.1
		c0,0-0.3,0.2-0.3,0.2c-0.2,0.1-0.3,0.2-0.5,0.2c-0.3,0.1-0.6,0.2-0.9,0.4c-0.7,0.4-1.5,0.6-2.2,0.8c-1.4,0.2-2.7,0.5-3.3,1.9
		c-0.3,0.6-0.5,1.5,0.5,1.4c0.5-0.1,1-0.3,1.4-0.7c0.5-0.3,1-0.6,1.4-1c0.3-0.4,0.7-0.8,0.9-1.2c0.6-0.5,1.2-0.9,2-1.2
		c0.4-0.2,0.8-0.3,1.2-0.4c0.4-0.1,0.7-0.1,1.1-0.1c0.5,0.1,0.9,0.3,1.4,0.6c0.5,0.3,1.1,0.5,1.6,0.8c0.2,0.1,0.5,0.3,0.7,0.4
		c0.1,0.1,0.3,0.3,0.4,0.4c0.1,0.1,0.3,0.1,0.5,0.2c0.3,0.3-0.2,0.3-0.4,0.4c-0.3,0.1-0.6,0.2-1,0.3c-0.3,0.2-0.5,0.3-0.8,0.4
		c-0.5,0.1-1-0.1-1.5,0.1c-1,0.3-1.9,0.3-2.6,1.1c-0.4,0.4-1.3,1.4-1.3,2c0,1.1,2-0.2,2.4-0.4c0.6-0.2,1.2-0.6,1.7-1
		c0.3-0.5,0.7-0.9,1.1-1.3c0.7-0.4,1.5-0.7,2.4-0.9c0.3-0.1,0.6-0.1,0.9,0c0.3,0,0.5,0.2,0.8,0.4c0.3,0.2,0.7,0.4,1,0.7
		c0.2,0.1,0.4,0.2,0.5,0.4c0.1,0.1,0.5,0.3,0.6,0.5c-0.3,0.2-0.5,0.1-0.8,0.2c-0.5,0.2-1,0.5-1.4,0.9c-0.4,0.5-0.6,1.1-1.2,1.4
		c-0.8,0.4-1.5,0.3-1.9,1.2c-0.4,0.9-0.6,1.8-0.6,2.7c0.1,1.4,1.4,0.1,1.8-0.4c0.5-0.6,0.9-1.3,1.3-2c0.4-0.7-0.2-1.3,0.3-1.9
		c0.2-0.2,0.3-0.4,0.4-0.6c0.3-0.3,0.6-0.6,0.9-0.9c0.5-0.3,1.1-0.4,1.7-0.3c0.5,0.1,1,0.3,1.3,0.7c0.3,0.3,0.7,0.6,1.2,0.8
		c0.4,0.2,0.8,0.4,1.3,0.6c0.3,0.1,0.6,0.3,0.9,0.5c0.3,0.2,1.1,0.2,1,0.7c-0.1,0.3-1.3,1.2-1.7,1.4c-0.5,0.3-1.1,0.3-1.7,0.6
		c-0.8,0.4-1.2,1.1-1.7,1.8c-0.4,0.5-1.4,1.3-1.2,2.1c0.2,0.6,2.1-0.9,2.2-1c0.8-0.4,1.5-1.2,1.7-2.1c0-0.2,0.4-0.5,0.5-0.7
		c0.2-0.3,0.5-0.5,0.7-0.8c0.4-0.5,1-0.9,1.7-1c0.6,0,1.3,0.1,1.8,0.4c1.4,0.5,2.9,0.9,4.4,1.2c0.7,0.1,1.5,0.3,2.2,0.4
		c0.2,0,0.8,0.2,1,0.1c0.2-0.2,0.2-0.4,0.2-0.6C156.1,26.5,155.9,26.5,155.7,26.5z"/>
	<path id="Path_2176" class="st0" d="M118.6,8.4c0.6-0.3,1.2-0.5,1.8-0.7c0.5-0.2,1.1-0.2,1.6-0.4c0.6-0.2,1.2-0.3,1.8-0.3
		c0.4,0,0.9,0,1.3-0.1c0.4-0.1,0.8-0.1,1.2-0.1c0.1,0,0.2,0,0.4,0c0.2,0,0.4-0.1,0.6-0.1c0.2,0,0.4,0,0.5-0.2c0-0.2-0.1-0.5-0.2-0.6
		c-0.2-0.1-0.7,0-1,0.1c-0.7,0.1-1.5,0.2-2.2,0.4c-1.5,0.3-2.9,0.7-4.4,1.2c-0.6,0.3-1.2,0.5-1.8,0.4c-0.6-0.1-1.2-0.5-1.7-1
		c-0.2-0.3-0.5-0.5-0.7-0.8c-0.6-0.7-0.7-1.3-1.6-1.8c-1-0.6-1.8-1.1-2.9-0.8c-0.6,0.1-1.1,0.1-0.7,0.8c0.3,0.4,0.6,0.7,1,0.9
		c0.6,0.5,1.3,0.8,2,1c0.5,0.1,1.1-0.2,1.7,0c0.5,0.2,0.8,0.7,1.1,1.1c0.2,0.2,0.5,0.4,0.8,0.6c0.9,0.6-0.3,0.7-0.7,1
		c-0.3,0.2-0.6,0.3-0.9,0.5c-0.4,0.2-0.9,0.4-1.3,0.6c-0.4,0.2-0.8,0.4-1.2,0.8c-0.4,0.4-0.8,0.6-1.3,0.7c-0.6,0.1-1.2,0-1.7-0.3
		c-0.4-0.2-0.7-0.5-0.9-0.9c-0.1-0.2-0.2-0.4-0.4-0.6c-0.5-0.6-0.1-1.7-0.7-2.4c-0.4-0.5-1.5-1.5-2.2-1.3c-0.9,0.2,0.4,2.1,0.6,2.5
		c0.2,0.5,0.5,0.9,0.9,1.1c0.6,0.2,1.2,0.6,1.6,1.1c0.4,0.4,0.9,0.8,1.4,0.9c0.3,0.1,0.5,0,0.8,0.2c-0.1,0.2-0.4,0.3-0.6,0.5
		c-0.2,0.1-0.3,0.3-0.5,0.4c-0.3,0.2-0.7,0.5-1,0.7c-0.2,0.2-0.5,0.3-0.8,0.4c-0.3,0-0.6,0-0.9,0c-0.4-0.1-0.8-0.3-1.2-0.4
		c-0.9-0.4-1.8-0.8-2.7-1.2c-0.5-0.2-1.1-0.4-1.6-0.4c-0.5,0-1.6,0.4-1.6,1.1c0.1,1.3,2.7,0.8,3.4,0.7c0.4-0.1,0.8-0.3,1.2-0.3
		c0.5,0,0.8,0.3,1.3,0.5c0.3,0.1,0.6,0.2,1,0.3c0.2,0.1,0.7,0.1,0.4,0.4c-0.1,0.1-0.3,0.1-0.5,0.2c-0.2,0.1-0.3,0.2-0.4,0.4
		c-0.2,0.2-0.4,0.3-0.7,0.4c-0.5,0.3-1.1,0.6-1.6,0.8c-0.4,0.2-0.9,0.4-1.4,0.6c-0.4,0.1-0.7,0-1.1-0.1c-0.4-0.1-0.8-0.3-1.2-0.4
		c-0.9-0.4-1.8-0.8-2.7-1.3c-0.6-0.3-1.7-0.9-2.3-0.6c-0.7,0.3-0.3,1.1,0.2,1.4c0.8,0.6,1.6,0.3,2.5,0.3c0.7,0,1.5,0.2,2.2,0.5
		c0.2,0.1,1,0.7,1.3,0.6c-0.2,0.1-0.4,0.1-0.5,0.1c-0.2,0-0.4,0.1-0.6,0.1c-0.2,0.1-0.5,0.1-0.7,0.2c-0.4,0.1-0.9,0.2-1.4,0.3
		c-1,0.2-2.1,0.3-3.1,0.3c-1,0-1.9-0.7-2.9-0.7c-0.6,0-2,0.4-2.1,1.1c-0.1,0.6,1.2,0.8,1.7,0.9c0.8,0.1,1.5,0,2.3-0.2
		c0.6-0.2,1.2-0.5,1.7-0.7c1-0.2,2-0.3,3-0.5c0.2,0,0.3-0.1,0.5-0.1c0.5,0,0.6-0.2,0.5,0.4c-0.2,0.5-0.5,0.9-0.8,1.2
		c-0.6,0.5-1.3,0.7-1.8,1.3c-0.3,0.4-0.9,1.5-0.2,1.9c0.4,0.2,1.2-0.1,1.5-0.3c1.7-1.2,0.7-3.6,2.3-4.7c0.2-0.1,0.4-0.2,0.7-0.2
		c0.3-0.1,0.5-0.1,0.7-0.3c0.1-0.1,0.3-0.1,0.5-0.1c0.2-0.1,0.5-0.2,0.7-0.3c0.3-0.1,0.5-0.2,0.8-0.4c0.4-0.2,0.7-0.4,1.1-0.6
		c0.2-0.1,0.4-0.2,0.6-0.2c0.3,0,0.1,0.3,0.1,0.5c-0.1,0.2-0.1,0.5-0.2,0.7c-0.1,0.5-0.1,1-0.3,1.5c-0.3,1-1.5,1.6-1.3,2.8l0,0
		c0.1,0.6,0.2,2.9,1.3,2.2c0.5-0.4,0.8-1,1-1.6c0.3-0.7,0.2-1.4-0.1-2.1c-0.3-0.7,0-1.3-0.1-2c-0.2-1.1,0.2-2.1,1-2.8
		c0.3-0.2,0.6-0.4,0.9-0.5c0.2-0.1,0.4-0.2,0.5-0.4c0.1-0.1,0.2-0.2,0.4-0.3c0.3-0.3,0.6-0.4,0.9-0.6c0.2-0.1,0.4-0.2,0.5-0.4
		c0.1-0.1,0.3-0.2,0.4-0.3c0.4-0.3,0.8-0.6,1.3-0.8c0.4-0.2,0.7-0.5,1.1-0.7c0.3-0.2,0.7-0.2,0.9-0.5c0.2-0.2,0.6-0.5,0.6-0.1
		c0,0.2-0.1,0.5-0.2,0.6c-0.2,0.4-0.3,0.8-0.5,1.2c-0.1,0.5-0.2,1-0.4,1.4c-0.2,0.4-0.5,0.7-0.8,0.9c-0.5,0.6-0.7,1.4-0.7,2.2
		c0,0.3-0.1,1.9,0.3,2c0.9,0.3,2.2-2.6,2.1-3.2s-0.6-1-0.6-1.6c0.1-0.6,0.2-1.2,0.5-1.7c0.2-0.5,0.4-1,0.6-1.4
		c0.1-0.2,0.3-0.5,0.4-0.7c0.3-0.3,0.7-0.5,1.1-0.7c0.2-0.1,0.5-0.3,0.7-0.4C117.9,8.7,118.2,8.5,118.6,8.4z"/>
	<path id="Path_2177" class="st0" d="M100,26.5c-0.2,0-0.4,0-0.6-0.1c-0.1,0-0.2,0-0.4,0c-0.4,0-0.8-0.1-1.2-0.1
		c-0.4-0.1-0.9-0.1-1.3-0.1c-0.6,0-1.2-0.2-1.8-0.3c-0.5-0.2-1.1-0.2-1.6-0.4c-0.6-0.2-1.2-0.4-1.8-0.7c-0.3-0.1-0.6-0.3-1-0.4
		c-0.2-0.1-0.5-0.3-0.7-0.4c-0.4-0.2-0.8-0.4-1.1-0.7c-0.2-0.2-0.3-0.4-0.4-0.7c-0.2-0.5-0.4-0.9-0.6-1.4c-0.2-0.5-0.4-1.1-0.5-1.7
		c0-0.5,0.3-0.9,0.3-1.4c0-0.9-0.4-4.6-2-4.3c-0.6,0.1-0.6,1.9-0.7,2.4c-0.1,1.4,1.5,2.3,2,3.4c0.3,0.9,0.5,1.8,0.9,2.6
		c0.1,0.2,0.3,0.4,0.2,0.6c-0.1,0.4-0.5,0.1-0.6-0.1c-0.3-0.3-0.6-0.3-0.9-0.5c-0.4-0.2-0.7-0.5-1.1-0.7c-0.4-0.3-0.8-0.6-1.3-0.8
		c-0.1-0.1-0.3-0.2-0.4-0.3c-0.2-0.1-0.4-0.2-0.5-0.4c-0.3-0.2-0.6-0.4-0.9-0.6c-0.1-0.1-0.2-0.2-0.4-0.3c-0.2-0.1-0.3-0.3-0.5-0.4
		c-0.3-0.1-0.7-0.3-0.9-0.5c-0.2-0.2-0.5-0.4-0.6-0.6c-0.1-0.2-0.1-0.4-0.2-0.6c-0.1-0.3-0.2-0.7-0.3-1.1c-0.2-0.8-0.3-1.6-0.3-2.5
		c0.2-0.6,0.3-1.2,0.3-1.8c0-0.6,0.1-3.1-1-2.9c-0.8,0.2-0.9,1.4-0.9,2c0,0.4,0.1,0.7,0.3,1c0.3,0.6,0.6,1.2,0.8,1.8
		c0.2,0.8,0.2,1.8,0.4,2.7c0.1,0.2,0.1,0.5,0.2,0.7c0.1,0.2,0.2,0.5-0.1,0.5c-0.2,0-0.4-0.1-0.6-0.2c-0.4-0.2-0.7-0.4-1.1-0.6
		c-0.3-0.1-0.5-0.2-0.8-0.4c-0.2-0.1-0.4-0.2-0.7-0.3c-0.2,0-0.3,0-0.5-0.1c-0.2-0.1-0.5-0.2-0.7-0.3c-0.2,0-0.5-0.1-0.7-0.2
		c-0.2-0.2-0.5-0.4-0.6-0.6c-0.2-0.4-0.5-0.7-0.7-1c-0.1-0.1-0.2-0.2-0.3-0.4c-0.5-0.8-0.6-1.8-1.1-2.6C71,10.3,68.9,8,68.6,9.3
		c-0.3,1.1,1.3,2.8,2.2,3.2c0.3,0.1,0.6,0.2,0.8,0.4c0.2,0.2,0.5,0.5,0.6,0.8c0.2,0.2,0.4,0.5,0.5,0.7c0.1,0.1,0.2,0.3,0.2,0.4
		c0,0.1,0,0.1,0.1,0.2c0,0.1,0.1,0.1,0,0.2c-0.1,0.1-0.4,0-0.6,0c-0.2,0-0.3-0.1-0.5-0.1c-0.4-0.1-0.8-0.1-1.3-0.2
		c-0.7-0.1-1.4-0.1-2.1-0.1c-0.6,0-1.1,0-1.7,0c-0.2,0-0.4,0-0.5-0.1c-0.6-0.3-1.1-0.7-1.8-0.7c-0.5,0-1,0.1-1.5,0.1
		c-0.5,0.1-2.1,0.5-1.9,1.2c0,0.3,0.5,0.5,0.8,0.6c0.7,0.2,1.4,0.2,2,0c0.6-0.2,1.2-0.1,1.8-0.2c0.7-0.2,1.3-0.4,2-0.5
		c1.2,0,2.4,0,3.5,0.2c0.5,0.1,0.9,0.2,1.4,0.3c0.2,0.1,0.5,0.1,0.7,0.2c0.2,0,0.4,0.1,0.6,0.1c0.2,0,0.4,0.1,0.5,0.1
		c0,0-0.3,0.2-0.3,0.2c-0.2,0.1-0.3,0.2-0.5,0.2c-0.3,0.1-0.6,0.2-0.9,0.4c-0.7,0.4-1.5,0.6-2.2,0.8c-1.4,0.2-2.7,0.5-3.3,1.9
		c-0.3,0.6-0.5,1.5,0.5,1.4c0.5-0.1,1-0.3,1.4-0.7c0.5-0.3,1-0.6,1.4-1c0.3-0.4,0.7-0.8,0.9-1.2c0.6-0.5,1.2-0.9,2-1.2
		c0.4-0.2,0.8-0.3,1.2-0.4c0.4-0.1,0.7-0.1,1.1-0.1c0.5,0.1,0.9,0.3,1.4,0.6c0.5,0.3,1.1,0.5,1.6,0.8c0.2,0.1,0.5,0.3,0.7,0.4
		c0.1,0.1,0.3,0.3,0.4,0.4c0.1,0.1,0.3,0.1,0.5,0.2c0.3,0.3-0.2,0.3-0.4,0.4c-0.3,0.1-0.6,0.2-1,0.3c-0.3,0.2-0.5,0.3-0.8,0.4
		c-0.5,0.1-1-0.1-1.5,0.1c-1,0.3-1.9,0.3-2.6,1.1c-0.4,0.4-1.3,1.4-1.3,2c0,1.1,2-0.2,2.4-0.4c0.6-0.2,1.2-0.6,1.7-1
		c0.3-0.5,0.7-0.9,1.1-1.3c0.7-0.4,1.5-0.7,2.4-0.9c0.3-0.1,0.6-0.1,0.9,0c0.3,0,0.5,0.2,0.8,0.4c0.3,0.2,0.7,0.4,1,0.7
		c0.2,0.1,0.4,0.2,0.5,0.4c0.1,0.1,0.5,0.3,0.6,0.5c-0.3,0.2-0.5,0.1-0.8,0.2c-0.5,0.2-1,0.5-1.4,0.9c-0.4,0.5-0.6,1.1-1.2,1.4
		c-0.8,0.4-1.5,0.3-1.9,1.2c-0.4,0.9-0.6,1.8-0.6,2.7c0.1,1.4,1.4,0.1,1.8-0.4c0.5-0.6,0.9-1.3,1.3-2c0.4-0.7-0.2-1.3,0.3-1.9
		c0.2-0.2,0.3-0.4,0.4-0.6c0.3-0.3,0.6-0.6,0.9-0.9c0.5-0.3,1.1-0.4,1.7-0.3c0.5,0.1,1,0.3,1.3,0.7c0.3,0.3,0.7,0.6,1.2,0.8
		c0.4,0.2,0.8,0.4,1.3,0.6c0.3,0.1,0.6,0.3,0.9,0.5c0.3,0.2,1.1,0.2,1,0.7c-0.1,0.3-1.3,1.2-1.7,1.4c-0.5,0.3-1.1,0.3-1.7,0.6
		c-0.8,0.4-1.2,1.1-1.7,1.8c-0.4,0.5-1.4,1.3-1.2,2.1c0.2,0.6,2.1-0.9,2.2-1c0.8-0.4,1.5-1.2,1.7-2.1c0-0.2,0.4-0.5,0.5-0.7
		c0.2-0.3,0.5-0.5,0.7-0.8c0.4-0.5,1-0.9,1.7-1c0.6,0,1.3,0.1,1.8,0.4c1.4,0.5,2.9,0.9,4.4,1.2c0.7,0.1,1.5,0.3,2.2,0.4
		c0.2,0,0.8,0.2,1,0.1c0.2-0.2,0.2-0.4,0.2-0.6C100.4,26.5,100.2,26.5,100,26.5z"/>
	<path id="Path_2178" class="st0" d="M62.8,8.4c0.6-0.3,1.2-0.5,1.8-0.7c0.5-0.2,1.1-0.2,1.6-0.4C66.8,7.1,67.4,7,68,6.9
		c0.4,0,0.9,0,1.3-0.1c0.4-0.1,0.8-0.1,1.2-0.1c0.1,0,0.2,0,0.4,0c0.2,0,0.4-0.1,0.6-0.1c0.2,0,0.4,0,0.5-0.2c0-0.2-0.1-0.5-0.2-0.6
		c-0.2-0.1-0.7,0-1,0.1c-0.7,0.1-1.5,0.2-2.2,0.4c-1.5,0.3-2.9,0.7-4.4,1.2c-0.6,0.3-1.2,0.5-1.8,0.4c-0.6-0.1-1.2-0.5-1.7-1
		c-0.2-0.3-0.5-0.5-0.7-0.8c-0.6-0.7-0.7-1.3-1.6-1.8c-1-0.6-1.8-1.1-2.9-0.8c-0.6,0.1-1.1,0.1-0.7,0.8c0.3,0.4,0.6,0.7,1,0.9
		c0.6,0.5,1.3,0.8,2,1c0.5,0.1,1.1-0.2,1.7,0c0.5,0.2,0.8,0.7,1.1,1.1c0.2,0.2,0.5,0.4,0.8,0.6c0.9,0.6-0.3,0.7-0.7,1
		c-0.3,0.2-0.6,0.3-0.9,0.5c-0.4,0.2-0.9,0.4-1.3,0.6c-0.4,0.2-0.8,0.4-1.2,0.8c-0.4,0.4-0.8,0.6-1.3,0.7c-0.6,0.1-1.2,0-1.7-0.3
		c-0.4-0.2-0.7-0.5-0.9-0.9c-0.1-0.2-0.2-0.4-0.4-0.6c-0.5-0.6-0.1-1.7-0.7-2.4c-0.4-0.5-1.5-1.5-2.2-1.3c-0.9,0.2,0.4,2.1,0.6,2.5
		c0.2,0.5,0.5,0.9,0.9,1.1c0.6,0.2,1.2,0.6,1.6,1.1c0.4,0.4,0.9,0.8,1.4,0.9c0.3,0.1,0.5,0,0.8,0.2c-0.1,0.2-0.4,0.3-0.6,0.5
		c-0.2,0.1-0.3,0.3-0.5,0.4c-0.3,0.2-0.7,0.5-1,0.7c-0.2,0.2-0.5,0.3-0.8,0.4c-0.3,0-0.6,0-0.9,0c-0.4-0.1-0.8-0.3-1.2-0.4
		c-0.9-0.4-1.8-0.8-2.7-1.2c-0.5-0.2-1.1-0.4-1.6-0.4c-0.5,0-1.6,0.4-1.6,1.1c0.1,1.3,2.7,0.8,3.4,0.7c0.4-0.1,0.8-0.3,1.2-0.3
		c0.5,0,0.8,0.3,1.3,0.5c0.3,0.1,0.6,0.2,1,0.3c0.2,0.1,0.7,0.1,0.4,0.4c-0.1,0.1-0.3,0.1-0.5,0.2c-0.2,0.1-0.3,0.2-0.4,0.4
		c-0.2,0.2-0.4,0.3-0.7,0.4c-0.5,0.3-1.1,0.6-1.6,0.8c-0.4,0.2-0.9,0.4-1.4,0.6c-0.4,0.1-0.7,0-1.1-0.1c-0.4-0.1-0.8-0.3-1.2-0.4
		c-0.9-0.4-1.8-0.8-2.7-1.3c-0.6-0.3-1.7-0.9-2.3-0.6c-0.7,0.3-0.3,1.1,0.2,1.4c0.8,0.6,1.6,0.3,2.5,0.3c0.7,0,1.5,0.2,2.2,0.5
		c0.2,0.1,1,0.7,1.3,0.6c-0.2,0.1-0.4,0.1-0.5,0.1c-0.2,0-0.4,0.1-0.6,0.1c-0.2,0.1-0.5,0.1-0.7,0.2c-0.4,0.1-0.9,0.2-1.4,0.3
		c-1,0.2-2.1,0.3-3.1,0.3c-1,0-1.9-0.7-2.9-0.7c-0.6,0-2,0.4-2.1,1.1c-0.1,0.6,1.2,0.8,1.7,0.9c0.8,0.1,1.5,0,2.3-0.2
		c0.6-0.2,1.2-0.5,1.7-0.7c1-0.2,2-0.3,3-0.5c0.2,0,0.3-0.1,0.5-0.1c0.5,0,0.6-0.2,0.5,0.4c-0.2,0.5-0.5,0.9-0.8,1.2
		c-0.6,0.5-1.3,0.7-1.8,1.3c-0.3,0.4-0.9,1.5-0.2,1.9c0.4,0.2,1.2-0.1,1.5-0.3c1.7-1.2,0.7-3.6,2.3-4.7c0.2-0.1,0.4-0.2,0.7-0.2
		c0.3-0.1,0.5-0.1,0.7-0.3c0.1-0.1,0.3-0.1,0.5-0.1c0.2-0.1,0.5-0.2,0.7-0.3c0.3-0.1,0.5-0.2,0.8-0.4c0.4-0.2,0.7-0.4,1.1-0.6
		c0.2-0.1,0.4-0.2,0.6-0.2c0.3,0,0.1,0.3,0.1,0.5c-0.1,0.2-0.1,0.5-0.2,0.7c-0.1,0.5-0.1,1-0.3,1.5c-0.3,1-1.5,1.6-1.3,2.8l0,0
		c0.1,0.6,0.2,2.9,1.3,2.2c0.5-0.4,0.8-1,1-1.6c0.3-0.7,0.2-1.4-0.1-2.1c-0.3-0.7,0-1.3-0.1-2c-0.2-1.1,0.2-2.1,1-2.8
		c0.3-0.2,0.6-0.4,0.9-0.5c0.2-0.1,0.4-0.2,0.5-0.4c0.1-0.1,0.2-0.2,0.4-0.3c0.3-0.3,0.6-0.4,0.9-0.6c0.2-0.1,0.4-0.2,0.5-0.4
		c0.1-0.1,0.3-0.2,0.4-0.3c0.4-0.3,0.8-0.6,1.3-0.8c0.4-0.2,0.7-0.5,1.1-0.7c0.3-0.2,0.7-0.2,0.9-0.5c0.2-0.2,0.6-0.5,0.6-0.1
		c0,0.2-0.1,0.5-0.2,0.6c-0.2,0.4-0.3,0.8-0.5,1.2c-0.1,0.5-0.2,1-0.4,1.4c-0.2,0.4-0.5,0.7-0.8,0.9c-0.5,0.6-0.7,1.4-0.7,2.2
		c0,0.3-0.1,1.9,0.3,2c0.9,0.3,2.2-2.6,2.1-3.2c-0.1-0.6-0.6-1-0.6-1.6c0.1-0.6,0.2-1.2,0.5-1.7c0.2-0.5,0.4-1,0.6-1.4
		c0.1-0.2,0.3-0.5,0.4-0.7c0.3-0.3,0.7-0.5,1.1-0.7c0.2-0.1,0.5-0.3,0.7-0.4C62.2,8.7,62.5,8.5,62.8,8.4z"/>
	<path id="Path_2179" class="st0" d="M44.3,26.5c-0.2,0-0.4,0-0.6-0.1c-0.1,0-0.2,0-0.4,0c-0.4,0-0.8-0.1-1.2-0.1
		c-0.4-0.1-0.9-0.1-1.3-0.1c-0.6,0-1.2-0.2-1.8-0.3c-0.5-0.2-1.1-0.2-1.6-0.4c-0.6-0.2-1.2-0.4-1.8-0.7c-0.3-0.1-0.6-0.3-1-0.4
		c-0.2-0.1-0.5-0.3-0.7-0.4c-0.4-0.2-0.8-0.4-1.1-0.7c-0.2-0.2-0.3-0.4-0.4-0.7c-0.2-0.5-0.4-0.9-0.6-1.4c-0.2-0.5-0.4-1.1-0.5-1.7
		c0-0.5,0.3-0.9,0.3-1.4c0-0.9-0.4-4.6-2-4.3c-0.6,0.1-0.6,1.9-0.7,2.4c-0.1,1.4,1.5,2.3,2,3.4c0.3,0.9,0.5,1.8,0.9,2.6
		c0.1,0.2,0.3,0.4,0.2,0.6c-0.1,0.4-0.5,0.1-0.6-0.1c-0.3-0.3-0.6-0.3-0.9-0.5c-0.4-0.2-0.7-0.5-1.1-0.7c-0.4-0.3-0.8-0.6-1.3-0.8
		c-0.1-0.1-0.3-0.2-0.4-0.3c-0.2-0.1-0.4-0.2-0.5-0.4c-0.3-0.2-0.6-0.4-0.9-0.6c-0.1-0.1-0.2-0.2-0.4-0.3c-0.2-0.1-0.3-0.3-0.5-0.4
		c-0.3-0.1-0.7-0.3-0.9-0.5c-0.2-0.2-0.5-0.4-0.6-0.6c-0.1-0.2-0.1-0.4-0.2-0.6c-0.1-0.3-0.2-0.7-0.3-1.1c-0.2-0.8-0.3-1.6-0.3-2.5
		c0.2-0.6,0.3-1.2,0.3-1.8c0-0.6,0.1-3.1-1-2.9c-0.8,0.2-0.9,1.4-0.9,2c0,0.4,0.1,0.7,0.3,1c0.3,0.6,0.6,1.2,0.8,1.8
		c0.2,0.8,0.2,1.8,0.4,2.7c0.1,0.2,0.1,0.5,0.2,0.7s0.2,0.5-0.1,0.5c-0.2,0-0.4-0.1-0.6-0.2c-0.4-0.2-0.7-0.4-1.1-0.6
		c-0.3-0.1-0.5-0.2-0.8-0.4c-0.2-0.1-0.4-0.2-0.7-0.3c-0.2,0-0.3,0-0.5-0.1c-0.2-0.1-0.5-0.2-0.7-0.3c-0.2,0-0.5-0.1-0.7-0.2
		c-0.2-0.2-0.5-0.4-0.6-0.6c-0.2-0.4-0.5-0.7-0.7-1c-0.1-0.1-0.2-0.2-0.3-0.4c-0.5-0.8-0.6-1.8-1.1-2.6c-0.3-0.5-2.4-2.7-2.7-1.4
		c-0.3,1.1,1.3,2.8,2.2,3.2c0.3,0.1,0.6,0.2,0.8,0.4c0.2,0.2,0.5,0.5,0.6,0.8c0.2,0.2,0.4,0.5,0.5,0.7c0.1,0.1,0.2,0.3,0.2,0.4
		c0,0.1,0,0.1,0.1,0.2c0,0.1,0.1,0.1,0,0.2c-0.1,0.1-0.4,0-0.6,0c-0.2,0-0.3-0.1-0.5-0.1c-0.4-0.1-0.8-0.1-1.3-0.2
		c-0.7-0.1-1.4-0.1-2.1-0.1c-0.6,0-1.1,0-1.7,0c-0.2,0-0.4,0-0.5-0.1C10.1,14.4,9.7,14,9,14c-0.5,0-1,0.1-1.5,0.1
		c-0.5,0.1-2.1,0.5-1.9,1.2c0,0.3,0.5,0.5,0.8,0.6c0.7,0.2,1.4,0.2,2,0c0.6-0.2,1.2-0.1,1.8-0.2c0.7-0.2,1.3-0.4,2-0.5
		c1.2,0,2.4,0,3.5,0.2c0.5,0.1,0.9,0.2,1.4,0.3c0.2,0.1,0.5,0.1,0.7,0.2c0.2,0,0.4,0.1,0.6,0.1c0.2,0,0.4,0.1,0.5,0.1
		c0,0-0.3,0.2-0.3,0.2c-0.2,0.1-0.3,0.2-0.5,0.2c-0.3,0.1-0.6,0.2-0.9,0.4c-0.7,0.4-1.5,0.6-2.2,0.8c-1.4,0.2-2.7,0.5-3.3,1.9
		c-0.3,0.6-0.5,1.5,0.5,1.4c0.5-0.1,1-0.3,1.4-0.7c0.5-0.3,1-0.6,1.4-1c0.3-0.4,0.7-0.8,0.9-1.2c0.6-0.5,1.2-0.9,2-1.2
		c0.4-0.2,0.8-0.3,1.2-0.4c0.4-0.1,0.7-0.1,1.1-0.1c0.5,0.1,0.9,0.3,1.4,0.6c0.6,0.3,1.1,0.5,1.6,0.8c0.2,0.1,0.5,0.3,0.7,0.4
		c0.1,0.1,0.3,0.3,0.4,0.4c0.1,0.1,0.3,0.1,0.5,0.2c0.3,0.3-0.2,0.3-0.4,0.4c-0.3,0.1-0.6,0.2-1,0.3c-0.3,0.2-0.5,0.3-0.8,0.4
		c-0.5,0.1-1-0.1-1.5,0.1c-1,0.3-1.9,0.3-2.6,1.1c-0.4,0.4-1.3,1.4-1.3,2c0,1.1,2-0.2,2.4-0.4c0.6-0.2,1.2-0.6,1.7-1
		c0.3-0.5,0.7-0.9,1.1-1.3c0.7-0.4,1.5-0.7,2.4-0.9c0.3-0.1,0.6-0.1,0.9,0c0.3,0,0.5,0.2,0.8,0.4c0.3,0.2,0.7,0.5,1,0.7
		c0.2,0.1,0.4,0.2,0.5,0.4c0.1,0.1,0.5,0.3,0.6,0.5c-0.3,0.2-0.5,0.1-0.8,0.2c-0.5,0.2-1,0.5-1.4,0.9c-0.4,0.5-0.6,1.1-1.2,1.4
		c-0.8,0.4-1.5,0.3-1.9,1.2c-0.4,0.9-0.6,1.8-0.6,2.7c0.1,1.4,1.4,0.1,1.8-0.4c0.5-0.6,0.9-1.3,1.3-2c0.4-0.7-0.2-1.3,0.3-1.9
		c0.2-0.2,0.3-0.4,0.4-0.6c0.3-0.3,0.6-0.6,0.9-0.9c0.5-0.3,1.1-0.4,1.7-0.3c0.5,0.1,1,0.3,1.3,0.7c0.3,0.3,0.7,0.6,1.2,0.8
		c0.4,0.2,0.8,0.4,1.3,0.6c0.3,0.1,0.6,0.3,0.9,0.5c0.3,0.2,1.1,0.2,1,0.7c-0.1,0.3-1.3,1.2-1.7,1.4c-0.5,0.3-1.1,0.3-1.7,0.6
		c-0.8,0.4-1.2,1.1-1.7,1.8c-0.4,0.5-1.4,1.3-1.2,2.1c0.2,0.6,2.1-0.9,2.2-1c0.8-0.4,1.5-1.2,1.7-2.1c0-0.2,0.4-0.5,0.5-0.7
		c0.2-0.3,0.5-0.5,0.7-0.8c0.4-0.5,1-0.9,1.7-1c0.6,0,1.3,0.1,1.8,0.4c1.4,0.5,2.9,0.9,4.4,1.2c0.7,0.1,1.5,0.3,2.2,0.4
		c0.2,0,0.8,0.2,1,0.1c0.2-0.2,0.2-0.4,0.2-0.6C44.7,26.5,44.5,26.5,44.3,26.5z"/>
	<path id="Path_2180" class="st0" d="M7.1,8.4c0.6-0.3,1.2-0.5,1.8-0.7c0.5-0.2,1.1-0.2,1.6-0.4C11,7.1,11.6,7,12.2,6.9
		c0.4,0,0.9,0,1.3-0.1c0.4-0.1,0.8-0.1,1.2-0.1c0.1,0,0.2,0,0.4,0c0.2,0,0.4-0.1,0.6-0.1c0.2,0,0.4,0,0.5-0.2c0-0.2-0.1-0.5-0.2-0.6
		c-0.2-0.1-0.7,0-1,0.1c-0.7,0.1-1.5,0.2-2.2,0.4c-1.5,0.3-2.9,0.7-4.4,1.2C7.8,7.7,7.2,7.9,6.5,7.9c-0.6-0.1-1.2-0.5-1.7-1
		C4.7,6.6,4.4,6.4,4.2,6.1C3.6,5.4,3.5,4.8,2.6,4.3C1.9,3.8,0.9,3.5,0,3.5v1.8l0,0c0.6,0.5,1.3,0.8,2,1c0.5,0.1,1.1-0.2,1.7,0
		c0.5,0.2,0.8,0.7,1.1,1.1c0.2,0.2,0.5,0.4,0.8,0.6c0.9,0.6-0.3,0.7-0.7,1C4.7,9,4.3,9.2,4,9.3C3.6,9.5,3.2,9.7,2.8,9.9
		c-0.4,0.2-0.8,0.4-1.2,0.8c-0.4,0.4-0.8,0.6-1.3,0.7c-0.1,0-0.2,0-0.3,0v0.8c0.3-0.2,0.6-0.4,0.9-0.6c0.4-0.2,0.7-0.5,1.1-0.7
		c0.3-0.2,0.7-0.2,0.9-0.5c0.2-0.2,0.5-0.5,0.6-0.1c0,0.2-0.1,0.5-0.2,0.6c-0.2,0.4-0.3,0.8-0.5,1.2c-0.1,0.5-0.2,1-0.4,1.4
		c-0.2,0.4-0.5,0.7-0.8,0.9C1.2,15,1,15.8,1.1,16.6c0,0.3-0.1,1.9,0.3,2c0.9,0.3,2.2-2.6,2.1-3.2c-0.1-0.6-0.6-1-0.6-1.6
		c0.1-0.6,0.2-1.2,0.5-1.7c0.2-0.5,0.4-1,0.6-1.4c0.1-0.2,0.3-0.5,0.4-0.7c0.3-0.3,0.7-0.5,1.1-0.7c0.2-0.1,0.5-0.3,0.7-0.4
		C6.5,8.7,6.8,8.5,7.1,8.4z"/>
</g>
</svg>
