<?xml version="1.0" encoding="utf-8"?>
<!-- Generator: Adobe Illustrator 24.1.0, SVG Export Plug-In . SVG Version: 6.00 Build 0)  -->
<svg version="1.1" id="botanic-border-shop" xmlns="http://www.w3.org/2000/svg" xmlns:xlink="http://www.w3.org/1999/xlink"
	 x="0px" y="0px" viewBox="0 0 306.8 34.1" style="enable-background:new 0 0 306.8 34.1;" xml:space="preserve">
<style type="text/css">
	.st0{fill:#9F5D06;}
</style>
<g id="Group_21580">
	<path id="Path_14687" class="st0" d="M305,14c-0.2,0-0.5,0-0.7-0.1c-0.4-0.2-0.5-0.6-1-0.7c-0.5-0.1-1,0.3-1.2,0.8
		c-0.3,0.5-0.1,1.2,0.5,1.5c0.1,0,0.2,0.1,0.3,0.1c0.5,0.1,1-0.1,1.2-0.5c0.2-0.2,0.5-0.4,0.8-0.4s0.5-0.1,0.8-0.1s0.7,0,1,0V14
		C306.2,14,305.6,14,305,14z"/>
	<path id="Path_14688" class="st0" d="M303.6,6.2c-0.7,0.4-1.5,0.6-2.3,0.5c-0.8-0.2-1.6-0.6-2.1-1.3c-0.3-0.3-0.6-0.6-0.9-1
		c-0.2-0.3-0.6-0.6-0.7-0.9c0-0.3-0.1-0.6-0.2-0.8c-0.3-0.5-1-0.8-1.6-0.7c-0.4,0.1-0.7,0.4-0.9,0.8c-0.1,0.1-0.1,0.3-0.1,0.4
		c-0.1,0.9,0.8,1.5,1.6,1.4c0.2,0,0.4-0.1,0.6-0.1c0.4-0.1,0.4-0.1,0.8,0.2c0.5,0.4,0.9,0.9,1.4,1.3c0.3,0.3,0.6,0.6,1,0.8
		c1.1,0.7-0.4,0.9-0.9,1.2c-0.4,0.2-0.8,0.4-1.2,0.6c-0.6,0.2-1.1,0.5-1.6,0.7s-1,0.6-1.5,1c-0.5,0.5-1.1,0.8-1.7,0.9
		c-0.7,0.2-1.5,0-2.1-0.4c-0.5-0.3-0.9-0.7-1.2-1.1c-0.2-0.3-0.3-0.6-0.5-0.8s-0.3-0.5-0.3-0.8c0.1-0.4,0.3-0.5,0.2-0.9
		c-0.3-0.7-1.1-1-1.7-0.8c-0.1,0-0.1,0.1-0.2,0.1c-0.5,0.4-0.6,1.1-0.3,1.6c0.2,0.2,0.5,0.4,0.7,0.4c0.2,0.1,0.4-0.1,0.6,0
		c0.2,0,0.3,0.1,0.4,0.2c0.2,0.2,0.4,0.5,0.6,0.8c0.2,0.2,0.3,0.5,0.5,0.7c0.5,0.6,1.1,1,1.8,1.2c0.3,0.1,0.7,0.1,1,0.3
		c-0.1,0.2-0.5,0.4-0.7,0.6c-0.2,0.2-0.4,0.3-0.7,0.5c-0.4,0.3-0.9,0.6-1.3,0.9c-0.3,0.2-0.6,0.4-1,0.5c-0.4,0-0.7,0-1.1,0
		c-0.5-0.1-1.1-0.3-1.6-0.6c-0.4-0.2-0.9-0.4-1.3-0.6c-0.2-0.1-0.4-0.1-0.6-0.2c-0.3-0.1-0.5-0.3-0.6-0.6c-0.3-0.4-0.7-0.6-1.2-0.5
		c-0.2,0-0.4,0.1-0.5,0.1c-0.5,0.4-0.6,1.2-0.2,1.7c0.4,0.4,1.1,0.5,1.6,0.1c0.5-0.2,1.1-0.3,1.7-0.1c0.4,0.2,0.7,0.3,1,0.5
		c0.4,0.2,0.8,0.3,1.2,0.4c0.2,0.1,0.9,0.1,0.5,0.5c-0.2,0.1-0.4,0.1-0.6,0.2c-0.2,0.1-0.4,0.3-0.6,0.5c-0.3,0.2-0.6,0.4-0.9,0.5
		c-0.7,0.4-1.4,0.7-2.1,1.1c-0.6,0.3-1.1,0.5-1.8,0.7c-0.5,0.1-0.9,0.1-1.4-0.1s-1-0.3-1.5-0.6c-0.9-0.3-1.8-0.8-2.5-1.5
		c-0.3-0.3-0.3-0.6-0.6-0.9c-0.7-0.8-2.3-0.1-2.1,1c0.1,0.5,0.5,1,1,1.1c0.6,0.1,1.1-0.4,1.6-0.2c0.6,0.2,1.2,0.5,1.7,0.8
		c0.4,0.2,0.8,0.3,1.2,0.4c0.2,0.1,0.4,0.2,0.6,0.3c0,0,0.5,0.2,0.4,0.3c-0.2,0.1-0.5,0.1-0.7,0.1c-0.2,0.1-0.5,0.1-0.7,0.2
		c-0.3,0.1-0.6,0.1-0.9,0.2c-0.6,0.2-1.2,0.3-1.7,0.4c-1.6,0.2-3.2,0.3-4.9,0.2c-0.3,0-0.5-0.1-0.8-0.1s-0.6-0.2-0.8-0.4
		c-0.3-0.4-0.8-0.6-1.2-0.5c-0.6,0.1-1,0.7-0.8,1.3c0,0.1,0.1,0.2,0.1,0.3c0.2,0.5,0.7,0.8,1.2,0.8c0.5-0.1,0.6-0.6,1-0.7
		c0.2,0,0.4-0.1,0.7-0.1c0.7-0.1,1.5-0.1,2.2,0c0.9,0,1.8,0,2.7-0.1c0.5-0.1,1.1-0.1,1.6-0.2c0.2,0,0.4-0.2,0.6-0.2s0.6-0.2,0.7-0.1
		s0,0.2,0,0.3c0,0.1-0.1,0.2-0.1,0.2c-0.1,0.2-0.2,0.4-0.3,0.5c-0.2,0.3-0.4,0.6-0.7,0.9c-0.2,0.4-0.5,0.7-0.8,1
		c-0.3,0.2-0.7,0.4-1,0.5c-0.7,0.3-1.2,1.6-0.3,2.1c0.7,0.4,1.9-0.5,1.9-1.3c0-0.3-0.1-0.6-0.1-0.9c0-0.2,0.1-0.3,0.1-0.4
		c0.1-0.2,0.2-0.4,0.4-0.6c0.1-0.2,0.3-0.3,0.4-0.5c0.3-0.4,0.6-0.9,0.9-1.3c0.2-0.3,0.5-0.6,0.8-0.8c0.3-0.1,0.6-0.2,0.9-0.3
		c0.3-0.1,0.6-0.2,0.9-0.3c0.2-0.1,0.4-0.2,0.6-0.2c0.3-0.1,0.6-0.2,0.9-0.4c0.3-0.2,0.7-0.3,1-0.5c0.5-0.2,0.9-0.5,1.4-0.8
		c0.2-0.1,0.5-0.2,0.7-0.3c0.4,0,0.2,0.4,0.1,0.7c-0.1,0.3-0.2,0.6-0.3,0.9c-0.2,0.6-0.3,1.3-0.4,1.9c-0.1,0.4,0.1,0.9-0.3,1.3
		c-0.1,0.1-0.3,0.1-0.4,0.1c-0.2,0-0.3,0.2-0.4,0.3c-0.2,0.2-0.3,0.4-0.3,0.6c0,0.7,0.4,1.3,1.1,1.5c0.8,0.1,1.6-0.5,1.8-1.3
		c0.2-0.5-0.3-0.8-0.6-1.1c-0.2-0.1-0.3-0.3-0.4-0.6c0-0.3,0.1-0.5,0.1-0.8c0-0.5,0.1-1.1,0.2-1.6s0.2-0.9,0.4-1.3
		c0.1-0.2,0.2-0.5,0.3-0.7c0.2-0.4,0.5-0.5,0.7-0.8c0.3-0.3,0.8-0.6,1.2-0.7c0.2-0.1,0.5-0.3,0.7-0.5c0.2-0.1,0.3-0.2,0.5-0.3
		c0.4-0.3,0.8-0.5,1.2-0.8c0.2-0.2,0.5-0.3,0.7-0.5c0.2-0.1,0.3-0.3,0.5-0.4c0.5-0.3,1.1-0.7,1.6-1.1c0.5-0.3,0.9-0.6,1.4-0.9
		c0.4-0.2,0.9-0.3,1.2-0.7c0.2-0.2,0.7-0.7,0.8-0.2c0.1,0.3-0.2,0.6-0.3,0.8c-0.2,0.5-0.4,1-0.6,1.5s-0.3,0.9-0.4,1.4
		c-0.1,0.4-0.3,1.1-0.7,1.3c-0.2,0.1-0.5,0-0.7,0.2s-0.4,0.4-0.5,0.6c-0.3,0.5-0.3,1.2,0,1.7c0.2,0.3,0.6,0.6,1,0.6
		c0.9,0,1.7-0.6,1.9-1.5c0-0.4-0.2-0.8-0.5-1.1c-0.6-0.9,0-2.3,0.3-3.2c0.2-0.6,0.5-1.2,0.8-1.8c0.1-0.3,0.3-0.6,0.5-0.9
		c0.4-0.4,0.9-0.7,1.4-0.9c0.3-0.1,0.6-0.3,0.9-0.5c0.4-0.2,0.8-0.4,1.2-0.5c0.7-0.3,1.5-0.6,2.2-0.9c0.7-0.2,1.4-0.3,2-0.6
		c0.2-0.1,0.3-0.1,0.5-0.2V5.2C305.7,5.5,304.7,5.8,303.6,6.2z"/>
	<path id="Path_14689" class="st0" d="M278.8,29c-0.3,0-0.5,0-0.8-0.1c-0.2,0-0.3,0-0.5,0c-0.5,0-1-0.1-1.5-0.2s-1.1-0.1-1.6-0.1
		c-0.8-0.1-1.5-0.2-2.3-0.4c-0.7-0.2-1.4-0.3-2-0.6c-0.7-0.3-1.5-0.5-2.2-0.9c-0.4-0.2-0.8-0.4-1.2-0.5c-0.3-0.1-0.6-0.3-0.9-0.5
		c-0.5-0.2-1-0.5-1.4-0.9c-0.2-0.3-0.4-0.6-0.5-0.9c-0.3-0.6-0.6-1.2-0.8-1.8c-0.3-0.9-1-2.3-0.3-3.2c0.3-0.3,0.5-0.7,0.5-1.1
		c-0.1-0.9-1-1.6-1.9-1.5c-0.4,0-0.8,0.2-1,0.6c-0.3,0.5-0.3,1.2,0,1.7c0.1,0.2,0.3,0.5,0.5,0.6s0.5,0.1,0.7,0.2
		c0.4,0.2,0.6,0.8,0.7,1.3s0.2,1,0.4,1.4c0.2,0.5,0.4,1,0.6,1.5c0.1,0.2,0.3,0.5,0.3,0.8c-0.1,0.5-0.6,0.1-0.8-0.2
		c-0.3-0.4-0.8-0.4-1.2-0.7c-0.5-0.3-0.9-0.6-1.4-0.9s-1.1-0.7-1.6-1.1c-0.2-0.1-0.4-0.2-0.5-0.4c-0.2-0.2-0.5-0.3-0.7-0.5
		c-0.4-0.3-0.8-0.5-1.2-0.8c-0.1-0.1-0.3-0.2-0.5-0.3c-0.2-0.2-0.4-0.3-0.7-0.5c-0.4-0.1-0.9-0.4-1.2-0.7c-0.3-0.3-0.6-0.5-0.7-0.8
		c-0.1-0.2-0.2-0.5-0.3-0.7c-0.1-0.4-0.3-0.9-0.4-1.3c-0.1-0.5-0.2-1.1-0.2-1.6c0-0.3-0.1-0.6-0.1-0.8s0.2-0.4,0.4-0.6
		c0.3-0.3,0.8-0.6,0.6-1.1c-0.2-0.8-1-1.4-1.8-1.3c-0.7,0.1-1.2,0.8-1.1,1.5c0,0.2,0.2,0.5,0.3,0.6s0.3,0.2,0.4,0.3
		c0.2,0,0.3,0,0.4,0.1c0.4,0.4,0.2,0.9,0.3,1.3c0.1,0.6,0.2,1.3,0.4,1.9c0.1,0.3,0.2,0.6,0.3,0.9c0.1,0.3,0.3,0.6-0.1,0.7
		c-0.3,0-0.5-0.1-0.7-0.3c-0.5-0.2-0.9-0.5-1.4-0.8c-0.3-0.2-0.7-0.3-1-0.5c-0.3-0.2-0.6-0.3-0.9-0.4c-0.2,0-0.4-0.1-0.6-0.2
		c-0.3-0.2-0.6-0.3-0.9-0.3c-0.3,0-0.6-0.1-0.9-0.3c-0.3-0.2-0.6-0.5-0.8-0.8c-0.3-0.5-0.6-0.9-0.9-1.3c-0.1-0.2-0.3-0.3-0.4-0.5
		c-0.1-0.2-0.3-0.4-0.4-0.6c-0.1-0.1-0.1-0.3-0.1-0.4c0-0.3,0.1-0.6,0.1-0.9c0-0.7-1.2-1.7-1.9-1.3c-0.9,0.5-0.4,1.8,0.3,2.1
		c0.4,0.1,0.7,0.3,1,0.5c0.3,0.3,0.6,0.6,0.8,1c0.2,0.3,0.5,0.6,0.7,0.9c0.1,0.2,0.2,0.3,0.3,0.5c0,0.1,0.1,0.2,0.1,0.2
		c0,0.1,0.1,0.2,0,0.3s-0.5,0-0.7-0.1c-0.2,0-0.4-0.1-0.6-0.2c-0.5-0.1-1.1-0.2-1.6-0.2c-0.9-0.1-1.8-0.1-2.7-0.1
		c-0.7,0-1.5,0-2.2,0c-0.2,0-0.5,0-0.7-0.1c-0.4-0.2-0.5-0.6-1-0.7c-0.5-0.1-1,0.3-1.2,0.8c-0.3,0.5-0.1,1.2,0.5,1.5
		c0.1,0,0.2,0.1,0.3,0.1c0.5,0.1,1-0.1,1.2-0.5c0.2-0.2,0.5-0.4,0.8-0.4s0.5-0.1,0.8-0.1c1.6-0.1,3.3,0,4.9,0.2
		c0.6,0.1,1.2,0.2,1.7,0.4c0.3,0.1,0.6,0.1,0.9,0.2c0.2,0.1,0.5,0.1,0.7,0.2c0.2,0,0.5,0.1,0.7,0.1c0.1,0-0.4,0.2-0.4,0.3
		c-0.2,0.1-0.4,0.2-0.6,0.3c-0.4,0.2-0.8,0.3-1.2,0.4c-0.5,0.3-1.1,0.6-1.7,0.8c-0.6,0.1-1.1-0.3-1.6-0.2c-0.5,0.2-0.9,0.6-1,1.1
		c-0.2,1,1.4,1.8,2.1,1c0.2-0.3,0.3-0.6,0.6-0.9c0.7-0.7,1.6-1.2,2.5-1.5c0.5-0.2,1-0.4,1.5-0.6c0.5-0.1,0.9-0.2,1.4-0.1
		c0.6,0.2,1.2,0.4,1.8,0.7c0.7,0.3,1.4,0.7,2.1,1.1c0.3,0.1,0.6,0.3,0.9,0.5c0.2,0.2,0.4,0.3,0.6,0.5c0.2,0.1,0.4,0.1,0.6,0.2
		c0.4,0.4-0.3,0.4-0.5,0.5c-0.4,0.1-0.8,0.3-1.2,0.4c-0.3,0.2-0.7,0.4-1,0.5c-0.5,0.2-1.1,0.2-1.7-0.1c-0.5-0.4-1.2-0.3-1.6,0.1
		c-0.4,0.5-0.3,1.2,0.2,1.7c0.2,0.1,0.3,0.1,0.5,0.1c0.5,0,0.9-0.2,1.2-0.5c0.1-0.3,0.3-0.5,0.6-0.6c0.2,0,0.4-0.1,0.6-0.2
		c0.4-0.2,0.9-0.4,1.3-0.6c0.5-0.2,1-0.4,1.6-0.6c0.4-0.1,0.7-0.1,1.1,0c0.4,0.1,0.7,0.2,1,0.5c0.4,0.3,0.9,0.6,1.3,0.9
		c0.2,0.2,0.5,0.3,0.7,0.5s0.6,0.3,0.7,0.6c-0.3,0.2-0.7,0.1-1,0.3c-0.7,0.2-1.3,0.6-1.8,1.2c-0.2,0.2-0.3,0.5-0.5,0.7
		c-0.2,0.3-0.4,0.5-0.6,0.8c-0.1,0.1-0.2,0.2-0.4,0.2s-0.4-0.1-0.6,0c-0.3,0.1-0.5,0.2-0.7,0.4c-0.3,0.6-0.1,1.2,0.3,1.6
		c0.6,0.4,1.5,0.2,1.8-0.5c0-0.1,0.1-0.1,0.1-0.2c0.2-0.4-0.1-0.6-0.2-0.9c0-0.3,0.1-0.6,0.3-0.8c0.2-0.3,0.3-0.5,0.5-0.8
		c0.3-0.4,0.7-0.8,1.2-1.1c0.6-0.4,1.4-0.6,2.2-0.4c0.6,0.1,1.2,0.4,1.7,0.9c0.4,0.4,0.9,0.7,1.5,1c0.5,0.3,1.1,0.5,1.6,0.7
		c0.4,0.1,0.8,0.3,1.2,0.6c0.5,0.3,2,0.5,0.9,1.2c-0.4,0.2-0.7,0.5-1,0.8c-0.5,0.4-0.9,0.9-1.4,1.3c-0.3,0.3-0.4,0.3-0.8,0.2
		c-0.2-0.1-0.4-0.1-0.6-0.1c-0.8-0.1-1.7,0.6-1.6,1.4c0,0.1,0.1,0.3,0.1,0.4c0.2,0.3,0.5,0.6,0.9,0.8c0.6,0.1,1.3-0.2,1.6-0.7
		c0.1-0.3,0.2-0.5,0.2-0.8c0.1-0.3,0.5-0.6,0.7-0.9c0.3-0.3,0.6-0.6,0.9-1c0.5-0.7,1.3-1.1,2.1-1.3c0.8,0,1.6,0.2,2.3,0.5
		c1.8,0.6,3.7,1.1,5.6,1.5c0.9,0.2,1.9,0.4,2.8,0.5c0.3,0,1,0.3,1.2,0.1c0.2-0.2,0.3-0.5,0.3-0.8C279.3,28.9,279,29,278.8,29z"/>
	<path id="Path_14690" class="st0" d="M243.2,6.5c0.7-0.2,1.4-0.3,2-0.6c0.7-0.2,1.5-0.4,2.3-0.4c0.5-0.1,1.1-0.1,1.6-0.1
		c0.5-0.1,1-0.1,1.5-0.2c0.2,0,0.3,0,0.5,0c0.2-0.1,0.5-0.1,0.8-0.1c0.2,0,0.5,0.1,0.6-0.2c0-0.3-0.1-0.6-0.3-0.8
		c-0.2-0.2-0.9,0-1.2,0.1c-1,0.1-1.9,0.3-2.8,0.5c-1.9,0.4-3.8,0.9-5.6,1.5c-0.7,0.4-1.5,0.6-2.3,0.5c-0.8-0.2-1.6-0.6-2.1-1.3
		c-0.3-0.3-0.6-0.6-0.9-1c-0.2-0.3-0.6-0.6-0.7-0.9c0-0.3-0.1-0.6-0.2-0.8c-0.3-0.5-1-0.8-1.6-0.7c-0.4,0.1-0.7,0.4-0.9,0.8
		c-0.1,0.1-0.1,0.3-0.1,0.4c-0.1,0.9,0.8,1.5,1.6,1.4c0.2,0,0.4-0.1,0.6-0.1c0.4-0.1,0.4-0.1,0.8,0.2c0.5,0.4,0.9,0.9,1.4,1.3
		c0.3,0.3,0.6,0.6,1,0.8c1.1,0.7-0.4,0.9-0.9,1.2c-0.4,0.2-0.8,0.4-1.2,0.6c-0.6,0.2-1.1,0.5-1.6,0.7s-1,0.6-1.5,1
		c-0.5,0.5-1.1,0.8-1.7,0.9c-0.7,0.2-1.5,0-2.2-0.4c-0.5-0.3-0.9-0.7-1.2-1.1c-0.2-0.3-0.3-0.6-0.5-0.8s-0.3-0.5-0.3-0.8
		c0.1-0.4,0.3-0.5,0.2-0.9c-0.3-0.7-1.1-1-1.7-0.8c-0.1,0-0.1,0.1-0.2,0.1c-0.5,0.4-0.6,1.1-0.3,1.6c0.2,0.2,0.5,0.4,0.7,0.4
		c0.2,0.1,0.4-0.1,0.6,0c0.2,0,0.3,0.1,0.4,0.2c0.2,0.2,0.4,0.5,0.6,0.8c0.2,0.2,0.3,0.5,0.5,0.7c0.5,0.6,1.1,1,1.8,1.2
		c0.3,0.1,0.7,0.1,1,0.3c-0.1,0.2-0.5,0.4-0.7,0.6c-0.2,0.2-0.4,0.3-0.7,0.5c-0.4,0.3-0.9,0.6-1.3,0.9c-0.3,0.2-0.6,0.4-1,0.5
		c-0.4,0-0.7,0-1.1,0c-0.5-0.1-1.1-0.3-1.6-0.6c-0.4-0.2-0.9-0.4-1.3-0.6c-0.2-0.1-0.4-0.1-0.6-0.2c-0.3-0.1-0.5-0.3-0.6-0.6
		c-0.3-0.4-0.7-0.6-1.2-0.5c-0.2,0-0.4,0.1-0.5,0.1c-0.5,0.4-0.6,1.2-0.2,1.7c0.4,0.4,1.1,0.5,1.6,0.1c0.5-0.2,1.1-0.3,1.7-0.1
		c0.4,0.2,0.7,0.3,1,0.5c0.4,0.2,0.8,0.3,1.2,0.4c0.2,0.1,0.9,0.1,0.5,0.5c-0.2,0.1-0.4,0.1-0.6,0.2c-0.2,0.1-0.4,0.3-0.6,0.5
		c-0.3,0.2-0.6,0.4-0.9,0.5c-0.7,0.4-1.4,0.7-2.1,1.1c-0.6,0.3-1.1,0.5-1.8,0.7c-0.5,0.1-0.9,0.1-1.4-0.1s-1-0.3-1.5-0.6
		c-0.9-0.3-1.8-0.8-2.5-1.5c-0.3-0.3-0.3-0.6-0.6-0.9c-0.7-0.8-2.3-0.1-2.1,1c0.1,0.5,0.5,1,1,1.1c0.6,0.1,1.1-0.4,1.6-0.2
		c0.6,0.2,1.2,0.5,1.7,0.8c0.4,0.2,0.8,0.3,1.2,0.4c0.2,0.1,0.4,0.2,0.6,0.3c0,0,0.5,0.2,0.4,0.3c-0.2,0.1-0.5,0.1-0.7,0.1
		c-0.2,0.1-0.5,0.1-0.7,0.2c-0.3,0.1-0.6,0.1-0.9,0.2c-0.6,0.2-1.2,0.3-1.7,0.4c-1.6,0.2-3.2,0.3-4.9,0.2c-0.3,0-0.5-0.1-0.8-0.1
		s-0.6-0.2-0.8-0.4c-0.3-0.4-0.8-0.6-1.2-0.5c-0.6,0.1-1,0.7-0.8,1.3c0,0.1,0.1,0.2,0.1,0.3c0.2,0.5,0.7,0.8,1.2,0.8
		c0.5-0.1,0.6-0.6,1-0.7c0.2,0,0.4-0.1,0.7-0.1c0.7-0.1,1.5-0.1,2.2,0c0.9,0,1.8,0,2.7-0.1c0.5-0.1,1.1-0.1,1.6-0.2
		c0.2,0,0.4-0.2,0.6-0.2c0.2,0,0.6-0.2,0.7-0.1c0.1,0.1,0,0.2,0,0.3c0,0.1-0.1,0.2-0.1,0.2c-0.1,0.2-0.2,0.4-0.3,0.5
		c-0.2,0.3-0.4,0.6-0.7,0.9c-0.2,0.4-0.5,0.7-0.8,1c-0.3,0.2-0.7,0.4-1,0.5c-0.7,0.3-1.2,1.6-0.3,2.1c0.7,0.4,1.9-0.5,1.9-1.3
		c0-0.3-0.1-0.6-0.1-0.9c0-0.2,0.1-0.3,0.1-0.4c0.1-0.2,0.2-0.4,0.4-0.6c0.1-0.2,0.3-0.3,0.4-0.5c0.3-0.4,0.6-0.9,0.9-1.3
		c0.2-0.3,0.5-0.6,0.8-0.8c0.3-0.1,0.6-0.2,0.9-0.3c0.3-0.1,0.6-0.2,0.9-0.3c0.2-0.1,0.4-0.2,0.6-0.2c0.3-0.1,0.6-0.2,0.9-0.4
		c0.3-0.2,0.7-0.3,1-0.5c0.5-0.2,0.9-0.5,1.4-0.8c0.2-0.1,0.5-0.2,0.7-0.3c0.4,0,0.2,0.4,0.1,0.7c-0.1,0.3-0.2,0.6-0.3,0.9
		c-0.2,0.6-0.3,1.3-0.4,1.9c-0.1,0.4,0.1,0.9-0.3,1.3c-0.1,0.1-0.3,0.1-0.4,0.1c-0.2,0-0.3,0.2-0.4,0.3c-0.2,0.2-0.3,0.4-0.3,0.6
		c0,0.7,0.4,1.3,1.1,1.5c0.8,0.1,1.6-0.5,1.8-1.3c0.2-0.5-0.3-0.8-0.6-1.1c-0.2-0.1-0.3-0.3-0.4-0.6c0-0.3,0.1-0.5,0.1-0.8
		c0-0.5,0.1-1.1,0.2-1.6c0.1-0.5,0.2-0.9,0.4-1.3c0.1-0.2,0.2-0.5,0.3-0.7c0.2-0.4,0.5-0.5,0.7-0.8c0.3-0.3,0.8-0.6,1.2-0.7
		c0.2-0.1,0.5-0.3,0.7-0.5c0.2-0.1,0.3-0.2,0.5-0.3c0.4-0.3,0.8-0.5,1.2-0.8c0.2-0.2,0.5-0.3,0.7-0.5c0.2-0.1,0.3-0.3,0.5-0.4
		c0.5-0.3,1.1-0.7,1.6-1.1c0.5-0.3,0.9-0.6,1.4-0.9c0.4-0.2,0.9-0.3,1.2-0.7c0.2-0.2,0.7-0.7,0.8-0.2c0.1,0.3-0.2,0.6-0.3,0.8
		c-0.2,0.5-0.4,1-0.6,1.5c-0.2,0.5-0.3,0.9-0.4,1.4c-0.1,0.4-0.3,1.1-0.7,1.3c-0.2,0.1-0.5,0-0.7,0.2s-0.4,0.4-0.5,0.6
		c-0.3,0.5-0.3,1.2,0,1.7c0.2,0.3,0.6,0.6,1,0.6c0.9,0,1.7-0.6,1.9-1.5c0-0.4-0.2-0.8-0.5-1.1c-0.6-0.9,0-2.3,0.3-3.2
		c0.2-0.6,0.5-1.2,0.8-1.8c0.1-0.3,0.3-0.6,0.5-0.9c0.4-0.4,0.9-0.7,1.4-0.9c0.3-0.1,0.6-0.3,0.9-0.5c0.4-0.2,0.8-0.4,1.2-0.5
		C241.7,7.1,242.5,6.8,243.2,6.5z"/>
	<path id="Path_14691" class="st0" d="M221.7,29c-0.3,0-0.5,0-0.8-0.1c-0.2,0-0.3,0-0.5,0c-0.5,0-1-0.1-1.5-0.2s-1.1-0.1-1.6-0.1
		c-0.8-0.1-1.5-0.2-2.3-0.4c-0.7-0.2-1.4-0.3-2-0.6c-0.7-0.3-1.5-0.5-2.2-0.9c-0.4-0.2-0.8-0.4-1.2-0.5c-0.3-0.1-0.6-0.3-0.9-0.5
		c-0.5-0.2-1-0.5-1.4-0.9c-0.2-0.3-0.4-0.6-0.5-0.9c-0.3-0.6-0.6-1.2-0.8-1.8c-0.3-0.9-1-2.3-0.3-3.2c0.3-0.3,0.5-0.7,0.5-1.1
		c-0.1-0.9-1-1.6-1.9-1.5c-0.4,0-0.8,0.2-1,0.6c-0.3,0.5-0.3,1.2,0,1.7c0.1,0.2,0.3,0.5,0.5,0.6s0.5,0.1,0.7,0.2
		c0.4,0.2,0.6,0.8,0.7,1.3c0.1,0.5,0.2,1,0.4,1.4c0.2,0.5,0.4,1,0.6,1.5c0.1,0.2,0.3,0.5,0.3,0.8c-0.1,0.5-0.6,0.1-0.8-0.2
		c-0.3-0.4-0.8-0.4-1.2-0.7c-0.5-0.3-0.9-0.6-1.4-0.9s-1.1-0.7-1.6-1.1c-0.2-0.1-0.4-0.2-0.5-0.4c-0.2-0.2-0.5-0.3-0.7-0.5
		c-0.4-0.3-0.8-0.5-1.2-0.8c-0.1-0.1-0.3-0.2-0.5-0.3c-0.2-0.2-0.4-0.3-0.7-0.5c-0.4-0.1-0.9-0.4-1.2-0.7c-0.3-0.3-0.6-0.5-0.7-0.8
		c-0.1-0.2-0.2-0.5-0.3-0.7c-0.1-0.4-0.3-0.9-0.4-1.3c-0.1-0.5-0.2-1.1-0.2-1.6c0-0.3-0.1-0.6-0.1-0.8s0.2-0.4,0.4-0.6
		c0.3-0.3,0.8-0.6,0.6-1.1c-0.2-0.8-1-1.4-1.8-1.3c-0.7,0.1-1.2,0.8-1.1,1.5c0,0.2,0.2,0.5,0.3,0.6s0.3,0.2,0.4,0.3
		c0.2,0,0.3,0,0.4,0.1c0.4,0.4,0.2,0.9,0.3,1.3c0.1,0.6,0.2,1.3,0.4,1.9c0.1,0.3,0.2,0.6,0.3,0.9c0.1,0.3,0.3,0.6-0.1,0.7
		c-0.3,0-0.5-0.1-0.7-0.3c-0.5-0.2-0.9-0.5-1.4-0.8c-0.3-0.2-0.7-0.3-1-0.5c-0.3-0.2-0.6-0.3-0.9-0.4c-0.2,0-0.4-0.1-0.6-0.2
		c-0.3-0.2-0.6-0.3-0.9-0.3c-0.3,0-0.6-0.1-0.9-0.3c-0.3-0.2-0.6-0.5-0.8-0.8c-0.3-0.5-0.6-0.9-0.9-1.3c-0.1-0.2-0.3-0.3-0.4-0.5
		c-0.1-0.2-0.3-0.4-0.4-0.6c-0.1-0.1-0.1-0.3-0.1-0.4c0-0.3,0.1-0.6,0.1-0.9c0-0.7-1.2-1.7-1.9-1.3c-0.9,0.5-0.4,1.8,0.3,2.1
		c0.4,0.1,0.7,0.3,1,0.5c0.3,0.3,0.6,0.6,0.8,1c0.2,0.3,0.5,0.6,0.7,0.9c0.1,0.2,0.2,0.3,0.3,0.5c0,0.1,0.1,0.2,0.1,0.2
		c0,0.1,0.1,0.2,0,0.3s-0.5,0-0.7-0.1c-0.2,0-0.4-0.1-0.6-0.2c-0.5-0.1-1.1-0.2-1.6-0.2c-0.9-0.1-1.8-0.1-2.7-0.1
		c-0.7,0-1.5,0-2.2,0c-0.2,0-0.5,0-0.7-0.1c-0.4-0.2-0.5-0.6-1-0.7c-0.5-0.1-1,0.3-1.2,0.8c-0.3,0.5-0.1,1.2,0.5,1.5
		c0.1,0,0.2,0.1,0.3,0.1c0.5,0.1,1-0.1,1.2-0.5c0.2-0.2,0.5-0.4,0.8-0.4s0.5-0.1,0.8-0.1c1.6-0.1,3.3,0,4.9,0.2
		c0.6,0.1,1.2,0.2,1.7,0.4c0.3,0.1,0.6,0.1,0.9,0.2c0.2,0.1,0.5,0.1,0.7,0.2c0.2,0,0.5,0.1,0.7,0.1c0.1,0-0.4,0.2-0.4,0.3
		c-0.2,0.1-0.4,0.2-0.6,0.3c-0.4,0.2-0.8,0.3-1.2,0.4c-0.5,0.3-1.1,0.6-1.7,0.8c-0.6,0.1-1.1-0.3-1.6-0.2c-0.5,0.2-0.9,0.6-1,1.1
		c-0.2,1,1.4,1.8,2.1,1c0.2-0.3,0.3-0.6,0.6-0.9c0.7-0.7,1.6-1.2,2.5-1.5c0.5-0.2,1-0.4,1.5-0.6c0.5-0.1,0.9-0.2,1.4-0.1
		c0.6,0.2,1.2,0.4,1.8,0.7c0.7,0.3,1.4,0.7,2.1,1.1c0.3,0.1,0.6,0.3,0.9,0.5c0.2,0.2,0.4,0.3,0.6,0.5c0.2,0.1,0.4,0.1,0.6,0.2
		c0.4,0.4-0.3,0.4-0.5,0.5c-0.4,0.1-0.8,0.3-1.2,0.4c-0.3,0.2-0.7,0.4-1,0.5c-0.5,0.2-1.1,0.2-1.7-0.1c-0.5-0.4-1.2-0.3-1.6,0.1
		c-0.4,0.5-0.3,1.2,0.2,1.7c0.2,0.1,0.3,0.1,0.5,0.1c0.5,0,0.9-0.2,1.2-0.5c0.1-0.3,0.3-0.5,0.6-0.6c0.2,0,0.4-0.1,0.6-0.2
		c0.4-0.2,0.9-0.4,1.3-0.6c0.5-0.2,1-0.4,1.6-0.6c0.4-0.1,0.7-0.1,1.1,0c0.4,0.1,0.7,0.2,1,0.5c0.4,0.3,0.9,0.6,1.3,0.9
		c0.2,0.2,0.5,0.3,0.7,0.5s0.6,0.3,0.7,0.6c-0.3,0.2-0.7,0.1-1,0.3c-0.7,0.2-1.3,0.6-1.8,1.2c-0.2,0.2-0.3,0.5-0.5,0.7
		c-0.2,0.3-0.4,0.5-0.6,0.8c-0.1,0.1-0.2,0.2-0.4,0.2s-0.4-0.1-0.6,0c-0.3,0.1-0.5,0.2-0.7,0.4c-0.3,0.6-0.1,1.2,0.3,1.6
		c0.6,0.4,1.5,0.2,1.8-0.5c0-0.1,0.1-0.1,0.1-0.2c0.2-0.4-0.1-0.6-0.2-0.9c0-0.3,0.1-0.6,0.3-0.8c0.2-0.3,0.3-0.5,0.5-0.8
		c0.3-0.4,0.7-0.8,1.2-1.1c0.6-0.4,1.4-0.6,2.1-0.4c0.6,0.1,1.2,0.4,1.7,0.9c0.4,0.4,0.9,0.7,1.5,1c0.5,0.3,1.1,0.5,1.6,0.7
		c0.4,0.1,0.8,0.3,1.2,0.6c0.5,0.3,2,0.5,0.9,1.2c-0.4,0.2-0.7,0.5-1,0.8c-0.5,0.4-0.9,0.9-1.4,1.3c-0.3,0.3-0.4,0.3-0.8,0.2
		c-0.2-0.1-0.4-0.1-0.6-0.1c-0.8-0.1-1.7,0.6-1.6,1.4c0,0.1,0.1,0.3,0.1,0.4c0.2,0.3,0.5,0.6,0.9,0.8c0.6,0.1,1.3-0.2,1.6-0.7
		c0.1-0.3,0.2-0.5,0.2-0.8c0.1-0.3,0.5-0.6,0.7-0.9c0.3-0.3,0.6-0.6,0.9-1c0.5-0.7,1.3-1.1,2.1-1.3c0.8,0,1.6,0.2,2.3,0.5
		c1.8,0.6,3.7,1.1,5.6,1.5c0.9,0.2,1.9,0.4,2.8,0.5c0.3,0,1,0.3,1.2,0.1c0.2-0.2,0.3-0.5,0.3-0.8C222.2,28.9,222,29,221.7,29z"/>
	<path id="Path_14692" class="st0" d="M182.9,6.5c0.7-0.2,1.4-0.3,2-0.6c0.7-0.2,1.5-0.4,2.3-0.4c0.5-0.1,1.1-0.1,1.6-0.1
		c0.5-0.1,1-0.1,1.5-0.2c0.2,0,0.3,0,0.5,0c0.2-0.1,0.5-0.1,0.8-0.1c0.2,0,0.5,0.1,0.6-0.2c0-0.3-0.1-0.6-0.3-0.8
		c-0.2-0.2-0.9,0-1.2,0.1c-1,0.1-1.9,0.3-2.8,0.5c-1.9,0.4-3.8,0.9-5.6,1.5c-0.7,0.4-1.5,0.6-2.3,0.5c-0.8-0.2-1.6-0.6-2.1-1.3
		c-0.3-0.3-0.6-0.6-0.9-1c-0.2-0.3-0.6-0.6-0.7-0.9c0-0.3-0.1-0.6-0.2-0.8c-0.3-0.5-1-0.8-1.6-0.7c-0.4,0.1-0.7,0.4-0.9,0.8
		c-0.1,0.1-0.1,0.3-0.1,0.4c-0.1,0.9,0.8,1.5,1.6,1.4c0.2,0,0.4-0.1,0.6-0.1c0.4-0.1,0.4-0.1,0.8,0.2c0.5,0.4,0.9,0.9,1.4,1.3
		c0.3,0.3,0.6,0.6,1,0.8c1.1,0.7-0.4,0.9-0.9,1.2c-0.4,0.2-0.8,0.4-1.2,0.6c-0.6,0.2-1.1,0.5-1.6,0.7s-1,0.6-1.5,1
		c-0.5,0.5-1.1,0.8-1.7,0.9c-0.7,0.2-1.5,0-2.2-0.4c-0.5-0.3-0.9-0.7-1.2-1.1c-0.2-0.3-0.3-0.6-0.5-0.8s-0.3-0.5-0.3-0.8
		c0.1-0.4,0.3-0.5,0.2-0.9c-0.3-0.7-1.1-1-1.7-0.8c-0.1,0-0.1,0.1-0.2,0.1c-0.5,0.4-0.6,1.1-0.3,1.6c0.2,0.2,0.5,0.4,0.7,0.4
		c0.2,0.1,0.4-0.1,0.6,0c0.2,0,0.3,0.1,0.4,0.2c0.2,0.2,0.4,0.5,0.6,0.8c0.2,0.2,0.3,0.5,0.5,0.7c0.5,0.6,1.1,1,1.8,1.2
		c0.3,0.1,0.7,0.1,1,0.3c-0.1,0.2-0.5,0.4-0.7,0.6c-0.2,0.2-0.4,0.3-0.7,0.5c-0.4,0.3-0.9,0.6-1.3,0.9c-0.3,0.2-0.6,0.4-1,0.5
		c-0.4,0-0.7,0-1.1,0c-0.5-0.1-1.1-0.3-1.6-0.6c-0.4-0.2-0.9-0.4-1.3-0.6c-0.2-0.1-0.4-0.1-0.6-0.2c-0.3-0.1-0.5-0.3-0.6-0.6
		c-0.3-0.4-0.7-0.6-1.2-0.5c-0.2,0-0.4,0.1-0.5,0.1c-0.5,0.4-0.6,1.2-0.2,1.7c0.4,0.4,1.1,0.5,1.6,0.1c0.5-0.2,1.1-0.3,1.7-0.1
		c0.4,0.2,0.7,0.3,1,0.5c0.4,0.2,0.8,0.3,1.2,0.4c0.2,0.1,0.9,0.1,0.5,0.5c-0.2,0.1-0.4,0.1-0.6,0.2c-0.2,0.1-0.4,0.3-0.6,0.5
		c-0.3,0.2-0.6,0.4-0.9,0.5c-0.7,0.4-1.4,0.7-2.1,1.1c-0.6,0.3-1.1,0.5-1.7,0.7c-0.5,0.1-0.9,0.1-1.4-0.1s-1-0.3-1.5-0.6
		c-0.9-0.3-1.8-0.8-2.5-1.5c-0.3-0.3-0.3-0.6-0.6-0.9c-0.7-0.8-2.3-0.1-2.1,1c0.1,0.5,0.5,1,1,1.1c0.6,0.1,1.1-0.4,1.6-0.2
		c0.6,0.2,1.2,0.5,1.7,0.8c0.4,0.2,0.8,0.3,1.2,0.4c0.2,0.1,0.4,0.2,0.6,0.3c0,0,0.5,0.2,0.4,0.3c-0.2,0.1-0.5,0.1-0.7,0.1
		c-0.2,0.1-0.5,0.1-0.7,0.2c-0.3,0.1-0.6,0.1-0.9,0.2c-0.6,0.2-1.2,0.3-1.7,0.4c-1.6,0.2-3.2,0.3-4.9,0.2c-0.3,0-0.5-0.1-0.8-0.1
		s-0.6-0.2-0.8-0.4c-0.3-0.4-0.8-0.6-1.2-0.5c-0.6,0.1-1,0.7-0.8,1.3c0,0.1,0.1,0.2,0.1,0.3c0.2,0.5,0.7,0.8,1.2,0.8
		c0.5-0.1,0.6-0.6,1-0.7c0.2,0,0.4-0.1,0.7-0.1c0.7-0.1,1.5-0.1,2.2,0c0.9,0,1.8,0,2.7-0.1c0.5-0.1,1.1-0.1,1.6-0.2
		c0.2,0,0.4-0.2,0.6-0.2c0.2,0,0.6-0.2,0.7-0.1c0.1,0.1,0,0.2,0,0.3c0,0.1-0.1,0.2-0.1,0.2c-0.1,0.2-0.2,0.4-0.3,0.5
		c-0.2,0.3-0.4,0.6-0.7,0.9c-0.2,0.4-0.5,0.7-0.8,1c-0.3,0.2-0.7,0.4-1,0.5c-0.7,0.3-1.2,1.6-0.3,2.1c0.7,0.4,1.9-0.5,1.9-1.3
		c0-0.3-0.1-0.6-0.1-0.9c0-0.2,0.1-0.3,0.1-0.4c0.1-0.2,0.2-0.4,0.4-0.6c0.1-0.2,0.3-0.3,0.4-0.5c0.3-0.4,0.6-0.9,0.9-1.3
		c0.2-0.3,0.5-0.6,0.8-0.8c0.3-0.1,0.6-0.2,0.9-0.3c0.3-0.1,0.6-0.2,0.9-0.3c0.2-0.1,0.4-0.2,0.6-0.2c0.3-0.1,0.6-0.2,0.9-0.4
		c0.3-0.2,0.7-0.3,1-0.5c0.5-0.2,0.9-0.5,1.4-0.8c0.2-0.1,0.5-0.2,0.7-0.3c0.4,0,0.2,0.4,0.1,0.7c-0.1,0.3-0.2,0.6-0.3,0.9
		c-0.2,0.6-0.3,1.3-0.4,1.9c-0.1,0.4,0.1,0.9-0.3,1.3c-0.1,0.1-0.3,0.1-0.4,0.1c-0.2,0-0.3,0.2-0.4,0.3c-0.2,0.2-0.3,0.4-0.3,0.6
		c0,0.7,0.4,1.3,1.1,1.5c0.8,0.1,1.6-0.5,1.8-1.3c0.2-0.5-0.3-0.8-0.6-1.1c-0.2-0.1-0.3-0.3-0.4-0.6c0-0.3,0.1-0.5,0.1-0.8
		c0-0.5,0.1-1.1,0.2-1.6c0.1-0.5,0.2-0.9,0.4-1.3c0.1-0.2,0.2-0.5,0.3-0.7c0.2-0.4,0.5-0.5,0.7-0.8c0.3-0.3,0.7-0.6,1.2-0.7
		c0.2-0.1,0.5-0.3,0.7-0.5c0.2-0.1,0.3-0.2,0.5-0.3c0.4-0.3,0.8-0.5,1.2-0.8c0.2-0.2,0.5-0.3,0.7-0.5c0.2-0.1,0.3-0.3,0.5-0.4
		c0.5-0.3,1.1-0.7,1.6-1.1c0.5-0.3,0.9-0.6,1.4-0.9c0.4-0.2,0.8-0.3,1.2-0.7c0.2-0.2,0.7-0.7,0.8-0.2c0.1,0.3-0.2,0.6-0.3,0.8
		c-0.2,0.5-0.4,1-0.6,1.5c-0.2,0.5-0.3,0.9-0.4,1.4c-0.1,0.4-0.3,1.1-0.7,1.3c-0.2,0.1-0.5,0-0.7,0.2s-0.4,0.4-0.5,0.6
		c-0.3,0.5-0.3,1.2,0,1.7c0.2,0.3,0.6,0.6,1,0.6c0.9,0,1.7-0.6,1.9-1.5c0-0.4-0.2-0.8-0.5-1.1c-0.6-0.9,0-2.3,0.3-3.2
		c0.2-0.6,0.5-1.2,0.8-1.8c0.1-0.3,0.3-0.6,0.5-0.9c0.4-0.4,0.9-0.7,1.4-0.9c0.3-0.1,0.6-0.3,0.9-0.5c0.4-0.2,0.8-0.4,1.2-0.5
		C181.4,7.1,182.2,6.8,182.9,6.5z"/>
	<path id="Path_14693" class="st0" d="M161.5,29c-0.3,0-0.5,0-0.8-0.1c-0.2,0-0.3,0-0.5,0c-0.5,0-1-0.1-1.5-0.2s-1.1-0.1-1.6-0.1
		c-0.8-0.1-1.5-0.2-2.3-0.4c-0.7-0.2-1.4-0.3-2-0.6c-0.8-0.3-1.5-0.5-2.2-0.9c-0.4-0.2-0.8-0.4-1.2-0.5c-0.3-0.1-0.6-0.3-0.9-0.5
		c-0.5-0.2-1-0.5-1.4-0.9c-0.2-0.3-0.4-0.6-0.5-0.9c-0.3-0.6-0.6-1.2-0.8-1.8c-0.3-0.9-1-2.3-0.3-3.2c0.3-0.3,0.5-0.7,0.5-1.1
		c-0.1-0.9-1-1.6-1.9-1.5c-0.4,0-0.8,0.2-1,0.6c-0.3,0.5-0.3,1.2,0,1.7c0.1,0.2,0.3,0.5,0.5,0.6s0.5,0.1,0.7,0.2
		c0.4,0.2,0.6,0.8,0.7,1.3c0.1,0.5,0.2,1,0.4,1.4c0.2,0.5,0.4,1,0.6,1.5c0.1,0.2,0.3,0.5,0.3,0.8c-0.1,0.5-0.6,0.1-0.8-0.2
		c-0.3-0.4-0.8-0.4-1.2-0.7c-0.5-0.3-0.9-0.6-1.4-0.9s-1.1-0.7-1.6-1.1c-0.2-0.1-0.4-0.2-0.5-0.4c-0.2-0.2-0.5-0.3-0.7-0.5
		c-0.4-0.3-0.8-0.5-1.2-0.8c-0.1-0.1-0.3-0.2-0.5-0.3c-0.2-0.2-0.4-0.3-0.7-0.5c-0.4-0.1-0.9-0.4-1.2-0.7c-0.3-0.3-0.6-0.5-0.7-0.8
		c-0.1-0.2-0.2-0.5-0.3-0.7c-0.1-0.4-0.3-0.9-0.4-1.3c-0.1-0.5-0.2-1.1-0.2-1.6c0-0.3-0.1-0.6-0.1-0.8s0.2-0.4,0.4-0.6
		c0.3-0.3,0.8-0.6,0.6-1.1c-0.2-0.8-1-1.4-1.8-1.3c-0.7,0.1-1.2,0.8-1.1,1.5c0,0.2,0.2,0.5,0.3,0.6s0.3,0.2,0.4,0.3
		c0.2,0,0.3,0,0.4,0.1c0.4,0.4,0.2,0.9,0.3,1.3c0.1,0.6,0.2,1.3,0.4,1.9c0.1,0.3,0.2,0.6,0.3,0.9c0.1,0.3,0.3,0.6-0.1,0.7
		c-0.3,0-0.5-0.1-0.7-0.3c-0.5-0.2-0.9-0.5-1.4-0.8c-0.3-0.2-0.7-0.3-1-0.5c-0.3-0.2-0.6-0.3-0.9-0.4c-0.2,0-0.4-0.1-0.6-0.2
		c-0.3-0.2-0.6-0.3-0.9-0.3c-0.3,0-0.6-0.1-0.9-0.3c-0.3-0.2-0.6-0.5-0.8-0.8c-0.3-0.5-0.6-0.9-0.9-1.3c-0.1-0.2-0.3-0.3-0.4-0.5
		s-0.3-0.4-0.4-0.6c-0.1-0.1-0.1-0.3-0.1-0.4c0-0.3,0.1-0.6,0.1-0.9c0-0.7-1.2-1.7-1.9-1.3c-0.9,0.5-0.4,1.8,0.3,2.1
		c0.4,0.1,0.7,0.3,1,0.5c0.3,0.3,0.6,0.6,0.8,1c0.2,0.3,0.5,0.6,0.7,0.9c0.1,0.2,0.2,0.3,0.3,0.5c0,0.1,0.1,0.2,0.1,0.2
		c0,0.1,0.1,0.2,0,0.3s-0.5,0-0.7-0.1c-0.2,0-0.4-0.1-0.6-0.2c-0.5-0.1-1.1-0.2-1.6-0.2c-0.9-0.1-1.8-0.1-2.7-0.1
		c-0.7,0-1.5,0-2.2,0c-0.2,0-0.5,0-0.7-0.1c-0.4-0.2-0.5-0.6-1-0.7c-0.5-0.1-1,0.3-1.2,0.8c-0.3,0.5-0.1,1.2,0.5,1.5
		c0.1,0,0.2,0.1,0.3,0.1c0.5,0.1,1-0.1,1.2-0.5c0.2-0.2,0.5-0.4,0.8-0.4s0.5-0.1,0.8-0.1c1.6-0.1,3.3,0,4.9,0.2
		c0.6,0.1,1.2,0.2,1.7,0.4c0.3,0.1,0.6,0.1,0.9,0.2c0.2,0.1,0.5,0.1,0.7,0.2c0.2,0,0.5,0.1,0.7,0.1c0.1,0-0.4,0.2-0.4,0.3
		c-0.2,0.1-0.4,0.2-0.6,0.3c-0.4,0.2-0.8,0.3-1.2,0.4c-0.5,0.3-1.1,0.6-1.7,0.8c-0.6,0.1-1.1-0.3-1.6-0.2c-0.5,0.2-0.9,0.6-1,1.1
		c-0.2,1,1.4,1.8,2.1,1c0.2-0.3,0.3-0.6,0.6-0.9c0.7-0.7,1.6-1.2,2.5-1.5c0.5-0.2,1-0.4,1.5-0.6c0.5-0.1,0.9-0.2,1.4-0.1
		c0.6,0.2,1.2,0.4,1.7,0.7c0.7,0.3,1.4,0.7,2.1,1.1c0.3,0.1,0.6,0.3,0.9,0.5c0.2,0.2,0.4,0.3,0.6,0.5c0.2,0.1,0.4,0.1,0.6,0.2
		c0.4,0.4-0.3,0.4-0.5,0.5c-0.4,0.1-0.8,0.3-1.2,0.4c-0.3,0.2-0.7,0.4-1,0.5c-0.5,0.2-1.1,0.2-1.7-0.1c-0.5-0.4-1.2-0.3-1.6,0.1
		c-0.4,0.5-0.3,1.2,0.2,1.7c0.2,0.1,0.3,0.1,0.5,0.1c0.5,0,0.9-0.2,1.2-0.5c0.1-0.3,0.3-0.5,0.6-0.6c0.2,0,0.4-0.1,0.6-0.2
		c0.4-0.2,0.9-0.4,1.3-0.6c0.5-0.2,1-0.4,1.6-0.6c0.4-0.1,0.7-0.1,1.1,0c0.4,0.1,0.7,0.2,1,0.5c0.4,0.3,0.9,0.6,1.3,0.9
		c0.2,0.2,0.5,0.3,0.7,0.5s0.6,0.3,0.7,0.6c-0.3,0.2-0.7,0.1-1,0.3c-0.7,0.2-1.3,0.6-1.8,1.2c-0.2,0.2-0.3,0.5-0.5,0.7
		c-0.2,0.3-0.4,0.5-0.6,0.8c-0.1,0.1-0.2,0.2-0.4,0.2s-0.4-0.1-0.6,0c-0.3,0.1-0.5,0.2-0.7,0.4c-0.3,0.6-0.1,1.2,0.3,1.6
		c0.6,0.4,1.5,0.2,1.8-0.5c0-0.1,0.1-0.1,0.1-0.2c0.2-0.4-0.1-0.6-0.2-0.9c0-0.3,0.1-0.6,0.3-0.8c0.2-0.3,0.3-0.5,0.5-0.8
		c0.3-0.4,0.7-0.8,1.2-1.1c0.6-0.4,1.4-0.6,2.1-0.4c0.6,0.1,1.2,0.4,1.7,0.9c0.4,0.4,0.9,0.7,1.5,1c0.5,0.3,1.1,0.5,1.6,0.7
		c0.4,0.1,0.8,0.3,1.2,0.6c0.5,0.3,2,0.5,0.9,1.2c-0.4,0.2-0.7,0.5-1,0.8c-0.5,0.4-0.9,0.9-1.4,1.3c-0.3,0.3-0.4,0.3-0.8,0.2
		c-0.2-0.1-0.4-0.1-0.6-0.1c-0.8-0.1-1.7,0.6-1.6,1.4c0,0.1,0.1,0.3,0.1,0.4c0.2,0.3,0.5,0.6,0.9,0.8c0.6,0.1,1.3-0.2,1.6-0.7
		c0.1-0.3,0.2-0.5,0.2-0.8c0.1-0.3,0.5-0.6,0.7-0.9c0.3-0.3,0.6-0.6,0.9-1c0.5-0.7,1.3-1.1,2.1-1.3c0.8,0,1.6,0.2,2.3,0.5
		c1.8,0.6,3.7,1.1,5.6,1.5c0.9,0.2,1.9,0.4,2.8,0.5c0.3,0,1,0.3,1.2,0.1c0.2-0.2,0.3-0.5,0.3-0.8C162,28.9,161.7,29,161.5,29z"/>
	<path id="Path_14694" class="st0" d="M122.7,6.5c0.7-0.2,1.4-0.3,2-0.6c0.7-0.2,1.5-0.4,2.3-0.4c0.5-0.1,1.1-0.1,1.6-0.1
		c0.5-0.1,1-0.1,1.5-0.2c0.2,0,0.3,0,0.5,0c0.2-0.1,0.5-0.1,0.8-0.1c0.2,0,0.5,0.1,0.6-0.2c0-0.3-0.1-0.6-0.3-0.8
		c-0.2-0.2-0.9,0-1.2,0.1c-1,0.1-1.9,0.3-2.9,0.5c-1.9,0.4-3.8,0.9-5.6,1.5c-0.7,0.4-1.5,0.6-2.3,0.5c-0.8-0.2-1.6-0.6-2.1-1.3
		c-0.3-0.3-0.6-0.6-0.9-1c-0.2-0.3-0.6-0.6-0.7-0.9c0-0.3-0.1-0.6-0.2-0.8c-0.3-0.5-1-0.8-1.6-0.7c-0.4,0.1-0.7,0.4-0.9,0.8
		c-0.1,0.1-0.1,0.3-0.1,0.4c-0.1,0.9,0.8,1.5,1.6,1.4c0.2,0,0.4-0.1,0.6-0.1c0.4-0.1,0.4-0.1,0.8,0.2c0.5,0.4,0.9,0.9,1.4,1.3
		c0.3,0.3,0.6,0.6,1,0.8c1.1,0.7-0.4,0.9-0.9,1.2c-0.4,0.2-0.8,0.4-1.2,0.6c-0.6,0.2-1.1,0.5-1.6,0.7s-1,0.6-1.5,1
		c-0.5,0.5-1.1,0.8-1.7,0.9c-0.7,0.2-1.5,0-2.1-0.4c-0.5-0.3-0.9-0.7-1.2-1.1c-0.2-0.3-0.3-0.6-0.5-0.8s-0.3-0.5-0.3-0.8
		c0.1-0.4,0.3-0.5,0.2-0.9c-0.3-0.7-1.1-1-1.7-0.8c-0.1,0-0.1,0.1-0.2,0.1c-0.5,0.4-0.6,1.1-0.3,1.6c0.2,0.2,0.5,0.4,0.7,0.4
		c0.2,0.1,0.4-0.1,0.6,0c0.2,0,0.3,0.1,0.4,0.2c0.2,0.2,0.4,0.5,0.6,0.8c0.2,0.2,0.3,0.5,0.5,0.7c0.5,0.6,1.1,1,1.8,1.2
		c0.3,0.1,0.7,0.1,1,0.3c-0.1,0.2-0.5,0.4-0.7,0.6c-0.2,0.2-0.4,0.3-0.7,0.5c-0.4,0.3-0.9,0.6-1.3,0.9c-0.3,0.2-0.6,0.4-1,0.5
		c-0.4,0-0.7,0-1.1,0c-0.5-0.1-1.1-0.3-1.6-0.6c-0.4-0.2-0.9-0.4-1.3-0.6c-0.2-0.1-0.4-0.1-0.6-0.2c-0.3-0.1-0.5-0.3-0.6-0.6
		c-0.3-0.4-0.7-0.6-1.2-0.5c-0.2,0-0.4,0.1-0.5,0.1c-0.5,0.4-0.6,1.2-0.2,1.7c0.4,0.4,1.1,0.5,1.6,0.1c0.5-0.2,1.1-0.3,1.7-0.1
		c0.4,0.2,0.7,0.3,1,0.5c0.4,0.2,0.8,0.3,1.2,0.4c0.2,0.1,0.9,0.1,0.5,0.5c-0.2,0.1-0.4,0.1-0.6,0.2c-0.2,0.1-0.4,0.3-0.6,0.5
		c-0.3,0.2-0.6,0.4-0.9,0.5c-0.7,0.4-1.4,0.7-2.1,1.1c-0.6,0.3-1.1,0.5-1.7,0.7c-0.5,0.1-0.9,0.1-1.4-0.1s-1-0.3-1.5-0.6
		c-0.9-0.3-1.8-0.8-2.5-1.5c-0.3-0.3-0.3-0.6-0.6-0.9c-0.7-0.8-2.3-0.1-2.1,1c0.1,0.5,0.5,1,1,1.1c0.6,0.1,1.1-0.4,1.6-0.2
		c0.6,0.2,1.2,0.5,1.7,0.8c0.4,0.2,0.8,0.3,1.2,0.4c0.2,0.1,0.4,0.2,0.6,0.3c0,0,0.5,0.2,0.4,0.3c-0.2,0.1-0.5,0.1-0.7,0.1
		c-0.2,0.1-0.5,0.1-0.7,0.2c-0.3,0.1-0.6,0.1-0.9,0.2c-0.6,0.2-1.2,0.3-1.7,0.4c-1.6,0.2-3.2,0.3-4.9,0.2c-0.3,0-0.5-0.1-0.8-0.1
		s-0.6-0.2-0.8-0.4c-0.3-0.4-0.8-0.6-1.2-0.5c-0.6,0.1-1,0.7-0.8,1.3c0,0.1,0.1,0.2,0.1,0.3c0.2,0.5,0.7,0.8,1.2,0.8
		c0.5-0.1,0.6-0.6,1-0.7c0.2,0,0.4-0.1,0.7-0.1c0.7-0.1,1.5-0.1,2.2,0c0.9,0,1.8,0,2.7-0.1c0.5-0.1,1.1-0.1,1.6-0.2
		c0.2,0,0.4-0.2,0.6-0.2s0.6-0.2,0.7-0.1s0,0.2,0,0.3c0,0.1-0.1,0.2-0.1,0.2c-0.1,0.2-0.2,0.4-0.3,0.5c-0.2,0.3-0.4,0.6-0.7,0.9
		c-0.2,0.4-0.5,0.7-0.8,1c-0.3,0.2-0.7,0.4-1,0.5c-0.7,0.3-1.2,1.6-0.3,2.1c0.7,0.4,1.9-0.5,1.9-1.3c0-0.3-0.1-0.6-0.1-0.9
		c0-0.2,0.1-0.3,0.1-0.4c0.1-0.2,0.2-0.4,0.4-0.6c0.1-0.2,0.3-0.3,0.4-0.5c0.3-0.4,0.6-0.9,0.9-1.3c0.2-0.3,0.5-0.6,0.8-0.8
		c0.3-0.1,0.6-0.2,0.9-0.3c0.3-0.1,0.6-0.2,0.9-0.3c0.2-0.1,0.4-0.2,0.6-0.2c0.3-0.1,0.6-0.2,0.9-0.4c0.3-0.2,0.7-0.3,1-0.5
		c0.5-0.2,0.9-0.5,1.4-0.8c0.2-0.1,0.5-0.2,0.7-0.3c0.4,0,0.2,0.4,0.1,0.7c-0.1,0.3-0.2,0.6-0.3,0.9c-0.2,0.6-0.3,1.3-0.4,1.9
		c-0.1,0.4,0.1,0.9-0.3,1.3c-0.1,0.1-0.3,0.1-0.4,0.1c-0.2,0-0.3,0.2-0.4,0.3c-0.2,0.2-0.3,0.4-0.3,0.6c0,0.7,0.4,1.3,1.1,1.5
		c0.8,0.1,1.6-0.5,1.8-1.3c0.2-0.5-0.3-0.8-0.6-1.1c-0.2-0.1-0.3-0.3-0.4-0.6c0-0.3,0.1-0.5,0.1-0.8c0-0.5,0.1-1.1,0.2-1.6
		s0.2-0.9,0.4-1.3c0.1-0.2,0.2-0.5,0.3-0.7c0.2-0.4,0.5-0.5,0.7-0.8c0.3-0.3,0.8-0.6,1.2-0.7c0.2-0.1,0.5-0.3,0.7-0.5
		c0.2-0.1,0.3-0.2,0.5-0.3c0.4-0.3,0.8-0.5,1.2-0.8c0.2-0.2,0.5-0.3,0.7-0.5c0.2-0.1,0.3-0.3,0.5-0.4c0.5-0.3,1.1-0.7,1.6-1.1
		c0.5-0.3,0.9-0.6,1.4-0.9c0.4-0.2,0.8-0.3,1.2-0.7c0.2-0.2,0.7-0.7,0.8-0.2c0.1,0.3-0.2,0.6-0.3,0.8c-0.2,0.5-0.4,1-0.6,1.5
		s-0.3,0.9-0.4,1.4c-0.1,0.4-0.3,1.1-0.7,1.3c-0.2,0.1-0.5,0-0.7,0.2s-0.4,0.4-0.5,0.6c-0.3,0.5-0.3,1.2,0,1.7
		c0.2,0.3,0.6,0.6,1,0.6c0.9,0,1.7-0.6,1.9-1.5c0-0.4-0.2-0.8-0.5-1.1c-0.6-0.9,0-2.3,0.3-3.2c0.2-0.6,0.5-1.2,0.8-1.8
		c0.1-0.3,0.3-0.6,0.5-0.9c0.4-0.4,0.9-0.7,1.4-0.9c0.3-0.1,0.6-0.3,0.9-0.5c0.4-0.2,0.8-0.4,1.2-0.5C121.1,7.1,121.9,6.8,122.7,6.5
		z"/>
	<path id="Path_14695" class="st0" d="M101.2,29c-0.3,0-0.5,0-0.8-0.1c-0.2,0-0.3,0-0.5,0c-0.5,0-1-0.1-1.5-0.2s-1.1-0.1-1.6-0.1
		c-0.8-0.1-1.5-0.2-2.3-0.4c-0.7-0.2-1.4-0.3-2-0.6c-0.7-0.3-1.5-0.5-2.2-0.9c-0.4-0.2-0.8-0.4-1.2-0.5c-0.3-0.1-0.6-0.3-0.9-0.5
		c-0.5-0.2-1-0.5-1.4-0.9c-0.2-0.3-0.4-0.6-0.5-0.9c-0.3-0.6-0.6-1.2-0.8-1.8c-0.3-0.9-1-2.3-0.3-3.2c0.3-0.3,0.5-0.7,0.5-1.1
		c-0.1-0.9-1-1.6-1.9-1.5c-0.4,0-0.8,0.2-1,0.6c-0.3,0.5-0.3,1.2,0,1.7c0.1,0.2,0.3,0.5,0.5,0.6s0.5,0.1,0.7,0.2
		c0.4,0.2,0.6,0.8,0.7,1.3s0.2,1,0.4,1.4c0.2,0.5,0.4,1,0.6,1.5c0.1,0.2,0.3,0.5,0.3,0.8c-0.1,0.5-0.6,0.1-0.8-0.2
		c-0.3-0.4-0.8-0.4-1.2-0.7c-0.5-0.3-0.9-0.6-1.4-0.9s-1.1-0.7-1.6-1.1c-0.2-0.1-0.4-0.2-0.5-0.4c-0.2-0.2-0.5-0.3-0.7-0.5
		c-0.4-0.3-0.8-0.5-1.2-0.8c-0.1-0.1-0.3-0.2-0.5-0.3c-0.2-0.2-0.4-0.3-0.7-0.5c-0.4-0.1-0.9-0.4-1.2-0.7c-0.3-0.3-0.6-0.5-0.7-0.8
		c-0.1-0.2-0.2-0.5-0.3-0.7c-0.1-0.4-0.3-0.9-0.4-1.3c-0.1-0.5-0.2-1.1-0.2-1.6c0-0.3-0.1-0.6-0.1-0.8s0.2-0.4,0.4-0.6
		c0.3-0.3,0.8-0.6,0.6-1.1c-0.2-0.8-1-1.4-1.8-1.3c-0.7,0.1-1.2,0.8-1.1,1.5c0,0.2,0.2,0.5,0.3,0.6c0.1,0.1,0.3,0.2,0.4,0.3
		c0.2,0,0.3,0,0.4,0.1c0.4,0.4,0.2,0.9,0.3,1.3c0.1,0.6,0.2,1.3,0.4,1.9c0.1,0.3,0.2,0.6,0.3,0.9c0.1,0.3,0.3,0.6-0.1,0.7
		c-0.3,0-0.5-0.1-0.7-0.3c-0.5-0.2-0.9-0.5-1.4-0.8c-0.3-0.2-0.7-0.3-1-0.5c-0.3-0.2-0.6-0.3-0.9-0.4c-0.2,0-0.4-0.1-0.6-0.2
		c-0.3-0.2-0.6-0.3-0.9-0.3s-0.6-0.1-0.9-0.3s-0.6-0.5-0.8-0.8c-0.3-0.5-0.6-0.9-0.9-1.3c-0.1-0.2-0.3-0.3-0.4-0.5s-0.3-0.4-0.4-0.6
		c-0.1-0.1-0.1-0.3-0.1-0.4c0-0.3,0.1-0.6,0.1-0.9c0-0.7-1.2-1.7-1.9-1.3c-0.9,0.5-0.4,1.8,0.3,2.1c0.4,0.1,0.7,0.3,1,0.5
		c0.3,0.3,0.6,0.6,0.8,1c0.2,0.3,0.5,0.6,0.7,0.9c0.1,0.2,0.2,0.3,0.3,0.5c0,0.1,0.1,0.2,0.1,0.2c0,0.1,0.1,0.2,0,0.3
		s-0.5,0-0.7-0.1c-0.2,0-0.4-0.1-0.6-0.2c-0.5-0.1-1.1-0.2-1.6-0.2C63,14,62.1,14,61.2,14c-0.7,0-1.5,0-2.2,0c-0.2,0-0.5,0-0.7-0.1
		c-0.4-0.2-0.5-0.6-1-0.7c-0.5-0.1-1,0.3-1.2,0.8c-0.3,0.5-0.1,1.2,0.5,1.5c0.1,0,0.2,0.1,0.3,0.1c0.5,0.1,1-0.1,1.2-0.5
		c0.2-0.2,0.5-0.4,0.8-0.4s0.5-0.1,0.8-0.1c1.6-0.1,3.3,0,4.9,0.2c0.6,0.1,1.2,0.2,1.7,0.4c0.3,0.1,0.6,0.1,0.9,0.2
		c0.2,0.1,0.5,0.1,0.7,0.2c0.2,0,0.5,0.1,0.7,0.1c0.1,0-0.4,0.2-0.4,0.3c-0.2,0.1-0.4,0.2-0.6,0.3c-0.4,0.2-0.8,0.3-1.2,0.4
		c-0.5,0.3-1.1,0.6-1.7,0.8c-0.6,0.1-1.1-0.3-1.6-0.2c-0.5,0.2-0.9,0.6-1,1.1c-0.2,1,1.4,1.8,2.1,1c0.2-0.3,0.3-0.6,0.6-0.9
		c0.7-0.7,1.6-1.2,2.5-1.5c0.5-0.2,1-0.4,1.5-0.6c0.5-0.1,0.9-0.2,1.4-0.1c0.6,0.2,1.2,0.4,1.8,0.7c0.7,0.3,1.4,0.7,2.1,1.1
		c0.3,0.1,0.6,0.3,0.9,0.5c0.2,0.2,0.4,0.3,0.6,0.5c0.2,0.1,0.4,0.1,0.6,0.2c0.4,0.4-0.3,0.4-0.5,0.5c-0.4,0.1-0.8,0.3-1.2,0.4
		c-0.3,0.2-0.7,0.4-1,0.5c-0.5,0.2-1.1,0.2-1.7-0.1c-0.5-0.4-1.2-0.3-1.6,0.1c-0.4,0.5-0.3,1.2,0.2,1.7c0.2,0.1,0.3,0.1,0.5,0.1
		c0.5,0,0.9-0.2,1.2-0.5c0.1-0.3,0.3-0.5,0.6-0.6c0.2,0,0.4-0.1,0.6-0.2c0.4-0.2,0.9-0.4,1.3-0.6c0.5-0.2,1-0.4,1.6-0.6
		c0.4-0.1,0.7-0.1,1.1,0s0.7,0.2,1,0.5c0.4,0.3,0.9,0.6,1.3,0.9c0.2,0.2,0.5,0.3,0.7,0.5s0.6,0.3,0.7,0.6c-0.3,0.2-0.7,0.1-1,0.3
		c-0.7,0.2-1.3,0.6-1.8,1.2c-0.2,0.2-0.3,0.5-0.5,0.7c-0.2,0.3-0.4,0.5-0.6,0.8c-0.1,0.1-0.2,0.2-0.4,0.2c-0.2,0-0.4-0.1-0.6,0
		c-0.3,0.1-0.5,0.2-0.7,0.4c-0.3,0.6-0.1,1.2,0.3,1.6c0.6,0.4,1.5,0.2,1.8-0.5c0-0.1,0.1-0.1,0.1-0.2c0.2-0.4-0.1-0.6-0.2-0.9
		c0-0.3,0.1-0.6,0.3-0.8c0.2-0.3,0.3-0.5,0.5-0.8c0.3-0.4,0.7-0.8,1.2-1.1c0.6-0.4,1.4-0.6,2.1-0.4c0.6,0.1,1.2,0.4,1.7,0.9
		c0.4,0.4,0.9,0.7,1.5,1c0.5,0.3,1.1,0.5,1.6,0.7c0.4,0.1,0.8,0.3,1.2,0.6c0.5,0.3,2,0.5,0.9,1.2c-0.4,0.2-0.7,0.5-1,0.8
		c-0.5,0.4-0.9,0.9-1.4,1.3c-0.3,0.3-0.4,0.3-0.8,0.2c-0.2-0.1-0.4-0.1-0.6-0.1c-0.8-0.1-1.7,0.6-1.6,1.4c0,0.1,0.1,0.3,0.1,0.4
		c0.2,0.3,0.5,0.6,0.9,0.8c0.6,0.1,1.3-0.2,1.6-0.7c0.1-0.3,0.2-0.5,0.2-0.8c0.1-0.3,0.5-0.6,0.7-0.9c0.3-0.3,0.6-0.6,0.9-1
		c0.5-0.7,1.3-1.1,2.1-1.3c0.8,0,1.6,0.2,2.3,0.5c1.8,0.6,3.7,1.1,5.6,1.5c0.9,0.2,1.9,0.4,2.8,0.5c0.3,0,1,0.3,1.2,0.1
		c0.2-0.2,0.3-0.5,0.3-0.8C101.7,28.9,101.4,29,101.2,29z"/>
	<path id="Path_14696" class="st0" d="M65.9,6.5c0.7-0.2,1.4-0.3,2-0.6c0.7-0.2,1.5-0.4,2.3-0.4c0.5-0.1,1.1-0.1,1.6-0.1
		c0.5-0.1,1-0.1,1.5-0.2c0.2,0,0.3,0,0.5,0c0.2-0.1,0.5-0.1,0.8-0.1c0.2,0,0.5,0.1,0.6-0.2c0-0.3-0.1-0.6-0.3-0.8
		c-0.2-0.2-0.9,0-1.2,0.1c-1,0.1-1.9,0.3-2.8,0.5c-1.9,0.4-3.8,0.9-5.6,1.5c-0.7,0.4-1.5,0.6-2.3,0.5c-0.8-0.2-1.6-0.6-2.1-1.3
		c-0.3-0.3-0.6-0.6-0.9-1c-0.2-0.3-0.6-0.6-0.7-0.9c0-0.3-0.1-0.6-0.2-0.8c-0.3-0.5-1-0.8-1.6-0.7c-0.4,0.1-0.7,0.4-0.9,0.8
		c-0.1,0.1-0.1,0.3-0.1,0.4c-0.1,0.9,0.8,1.5,1.6,1.4c0.2,0,0.4-0.1,0.6-0.1C59,4.4,59,4.4,59.3,4.7c0.5,0.4,0.9,0.9,1.4,1.3
		c0.3,0.3,0.6,0.6,1,0.8c1.1,0.7-0.4,0.9-0.9,1.2c-0.4,0.2-0.8,0.4-1.2,0.6C59,8.8,58.5,9.1,58,9.3s-1,0.6-1.5,1
		c-0.5,0.5-1.1,0.8-1.7,0.9c-0.7,0.2-1.5,0-2.2-0.4c-0.5-0.3-0.9-0.7-1.2-1.1c-0.2-0.3-0.3-0.6-0.5-0.8s-0.3-0.5-0.3-0.8
		c0.1-0.4,0.3-0.5,0.2-0.9c-0.3-0.7-1.1-1-1.7-0.8c-0.1,0-0.1,0.1-0.2,0.1c-0.5,0.4-0.6,1.1-0.3,1.6c0.2,0.2,0.5,0.4,0.7,0.4
		c0.2,0.1,0.4-0.1,0.6,0c0.2,0,0.3,0.1,0.4,0.2c0.2,0.2,0.4,0.5,0.6,0.8c0.2,0.2,0.3,0.5,0.5,0.7c0.5,0.6,1.1,1,1.8,1.2
		c0.3,0.1,0.7,0.1,1,0.3c-0.1,0.2-0.5,0.4-0.7,0.6c-0.2,0.2-0.4,0.3-0.7,0.5c-0.4,0.3-0.9,0.6-1.3,0.9c-0.3,0.2-0.6,0.4-1,0.5
		c-0.4,0-0.7,0-1.1,0c-0.5-0.1-1.1-0.3-1.6-0.6c-0.4-0.2-0.9-0.4-1.3-0.6c-0.2-0.1-0.4-0.1-0.6-0.2c-0.3-0.1-0.5-0.3-0.6-0.6
		c-0.3-0.4-0.7-0.6-1.2-0.5c-0.2,0-0.4,0.1-0.5,0.1c-0.5,0.4-0.6,1.2-0.2,1.7c0.4,0.4,1.1,0.5,1.6,0.1c0.5-0.2,1.1-0.3,1.7-0.1
		c0.4,0.2,0.7,0.3,1,0.5c0.4,0.2,0.8,0.3,1.2,0.4c0.2,0.1,0.9,0.1,0.5,0.5C49.2,15,49,15,48.8,15.1c-0.2,0.1-0.4,0.3-0.6,0.5
		c-0.3,0.2-0.6,0.4-0.9,0.5c-0.7,0.4-1.4,0.7-2.1,1.1c-0.6,0.3-1.1,0.5-1.7,0.7C43,18,42.6,18,42.1,17.8s-1-0.3-1.5-0.6
		c-0.9-0.3-1.8-0.8-2.5-1.5c-0.3-0.3-0.3-0.6-0.6-0.9c-0.7-0.8-2.3-0.1-2.1,1c0.1,0.5,0.5,1,1,1.1c0.6,0.1,1.1-0.4,1.6-0.2
		c0.6,0.2,1.2,0.5,1.7,0.8c0.4,0.2,0.8,0.3,1.2,0.4c0.2,0.1,0.4,0.2,0.6,0.3c0,0,0.5,0.2,0.4,0.3c-0.2,0.1-0.5,0.1-0.7,0.1
		c-0.2,0.1-0.5,0.1-0.7,0.2c-0.3,0.1-0.6,0.1-0.9,0.2c-0.6,0.2-1.2,0.3-1.7,0.4c-1.6,0.2-3.2,0.3-4.9,0.2c-0.3,0-0.5-0.1-0.8-0.1
		s-0.6-0.2-0.8-0.4c-0.3-0.4-0.8-0.6-1.2-0.5c-0.6,0.1-1,0.7-0.8,1.3c0,0.1,0.1,0.2,0.1,0.3c0.2,0.5,0.7,0.8,1.2,0.8
		c0.5-0.1,0.6-0.6,1-0.7c0.2,0,0.4-0.1,0.7-0.1c0.7-0.1,1.5-0.1,2.2,0c0.9,0,1.8,0,2.7-0.1c0.5-0.1,1.1-0.1,1.6-0.2
		c0.2,0,0.4-0.2,0.6-0.2c0.2,0,0.6-0.2,0.7-0.1c0.1,0.1,0,0.2,0,0.3c0,0.1-0.1,0.2-0.1,0.2c-0.1,0.2-0.2,0.4-0.3,0.5
		c-0.2,0.3-0.4,0.6-0.7,0.9c-0.2,0.4-0.5,0.7-0.8,1c-0.3,0.2-0.7,0.4-1,0.5c-0.7,0.3-1.2,1.6-0.3,2.1c0.7,0.4,1.9-0.5,1.9-1.3
		c0-0.3-0.1-0.6-0.1-0.9c0-0.2,0.1-0.3,0.1-0.4c0.1-0.2,0.2-0.4,0.4-0.6c0.1-0.2,0.3-0.3,0.4-0.5c0.3-0.4,0.6-0.9,0.9-1.3
		c0.2-0.3,0.5-0.6,0.8-0.8c0.3-0.1,0.6-0.2,0.9-0.3c0.3-0.1,0.6-0.2,0.9-0.3c0.2-0.1,0.4-0.2,0.6-0.2c0.3-0.1,0.6-0.2,0.9-0.4
		c0.3-0.2,0.7-0.3,1-0.5c0.5-0.2,0.9-0.5,1.4-0.8c0.2-0.2,0.5-0.2,0.7-0.3c0.4,0,0.2,0.4,0.1,0.7c-0.1,0.3-0.2,0.6-0.3,0.9
		c-0.2,0.6-0.3,1.3-0.4,1.9c-0.1,0.4,0.1,0.9-0.3,1.3c-0.1,0.1-0.3,0.1-0.4,0.1c-0.2,0-0.3,0.2-0.4,0.3c-0.2,0.2-0.3,0.4-0.3,0.6
		c0,0.7,0.4,1.3,1.1,1.5c0.8,0.1,1.6-0.5,1.8-1.3c0.2-0.5-0.3-0.8-0.6-1.1c-0.2-0.1-0.3-0.3-0.4-0.6c0-0.3,0.1-0.5,0.1-0.8
		c0-0.5,0.1-1.1,0.2-1.6c0.1-0.5,0.2-0.9,0.4-1.3c0.1-0.2,0.2-0.5,0.3-0.7c0.2-0.4,0.5-0.5,0.7-0.8c0.3-0.3,0.8-0.6,1.2-0.7
		c0.2-0.1,0.5-0.3,0.7-0.5c0.2-0.1,0.3-0.2,0.5-0.3c0.4-0.3,0.8-0.5,1.2-0.8c0.2-0.2,0.5-0.3,0.7-0.5c0.2-0.1,0.3-0.3,0.5-0.4
		c0.5-0.3,1.1-0.7,1.6-1.1c0.5-0.3,0.9-0.6,1.4-0.9c0.4-0.2,0.8-0.3,1.2-0.7c0.2-0.2,0.7-0.7,0.8-0.2c0.1,0.3-0.2,0.6-0.3,0.8
		c-0.2,0.5-0.4,1-0.6,1.5c-0.2,0.5-0.3,0.9-0.4,1.4c-0.1,0.4-0.3,1.1-0.7,1.3c-0.2,0.1-0.5,0-0.7,0.2s-0.4,0.4-0.5,0.6
		c-0.3,0.5-0.3,1.2,0,1.7c0.2,0.3,0.6,0.6,1,0.6c0.9,0,1.7-0.6,1.9-1.5c0-0.4-0.2-0.8-0.5-1.1c-0.6-0.9,0-2.3,0.3-3.2
		c0.2-0.6,0.5-1.2,0.8-1.8c0.1-0.3,0.3-0.6,0.5-0.9c0.4-0.4,0.9-0.7,1.4-0.9c0.3-0.1,0.6-0.3,0.9-0.5c0.4-0.2,0.8-0.4,1.2-0.5
		C64.4,7.1,65.1,6.8,65.9,6.5z"/>
	<path id="Path_14697" class="st0" d="M40.3,29c-0.3,0-0.5,0-0.8-0.1c-0.2,0-0.3,0-0.5,0c-0.5,0-1-0.1-1.5-0.2s-1.1-0.1-1.6-0.1
		c-0.8-0.1-1.5-0.2-2.3-0.4c-0.7-0.2-1.4-0.3-2-0.6c-0.7-0.3-1.5-0.5-2.2-0.9c-0.4-0.2-0.8-0.4-1.2-0.5c-0.3-0.1-0.6-0.3-0.9-0.5
		c-0.5-0.2-1-0.5-1.4-0.9c-0.2-0.3-0.4-0.6-0.5-0.9c-0.3-0.6-0.6-1.2-0.8-1.8c-0.3-0.9-1-2.3-0.3-3.2c0.3-0.3,0.5-0.7,0.5-1.1
		c-0.1-0.9-1-1.6-1.9-1.5c-0.4,0-0.8,0.2-1,0.6c-0.3,0.5-0.3,1.2,0,1.7c0.1,0.2,0.3,0.5,0.5,0.6s0.5,0.1,0.7,0.2
		c0.4,0.2,0.6,0.8,0.7,1.3s0.2,1,0.4,1.4c0.2,0.5,0.4,1,0.6,1.5c0.1,0.2,0.3,0.5,0.3,0.8c-0.1,0.5-0.6,0.1-0.8-0.2
		c-0.3-0.4-0.8-0.4-1.2-0.7c-0.5-0.3-0.9-0.6-1.4-0.9s-1.1-0.7-1.6-1.1c-0.2-0.1-0.4-0.2-0.5-0.4c-0.2-0.2-0.5-0.3-0.7-0.5
		c-0.4-0.3-0.8-0.5-1.2-0.8c-0.1-0.1-0.3-0.2-0.5-0.3c-0.2-0.2-0.4-0.3-0.7-0.5c-0.4-0.1-0.9-0.4-1.2-0.7c-0.3-0.3-0.6-0.5-0.7-0.8
		c-0.1-0.2-0.2-0.5-0.3-0.7c-0.1-0.4-0.3-0.9-0.4-1.3c-0.1-0.5-0.2-1.1-0.2-1.6c0-0.3-0.1-0.6-0.1-0.8s0.2-0.4,0.4-0.6
		c0.3-0.3,0.8-0.6,0.6-1.1c-0.2-0.8-1-1.4-1.8-1.3c-0.7,0.1-1.2,0.8-1.1,1.5c0,0.2,0.2,0.5,0.3,0.6s0.3,0.2,0.4,0.3
		c0.2,0,0.3,0,0.4,0.1c0.4,0.4,0.2,0.9,0.3,1.3c0.1,0.6,0.2,1.3,0.4,1.9c0.1,0.3,0.2,0.6,0.3,0.9c0.1,0.3,0.3,0.6-0.1,0.7
		c-0.3,0-0.5-0.1-0.7-0.3c-0.5-0.2-0.9-0.5-1.4-0.8c-0.3-0.2-0.7-0.3-1-0.5c-0.3-0.2-0.6-0.3-0.9-0.4c-0.2,0-0.4-0.1-0.6-0.2
		c-0.3-0.2-0.6-0.3-0.9-0.3c-0.3,0-0.6-0.1-0.9-0.3s-0.6-0.5-0.8-0.8c-0.3-0.5-0.6-0.9-0.9-1.3c-0.1-0.2-0.3-0.3-0.4-0.5
		c-0.2,0-0.3-0.2-0.4-0.4c-0.1-0.1-0.1-0.3-0.1-0.4c0-0.3,0.1-0.6,0.1-0.9c0-0.7-1.2-1.7-1.9-1.3C2,9.5,2.4,10.7,3.1,11.1
		c0.4,0.1,0.7,0.3,1,0.5c0.3,0.3,0.6,0.6,0.8,1c0.2,0.3,0.5,0.6,0.7,0.9c0.1,0.2,0.2,0.3,0.3,0.5c0,0.1,0.1,0.2,0.1,0.2
		c0,0.1,0.1,0.2,0,0.3s-0.5,0-0.7-0.1c-0.2,0-0.4-0.1-0.6-0.2C4.2,14.1,3.6,14,3.1,14c-0.9,0-1.8,0-2.7,0c-0.1,0-0.3,0-0.4,0v0.4
		c1.3,0,2.6,0.1,3.8,0.3c0.6,0.1,1.2,0.2,1.7,0.4c0.3,0.1,0.6,0.1,0.9,0.2c0.2,0.1,0.5,0.1,0.7,0.2c0.2,0,0.5,0.1,0.7,0.1
		c0.1,0-0.4,0.2-0.4,0.3C7.2,16,7,16.1,6.8,16.2c-0.4,0.2-0.8,0.3-1.2,0.4c-0.5,0.3-1.1,0.6-1.7,0.8c-0.6,0.1-1.1-0.3-1.6-0.2
		c-0.5,0.2-0.9,0.6-1,1.1c-0.2,1,1.4,1.8,2.1,1C3.6,19,3.7,18.7,4,18.4c0.7-0.7,1.6-1.2,2.5-1.5c0.5-0.2,1-0.4,1.5-0.6
		c0.5-0.1,0.9-0.2,1.4-0.1c0.6,0.2,1.2,0.4,1.8,0.7c0.7,0.3,1.4,0.7,2.1,1.1c0.3,0.1,0.6,0.3,0.9,0.5c0.2,0.2,0.4,0.3,0.6,0.5
		c0.2,0.1,0.4,0.1,0.6,0.2c0.4,0.4-0.3,0.4-0.5,0.5c-0.4,0.1-0.8,0.3-1.2,0.4c-0.3,0.2-0.7,0.4-1,0.5c-0.5,0.2-1.1,0.2-1.7-0.1
		c-0.5-0.4-1.2-0.3-1.6,0.1c-0.4,0.5-0.3,1.2,0.2,1.7c0.2,0.1,0.3,0.1,0.5,0.1c0.5,0,0.9-0.2,1.2-0.5c0.1-0.3,0.3-0.5,0.6-0.6
		c0.2,0,0.4-0.1,0.6-0.2c0.4-0.2,0.9-0.4,1.3-0.6c0.5-0.2,1-0.4,1.6-0.6c0.4-0.1,0.7-0.1,1.1,0s0.7,0.2,1,0.5
		c0.4,0.3,0.9,0.6,1.3,0.9c0.2,0.2,0.5,0.3,0.7,0.5s0.6,0.3,0.7,0.6c-0.3,0.2-0.7,0.1-1,0.3c-0.7,0.2-1.3,0.6-1.8,1.2
		c-0.2,0.2-0.3,0.5-0.5,0.7c-0.2,0.3-0.4,0.5-0.6,0.8c-0.1,0.1-0.2,0.2-0.4,0.2c-0.2,0-0.4-0.1-0.6,0c-0.3,0.1-0.5,0.2-0.7,0.4
		c-0.3,0.6-0.1,1.2,0.3,1.6c0.6,0.4,1.5,0.2,1.8-0.5c0-0.1,0.1-0.1,0.1-0.2c0.2-0.4-0.1-0.6-0.2-0.9c0-0.3,0.1-0.6,0.3-0.8
		c0.2-0.3,0.3-0.5,0.5-0.8c0.3-0.4,0.7-0.8,1.2-1.1c0.6-0.4,1.4-0.6,2.1-0.4c0.6,0.1,1.2,0.4,1.7,0.9c0.4,0.4,0.9,0.7,1.5,1
		c0.5,0.3,1.1,0.5,1.6,0.7c0.4,0.1,0.8,0.3,1.2,0.6c0.5,0.3,2,0.5,0.9,1.2c-0.4,0.2-0.7,0.5-1,0.8c-0.5,0.4-0.9,0.9-1.4,1.3
		c-0.3,0.3-0.4,0.3-0.8,0.2c-0.2-0.1-0.4-0.1-0.6-0.1c-0.8-0.1-1.7,0.6-1.6,1.4c0,0.1,0.1,0.3,0.1,0.4c0.2,0.3,0.5,0.6,0.9,0.8
		c0.6,0.1,1.3-0.2,1.6-0.7c0.1-0.3,0.2-0.5,0.2-0.8c0.1-0.3,0.5-0.6,0.7-0.9c0.3-0.3,0.6-0.6,0.9-1c0.5-0.7,1.3-1.1,2.1-1.3
		c0.8,0,1.6,0.2,2.3,0.5c1.8,0.6,3.7,1.1,5.6,1.5c0.9,0.2,1.9,0.4,2.8,0.5c0.3,0,1,0.3,1.2,0.1c0.2-0.2,0.3-0.5,0.3-0.8
		C40.8,28.9,40.6,29,40.3,29z"/>
	<path id="Path_14698" class="st0" d="M3.4,5.4c0.5-0.1,1-0.1,1.5-0.2c0.2,0,0.3,0,0.5,0c0.2-0.1,0.5-0.1,0.8-0.1
		c0.2,0,0.5,0.1,0.6-0.2c0-0.3-0.1-0.6-0.3-0.8c-0.2-0.2-0.9,0-1.2,0.1c-1,0.1-1.9,0.3-2.8,0.5C1.6,4.8,0.8,5,0,5.2v0.6
		c0.6-0.1,1.2-0.2,1.8-0.3C2.3,5.5,2.9,5.5,3.4,5.4z"/>
</g>
</svg>
