<svg id="botanic-border-news" xmlns="http://www.w3.org/2000/svg" xmlns:xlink="http://www.w3.org/1999/xlink" width="364.089" height="22.333" viewBox="0 0 364.089 22.333">
  <defs>
    <clipPath id="clip-path">
      <rect width="364.089" height="22.333" fill="none"/>
    </clipPath>
  </defs>
  <g id="Repeat_Grid_1" data-name="Repeat Grid 1" clip-path="url(#clip-path)">
    <g id="Group_7853" data-name="Group 7853">
      <path id="Path_5073" data-name="Path 5073" d="M968.536,6029.432a3.072,3.072,0,0,1-.766-.7c-.116-.169-.192-.349-.322-.512-.42-.524-.054-1.341-.541-1.925-.332-.4-1.221-1.179-1.807-1.016-.711.2.343,1.728.513,2.027a1.973,1.973,0,0,0,.76.908,3.39,3.39,0,0,1,1.3.919,2.3,2.3,0,0,0,1.14.754c.21.089.424.038.63.17-.045.147-.333.267-.451.366a4.264,4.264,0,0,1-.426.315c-.276.185-.55.368-.827.55a1.192,1.192,0,0,1-.611.286,2.393,2.393,0,0,1-.706-.026,5.875,5.875,0,0,1-1.014-.35c-.737-.331-1.461-.684-2.227-.948a3.814,3.814,0,0,0-1.335-.306c-.4.021-1.319.36-1.294.862.054,1.045,2.159.66,2.745.575.343-.051.67-.232,1.008-.261.431-.038.686.241,1.05.4a6,6,0,0,0,.771.276c.146.041.59.076.337.306-.1.09-.262.091-.378.146a1.528,1.528,0,0,0-.357.288,3,3,0,0,1-.559.338c-.43.238-.867.464-1.313.673a5.912,5.912,0,0,1-1.112.463,1.805,1.805,0,0,1-.889-.059,8.783,8.783,0,0,1-.941-.361c-.738-.321-1.482-.67-2.2-1.031-.447-.226-1.341-.749-1.859-.516-.606.272-.224.864.15,1.15.664.509,1.286.27,2.044.228a4.483,4.483,0,0,1,1.755.42c.186.076.83.575,1.015.489a2.283,2.283,0,0,1-.443.1c-.151.036-.3.076-.451.111-.2.048-.4.087-.6.14a9.572,9.572,0,0,1-1.109.232,14.466,14.466,0,0,1-2.515.246c-.816-.035-1.567-.573-2.378-.555-.454.009-1.613.318-1.678.883-.06.521.992.672,1.369.749a3.749,3.749,0,0,0,1.848-.188,14.5,14.5,0,0,1,1.414-.529c.817-.183,1.647-.249,2.471-.387.137-.023.271-.1.409-.111.387-.033.484-.158.371.289a2.229,2.229,0,0,1-.677.973c-.475.422-1.069.566-1.475,1.086-.276.353-.741,1.228-.175,1.531.349.188.951-.077,1.243-.276,1.4-.963.541-2.888,1.89-3.806a1.953,1.953,0,0,1,.559-.179,2.3,2.3,0,0,0,.6-.214.819.819,0,0,1,.394-.1,1.944,1.944,0,0,0,.543-.247c.209-.1.42-.2.631-.3.3-.14.572-.337.868-.485a1.138,1.138,0,0,1,.471-.182c.235.021.116.224.054.416s-.116.379-.162.57c-.1.405-.106.835-.234,1.233-.27.833-1.245,1.323-1.092,2.307l.006.036c.082.5.152,2.35,1.029,1.8a3.264,3.264,0,0,0,.848-1.307,2,2,0,0,0-.113-1.672c-.276-.59.008-1.046-.107-1.628a2.636,2.636,0,0,1,.79-2.311,1.985,1.985,0,0,1,.76-.441,3.493,3.493,0,0,0,.433-.311,2.152,2.152,0,0,0,.29-.2c.226-.212.515-.323.751-.515.131-.106.311-.175.441-.288a2.466,2.466,0,0,1,.33-.252c.089-.055.177-.113.265-.17v-.647A1.792,1.792,0,0,1,968.536,6029.432Z" transform="translate(-743.604 -6023.256)" fill="#5e6850"/>
      <path id="Path_5074" data-name="Path 5074" d="M972.568,6022.918c-.471.1-.864.069-.574.66a2.048,2.048,0,0,0,.827.733v-1.43C972.738,6022.891,972.655,6022.9,972.568,6022.918Z" transform="translate(-746.732 -6022.871)" fill="#5e6850"/>
      <path id="Path_5075" data-name="Path 5075" d="M955.82,6042.428a2.587,2.587,0,0,1-.481-.061c-.1-.007-.19.016-.286.012a7.747,7.747,0,0,1-.971-.105c-.34-.06-.693-.052-1.036-.091a6.332,6.332,0,0,1-1.454-.275c-.415-.15-.86-.193-1.274-.351-.477-.182-.963-.343-1.428-.556-.262-.12-.525-.228-.787-.348-.2-.089-.37-.22-.566-.31a2.746,2.746,0,0,1-.863-.568,2.522,2.522,0,0,1-.342-.558,8.618,8.618,0,0,1-.5-1.17,4.637,4.637,0,0,1-.386-1.347c-.011-.4.269-.714.265-1.122-.008-.76-.361-3.725-1.621-3.473-.5.1-.5,1.515-.536,1.909-.107,1.111,1.219,1.829,1.6,2.8.275.7.389,1.457.706,2.144.066.142.2.335.168.511-.07.336-.378.049-.517-.1-.21-.229-.491-.254-.75-.413q-.453-.275-.9-.562c-.344-.22-.68-.455-1.026-.672a2.465,2.465,0,0,1-.33-.252c-.132-.114-.311-.182-.441-.288-.237-.191-.525-.3-.751-.514a2.121,2.121,0,0,0-.289-.206,3.663,3.663,0,0,0-.434-.31,1.994,1.994,0,0,1-.76-.442c-.163-.179-.372-.294-.467-.526-.064-.151-.12-.3-.172-.46a8.662,8.662,0,0,1-.235-.854,6.007,6.007,0,0,1-.222-2,9.394,9.394,0,0,0,.275-1.482c0-.483.069-2.54-.846-2.34-.687.151-.734,1.1-.7,1.661a2.383,2.383,0,0,0,.228.827,11.852,11.852,0,0,1,.681,1.464c.2.688.157,1.461.333,2.172.047.191.1.382.162.569s.182.4-.054.416a1.156,1.156,0,0,1-.471-.182c-.3-.148-.569-.345-.868-.485-.211-.1-.42-.2-.631-.3a1.933,1.933,0,0,0-.543-.248.833.833,0,0,1-.394-.1,2.273,2.273,0,0,0-.6-.213,1.934,1.934,0,0,1-.559-.18,1.65,1.65,0,0,1-.5-.52c-.169-.289-.371-.56-.553-.84-.071-.11-.163-.2-.234-.312-.424-.667-.457-1.448-.888-2.146-.24-.389-1.948-2.226-2.2-1.151-.209.9,1.083,2.238,1.8,2.578a3,3,0,0,1,.664.313,3.122,3.122,0,0,1,.51.649c.142.2.295.387.423.595a1.432,1.432,0,0,1,.168.342.974.974,0,0,0,.054.153c.026.053.078.121.023.176-.084.081-.347-.03-.447-.039-.139-.012-.271-.089-.409-.112-.34-.057-.683-.1-1.025-.14-.563-.06-1.128-.063-1.693-.086a9.61,9.61,0,0,1-1.389-.01,2.8,2.8,0,0,1-.43-.044c-.515-.21-.9-.583-1.463-.584a7.91,7.91,0,0,0-1.185.109c-.367.056-1.668.419-1.579.972.038.232.446.4.633.461a2.587,2.587,0,0,0,1.626-.028c.479-.13.98-.046,1.468-.17a9.528,9.528,0,0,1,1.629-.426,14.336,14.336,0,0,1,2.877.167,9.279,9.279,0,0,1,1.109.232c.2.052.4.091.6.14.151.035.3.075.451.112a1.719,1.719,0,0,1,.435.092c.039.021-.232.149-.26.163-.129.056-.248.13-.376.188-.249.11-.518.167-.764.285a5.919,5.919,0,0,1-1.817.619c-1.161.175-2.164.437-2.687,1.558-.229.493-.439,1.231.375,1.175a2.73,2.73,0,0,0,1.106-.545,9.927,9.927,0,0,0,1.169-.778,6.975,6.975,0,0,0,.762-.95,4.181,4.181,0,0,1,1.59-.961,8.589,8.589,0,0,1,.941-.36,1.793,1.793,0,0,1,.889-.059,5.887,5.887,0,0,1,1.111.463c.446.208.884.435,1.314.673a2.97,2.97,0,0,1,.559.339,1.536,1.536,0,0,0,.356.288c.116.056.28.056.377.145.254.231-.191.267-.337.308a5.973,5.973,0,0,0-.772.275,4.467,4.467,0,0,1-.642.349c-.441.107-.818-.05-1.235.073-.842.252-1.516.229-2.138.884-.336.354-1.087,1.1-1.074,1.632.021.883,1.6-.16,1.961-.355a3.787,3.787,0,0,0,1.349-.842,4.457,4.457,0,0,1,.913-1.05,6.566,6.566,0,0,1,1.933-.722,2.409,2.409,0,0,1,.706-.026,1.187,1.187,0,0,1,.61.287q.416.272.827.549a4.234,4.234,0,0,1,.427.315c.118.1.406.219.451.367-.205.132-.42.081-.629.17a2.6,2.6,0,0,0-1.142.756c-.306.387-.485.9-.953,1.112-.641.29-1.192.279-1.528,1a5.556,5.556,0,0,0-.461,2.206c.064,1.128,1.106.1,1.439-.294a9.893,9.893,0,0,0,1.038-1.59c.292-.551-.147-1.036.243-1.521.131-.164.206-.344.322-.513a3.081,3.081,0,0,1,.765-.7,1.813,1.813,0,0,1,1.365-.265,2.171,2.171,0,0,1,1.09.571,3.158,3.158,0,0,0,.936.627,8.683,8.683,0,0,0,1.024.473,3.466,3.466,0,0,1,.751.37c.229.136.873.2.816.555-.045.273-1.085.958-1.347,1.1-.425.229-.924.283-1.358.5-.676.342-.951.918-1.4,1.476-.331.41-1.136,1.081-.945,1.7.145.464,1.674-.729,1.8-.823a2.935,2.935,0,0,0,1.411-1.705c.039-.2.306-.4.428-.56.166-.22.374-.4.559-.608a2.4,2.4,0,0,1,1.343-.822,2.846,2.846,0,0,1,1.475.347,26.046,26.046,0,0,0,3.538.963c.6.121,1.2.221,1.81.3.183.025.621.167.777.045a.734.734,0,0,0,.193-.5C956.145,6042.388,955.975,6042.412,955.82,6042.428Z" transform="translate(-739.013 -6023.707)" fill="#5e6850"/>
      <path id="Path_5076" data-name="Path 5076" d="M921.488,6026.87c.464-.212.951-.374,1.427-.557.414-.159.86-.2,1.275-.35a6.29,6.29,0,0,1,1.453-.275c.343-.04.7-.033,1.037-.091a7.926,7.926,0,0,1,.97-.106c.1,0,.19.02.287.013a2.424,2.424,0,0,1,.48-.061c.155.016.325.04.4-.144a.739.739,0,0,0-.193-.5c-.156-.122-.594.02-.776.045-.606.083-1.21.182-1.81.3a26.086,26.086,0,0,0-3.538.963,2.86,2.86,0,0,1-1.475.348,2.4,2.4,0,0,1-1.343-.822c-.185-.2-.394-.387-.559-.609-.456-.605-.579-1.049-1.283-1.441a3.254,3.254,0,0,0-2.384-.667c-.471.1-.863.069-.575.66a2.085,2.085,0,0,0,.839.741,4.916,4.916,0,0,0,1.661.829c.444.058.911-.189,1.354-.04.373.125.657.6.93.866a4.369,4.369,0,0,0,.633.512c.7.462-.25.585-.58.781a3.436,3.436,0,0,1-.751.37,8.7,8.7,0,0,0-1.025.474,3.118,3.118,0,0,0-.936.627,2.161,2.161,0,0,1-1.09.571,1.82,1.82,0,0,1-1.366-.264,3.085,3.085,0,0,1-.765-.7c-.116-.169-.191-.349-.322-.512-.42-.524-.054-1.341-.541-1.925-.332-.4-1.22-1.179-1.807-1.016-.71.2.343,1.728.513,2.027a1.975,1.975,0,0,0,.76.908,3.387,3.387,0,0,1,1.3.919,2.3,2.3,0,0,0,1.141.754c.209.089.424.038.629.17-.045.147-.333.267-.451.366a4.479,4.479,0,0,1-.426.315q-.413.277-.827.55a1.188,1.188,0,0,1-.611.286,2.394,2.394,0,0,1-.706-.026,5.864,5.864,0,0,1-1.013-.35c-.737-.331-1.461-.684-2.228-.948a3.814,3.814,0,0,0-1.335-.306c-.4.021-1.319.36-1.293.862.054,1.045,2.159.66,2.744.575.344-.051.67-.232,1.008-.261.431-.038.687.241,1.05.4a6.042,6.042,0,0,0,.771.276c.147.041.59.076.337.306-.1.09-.261.091-.377.146a1.512,1.512,0,0,0-.357.288,3.05,3.05,0,0,1-.559.338c-.43.238-.868.464-1.314.673a5.912,5.912,0,0,1-1.112.463,1.8,1.8,0,0,1-.888-.059,8.806,8.806,0,0,1-.941-.361c-.737-.321-1.482-.67-2.2-1.031-.446-.226-1.34-.749-1.859-.516-.606.272-.224.864.151,1.15.664.509,1.285.27,2.043.228a4.483,4.483,0,0,1,1.755.42c.186.076.83.575,1.015.489a2.288,2.288,0,0,1-.442.1c-.151.036-.3.076-.451.111-.2.048-.4.087-.6.14a9.576,9.576,0,0,1-1.109.232,14.458,14.458,0,0,1-2.514.246c-.816-.035-1.568-.573-2.379-.555-.454.009-1.613.318-1.678.883-.06.521.993.672,1.369.749a3.748,3.748,0,0,0,1.848-.188,14.585,14.585,0,0,1,1.414-.529c.817-.183,1.647-.249,2.471-.387.138-.023.271-.1.41-.111.386-.033.484-.158.37.289a2.229,2.229,0,0,1-.677.973c-.475.422-1.068.566-1.475,1.086-.276.353-.74,1.228-.175,1.531.35.188.951-.077,1.243-.276,1.4-.963.541-2.888,1.891-3.806a1.956,1.956,0,0,1,.558-.179,2.273,2.273,0,0,0,.6-.214.822.822,0,0,1,.394-.1,1.933,1.933,0,0,0,.543-.247c.21-.1.42-.2.631-.3.3-.14.571-.337.868-.485a1.13,1.13,0,0,1,.471-.182c.235.021.117.224.054.416s-.116.379-.163.57c-.1.405-.106.835-.234,1.233-.271.833-1.246,1.323-1.092,2.307l.005.036c.083.5.152,2.35,1.029,1.8a3.257,3.257,0,0,0,.848-1.307,2,2,0,0,0-.113-1.672c-.275-.59.009-1.046-.106-1.628a2.636,2.636,0,0,1,.789-2.311,1.992,1.992,0,0,1,.76-.441,3.506,3.506,0,0,0,.434-.311,2.144,2.144,0,0,0,.289-.2c.227-.212.515-.323.751-.515.131-.106.311-.175.442-.288a2.412,2.412,0,0,1,.33-.252c.346-.218.681-.453,1.025-.672q.446-.286.9-.562c.259-.158.539-.185.75-.413.137-.15.446-.437.516-.1.037.176-.1.367-.168.511a9.392,9.392,0,0,0-.373.948,10.249,10.249,0,0,1-.317,1.156,2.98,2.98,0,0,1-.664.752,2.6,2.6,0,0,0-.531,1.811c0,.284-.068,1.51.256,1.605.76.224,1.755-2.135,1.688-2.637s-.462-.8-.473-1.309a4.25,4.25,0,0,1,.389-1.42,8.461,8.461,0,0,1,.5-1.169,2.536,2.536,0,0,1,.342-.558,2.743,2.743,0,0,1,.862-.568c.2-.088.371-.219.566-.309C920.962,6027.1,921.225,6026.99,921.488,6026.87Z" transform="translate(-734.83 -6022.868)" fill="#5e6850"/>
      <path id="Path_5077" data-name="Path 5077" d="M901.829,6042.428a2.578,2.578,0,0,1-.481-.061c-.1-.007-.19.016-.287.012a7.718,7.718,0,0,1-.97-.105c-.341-.06-.693-.052-1.037-.091a6.315,6.315,0,0,1-1.453-.275c-.415-.15-.861-.193-1.275-.351-.477-.182-.962-.343-1.427-.556-.262-.12-.526-.228-.788-.348-.194-.089-.371-.22-.566-.31a2.742,2.742,0,0,1-.862-.568,2.522,2.522,0,0,1-.342-.558,8.512,8.512,0,0,1-.5-1.17,4.637,4.637,0,0,1-.387-1.347c-.011-.4.269-.714.265-1.122-.008-.76-.36-3.725-1.621-3.473-.5.1-.5,1.515-.537,1.909-.107,1.111,1.219,1.829,1.6,2.8.275.7.389,1.457.706,2.144.067.142.205.335.168.511-.069.336-.378.049-.516-.1-.21-.229-.492-.254-.75-.413q-.452-.275-.9-.562c-.345-.22-.68-.455-1.027-.672a2.46,2.46,0,0,1-.329-.252c-.131-.114-.311-.182-.442-.288-.236-.191-.524-.3-.751-.514a2.067,2.067,0,0,0-.289-.206,3.657,3.657,0,0,0-.434-.31,2.007,2.007,0,0,1-.76-.442c-.163-.179-.372-.294-.467-.526q-.094-.226-.172-.46a8.453,8.453,0,0,1-.236-.854,6.027,6.027,0,0,1-.221-2,9.3,9.3,0,0,0,.274-1.482c0-.483.069-2.54-.845-2.34-.687.151-.734,1.1-.7,1.661a2.366,2.366,0,0,0,.229.827,11.846,11.846,0,0,1,.68,1.464c.2.688.157,1.461.333,2.172.048.191.1.382.162.569s.182.4-.054.416a1.152,1.152,0,0,1-.471-.182c-.3-.148-.569-.345-.868-.485-.211-.1-.421-.2-.632-.3a1.921,1.921,0,0,0-.543-.248.83.83,0,0,1-.394-.1,2.293,2.293,0,0,0-.6-.213,1.925,1.925,0,0,1-.559-.18,1.644,1.644,0,0,1-.5-.52c-.168-.289-.37-.56-.552-.84-.071-.11-.162-.2-.234-.312-.425-.667-.456-1.448-.887-2.146-.24-.389-1.948-2.226-2.2-1.151-.209.9,1.084,2.238,1.8,2.578a3.027,3.027,0,0,1,.663.313,3.151,3.151,0,0,1,.51.649c.143.2.3.387.424.595a1.5,1.5,0,0,1,.168.342.824.824,0,0,0,.054.153c.027.053.079.121.023.176-.084.081-.347-.03-.446-.039-.139-.012-.271-.089-.41-.112-.339-.057-.682-.1-1.025-.14-.563-.06-1.128-.063-1.693-.086a9.624,9.624,0,0,1-1.389-.01,2.774,2.774,0,0,1-.429-.044c-.516-.21-.9-.583-1.464-.584a7.906,7.906,0,0,0-1.184.109c-.368.056-1.669.419-1.58.972.037.232.446.4.633.461a2.587,2.587,0,0,0,1.626-.028c.478-.13.979-.046,1.467-.17a9.547,9.547,0,0,1,1.629-.426,14.344,14.344,0,0,1,2.878.167,9.264,9.264,0,0,1,1.108.232c.2.052.4.091.6.14.151.035.3.075.451.112a1.71,1.71,0,0,1,.436.092c.04.021-.232.149-.26.163-.129.056-.248.13-.376.188-.248.11-.518.167-.763.285a5.917,5.917,0,0,1-1.817.619c-1.161.175-2.163.437-2.686,1.558-.229.493-.44,1.231.375,1.175a2.725,2.725,0,0,0,1.1-.545,9.922,9.922,0,0,0,1.169-.778,7.052,7.052,0,0,0,.763-.95,4.179,4.179,0,0,1,1.589-.961,8.6,8.6,0,0,1,.941-.36,1.793,1.793,0,0,1,.889-.059,5.866,5.866,0,0,1,1.111.463c.447.208.884.435,1.315.673a2.991,2.991,0,0,1,.559.339,1.505,1.505,0,0,0,.357.288c.115.056.279.056.377.145.254.231-.191.267-.338.308a5.965,5.965,0,0,0-.771.275,4.51,4.51,0,0,1-.642.349c-.442.107-.818-.05-1.235.073-.843.252-1.517.229-2.139.884-.335.354-1.087,1.1-1.074,1.632.022.883,1.6-.16,1.961-.355a3.787,3.787,0,0,0,1.349-.842,4.46,4.46,0,0,1,.914-1.05,6.559,6.559,0,0,1,1.932-.722,2.415,2.415,0,0,1,.707-.026,1.186,1.186,0,0,1,.61.287c.276.182.551.365.827.549a4.53,4.53,0,0,1,.427.315c.117.1.406.219.451.367-.2.132-.419.081-.629.17a2.6,2.6,0,0,0-1.142.756c-.306.387-.485.9-.953,1.112-.641.29-1.192.279-1.527,1a5.558,5.558,0,0,0-.461,2.206c.064,1.128,1.107.1,1.44-.294a9.946,9.946,0,0,0,1.037-1.59c.292-.551-.147-1.036.243-1.521.131-.164.206-.344.322-.513a3.081,3.081,0,0,1,.765-.7,1.816,1.816,0,0,1,1.366-.265,2.169,2.169,0,0,1,1.09.571,3.147,3.147,0,0,0,.936.627,8.807,8.807,0,0,0,1.024.473,3.466,3.466,0,0,1,.751.37c.229.136.873.2.815.555-.044.273-1.085.958-1.346,1.1-.424.229-.924.283-1.357.5-.676.342-.951.918-1.4,1.476-.332.41-1.136,1.081-.945,1.7.145.464,1.675-.729,1.8-.823a2.939,2.939,0,0,0,1.412-1.705c.038-.2.3-.4.428-.56.166-.22.374-.4.559-.608a2.4,2.4,0,0,1,1.344-.822,2.85,2.85,0,0,1,1.475.347,25.98,25.98,0,0,0,3.538.963c.6.121,1.2.221,1.81.3.183.025.621.167.776.045a.739.739,0,0,0,.193-.5C902.154,6042.388,901.984,6042.412,901.829,6042.428Z" transform="translate(-730.239 -6023.707)" fill="#5e6850"/>
      <path id="Path_5078" data-name="Path 5078" d="M867.5,6026.87c.465-.212.951-.374,1.428-.557.414-.159.859-.2,1.274-.35a6.3,6.3,0,0,1,1.453-.275c.343-.04.7-.033,1.038-.091a7.876,7.876,0,0,1,.969-.106c.1,0,.19.02.287.013a2.424,2.424,0,0,1,.481-.061c.154.016.325.04.394-.144a.738.738,0,0,0-.193-.5c-.157-.122-.595.02-.777.045-.606.083-1.209.182-1.809.3a26.1,26.1,0,0,0-3.539.963,2.858,2.858,0,0,1-1.475.348,2.409,2.409,0,0,1-1.343-.822c-.185-.2-.393-.387-.559-.609-.456-.605-.579-1.049-1.283-1.441a3.256,3.256,0,0,0-2.385-.667c-.47.1-.863.069-.574.66a2.079,2.079,0,0,0,.839.741,4.912,4.912,0,0,0,1.66.829c.444.058.912-.189,1.355-.04.373.125.657.6.93.866a4.42,4.42,0,0,0,.633.512c.7.462-.25.585-.58.781a3.4,3.4,0,0,1-.751.37,8.688,8.688,0,0,0-1.024.474,3.119,3.119,0,0,0-.936.627,2.165,2.165,0,0,1-1.09.571,1.819,1.819,0,0,1-1.366-.264,3.072,3.072,0,0,1-.766-.7c-.116-.169-.192-.349-.322-.512-.42-.524-.054-1.341-.541-1.925-.331-.4-1.22-1.179-1.806-1.016-.71.2.343,1.728.513,2.027a1.976,1.976,0,0,0,.76.908,3.39,3.39,0,0,1,1.3.919,2.3,2.3,0,0,0,1.141.754c.21.089.425.038.63.17-.044.147-.333.267-.451.366a4.272,4.272,0,0,1-.426.315c-.276.185-.55.368-.827.55a1.186,1.186,0,0,1-.61.286,2.393,2.393,0,0,1-.706-.026,5.865,5.865,0,0,1-1.013-.35c-.738-.331-1.461-.684-2.228-.948a3.814,3.814,0,0,0-1.335-.306c-.4.021-1.32.36-1.294.862.054,1.045,2.159.66,2.745.575.343-.051.67-.232,1.008-.261.431-.038.687.241,1.05.4a6,6,0,0,0,.771.276c.146.041.59.076.337.306-.1.09-.261.091-.377.146a1.508,1.508,0,0,0-.356.288,3.024,3.024,0,0,1-.559.338c-.43.238-.868.464-1.314.673a5.949,5.949,0,0,1-1.111.463,1.8,1.8,0,0,1-.889-.059,8.731,8.731,0,0,1-.941-.361c-.738-.321-1.482-.67-2.2-1.031-.448-.226-1.341-.749-1.86-.516-.606.272-.224.864.15,1.15.665.509,1.286.27,2.044.228a4.483,4.483,0,0,1,1.755.42c.185.076.83.575,1.015.489a2.282,2.282,0,0,1-.443.1c-.15.036-.3.076-.451.111-.2.048-.4.087-.6.14a9.608,9.608,0,0,1-1.109.232,14.475,14.475,0,0,1-2.515.246c-.816-.035-1.568-.573-2.378-.555-.453.009-1.613.318-1.678.883-.06.521.992.672,1.369.749a3.745,3.745,0,0,0,1.847-.188,14.679,14.679,0,0,1,1.415-.529c.817-.183,1.647-.249,2.471-.387.138-.023.271-.1.41-.111.386-.033.483-.158.37.289a2.228,2.228,0,0,1-.677.973c-.474.422-1.069.566-1.475,1.086-.276.353-.74,1.228-.175,1.531.35.188.951-.077,1.242-.276,1.405-.963.542-2.888,1.891-3.806a1.958,1.958,0,0,1,.559-.179,2.283,2.283,0,0,0,.6-.214.824.824,0,0,1,.394-.1,1.939,1.939,0,0,0,.544-.247c.21-.1.42-.2.631-.3.3-.14.571-.337.868-.485a1.138,1.138,0,0,1,.471-.182c.235.021.116.224.054.416s-.116.379-.162.57c-.1.405-.1.835-.235,1.233-.27.833-1.245,1.323-1.092,2.307l.006.036c.083.5.152,2.35,1.029,1.8a3.265,3.265,0,0,0,.848-1.307,1.994,1.994,0,0,0-.114-1.672c-.275-.59.009-1.046-.105-1.628a2.633,2.633,0,0,1,.789-2.311,1.986,1.986,0,0,1,.76-.441,3.5,3.5,0,0,0,.433-.311,2.1,2.1,0,0,0,.289-.2c.227-.212.515-.323.752-.515.131-.106.31-.175.441-.288a2.461,2.461,0,0,1,.33-.252c.346-.218.682-.453,1.026-.672q.446-.286.9-.562c.26-.158.539-.185.75-.413.138-.15.446-.437.517-.1.036.176-.1.367-.168.511a9.352,9.352,0,0,0-.371.948,10.809,10.809,0,0,1-.318,1.156,2.976,2.976,0,0,1-.664.752,2.588,2.588,0,0,0-.531,1.811c0,.284-.068,1.51.256,1.605.76.224,1.754-2.135,1.687-2.637s-.462-.8-.472-1.309a4.228,4.228,0,0,1,.389-1.42,8.551,8.551,0,0,1,.5-1.169,2.567,2.567,0,0,1,.342-.558,2.752,2.752,0,0,1,.862-.568c.2-.088.372-.219.566-.309C866.971,6027.1,867.234,6026.99,867.5,6026.87Z" transform="translate(-726.056 -6022.868)" fill="#5e6850"/>
      <path id="Path_5079" data-name="Path 5079" d="M847.837,6042.428a2.57,2.57,0,0,1-.48-.061c-.1-.007-.191.016-.287.012a7.748,7.748,0,0,1-.971-.105c-.34-.06-.693-.052-1.036-.091a6.315,6.315,0,0,1-1.453-.275c-.415-.15-.861-.193-1.275-.351-.477-.182-.963-.343-1.428-.556-.261-.12-.525-.228-.787-.348-.2-.089-.37-.22-.567-.31a2.728,2.728,0,0,1-.861-.568,2.525,2.525,0,0,1-.343-.558,8.41,8.41,0,0,1-.495-1.17,4.612,4.612,0,0,1-.387-1.347c-.012-.4.269-.714.265-1.122-.008-.76-.361-3.725-1.621-3.473-.5.1-.5,1.515-.536,1.909-.107,1.111,1.219,1.829,1.6,2.8.275.7.389,1.457.706,2.144.066.142.2.335.168.511-.069.336-.378.049-.517-.1-.21-.229-.491-.254-.75-.413q-.452-.275-.9-.562c-.344-.22-.68-.455-1.025-.672a2.477,2.477,0,0,1-.331-.252c-.131-.114-.311-.182-.441-.288-.237-.191-.525-.3-.751-.514a2.071,2.071,0,0,0-.29-.206,3.584,3.584,0,0,0-.433-.31,1.994,1.994,0,0,1-.76-.442c-.164-.179-.372-.294-.467-.526-.064-.151-.12-.3-.172-.46a8.679,8.679,0,0,1-.235-.854,6.029,6.029,0,0,1-.222-2,9.216,9.216,0,0,0,.274-1.482c0-.483.07-2.54-.845-2.34-.687.151-.734,1.1-.7,1.661a2.383,2.383,0,0,0,.228.827,11.72,11.72,0,0,1,.681,1.464c.2.688.157,1.461.333,2.172.048.191.1.382.162.569s.182.4-.054.416a1.156,1.156,0,0,1-.471-.182c-.3-.148-.569-.345-.868-.485-.211-.1-.42-.2-.631-.3a1.933,1.933,0,0,0-.543-.248.833.833,0,0,1-.394-.1,2.277,2.277,0,0,0-.6-.213,1.917,1.917,0,0,1-.559-.18,1.643,1.643,0,0,1-.5-.52c-.169-.289-.371-.56-.553-.84-.07-.11-.162-.2-.234-.312-.424-.667-.457-1.448-.887-2.146-.24-.389-1.948-2.226-2.2-1.151-.208.9,1.083,2.238,1.8,2.578a3.018,3.018,0,0,1,.664.313,3.149,3.149,0,0,1,.51.649c.142.2.295.387.423.595a1.432,1.432,0,0,1,.168.342.9.9,0,0,0,.054.153c.027.053.078.121.023.176-.084.081-.346-.03-.447-.039-.138-.012-.271-.089-.41-.112-.34-.057-.683-.1-1.025-.14-.563-.06-1.128-.063-1.693-.086a9.622,9.622,0,0,1-1.389-.01,2.775,2.775,0,0,1-.429-.044c-.516-.21-.9-.583-1.464-.584a7.9,7.9,0,0,0-1.184.109c-.368.056-1.669.419-1.58.972.038.232.446.4.633.461a2.587,2.587,0,0,0,1.626-.028c.479-.13.98-.046,1.468-.17a9.549,9.549,0,0,1,1.629-.426,14.333,14.333,0,0,1,2.877.167,9.28,9.28,0,0,1,1.109.232c.2.052.4.091.6.14.151.035.3.075.451.112a1.712,1.712,0,0,1,.435.092c.04.021-.232.149-.26.163-.129.056-.248.13-.376.188-.249.11-.518.167-.763.285a5.931,5.931,0,0,1-1.817.619c-1.161.175-2.164.437-2.686,1.558-.23.493-.44,1.231.374,1.175a2.725,2.725,0,0,0,1.106-.545,9.927,9.927,0,0,0,1.169-.778,6.979,6.979,0,0,0,.762-.95,4.181,4.181,0,0,1,1.59-.961,8.586,8.586,0,0,1,.941-.36,1.793,1.793,0,0,1,.889-.059,5.865,5.865,0,0,1,1.111.463c.446.208.884.435,1.314.673a2.972,2.972,0,0,1,.559.339,1.517,1.517,0,0,0,.356.288c.116.056.28.056.378.145.253.231-.192.267-.338.308a5.968,5.968,0,0,0-.771.275,4.513,4.513,0,0,1-.642.349c-.442.107-.818-.05-1.235.073-.842.252-1.517.229-2.139.884-.336.354-1.087,1.1-1.074,1.632.021.883,1.6-.16,1.961-.355a3.787,3.787,0,0,0,1.349-.842,4.456,4.456,0,0,1,.913-1.05,6.564,6.564,0,0,1,1.933-.722,2.41,2.41,0,0,1,.706-.026,1.183,1.183,0,0,1,.61.287c.277.182.552.365.828.549a4.424,4.424,0,0,1,.426.315c.118.1.407.219.451.367-.205.132-.42.081-.63.17a2.6,2.6,0,0,0-1.142.756c-.306.387-.485.9-.953,1.112-.641.29-1.192.279-1.528,1a5.572,5.572,0,0,0-.461,2.206c.065,1.128,1.107.1,1.44-.294a9.947,9.947,0,0,0,1.037-1.59c.292-.551-.147-1.036.243-1.521.13-.164.206-.344.322-.513a3.082,3.082,0,0,1,.765-.7,1.816,1.816,0,0,1,1.366-.265,2.169,2.169,0,0,1,1.09.571,3.146,3.146,0,0,0,.936.627,8.742,8.742,0,0,0,1.024.473,3.466,3.466,0,0,1,.751.37c.229.136.873.2.816.555-.044.273-1.085.958-1.347,1.1-.425.229-.924.283-1.357.5-.676.342-.951.918-1.4,1.476-.332.41-1.137,1.081-.946,1.7.145.464,1.675-.729,1.8-.823a2.933,2.933,0,0,0,1.412-1.705c.039-.2.306-.4.428-.56.167-.22.374-.4.56-.608a2.4,2.4,0,0,1,1.343-.822,2.851,2.851,0,0,1,1.476.347,26.017,26.017,0,0,0,3.538.963c.6.121,1.2.221,1.809.3.183.025.621.167.777.045a.739.739,0,0,0,.193-.5C848.162,6042.388,847.992,6042.412,847.837,6042.428Z" transform="translate(-721.465 -6023.707)" fill="#5e6850"/>
      <path id="Path_5080" data-name="Path 5080" d="M813.5,6026.87c.466-.212.951-.374,1.428-.557.414-.159.86-.2,1.275-.35a6.29,6.29,0,0,1,1.453-.275c.343-.04.7-.033,1.037-.091a7.909,7.909,0,0,1,.97-.106c.1,0,.19.02.287.013a2.424,2.424,0,0,1,.481-.061c.154.016.324.04.394-.144a.739.739,0,0,0-.193-.5c-.156-.122-.594.02-.776.045-.605.083-1.21.182-1.81.3a26.12,26.12,0,0,0-3.538.963,2.86,2.86,0,0,1-1.475.348,2.409,2.409,0,0,1-1.343-.822c-.185-.2-.394-.387-.559-.609-.456-.605-.579-1.049-1.283-1.441a3.253,3.253,0,0,0-2.384-.667c-.471.1-.863.069-.575.66a2.086,2.086,0,0,0,.84.741,4.912,4.912,0,0,0,1.66.829c.444.058.911-.189,1.355-.04.373.125.657.6.93.866a4.373,4.373,0,0,0,.633.512c.7.462-.25.585-.58.781a3.436,3.436,0,0,1-.751.37,8.684,8.684,0,0,0-1.024.474,3.121,3.121,0,0,0-.937.627,2.161,2.161,0,0,1-1.09.571,1.82,1.82,0,0,1-1.366-.264,3.084,3.084,0,0,1-.765-.7c-.116-.169-.192-.349-.322-.512-.42-.524-.054-1.341-.541-1.925-.332-.4-1.22-1.179-1.806-1.016-.711.2.343,1.728.513,2.027a1.969,1.969,0,0,0,.76.908,3.393,3.393,0,0,1,1.3.919,2.3,2.3,0,0,0,1.141.754c.209.089.425.038.629.17-.044.147-.332.267-.451.366a4.275,4.275,0,0,1-.427.315q-.412.277-.827.55a1.188,1.188,0,0,1-.611.286,2.394,2.394,0,0,1-.706-.026,5.865,5.865,0,0,1-1.013-.35c-.737-.331-1.461-.684-2.227-.948a3.818,3.818,0,0,0-1.335-.306c-.4.021-1.32.36-1.294.862.054,1.045,2.159.66,2.744.575.343-.051.67-.232,1.008-.261.431-.038.686.241,1.049.4a6.014,6.014,0,0,0,.772.276c.146.041.59.076.337.306-.1.09-.261.091-.377.146a1.512,1.512,0,0,0-.357.288,3,3,0,0,1-.559.338c-.43.238-.868.464-1.313.673a5.956,5.956,0,0,1-1.112.463,1.805,1.805,0,0,1-.889-.059,8.8,8.8,0,0,1-.941-.361c-.737-.321-1.482-.67-2.2-1.031-.447-.226-1.341-.749-1.859-.516-.606.272-.224.864.15,1.15.664.509,1.285.27,2.044.228a4.475,4.475,0,0,1,1.755.42c.186.076.83.575,1.016.489a2.283,2.283,0,0,1-.443.1c-.151.036-.3.076-.451.111-.2.048-.4.087-.6.14a9.572,9.572,0,0,1-1.109.232,14.475,14.475,0,0,1-2.515.246c-.816-.035-1.568-.573-2.378-.555-.453.009-1.612.318-1.677.883-.06.521.992.672,1.369.749a3.744,3.744,0,0,0,1.847-.188,14.664,14.664,0,0,1,1.415-.529c.818-.183,1.648-.249,2.472-.387.137-.023.271-.1.41-.111.386-.033.483-.158.37.289a2.23,2.23,0,0,1-.678.973c-.474.422-1.068.566-1.475,1.086-.276.353-.74,1.228-.175,1.531.35.188.951-.077,1.243-.276,1.405-.963.542-2.888,1.891-3.806a1.961,1.961,0,0,1,.559-.179,2.278,2.278,0,0,0,.6-.214.825.825,0,0,1,.394-.1,1.934,1.934,0,0,0,.543-.247c.21-.1.42-.2.631-.3.3-.14.571-.337.868-.485a1.139,1.139,0,0,1,.471-.182c.235.021.117.224.054.416s-.116.379-.163.57c-.1.405-.1.835-.234,1.233-.27.833-1.245,1.323-1.092,2.307l.005.036c.083.5.152,2.35,1.03,1.8a3.254,3.254,0,0,0,.847-1.307,1.994,1.994,0,0,0-.112-1.672c-.276-.59.008-1.046-.107-1.628a2.634,2.634,0,0,1,.79-2.311,1.989,1.989,0,0,1,.759-.441,3.443,3.443,0,0,0,.434-.311,2.143,2.143,0,0,0,.289-.2c.227-.212.515-.323.752-.515.13-.106.31-.175.441-.288a2.466,2.466,0,0,1,.33-.252c.346-.218.681-.453,1.025-.672q.447-.286.9-.562c.259-.158.539-.185.75-.413.138-.15.446-.437.516-.1.037.176-.1.367-.168.511a9.573,9.573,0,0,0-.371.948,10.423,10.423,0,0,1-.318,1.156,2.992,2.992,0,0,1-.663.752,2.593,2.593,0,0,0-.532,1.811c0,.284-.068,1.51.256,1.605.76.224,1.754-2.135,1.688-2.637s-.462-.8-.473-1.309a4.251,4.251,0,0,1,.389-1.42,8.453,8.453,0,0,1,.5-1.169,2.534,2.534,0,0,1,.342-.558,2.743,2.743,0,0,1,.862-.568c.2-.088.372-.219.566-.309C812.98,6027.1,813.243,6026.99,813.5,6026.87Z" transform="translate(-717.282 -6022.868)" fill="#5e6850"/>
      <path id="Path_5081" data-name="Path 5081" d="M793.846,6042.428a2.57,2.57,0,0,1-.48-.061c-.1-.007-.191.016-.287.012a7.715,7.715,0,0,1-.971-.105c-.34-.06-.693-.052-1.037-.091a6.316,6.316,0,0,1-1.453-.275c-.415-.15-.861-.193-1.275-.351-.477-.182-.962-.343-1.427-.556-.261-.12-.525-.228-.788-.348-.194-.089-.37-.22-.566-.31a2.752,2.752,0,0,1-.862-.568,2.552,2.552,0,0,1-.342-.558,8.512,8.512,0,0,1-.5-1.17,4.637,4.637,0,0,1-.386-1.347c-.012-.4.268-.714.264-1.122-.008-.76-.36-3.725-1.621-3.473-.5.1-.5,1.515-.537,1.909-.107,1.111,1.219,1.829,1.6,2.8.276.7.389,1.457.707,2.144.066.142.2.335.168.511-.07.336-.379.049-.517-.1-.21-.229-.491-.254-.75-.413q-.453-.275-.9-.562c-.344-.22-.68-.455-1.026-.672a2.465,2.465,0,0,1-.33-.252c-.132-.114-.311-.182-.441-.288-.237-.191-.525-.3-.752-.514a2.021,2.021,0,0,0-.289-.206,3.585,3.585,0,0,0-.433-.31,1.994,1.994,0,0,1-.76-.442c-.164-.179-.372-.294-.468-.526q-.094-.226-.172-.46c-.094-.281-.171-.566-.236-.854a6.05,6.05,0,0,1-.222-2,9.124,9.124,0,0,0,.275-1.482c0-.483.069-2.54-.845-2.34-.687.151-.734,1.1-.7,1.661a2.346,2.346,0,0,0,.228.827,11.737,11.737,0,0,1,.681,1.464c.2.688.157,1.461.333,2.172.047.191.1.382.162.569s.182.4-.054.416a1.153,1.153,0,0,1-.471-.182c-.3-.148-.569-.345-.868-.485-.211-.1-.421-.2-.631-.3a1.937,1.937,0,0,0-.544-.248.83.83,0,0,1-.394-.1,2.294,2.294,0,0,0-.6-.213,1.934,1.934,0,0,1-.559-.18,1.653,1.653,0,0,1-.5-.52c-.168-.289-.37-.56-.552-.84-.071-.11-.163-.2-.235-.312-.424-.667-.456-1.448-.887-2.146-.24-.389-1.948-2.226-2.2-1.151-.208.9,1.084,2.238,1.8,2.578a3.038,3.038,0,0,1,.664.313,3.121,3.121,0,0,1,.509.649c.143.2.3.387.424.595a1.462,1.462,0,0,1,.168.342.836.836,0,0,0,.054.153c.026.053.078.121.023.176-.084.081-.347-.03-.447-.039-.138-.012-.272-.089-.409-.112q-.51-.085-1.026-.14c-.562-.06-1.128-.063-1.692-.086a9.622,9.622,0,0,1-1.389-.01,2.786,2.786,0,0,1-.43-.044c-.516-.21-.9-.583-1.463-.584a7.908,7.908,0,0,0-1.185.109c-.368.056-1.668.419-1.58.972.038.232.446.4.632.461a2.59,2.59,0,0,0,1.626-.028c.478-.13.98-.046,1.468-.17a9.509,9.509,0,0,1,1.629-.426,14.336,14.336,0,0,1,2.877.167,9.279,9.279,0,0,1,1.109.232c.2.052.4.091.6.14.151.035.3.075.451.112a1.712,1.712,0,0,1,.436.092c.04.021-.231.149-.26.163-.13.056-.249.13-.377.188-.248.11-.518.167-.763.285a5.919,5.919,0,0,1-1.817.619c-1.162.175-2.164.437-2.687,1.558-.23.493-.439,1.231.375,1.175a2.726,2.726,0,0,0,1.1-.545,9.793,9.793,0,0,0,1.169-.778,6.991,6.991,0,0,0,.763-.95,4.168,4.168,0,0,1,1.59-.961,8.524,8.524,0,0,1,.941-.36,1.79,1.79,0,0,1,.888-.059,5.9,5.9,0,0,1,1.112.463c.446.208.884.435,1.314.673a3,3,0,0,1,.559.339,1.539,1.539,0,0,0,.357.288c.116.056.279.056.377.145.254.231-.191.267-.337.308a5.934,5.934,0,0,0-.772.275,4.467,4.467,0,0,1-.642.349c-.441.107-.818-.05-1.235.073-.842.252-1.516.229-2.138.884-.336.354-1.087,1.1-1.075,1.632.022.883,1.6-.16,1.962-.355a3.793,3.793,0,0,0,1.349-.842,4.46,4.46,0,0,1,.913-1.05,6.557,6.557,0,0,1,1.933-.722,2.409,2.409,0,0,1,.706-.026,1.184,1.184,0,0,1,.61.287c.277.182.552.365.827.549a4.417,4.417,0,0,1,.426.315c.118.1.406.219.451.367-.205.132-.42.081-.629.17a2.6,2.6,0,0,0-1.142.756c-.306.387-.485.9-.953,1.112-.642.29-1.192.279-1.528,1a5.57,5.57,0,0,0-.46,2.206c.064,1.128,1.106.1,1.439-.294a9.835,9.835,0,0,0,1.037-1.59c.292-.551-.146-1.036.243-1.521.131-.164.207-.344.322-.513a3.078,3.078,0,0,1,.765-.7,1.816,1.816,0,0,1,1.366-.265,2.171,2.171,0,0,1,1.09.571,3.136,3.136,0,0,0,.936.627,8.683,8.683,0,0,0,1.024.473,3.484,3.484,0,0,1,.751.37c.229.136.873.2.815.555-.044.273-1.085.958-1.346,1.1-.425.229-.924.283-1.358.5-.676.342-.951.918-1.4,1.476-.332.41-1.136,1.081-.945,1.7.144.464,1.674-.729,1.8-.823a2.933,2.933,0,0,0,1.412-1.705c.039-.2.306-.4.428-.56.166-.22.374-.4.559-.608a2.4,2.4,0,0,1,1.343-.822,2.848,2.848,0,0,1,1.475.347,26.048,26.048,0,0,0,3.538.963c.6.121,1.2.221,1.81.3.183.025.621.167.777.045a.743.743,0,0,0,.193-.5C794.171,6042.388,794,6042.412,793.846,6042.428Z" transform="translate(-712.691 -6023.707)" fill="#5e6850"/>
      <path id="Path_5082" data-name="Path 5082" d="M759.513,6026.87c.465-.212.951-.374,1.428-.557.414-.159.859-.2,1.274-.35a6.305,6.305,0,0,1,1.454-.275c.343-.04.7-.033,1.037-.091a7.909,7.909,0,0,1,.97-.106c.1,0,.19.02.287.013a2.416,2.416,0,0,1,.48-.061c.155.016.325.04.4-.144a.743.743,0,0,0-.193-.5c-.157-.122-.594.02-.776.045-.606.083-1.21.182-1.81.3a26.085,26.085,0,0,0-3.538.963,2.861,2.861,0,0,1-1.476.348,2.409,2.409,0,0,1-1.343-.822c-.184-.2-.393-.387-.559-.609-.456-.605-.579-1.049-1.283-1.441a3.254,3.254,0,0,0-2.384-.667c-.472.1-.864.069-.575.66a2.085,2.085,0,0,0,.839.741,4.916,4.916,0,0,0,1.661.829c.444.058.911-.189,1.354-.04.373.125.657.6.93.866a4.42,4.42,0,0,0,.634.512c.7.462-.25.585-.58.781a3.4,3.4,0,0,1-.751.37,8.7,8.7,0,0,0-1.024.474,3.118,3.118,0,0,0-.936.627,2.165,2.165,0,0,1-1.09.571,1.82,1.82,0,0,1-1.366-.264,3.085,3.085,0,0,1-.765-.7c-.116-.169-.191-.349-.322-.512-.42-.524-.054-1.341-.541-1.925-.332-.4-1.22-1.179-1.807-1.016-.71.2.343,1.728.513,2.027a1.975,1.975,0,0,0,.76.908,3.393,3.393,0,0,1,1.3.919,2.294,2.294,0,0,0,1.141.754c.209.089.424.038.629.17-.045.147-.333.267-.451.366a4.391,4.391,0,0,1-.427.315q-.412.277-.828.55a1.186,1.186,0,0,1-.61.286,2.393,2.393,0,0,1-.706-.026,5.864,5.864,0,0,1-1.013-.35c-.737-.331-1.462-.684-2.227-.948a3.821,3.821,0,0,0-1.335-.306c-.4.021-1.32.36-1.294.862.054,1.045,2.159.66,2.744.575.343-.051.67-.232,1.008-.261.431-.038.687.241,1.05.4a6.045,6.045,0,0,0,.771.276c.146.041.59.076.338.306-.1.09-.262.091-.378.146a1.507,1.507,0,0,0-.356.288,3.052,3.052,0,0,1-.559.338c-.431.238-.868.464-1.314.673a5.925,5.925,0,0,1-1.111.463,1.8,1.8,0,0,1-.889-.059,8.728,8.728,0,0,1-.941-.361c-.737-.321-1.482-.67-2.2-1.031-.447-.226-1.341-.749-1.86-.516-.606.272-.223.864.151,1.15.664.509,1.285.27,2.043.228a4.479,4.479,0,0,1,1.755.42c.186.076.83.575,1.015.489a2.272,2.272,0,0,1-.442.1c-.151.036-.3.076-.451.111-.2.048-.4.087-.6.14a9.54,9.54,0,0,1-1.109.232,14.458,14.458,0,0,1-2.515.246c-.815-.035-1.567-.573-2.378-.555-.454.009-1.613.318-1.678.883-.06.521.993.672,1.369.749a3.748,3.748,0,0,0,1.848-.188,14.59,14.59,0,0,1,1.414-.529c.818-.183,1.647-.249,2.471-.387.138-.023.271-.1.41-.111.386-.033.484-.158.37.289a2.228,2.228,0,0,1-.677.973c-.475.422-1.069.566-1.475,1.086-.276.353-.74,1.228-.175,1.531.35.188.951-.077,1.243-.276,1.405-.963.541-2.888,1.891-3.806a1.953,1.953,0,0,1,.559-.179,2.261,2.261,0,0,0,.6-.214.83.83,0,0,1,.394-.1,1.933,1.933,0,0,0,.543-.247c.21-.1.42-.2.631-.3.3-.14.572-.337.868-.485a1.147,1.147,0,0,1,.472-.182c.235.021.116.224.054.416s-.115.379-.162.57c-.1.405-.1.835-.234,1.233-.271.833-1.246,1.323-1.093,2.307l.006.036c.083.5.152,2.35,1.029,1.8a3.254,3.254,0,0,0,.848-1.307,1.991,1.991,0,0,0-.113-1.672c-.276-.59.008-1.046-.106-1.628a2.636,2.636,0,0,1,.789-2.311,1.992,1.992,0,0,1,.76-.441,3.493,3.493,0,0,0,.433-.311,2.084,2.084,0,0,0,.289-.2c.227-.212.516-.323.752-.515.131-.106.311-.175.442-.288a2.4,2.4,0,0,1,.33-.252c.345-.218.681-.453,1.025-.672q.446-.286.9-.562c.259-.158.539-.185.75-.413.138-.15.446-.437.516-.1.036.176-.1.367-.168.511a9.367,9.367,0,0,0-.371.948,10.612,10.612,0,0,1-.318,1.156,2.98,2.98,0,0,1-.664.752,2.6,2.6,0,0,0-.531,1.811c0,.284-.068,1.51.256,1.605.76.224,1.754-2.135,1.687-2.637s-.461-.8-.472-1.309a4.232,4.232,0,0,1,.389-1.42,8.464,8.464,0,0,1,.495-1.169,2.54,2.54,0,0,1,.343-.558,2.741,2.741,0,0,1,.861-.568c.2-.088.372-.219.567-.309C758.988,6027.1,759.251,6026.99,759.513,6026.87Z" transform="translate(-708.508 -6022.868)" fill="#5e6850"/>
      <path id="Path_5083" data-name="Path 5083" d="M739.855,6042.428a2.577,2.577,0,0,1-.48-.061c-.1-.007-.191.016-.287.012a7.718,7.718,0,0,1-.97-.105c-.34-.06-.693-.052-1.037-.091a6.316,6.316,0,0,1-1.453-.275c-.415-.15-.861-.193-1.275-.351-.477-.182-.963-.343-1.428-.556-.261-.12-.525-.228-.787-.348-.2-.089-.37-.22-.566-.31a2.733,2.733,0,0,1-.862-.568,2.558,2.558,0,0,1-.343-.558,8.618,8.618,0,0,1-.5-1.17,4.662,4.662,0,0,1-.386-1.347c-.011-.4.269-.714.265-1.122-.008-.76-.361-3.725-1.621-3.473-.5.1-.5,1.515-.536,1.909-.107,1.111,1.219,1.829,1.6,2.8.275.7.389,1.457.706,2.144.066.142.205.335.168.511-.07.336-.378.049-.516-.1-.211-.229-.492-.254-.75-.413q-.452-.275-.9-.562c-.344-.22-.679-.455-1.025-.672a2.465,2.465,0,0,1-.33-.252c-.131-.114-.312-.182-.442-.288-.236-.191-.524-.3-.751-.514a2.078,2.078,0,0,0-.29-.206,3.519,3.519,0,0,0-.433-.31,1.994,1.994,0,0,1-.76-.442c-.164-.179-.372-.294-.467-.526-.064-.151-.12-.3-.172-.46a8.662,8.662,0,0,1-.235-.854,6.028,6.028,0,0,1-.222-2,9.21,9.21,0,0,0,.275-1.482c0-.483.069-2.54-.845-2.34-.687.151-.734,1.1-.7,1.661a2.382,2.382,0,0,0,.228.827,11.616,11.616,0,0,1,.681,1.464c.2.688.157,1.461.333,2.172.048.191.1.382.162.569s.182.4-.054.416a1.161,1.161,0,0,1-.472-.182c-.3-.148-.568-.345-.868-.485-.211-.1-.42-.2-.631-.3a1.922,1.922,0,0,0-.543-.248.83.83,0,0,1-.394-.1,2.293,2.293,0,0,0-.6-.213,1.925,1.925,0,0,1-.559-.18,1.653,1.653,0,0,1-.5-.52c-.169-.289-.37-.56-.552-.84-.071-.11-.163-.2-.234-.312-.424-.667-.456-1.448-.887-2.146-.24-.389-1.948-2.226-2.2-1.151-.209.9,1.084,2.238,1.8,2.578a3.009,3.009,0,0,1,.663.313,3.123,3.123,0,0,1,.51.649c.143.2.3.387.423.595a1.465,1.465,0,0,1,.169.342.891.891,0,0,0,.054.153c.027.053.079.121.023.176-.083.081-.346-.03-.447-.039-.138-.012-.271-.089-.409-.112q-.511-.085-1.026-.14c-.562-.06-1.128-.063-1.693-.086a9.624,9.624,0,0,1-1.389-.01,2.774,2.774,0,0,1-.429-.044c-.516-.21-.9-.583-1.464-.584a7.906,7.906,0,0,0-1.184.109c-.368.056-1.668.419-1.58.972.038.232.446.4.633.461a2.59,2.59,0,0,0,1.626-.028c.478-.13.979-.046,1.467-.17a9.547,9.547,0,0,1,1.629-.426,14.344,14.344,0,0,1,2.878.167,9.313,9.313,0,0,1,1.109.232c.2.052.4.091.6.14.151.035.3.075.451.112a1.711,1.711,0,0,1,.435.092c.04.021-.232.149-.26.163-.129.056-.248.13-.376.188-.248.11-.518.167-.763.285a5.916,5.916,0,0,1-1.817.619c-1.161.175-2.163.437-2.686,1.558-.23.493-.44,1.231.374,1.175a2.724,2.724,0,0,0,1.106-.545,9.927,9.927,0,0,0,1.169-.778,6.985,6.985,0,0,0,.762-.95,4.181,4.181,0,0,1,1.59-.961,8.6,8.6,0,0,1,.941-.36,1.793,1.793,0,0,1,.889-.059,5.864,5.864,0,0,1,1.111.463c.446.208.884.435,1.314.673a2.97,2.97,0,0,1,.559.339,1.505,1.505,0,0,0,.357.288c.115.056.279.056.377.145.253.231-.191.267-.338.308a5.965,5.965,0,0,0-.771.275,4.51,4.51,0,0,1-.642.349c-.442.107-.818-.05-1.235.073-.843.252-1.517.229-2.139.884-.336.354-1.087,1.1-1.074,1.632.021.883,1.6-.16,1.961-.355a3.787,3.787,0,0,0,1.349-.842,4.455,4.455,0,0,1,.913-1.05,6.566,6.566,0,0,1,1.933-.722,2.41,2.41,0,0,1,.706-.026,1.184,1.184,0,0,1,.61.287q.416.272.827.549a4.537,4.537,0,0,1,.427.315c.117.1.406.219.451.367-.205.132-.42.081-.629.17a2.6,2.6,0,0,0-1.142.756c-.306.387-.485.9-.953,1.112-.641.29-1.192.279-1.528,1a5.571,5.571,0,0,0-.461,2.206c.064,1.128,1.107.1,1.44-.294a9.946,9.946,0,0,0,1.037-1.59c.292-.551-.147-1.036.243-1.521.131-.164.206-.344.322-.513a3.081,3.081,0,0,1,.765-.7,1.816,1.816,0,0,1,1.366-.265,2.169,2.169,0,0,1,1.09.571,3.147,3.147,0,0,0,.936.627,8.747,8.747,0,0,0,1.024.473,3.466,3.466,0,0,1,.751.37c.229.136.873.2.816.555-.044.273-1.085.958-1.347,1.1-.425.229-.924.283-1.357.5-.676.342-.951.918-1.4,1.476-.332.41-1.136,1.081-.945,1.7.145.464,1.675-.729,1.8-.823a2.939,2.939,0,0,0,1.412-1.705c.039-.2.306-.4.428-.56.166-.22.374-.4.559-.608a2.4,2.4,0,0,1,1.343-.822,2.851,2.851,0,0,1,1.476.347,26.048,26.048,0,0,0,3.538.963c.6.121,1.2.221,1.81.3.183.025.621.167.776.045a.739.739,0,0,0,.193-.5C740.18,6042.388,740.009,6042.412,739.855,6042.428Z" transform="translate(-703.918 -6023.707)" fill="#5e6850"/>
      <path id="Path_5084" data-name="Path 5084" d="M708.829,6026.871c.465-.212.951-.374,1.428-.557.413-.159.859-.2,1.274-.35a6.306,6.306,0,0,1,1.453-.275c.343-.04.7-.033,1.037-.091a7.9,7.9,0,0,1,.97-.106c.1,0,.19.02.287.013a2.424,2.424,0,0,1,.481-.061c.154.016.325.04.394-.144a.741.741,0,0,0-.193-.5c-.156-.122-.595.02-.777.045-.606.083-1.209.182-1.81.3a26.119,26.119,0,0,0-3.538.963,2.856,2.856,0,0,1-1.475.348,2.409,2.409,0,0,1-1.343-.822c-.185-.2-.394-.387-.559-.609-.456-.605-.579-1.049-1.282-1.441a3.571,3.571,0,0,0-2.133-.7v1.43l.013.008a4.912,4.912,0,0,0,1.66.829c.445.058.911-.189,1.355-.04.373.125.657.6.93.866a4.366,4.366,0,0,0,.633.512c.7.462-.25.585-.58.781a3.416,3.416,0,0,1-.751.37,8.689,8.689,0,0,0-1.024.474,3.108,3.108,0,0,0-.936.627,2.167,2.167,0,0,1-1.09.571,1.76,1.76,0,0,1-.209.027v.647c.255-.167.506-.339.762-.5q.446-.286.9-.562c.26-.158.54-.185.75-.413.138-.15.446-.437.517-.1.036.176-.1.367-.169.511a9.757,9.757,0,0,0-.371.948,10.609,10.609,0,0,1-.317,1.156,2.994,2.994,0,0,1-.664.752,2.593,2.593,0,0,0-.532,1.811c0,.284-.068,1.51.256,1.605.76.224,1.755-2.135,1.688-2.637s-.462-.8-.473-1.309a4.25,4.25,0,0,1,.39-1.42,8.543,8.543,0,0,1,.5-1.169,2.532,2.532,0,0,1,.342-.558,2.743,2.743,0,0,1,.862-.568c.2-.088.372-.219.566-.309C708.3,6027.1,708.567,6026.991,708.829,6026.871Z" transform="translate(-703.042 -6022.868)" fill="#5e6850"/>
    </g>
    <g id="Group_7853-2" data-name="Group 7853" transform="translate(227)">
      <path id="Path_5073-2" data-name="Path 5073" d="M968.536,6029.432a3.072,3.072,0,0,1-.766-.7c-.116-.169-.192-.349-.322-.512-.42-.524-.054-1.341-.541-1.925-.332-.4-1.221-1.179-1.807-1.016-.711.2.343,1.728.513,2.027a1.973,1.973,0,0,0,.76.908,3.39,3.39,0,0,1,1.3.919,2.3,2.3,0,0,0,1.14.754c.21.089.424.038.63.17-.045.147-.333.267-.451.366a4.264,4.264,0,0,1-.426.315c-.276.185-.55.368-.827.55a1.192,1.192,0,0,1-.611.286,2.393,2.393,0,0,1-.706-.026,5.875,5.875,0,0,1-1.014-.35c-.737-.331-1.461-.684-2.227-.948a3.814,3.814,0,0,0-1.335-.306c-.4.021-1.319.36-1.294.862.054,1.045,2.159.66,2.745.575.343-.051.67-.232,1.008-.261.431-.038.686.241,1.05.4a6,6,0,0,0,.771.276c.146.041.59.076.337.306-.1.09-.262.091-.378.146a1.528,1.528,0,0,0-.357.288,3,3,0,0,1-.559.338c-.43.238-.867.464-1.313.673a5.912,5.912,0,0,1-1.112.463,1.805,1.805,0,0,1-.889-.059,8.783,8.783,0,0,1-.941-.361c-.738-.321-1.482-.67-2.2-1.031-.447-.226-1.341-.749-1.859-.516-.606.272-.224.864.15,1.15.664.509,1.286.27,2.044.228a4.483,4.483,0,0,1,1.755.42c.186.076.83.575,1.015.489a2.283,2.283,0,0,1-.443.1c-.151.036-.3.076-.451.111-.2.048-.4.087-.6.14a9.572,9.572,0,0,1-1.109.232,14.466,14.466,0,0,1-2.515.246c-.816-.035-1.567-.573-2.378-.555-.454.009-1.613.318-1.678.883-.06.521.992.672,1.369.749a3.749,3.749,0,0,0,1.848-.188,14.5,14.5,0,0,1,1.414-.529c.817-.183,1.647-.249,2.471-.387.137-.023.271-.1.409-.111.387-.033.484-.158.371.289a2.229,2.229,0,0,1-.677.973c-.475.422-1.069.566-1.475,1.086-.276.353-.741,1.228-.175,1.531.349.188.951-.077,1.243-.276,1.4-.963.541-2.888,1.89-3.806a1.953,1.953,0,0,1,.559-.179,2.3,2.3,0,0,0,.6-.214.819.819,0,0,1,.394-.1,1.944,1.944,0,0,0,.543-.247c.209-.1.42-.2.631-.3.3-.14.572-.337.868-.485a1.138,1.138,0,0,1,.471-.182c.235.021.116.224.054.416s-.116.379-.162.57c-.1.405-.106.835-.234,1.233-.27.833-1.245,1.323-1.092,2.307l.006.036c.082.5.152,2.35,1.029,1.8a3.264,3.264,0,0,0,.848-1.307,2,2,0,0,0-.113-1.672c-.276-.59.008-1.046-.107-1.628a2.636,2.636,0,0,1,.79-2.311,1.985,1.985,0,0,1,.76-.441,3.493,3.493,0,0,0,.433-.311,2.152,2.152,0,0,0,.29-.2c.226-.212.515-.323.751-.515.131-.106.311-.175.441-.288a2.466,2.466,0,0,1,.33-.252c.089-.055.177-.113.265-.17v-.647A1.792,1.792,0,0,1,968.536,6029.432Z" transform="translate(-743.604 -6023.256)" fill="#5e6850"/>
      <path id="Path_5074-2" data-name="Path 5074" d="M972.568,6022.918c-.471.1-.864.069-.574.66a2.048,2.048,0,0,0,.827.733v-1.43C972.738,6022.891,972.655,6022.9,972.568,6022.918Z" transform="translate(-746.732 -6022.871)" fill="#5e6850"/>
      <path id="Path_5075-2" data-name="Path 5075" d="M955.82,6042.428a2.587,2.587,0,0,1-.481-.061c-.1-.007-.19.016-.286.012a7.747,7.747,0,0,1-.971-.105c-.34-.06-.693-.052-1.036-.091a6.332,6.332,0,0,1-1.454-.275c-.415-.15-.86-.193-1.274-.351-.477-.182-.963-.343-1.428-.556-.262-.12-.525-.228-.787-.348-.2-.089-.37-.22-.566-.31a2.746,2.746,0,0,1-.863-.568,2.522,2.522,0,0,1-.342-.558,8.618,8.618,0,0,1-.5-1.17,4.637,4.637,0,0,1-.386-1.347c-.011-.4.269-.714.265-1.122-.008-.76-.361-3.725-1.621-3.473-.5.1-.5,1.515-.536,1.909-.107,1.111,1.219,1.829,1.6,2.8.275.7.389,1.457.706,2.144.066.142.2.335.168.511-.07.336-.378.049-.517-.1-.21-.229-.491-.254-.75-.413q-.453-.275-.9-.562c-.344-.22-.68-.455-1.026-.672a2.465,2.465,0,0,1-.33-.252c-.132-.114-.311-.182-.441-.288-.237-.191-.525-.3-.751-.514a2.121,2.121,0,0,0-.289-.206,3.663,3.663,0,0,0-.434-.31,1.994,1.994,0,0,1-.76-.442c-.163-.179-.372-.294-.467-.526-.064-.151-.12-.3-.172-.46a8.662,8.662,0,0,1-.235-.854,6.007,6.007,0,0,1-.222-2,9.394,9.394,0,0,0,.275-1.482c0-.483.069-2.54-.846-2.34-.687.151-.734,1.1-.7,1.661a2.383,2.383,0,0,0,.228.827,11.852,11.852,0,0,1,.681,1.464c.2.688.157,1.461.333,2.172.047.191.1.382.162.569s.182.4-.054.416a1.156,1.156,0,0,1-.471-.182c-.3-.148-.569-.345-.868-.485-.211-.1-.42-.2-.631-.3a1.933,1.933,0,0,0-.543-.248.833.833,0,0,1-.394-.1,2.273,2.273,0,0,0-.6-.213,1.934,1.934,0,0,1-.559-.18,1.65,1.65,0,0,1-.5-.52c-.169-.289-.371-.56-.553-.84-.071-.11-.163-.2-.234-.312-.424-.667-.457-1.448-.888-2.146-.24-.389-1.948-2.226-2.2-1.151-.209.9,1.083,2.238,1.8,2.578a3,3,0,0,1,.664.313,3.122,3.122,0,0,1,.51.649c.142.2.295.387.423.595a1.432,1.432,0,0,1,.168.342.974.974,0,0,0,.054.153c.026.053.078.121.023.176-.084.081-.347-.03-.447-.039-.139-.012-.271-.089-.409-.112-.34-.057-.683-.1-1.025-.14-.563-.06-1.128-.063-1.693-.086a9.61,9.61,0,0,1-1.389-.01,2.8,2.8,0,0,1-.43-.044c-.515-.21-.9-.583-1.463-.584a7.91,7.91,0,0,0-1.185.109c-.367.056-1.668.419-1.579.972.038.232.446.4.633.461a2.587,2.587,0,0,0,1.626-.028c.479-.13.98-.046,1.468-.17a9.528,9.528,0,0,1,1.629-.426,14.336,14.336,0,0,1,2.877.167,9.279,9.279,0,0,1,1.109.232c.2.052.4.091.6.14.151.035.3.075.451.112a1.719,1.719,0,0,1,.435.092c.039.021-.232.149-.26.163-.129.056-.248.13-.376.188-.249.11-.518.167-.764.285a5.919,5.919,0,0,1-1.817.619c-1.161.175-2.164.437-2.687,1.558-.229.493-.439,1.231.375,1.175a2.73,2.73,0,0,0,1.106-.545,9.927,9.927,0,0,0,1.169-.778,6.975,6.975,0,0,0,.762-.95,4.181,4.181,0,0,1,1.59-.961,8.589,8.589,0,0,1,.941-.36,1.793,1.793,0,0,1,.889-.059,5.887,5.887,0,0,1,1.111.463c.446.208.884.435,1.314.673a2.97,2.97,0,0,1,.559.339,1.536,1.536,0,0,0,.356.288c.116.056.28.056.377.145.254.231-.191.267-.337.308a5.973,5.973,0,0,0-.772.275,4.467,4.467,0,0,1-.642.349c-.441.107-.818-.05-1.235.073-.842.252-1.516.229-2.138.884-.336.354-1.087,1.1-1.074,1.632.021.883,1.6-.16,1.961-.355a3.787,3.787,0,0,0,1.349-.842,4.457,4.457,0,0,1,.913-1.05,6.566,6.566,0,0,1,1.933-.722,2.409,2.409,0,0,1,.706-.026,1.187,1.187,0,0,1,.61.287q.416.272.827.549a4.234,4.234,0,0,1,.427.315c.118.1.406.219.451.367-.205.132-.42.081-.629.17a2.6,2.6,0,0,0-1.142.756c-.306.387-.485.9-.953,1.112-.641.29-1.192.279-1.528,1a5.556,5.556,0,0,0-.461,2.206c.064,1.128,1.106.1,1.439-.294a9.893,9.893,0,0,0,1.038-1.59c.292-.551-.147-1.036.243-1.521.131-.164.206-.344.322-.513a3.081,3.081,0,0,1,.765-.7,1.813,1.813,0,0,1,1.365-.265,2.171,2.171,0,0,1,1.09.571,3.158,3.158,0,0,0,.936.627,8.683,8.683,0,0,0,1.024.473,3.466,3.466,0,0,1,.751.37c.229.136.873.2.816.555-.045.273-1.085.958-1.347,1.1-.425.229-.924.283-1.358.5-.676.342-.951.918-1.4,1.476-.331.41-1.136,1.081-.945,1.7.145.464,1.674-.729,1.8-.823a2.935,2.935,0,0,0,1.411-1.705c.039-.2.306-.4.428-.56.166-.22.374-.4.559-.608a2.4,2.4,0,0,1,1.343-.822,2.846,2.846,0,0,1,1.475.347,26.046,26.046,0,0,0,3.538.963c.6.121,1.2.221,1.81.3.183.025.621.167.777.045a.734.734,0,0,0,.193-.5C956.145,6042.388,955.975,6042.412,955.82,6042.428Z" transform="translate(-739.013 -6023.707)" fill="#5e6850"/>
      <path id="Path_5076-2" data-name="Path 5076" d="M921.488,6026.87c.464-.212.951-.374,1.427-.557.414-.159.86-.2,1.275-.35a6.29,6.29,0,0,1,1.453-.275c.343-.04.7-.033,1.037-.091a7.926,7.926,0,0,1,.97-.106c.1,0,.19.02.287.013a2.424,2.424,0,0,1,.48-.061c.155.016.325.04.4-.144a.739.739,0,0,0-.193-.5c-.156-.122-.594.02-.776.045-.606.083-1.21.182-1.81.3a26.086,26.086,0,0,0-3.538.963,2.86,2.86,0,0,1-1.475.348,2.4,2.4,0,0,1-1.343-.822c-.185-.2-.394-.387-.559-.609-.456-.605-.579-1.049-1.283-1.441a3.254,3.254,0,0,0-2.384-.667c-.471.1-.863.069-.575.66a2.085,2.085,0,0,0,.839.741,4.916,4.916,0,0,0,1.661.829c.444.058.911-.189,1.354-.04.373.125.657.6.93.866a4.369,4.369,0,0,0,.633.512c.7.462-.25.585-.58.781a3.436,3.436,0,0,1-.751.37,8.7,8.7,0,0,0-1.025.474,3.118,3.118,0,0,0-.936.627,2.161,2.161,0,0,1-1.09.571,1.82,1.82,0,0,1-1.366-.264,3.085,3.085,0,0,1-.765-.7c-.116-.169-.191-.349-.322-.512-.42-.524-.054-1.341-.541-1.925-.332-.4-1.22-1.179-1.807-1.016-.71.2.343,1.728.513,2.027a1.975,1.975,0,0,0,.76.908,3.387,3.387,0,0,1,1.3.919,2.3,2.3,0,0,0,1.141.754c.209.089.424.038.629.17-.045.147-.333.267-.451.366a4.479,4.479,0,0,1-.426.315q-.413.277-.827.55a1.188,1.188,0,0,1-.611.286,2.394,2.394,0,0,1-.706-.026,5.864,5.864,0,0,1-1.013-.35c-.737-.331-1.461-.684-2.228-.948a3.814,3.814,0,0,0-1.335-.306c-.4.021-1.319.36-1.293.862.054,1.045,2.159.66,2.744.575.344-.051.67-.232,1.008-.261.431-.038.687.241,1.05.4a6.042,6.042,0,0,0,.771.276c.147.041.59.076.337.306-.1.09-.261.091-.377.146a1.512,1.512,0,0,0-.357.288,3.05,3.05,0,0,1-.559.338c-.43.238-.868.464-1.314.673a5.912,5.912,0,0,1-1.112.463,1.8,1.8,0,0,1-.888-.059,8.806,8.806,0,0,1-.941-.361c-.737-.321-1.482-.67-2.2-1.031-.446-.226-1.34-.749-1.859-.516-.606.272-.224.864.151,1.15.664.509,1.285.27,2.043.228a4.483,4.483,0,0,1,1.755.42c.186.076.83.575,1.015.489a2.288,2.288,0,0,1-.442.1c-.151.036-.3.076-.451.111-.2.048-.4.087-.6.14a9.576,9.576,0,0,1-1.109.232,14.458,14.458,0,0,1-2.514.246c-.816-.035-1.568-.573-2.379-.555-.454.009-1.613.318-1.678.883-.06.521.993.672,1.369.749a3.748,3.748,0,0,0,1.848-.188,14.585,14.585,0,0,1,1.414-.529c.817-.183,1.647-.249,2.471-.387.138-.023.271-.1.41-.111.386-.033.484-.158.37.289a2.229,2.229,0,0,1-.677.973c-.475.422-1.068.566-1.475,1.086-.276.353-.74,1.228-.175,1.531.35.188.951-.077,1.243-.276,1.4-.963.541-2.888,1.891-3.806a1.956,1.956,0,0,1,.558-.179,2.273,2.273,0,0,0,.6-.214.822.822,0,0,1,.394-.1,1.933,1.933,0,0,0,.543-.247c.21-.1.42-.2.631-.3.3-.14.571-.337.868-.485a1.13,1.13,0,0,1,.471-.182c.235.021.117.224.054.416s-.116.379-.163.57c-.1.405-.106.835-.234,1.233-.271.833-1.246,1.323-1.092,2.307l.005.036c.083.5.152,2.35,1.029,1.8a3.257,3.257,0,0,0,.848-1.307,2,2,0,0,0-.113-1.672c-.275-.59.009-1.046-.106-1.628a2.636,2.636,0,0,1,.789-2.311,1.992,1.992,0,0,1,.76-.441,3.506,3.506,0,0,0,.434-.311,2.144,2.144,0,0,0,.289-.2c.227-.212.515-.323.751-.515.131-.106.311-.175.442-.288a2.412,2.412,0,0,1,.33-.252c.346-.218.681-.453,1.025-.672q.446-.286.9-.562c.259-.158.539-.185.75-.413.137-.15.446-.437.516-.1.037.176-.1.367-.168.511a9.392,9.392,0,0,0-.373.948,10.249,10.249,0,0,1-.317,1.156,2.98,2.98,0,0,1-.664.752,2.6,2.6,0,0,0-.531,1.811c0,.284-.068,1.51.256,1.605.76.224,1.755-2.135,1.688-2.637s-.462-.8-.473-1.309a4.25,4.25,0,0,1,.389-1.42,8.461,8.461,0,0,1,.5-1.169,2.536,2.536,0,0,1,.342-.558,2.743,2.743,0,0,1,.862-.568c.2-.088.371-.219.566-.309C920.962,6027.1,921.225,6026.99,921.488,6026.87Z" transform="translate(-734.83 -6022.868)" fill="#5e6850"/>
      <path id="Path_5077-2" data-name="Path 5077" d="M901.829,6042.428a2.578,2.578,0,0,1-.481-.061c-.1-.007-.19.016-.287.012a7.718,7.718,0,0,1-.97-.105c-.341-.06-.693-.052-1.037-.091a6.315,6.315,0,0,1-1.453-.275c-.415-.15-.861-.193-1.275-.351-.477-.182-.962-.343-1.427-.556-.262-.12-.526-.228-.788-.348-.194-.089-.371-.22-.566-.31a2.742,2.742,0,0,1-.862-.568,2.522,2.522,0,0,1-.342-.558,8.512,8.512,0,0,1-.5-1.17,4.637,4.637,0,0,1-.387-1.347c-.011-.4.269-.714.265-1.122-.008-.76-.36-3.725-1.621-3.473-.5.1-.5,1.515-.537,1.909-.107,1.111,1.219,1.829,1.6,2.8.275.7.389,1.457.706,2.144.067.142.205.335.168.511-.069.336-.378.049-.516-.1-.21-.229-.492-.254-.75-.413q-.452-.275-.9-.562c-.345-.22-.68-.455-1.027-.672a2.46,2.46,0,0,1-.329-.252c-.131-.114-.311-.182-.442-.288-.236-.191-.524-.3-.751-.514a2.067,2.067,0,0,0-.289-.206,3.657,3.657,0,0,0-.434-.31,2.007,2.007,0,0,1-.76-.442c-.163-.179-.372-.294-.467-.526q-.094-.226-.172-.46a8.453,8.453,0,0,1-.236-.854,6.027,6.027,0,0,1-.221-2,9.3,9.3,0,0,0,.274-1.482c0-.483.069-2.54-.845-2.34-.687.151-.734,1.1-.7,1.661a2.366,2.366,0,0,0,.229.827,11.846,11.846,0,0,1,.68,1.464c.2.688.157,1.461.333,2.172.048.191.1.382.162.569s.182.4-.054.416a1.152,1.152,0,0,1-.471-.182c-.3-.148-.569-.345-.868-.485-.211-.1-.421-.2-.632-.3a1.921,1.921,0,0,0-.543-.248.83.83,0,0,1-.394-.1,2.293,2.293,0,0,0-.6-.213,1.925,1.925,0,0,1-.559-.18,1.644,1.644,0,0,1-.5-.52c-.168-.289-.37-.56-.552-.84-.071-.11-.162-.2-.234-.312-.425-.667-.456-1.448-.887-2.146-.24-.389-1.948-2.226-2.2-1.151-.209.9,1.084,2.238,1.8,2.578a3.027,3.027,0,0,1,.663.313,3.151,3.151,0,0,1,.51.649c.143.2.3.387.424.595a1.5,1.5,0,0,1,.168.342.824.824,0,0,0,.054.153c.027.053.079.121.023.176-.084.081-.347-.03-.446-.039-.139-.012-.271-.089-.41-.112-.339-.057-.682-.1-1.025-.14-.563-.06-1.128-.063-1.693-.086a9.624,9.624,0,0,1-1.389-.01,2.774,2.774,0,0,1-.429-.044c-.516-.21-.9-.583-1.464-.584a7.906,7.906,0,0,0-1.184.109c-.368.056-1.669.419-1.58.972.037.232.446.4.633.461a2.587,2.587,0,0,0,1.626-.028c.478-.13.979-.046,1.467-.17a9.547,9.547,0,0,1,1.629-.426,14.344,14.344,0,0,1,2.878.167,9.264,9.264,0,0,1,1.108.232c.2.052.4.091.6.14.151.035.3.075.451.112a1.71,1.71,0,0,1,.436.092c.04.021-.232.149-.26.163-.129.056-.248.13-.376.188-.248.11-.518.167-.763.285a5.917,5.917,0,0,1-1.817.619c-1.161.175-2.163.437-2.686,1.558-.229.493-.44,1.231.375,1.175a2.725,2.725,0,0,0,1.1-.545,9.922,9.922,0,0,0,1.169-.778,7.052,7.052,0,0,0,.763-.95,4.179,4.179,0,0,1,1.589-.961,8.6,8.6,0,0,1,.941-.36,1.793,1.793,0,0,1,.889-.059,5.866,5.866,0,0,1,1.111.463c.447.208.884.435,1.315.673a2.991,2.991,0,0,1,.559.339,1.505,1.505,0,0,0,.357.288c.115.056.279.056.377.145.254.231-.191.267-.338.308a5.965,5.965,0,0,0-.771.275,4.51,4.51,0,0,1-.642.349c-.442.107-.818-.05-1.235.073-.843.252-1.517.229-2.139.884-.335.354-1.087,1.1-1.074,1.632.022.883,1.6-.16,1.961-.355a3.787,3.787,0,0,0,1.349-.842,4.46,4.46,0,0,1,.914-1.05,6.559,6.559,0,0,1,1.932-.722,2.415,2.415,0,0,1,.707-.026,1.186,1.186,0,0,1,.61.287c.276.182.551.365.827.549a4.53,4.53,0,0,1,.427.315c.117.1.406.219.451.367-.2.132-.419.081-.629.17a2.6,2.6,0,0,0-1.142.756c-.306.387-.485.9-.953,1.112-.641.29-1.192.279-1.527,1a5.558,5.558,0,0,0-.461,2.206c.064,1.128,1.107.1,1.44-.294a9.946,9.946,0,0,0,1.037-1.59c.292-.551-.147-1.036.243-1.521.131-.164.206-.344.322-.513a3.081,3.081,0,0,1,.765-.7,1.816,1.816,0,0,1,1.366-.265,2.169,2.169,0,0,1,1.09.571,3.147,3.147,0,0,0,.936.627,8.807,8.807,0,0,0,1.024.473,3.466,3.466,0,0,1,.751.37c.229.136.873.2.815.555-.044.273-1.085.958-1.346,1.1-.424.229-.924.283-1.357.5-.676.342-.951.918-1.4,1.476-.332.41-1.136,1.081-.945,1.7.145.464,1.675-.729,1.8-.823a2.939,2.939,0,0,0,1.412-1.705c.038-.2.3-.4.428-.56.166-.22.374-.4.559-.608a2.4,2.4,0,0,1,1.344-.822,2.85,2.85,0,0,1,1.475.347,25.98,25.98,0,0,0,3.538.963c.6.121,1.2.221,1.81.3.183.025.621.167.776.045a.739.739,0,0,0,.193-.5C902.154,6042.388,901.984,6042.412,901.829,6042.428Z" transform="translate(-730.239 -6023.707)" fill="#5e6850"/>
      <path id="Path_5078-2" data-name="Path 5078" d="M867.5,6026.87c.465-.212.951-.374,1.428-.557.414-.159.859-.2,1.274-.35a6.3,6.3,0,0,1,1.453-.275c.343-.04.7-.033,1.038-.091a7.876,7.876,0,0,1,.969-.106c.1,0,.19.02.287.013a2.424,2.424,0,0,1,.481-.061c.154.016.325.04.394-.144a.738.738,0,0,0-.193-.5c-.157-.122-.595.02-.777.045-.606.083-1.209.182-1.809.3a26.1,26.1,0,0,0-3.539.963,2.858,2.858,0,0,1-1.475.348,2.409,2.409,0,0,1-1.343-.822c-.185-.2-.393-.387-.559-.609-.456-.605-.579-1.049-1.283-1.441a3.256,3.256,0,0,0-2.385-.667c-.47.1-.863.069-.574.66a2.079,2.079,0,0,0,.839.741,4.912,4.912,0,0,0,1.66.829c.444.058.912-.189,1.355-.04.373.125.657.6.93.866a4.42,4.42,0,0,0,.633.512c.7.462-.25.585-.58.781a3.4,3.4,0,0,1-.751.37,8.688,8.688,0,0,0-1.024.474,3.119,3.119,0,0,0-.936.627,2.165,2.165,0,0,1-1.09.571,1.819,1.819,0,0,1-1.366-.264,3.072,3.072,0,0,1-.766-.7c-.116-.169-.192-.349-.322-.512-.42-.524-.054-1.341-.541-1.925-.331-.4-1.22-1.179-1.806-1.016-.71.2.343,1.728.513,2.027a1.976,1.976,0,0,0,.76.908,3.39,3.39,0,0,1,1.3.919,2.3,2.3,0,0,0,1.141.754c.21.089.425.038.63.17-.044.147-.333.267-.451.366a4.272,4.272,0,0,1-.426.315c-.276.185-.55.368-.827.55a1.186,1.186,0,0,1-.61.286,2.393,2.393,0,0,1-.706-.026,5.865,5.865,0,0,1-1.013-.35c-.738-.331-1.461-.684-2.228-.948a3.814,3.814,0,0,0-1.335-.306c-.4.021-1.32.36-1.294.862.054,1.045,2.159.66,2.745.575.343-.051.67-.232,1.008-.261.431-.038.687.241,1.05.4a6,6,0,0,0,.771.276c.146.041.59.076.337.306-.1.09-.261.091-.377.146a1.508,1.508,0,0,0-.356.288,3.024,3.024,0,0,1-.559.338c-.43.238-.868.464-1.314.673a5.949,5.949,0,0,1-1.111.463,1.8,1.8,0,0,1-.889-.059,8.731,8.731,0,0,1-.941-.361c-.738-.321-1.482-.67-2.2-1.031-.448-.226-1.341-.749-1.86-.516-.606.272-.224.864.15,1.15.665.509,1.286.27,2.044.228a4.483,4.483,0,0,1,1.755.42c.185.076.83.575,1.015.489a2.282,2.282,0,0,1-.443.1c-.15.036-.3.076-.451.111-.2.048-.4.087-.6.14a9.608,9.608,0,0,1-1.109.232,14.475,14.475,0,0,1-2.515.246c-.816-.035-1.568-.573-2.378-.555-.453.009-1.613.318-1.678.883-.06.521.992.672,1.369.749a3.745,3.745,0,0,0,1.847-.188,14.679,14.679,0,0,1,1.415-.529c.817-.183,1.647-.249,2.471-.387.138-.023.271-.1.41-.111.386-.033.483-.158.37.289a2.228,2.228,0,0,1-.677.973c-.474.422-1.069.566-1.475,1.086-.276.353-.74,1.228-.175,1.531.35.188.951-.077,1.242-.276,1.405-.963.542-2.888,1.891-3.806a1.958,1.958,0,0,1,.559-.179,2.283,2.283,0,0,0,.6-.214.824.824,0,0,1,.394-.1,1.939,1.939,0,0,0,.544-.247c.21-.1.42-.2.631-.3.3-.14.571-.337.868-.485a1.138,1.138,0,0,1,.471-.182c.235.021.116.224.054.416s-.116.379-.162.57c-.1.405-.1.835-.235,1.233-.27.833-1.245,1.323-1.092,2.307l.006.036c.083.5.152,2.35,1.029,1.8a3.265,3.265,0,0,0,.848-1.307,1.994,1.994,0,0,0-.114-1.672c-.275-.59.009-1.046-.105-1.628a2.633,2.633,0,0,1,.789-2.311,1.986,1.986,0,0,1,.76-.441,3.5,3.5,0,0,0,.433-.311,2.1,2.1,0,0,0,.289-.2c.227-.212.515-.323.752-.515.131-.106.31-.175.441-.288a2.461,2.461,0,0,1,.33-.252c.346-.218.682-.453,1.026-.672q.446-.286.9-.562c.26-.158.539-.185.75-.413.138-.15.446-.437.517-.1.036.176-.1.367-.168.511a9.352,9.352,0,0,0-.371.948,10.809,10.809,0,0,1-.318,1.156,2.976,2.976,0,0,1-.664.752,2.588,2.588,0,0,0-.531,1.811c0,.284-.068,1.51.256,1.605.76.224,1.754-2.135,1.687-2.637s-.462-.8-.472-1.309a4.228,4.228,0,0,1,.389-1.42,8.551,8.551,0,0,1,.5-1.169,2.567,2.567,0,0,1,.342-.558,2.752,2.752,0,0,1,.862-.568c.2-.088.372-.219.566-.309C866.971,6027.1,867.234,6026.99,867.5,6026.87Z" transform="translate(-726.056 -6022.868)" fill="#5e6850"/>
      <path id="Path_5079-2" data-name="Path 5079" d="M847.837,6042.428a2.57,2.57,0,0,1-.48-.061c-.1-.007-.191.016-.287.012a7.748,7.748,0,0,1-.971-.105c-.34-.06-.693-.052-1.036-.091a6.315,6.315,0,0,1-1.453-.275c-.415-.15-.861-.193-1.275-.351-.477-.182-.963-.343-1.428-.556-.261-.12-.525-.228-.787-.348-.2-.089-.37-.22-.567-.31a2.728,2.728,0,0,1-.861-.568,2.525,2.525,0,0,1-.343-.558,8.41,8.41,0,0,1-.495-1.17,4.612,4.612,0,0,1-.387-1.347c-.012-.4.269-.714.265-1.122-.008-.76-.361-3.725-1.621-3.473-.5.1-.5,1.515-.536,1.909-.107,1.111,1.219,1.829,1.6,2.8.275.7.389,1.457.706,2.144.066.142.2.335.168.511-.069.336-.378.049-.517-.1-.21-.229-.491-.254-.75-.413q-.452-.275-.9-.562c-.344-.22-.68-.455-1.025-.672a2.477,2.477,0,0,1-.331-.252c-.131-.114-.311-.182-.441-.288-.237-.191-.525-.3-.751-.514a2.071,2.071,0,0,0-.29-.206,3.584,3.584,0,0,0-.433-.31,1.994,1.994,0,0,1-.76-.442c-.164-.179-.372-.294-.467-.526-.064-.151-.12-.3-.172-.46a8.679,8.679,0,0,1-.235-.854,6.029,6.029,0,0,1-.222-2,9.216,9.216,0,0,0,.274-1.482c0-.483.07-2.54-.845-2.34-.687.151-.734,1.1-.7,1.661a2.383,2.383,0,0,0,.228.827,11.72,11.72,0,0,1,.681,1.464c.2.688.157,1.461.333,2.172.048.191.1.382.162.569s.182.4-.054.416a1.156,1.156,0,0,1-.471-.182c-.3-.148-.569-.345-.868-.485-.211-.1-.42-.2-.631-.3a1.933,1.933,0,0,0-.543-.248.833.833,0,0,1-.394-.1,2.277,2.277,0,0,0-.6-.213,1.917,1.917,0,0,1-.559-.18,1.643,1.643,0,0,1-.5-.52c-.169-.289-.371-.56-.553-.84-.07-.11-.162-.2-.234-.312-.424-.667-.457-1.448-.887-2.146-.24-.389-1.948-2.226-2.2-1.151-.208.9,1.083,2.238,1.8,2.578a3.018,3.018,0,0,1,.664.313,3.149,3.149,0,0,1,.51.649c.142.2.295.387.423.595a1.432,1.432,0,0,1,.168.342.9.9,0,0,0,.054.153c.027.053.078.121.023.176-.084.081-.346-.03-.447-.039-.138-.012-.271-.089-.41-.112-.34-.057-.683-.1-1.025-.14-.563-.06-1.128-.063-1.693-.086a9.622,9.622,0,0,1-1.389-.01,2.775,2.775,0,0,1-.429-.044c-.516-.21-.9-.583-1.464-.584a7.9,7.9,0,0,0-1.184.109c-.368.056-1.669.419-1.58.972.038.232.446.4.633.461a2.587,2.587,0,0,0,1.626-.028c.479-.13.98-.046,1.468-.17a9.549,9.549,0,0,1,1.629-.426,14.333,14.333,0,0,1,2.877.167,9.28,9.28,0,0,1,1.109.232c.2.052.4.091.6.14.151.035.3.075.451.112a1.712,1.712,0,0,1,.435.092c.04.021-.232.149-.26.163-.129.056-.248.13-.376.188-.249.11-.518.167-.763.285a5.931,5.931,0,0,1-1.817.619c-1.161.175-2.164.437-2.686,1.558-.23.493-.44,1.231.374,1.175a2.725,2.725,0,0,0,1.106-.545,9.927,9.927,0,0,0,1.169-.778,6.979,6.979,0,0,0,.762-.95,4.181,4.181,0,0,1,1.59-.961,8.586,8.586,0,0,1,.941-.36,1.793,1.793,0,0,1,.889-.059,5.865,5.865,0,0,1,1.111.463c.446.208.884.435,1.314.673a2.972,2.972,0,0,1,.559.339,1.517,1.517,0,0,0,.356.288c.116.056.28.056.378.145.253.231-.192.267-.338.308a5.968,5.968,0,0,0-.771.275,4.513,4.513,0,0,1-.642.349c-.442.107-.818-.05-1.235.073-.842.252-1.517.229-2.139.884-.336.354-1.087,1.1-1.074,1.632.021.883,1.6-.16,1.961-.355a3.787,3.787,0,0,0,1.349-.842,4.456,4.456,0,0,1,.913-1.05,6.564,6.564,0,0,1,1.933-.722,2.41,2.41,0,0,1,.706-.026,1.183,1.183,0,0,1,.61.287c.277.182.552.365.828.549a4.424,4.424,0,0,1,.426.315c.118.1.407.219.451.367-.205.132-.42.081-.63.17a2.6,2.6,0,0,0-1.142.756c-.306.387-.485.9-.953,1.112-.641.29-1.192.279-1.528,1a5.572,5.572,0,0,0-.461,2.206c.065,1.128,1.107.1,1.44-.294a9.947,9.947,0,0,0,1.037-1.59c.292-.551-.147-1.036.243-1.521.13-.164.206-.344.322-.513a3.082,3.082,0,0,1,.765-.7,1.816,1.816,0,0,1,1.366-.265,2.169,2.169,0,0,1,1.09.571,3.146,3.146,0,0,0,.936.627,8.742,8.742,0,0,0,1.024.473,3.466,3.466,0,0,1,.751.37c.229.136.873.2.816.555-.044.273-1.085.958-1.347,1.1-.425.229-.924.283-1.357.5-.676.342-.951.918-1.4,1.476-.332.41-1.137,1.081-.946,1.7.145.464,1.675-.729,1.8-.823a2.933,2.933,0,0,0,1.412-1.705c.039-.2.306-.4.428-.56.167-.22.374-.4.56-.608a2.4,2.4,0,0,1,1.343-.822,2.851,2.851,0,0,1,1.476.347,26.017,26.017,0,0,0,3.538.963c.6.121,1.2.221,1.809.3.183.025.621.167.777.045a.739.739,0,0,0,.193-.5C848.162,6042.388,847.992,6042.412,847.837,6042.428Z" transform="translate(-721.465 -6023.707)" fill="#5e6850"/>
      <path id="Path_5080-2" data-name="Path 5080" d="M813.5,6026.87c.466-.212.951-.374,1.428-.557.414-.159.86-.2,1.275-.35a6.29,6.29,0,0,1,1.453-.275c.343-.04.7-.033,1.037-.091a7.909,7.909,0,0,1,.97-.106c.1,0,.19.02.287.013a2.424,2.424,0,0,1,.481-.061c.154.016.324.04.394-.144a.739.739,0,0,0-.193-.5c-.156-.122-.594.02-.776.045-.605.083-1.21.182-1.81.3a26.12,26.12,0,0,0-3.538.963,2.86,2.86,0,0,1-1.475.348,2.409,2.409,0,0,1-1.343-.822c-.185-.2-.394-.387-.559-.609-.456-.605-.579-1.049-1.283-1.441a3.253,3.253,0,0,0-2.384-.667c-.471.1-.863.069-.575.66a2.086,2.086,0,0,0,.84.741,4.912,4.912,0,0,0,1.66.829c.444.058.911-.189,1.355-.04.373.125.657.6.93.866a4.373,4.373,0,0,0,.633.512c.7.462-.25.585-.58.781a3.436,3.436,0,0,1-.751.37,8.684,8.684,0,0,0-1.024.474,3.121,3.121,0,0,0-.937.627,2.161,2.161,0,0,1-1.09.571,1.82,1.82,0,0,1-1.366-.264,3.084,3.084,0,0,1-.765-.7c-.116-.169-.192-.349-.322-.512-.42-.524-.054-1.341-.541-1.925-.332-.4-1.22-1.179-1.806-1.016-.711.2.343,1.728.513,2.027a1.969,1.969,0,0,0,.76.908,3.393,3.393,0,0,1,1.3.919,2.3,2.3,0,0,0,1.141.754c.209.089.425.038.629.17-.044.147-.332.267-.451.366a4.275,4.275,0,0,1-.427.315q-.412.277-.827.55a1.188,1.188,0,0,1-.611.286,2.394,2.394,0,0,1-.706-.026,5.865,5.865,0,0,1-1.013-.35c-.737-.331-1.461-.684-2.227-.948a3.818,3.818,0,0,0-1.335-.306c-.4.021-1.32.36-1.294.862.054,1.045,2.159.66,2.744.575.343-.051.67-.232,1.008-.261.431-.038.686.241,1.049.4a6.014,6.014,0,0,0,.772.276c.146.041.59.076.337.306-.1.09-.261.091-.377.146a1.512,1.512,0,0,0-.357.288,3,3,0,0,1-.559.338c-.43.238-.868.464-1.313.673a5.956,5.956,0,0,1-1.112.463,1.805,1.805,0,0,1-.889-.059,8.8,8.8,0,0,1-.941-.361c-.737-.321-1.482-.67-2.2-1.031-.447-.226-1.341-.749-1.859-.516-.606.272-.224.864.15,1.15.664.509,1.285.27,2.044.228a4.475,4.475,0,0,1,1.755.42c.186.076.83.575,1.016.489a2.283,2.283,0,0,1-.443.1c-.151.036-.3.076-.451.111-.2.048-.4.087-.6.14a9.572,9.572,0,0,1-1.109.232,14.475,14.475,0,0,1-2.515.246c-.816-.035-1.568-.573-2.378-.555-.453.009-1.612.318-1.677.883-.06.521.992.672,1.369.749a3.744,3.744,0,0,0,1.847-.188,14.664,14.664,0,0,1,1.415-.529c.818-.183,1.648-.249,2.472-.387.137-.023.271-.1.41-.111.386-.033.483-.158.37.289a2.23,2.23,0,0,1-.678.973c-.474.422-1.068.566-1.475,1.086-.276.353-.74,1.228-.175,1.531.35.188.951-.077,1.243-.276,1.405-.963.542-2.888,1.891-3.806a1.961,1.961,0,0,1,.559-.179,2.278,2.278,0,0,0,.6-.214.825.825,0,0,1,.394-.1,1.934,1.934,0,0,0,.543-.247c.21-.1.42-.2.631-.3.3-.14.571-.337.868-.485a1.139,1.139,0,0,1,.471-.182c.235.021.117.224.054.416s-.116.379-.163.57c-.1.405-.1.835-.234,1.233-.27.833-1.245,1.323-1.092,2.307l.005.036c.083.5.152,2.35,1.03,1.8a3.254,3.254,0,0,0,.847-1.307,1.994,1.994,0,0,0-.112-1.672c-.276-.59.008-1.046-.107-1.628a2.634,2.634,0,0,1,.79-2.311,1.989,1.989,0,0,1,.759-.441,3.443,3.443,0,0,0,.434-.311,2.143,2.143,0,0,0,.289-.2c.227-.212.515-.323.752-.515.13-.106.31-.175.441-.288a2.466,2.466,0,0,1,.33-.252c.346-.218.681-.453,1.025-.672q.447-.286.9-.562c.259-.158.539-.185.75-.413.138-.15.446-.437.516-.1.037.176-.1.367-.168.511a9.573,9.573,0,0,0-.371.948,10.423,10.423,0,0,1-.318,1.156,2.992,2.992,0,0,1-.663.752,2.593,2.593,0,0,0-.532,1.811c0,.284-.068,1.51.256,1.605.76.224,1.754-2.135,1.688-2.637s-.462-.8-.473-1.309a4.251,4.251,0,0,1,.389-1.42,8.453,8.453,0,0,1,.5-1.169,2.534,2.534,0,0,1,.342-.558,2.743,2.743,0,0,1,.862-.568c.2-.088.372-.219.566-.309C812.98,6027.1,813.243,6026.99,813.5,6026.87Z" transform="translate(-717.282 -6022.868)" fill="#5e6850"/>
      <path id="Path_5081-2" data-name="Path 5081" d="M793.846,6042.428a2.57,2.57,0,0,1-.48-.061c-.1-.007-.191.016-.287.012a7.715,7.715,0,0,1-.971-.105c-.34-.06-.693-.052-1.037-.091a6.316,6.316,0,0,1-1.453-.275c-.415-.15-.861-.193-1.275-.351-.477-.182-.962-.343-1.427-.556-.261-.12-.525-.228-.788-.348-.194-.089-.37-.22-.566-.31a2.752,2.752,0,0,1-.862-.568,2.552,2.552,0,0,1-.342-.558,8.512,8.512,0,0,1-.5-1.17,4.637,4.637,0,0,1-.386-1.347c-.012-.4.268-.714.264-1.122-.008-.76-.36-3.725-1.621-3.473-.5.1-.5,1.515-.537,1.909-.107,1.111,1.219,1.829,1.6,2.8.276.7.389,1.457.707,2.144.066.142.2.335.168.511-.07.336-.379.049-.517-.1-.21-.229-.491-.254-.75-.413q-.453-.275-.9-.562c-.344-.22-.68-.455-1.026-.672a2.465,2.465,0,0,1-.33-.252c-.132-.114-.311-.182-.441-.288-.237-.191-.525-.3-.752-.514a2.021,2.021,0,0,0-.289-.206,3.585,3.585,0,0,0-.433-.31,1.994,1.994,0,0,1-.76-.442c-.164-.179-.372-.294-.468-.526q-.094-.226-.172-.46c-.094-.281-.171-.566-.236-.854a6.05,6.05,0,0,1-.222-2,9.124,9.124,0,0,0,.275-1.482c0-.483.069-2.54-.845-2.34-.687.151-.734,1.1-.7,1.661a2.346,2.346,0,0,0,.228.827,11.737,11.737,0,0,1,.681,1.464c.2.688.157,1.461.333,2.172.047.191.1.382.162.569s.182.4-.054.416a1.153,1.153,0,0,1-.471-.182c-.3-.148-.569-.345-.868-.485-.211-.1-.421-.2-.631-.3a1.937,1.937,0,0,0-.544-.248.83.83,0,0,1-.394-.1,2.294,2.294,0,0,0-.6-.213,1.934,1.934,0,0,1-.559-.18,1.653,1.653,0,0,1-.5-.52c-.168-.289-.37-.56-.552-.84-.071-.11-.163-.2-.235-.312-.424-.667-.456-1.448-.887-2.146-.24-.389-1.948-2.226-2.2-1.151-.208.9,1.084,2.238,1.8,2.578a3.038,3.038,0,0,1,.664.313,3.121,3.121,0,0,1,.509.649c.143.2.3.387.424.595a1.462,1.462,0,0,1,.168.342.836.836,0,0,0,.054.153c.026.053.078.121.023.176-.084.081-.347-.03-.447-.039-.138-.012-.272-.089-.409-.112q-.51-.085-1.026-.14c-.562-.06-1.128-.063-1.692-.086a9.622,9.622,0,0,1-1.389-.01,2.786,2.786,0,0,1-.43-.044c-.516-.21-.9-.583-1.463-.584a7.908,7.908,0,0,0-1.185.109c-.368.056-1.668.419-1.58.972.038.232.446.4.632.461a2.59,2.59,0,0,0,1.626-.028c.478-.13.98-.046,1.468-.17a9.509,9.509,0,0,1,1.629-.426,14.336,14.336,0,0,1,2.877.167,9.279,9.279,0,0,1,1.109.232c.2.052.4.091.6.14.151.035.3.075.451.112a1.712,1.712,0,0,1,.436.092c.04.021-.231.149-.26.163-.13.056-.249.13-.377.188-.248.11-.518.167-.763.285a5.919,5.919,0,0,1-1.817.619c-1.162.175-2.164.437-2.687,1.558-.23.493-.439,1.231.375,1.175a2.726,2.726,0,0,0,1.1-.545,9.793,9.793,0,0,0,1.169-.778,6.991,6.991,0,0,0,.763-.95,4.168,4.168,0,0,1,1.59-.961,8.524,8.524,0,0,1,.941-.36,1.79,1.79,0,0,1,.888-.059,5.9,5.9,0,0,1,1.112.463c.446.208.884.435,1.314.673a3,3,0,0,1,.559.339,1.539,1.539,0,0,0,.357.288c.116.056.279.056.377.145.254.231-.191.267-.337.308a5.934,5.934,0,0,0-.772.275,4.467,4.467,0,0,1-.642.349c-.441.107-.818-.05-1.235.073-.842.252-1.516.229-2.138.884-.336.354-1.087,1.1-1.075,1.632.022.883,1.6-.16,1.962-.355a3.793,3.793,0,0,0,1.349-.842,4.46,4.46,0,0,1,.913-1.05,6.557,6.557,0,0,1,1.933-.722,2.409,2.409,0,0,1,.706-.026,1.184,1.184,0,0,1,.61.287c.277.182.552.365.827.549a4.417,4.417,0,0,1,.426.315c.118.1.406.219.451.367-.205.132-.42.081-.629.17a2.6,2.6,0,0,0-1.142.756c-.306.387-.485.9-.953,1.112-.642.29-1.192.279-1.528,1a5.57,5.57,0,0,0-.46,2.206c.064,1.128,1.106.1,1.439-.294a9.835,9.835,0,0,0,1.037-1.59c.292-.551-.146-1.036.243-1.521.131-.164.207-.344.322-.513a3.078,3.078,0,0,1,.765-.7,1.816,1.816,0,0,1,1.366-.265,2.171,2.171,0,0,1,1.09.571,3.136,3.136,0,0,0,.936.627,8.683,8.683,0,0,0,1.024.473,3.484,3.484,0,0,1,.751.37c.229.136.873.2.815.555-.044.273-1.085.958-1.346,1.1-.425.229-.924.283-1.358.5-.676.342-.951.918-1.4,1.476-.332.41-1.136,1.081-.945,1.7.144.464,1.674-.729,1.8-.823a2.933,2.933,0,0,0,1.412-1.705c.039-.2.306-.4.428-.56.166-.22.374-.4.559-.608a2.4,2.4,0,0,1,1.343-.822,2.848,2.848,0,0,1,1.475.347,26.048,26.048,0,0,0,3.538.963c.6.121,1.2.221,1.81.3.183.025.621.167.777.045a.743.743,0,0,0,.193-.5C794.171,6042.388,794,6042.412,793.846,6042.428Z" transform="translate(-712.691 -6023.707)" fill="#5e6850"/>
      <path id="Path_5082-2" data-name="Path 5082" d="M759.513,6026.87c.465-.212.951-.374,1.428-.557.414-.159.859-.2,1.274-.35a6.305,6.305,0,0,1,1.454-.275c.343-.04.7-.033,1.037-.091a7.909,7.909,0,0,1,.97-.106c.1,0,.19.02.287.013a2.416,2.416,0,0,1,.48-.061c.155.016.325.04.4-.144a.743.743,0,0,0-.193-.5c-.157-.122-.594.02-.776.045-.606.083-1.21.182-1.81.3a26.085,26.085,0,0,0-3.538.963,2.861,2.861,0,0,1-1.476.348,2.409,2.409,0,0,1-1.343-.822c-.184-.2-.393-.387-.559-.609-.456-.605-.579-1.049-1.283-1.441a3.254,3.254,0,0,0-2.384-.667c-.472.1-.864.069-.575.66a2.085,2.085,0,0,0,.839.741,4.916,4.916,0,0,0,1.661.829c.444.058.911-.189,1.354-.04.373.125.657.6.93.866a4.42,4.42,0,0,0,.634.512c.7.462-.25.585-.58.781a3.4,3.4,0,0,1-.751.37,8.7,8.7,0,0,0-1.024.474,3.118,3.118,0,0,0-.936.627,2.165,2.165,0,0,1-1.09.571,1.82,1.82,0,0,1-1.366-.264,3.085,3.085,0,0,1-.765-.7c-.116-.169-.191-.349-.322-.512-.42-.524-.054-1.341-.541-1.925-.332-.4-1.22-1.179-1.807-1.016-.71.2.343,1.728.513,2.027a1.975,1.975,0,0,0,.76.908,3.393,3.393,0,0,1,1.3.919,2.294,2.294,0,0,0,1.141.754c.209.089.424.038.629.17-.045.147-.333.267-.451.366a4.391,4.391,0,0,1-.427.315q-.412.277-.828.55a1.186,1.186,0,0,1-.61.286,2.393,2.393,0,0,1-.706-.026,5.864,5.864,0,0,1-1.013-.35c-.737-.331-1.462-.684-2.227-.948a3.821,3.821,0,0,0-1.335-.306c-.4.021-1.32.36-1.294.862.054,1.045,2.159.66,2.744.575.343-.051.67-.232,1.008-.261.431-.038.687.241,1.05.4a6.045,6.045,0,0,0,.771.276c.146.041.59.076.338.306-.1.09-.262.091-.378.146a1.507,1.507,0,0,0-.356.288,3.052,3.052,0,0,1-.559.338c-.431.238-.868.464-1.314.673a5.925,5.925,0,0,1-1.111.463,1.8,1.8,0,0,1-.889-.059,8.728,8.728,0,0,1-.941-.361c-.737-.321-1.482-.67-2.2-1.031-.447-.226-1.341-.749-1.86-.516-.606.272-.223.864.151,1.15.664.509,1.285.27,2.043.228a4.479,4.479,0,0,1,1.755.42c.186.076.83.575,1.015.489a2.272,2.272,0,0,1-.442.1c-.151.036-.3.076-.451.111-.2.048-.4.087-.6.14a9.54,9.54,0,0,1-1.109.232,14.458,14.458,0,0,1-2.515.246c-.815-.035-1.567-.573-2.378-.555-.454.009-1.613.318-1.678.883-.06.521.993.672,1.369.749a3.748,3.748,0,0,0,1.848-.188,14.59,14.59,0,0,1,1.414-.529c.818-.183,1.647-.249,2.471-.387.138-.023.271-.1.41-.111.386-.033.484-.158.37.289a2.228,2.228,0,0,1-.677.973c-.475.422-1.069.566-1.475,1.086-.276.353-.74,1.228-.175,1.531.35.188.951-.077,1.243-.276,1.405-.963.541-2.888,1.891-3.806a1.953,1.953,0,0,1,.559-.179,2.261,2.261,0,0,0,.6-.214.83.83,0,0,1,.394-.1,1.933,1.933,0,0,0,.543-.247c.21-.1.42-.2.631-.3.3-.14.572-.337.868-.485a1.147,1.147,0,0,1,.472-.182c.235.021.116.224.054.416s-.115.379-.162.57c-.1.405-.1.835-.234,1.233-.271.833-1.246,1.323-1.093,2.307l.006.036c.083.5.152,2.35,1.029,1.8a3.254,3.254,0,0,0,.848-1.307,1.991,1.991,0,0,0-.113-1.672c-.276-.59.008-1.046-.106-1.628a2.636,2.636,0,0,1,.789-2.311,1.992,1.992,0,0,1,.76-.441,3.493,3.493,0,0,0,.433-.311,2.084,2.084,0,0,0,.289-.2c.227-.212.516-.323.752-.515.131-.106.311-.175.442-.288a2.4,2.4,0,0,1,.33-.252c.345-.218.681-.453,1.025-.672q.446-.286.9-.562c.259-.158.539-.185.75-.413.138-.15.446-.437.516-.1.036.176-.1.367-.168.511a9.367,9.367,0,0,0-.371.948,10.612,10.612,0,0,1-.318,1.156,2.98,2.98,0,0,1-.664.752,2.6,2.6,0,0,0-.531,1.811c0,.284-.068,1.51.256,1.605.76.224,1.754-2.135,1.687-2.637s-.461-.8-.472-1.309a4.232,4.232,0,0,1,.389-1.42,8.464,8.464,0,0,1,.495-1.169,2.54,2.54,0,0,1,.343-.558,2.741,2.741,0,0,1,.861-.568c.2-.088.372-.219.567-.309C758.988,6027.1,759.251,6026.99,759.513,6026.87Z" transform="translate(-708.508 -6022.868)" fill="#5e6850"/>
      <path id="Path_5083-2" data-name="Path 5083" d="M739.855,6042.428a2.577,2.577,0,0,1-.48-.061c-.1-.007-.191.016-.287.012a7.718,7.718,0,0,1-.97-.105c-.34-.06-.693-.052-1.037-.091a6.316,6.316,0,0,1-1.453-.275c-.415-.15-.861-.193-1.275-.351-.477-.182-.963-.343-1.428-.556-.261-.12-.525-.228-.787-.348-.2-.089-.37-.22-.566-.31a2.733,2.733,0,0,1-.862-.568,2.558,2.558,0,0,1-.343-.558,8.618,8.618,0,0,1-.5-1.17,4.662,4.662,0,0,1-.386-1.347c-.011-.4.269-.714.265-1.122-.008-.76-.361-3.725-1.621-3.473-.5.1-.5,1.515-.536,1.909-.107,1.111,1.219,1.829,1.6,2.8.275.7.389,1.457.706,2.144.066.142.205.335.168.511-.07.336-.378.049-.516-.1-.211-.229-.492-.254-.75-.413q-.452-.275-.9-.562c-.344-.22-.679-.455-1.025-.672a2.465,2.465,0,0,1-.33-.252c-.131-.114-.312-.182-.442-.288-.236-.191-.524-.3-.751-.514a2.078,2.078,0,0,0-.29-.206,3.519,3.519,0,0,0-.433-.31,1.994,1.994,0,0,1-.76-.442c-.164-.179-.372-.294-.467-.526-.064-.151-.12-.3-.172-.46a8.662,8.662,0,0,1-.235-.854,6.028,6.028,0,0,1-.222-2,9.21,9.21,0,0,0,.275-1.482c0-.483.069-2.54-.845-2.34-.687.151-.734,1.1-.7,1.661a2.382,2.382,0,0,0,.228.827,11.616,11.616,0,0,1,.681,1.464c.2.688.157,1.461.333,2.172.048.191.1.382.162.569s.182.4-.054.416a1.161,1.161,0,0,1-.472-.182c-.3-.148-.568-.345-.868-.485-.211-.1-.42-.2-.631-.3a1.922,1.922,0,0,0-.543-.248.83.83,0,0,1-.394-.1,2.293,2.293,0,0,0-.6-.213,1.925,1.925,0,0,1-.559-.18,1.653,1.653,0,0,1-.5-.52c-.169-.289-.37-.56-.552-.84-.071-.11-.163-.2-.234-.312-.424-.667-.456-1.448-.887-2.146-.24-.389-1.948-2.226-2.2-1.151-.209.9,1.084,2.238,1.8,2.578a3.009,3.009,0,0,1,.663.313,3.123,3.123,0,0,1,.51.649c.143.2.3.387.423.595a1.465,1.465,0,0,1,.169.342.891.891,0,0,0,.054.153c.027.053.079.121.023.176-.083.081-.346-.03-.447-.039-.138-.012-.271-.089-.409-.112q-.511-.085-1.026-.14c-.562-.06-1.128-.063-1.693-.086a9.624,9.624,0,0,1-1.389-.01,2.774,2.774,0,0,1-.429-.044c-.516-.21-.9-.583-1.464-.584a7.906,7.906,0,0,0-1.184.109c-.368.056-1.668.419-1.58.972.038.232.446.4.633.461a2.59,2.59,0,0,0,1.626-.028c.478-.13.979-.046,1.467-.17a9.547,9.547,0,0,1,1.629-.426,14.344,14.344,0,0,1,2.878.167,9.313,9.313,0,0,1,1.109.232c.2.052.4.091.6.14.151.035.3.075.451.112a1.711,1.711,0,0,1,.435.092c.04.021-.232.149-.26.163-.129.056-.248.13-.376.188-.248.11-.518.167-.763.285a5.916,5.916,0,0,1-1.817.619c-1.161.175-2.163.437-2.686,1.558-.23.493-.44,1.231.374,1.175a2.724,2.724,0,0,0,1.106-.545,9.927,9.927,0,0,0,1.169-.778,6.985,6.985,0,0,0,.762-.95,4.181,4.181,0,0,1,1.59-.961,8.6,8.6,0,0,1,.941-.36,1.793,1.793,0,0,1,.889-.059,5.864,5.864,0,0,1,1.111.463c.446.208.884.435,1.314.673a2.97,2.97,0,0,1,.559.339,1.505,1.505,0,0,0,.357.288c.115.056.279.056.377.145.253.231-.191.267-.338.308a5.965,5.965,0,0,0-.771.275,4.51,4.51,0,0,1-.642.349c-.442.107-.818-.05-1.235.073-.843.252-1.517.229-2.139.884-.336.354-1.087,1.1-1.074,1.632.021.883,1.6-.16,1.961-.355a3.787,3.787,0,0,0,1.349-.842,4.455,4.455,0,0,1,.913-1.05,6.566,6.566,0,0,1,1.933-.722,2.41,2.41,0,0,1,.706-.026,1.184,1.184,0,0,1,.61.287q.416.272.827.549a4.537,4.537,0,0,1,.427.315c.117.1.406.219.451.367-.205.132-.42.081-.629.17a2.6,2.6,0,0,0-1.142.756c-.306.387-.485.9-.953,1.112-.641.29-1.192.279-1.528,1a5.571,5.571,0,0,0-.461,2.206c.064,1.128,1.107.1,1.44-.294a9.946,9.946,0,0,0,1.037-1.59c.292-.551-.147-1.036.243-1.521.131-.164.206-.344.322-.513a3.081,3.081,0,0,1,.765-.7,1.816,1.816,0,0,1,1.366-.265,2.169,2.169,0,0,1,1.09.571,3.147,3.147,0,0,0,.936.627,8.747,8.747,0,0,0,1.024.473,3.466,3.466,0,0,1,.751.37c.229.136.873.2.816.555-.044.273-1.085.958-1.347,1.1-.425.229-.924.283-1.357.5-.676.342-.951.918-1.4,1.476-.332.41-1.136,1.081-.945,1.7.145.464,1.675-.729,1.8-.823a2.939,2.939,0,0,0,1.412-1.705c.039-.2.306-.4.428-.56.166-.22.374-.4.559-.608a2.4,2.4,0,0,1,1.343-.822,2.851,2.851,0,0,1,1.476.347,26.048,26.048,0,0,0,3.538.963c.6.121,1.2.221,1.81.3.183.025.621.167.776.045a.739.739,0,0,0,.193-.5C740.18,6042.388,740.009,6042.412,739.855,6042.428Z" transform="translate(-703.918 -6023.707)" fill="#5e6850"/>
      <path id="Path_5084-2" data-name="Path 5084" d="M708.829,6026.871c.465-.212.951-.374,1.428-.557.413-.159.859-.2,1.274-.35a6.306,6.306,0,0,1,1.453-.275c.343-.04.7-.033,1.037-.091a7.9,7.9,0,0,1,.97-.106c.1,0,.19.02.287.013a2.424,2.424,0,0,1,.481-.061c.154.016.325.04.394-.144a.741.741,0,0,0-.193-.5c-.156-.122-.595.02-.777.045-.606.083-1.209.182-1.81.3a26.119,26.119,0,0,0-3.538.963,2.856,2.856,0,0,1-1.475.348,2.409,2.409,0,0,1-1.343-.822c-.185-.2-.394-.387-.559-.609-.456-.605-.579-1.049-1.282-1.441a3.571,3.571,0,0,0-2.133-.7v1.43l.013.008a4.912,4.912,0,0,0,1.66.829c.445.058.911-.189,1.355-.04.373.125.657.6.93.866a4.366,4.366,0,0,0,.633.512c.7.462-.25.585-.58.781a3.416,3.416,0,0,1-.751.37,8.689,8.689,0,0,0-1.024.474,3.108,3.108,0,0,0-.936.627,2.167,2.167,0,0,1-1.09.571,1.76,1.76,0,0,1-.209.027v.647c.255-.167.506-.339.762-.5q.446-.286.9-.562c.26-.158.54-.185.75-.413.138-.15.446-.437.517-.1.036.176-.1.367-.169.511a9.757,9.757,0,0,0-.371.948,10.609,10.609,0,0,1-.317,1.156,2.994,2.994,0,0,1-.664.752,2.593,2.593,0,0,0-.532,1.811c0,.284-.068,1.51.256,1.605.76.224,1.755-2.135,1.688-2.637s-.462-.8-.473-1.309a4.25,4.25,0,0,1,.39-1.42,8.543,8.543,0,0,1,.5-1.169,2.532,2.532,0,0,1,.342-.558,2.743,2.743,0,0,1,.862-.568c.2-.088.372-.219.566-.309C708.3,6027.1,708.567,6026.991,708.829,6026.871Z" transform="translate(-703.042 -6022.868)" fill="#5e6850"/>
    </g>
  </g>
</svg>
