<svg id="botanic-icon-shop" xmlns="http://www.w3.org/2000/svg" width="95.084" height="94.825" viewBox="0 0 95.084 94.825">
  <path id="Path_14686" data-name="Path 14686" d="M-2179.22-3553.3c-.326-2.557-3.77-2.812-5.32-1.443a12.309,12.309,0,0,1-2.233,1.993,12.826,12.826,0,0,1-3.252.876c-.968.22-1.925.489-2.909.637a5.891,5.891,0,0,1-1.555.085,3.4,3.4,0,0,0-.658-.04c-.241.014-.583.1-.7-.2-.173-.444.665-1.253.858-1.618.264-.5.767-.877,1.073-1.358q1.137-1.778,2.165-3.626c1.122-2.016,2.045-4.131,3.029-6.215.791-1.671,1.237-3.669,2.261-5.2a11.755,11.755,0,0,1,.85-1.541c.813-.8,2.084-.657,2.807-1.666a2.917,2.917,0,0,0-.618-3.646,2.868,2.868,0,0,0-4.527.186,3.145,3.145,0,0,0-.009,3.5,3.189,3.189,0,0,1,.127,2.445c-.233.7-.314,1.363-.543,2.049a60.437,60.437,0,0,1-5.518,11.367,38.612,38.612,0,0,1-2.642,3.792c-.513.662-.987,1.357-1.485,2.03-.375.509-.76,1.008-1.14,1.514a6.994,6.994,0,0,1-1.042,1.488c-.142.118-.19-1.11-.191-1.236-.005-.576-.094-1.14-.1-1.713-.019-1.108.2-2.212.151-3.319-.075-1.72-.515-3.169-.144-4.9.317-1.478,1.9-2.223,2.259-3.661a3.877,3.877,0,0,0-1.594-3.584c-2.285-1.559-5.7,1.629-4.463,4.052.424.831,1.216,1.381,1.636,2.268,1.141,2.4,1.052,4.907,1.071,7.5a35.459,35.459,0,0,1-.152,4.109,7.347,7.347,0,0,1-1.2,3.429,21.315,21.315,0,0,1-3.835,3.9,36.181,36.181,0,0,1-4.622,3.159,15.346,15.346,0,0,0-4.3,3.176,14.04,14.04,0,0,1-2.592,2.228c-1.262.923-3.245,4.3-3.862.926a17.661,17.661,0,0,0-.907-3.193c-.588-1.548-1.119-3.113-1.661-4.676-.367-1.059-.34-1.151.354-1.976a9.924,9.924,0,0,0,.952-1.306c1.017-1.727.365-4.718-1.813-5.248a3.135,3.135,0,0,0-1.085-.042,4.323,4.323,0,0,0-2.69,1.317,4.181,4.181,0,0,0,.108,4.6c.525.727,1.065.832,1.729,1.279.685.462,1,1.782,1.418,2.5.563.976.92,2.052,1.389,3.072a9.8,9.8,0,0,1,.938,6.357c-.454,2.122-2.251,3.437-3.662,4.982-4.69,5.135-8.546,10.9-12.995,16.206-.231.276-1,.976-1.025,1.368-.036.587,1.113,1.324,1.623,1.446a29.139,29.139,0,0,1,2.255-2.918c1.039-1.44,1.817-3.061,2.805-4.547.468-.7,1.116-1.286,1.625-1.979a35.668,35.668,0,0,1,2.454-3.442c1.229-1.314,2.1-2.922,3.354-4.223,1.447-1.5,2.833-3.064,4.374-4.469.866-.791,1.694-1.606,2.565-2.4.646-.588,1.418-1.039,2.068-1.631a11.17,11.17,0,0,1,3.51-2.327,10.4,10.4,0,0,1,2.639-.392,34.694,34.694,0,0,1,5.181.009,26.334,26.334,0,0,1,5.055.513c.687.183,1.375.3,2.05.464.879.219.869.929,1.4,1.5a5.488,5.488,0,0,0,3.274,1.3,3.072,3.072,0,0,0,3.092-1.913,3.07,3.07,0,0,0,.344-1.91,3.335,3.335,0,0,0-1.269-2.124,3.218,3.218,0,0,0-2.743-.946,3.653,3.653,0,0,0-1.952.54c-.539.394-.619,1.01-1.056,1.459-.847.874-2.6.515-3.7.384-1.261-.151-2.515-.4-3.788-.5a38.8,38.8,0,0,0-4.155-.121,3.458,3.458,0,0,1-2-.185c-.663-.425-.527-.836.078-1.172a39.2,39.2,0,0,0,3.691-2.761c.8-.572,1.637-1.1,2.421-1.686.753-.567,1.341-1.317,2.081-1.9a6.516,6.516,0,0,0,1.85-1.634,3.389,3.389,0,0,1,1.01-1.316,9.387,9.387,0,0,0,1.764-1.914,7.887,7.887,0,0,1,1.567-1.811,6.707,6.707,0,0,1,2.75-1.042c1.351-.173,2.691-.5,4.034-.73.526-.091,1.014-.29,1.548-.379.623-.1,1.247-.212,1.878-.256a2.921,2.921,0,0,1,1.19.158c.785.245,1.308.882,2.07,1.158C-2182.415-3549.372-2178.944-3551.133-2179.22-3553.3Z" transform="matrix(0.695, 0.719, -0.719, 0.695, -964.386, 4097.094)" fill="#5e6850"/>
</svg>
