<svg id="botanic-icon-testimonial" xmlns="http://www.w3.org/2000/svg" width="30.332" height="31.132" viewBox="0 0 30.332 31.132">
  <g id="Group_7863" data-name="Group 7863" transform="translate(-270.957 -7460.1)">
    <g id="Group_7862" data-name="Group 7862">
      <path id="Path_5089" data-name="Path 5089" d="M277.924,7468.5c-.512-.235-1.032-.48-1.554-.78-.931-.535-4.6-2.471-5.413-1.3.737,1.161,1.716,1.463,2.121,2.867a8.432,8.432,0,0,0,2.084,3.684c.928.837,1.888,1.8,2.883,2.553a6.178,6.178,0,0,0,3.715.911,12.115,12.115,0,0,1,5.107,1.4,8.026,8.026,0,0,1,3.368,2.157,7.87,7.87,0,0,0,2.118,1.864,22.018,22.018,0,0,0,2.387,1.51c.978.439,2.4,1.4,2.677,2.507.188.747-.063.875-.648,1.189a10.542,10.542,0,0,1-2.522.839c-1.754.438-2.978-.029-4.729-.393-1.673-.348-3.48-1-5.209-.689a15.933,15.933,0,0,1-2.1.487c-.72.033-1.438-.126-2.156-.08-.445.028-2.211.157-2.411.582-.3.634,1.887,1.528,2.373,1.728a22.31,22.31,0,0,0,4.617,1.6,13.228,13.228,0,0,0,4.86-.412,25.1,25.1,0,0,0,6.553-2.147c1.366-.689,2.314-1.826,3.992-1.527,1.065.19,1.809-.272.726-.952-.61-.382-1.228-.737-1.841-1.121-.454-.286-.847-.668-1.3-.954a6.849,6.849,0,0,1-1.952-1.693,6.38,6.38,0,0,1-.666-1.495,21.386,21.386,0,0,1-.846-3.066,11.6,11.6,0,0,1-.517-3.471c.105-1,.9-1.682,1.024-2.7a15.25,15.25,0,0,0-.577-7.083c-.445-1.1-1.4-4.576-2.937-4.4-.505,2.308-.793,4.6-1.327,6.9-.63,2.721,2.425,4.936,3.048,7.464.452,1.831.489,3.743,1.05,5.552.117.377.4.9.25,1.323-.283.81-.955,0-1.248-.42-.448-.636-1.136-.794-1.726-1.271q-1.033-.832-2.046-1.69c-.782-.659-1.537-1.353-2.324-2.006a6.173,6.173,0,0,1-.737-.733c-1.526-1.72-3.268-3.218-4.933-4.8A10.923,10.923,0,0,0,277.924,7468.5Z" fill="#aebc99"/>
    </g>
  </g>
</svg>
