<svg id="free-shipping-icon" xmlns="http://www.w3.org/2000/svg" width="170.692" height="112.656" viewBox="0 0 170.692 112.656">
  <g id="Group_21663" data-name="Group 21663" transform="translate(-2875.816 1517.036)">
    <path id="Path_16227" data-name="Path 16227" d="M2875.816-1517.036h100.641v96.509c-.923.042-1.732.11-2.541.11-9.394.007-18.789-.071-28.181.055-2.319.032-3-.759-3.122-2.966-.492-8.59-8.551-16.514-16.853-18.225-12.941-2.666-22.817,5.772-25.9,15.876a6.686,6.686,0,0,0-.166,1.231c-.429,4.026-.428,4.028-4.4,4.029h-19.471Z" fill="#fff"/>
    <path id="Path_16228" data-name="Path 16228" d="M2984.47-1496.123c11.5,0,22.631-.029,33.762.064a3.312,3.312,0,0,1,2.257,1.433c7.655,11.711,15.1,23.566,22.922,35.163a18.057,18.057,0,0,1,3.088,11.239c-.212,8.3-.06,16.6-.07,24.9,0,.89-.075,1.779-.126,2.907-3.739,0-7.3.127-10.836-.108-.694-.047-1.765-1.44-1.866-2.305-1.077-9.248-6.4-15.26-14.809-18.222A21.592,21.592,0,0,0,2991.338-1427c-.244.781-.608,1.531-.783,2.324-.3,1.335-.089,3.527-.8,3.866-1.439.681-3.354.36-5.282.463Zm7.044,6.9v26.911h40.834a4.042,4.042,0,0,0-.231-1.346c-5.233-8.069-10.472-16.133-15.785-24.15a3.131,3.131,0,0,0-2.108-1.354C3006.751-1489.264,2999.277-1489.226,2991.514-1489.226Z" fill="#fff"/>
    <path id="Path_16229" data-name="Path 16229" d="M3011.872-1404.424c-7.694.388-15.82-6.774-15.707-15.986.107-8.776,7.5-15.991,15.841-15.8,9.864.219,16.021,7.378,16.006,16.041A15.58,15.58,0,0,1,3011.872-1404.424Z" fill="#fff"/>
    <path id="Path_16230" data-name="Path 16230" d="M2905.461-1420.307c-.542-8.829,7.312-16.035,15.631-15.909,9.6.145,15.864,6.916,16.046,15.739.179,8.643-6.131,15.875-16.047,16.094C2912.871-1404.2,2904.851-1411.553,2905.461-1420.307Z" fill="#fff"/>
  </g>
  <path id="Path_16231" data-name="Path 16231" d="M-2506.264-3635.168a1.4,1.4,0,0,0,.321-.6c.141-.937-1.007-1.634-1.679-2.025a12.336,12.336,0,0,0-5.312-1.644c-1.291-.052-2.373-.74-3.606-1.1a11.485,11.485,0,0,1-2.408-1.1,15.829,15.829,0,0,0-3.209-1.109c-1.391-.418-2.21-.363-3.055-1.667a9.2,9.2,0,0,1-1.278-3.563c-.162-1.009-.361-2-.586-2.987a10.82,10.82,0,0,1-.4-1.651c-.036-.565-.049-1.123-.12-1.688a24.893,24.893,0,0,1-.6-4.017c.042-1.717.188-3.4-.649-4.979-1.728-3.256-5.428-3.776-8.418-5.33a15.16,15.16,0,0,1,.143,2.859c-.187,1.351-.864,2.772-.883,4.128a8.071,8.071,0,0,0,.766,2.849,6.21,6.21,0,0,0,4.047,3.58c.737.231,1.556.131,2.272.385,1.955.692,2.731,3.667,3.192,5.447.2.772.393,1.548.572,2.326a19.007,19.007,0,0,0,.984,2.83c.357.894-.5.98-1.2.881-.908-.13-1.793-.269-2.715-.336a12.734,12.734,0,0,1-2.812-.45c-1.317-.4-2.795-.392-4.158-.669q-1.6-.325-3.194-.721c-.133-.164-.26-.333-.394-.5-1.171-1.449-2.352-2.879-3.6-4.25a8.829,8.829,0,0,1-1.129-2.117c-.524-1.068-1.029-2.14-1.456-3.25a10.549,10.549,0,0,1-1.071-2.329,13.593,13.593,0,0,1,.3-2.6c.207-2.113.355-4.108-.635-6.069-.806-1.6-2.361-2.374-3.769-3.343a7.341,7.341,0,0,0-2.411-1.271c-.508-.127-1.2-.043-1.606-.34a3.508,3.508,0,0,1,1.406,3.123c-.092,1.65-.631,3.179-.654,4.857a6.855,6.855,0,0,0,1.512,4.961c1.435,1.794,3.038,1.793,4.917,2.766,1.613.835,2.125,3.059,2.974,4.543a6.285,6.285,0,0,0,.873,1.348,8.85,8.85,0,0,1,1.137,1.412c.2.327.25.709.44,1.039.261.452,1.026.87.329,1.092-.669.213-1.629-.3-2.216-.55-.946-.4-1.987-.6-2.922-1.029-.628-.288-1.216-.72-1.846-1.035-.463-.232-.928-.458-1.389-.693-.611-.312-1.211-.65-1.828-.949a31.237,31.237,0,0,1-3.32-1.817,49.461,49.461,0,0,1-8.188-6.324c-.417-.42-.72-.878-1.146-1.306-2.482-2.49-.014-6.728-2.894-9.3-2.265-2.02-5.949-2.067-8.648-3.086.258,1.312,1.247,2.646,1.414,4.059a9.143,9.143,0,0,0,1.712,4.55,11.335,11.335,0,0,0,3.72,3.348,19.3,19.3,0,0,0,3.918,1.871c1.534.428,2.324,1.576,3.59,2.575,1.481,1.168,2.928,2.384,4.485,3.453q1.426.979,2.909,1.871c.4.24.906.333,1.282.6.274.2,1.183.484,1.219.873.023.259-.257.322-.44.4a2.761,2.761,0,0,0-.468.27,4.808,4.808,0,0,1-1.171.5,21,21,0,0,1-3.693.948c-.957.113-1.411-.312-2.274-.606-1.2-.41-2.56-.846-3.791-1.153a7.082,7.082,0,0,0-3.275-.041,6.33,6.33,0,0,0-2.779,1.463,21.244,21.244,0,0,1-2.632,2.226,13.636,13.636,0,0,0-3.527,2.537c.64-.738,4.415.756,5.247,1.033a12.242,12.242,0,0,0,6.764.066c2.032-.664,2.807-3.154,4.674-4.073a24.779,24.779,0,0,1,3.956-1.232c1.07-.319,2.171-.57,3.225-.936a5.494,5.494,0,0,1,2.4-.238,7.592,7.592,0,0,1,2.174.911c.815.354,1.659.665,2.465,1.036a13.709,13.709,0,0,0,2.3.719c.752.2,1.506.4,2.256.6,1.064.293,2.184.384,3.256.651a3.794,3.794,0,0,1,1.591.561c.553.563-.19.822-.766,1.173s-1.114.713-1.648,1.094c-1.089.777-2.325,2.284-3.532,2.792-1.405.591-3.049-.209-4.508.021a15.707,15.707,0,0,0-3.519,1.123c-2.539,1.116-4.035,3.733-5.293,6.01a8.68,8.68,0,0,0-.659,2.735c-.208.951-.495,2.018-.788,2.926a13.653,13.653,0,0,1,3.449-1.163c1.837-.624,3.546-1.488,5.377-2.089,2.23-.732,3.235-2.274,4.395-4.179.543-.893.423-1.682.761-2.666a1.656,1.656,0,0,1,.469-.608c.279-.3.454-.737.8-.966a5.2,5.2,0,0,0,.919-.813,16.9,16.9,0,0,1,2.12-1.822,28.8,28.8,0,0,1,2.452-1.659c.47-.281.947-.549,1.436-.8a6.493,6.493,0,0,1,2.331-.323,4.792,4.792,0,0,1,1.763.212,9.715,9.715,0,0,0,2.232.339,6.129,6.129,0,0,1,2.48.576,12.485,12.485,0,0,0,3.033.554,10.557,10.557,0,0,1,2.048.5,13.829,13.829,0,0,1,1.71.591,22.411,22.411,0,0,0,3.674,1.331c1.32.41,2.516.946,3.855,1.238a8.546,8.546,0,0,1,2.865,1.054c.709.461,1,1.959,1.712,2.174C-2507.368-3634.186-2506.671-3634.669-2506.264-3635.168Z" transform="translate(2591.484 3689.323)" fill="#5e6850"/>
</svg>
