<?xml version="1.0" encoding="utf-8"?>
<!-- Generator: Adobe Illustrator 24.1.0, SVG Export Plug-In . SVG Version: 6.00 Build 0)  -->
<svg version="1.1" id="botanic-icon-shop" xmlns="http://www.w3.org/2000/svg" xmlns:xlink="http://www.w3.org/1999/xlink" x="0px"
	 y="0px" viewBox="0 0 90.6 37.7" style="enable-background:new 0 0 90.6 37.7;" xml:space="preserve">
<style type="text/css">
	.st0{fill:#5E6850;}
</style>
<path id="Path_14686" class="st0" d="M77,31.2c1.6-2-0.6-4.7-2.7-4.8c-1,0-2,0-3-0.2c-1-0.4-2-1-2.9-1.7c-0.8-0.5-1.7-1-2.5-1.6
	c-0.4-0.3-0.8-0.7-1.1-1.1c-0.1-0.2-0.3-0.3-0.4-0.5c-0.2-0.2-0.5-0.3-0.3-0.6c0.2-0.4,1.4-0.4,1.8-0.5c0.5-0.2,1.2-0.1,1.7-0.2
	c1.4-0.3,2.7-0.6,4.1-1c2.2-0.6,4.4-1.4,6.6-2.1c1.8-0.6,3.5-1.7,5.3-2c0.6-0.2,1.1-0.3,1.7-0.5c1.1,0,1.9,1,3.1,0.9
	c1.3-0.3,2.3-1.6,2.2-3c0.2-1.6-1-3-2.6-3.1c-0.2,0-0.5,0-0.7,0c-1.3,0.2-2.3,1.2-2.5,2.4c-0.3,0.8-0.9,1.4-1.7,1.8
	c-0.7,0.3-1.2,0.7-1.9,1c-3.9,1.7-7.9,3-12,3.9c-1.5,0.3-3,0.6-4.6,0.7c-0.8,0.1-1.7,0.2-2.5,0.3c-0.6,0.1-1.3,0.2-1.9,0.2
	c-0.6,0.2-1.2,0.3-1.8,0.3c-0.2,0,0.7-0.9,0.8-1c0.4-0.4,0.8-0.9,1.2-1.3c0.8-0.8,1.7-1.4,2.5-2.2c1.2-1.2,1.9-2.6,3.4-3.5
	c1.3-0.8,2.9-0.2,4.2-0.9c1.1-0.9,1.7-2.2,1.5-3.6c-0.5-2.7-5.1-3-6-0.4c-0.3,0.9-0.1,1.8-0.5,2.8c-0.9,2.5-2.8,4.2-4.6,6
	c-1,1-2,1.9-3.1,2.7c-1,0.8-2.1,1.3-3.3,1.5c-1.8,0.2-3.7,0.2-5.5,0c-1.9-0.2-3.7-0.6-5.5-1.1c-1.7-0.6-3.5-0.9-5.3-0.9
	c-1.1,0-2.3-0.1-3.4-0.3c-1.5-0.3-5.3,0.7-3.3-2.1c0.6-0.9,1.2-1.9,1.7-2.9c0.7-1.5,1.5-3,2.2-4.4c0.5-1,0.6-1,1.7-1.1
	c0.5,0,1.1-0.1,1.6-0.2c1.9-0.5,3.6-3,2.5-5C41,1.5,40.8,1.2,40.5,1c-0.8-0.7-1.8-1-2.8-1c-1.6,0.3-2.9,1.6-3.2,3.3
	c-0.2,0.9,0.1,1.3,0.3,2.1c0.1,0.8-0.6,2-0.8,2.8c-0.3,1.1-0.8,2.1-1.2,3.1c-0.7,2.1-2.1,3.9-3.9,5.1c-1.8,1.1-4,0.8-6.1,0.8
	c-7,0.2-13.8,1.4-20.7,1.9c-0.4,0-1.4,0-1.7,0.2c-0.4,0.4-0.2,1.7,0.1,2.2c1.2-0.2,2.4-0.3,3.7-0.4c1.8-0.3,3.5-0.8,5.2-1.1
	c0.8-0.1,1.7-0.1,2.6-0.2c1.4-0.3,2.8-0.5,4.2-0.6c1.8,0,3.6-0.5,5.4-0.5c2.1,0,4.2-0.1,6.3,0c1.2,0.1,2.3,0.1,3.5,0.2
	c0.9,0.1,1.7,0.3,2.6,0.4c1.4,0,2.8,0.3,4.1,0.9c0.8,0.4,1.5,1,2.1,1.6c1.3,1.2,2.5,2.4,3.6,3.7c1.2,1.2,2.2,2.6,3.1,4
	c0.3,0.6,0.7,1.2,1.1,1.8c0.5,0.8-0.1,1.3-0.1,2c0.1,1.2,0.5,2.3,1.3,3.3c0.9,1,2.3,1.4,3.5,0.9c0.6-0.2,1.2-0.6,1.6-1.1
	c0.5-0.7,0.7-1.5,0.6-2.4c0-1-0.4-2-1.2-2.6c-0.5-0.5-1.1-0.9-1.7-1c-0.7-0.1-1.2,0.3-1.8,0.3c-1.2,0-2.2-1.5-2.8-2.4
	c-0.8-1-1.5-2.1-2.3-3.1C44,24,43.1,23,42.1,22c-0.6-0.4-1-0.9-1.3-1.6c-0.2-0.8,0.2-1,0.9-0.8c1.5,0.3,3,0.6,4.6,0.7
	c1,0.2,1.9,0.4,2.9,0.6c0.9,0.1,1.9,0,2.8,0.2c0.8,0.2,1.6,0.3,2.5,0.2c0.5-0.2,1.1-0.3,1.6-0.2c0.9,0.1,1.7,0.1,2.6-0.1
	c0.8-0.2,1.6-0.2,2.4-0.1c1,0.2,1.9,0.6,2.7,1.3c1.1,0.9,2.2,1.6,3.3,2.4c0.4,0.3,0.9,0.5,1.3,0.8c0.5,0.4,1,0.7,1.5,1.2
	c0.3,0.3,0.5,0.6,0.7,1c0.4,0.7,0.3,1.6,0.6,2.3C72,31.6,75.7,32.9,77,31.2z"/>
</svg>
